G04 #@! TF.FileFunction,Legend,Top*
%FSLAX46Y46*%
G04 Gerber Fmt 4.6, Leading zero omitted, Abs format (unit mm)*
G04 Created by KiCad (PCBNEW 4.0.5) date 11/09/18 17:54:53*
%MOMM*%
%LPD*%
G01*
G04 APERTURE LIST*
%ADD10C,0.100000*%
%ADD11C,0.120000*%
%ADD12C,0.150000*%
G04 APERTURE END LIST*
D10*
D11*
X143160000Y-99681000D02*
X143160000Y-100939000D01*
X141320000Y-99681000D02*
X141320000Y-100939000D01*
X140349000Y-112680000D02*
X139091000Y-112680000D01*
X140349000Y-110840000D02*
X139091000Y-110840000D01*
X147941000Y-86710000D02*
X149199000Y-86710000D01*
X147941000Y-88550000D02*
X149199000Y-88550000D01*
X136511000Y-90520000D02*
X137769000Y-90520000D01*
X136511000Y-92360000D02*
X137769000Y-92360000D01*
X132430000Y-113679000D02*
X132430000Y-112421000D01*
X134270000Y-113679000D02*
X134270000Y-112421000D01*
D12*
X144691100Y-101828600D02*
X144691100Y-108178600D01*
X152311100Y-101828600D02*
X152311100Y-108178600D01*
X152311100Y-103733600D02*
X144691100Y-103733600D01*
X144691100Y-101828600D02*
X152311100Y-101828600D01*
X152311100Y-108178600D02*
X144691100Y-108178600D01*
X147320000Y-110490000D02*
X152400000Y-110490000D01*
X152400000Y-110490000D02*
X152400000Y-113030000D01*
X152400000Y-113030000D02*
X147320000Y-113030000D01*
X147320000Y-113030000D02*
X147320000Y-110490000D01*
X158750000Y-110490000D02*
X163830000Y-110490000D01*
X163830000Y-110490000D02*
X163830000Y-113030000D01*
X163830000Y-113030000D02*
X158750000Y-113030000D01*
X158750000Y-113030000D02*
X158750000Y-110490000D01*
X163830000Y-106680000D02*
X158750000Y-106680000D01*
X158750000Y-106680000D02*
X158750000Y-104140000D01*
X158750000Y-104140000D02*
X163830000Y-104140000D01*
X163830000Y-104140000D02*
X163830000Y-106680000D01*
X152400000Y-96520000D02*
X157480000Y-96520000D01*
X157480000Y-96520000D02*
X157480000Y-99060000D01*
X157480000Y-99060000D02*
X152400000Y-99060000D01*
X152400000Y-99060000D02*
X152400000Y-96520000D01*
X152400000Y-92710000D02*
X157480000Y-92710000D01*
X157480000Y-92710000D02*
X157480000Y-95250000D01*
X157480000Y-95250000D02*
X152400000Y-95250000D01*
X152400000Y-95250000D02*
X152400000Y-92710000D01*
X146050000Y-97790000D02*
X146050000Y-92710000D01*
X146050000Y-92710000D02*
X148590000Y-92710000D01*
X148590000Y-92710000D02*
X148590000Y-97790000D01*
X148590000Y-97790000D02*
X146050000Y-97790000D01*
X134620000Y-105410000D02*
X134620000Y-100330000D01*
X134620000Y-100330000D02*
X137160000Y-100330000D01*
X137160000Y-100330000D02*
X137160000Y-105410000D01*
X137160000Y-105410000D02*
X134620000Y-105410000D01*
X144647143Y-100476666D02*
X144694762Y-100524285D01*
X144742381Y-100667142D01*
X144742381Y-100762380D01*
X144694762Y-100905238D01*
X144599524Y-101000476D01*
X144504286Y-101048095D01*
X144313810Y-101095714D01*
X144170952Y-101095714D01*
X143980476Y-101048095D01*
X143885238Y-101000476D01*
X143790000Y-100905238D01*
X143742381Y-100762380D01*
X143742381Y-100667142D01*
X143790000Y-100524285D01*
X143837619Y-100476666D01*
X144742381Y-99524285D02*
X144742381Y-100095714D01*
X144742381Y-99810000D02*
X143742381Y-99810000D01*
X143885238Y-99905238D01*
X143980476Y-100000476D01*
X144028095Y-100095714D01*
X139553334Y-114167143D02*
X139505715Y-114214762D01*
X139362858Y-114262381D01*
X139267620Y-114262381D01*
X139124762Y-114214762D01*
X139029524Y-114119524D01*
X138981905Y-114024286D01*
X138934286Y-113833810D01*
X138934286Y-113690952D01*
X138981905Y-113500476D01*
X139029524Y-113405238D01*
X139124762Y-113310000D01*
X139267620Y-113262381D01*
X139362858Y-113262381D01*
X139505715Y-113310000D01*
X139553334Y-113357619D01*
X139934286Y-113357619D02*
X139981905Y-113310000D01*
X140077143Y-113262381D01*
X140315239Y-113262381D01*
X140410477Y-113310000D01*
X140458096Y-113357619D01*
X140505715Y-113452857D01*
X140505715Y-113548095D01*
X140458096Y-113690952D01*
X139886667Y-114262381D01*
X140505715Y-114262381D01*
X148403334Y-85937143D02*
X148355715Y-85984762D01*
X148212858Y-86032381D01*
X148117620Y-86032381D01*
X147974762Y-85984762D01*
X147879524Y-85889524D01*
X147831905Y-85794286D01*
X147784286Y-85603810D01*
X147784286Y-85460952D01*
X147831905Y-85270476D01*
X147879524Y-85175238D01*
X147974762Y-85080000D01*
X148117620Y-85032381D01*
X148212858Y-85032381D01*
X148355715Y-85080000D01*
X148403334Y-85127619D01*
X148736667Y-85032381D02*
X149355715Y-85032381D01*
X149022381Y-85413333D01*
X149165239Y-85413333D01*
X149260477Y-85460952D01*
X149308096Y-85508571D01*
X149355715Y-85603810D01*
X149355715Y-85841905D01*
X149308096Y-85937143D01*
X149260477Y-85984762D01*
X149165239Y-86032381D01*
X148879524Y-86032381D01*
X148784286Y-85984762D01*
X148736667Y-85937143D01*
X136973334Y-89747143D02*
X136925715Y-89794762D01*
X136782858Y-89842381D01*
X136687620Y-89842381D01*
X136544762Y-89794762D01*
X136449524Y-89699524D01*
X136401905Y-89604286D01*
X136354286Y-89413810D01*
X136354286Y-89270952D01*
X136401905Y-89080476D01*
X136449524Y-88985238D01*
X136544762Y-88890000D01*
X136687620Y-88842381D01*
X136782858Y-88842381D01*
X136925715Y-88890000D01*
X136973334Y-88937619D01*
X137830477Y-89175714D02*
X137830477Y-89842381D01*
X137592381Y-88794762D02*
X137354286Y-89509048D01*
X137973334Y-89509048D01*
X131657143Y-113216666D02*
X131704762Y-113264285D01*
X131752381Y-113407142D01*
X131752381Y-113502380D01*
X131704762Y-113645238D01*
X131609524Y-113740476D01*
X131514286Y-113788095D01*
X131323810Y-113835714D01*
X131180952Y-113835714D01*
X130990476Y-113788095D01*
X130895238Y-113740476D01*
X130800000Y-113645238D01*
X130752381Y-113502380D01*
X130752381Y-113407142D01*
X130800000Y-113264285D01*
X130847619Y-113216666D01*
X130752381Y-112311904D02*
X130752381Y-112788095D01*
X131228571Y-112835714D01*
X131180952Y-112788095D01*
X131133333Y-112692857D01*
X131133333Y-112454761D01*
X131180952Y-112359523D01*
X131228571Y-112311904D01*
X131323810Y-112264285D01*
X131561905Y-112264285D01*
X131657143Y-112311904D01*
X131704762Y-112359523D01*
X131752381Y-112454761D01*
X131752381Y-112692857D01*
X131704762Y-112788095D01*
X131657143Y-112835714D01*
X148455862Y-101751219D02*
X148360624Y-101703600D01*
X148265386Y-101608362D01*
X148122529Y-101465505D01*
X148027290Y-101417886D01*
X147932052Y-101417886D01*
X147979671Y-101655981D02*
X147884433Y-101608362D01*
X147789195Y-101513124D01*
X147741576Y-101322648D01*
X147741576Y-100989314D01*
X147789195Y-100798838D01*
X147884433Y-100703600D01*
X147979671Y-100655981D01*
X148170148Y-100655981D01*
X148265386Y-100703600D01*
X148360624Y-100798838D01*
X148408243Y-100989314D01*
X148408243Y-101322648D01*
X148360624Y-101513124D01*
X148265386Y-101608362D01*
X148170148Y-101655981D01*
X147979671Y-101655981D01*
X149360624Y-101655981D02*
X148789195Y-101655981D01*
X149074909Y-101655981D02*
X149074909Y-100655981D01*
X148979671Y-100798838D01*
X148884433Y-100894076D01*
X148789195Y-100941695D01*
X149942254Y-108712261D02*
X149608920Y-108236070D01*
X149370825Y-108712261D02*
X149370825Y-107712261D01*
X149751778Y-107712261D01*
X149847016Y-107759880D01*
X149894635Y-107807499D01*
X149942254Y-107902737D01*
X149942254Y-108045594D01*
X149894635Y-108140832D01*
X149847016Y-108188451D01*
X149751778Y-108236070D01*
X149370825Y-108236070D01*
X150894635Y-108712261D02*
X150323206Y-108712261D01*
X150608920Y-108712261D02*
X150608920Y-107712261D01*
X150513682Y-107855118D01*
X150418444Y-107950356D01*
X150323206Y-107997975D01*
X161372254Y-108712261D02*
X161038920Y-108236070D01*
X160800825Y-108712261D02*
X160800825Y-107712261D01*
X161181778Y-107712261D01*
X161277016Y-107759880D01*
X161324635Y-107807499D01*
X161372254Y-107902737D01*
X161372254Y-108045594D01*
X161324635Y-108140832D01*
X161277016Y-108188451D01*
X161181778Y-108236070D01*
X160800825Y-108236070D01*
X161753206Y-107807499D02*
X161800825Y-107759880D01*
X161896063Y-107712261D01*
X162134159Y-107712261D01*
X162229397Y-107759880D01*
X162277016Y-107807499D01*
X162324635Y-107902737D01*
X162324635Y-107997975D01*
X162277016Y-108140832D01*
X161705587Y-108712261D01*
X162324635Y-108712261D01*
X160874414Y-109362501D02*
X160541080Y-108886310D01*
X160302985Y-109362501D02*
X160302985Y-108362501D01*
X160683938Y-108362501D01*
X160779176Y-108410120D01*
X160826795Y-108457739D01*
X160874414Y-108552977D01*
X160874414Y-108695834D01*
X160826795Y-108791072D01*
X160779176Y-108838691D01*
X160683938Y-108886310D01*
X160302985Y-108886310D01*
X161207747Y-108362501D02*
X161826795Y-108362501D01*
X161493461Y-108743453D01*
X161636319Y-108743453D01*
X161731557Y-108791072D01*
X161779176Y-108838691D01*
X161826795Y-108933930D01*
X161826795Y-109172025D01*
X161779176Y-109267263D01*
X161731557Y-109314882D01*
X161636319Y-109362501D01*
X161350604Y-109362501D01*
X161255366Y-109314882D01*
X161207747Y-109267263D01*
X155022254Y-94742261D02*
X154688920Y-94266070D01*
X154450825Y-94742261D02*
X154450825Y-93742261D01*
X154831778Y-93742261D01*
X154927016Y-93789880D01*
X154974635Y-93837499D01*
X155022254Y-93932737D01*
X155022254Y-94075594D01*
X154974635Y-94170832D01*
X154927016Y-94218451D01*
X154831778Y-94266070D01*
X154450825Y-94266070D01*
X155879397Y-94075594D02*
X155879397Y-94742261D01*
X155641301Y-93694642D02*
X155403206Y-94408928D01*
X156022254Y-94408928D01*
X155022254Y-90932261D02*
X154688920Y-90456070D01*
X154450825Y-90932261D02*
X154450825Y-89932261D01*
X154831778Y-89932261D01*
X154927016Y-89979880D01*
X154974635Y-90027499D01*
X155022254Y-90122737D01*
X155022254Y-90265594D01*
X154974635Y-90360832D01*
X154927016Y-90408451D01*
X154831778Y-90456070D01*
X154450825Y-90456070D01*
X155927016Y-89932261D02*
X155450825Y-89932261D01*
X155403206Y-90408451D01*
X155450825Y-90360832D01*
X155546063Y-90313213D01*
X155784159Y-90313213D01*
X155879397Y-90360832D01*
X155927016Y-90408451D01*
X155974635Y-90503690D01*
X155974635Y-90741785D01*
X155927016Y-90837023D01*
X155879397Y-90884642D01*
X155784159Y-90932261D01*
X155546063Y-90932261D01*
X155450825Y-90884642D01*
X155403206Y-90837023D01*
X144272261Y-95167746D02*
X143796070Y-95501080D01*
X144272261Y-95739175D02*
X143272261Y-95739175D01*
X143272261Y-95358222D01*
X143319880Y-95262984D01*
X143367499Y-95215365D01*
X143462737Y-95167746D01*
X143605594Y-95167746D01*
X143700832Y-95215365D01*
X143748451Y-95262984D01*
X143796070Y-95358222D01*
X143796070Y-95739175D01*
X143272261Y-94310603D02*
X143272261Y-94501080D01*
X143319880Y-94596318D01*
X143367499Y-94643937D01*
X143510356Y-94739175D01*
X143700832Y-94786794D01*
X144081785Y-94786794D01*
X144177023Y-94739175D01*
X144224642Y-94691556D01*
X144272261Y-94596318D01*
X144272261Y-94405841D01*
X144224642Y-94310603D01*
X144177023Y-94262984D01*
X144081785Y-94215365D01*
X143843690Y-94215365D01*
X143748451Y-94262984D01*
X143700832Y-94310603D01*
X143653213Y-94405841D01*
X143653213Y-94596318D01*
X143700832Y-94691556D01*
X143748451Y-94739175D01*
X143843690Y-94786794D01*
X132842261Y-102787746D02*
X132366070Y-103121080D01*
X132842261Y-103359175D02*
X131842261Y-103359175D01*
X131842261Y-102978222D01*
X131889880Y-102882984D01*
X131937499Y-102835365D01*
X132032737Y-102787746D01*
X132175594Y-102787746D01*
X132270832Y-102835365D01*
X132318451Y-102882984D01*
X132366070Y-102978222D01*
X132366070Y-103359175D01*
X131842261Y-102454413D02*
X131842261Y-101787746D01*
X132842261Y-102216318D01*
M02*
