%FSLAX45Y45*%
G04 Gerber Fmt 4.5, Leading zero omitted, Abs format (unit mm)*
G04 Created by KiCad (PCBNEW 4.0.5) date 11/09/18 17:54:50*
%MOMM*%
%LPD*%
G01*
G04 APERTURE LIST*
%ADD10C,0.127000*%
%ADD11C,0.150000*%
%ADD12C,0.200000*%
%ADD13C,0.300000*%
G04 APERTURE END LIST*
D10*
D11*
X12954000Y-12192000D02*
X12954000Y-8382000D01*
X17399000Y-12192000D02*
X12954000Y-12192000D01*
X17399000Y-8382000D02*
X17399000Y-12192000D01*
X12954000Y-8382000D02*
X17399000Y-8382000D01*
D12*
X13295000Y-11140000D02*
X13375000Y-11220000D01*
X13375000Y-11140000D02*
X13295000Y-11220000D01*
X13295000Y-11390000D02*
X13375000Y-11470000D01*
X13375000Y-11390000D02*
X13295000Y-11470000D01*
X13549000Y-9104000D02*
X13629000Y-9184000D01*
X13629000Y-9104000D02*
X13549000Y-9184000D01*
X13799000Y-9104000D02*
X13879000Y-9184000D01*
X13879000Y-9104000D02*
X13799000Y-9184000D01*
X13807000Y-11136000D02*
X13887000Y-11216000D01*
X13887000Y-11136000D02*
X13807000Y-11216000D01*
X14057000Y-11136000D02*
X14137000Y-11216000D01*
X14137000Y-11136000D02*
X14057000Y-11216000D01*
X14184000Y-9866000D02*
X14264000Y-9946000D01*
X14264000Y-9866000D02*
X14184000Y-9946000D01*
X14184000Y-10116000D02*
X14264000Y-10196000D01*
X14264000Y-10116000D02*
X14184000Y-10196000D01*
X14692000Y-8723000D02*
X14772000Y-8803000D01*
X14772000Y-8723000D02*
X14692000Y-8803000D01*
X14942000Y-8723000D02*
X15022000Y-8803000D01*
X15022000Y-8723000D02*
X14942000Y-8803000D01*
X14646021Y-10500360D02*
G75*
G03X14646021Y-10500360I-49911J0D01*
G01*
X14900021Y-10500360D02*
G75*
G03X14900021Y-10500360I-49911J0D01*
G01*
X15154021Y-10500360D02*
G75*
G03X15154021Y-10500360I-49911J0D01*
G01*
X13589000Y-9855962D02*
X13589000Y-9956038D01*
X13538962Y-9906000D02*
X13639038Y-9906000D01*
X13589000Y-10617962D02*
X13589000Y-10718038D01*
X13538962Y-10668000D02*
X13639038Y-10668000D01*
X14605000Y-11125962D02*
X14605000Y-11226038D01*
X14554962Y-11176000D02*
X14655038Y-11176000D01*
X14732000Y-9093962D02*
X14732000Y-9194038D01*
X14681962Y-9144000D02*
X14782038Y-9144000D01*
X14732000Y-9855962D02*
X14732000Y-9956038D01*
X14681962Y-9906000D02*
X14782038Y-9906000D01*
X15113000Y-9347962D02*
X15113000Y-9448038D01*
X15062962Y-9398000D02*
X15163038Y-9398000D01*
X15113000Y-9728962D02*
X15113000Y-9829038D01*
X15062962Y-9779000D02*
X15163038Y-9779000D01*
X15367000Y-11125962D02*
X15367000Y-11226038D01*
X15316962Y-11176000D02*
X15417038Y-11176000D01*
X15748000Y-10490962D02*
X15748000Y-10591038D01*
X15697962Y-10541000D02*
X15798038Y-10541000D01*
X15748000Y-11125962D02*
X15748000Y-11226038D01*
X15697962Y-11176000D02*
X15798038Y-11176000D01*
X15875000Y-9347962D02*
X15875000Y-9448038D01*
X15824962Y-9398000D02*
X15925038Y-9398000D01*
X15875000Y-9728962D02*
X15875000Y-9829038D01*
X15824962Y-9779000D02*
X15925038Y-9779000D01*
X16510000Y-10490962D02*
X16510000Y-10591038D01*
X16459962Y-10541000D02*
X16560038Y-10541000D01*
X16510000Y-11125962D02*
X16510000Y-11226038D01*
X16459962Y-11176000D02*
X16560038Y-11176000D01*
D13*
X13217928Y-12665214D02*
X13217928Y-12365214D01*
X13289357Y-12365214D01*
X13332214Y-12379500D01*
X13360786Y-12408071D01*
X13375071Y-12436643D01*
X13389357Y-12493786D01*
X13389357Y-12536643D01*
X13375071Y-12593786D01*
X13360786Y-12622357D01*
X13332214Y-12650929D01*
X13289357Y-12665214D01*
X13217928Y-12665214D01*
X13517928Y-12665214D02*
X13517928Y-12465214D01*
X13517928Y-12522357D02*
X13532214Y-12493786D01*
X13546500Y-12479500D01*
X13575071Y-12465214D01*
X13603643Y-12465214D01*
X13703643Y-12665214D02*
X13703643Y-12465214D01*
X13703643Y-12365214D02*
X13689357Y-12379500D01*
X13703643Y-12393786D01*
X13717928Y-12379500D01*
X13703643Y-12365214D01*
X13703643Y-12393786D01*
X13889357Y-12665214D02*
X13860786Y-12650929D01*
X13846500Y-12622357D01*
X13846500Y-12365214D01*
X14046500Y-12665214D02*
X14017928Y-12650929D01*
X14003643Y-12622357D01*
X14003643Y-12365214D01*
X14389357Y-12665214D02*
X14389357Y-12365214D01*
X14489357Y-12579500D01*
X14589357Y-12365214D01*
X14589357Y-12665214D01*
X14860786Y-12665214D02*
X14860786Y-12508071D01*
X14846500Y-12479500D01*
X14817928Y-12465214D01*
X14760786Y-12465214D01*
X14732214Y-12479500D01*
X14860786Y-12650929D02*
X14832214Y-12665214D01*
X14760786Y-12665214D01*
X14732214Y-12650929D01*
X14717928Y-12622357D01*
X14717928Y-12593786D01*
X14732214Y-12565214D01*
X14760786Y-12550929D01*
X14832214Y-12550929D01*
X14860786Y-12536643D01*
X15003643Y-12465214D02*
X15003643Y-12765214D01*
X15003643Y-12479500D02*
X15032214Y-12465214D01*
X15089357Y-12465214D01*
X15117928Y-12479500D01*
X15132214Y-12493786D01*
X15146500Y-12522357D01*
X15146500Y-12608071D01*
X15132214Y-12636643D01*
X15117928Y-12650929D01*
X15089357Y-12665214D01*
X15032214Y-12665214D01*
X15003643Y-12650929D01*
X15275071Y-12636643D02*
X15289357Y-12650929D01*
X15275071Y-12665214D01*
X15260786Y-12650929D01*
X15275071Y-12636643D01*
X15275071Y-12665214D01*
X15275071Y-12479500D02*
X15289357Y-12493786D01*
X15275071Y-12508071D01*
X15260786Y-12493786D01*
X15275071Y-12479500D01*
X15275071Y-12508071D01*
X12866500Y-13119500D02*
X12946500Y-13199500D01*
X12946500Y-13119500D02*
X12866500Y-13199500D01*
X13275071Y-12995214D02*
X13303643Y-12995214D01*
X13332214Y-13009500D01*
X13346500Y-13023786D01*
X13360786Y-13052357D01*
X13375071Y-13109500D01*
X13375071Y-13180929D01*
X13360786Y-13238071D01*
X13346500Y-13266643D01*
X13332214Y-13280929D01*
X13303643Y-13295214D01*
X13275071Y-13295214D01*
X13246500Y-13280929D01*
X13232214Y-13266643D01*
X13217928Y-13238071D01*
X13203643Y-13180929D01*
X13203643Y-13109500D01*
X13217928Y-13052357D01*
X13232214Y-13023786D01*
X13246500Y-13009500D01*
X13275071Y-12995214D01*
X13503643Y-13266643D02*
X13517928Y-13280929D01*
X13503643Y-13295214D01*
X13489357Y-13280929D01*
X13503643Y-13266643D01*
X13503643Y-13295214D01*
X13689357Y-13123786D02*
X13660786Y-13109500D01*
X13646500Y-13095214D01*
X13632214Y-13066643D01*
X13632214Y-13052357D01*
X13646500Y-13023786D01*
X13660786Y-13009500D01*
X13689357Y-12995214D01*
X13746500Y-12995214D01*
X13775071Y-13009500D01*
X13789357Y-13023786D01*
X13803643Y-13052357D01*
X13803643Y-13066643D01*
X13789357Y-13095214D01*
X13775071Y-13109500D01*
X13746500Y-13123786D01*
X13689357Y-13123786D01*
X13660786Y-13138071D01*
X13646500Y-13152357D01*
X13632214Y-13180929D01*
X13632214Y-13238071D01*
X13646500Y-13266643D01*
X13660786Y-13280929D01*
X13689357Y-13295214D01*
X13746500Y-13295214D01*
X13775071Y-13280929D01*
X13789357Y-13266643D01*
X13803643Y-13238071D01*
X13803643Y-13180929D01*
X13789357Y-13152357D01*
X13775071Y-13138071D01*
X13746500Y-13123786D01*
X13989357Y-12995214D02*
X14017928Y-12995214D01*
X14046500Y-13009500D01*
X14060786Y-13023786D01*
X14075071Y-13052357D01*
X14089357Y-13109500D01*
X14089357Y-13180929D01*
X14075071Y-13238071D01*
X14060786Y-13266643D01*
X14046500Y-13280929D01*
X14017928Y-13295214D01*
X13989357Y-13295214D01*
X13960786Y-13280929D01*
X13946500Y-13266643D01*
X13932214Y-13238071D01*
X13917928Y-13180929D01*
X13917928Y-13109500D01*
X13932214Y-13052357D01*
X13946500Y-13023786D01*
X13960786Y-13009500D01*
X13989357Y-12995214D01*
X14217928Y-13295214D02*
X14217928Y-13095214D01*
X14217928Y-13123786D02*
X14232214Y-13109500D01*
X14260786Y-13095214D01*
X14303643Y-13095214D01*
X14332214Y-13109500D01*
X14346500Y-13138071D01*
X14346500Y-13295214D01*
X14346500Y-13138071D02*
X14360786Y-13109500D01*
X14389357Y-13095214D01*
X14432214Y-13095214D01*
X14460786Y-13109500D01*
X14475071Y-13138071D01*
X14475071Y-13295214D01*
X14617928Y-13295214D02*
X14617928Y-13095214D01*
X14617928Y-13123786D02*
X14632214Y-13109500D01*
X14660786Y-13095214D01*
X14703643Y-13095214D01*
X14732214Y-13109500D01*
X14746500Y-13138071D01*
X14746500Y-13295214D01*
X14746500Y-13138071D02*
X14760786Y-13109500D01*
X14789357Y-13095214D01*
X14832214Y-13095214D01*
X14860786Y-13109500D01*
X14875071Y-13138071D01*
X14875071Y-13295214D01*
X15460786Y-12980929D02*
X15203643Y-13366643D01*
X15846500Y-12995214D02*
X15875071Y-12995214D01*
X15903643Y-13009500D01*
X15917928Y-13023786D01*
X15932214Y-13052357D01*
X15946500Y-13109500D01*
X15946500Y-13180929D01*
X15932214Y-13238071D01*
X15917928Y-13266643D01*
X15903643Y-13280929D01*
X15875071Y-13295214D01*
X15846500Y-13295214D01*
X15817928Y-13280929D01*
X15803643Y-13266643D01*
X15789357Y-13238071D01*
X15775071Y-13180929D01*
X15775071Y-13109500D01*
X15789357Y-13052357D01*
X15803643Y-13023786D01*
X15817928Y-13009500D01*
X15846500Y-12995214D01*
X16075071Y-13266643D02*
X16089357Y-13280929D01*
X16075071Y-13295214D01*
X16060786Y-13280929D01*
X16075071Y-13266643D01*
X16075071Y-13295214D01*
X16275071Y-12995214D02*
X16303643Y-12995214D01*
X16332214Y-13009500D01*
X16346500Y-13023786D01*
X16360785Y-13052357D01*
X16375071Y-13109500D01*
X16375071Y-13180929D01*
X16360785Y-13238071D01*
X16346500Y-13266643D01*
X16332214Y-13280929D01*
X16303643Y-13295214D01*
X16275071Y-13295214D01*
X16246500Y-13280929D01*
X16232214Y-13266643D01*
X16217928Y-13238071D01*
X16203643Y-13180929D01*
X16203643Y-13109500D01*
X16217928Y-13052357D01*
X16232214Y-13023786D01*
X16246500Y-13009500D01*
X16275071Y-12995214D01*
X16475071Y-12995214D02*
X16660785Y-12995214D01*
X16560785Y-13109500D01*
X16603643Y-13109500D01*
X16632214Y-13123786D01*
X16646500Y-13138071D01*
X16660785Y-13166643D01*
X16660785Y-13238071D01*
X16646500Y-13266643D01*
X16632214Y-13280929D01*
X16603643Y-13295214D01*
X16517928Y-13295214D01*
X16489357Y-13280929D01*
X16475071Y-13266643D01*
X16946500Y-13295214D02*
X16775071Y-13295214D01*
X16860786Y-13295214D02*
X16860786Y-12995214D01*
X16832214Y-13038071D01*
X16803643Y-13066643D01*
X16775071Y-13080929D01*
X17060786Y-12995214D02*
X17060786Y-13052357D01*
X17175071Y-12995214D02*
X17175071Y-13052357D01*
X17617928Y-13409500D02*
X17603643Y-13395214D01*
X17575071Y-13352357D01*
X17560786Y-13323786D01*
X17546500Y-13280929D01*
X17532214Y-13209500D01*
X17532214Y-13152357D01*
X17546500Y-13080929D01*
X17560786Y-13038071D01*
X17575071Y-13009500D01*
X17603643Y-12966643D01*
X17617928Y-12952357D01*
X17889357Y-13295214D02*
X17717928Y-13295214D01*
X17803643Y-13295214D02*
X17803643Y-12995214D01*
X17775071Y-13038071D01*
X17746500Y-13066643D01*
X17717928Y-13080929D01*
X18075071Y-12995214D02*
X18103643Y-12995214D01*
X18132214Y-13009500D01*
X18146500Y-13023786D01*
X18160786Y-13052357D01*
X18175071Y-13109500D01*
X18175071Y-13180929D01*
X18160786Y-13238071D01*
X18146500Y-13266643D01*
X18132214Y-13280929D01*
X18103643Y-13295214D01*
X18075071Y-13295214D01*
X18046500Y-13280929D01*
X18032214Y-13266643D01*
X18017928Y-13238071D01*
X18003643Y-13180929D01*
X18003643Y-13109500D01*
X18017928Y-13052357D01*
X18032214Y-13023786D01*
X18046500Y-13009500D01*
X18075071Y-12995214D01*
X18532214Y-13295214D02*
X18532214Y-12995214D01*
X18660786Y-13295214D02*
X18660786Y-13138071D01*
X18646500Y-13109500D01*
X18617928Y-13095214D01*
X18575071Y-13095214D01*
X18546500Y-13109500D01*
X18532214Y-13123786D01*
X18846500Y-13295214D02*
X18817928Y-13280929D01*
X18803643Y-13266643D01*
X18789357Y-13238071D01*
X18789357Y-13152357D01*
X18803643Y-13123786D01*
X18817928Y-13109500D01*
X18846500Y-13095214D01*
X18889357Y-13095214D01*
X18917928Y-13109500D01*
X18932214Y-13123786D01*
X18946500Y-13152357D01*
X18946500Y-13238071D01*
X18932214Y-13266643D01*
X18917928Y-13280929D01*
X18889357Y-13295214D01*
X18846500Y-13295214D01*
X19117928Y-13295214D02*
X19089357Y-13280929D01*
X19075071Y-13252357D01*
X19075071Y-12995214D01*
X19346500Y-13280929D02*
X19317929Y-13295214D01*
X19260786Y-13295214D01*
X19232214Y-13280929D01*
X19217929Y-13252357D01*
X19217929Y-13138071D01*
X19232214Y-13109500D01*
X19260786Y-13095214D01*
X19317929Y-13095214D01*
X19346500Y-13109500D01*
X19360786Y-13138071D01*
X19360786Y-13166643D01*
X19217929Y-13195214D01*
X19475071Y-13280929D02*
X19503643Y-13295214D01*
X19560786Y-13295214D01*
X19589357Y-13280929D01*
X19603643Y-13252357D01*
X19603643Y-13238071D01*
X19589357Y-13209500D01*
X19560786Y-13195214D01*
X19517929Y-13195214D01*
X19489357Y-13180929D01*
X19475071Y-13152357D01*
X19475071Y-13138071D01*
X19489357Y-13109500D01*
X19517929Y-13095214D01*
X19560786Y-13095214D01*
X19589357Y-13109500D01*
X19703643Y-13409500D02*
X19717929Y-13395214D01*
X19746500Y-13352357D01*
X19760786Y-13323786D01*
X19775071Y-13280929D01*
X19789357Y-13209500D01*
X19789357Y-13152357D01*
X19775071Y-13080929D01*
X19760786Y-13038071D01*
X19746500Y-13009500D01*
X19717929Y-12966643D01*
X19703643Y-12952357D01*
X12946500Y-13555500D02*
G75*
G03X12946500Y-13555500I-49911J0D01*
G01*
X13375071Y-13691214D02*
X13203643Y-13691214D01*
X13289357Y-13691214D02*
X13289357Y-13391214D01*
X13260786Y-13434071D01*
X13232214Y-13462643D01*
X13203643Y-13476929D01*
X13503643Y-13662643D02*
X13517928Y-13676929D01*
X13503643Y-13691214D01*
X13489357Y-13676929D01*
X13503643Y-13662643D01*
X13503643Y-13691214D01*
X13703643Y-13391214D02*
X13732214Y-13391214D01*
X13760786Y-13405500D01*
X13775071Y-13419786D01*
X13789357Y-13448357D01*
X13803643Y-13505500D01*
X13803643Y-13576929D01*
X13789357Y-13634071D01*
X13775071Y-13662643D01*
X13760786Y-13676929D01*
X13732214Y-13691214D01*
X13703643Y-13691214D01*
X13675071Y-13676929D01*
X13660786Y-13662643D01*
X13646500Y-13634071D01*
X13632214Y-13576929D01*
X13632214Y-13505500D01*
X13646500Y-13448357D01*
X13660786Y-13419786D01*
X13675071Y-13405500D01*
X13703643Y-13391214D01*
X13989357Y-13391214D02*
X14017928Y-13391214D01*
X14046500Y-13405500D01*
X14060786Y-13419786D01*
X14075071Y-13448357D01*
X14089357Y-13505500D01*
X14089357Y-13576929D01*
X14075071Y-13634071D01*
X14060786Y-13662643D01*
X14046500Y-13676929D01*
X14017928Y-13691214D01*
X13989357Y-13691214D01*
X13960786Y-13676929D01*
X13946500Y-13662643D01*
X13932214Y-13634071D01*
X13917928Y-13576929D01*
X13917928Y-13505500D01*
X13932214Y-13448357D01*
X13946500Y-13419786D01*
X13960786Y-13405500D01*
X13989357Y-13391214D01*
X14217928Y-13691214D02*
X14217928Y-13491214D01*
X14217928Y-13519786D02*
X14232214Y-13505500D01*
X14260786Y-13491214D01*
X14303643Y-13491214D01*
X14332214Y-13505500D01*
X14346500Y-13534071D01*
X14346500Y-13691214D01*
X14346500Y-13534071D02*
X14360786Y-13505500D01*
X14389357Y-13491214D01*
X14432214Y-13491214D01*
X14460786Y-13505500D01*
X14475071Y-13534071D01*
X14475071Y-13691214D01*
X14617928Y-13691214D02*
X14617928Y-13491214D01*
X14617928Y-13519786D02*
X14632214Y-13505500D01*
X14660786Y-13491214D01*
X14703643Y-13491214D01*
X14732214Y-13505500D01*
X14746500Y-13534071D01*
X14746500Y-13691214D01*
X14746500Y-13534071D02*
X14760786Y-13505500D01*
X14789357Y-13491214D01*
X14832214Y-13491214D01*
X14860786Y-13505500D01*
X14875071Y-13534071D01*
X14875071Y-13691214D01*
X15460786Y-13376929D02*
X15203643Y-13762643D01*
X15846500Y-13391214D02*
X15875071Y-13391214D01*
X15903643Y-13405500D01*
X15917928Y-13419786D01*
X15932214Y-13448357D01*
X15946500Y-13505500D01*
X15946500Y-13576929D01*
X15932214Y-13634071D01*
X15917928Y-13662643D01*
X15903643Y-13676929D01*
X15875071Y-13691214D01*
X15846500Y-13691214D01*
X15817928Y-13676929D01*
X15803643Y-13662643D01*
X15789357Y-13634071D01*
X15775071Y-13576929D01*
X15775071Y-13505500D01*
X15789357Y-13448357D01*
X15803643Y-13419786D01*
X15817928Y-13405500D01*
X15846500Y-13391214D01*
X16075071Y-13662643D02*
X16089357Y-13676929D01*
X16075071Y-13691214D01*
X16060786Y-13676929D01*
X16075071Y-13662643D01*
X16075071Y-13691214D01*
X16275071Y-13391214D02*
X16303643Y-13391214D01*
X16332214Y-13405500D01*
X16346500Y-13419786D01*
X16360785Y-13448357D01*
X16375071Y-13505500D01*
X16375071Y-13576929D01*
X16360785Y-13634071D01*
X16346500Y-13662643D01*
X16332214Y-13676929D01*
X16303643Y-13691214D01*
X16275071Y-13691214D01*
X16246500Y-13676929D01*
X16232214Y-13662643D01*
X16217928Y-13634071D01*
X16203643Y-13576929D01*
X16203643Y-13505500D01*
X16217928Y-13448357D01*
X16232214Y-13419786D01*
X16246500Y-13405500D01*
X16275071Y-13391214D01*
X16475071Y-13391214D02*
X16660785Y-13391214D01*
X16560785Y-13505500D01*
X16603643Y-13505500D01*
X16632214Y-13519786D01*
X16646500Y-13534071D01*
X16660785Y-13562643D01*
X16660785Y-13634071D01*
X16646500Y-13662643D01*
X16632214Y-13676929D01*
X16603643Y-13691214D01*
X16517928Y-13691214D01*
X16489357Y-13676929D01*
X16475071Y-13662643D01*
X16803643Y-13691214D02*
X16860786Y-13691214D01*
X16889357Y-13676929D01*
X16903643Y-13662643D01*
X16932214Y-13619786D01*
X16946500Y-13562643D01*
X16946500Y-13448357D01*
X16932214Y-13419786D01*
X16917928Y-13405500D01*
X16889357Y-13391214D01*
X16832214Y-13391214D01*
X16803643Y-13405500D01*
X16789357Y-13419786D01*
X16775071Y-13448357D01*
X16775071Y-13519786D01*
X16789357Y-13548357D01*
X16803643Y-13562643D01*
X16832214Y-13576929D01*
X16889357Y-13576929D01*
X16917928Y-13562643D01*
X16932214Y-13548357D01*
X16946500Y-13519786D01*
X17060786Y-13391214D02*
X17060786Y-13448357D01*
X17175071Y-13391214D02*
X17175071Y-13448357D01*
X17617928Y-13805500D02*
X17603643Y-13791214D01*
X17575071Y-13748357D01*
X17560786Y-13719786D01*
X17546500Y-13676929D01*
X17532214Y-13605500D01*
X17532214Y-13548357D01*
X17546500Y-13476929D01*
X17560786Y-13434071D01*
X17575071Y-13405500D01*
X17603643Y-13362643D01*
X17617928Y-13348357D01*
X17703643Y-13391214D02*
X17889357Y-13391214D01*
X17789357Y-13505500D01*
X17832214Y-13505500D01*
X17860786Y-13519786D01*
X17875071Y-13534071D01*
X17889357Y-13562643D01*
X17889357Y-13634071D01*
X17875071Y-13662643D01*
X17860786Y-13676929D01*
X17832214Y-13691214D01*
X17746500Y-13691214D01*
X17717928Y-13676929D01*
X17703643Y-13662643D01*
X18246500Y-13691214D02*
X18246500Y-13391214D01*
X18375071Y-13691214D02*
X18375071Y-13534071D01*
X18360786Y-13505500D01*
X18332214Y-13491214D01*
X18289357Y-13491214D01*
X18260786Y-13505500D01*
X18246500Y-13519786D01*
X18560786Y-13691214D02*
X18532214Y-13676929D01*
X18517928Y-13662643D01*
X18503643Y-13634071D01*
X18503643Y-13548357D01*
X18517928Y-13519786D01*
X18532214Y-13505500D01*
X18560786Y-13491214D01*
X18603643Y-13491214D01*
X18632214Y-13505500D01*
X18646500Y-13519786D01*
X18660786Y-13548357D01*
X18660786Y-13634071D01*
X18646500Y-13662643D01*
X18632214Y-13676929D01*
X18603643Y-13691214D01*
X18560786Y-13691214D01*
X18832214Y-13691214D02*
X18803643Y-13676929D01*
X18789357Y-13648357D01*
X18789357Y-13391214D01*
X19060786Y-13676929D02*
X19032214Y-13691214D01*
X18975071Y-13691214D01*
X18946500Y-13676929D01*
X18932214Y-13648357D01*
X18932214Y-13534071D01*
X18946500Y-13505500D01*
X18975071Y-13491214D01*
X19032214Y-13491214D01*
X19060786Y-13505500D01*
X19075071Y-13534071D01*
X19075071Y-13562643D01*
X18932214Y-13591214D01*
X19189357Y-13676929D02*
X19217929Y-13691214D01*
X19275071Y-13691214D01*
X19303643Y-13676929D01*
X19317929Y-13648357D01*
X19317929Y-13634071D01*
X19303643Y-13605500D01*
X19275071Y-13591214D01*
X19232214Y-13591214D01*
X19203643Y-13576929D01*
X19189357Y-13548357D01*
X19189357Y-13534071D01*
X19203643Y-13505500D01*
X19232214Y-13491214D01*
X19275071Y-13491214D01*
X19303643Y-13505500D01*
X19417928Y-13805500D02*
X19432214Y-13791214D01*
X19460786Y-13748357D01*
X19475071Y-13719786D01*
X19489357Y-13676929D01*
X19503643Y-13605500D01*
X19503643Y-13548357D01*
X19489357Y-13476929D01*
X19475071Y-13434071D01*
X19460786Y-13405500D01*
X19432214Y-13362643D01*
X19417928Y-13348357D01*
X12896462Y-13901462D02*
X12896462Y-14001538D01*
X12846424Y-13951500D02*
X12946500Y-13951500D01*
X13375071Y-14087214D02*
X13203643Y-14087214D01*
X13289357Y-14087214D02*
X13289357Y-13787214D01*
X13260786Y-13830071D01*
X13232214Y-13858643D01*
X13203643Y-13872929D01*
X13503643Y-14058643D02*
X13517928Y-14072929D01*
X13503643Y-14087214D01*
X13489357Y-14072929D01*
X13503643Y-14058643D01*
X13503643Y-14087214D01*
X13703643Y-13787214D02*
X13732214Y-13787214D01*
X13760786Y-13801500D01*
X13775071Y-13815786D01*
X13789357Y-13844357D01*
X13803643Y-13901500D01*
X13803643Y-13972929D01*
X13789357Y-14030071D01*
X13775071Y-14058643D01*
X13760786Y-14072929D01*
X13732214Y-14087214D01*
X13703643Y-14087214D01*
X13675071Y-14072929D01*
X13660786Y-14058643D01*
X13646500Y-14030071D01*
X13632214Y-13972929D01*
X13632214Y-13901500D01*
X13646500Y-13844357D01*
X13660786Y-13815786D01*
X13675071Y-13801500D01*
X13703643Y-13787214D01*
X13989357Y-13787214D02*
X14017928Y-13787214D01*
X14046500Y-13801500D01*
X14060786Y-13815786D01*
X14075071Y-13844357D01*
X14089357Y-13901500D01*
X14089357Y-13972929D01*
X14075071Y-14030071D01*
X14060786Y-14058643D01*
X14046500Y-14072929D01*
X14017928Y-14087214D01*
X13989357Y-14087214D01*
X13960786Y-14072929D01*
X13946500Y-14058643D01*
X13932214Y-14030071D01*
X13917928Y-13972929D01*
X13917928Y-13901500D01*
X13932214Y-13844357D01*
X13946500Y-13815786D01*
X13960786Y-13801500D01*
X13989357Y-13787214D01*
X14217928Y-14087214D02*
X14217928Y-13887214D01*
X14217928Y-13915786D02*
X14232214Y-13901500D01*
X14260786Y-13887214D01*
X14303643Y-13887214D01*
X14332214Y-13901500D01*
X14346500Y-13930071D01*
X14346500Y-14087214D01*
X14346500Y-13930071D02*
X14360786Y-13901500D01*
X14389357Y-13887214D01*
X14432214Y-13887214D01*
X14460786Y-13901500D01*
X14475071Y-13930071D01*
X14475071Y-14087214D01*
X14617928Y-14087214D02*
X14617928Y-13887214D01*
X14617928Y-13915786D02*
X14632214Y-13901500D01*
X14660786Y-13887214D01*
X14703643Y-13887214D01*
X14732214Y-13901500D01*
X14746500Y-13930071D01*
X14746500Y-14087214D01*
X14746500Y-13930071D02*
X14760786Y-13901500D01*
X14789357Y-13887214D01*
X14832214Y-13887214D01*
X14860786Y-13901500D01*
X14875071Y-13930071D01*
X14875071Y-14087214D01*
X15460786Y-13772929D02*
X15203643Y-14158643D01*
X15846500Y-13787214D02*
X15875071Y-13787214D01*
X15903643Y-13801500D01*
X15917928Y-13815786D01*
X15932214Y-13844357D01*
X15946500Y-13901500D01*
X15946500Y-13972929D01*
X15932214Y-14030071D01*
X15917928Y-14058643D01*
X15903643Y-14072929D01*
X15875071Y-14087214D01*
X15846500Y-14087214D01*
X15817928Y-14072929D01*
X15803643Y-14058643D01*
X15789357Y-14030071D01*
X15775071Y-13972929D01*
X15775071Y-13901500D01*
X15789357Y-13844357D01*
X15803643Y-13815786D01*
X15817928Y-13801500D01*
X15846500Y-13787214D01*
X16075071Y-14058643D02*
X16089357Y-14072929D01*
X16075071Y-14087214D01*
X16060786Y-14072929D01*
X16075071Y-14058643D01*
X16075071Y-14087214D01*
X16275071Y-13787214D02*
X16303643Y-13787214D01*
X16332214Y-13801500D01*
X16346500Y-13815786D01*
X16360785Y-13844357D01*
X16375071Y-13901500D01*
X16375071Y-13972929D01*
X16360785Y-14030071D01*
X16346500Y-14058643D01*
X16332214Y-14072929D01*
X16303643Y-14087214D01*
X16275071Y-14087214D01*
X16246500Y-14072929D01*
X16232214Y-14058643D01*
X16217928Y-14030071D01*
X16203643Y-13972929D01*
X16203643Y-13901500D01*
X16217928Y-13844357D01*
X16232214Y-13815786D01*
X16246500Y-13801500D01*
X16275071Y-13787214D01*
X16475071Y-13787214D02*
X16660785Y-13787214D01*
X16560785Y-13901500D01*
X16603643Y-13901500D01*
X16632214Y-13915786D01*
X16646500Y-13930071D01*
X16660785Y-13958643D01*
X16660785Y-14030071D01*
X16646500Y-14058643D01*
X16632214Y-14072929D01*
X16603643Y-14087214D01*
X16517928Y-14087214D01*
X16489357Y-14072929D01*
X16475071Y-14058643D01*
X16803643Y-14087214D02*
X16860786Y-14087214D01*
X16889357Y-14072929D01*
X16903643Y-14058643D01*
X16932214Y-14015786D01*
X16946500Y-13958643D01*
X16946500Y-13844357D01*
X16932214Y-13815786D01*
X16917928Y-13801500D01*
X16889357Y-13787214D01*
X16832214Y-13787214D01*
X16803643Y-13801500D01*
X16789357Y-13815786D01*
X16775071Y-13844357D01*
X16775071Y-13915786D01*
X16789357Y-13944357D01*
X16803643Y-13958643D01*
X16832214Y-13972929D01*
X16889357Y-13972929D01*
X16917928Y-13958643D01*
X16932214Y-13944357D01*
X16946500Y-13915786D01*
X17060786Y-13787214D02*
X17060786Y-13844357D01*
X17175071Y-13787214D02*
X17175071Y-13844357D01*
X17617928Y-14201500D02*
X17603643Y-14187214D01*
X17575071Y-14144357D01*
X17560786Y-14115786D01*
X17546500Y-14072929D01*
X17532214Y-14001500D01*
X17532214Y-13944357D01*
X17546500Y-13872929D01*
X17560786Y-13830071D01*
X17575071Y-13801500D01*
X17603643Y-13758643D01*
X17617928Y-13744357D01*
X17889357Y-14087214D02*
X17717928Y-14087214D01*
X17803643Y-14087214D02*
X17803643Y-13787214D01*
X17775071Y-13830071D01*
X17746500Y-13858643D01*
X17717928Y-13872929D01*
X18146500Y-13887214D02*
X18146500Y-14087214D01*
X18075071Y-13772929D02*
X18003643Y-13987214D01*
X18189357Y-13987214D01*
X18532214Y-14087214D02*
X18532214Y-13787214D01*
X18660786Y-14087214D02*
X18660786Y-13930071D01*
X18646500Y-13901500D01*
X18617928Y-13887214D01*
X18575071Y-13887214D01*
X18546500Y-13901500D01*
X18532214Y-13915786D01*
X18846500Y-14087214D02*
X18817928Y-14072929D01*
X18803643Y-14058643D01*
X18789357Y-14030071D01*
X18789357Y-13944357D01*
X18803643Y-13915786D01*
X18817928Y-13901500D01*
X18846500Y-13887214D01*
X18889357Y-13887214D01*
X18917928Y-13901500D01*
X18932214Y-13915786D01*
X18946500Y-13944357D01*
X18946500Y-14030071D01*
X18932214Y-14058643D01*
X18917928Y-14072929D01*
X18889357Y-14087214D01*
X18846500Y-14087214D01*
X19117928Y-14087214D02*
X19089357Y-14072929D01*
X19075071Y-14044357D01*
X19075071Y-13787214D01*
X19346500Y-14072929D02*
X19317929Y-14087214D01*
X19260786Y-14087214D01*
X19232214Y-14072929D01*
X19217929Y-14044357D01*
X19217929Y-13930071D01*
X19232214Y-13901500D01*
X19260786Y-13887214D01*
X19317929Y-13887214D01*
X19346500Y-13901500D01*
X19360786Y-13930071D01*
X19360786Y-13958643D01*
X19217929Y-13987214D01*
X19475071Y-14072929D02*
X19503643Y-14087214D01*
X19560786Y-14087214D01*
X19589357Y-14072929D01*
X19603643Y-14044357D01*
X19603643Y-14030071D01*
X19589357Y-14001500D01*
X19560786Y-13987214D01*
X19517929Y-13987214D01*
X19489357Y-13972929D01*
X19475071Y-13944357D01*
X19475071Y-13930071D01*
X19489357Y-13901500D01*
X19517929Y-13887214D01*
X19560786Y-13887214D01*
X19589357Y-13901500D01*
X19703643Y-14201500D02*
X19717929Y-14187214D01*
X19746500Y-14144357D01*
X19760786Y-14115786D01*
X19775071Y-14072929D01*
X19789357Y-14001500D01*
X19789357Y-13944357D01*
X19775071Y-13872929D01*
X19760786Y-13830071D01*
X19746500Y-13801500D01*
X19717929Y-13758643D01*
X19703643Y-13744357D01*
M02*
