M48
;DRILL file {KiCad 4.0.5} date 11/09/18 17:54:49
;FORMAT={-:-/ absolute / inch / decimal}
FMAT,2
INCH,TZ
T1C0.031
T2C0.039
T3C0.039
%
G90
G05
M72
T1
X5.25Y-4.4016
X5.25Y-4.5
X5.35Y-3.6
X5.4484Y-3.6
X5.4516Y-4.4
X5.55Y-4.4
X5.6Y-3.9
X5.6Y-3.9984
X5.8Y-3.45
X5.8984Y-3.45
T2
X5.7465Y-4.134
X5.8465Y-4.134
X5.9465Y-4.134
T3
X5.35Y-3.9
X5.35Y-4.2
X5.75Y-4.4
X5.8Y-3.6
X5.8Y-3.9
X5.95Y-3.7
X5.95Y-3.85
X6.05Y-4.4
X6.2Y-4.15
X6.2Y-4.4
X6.25Y-3.7
X6.25Y-3.85
X6.5Y-4.15
X6.5Y-4.4
T0
M30
