%TF.GenerationSoftware,KiCad,Pcbnew,(5.1.6)-1*%
%TF.CreationDate,2020-07-12T13:26:10+05:30*%
%TF.ProjectId,original,6f726967-696e-4616-9c2e-6b696361645f,rev?*%
%TF.SameCoordinates,Original*%
%TF.FileFunction,Soldermask,Top*%
%TF.FilePolarity,Negative*%
%FSLAX46Y46*%
G04 Gerber Fmt 4.6, Leading zero omitted, Abs format (unit mm)*
G04 Created by KiCad (PCBNEW (5.1.6)-1) date 2020-07-12 13:26:10*
%MOMM*%
%LPD*%
G01*
G04 APERTURE LIST*
%ADD10C,2.300000*%
%ADD11C,3.100000*%
%ADD12R,3.100000X3.100000*%
%ADD13O,1.500000X1.500000*%
%ADD14C,1.500000*%
%ADD15O,1.700000X1.700000*%
%ADD16R,1.700000X1.700000*%
%ADD17C,2.440000*%
%ADD18O,3.600000X3.600000*%
%ADD19R,1.900000X1.900000*%
%ADD20O,1.900000X1.900000*%
%ADD21O,3.300000X3.300000*%
%ADD22O,2.300000X2.300000*%
%ADD23R,2.300000X2.300000*%
%ADD24C,1.700000*%
%ADD25R,0.950000X0.950000*%
%ADD26O,0.950000X0.950000*%
G04 APERTURE END LIST*
D10*
%TO.C,REF\u002A\u002A*%
X27940000Y-100076000D03*
%TD*%
%TO.C,REF\u002A\u002A*%
X106121200Y-99364800D03*
%TD*%
%TO.C,REF\u002A\u002A*%
X106413300Y-37109400D03*
%TD*%
%TO.C,REF\u002A\u002A*%
X27305000Y-37211000D03*
%TD*%
D11*
%TO.C,J1*%
X58166000Y-94234000D03*
X53086000Y-94234000D03*
D12*
X48006000Y-94234000D03*
%TD*%
D13*
%TO.C,R12*%
X86106000Y-61849000D03*
D14*
X81026000Y-61849000D03*
%TD*%
D15*
%TO.C,U1*%
X78486000Y-80264000D03*
X70866000Y-87884000D03*
X78486000Y-82804000D03*
X70866000Y-85344000D03*
X78486000Y-85344000D03*
X70866000Y-82804000D03*
X78486000Y-87884000D03*
D16*
X70866000Y-80264000D03*
%TD*%
D17*
%TO.C,RV1*%
X43561000Y-75184000D03*
X43561000Y-80184000D03*
X43561000Y-85184000D03*
%TD*%
D13*
%TO.C,R11*%
X58801000Y-60579000D03*
D14*
X53721000Y-60579000D03*
%TD*%
D13*
%TO.C,R10*%
X73406000Y-61849000D03*
D14*
X78486000Y-61849000D03*
%TD*%
D13*
%TO.C,R9*%
X84836000Y-70739000D03*
D14*
X84836000Y-65659000D03*
%TD*%
D13*
%TO.C,R8*%
X70866000Y-61849000D03*
D14*
X65786000Y-61849000D03*
%TD*%
D13*
%TO.C,R7*%
X79756000Y-70739000D03*
D14*
X79756000Y-65659000D03*
%TD*%
D13*
%TO.C,R6*%
X75311000Y-65024000D03*
D14*
X75311000Y-70104000D03*
%TD*%
D13*
%TO.C,R5*%
X70866000Y-65024000D03*
D14*
X70866000Y-70104000D03*
%TD*%
D13*
%TO.C,R4*%
X65786000Y-65024000D03*
D14*
X65786000Y-70104000D03*
%TD*%
D13*
%TO.C,R3*%
X60071000Y-65024000D03*
D14*
X60071000Y-70104000D03*
%TD*%
D13*
%TO.C,R2*%
X54356000Y-70104000D03*
D14*
X54356000Y-65024000D03*
%TD*%
D13*
%TO.C,R1*%
X49276000Y-65024000D03*
D14*
X49276000Y-70104000D03*
%TD*%
D18*
%TO.C,Q4*%
X87376000Y-39474000D03*
D19*
X84836000Y-56134000D03*
D20*
X87376000Y-56134000D03*
X89916000Y-56134000D03*
%TD*%
D18*
%TO.C,Q3*%
X74676000Y-39474000D03*
D19*
X72136000Y-56134000D03*
D20*
X74676000Y-56134000D03*
X77216000Y-56134000D03*
%TD*%
D21*
%TO.C,Q2*%
X61976000Y-44399000D03*
D19*
X59436000Y-55499000D03*
D20*
X61976000Y-55499000D03*
X64516000Y-55499000D03*
%TD*%
D21*
%TO.C,Q1*%
X50546000Y-44399000D03*
D19*
X48006000Y-55499000D03*
D20*
X50546000Y-55499000D03*
X53086000Y-55499000D03*
%TD*%
D11*
%TO.C,J2*%
X88011000Y-80264000D03*
D12*
X88011000Y-85344000D03*
%TD*%
D22*
%TO.C,D2*%
X91821000Y-91694000D03*
D23*
X81661000Y-91694000D03*
%TD*%
D22*
%TO.C,D1*%
X89281000Y-65024000D03*
D23*
X89281000Y-75184000D03*
%TD*%
D24*
%TO.C,C8*%
X61976000Y-59984000D03*
X61976000Y-62484000D03*
%TD*%
%TO.C,C7*%
X67096000Y-75184000D03*
X69596000Y-75184000D03*
%TD*%
%TO.C,C6*%
X63841000Y-85344000D03*
X61341000Y-85344000D03*
%TD*%
%TO.C,C5*%
X57491000Y-80899000D03*
X54991000Y-80899000D03*
%TD*%
%TO.C,C4*%
X61381000Y-80899000D03*
X63881000Y-80899000D03*
%TD*%
%TO.C,C3*%
X63841000Y-75184000D03*
X61341000Y-75184000D03*
%TD*%
%TO.C,C2*%
X43561000Y-68159000D03*
X43561000Y-65659000D03*
%TD*%
%TO.C,C1*%
X55031000Y-75184000D03*
X57531000Y-75184000D03*
%TD*%
D12*
%TO.C,J4*%
X98552000Y-71374000D03*
D11*
X98552000Y-66294000D03*
X98552000Y-61214000D03*
%TD*%
D25*
%TO.C,J3*%
X98806000Y-49657000D03*
D26*
X98806000Y-50657000D03*
%TD*%
D24*
%TO.C,C9*%
X198541000Y-69215000D03*
X201041000Y-69215000D03*
%TD*%
%TO.C,C10*%
X156083000Y-77089000D03*
X156083000Y-79589000D03*
%TD*%
%TO.C,C11*%
X165608000Y-81788000D03*
X165608000Y-84288000D03*
%TD*%
%TO.C,C12*%
X183856000Y-63627000D03*
X181356000Y-63627000D03*
%TD*%
%TO.C,C13*%
X181737000Y-80391000D03*
X181737000Y-82891000D03*
%TD*%
%TO.C,C14*%
X185293000Y-80558000D03*
X185293000Y-83058000D03*
%TD*%
%TO.C,C15*%
X202398000Y-57658000D03*
X199898000Y-57658000D03*
%TD*%
%TO.C,C16*%
X193421000Y-86614000D03*
X195921000Y-86614000D03*
%TD*%
D23*
%TO.C,D3*%
X170180000Y-78486000D03*
D22*
X170180000Y-88646000D03*
%TD*%
%TO.C,D4*%
X191389000Y-68453000D03*
D23*
X181229000Y-68453000D03*
%TD*%
D12*
%TO.C,J5*%
X153924000Y-96012000D03*
D11*
X159004000Y-96012000D03*
X164084000Y-96012000D03*
%TD*%
D25*
%TO.C,J6*%
X188198000Y-90424000D03*
D26*
X187198000Y-90424000D03*
%TD*%
D12*
%TO.C,J7*%
X201041000Y-80010000D03*
D11*
X201041000Y-74930000D03*
%TD*%
%TO.C,J8*%
X151130000Y-62230000D03*
X151130000Y-57150000D03*
D12*
X151130000Y-52070000D03*
%TD*%
D20*
%TO.C,Q5*%
X193929000Y-52451000D03*
X191389000Y-52451000D03*
D19*
X188849000Y-52451000D03*
D21*
X191389000Y-41351000D03*
%TD*%
%TO.C,Q6*%
X201930000Y-40716000D03*
D19*
X199390000Y-51816000D03*
D20*
X201930000Y-51816000D03*
X204470000Y-51816000D03*
%TD*%
D18*
%TO.C,Q7*%
X168783000Y-35664000D03*
D19*
X166243000Y-52324000D03*
D20*
X168783000Y-52324000D03*
X171323000Y-52324000D03*
%TD*%
%TO.C,Q8*%
X183515000Y-52197000D03*
X180975000Y-52197000D03*
D19*
X178435000Y-52197000D03*
D18*
X180975000Y-35537000D03*
%TD*%
D13*
%TO.C,R13*%
X155829000Y-74041000D03*
D14*
X155829000Y-68961000D03*
%TD*%
%TO.C,R14*%
X163576000Y-68580000D03*
D13*
X158496000Y-68580000D03*
%TD*%
D14*
%TO.C,R15*%
X167259000Y-72009000D03*
D13*
X167259000Y-77089000D03*
%TD*%
%TO.C,R16*%
X163830000Y-76962000D03*
D14*
X163830000Y-71882000D03*
%TD*%
D13*
%TO.C,R17*%
X181737000Y-77216000D03*
D14*
X181737000Y-72136000D03*
%TD*%
%TO.C,R18*%
X184912000Y-72390000D03*
D13*
X184912000Y-77470000D03*
%TD*%
D14*
%TO.C,R19*%
X175260000Y-84201000D03*
D13*
X175260000Y-89281000D03*
%TD*%
%TO.C,R20*%
X186309000Y-58547000D03*
D14*
X181229000Y-58547000D03*
%TD*%
D13*
%TO.C,R21*%
X178054000Y-89535000D03*
D14*
X183134000Y-89535000D03*
%TD*%
%TO.C,R22*%
X172593000Y-58420000D03*
D13*
X177673000Y-58420000D03*
%TD*%
D14*
%TO.C,R23*%
X190246000Y-86360000D03*
D13*
X185166000Y-86360000D03*
%TD*%
%TO.C,R24*%
X196723000Y-57658000D03*
D14*
X191643000Y-57658000D03*
%TD*%
D17*
%TO.C,RV2*%
X152273000Y-86962000D03*
X152273000Y-81962000D03*
X152273000Y-76962000D03*
%TD*%
D16*
%TO.C,U2*%
X170434000Y-66421000D03*
D15*
X178054000Y-74041000D03*
X170434000Y-68961000D03*
X178054000Y-71501000D03*
X170434000Y-71501000D03*
X178054000Y-68961000D03*
X170434000Y-74041000D03*
X178054000Y-66421000D03*
%TD*%
M02*
