%FSLAX45Y45*%
G04 Gerber Fmt 4.5, Leading zero omitted, Abs format (unit mm)*
G04 Created by KiCad (PCBNEW (5.1.6)-1) date 2020-07-12 13:25:55*
%MOMM*%
%LPD*%
G01*
G04 APERTURE LIST*
%TA.AperFunction,Profile*%
%ADD10C,0.050000*%
%TD*%
%ADD11C,0.200000*%
%ADD12C,0.300000*%
G04 APERTURE END LIST*
D10*
X23279100Y-2501900D02*
X12750800Y-2476500D01*
X23279100Y-11201400D02*
X23279100Y-2501900D01*
X12738100Y-11252200D02*
X23279100Y-11201400D01*
X12750800Y-2476500D02*
X12738100Y-11252200D01*
X11214100Y-3136900D02*
X2159000Y-3086100D01*
X11214100Y-10337800D02*
X11214100Y-3136900D01*
X2159000Y-10325100D02*
X11214100Y-10337800D01*
X2159000Y-3086100D02*
X2159000Y-10325100D01*
X3556000Y-7213600D02*
X3937000Y-7213600D01*
D11*
X2684000Y-9897600D02*
X2904000Y-10117600D01*
X2904000Y-9897600D02*
X2684000Y-10117600D01*
X2620500Y-3611100D02*
X2840500Y-3831100D01*
X2840500Y-3611100D02*
X2620500Y-3831100D01*
X10531330Y-3600940D02*
X10751330Y-3820940D01*
X10751330Y-3600940D02*
X10531330Y-3820940D01*
X10502120Y-9826480D02*
X10722120Y-10046480D01*
X10722120Y-9826480D02*
X10502120Y-10046480D01*
X19298900Y-4135100D02*
G75*
G03*
X19298900Y-4135100I-160000J0D01*
G01*
X6357600Y-4439900D02*
G75*
G03*
X6357600Y-4439900I-160000J0D01*
G01*
X5214600Y-4439900D02*
G75*
G03*
X5214600Y-4439900I-160000J0D01*
G01*
X20353000Y-4071600D02*
G75*
G03*
X20353000Y-4071600I-160000J0D01*
G01*
X16878300Y-3391400D02*
X16878300Y-3741400D01*
X16703300Y-3566400D02*
X17053300Y-3566400D01*
X8737600Y-3772400D02*
X8737600Y-4122400D01*
X8562600Y-3947400D02*
X8912600Y-3947400D01*
X7467600Y-3772400D02*
X7467600Y-4122400D01*
X7292600Y-3947400D02*
X7642600Y-3947400D01*
X18097500Y-3378700D02*
X18097500Y-3728700D01*
X17922500Y-3553700D02*
X18272500Y-3553700D01*
D12*
X2442928Y-11720414D02*
X2442928Y-11420414D01*
X2514357Y-11420414D01*
X2557214Y-11434700D01*
X2585786Y-11463271D01*
X2600071Y-11491843D01*
X2614357Y-11548986D01*
X2614357Y-11591843D01*
X2600071Y-11648986D01*
X2585786Y-11677557D01*
X2557214Y-11706129D01*
X2514357Y-11720414D01*
X2442928Y-11720414D01*
X2742928Y-11720414D02*
X2742928Y-11520414D01*
X2742928Y-11577557D02*
X2757214Y-11548986D01*
X2771500Y-11534700D01*
X2800071Y-11520414D01*
X2828643Y-11520414D01*
X2928643Y-11720414D02*
X2928643Y-11520414D01*
X2928643Y-11420414D02*
X2914357Y-11434700D01*
X2928643Y-11448986D01*
X2942928Y-11434700D01*
X2928643Y-11420414D01*
X2928643Y-11448986D01*
X3114357Y-11720414D02*
X3085786Y-11706129D01*
X3071500Y-11677557D01*
X3071500Y-11420414D01*
X3271500Y-11720414D02*
X3242928Y-11706129D01*
X3228643Y-11677557D01*
X3228643Y-11420414D01*
X3614357Y-11720414D02*
X3614357Y-11420414D01*
X3714357Y-11634700D01*
X3814357Y-11420414D01*
X3814357Y-11720414D01*
X4085786Y-11720414D02*
X4085786Y-11563271D01*
X4071500Y-11534700D01*
X4042928Y-11520414D01*
X3985786Y-11520414D01*
X3957214Y-11534700D01*
X4085786Y-11706129D02*
X4057214Y-11720414D01*
X3985786Y-11720414D01*
X3957214Y-11706129D01*
X3942928Y-11677557D01*
X3942928Y-11648986D01*
X3957214Y-11620414D01*
X3985786Y-11606129D01*
X4057214Y-11606129D01*
X4085786Y-11591843D01*
X4228643Y-11520414D02*
X4228643Y-11820414D01*
X4228643Y-11534700D02*
X4257214Y-11520414D01*
X4314357Y-11520414D01*
X4342928Y-11534700D01*
X4357214Y-11548986D01*
X4371500Y-11577557D01*
X4371500Y-11663271D01*
X4357214Y-11691843D01*
X4342928Y-11706129D01*
X4314357Y-11720414D01*
X4257214Y-11720414D01*
X4228643Y-11706129D01*
X4500071Y-11691843D02*
X4514357Y-11706129D01*
X4500071Y-11720414D01*
X4485786Y-11706129D01*
X4500071Y-11691843D01*
X4500071Y-11720414D01*
X4500071Y-11534700D02*
X4514357Y-11548986D01*
X4500071Y-11563271D01*
X4485786Y-11548986D01*
X4500071Y-11534700D01*
X4500071Y-11563271D01*
X1936500Y-12104700D02*
X2156500Y-12324700D01*
X2156500Y-12104700D02*
X1936500Y-12324700D01*
X2428643Y-12078986D02*
X2442928Y-12064700D01*
X2471500Y-12050414D01*
X2542928Y-12050414D01*
X2571500Y-12064700D01*
X2585786Y-12078986D01*
X2600071Y-12107557D01*
X2600071Y-12136129D01*
X2585786Y-12178986D01*
X2414357Y-12350414D01*
X2600071Y-12350414D01*
X2728643Y-12321843D02*
X2742928Y-12336129D01*
X2728643Y-12350414D01*
X2714357Y-12336129D01*
X2728643Y-12321843D01*
X2728643Y-12350414D01*
X2857214Y-12078986D02*
X2871500Y-12064700D01*
X2900071Y-12050414D01*
X2971500Y-12050414D01*
X3000071Y-12064700D01*
X3014357Y-12078986D01*
X3028643Y-12107557D01*
X3028643Y-12136129D01*
X3014357Y-12178986D01*
X2842928Y-12350414D01*
X3028643Y-12350414D01*
X3214357Y-12050414D02*
X3242928Y-12050414D01*
X3271500Y-12064700D01*
X3285786Y-12078986D01*
X3300071Y-12107557D01*
X3314357Y-12164700D01*
X3314357Y-12236129D01*
X3300071Y-12293271D01*
X3285786Y-12321843D01*
X3271500Y-12336129D01*
X3242928Y-12350414D01*
X3214357Y-12350414D01*
X3185786Y-12336129D01*
X3171500Y-12321843D01*
X3157214Y-12293271D01*
X3142928Y-12236129D01*
X3142928Y-12164700D01*
X3157214Y-12107557D01*
X3171500Y-12078986D01*
X3185786Y-12064700D01*
X3214357Y-12050414D01*
X3442928Y-12350414D02*
X3442928Y-12150414D01*
X3442928Y-12178986D02*
X3457214Y-12164700D01*
X3485786Y-12150414D01*
X3528643Y-12150414D01*
X3557214Y-12164700D01*
X3571500Y-12193271D01*
X3571500Y-12350414D01*
X3571500Y-12193271D02*
X3585786Y-12164700D01*
X3614357Y-12150414D01*
X3657214Y-12150414D01*
X3685786Y-12164700D01*
X3700071Y-12193271D01*
X3700071Y-12350414D01*
X3842928Y-12350414D02*
X3842928Y-12150414D01*
X3842928Y-12178986D02*
X3857214Y-12164700D01*
X3885786Y-12150414D01*
X3928643Y-12150414D01*
X3957214Y-12164700D01*
X3971500Y-12193271D01*
X3971500Y-12350414D01*
X3971500Y-12193271D02*
X3985786Y-12164700D01*
X4014357Y-12150414D01*
X4057214Y-12150414D01*
X4085786Y-12164700D01*
X4100071Y-12193271D01*
X4100071Y-12350414D01*
X4685786Y-12036129D02*
X4428643Y-12421843D01*
X5071500Y-12050414D02*
X5100071Y-12050414D01*
X5128643Y-12064700D01*
X5142928Y-12078986D01*
X5157214Y-12107557D01*
X5171500Y-12164700D01*
X5171500Y-12236129D01*
X5157214Y-12293271D01*
X5142928Y-12321843D01*
X5128643Y-12336129D01*
X5100071Y-12350414D01*
X5071500Y-12350414D01*
X5042928Y-12336129D01*
X5028643Y-12321843D01*
X5014357Y-12293271D01*
X5000071Y-12236129D01*
X5000071Y-12164700D01*
X5014357Y-12107557D01*
X5028643Y-12078986D01*
X5042928Y-12064700D01*
X5071500Y-12050414D01*
X5300071Y-12321843D02*
X5314357Y-12336129D01*
X5300071Y-12350414D01*
X5285786Y-12336129D01*
X5300071Y-12321843D01*
X5300071Y-12350414D01*
X5500071Y-12050414D02*
X5528643Y-12050414D01*
X5557214Y-12064700D01*
X5571500Y-12078986D01*
X5585786Y-12107557D01*
X5600071Y-12164700D01*
X5600071Y-12236129D01*
X5585786Y-12293271D01*
X5571500Y-12321843D01*
X5557214Y-12336129D01*
X5528643Y-12350414D01*
X5500071Y-12350414D01*
X5471500Y-12336129D01*
X5457214Y-12321843D01*
X5442928Y-12293271D01*
X5428643Y-12236129D01*
X5428643Y-12164700D01*
X5442928Y-12107557D01*
X5457214Y-12078986D01*
X5471500Y-12064700D01*
X5500071Y-12050414D01*
X5771500Y-12178986D02*
X5742928Y-12164700D01*
X5728643Y-12150414D01*
X5714357Y-12121843D01*
X5714357Y-12107557D01*
X5728643Y-12078986D01*
X5742928Y-12064700D01*
X5771500Y-12050414D01*
X5828643Y-12050414D01*
X5857214Y-12064700D01*
X5871500Y-12078986D01*
X5885786Y-12107557D01*
X5885786Y-12121843D01*
X5871500Y-12150414D01*
X5857214Y-12164700D01*
X5828643Y-12178986D01*
X5771500Y-12178986D01*
X5742928Y-12193271D01*
X5728643Y-12207557D01*
X5714357Y-12236129D01*
X5714357Y-12293271D01*
X5728643Y-12321843D01*
X5742928Y-12336129D01*
X5771500Y-12350414D01*
X5828643Y-12350414D01*
X5857214Y-12336129D01*
X5871500Y-12321843D01*
X5885786Y-12293271D01*
X5885786Y-12236129D01*
X5871500Y-12207557D01*
X5857214Y-12193271D01*
X5828643Y-12178986D01*
X5985786Y-12050414D02*
X6185786Y-12050414D01*
X6057214Y-12350414D01*
X6285786Y-12050414D02*
X6285786Y-12107557D01*
X6400071Y-12050414D02*
X6400071Y-12107557D01*
X6842928Y-12464700D02*
X6828643Y-12450414D01*
X6800071Y-12407557D01*
X6785786Y-12378986D01*
X6771500Y-12336129D01*
X6757214Y-12264700D01*
X6757214Y-12207557D01*
X6771500Y-12136129D01*
X6785786Y-12093271D01*
X6800071Y-12064700D01*
X6828643Y-12021843D01*
X6842928Y-12007557D01*
X7085786Y-12150414D02*
X7085786Y-12350414D01*
X7014357Y-12036129D02*
X6942928Y-12250414D01*
X7128643Y-12250414D01*
X7471500Y-12350414D02*
X7471500Y-12050414D01*
X7600071Y-12350414D02*
X7600071Y-12193271D01*
X7585786Y-12164700D01*
X7557214Y-12150414D01*
X7514357Y-12150414D01*
X7485786Y-12164700D01*
X7471500Y-12178986D01*
X7785786Y-12350414D02*
X7757214Y-12336129D01*
X7742928Y-12321843D01*
X7728643Y-12293271D01*
X7728643Y-12207557D01*
X7742928Y-12178986D01*
X7757214Y-12164700D01*
X7785786Y-12150414D01*
X7828643Y-12150414D01*
X7857214Y-12164700D01*
X7871500Y-12178986D01*
X7885786Y-12207557D01*
X7885786Y-12293271D01*
X7871500Y-12321843D01*
X7857214Y-12336129D01*
X7828643Y-12350414D01*
X7785786Y-12350414D01*
X8057214Y-12350414D02*
X8028643Y-12336129D01*
X8014357Y-12307557D01*
X8014357Y-12050414D01*
X8285786Y-12336129D02*
X8257214Y-12350414D01*
X8200071Y-12350414D01*
X8171500Y-12336129D01*
X8157214Y-12307557D01*
X8157214Y-12193271D01*
X8171500Y-12164700D01*
X8200071Y-12150414D01*
X8257214Y-12150414D01*
X8285786Y-12164700D01*
X8300071Y-12193271D01*
X8300071Y-12221843D01*
X8157214Y-12250414D01*
X8414357Y-12336129D02*
X8442928Y-12350414D01*
X8500071Y-12350414D01*
X8528643Y-12336129D01*
X8542928Y-12307557D01*
X8542928Y-12293271D01*
X8528643Y-12264700D01*
X8500071Y-12250414D01*
X8457214Y-12250414D01*
X8428643Y-12236129D01*
X8414357Y-12207557D01*
X8414357Y-12193271D01*
X8428643Y-12164700D01*
X8457214Y-12150414D01*
X8500071Y-12150414D01*
X8528643Y-12164700D01*
X8642928Y-12464700D02*
X8657214Y-12450414D01*
X8685786Y-12407557D01*
X8700071Y-12378986D01*
X8714357Y-12336129D01*
X8728643Y-12264700D01*
X8728643Y-12207557D01*
X8714357Y-12136129D01*
X8700071Y-12093271D01*
X8685786Y-12064700D01*
X8657214Y-12021843D01*
X8642928Y-12007557D01*
X9185786Y-12464700D02*
X9171500Y-12450414D01*
X9142928Y-12407557D01*
X9128643Y-12378986D01*
X9114357Y-12336129D01*
X9100071Y-12264700D01*
X9100071Y-12207557D01*
X9114357Y-12136129D01*
X9128643Y-12093271D01*
X9142928Y-12064700D01*
X9171500Y-12021843D01*
X9185786Y-12007557D01*
X9300071Y-12150414D02*
X9300071Y-12350414D01*
X9300071Y-12178986D02*
X9314357Y-12164700D01*
X9342928Y-12150414D01*
X9385786Y-12150414D01*
X9414357Y-12164700D01*
X9428643Y-12193271D01*
X9428643Y-12350414D01*
X9614357Y-12350414D02*
X9585786Y-12336129D01*
X9571500Y-12321843D01*
X9557214Y-12293271D01*
X9557214Y-12207557D01*
X9571500Y-12178986D01*
X9585786Y-12164700D01*
X9614357Y-12150414D01*
X9657214Y-12150414D01*
X9685786Y-12164700D01*
X9700071Y-12178986D01*
X9714357Y-12207557D01*
X9714357Y-12293271D01*
X9700071Y-12321843D01*
X9685786Y-12336129D01*
X9657214Y-12350414D01*
X9614357Y-12350414D01*
X9800071Y-12150414D02*
X9914357Y-12150414D01*
X9842928Y-12050414D02*
X9842928Y-12307557D01*
X9857214Y-12336129D01*
X9885786Y-12350414D01*
X9914357Y-12350414D01*
X10242928Y-12150414D02*
X10242928Y-12450414D01*
X10242928Y-12164700D02*
X10271500Y-12150414D01*
X10328643Y-12150414D01*
X10357214Y-12164700D01*
X10371500Y-12178986D01*
X10385786Y-12207557D01*
X10385786Y-12293271D01*
X10371500Y-12321843D01*
X10357214Y-12336129D01*
X10328643Y-12350414D01*
X10271500Y-12350414D01*
X10242928Y-12336129D01*
X10557214Y-12350414D02*
X10528643Y-12336129D01*
X10514357Y-12307557D01*
X10514357Y-12050414D01*
X10800071Y-12350414D02*
X10800071Y-12193271D01*
X10785786Y-12164700D01*
X10757214Y-12150414D01*
X10700071Y-12150414D01*
X10671500Y-12164700D01*
X10800071Y-12336129D02*
X10771500Y-12350414D01*
X10700071Y-12350414D01*
X10671500Y-12336129D01*
X10657214Y-12307557D01*
X10657214Y-12278986D01*
X10671500Y-12250414D01*
X10700071Y-12236129D01*
X10771500Y-12236129D01*
X10800071Y-12221843D01*
X10900071Y-12150414D02*
X11014357Y-12150414D01*
X10942928Y-12050414D02*
X10942928Y-12307557D01*
X10957214Y-12336129D01*
X10985786Y-12350414D01*
X11014357Y-12350414D01*
X11228643Y-12336129D02*
X11200071Y-12350414D01*
X11142928Y-12350414D01*
X11114357Y-12336129D01*
X11100071Y-12307557D01*
X11100071Y-12193271D01*
X11114357Y-12164700D01*
X11142928Y-12150414D01*
X11200071Y-12150414D01*
X11228643Y-12164700D01*
X11242928Y-12193271D01*
X11242928Y-12221843D01*
X11100071Y-12250414D01*
X11500071Y-12350414D02*
X11500071Y-12050414D01*
X11500071Y-12336129D02*
X11471500Y-12350414D01*
X11414357Y-12350414D01*
X11385786Y-12336129D01*
X11371500Y-12321843D01*
X11357214Y-12293271D01*
X11357214Y-12207557D01*
X11371500Y-12178986D01*
X11385786Y-12164700D01*
X11414357Y-12150414D01*
X11471500Y-12150414D01*
X11500071Y-12164700D01*
X11614357Y-12464700D02*
X11628643Y-12450414D01*
X11657214Y-12407557D01*
X11671500Y-12378986D01*
X11685786Y-12336129D01*
X11700071Y-12264700D01*
X11700071Y-12207557D01*
X11685786Y-12136129D01*
X11671500Y-12093271D01*
X11657214Y-12064700D01*
X11628643Y-12021843D01*
X11614357Y-12007557D01*
X2156500Y-12610700D02*
G75*
G03*
X2156500Y-12610700I-160000J0D01*
G01*
X2414357Y-12446414D02*
X2600071Y-12446414D01*
X2500071Y-12560700D01*
X2542928Y-12560700D01*
X2571500Y-12574986D01*
X2585786Y-12589271D01*
X2600071Y-12617843D01*
X2600071Y-12689271D01*
X2585786Y-12717843D01*
X2571500Y-12732129D01*
X2542928Y-12746414D01*
X2457214Y-12746414D01*
X2428643Y-12732129D01*
X2414357Y-12717843D01*
X2728643Y-12717843D02*
X2742928Y-12732129D01*
X2728643Y-12746414D01*
X2714357Y-12732129D01*
X2728643Y-12717843D01*
X2728643Y-12746414D01*
X2857214Y-12474986D02*
X2871500Y-12460700D01*
X2900071Y-12446414D01*
X2971500Y-12446414D01*
X3000071Y-12460700D01*
X3014357Y-12474986D01*
X3028643Y-12503557D01*
X3028643Y-12532129D01*
X3014357Y-12574986D01*
X2842928Y-12746414D01*
X3028643Y-12746414D01*
X3214357Y-12446414D02*
X3242928Y-12446414D01*
X3271500Y-12460700D01*
X3285786Y-12474986D01*
X3300071Y-12503557D01*
X3314357Y-12560700D01*
X3314357Y-12632129D01*
X3300071Y-12689271D01*
X3285786Y-12717843D01*
X3271500Y-12732129D01*
X3242928Y-12746414D01*
X3214357Y-12746414D01*
X3185786Y-12732129D01*
X3171500Y-12717843D01*
X3157214Y-12689271D01*
X3142928Y-12632129D01*
X3142928Y-12560700D01*
X3157214Y-12503557D01*
X3171500Y-12474986D01*
X3185786Y-12460700D01*
X3214357Y-12446414D01*
X3442928Y-12746414D02*
X3442928Y-12546414D01*
X3442928Y-12574986D02*
X3457214Y-12560700D01*
X3485786Y-12546414D01*
X3528643Y-12546414D01*
X3557214Y-12560700D01*
X3571500Y-12589271D01*
X3571500Y-12746414D01*
X3571500Y-12589271D02*
X3585786Y-12560700D01*
X3614357Y-12546414D01*
X3657214Y-12546414D01*
X3685786Y-12560700D01*
X3700071Y-12589271D01*
X3700071Y-12746414D01*
X3842928Y-12746414D02*
X3842928Y-12546414D01*
X3842928Y-12574986D02*
X3857214Y-12560700D01*
X3885786Y-12546414D01*
X3928643Y-12546414D01*
X3957214Y-12560700D01*
X3971500Y-12589271D01*
X3971500Y-12746414D01*
X3971500Y-12589271D02*
X3985786Y-12560700D01*
X4014357Y-12546414D01*
X4057214Y-12546414D01*
X4085786Y-12560700D01*
X4100071Y-12589271D01*
X4100071Y-12746414D01*
X4685786Y-12432129D02*
X4428643Y-12817843D01*
X5071500Y-12446414D02*
X5100071Y-12446414D01*
X5128643Y-12460700D01*
X5142928Y-12474986D01*
X5157214Y-12503557D01*
X5171500Y-12560700D01*
X5171500Y-12632129D01*
X5157214Y-12689271D01*
X5142928Y-12717843D01*
X5128643Y-12732129D01*
X5100071Y-12746414D01*
X5071500Y-12746414D01*
X5042928Y-12732129D01*
X5028643Y-12717843D01*
X5014357Y-12689271D01*
X5000071Y-12632129D01*
X5000071Y-12560700D01*
X5014357Y-12503557D01*
X5028643Y-12474986D01*
X5042928Y-12460700D01*
X5071500Y-12446414D01*
X5300071Y-12717843D02*
X5314357Y-12732129D01*
X5300071Y-12746414D01*
X5285786Y-12732129D01*
X5300071Y-12717843D01*
X5300071Y-12746414D01*
X5600071Y-12746414D02*
X5428643Y-12746414D01*
X5514357Y-12746414D02*
X5514357Y-12446414D01*
X5485786Y-12489271D01*
X5457214Y-12517843D01*
X5428643Y-12532129D01*
X5714357Y-12474986D02*
X5728643Y-12460700D01*
X5757214Y-12446414D01*
X5828643Y-12446414D01*
X5857214Y-12460700D01*
X5871500Y-12474986D01*
X5885786Y-12503557D01*
X5885786Y-12532129D01*
X5871500Y-12574986D01*
X5700071Y-12746414D01*
X5885786Y-12746414D01*
X6142928Y-12446414D02*
X6085786Y-12446414D01*
X6057214Y-12460700D01*
X6042928Y-12474986D01*
X6014357Y-12517843D01*
X6000071Y-12574986D01*
X6000071Y-12689271D01*
X6014357Y-12717843D01*
X6028643Y-12732129D01*
X6057214Y-12746414D01*
X6114357Y-12746414D01*
X6142928Y-12732129D01*
X6157214Y-12717843D01*
X6171500Y-12689271D01*
X6171500Y-12617843D01*
X6157214Y-12589271D01*
X6142928Y-12574986D01*
X6114357Y-12560700D01*
X6057214Y-12560700D01*
X6028643Y-12574986D01*
X6014357Y-12589271D01*
X6000071Y-12617843D01*
X6285786Y-12446414D02*
X6285786Y-12503557D01*
X6400071Y-12446414D02*
X6400071Y-12503557D01*
X6842928Y-12860700D02*
X6828643Y-12846414D01*
X6800071Y-12803557D01*
X6785786Y-12774986D01*
X6771500Y-12732129D01*
X6757214Y-12660700D01*
X6757214Y-12603557D01*
X6771500Y-12532129D01*
X6785786Y-12489271D01*
X6800071Y-12460700D01*
X6828643Y-12417843D01*
X6842928Y-12403557D01*
X7085786Y-12546414D02*
X7085786Y-12746414D01*
X7014357Y-12432129D02*
X6942928Y-12646414D01*
X7128643Y-12646414D01*
X7471500Y-12746414D02*
X7471500Y-12446414D01*
X7600071Y-12746414D02*
X7600071Y-12589271D01*
X7585786Y-12560700D01*
X7557214Y-12546414D01*
X7514357Y-12546414D01*
X7485786Y-12560700D01*
X7471500Y-12574986D01*
X7785786Y-12746414D02*
X7757214Y-12732129D01*
X7742928Y-12717843D01*
X7728643Y-12689271D01*
X7728643Y-12603557D01*
X7742928Y-12574986D01*
X7757214Y-12560700D01*
X7785786Y-12546414D01*
X7828643Y-12546414D01*
X7857214Y-12560700D01*
X7871500Y-12574986D01*
X7885786Y-12603557D01*
X7885786Y-12689271D01*
X7871500Y-12717843D01*
X7857214Y-12732129D01*
X7828643Y-12746414D01*
X7785786Y-12746414D01*
X8057214Y-12746414D02*
X8028643Y-12732129D01*
X8014357Y-12703557D01*
X8014357Y-12446414D01*
X8285786Y-12732129D02*
X8257214Y-12746414D01*
X8200071Y-12746414D01*
X8171500Y-12732129D01*
X8157214Y-12703557D01*
X8157214Y-12589271D01*
X8171500Y-12560700D01*
X8200071Y-12546414D01*
X8257214Y-12546414D01*
X8285786Y-12560700D01*
X8300071Y-12589271D01*
X8300071Y-12617843D01*
X8157214Y-12646414D01*
X8414357Y-12732129D02*
X8442928Y-12746414D01*
X8500071Y-12746414D01*
X8528643Y-12732129D01*
X8542928Y-12703557D01*
X8542928Y-12689271D01*
X8528643Y-12660700D01*
X8500071Y-12646414D01*
X8457214Y-12646414D01*
X8428643Y-12632129D01*
X8414357Y-12603557D01*
X8414357Y-12589271D01*
X8428643Y-12560700D01*
X8457214Y-12546414D01*
X8500071Y-12546414D01*
X8528643Y-12560700D01*
X8642928Y-12860700D02*
X8657214Y-12846414D01*
X8685786Y-12803557D01*
X8700071Y-12774986D01*
X8714357Y-12732129D01*
X8728643Y-12660700D01*
X8728643Y-12603557D01*
X8714357Y-12532129D01*
X8700071Y-12489271D01*
X8685786Y-12460700D01*
X8657214Y-12417843D01*
X8642928Y-12403557D01*
X9185786Y-12860700D02*
X9171500Y-12846414D01*
X9142928Y-12803557D01*
X9128643Y-12774986D01*
X9114357Y-12732129D01*
X9100071Y-12660700D01*
X9100071Y-12603557D01*
X9114357Y-12532129D01*
X9128643Y-12489271D01*
X9142928Y-12460700D01*
X9171500Y-12417843D01*
X9185786Y-12403557D01*
X9300071Y-12546414D02*
X9300071Y-12746414D01*
X9300071Y-12574986D02*
X9314357Y-12560700D01*
X9342928Y-12546414D01*
X9385786Y-12546414D01*
X9414357Y-12560700D01*
X9428643Y-12589271D01*
X9428643Y-12746414D01*
X9614357Y-12746414D02*
X9585786Y-12732129D01*
X9571500Y-12717843D01*
X9557214Y-12689271D01*
X9557214Y-12603557D01*
X9571500Y-12574986D01*
X9585786Y-12560700D01*
X9614357Y-12546414D01*
X9657214Y-12546414D01*
X9685786Y-12560700D01*
X9700071Y-12574986D01*
X9714357Y-12603557D01*
X9714357Y-12689271D01*
X9700071Y-12717843D01*
X9685786Y-12732129D01*
X9657214Y-12746414D01*
X9614357Y-12746414D01*
X9800071Y-12546414D02*
X9914357Y-12546414D01*
X9842928Y-12446414D02*
X9842928Y-12703557D01*
X9857214Y-12732129D01*
X9885786Y-12746414D01*
X9914357Y-12746414D01*
X10242928Y-12546414D02*
X10242928Y-12846414D01*
X10242928Y-12560700D02*
X10271500Y-12546414D01*
X10328643Y-12546414D01*
X10357214Y-12560700D01*
X10371500Y-12574986D01*
X10385786Y-12603557D01*
X10385786Y-12689271D01*
X10371500Y-12717843D01*
X10357214Y-12732129D01*
X10328643Y-12746414D01*
X10271500Y-12746414D01*
X10242928Y-12732129D01*
X10557214Y-12746414D02*
X10528643Y-12732129D01*
X10514357Y-12703557D01*
X10514357Y-12446414D01*
X10800071Y-12746414D02*
X10800071Y-12589271D01*
X10785786Y-12560700D01*
X10757214Y-12546414D01*
X10700071Y-12546414D01*
X10671500Y-12560700D01*
X10800071Y-12732129D02*
X10771500Y-12746414D01*
X10700071Y-12746414D01*
X10671500Y-12732129D01*
X10657214Y-12703557D01*
X10657214Y-12674986D01*
X10671500Y-12646414D01*
X10700071Y-12632129D01*
X10771500Y-12632129D01*
X10800071Y-12617843D01*
X10900071Y-12546414D02*
X11014357Y-12546414D01*
X10942928Y-12446414D02*
X10942928Y-12703557D01*
X10957214Y-12732129D01*
X10985786Y-12746414D01*
X11014357Y-12746414D01*
X11228643Y-12732129D02*
X11200071Y-12746414D01*
X11142928Y-12746414D01*
X11114357Y-12732129D01*
X11100071Y-12703557D01*
X11100071Y-12589271D01*
X11114357Y-12560700D01*
X11142928Y-12546414D01*
X11200071Y-12546414D01*
X11228643Y-12560700D01*
X11242928Y-12589271D01*
X11242928Y-12617843D01*
X11100071Y-12646414D01*
X11500071Y-12746414D02*
X11500071Y-12446414D01*
X11500071Y-12732129D02*
X11471500Y-12746414D01*
X11414357Y-12746414D01*
X11385786Y-12732129D01*
X11371500Y-12717843D01*
X11357214Y-12689271D01*
X11357214Y-12603557D01*
X11371500Y-12574986D01*
X11385786Y-12560700D01*
X11414357Y-12546414D01*
X11471500Y-12546414D01*
X11500071Y-12560700D01*
X11614357Y-12860700D02*
X11628643Y-12846414D01*
X11657214Y-12803557D01*
X11671500Y-12774986D01*
X11685786Y-12732129D01*
X11700071Y-12660700D01*
X11700071Y-12603557D01*
X11685786Y-12532129D01*
X11671500Y-12489271D01*
X11657214Y-12460700D01*
X11628643Y-12417843D01*
X11614357Y-12403557D01*
X1981500Y-12885700D02*
X1981500Y-13235700D01*
X1806500Y-13060700D02*
X2156500Y-13060700D01*
X2414357Y-12896414D02*
X2600071Y-12896414D01*
X2500071Y-13010700D01*
X2542928Y-13010700D01*
X2571500Y-13024986D01*
X2585786Y-13039271D01*
X2600071Y-13067843D01*
X2600071Y-13139271D01*
X2585786Y-13167843D01*
X2571500Y-13182129D01*
X2542928Y-13196414D01*
X2457214Y-13196414D01*
X2428643Y-13182129D01*
X2414357Y-13167843D01*
X2728643Y-13167843D02*
X2742928Y-13182129D01*
X2728643Y-13196414D01*
X2714357Y-13182129D01*
X2728643Y-13167843D01*
X2728643Y-13196414D01*
X3014357Y-12896414D02*
X2871500Y-12896414D01*
X2857214Y-13039271D01*
X2871500Y-13024986D01*
X2900071Y-13010700D01*
X2971500Y-13010700D01*
X3000071Y-13024986D01*
X3014357Y-13039271D01*
X3028643Y-13067843D01*
X3028643Y-13139271D01*
X3014357Y-13167843D01*
X3000071Y-13182129D01*
X2971500Y-13196414D01*
X2900071Y-13196414D01*
X2871500Y-13182129D01*
X2857214Y-13167843D01*
X3214357Y-12896414D02*
X3242928Y-12896414D01*
X3271500Y-12910700D01*
X3285786Y-12924986D01*
X3300071Y-12953557D01*
X3314357Y-13010700D01*
X3314357Y-13082129D01*
X3300071Y-13139271D01*
X3285786Y-13167843D01*
X3271500Y-13182129D01*
X3242928Y-13196414D01*
X3214357Y-13196414D01*
X3185786Y-13182129D01*
X3171500Y-13167843D01*
X3157214Y-13139271D01*
X3142928Y-13082129D01*
X3142928Y-13010700D01*
X3157214Y-12953557D01*
X3171500Y-12924986D01*
X3185786Y-12910700D01*
X3214357Y-12896414D01*
X3442928Y-13196414D02*
X3442928Y-12996414D01*
X3442928Y-13024986D02*
X3457214Y-13010700D01*
X3485786Y-12996414D01*
X3528643Y-12996414D01*
X3557214Y-13010700D01*
X3571500Y-13039271D01*
X3571500Y-13196414D01*
X3571500Y-13039271D02*
X3585786Y-13010700D01*
X3614357Y-12996414D01*
X3657214Y-12996414D01*
X3685786Y-13010700D01*
X3700071Y-13039271D01*
X3700071Y-13196414D01*
X3842928Y-13196414D02*
X3842928Y-12996414D01*
X3842928Y-13024986D02*
X3857214Y-13010700D01*
X3885786Y-12996414D01*
X3928643Y-12996414D01*
X3957214Y-13010700D01*
X3971500Y-13039271D01*
X3971500Y-13196414D01*
X3971500Y-13039271D02*
X3985786Y-13010700D01*
X4014357Y-12996414D01*
X4057214Y-12996414D01*
X4085786Y-13010700D01*
X4100071Y-13039271D01*
X4100071Y-13196414D01*
X4685786Y-12882129D02*
X4428643Y-13267843D01*
X5071500Y-12896414D02*
X5100071Y-12896414D01*
X5128643Y-12910700D01*
X5142928Y-12924986D01*
X5157214Y-12953557D01*
X5171500Y-13010700D01*
X5171500Y-13082129D01*
X5157214Y-13139271D01*
X5142928Y-13167843D01*
X5128643Y-13182129D01*
X5100071Y-13196414D01*
X5071500Y-13196414D01*
X5042928Y-13182129D01*
X5028643Y-13167843D01*
X5014357Y-13139271D01*
X5000071Y-13082129D01*
X5000071Y-13010700D01*
X5014357Y-12953557D01*
X5028643Y-12924986D01*
X5042928Y-12910700D01*
X5071500Y-12896414D01*
X5300071Y-13167843D02*
X5314357Y-13182129D01*
X5300071Y-13196414D01*
X5285786Y-13182129D01*
X5300071Y-13167843D01*
X5300071Y-13196414D01*
X5600071Y-13196414D02*
X5428643Y-13196414D01*
X5514357Y-13196414D02*
X5514357Y-12896414D01*
X5485786Y-12939271D01*
X5457214Y-12967843D01*
X5428643Y-12982129D01*
X5700071Y-12896414D02*
X5885786Y-12896414D01*
X5785786Y-13010700D01*
X5828643Y-13010700D01*
X5857214Y-13024986D01*
X5871500Y-13039271D01*
X5885786Y-13067843D01*
X5885786Y-13139271D01*
X5871500Y-13167843D01*
X5857214Y-13182129D01*
X5828643Y-13196414D01*
X5742928Y-13196414D01*
X5714357Y-13182129D01*
X5700071Y-13167843D01*
X6057214Y-13024986D02*
X6028643Y-13010700D01*
X6014357Y-12996414D01*
X6000071Y-12967843D01*
X6000071Y-12953557D01*
X6014357Y-12924986D01*
X6028643Y-12910700D01*
X6057214Y-12896414D01*
X6114357Y-12896414D01*
X6142928Y-12910700D01*
X6157214Y-12924986D01*
X6171500Y-12953557D01*
X6171500Y-12967843D01*
X6157214Y-12996414D01*
X6142928Y-13010700D01*
X6114357Y-13024986D01*
X6057214Y-13024986D01*
X6028643Y-13039271D01*
X6014357Y-13053557D01*
X6000071Y-13082129D01*
X6000071Y-13139271D01*
X6014357Y-13167843D01*
X6028643Y-13182129D01*
X6057214Y-13196414D01*
X6114357Y-13196414D01*
X6142928Y-13182129D01*
X6157214Y-13167843D01*
X6171500Y-13139271D01*
X6171500Y-13082129D01*
X6157214Y-13053557D01*
X6142928Y-13039271D01*
X6114357Y-13024986D01*
X6285786Y-12896414D02*
X6285786Y-12953557D01*
X6400071Y-12896414D02*
X6400071Y-12953557D01*
X6842928Y-13310700D02*
X6828643Y-13296414D01*
X6800071Y-13253557D01*
X6785786Y-13224986D01*
X6771500Y-13182129D01*
X6757214Y-13110700D01*
X6757214Y-13053557D01*
X6771500Y-12982129D01*
X6785786Y-12939271D01*
X6800071Y-12910700D01*
X6828643Y-12867843D01*
X6842928Y-12853557D01*
X7085786Y-12996414D02*
X7085786Y-13196414D01*
X7014357Y-12882129D02*
X6942928Y-13096414D01*
X7128643Y-13096414D01*
X7471500Y-13196414D02*
X7471500Y-12896414D01*
X7600071Y-13196414D02*
X7600071Y-13039271D01*
X7585786Y-13010700D01*
X7557214Y-12996414D01*
X7514357Y-12996414D01*
X7485786Y-13010700D01*
X7471500Y-13024986D01*
X7785786Y-13196414D02*
X7757214Y-13182129D01*
X7742928Y-13167843D01*
X7728643Y-13139271D01*
X7728643Y-13053557D01*
X7742928Y-13024986D01*
X7757214Y-13010700D01*
X7785786Y-12996414D01*
X7828643Y-12996414D01*
X7857214Y-13010700D01*
X7871500Y-13024986D01*
X7885786Y-13053557D01*
X7885786Y-13139271D01*
X7871500Y-13167843D01*
X7857214Y-13182129D01*
X7828643Y-13196414D01*
X7785786Y-13196414D01*
X8057214Y-13196414D02*
X8028643Y-13182129D01*
X8014357Y-13153557D01*
X8014357Y-12896414D01*
X8285786Y-13182129D02*
X8257214Y-13196414D01*
X8200071Y-13196414D01*
X8171500Y-13182129D01*
X8157214Y-13153557D01*
X8157214Y-13039271D01*
X8171500Y-13010700D01*
X8200071Y-12996414D01*
X8257214Y-12996414D01*
X8285786Y-13010700D01*
X8300071Y-13039271D01*
X8300071Y-13067843D01*
X8157214Y-13096414D01*
X8414357Y-13182129D02*
X8442928Y-13196414D01*
X8500071Y-13196414D01*
X8528643Y-13182129D01*
X8542928Y-13153557D01*
X8542928Y-13139271D01*
X8528643Y-13110700D01*
X8500071Y-13096414D01*
X8457214Y-13096414D01*
X8428643Y-13082129D01*
X8414357Y-13053557D01*
X8414357Y-13039271D01*
X8428643Y-13010700D01*
X8457214Y-12996414D01*
X8500071Y-12996414D01*
X8528643Y-13010700D01*
X8642928Y-13310700D02*
X8657214Y-13296414D01*
X8685786Y-13253557D01*
X8700071Y-13224986D01*
X8714357Y-13182129D01*
X8728643Y-13110700D01*
X8728643Y-13053557D01*
X8714357Y-12982129D01*
X8700071Y-12939271D01*
X8685786Y-12910700D01*
X8657214Y-12867843D01*
X8642928Y-12853557D01*
X9185786Y-13310700D02*
X9171500Y-13296414D01*
X9142928Y-13253557D01*
X9128643Y-13224986D01*
X9114357Y-13182129D01*
X9100071Y-13110700D01*
X9100071Y-13053557D01*
X9114357Y-12982129D01*
X9128643Y-12939271D01*
X9142928Y-12910700D01*
X9171500Y-12867843D01*
X9185786Y-12853557D01*
X9300071Y-12996414D02*
X9300071Y-13196414D01*
X9300071Y-13024986D02*
X9314357Y-13010700D01*
X9342928Y-12996414D01*
X9385786Y-12996414D01*
X9414357Y-13010700D01*
X9428643Y-13039271D01*
X9428643Y-13196414D01*
X9614357Y-13196414D02*
X9585786Y-13182129D01*
X9571500Y-13167843D01*
X9557214Y-13139271D01*
X9557214Y-13053557D01*
X9571500Y-13024986D01*
X9585786Y-13010700D01*
X9614357Y-12996414D01*
X9657214Y-12996414D01*
X9685786Y-13010700D01*
X9700071Y-13024986D01*
X9714357Y-13053557D01*
X9714357Y-13139271D01*
X9700071Y-13167843D01*
X9685786Y-13182129D01*
X9657214Y-13196414D01*
X9614357Y-13196414D01*
X9800071Y-12996414D02*
X9914357Y-12996414D01*
X9842928Y-12896414D02*
X9842928Y-13153557D01*
X9857214Y-13182129D01*
X9885786Y-13196414D01*
X9914357Y-13196414D01*
X10242928Y-12996414D02*
X10242928Y-13296414D01*
X10242928Y-13010700D02*
X10271500Y-12996414D01*
X10328643Y-12996414D01*
X10357214Y-13010700D01*
X10371500Y-13024986D01*
X10385786Y-13053557D01*
X10385786Y-13139271D01*
X10371500Y-13167843D01*
X10357214Y-13182129D01*
X10328643Y-13196414D01*
X10271500Y-13196414D01*
X10242928Y-13182129D01*
X10557214Y-13196414D02*
X10528643Y-13182129D01*
X10514357Y-13153557D01*
X10514357Y-12896414D01*
X10800071Y-13196414D02*
X10800071Y-13039271D01*
X10785786Y-13010700D01*
X10757214Y-12996414D01*
X10700071Y-12996414D01*
X10671500Y-13010700D01*
X10800071Y-13182129D02*
X10771500Y-13196414D01*
X10700071Y-13196414D01*
X10671500Y-13182129D01*
X10657214Y-13153557D01*
X10657214Y-13124986D01*
X10671500Y-13096414D01*
X10700071Y-13082129D01*
X10771500Y-13082129D01*
X10800071Y-13067843D01*
X10900071Y-12996414D02*
X11014357Y-12996414D01*
X10942928Y-12896414D02*
X10942928Y-13153557D01*
X10957214Y-13182129D01*
X10985786Y-13196414D01*
X11014357Y-13196414D01*
X11228643Y-13182129D02*
X11200071Y-13196414D01*
X11142928Y-13196414D01*
X11114357Y-13182129D01*
X11100071Y-13153557D01*
X11100071Y-13039271D01*
X11114357Y-13010700D01*
X11142928Y-12996414D01*
X11200071Y-12996414D01*
X11228643Y-13010700D01*
X11242928Y-13039271D01*
X11242928Y-13067843D01*
X11100071Y-13096414D01*
X11500071Y-13196414D02*
X11500071Y-12896414D01*
X11500071Y-13182129D02*
X11471500Y-13196414D01*
X11414357Y-13196414D01*
X11385786Y-13182129D01*
X11371500Y-13167843D01*
X11357214Y-13139271D01*
X11357214Y-13053557D01*
X11371500Y-13024986D01*
X11385786Y-13010700D01*
X11414357Y-12996414D01*
X11471500Y-12996414D01*
X11500071Y-13010700D01*
X11614357Y-13310700D02*
X11628643Y-13296414D01*
X11657214Y-13253557D01*
X11671500Y-13224986D01*
X11685786Y-13182129D01*
X11700071Y-13110700D01*
X11700071Y-13053557D01*
X11685786Y-12982129D01*
X11671500Y-12939271D01*
X11657214Y-12910700D01*
X11628643Y-12867843D01*
X11614357Y-12853557D01*
M02*
