M48
; DRILL file {KiCad (5.1.6)-1} date 07/12/20 13:25:54
; FORMAT={-:-/ absolute / inch / decimal}
; #@! TF.CreationDate,2020-07-12T13:25:54+05:30
; #@! TF.GenerationSoftware,Kicad,Pcbnew,(5.1.6)-1
; #@! TF.FileFunction,Plated,1,2,PTH
FMAT,2
INCH
T1C0.0197
T2C0.0276
T3C0.0315
T4C0.0394
T5C0.0433
T6C0.0512
T7C0.0598
%
G90
G05
T1
X7.37Y-3.56
X7.4094Y-3.56
X3.89Y-1.955
X3.89Y-1.9944
T2
X3.14Y-2.585
X3.14Y-2.785
X3.34Y-2.585
X3.34Y-2.785
X6.585Y-2.835
X6.585Y-3.035
X2.115Y-2.385
X2.315Y-2.385
X7.155Y-2.84
X7.155Y-3.04
X6.9Y-3.315
X6.9Y-3.515
X6.24Y-2.7
X6.44Y-2.7
X2.14Y-2.56
X2.14Y-2.76
X2.365Y-2.56
X2.365Y-2.76
X7.545Y-2.27
X7.745Y-2.27
X6.795Y-2.3
X6.995Y-2.3
X6.135Y-2.715
X6.135Y-2.915
X2.59Y-2.56
X2.59Y-2.76
X2.89Y-2.435
X3.09Y-2.435
X2.59Y-2.435
X2.79Y-2.435
X7.01Y-3.525
X7.21Y-3.525
X7.29Y-3.4
X7.49Y-3.4
X1.94Y-2.56
X1.94Y-2.76
X3.19Y-2.435
X3.39Y-2.435
X2.965Y-2.56
X2.965Y-2.76
X6.45Y-2.83
X6.45Y-3.03
X2.79Y-2.56
X2.79Y-2.76
X7.28Y-2.85
X7.28Y-3.05
X7.135Y-2.305
X7.335Y-2.305
T3
X7.14Y-2.505
X7.2384Y-2.505
X1.715Y-2.585
X1.715Y-2.6834
X6.52Y-3.22
X6.52Y-3.3184
X2.415Y-2.96
X2.5134Y-2.96
X6.71Y-2.615
X6.71Y-2.715
X6.71Y-2.815
X6.71Y-2.915
X7.01Y-2.615
X7.01Y-2.715
X7.01Y-2.815
X7.01Y-2.915
X7.615Y-3.41
X7.7134Y-3.41
X2.4166Y-3.185
X2.515Y-3.185
X6.145Y-3.035
X6.145Y-3.1334
X7.295Y-3.1716
X7.295Y-3.27
X2.6416Y-2.96
X2.74Y-2.96
X7.8166Y-2.725
X7.915Y-2.725
X2.1666Y-2.96
X2.265Y-2.96
X2.79Y-3.16
X2.79Y-3.26
X2.79Y-3.36
X2.79Y-3.46
X3.09Y-3.16
X3.09Y-3.26
X3.09Y-3.36
X3.09Y-3.46
X2.44Y-2.3616
X2.44Y-2.46
X2.165Y-3.185
X2.2634Y-3.185
X7.155Y-3.165
X7.155Y-3.2634
X7.87Y-2.27
X7.9684Y-2.27
X2.415Y-3.36
X2.5134Y-3.36
T4
X2.34Y-2.185
X2.44Y-2.185
X2.54Y-2.185
X2.84Y-2.21
X2.94Y-2.21
X3.04Y-2.21
X1.89Y-2.185
X1.99Y-2.185
X2.09Y-2.185
X7.025Y-2.055
X7.125Y-2.055
X7.225Y-2.055
X6.545Y-2.06
X6.645Y-2.06
X6.745Y-2.06
X3.34Y-2.21
X3.44Y-2.21
X3.54Y-2.21
X7.85Y-2.04
X7.95Y-2.04
X8.05Y-2.04
X7.435Y-2.065
X7.535Y-2.065
X7.635Y-2.065
T5
X3.215Y-3.61
X3.615Y-3.61
X7.135Y-2.695
X7.535Y-2.695
X6.7Y-3.09
X6.7Y-3.49
X3.515Y-2.56
X3.515Y-2.96
T6
X5.995Y-3.03
X5.995Y-3.2269
X5.995Y-3.4237
X1.715Y-2.96
X1.715Y-3.1569
X1.715Y-3.3537
T7
X3.88Y-2.41
X3.88Y-2.61
X3.88Y-2.81
X6.06Y-3.78
X6.26Y-3.78
X6.46Y-3.78
X3.465Y-3.16
X3.465Y-3.36
X5.95Y-2.05
X5.95Y-2.25
X5.95Y-2.45
X1.89Y-3.71
X2.09Y-3.71
X2.29Y-3.71
X7.915Y-2.95
X7.915Y-3.15
T0
M30
