M48
; DRILL file {KiCad (5.1.6)-1} date 09/07/20 11:51:20
; FORMAT={-:-/ absolute / inch / decimal}
; #@! TF.CreationDate,2020-09-07T11:51:20+05:30
; #@! TF.GenerationSoftware,Kicad,Pcbnew,(5.1.6)-1
; #@! TF.FileFunction,Plated,1,2,PTH
FMAT,2
INCH
T1C0.0315
T2C0.0354
T3C0.0394
T4C0.0433
T5C0.0600
%
G90
G05
T1
X5.95Y-4.25
X6.0287Y-4.25
X5.7Y-3.5
X5.8Y-3.5
X5.9Y-3.5
T2
X6.68Y-3.52
X6.78Y-3.52
T3
X5.6Y-3.75
X5.9Y-3.75
X6.14Y-3.5
X6.44Y-3.5
X6.05Y-4.0
X6.35Y-4.0
X5.6Y-4.0
X5.9Y-4.0
X6.04Y-3.74
X6.34Y-3.74
T4
X5.05Y-3.65
X5.05Y-3.8469
X5.2469Y-3.65
X5.2469Y-3.8469
T5
X4.55Y-3.65
X4.55Y-3.85
T0
M30
