%TF.GenerationSoftware,KiCad,Pcbnew,(5.1.10)-1*%
%TF.CreationDate,2021-12-05T10:22:05+05:30*%
%TF.ProjectId,Libobxis lab,4c69626f-6278-4697-9320-6c61622e6b69,rev?*%
%TF.SameCoordinates,Original*%
%TF.FileFunction,Soldermask,Top*%
%TF.FilePolarity,Negative*%
%FSLAX46Y46*%
G04 Gerber Fmt 4.6, Leading zero omitted, Abs format (unit mm)*
G04 Created by KiCad (PCBNEW (5.1.10)-1) date 2021-12-05 10:22:05*
%MOMM*%
%LPD*%
G01*
G04 APERTURE LIST*
%ADD10C,0.010000*%
%ADD11R,1.200000X1.200000*%
%ADD12O,1.350000X1.350000*%
%ADD13R,1.350000X1.350000*%
%ADD14O,1.700000X1.700000*%
%ADD15R,1.700000X1.700000*%
%ADD16R,2.700000X2.600000*%
%ADD17R,0.350000X0.850000*%
%ADD18R,0.800000X0.350000*%
G04 APERTURE END LIST*
D10*
%TO.C,REF\u002A\u002A*%
G36*
X141630400Y-69426253D02*
G01*
X141630400Y-68880941D01*
X141831787Y-69079721D01*
X142194691Y-69409429D01*
X142468815Y-69623849D01*
X142572400Y-69702297D01*
X142692529Y-69796856D01*
X142816202Y-69896950D01*
X142930419Y-69992002D01*
X143022181Y-70071434D01*
X143049760Y-70096532D01*
X143137212Y-70177964D01*
X143228356Y-70108006D01*
X143417604Y-69972564D01*
X143557050Y-69885022D01*
X143639286Y-69830152D01*
X143718612Y-69768876D01*
X143724607Y-69763727D01*
X143807581Y-69694778D01*
X143910137Y-69614253D01*
X144020288Y-69531058D01*
X144126047Y-69454098D01*
X144215425Y-69392281D01*
X144272547Y-69356624D01*
X144325596Y-69321543D01*
X144404062Y-69263014D01*
X144495252Y-69191180D01*
X144586472Y-69116185D01*
X144665032Y-69048172D01*
X144704020Y-69011800D01*
X144730081Y-68987911D01*
X144777406Y-68945637D01*
X144786570Y-68937523D01*
X144856200Y-68875945D01*
X144856200Y-70002400D01*
X144777923Y-70002400D01*
X144701395Y-70019163D01*
X144596149Y-70066393D01*
X144470239Y-70139507D01*
X144331716Y-70233919D01*
X144217533Y-70321458D01*
X144125313Y-70392732D01*
X144034269Y-70458053D01*
X143961535Y-70505223D01*
X143950833Y-70511329D01*
X143884434Y-70551371D01*
X143836284Y-70586658D01*
X143827500Y-70595301D01*
X143788816Y-70629862D01*
X143732250Y-70670085D01*
X143684093Y-70707774D01*
X143662487Y-70738285D01*
X143662400Y-70739586D01*
X143687091Y-70748462D01*
X143758381Y-70755582D01*
X143872092Y-70760736D01*
X144024044Y-70763717D01*
X144158961Y-70764400D01*
X144338263Y-70763716D01*
X144474270Y-70761305D01*
X144574475Y-70756625D01*
X144646369Y-70749137D01*
X144697443Y-70738302D01*
X144735188Y-70723579D01*
X144736811Y-70722756D01*
X144796491Y-70687283D01*
X144834618Y-70655777D01*
X144836761Y-70652906D01*
X144842323Y-70668403D01*
X144847262Y-70727753D01*
X144851312Y-70824014D01*
X144854207Y-70950241D01*
X144855682Y-71099489D01*
X144855811Y-71151206D01*
X144856200Y-71677711D01*
X144786350Y-71648032D01*
X144727758Y-71619859D01*
X144692370Y-71597776D01*
X144663142Y-71593943D01*
X144587781Y-71590343D01*
X144470951Y-71587041D01*
X144317317Y-71584104D01*
X144131546Y-71581601D01*
X143918302Y-71579596D01*
X143682251Y-71578158D01*
X143428059Y-71577353D01*
X143256290Y-71577201D01*
X142952311Y-71577259D01*
X142694912Y-71577530D01*
X142479874Y-71578154D01*
X142302978Y-71579274D01*
X142160004Y-71581031D01*
X142046733Y-71583567D01*
X141958945Y-71587024D01*
X141892421Y-71591543D01*
X141842941Y-71597267D01*
X141806286Y-71604338D01*
X141778237Y-71612896D01*
X141754574Y-71623084D01*
X141744699Y-71628001D01*
X141682869Y-71658756D01*
X141643660Y-71676810D01*
X141637729Y-71678801D01*
X141635507Y-71654665D01*
X141633556Y-71587312D01*
X141631984Y-71484328D01*
X141630901Y-71353294D01*
X141630415Y-71201795D01*
X141630400Y-71168083D01*
X141630664Y-70994940D01*
X141631831Y-70866371D01*
X141634464Y-70776154D01*
X141639123Y-70718063D01*
X141646372Y-70685876D01*
X141656772Y-70673368D01*
X141670885Y-70674314D01*
X141674850Y-70675836D01*
X141763673Y-70709195D01*
X141852181Y-70733261D01*
X141951141Y-70749420D01*
X142071321Y-70759058D01*
X142223488Y-70763560D01*
X142363088Y-70764400D01*
X142782904Y-70764401D01*
X142709900Y-70688201D01*
X142659557Y-70640587D01*
X142622278Y-70614006D01*
X142615483Y-70612000D01*
X142589550Y-70596863D01*
X142536128Y-70557372D01*
X142466145Y-70502412D01*
X142390529Y-70440868D01*
X142320209Y-70381623D01*
X142266114Y-70333561D01*
X142240000Y-70306761D01*
X142212734Y-70284439D01*
X142156630Y-70246064D01*
X142113000Y-70218198D01*
X142025298Y-70159995D01*
X141938698Y-70097049D01*
X141910362Y-70074701D01*
X141843736Y-70029987D01*
X141782643Y-70004592D01*
X141766390Y-70002400D01*
X141722677Y-70001878D01*
X141689502Y-69996209D01*
X141665412Y-69979238D01*
X141648955Y-69944811D01*
X141638677Y-69886774D01*
X141633127Y-69798972D01*
X141630851Y-69675250D01*
X141630396Y-69509455D01*
X141630400Y-69426253D01*
G37*
X141630400Y-69426253D02*
X141630400Y-68880941D01*
X141831787Y-69079721D01*
X142194691Y-69409429D01*
X142468815Y-69623849D01*
X142572400Y-69702297D01*
X142692529Y-69796856D01*
X142816202Y-69896950D01*
X142930419Y-69992002D01*
X143022181Y-70071434D01*
X143049760Y-70096532D01*
X143137212Y-70177964D01*
X143228356Y-70108006D01*
X143417604Y-69972564D01*
X143557050Y-69885022D01*
X143639286Y-69830152D01*
X143718612Y-69768876D01*
X143724607Y-69763727D01*
X143807581Y-69694778D01*
X143910137Y-69614253D01*
X144020288Y-69531058D01*
X144126047Y-69454098D01*
X144215425Y-69392281D01*
X144272547Y-69356624D01*
X144325596Y-69321543D01*
X144404062Y-69263014D01*
X144495252Y-69191180D01*
X144586472Y-69116185D01*
X144665032Y-69048172D01*
X144704020Y-69011800D01*
X144730081Y-68987911D01*
X144777406Y-68945637D01*
X144786570Y-68937523D01*
X144856200Y-68875945D01*
X144856200Y-70002400D01*
X144777923Y-70002400D01*
X144701395Y-70019163D01*
X144596149Y-70066393D01*
X144470239Y-70139507D01*
X144331716Y-70233919D01*
X144217533Y-70321458D01*
X144125313Y-70392732D01*
X144034269Y-70458053D01*
X143961535Y-70505223D01*
X143950833Y-70511329D01*
X143884434Y-70551371D01*
X143836284Y-70586658D01*
X143827500Y-70595301D01*
X143788816Y-70629862D01*
X143732250Y-70670085D01*
X143684093Y-70707774D01*
X143662487Y-70738285D01*
X143662400Y-70739586D01*
X143687091Y-70748462D01*
X143758381Y-70755582D01*
X143872092Y-70760736D01*
X144024044Y-70763717D01*
X144158961Y-70764400D01*
X144338263Y-70763716D01*
X144474270Y-70761305D01*
X144574475Y-70756625D01*
X144646369Y-70749137D01*
X144697443Y-70738302D01*
X144735188Y-70723579D01*
X144736811Y-70722756D01*
X144796491Y-70687283D01*
X144834618Y-70655777D01*
X144836761Y-70652906D01*
X144842323Y-70668403D01*
X144847262Y-70727753D01*
X144851312Y-70824014D01*
X144854207Y-70950241D01*
X144855682Y-71099489D01*
X144855811Y-71151206D01*
X144856200Y-71677711D01*
X144786350Y-71648032D01*
X144727758Y-71619859D01*
X144692370Y-71597776D01*
X144663142Y-71593943D01*
X144587781Y-71590343D01*
X144470951Y-71587041D01*
X144317317Y-71584104D01*
X144131546Y-71581601D01*
X143918302Y-71579596D01*
X143682251Y-71578158D01*
X143428059Y-71577353D01*
X143256290Y-71577201D01*
X142952311Y-71577259D01*
X142694912Y-71577530D01*
X142479874Y-71578154D01*
X142302978Y-71579274D01*
X142160004Y-71581031D01*
X142046733Y-71583567D01*
X141958945Y-71587024D01*
X141892421Y-71591543D01*
X141842941Y-71597267D01*
X141806286Y-71604338D01*
X141778237Y-71612896D01*
X141754574Y-71623084D01*
X141744699Y-71628001D01*
X141682869Y-71658756D01*
X141643660Y-71676810D01*
X141637729Y-71678801D01*
X141635507Y-71654665D01*
X141633556Y-71587312D01*
X141631984Y-71484328D01*
X141630901Y-71353294D01*
X141630415Y-71201795D01*
X141630400Y-71168083D01*
X141630664Y-70994940D01*
X141631831Y-70866371D01*
X141634464Y-70776154D01*
X141639123Y-70718063D01*
X141646372Y-70685876D01*
X141656772Y-70673368D01*
X141670885Y-70674314D01*
X141674850Y-70675836D01*
X141763673Y-70709195D01*
X141852181Y-70733261D01*
X141951141Y-70749420D01*
X142071321Y-70759058D01*
X142223488Y-70763560D01*
X142363088Y-70764400D01*
X142782904Y-70764401D01*
X142709900Y-70688201D01*
X142659557Y-70640587D01*
X142622278Y-70614006D01*
X142615483Y-70612000D01*
X142589550Y-70596863D01*
X142536128Y-70557372D01*
X142466145Y-70502412D01*
X142390529Y-70440868D01*
X142320209Y-70381623D01*
X142266114Y-70333561D01*
X142240000Y-70306761D01*
X142212734Y-70284439D01*
X142156630Y-70246064D01*
X142113000Y-70218198D01*
X142025298Y-70159995D01*
X141938698Y-70097049D01*
X141910362Y-70074701D01*
X141843736Y-70029987D01*
X141782643Y-70004592D01*
X141766390Y-70002400D01*
X141722677Y-70001878D01*
X141689502Y-69996209D01*
X141665412Y-69979238D01*
X141648955Y-69944811D01*
X141638677Y-69886774D01*
X141633127Y-69798972D01*
X141630851Y-69675250D01*
X141630396Y-69509455D01*
X141630400Y-69426253D01*
G36*
X143594045Y-67843400D02*
G01*
X143865528Y-67843179D01*
X144090618Y-67842417D01*
X144273721Y-67840974D01*
X144419240Y-67838706D01*
X144531583Y-67835469D01*
X144615155Y-67831122D01*
X144674359Y-67825520D01*
X144713603Y-67818522D01*
X144737292Y-67809984D01*
X144743395Y-67806108D01*
X144780943Y-67779822D01*
X144809085Y-67769109D01*
X144829174Y-67779290D01*
X144842563Y-67815688D01*
X144850605Y-67883624D01*
X144854653Y-67988422D01*
X144856060Y-68135402D01*
X144856200Y-68249800D01*
X144855515Y-68400082D01*
X144853608Y-68531273D01*
X144850702Y-68635573D01*
X144847017Y-68705181D01*
X144842776Y-68732295D01*
X144842488Y-68732400D01*
X144813454Y-68721845D01*
X144756509Y-68695274D01*
X144729200Y-68681600D01*
X144701760Y-68668734D01*
X144671394Y-68658241D01*
X144632920Y-68649880D01*
X144581155Y-68643409D01*
X144510918Y-68638589D01*
X144417027Y-68635178D01*
X144294301Y-68632935D01*
X144137559Y-68631619D01*
X143941617Y-68630990D01*
X143701296Y-68630805D01*
X143636750Y-68630800D01*
X143379269Y-68631053D01*
X143167749Y-68631929D01*
X142997351Y-68633604D01*
X142863238Y-68636252D01*
X142760571Y-68640050D01*
X142684513Y-68645173D01*
X142630226Y-68651797D01*
X142592872Y-68660097D01*
X142568938Y-68669553D01*
X142494000Y-68708305D01*
X142494000Y-67843400D01*
X143594045Y-67843400D01*
G37*
X143594045Y-67843400D02*
X143865528Y-67843179D01*
X144090618Y-67842417D01*
X144273721Y-67840974D01*
X144419240Y-67838706D01*
X144531583Y-67835469D01*
X144615155Y-67831122D01*
X144674359Y-67825520D01*
X144713603Y-67818522D01*
X144737292Y-67809984D01*
X144743395Y-67806108D01*
X144780943Y-67779822D01*
X144809085Y-67769109D01*
X144829174Y-67779290D01*
X144842563Y-67815688D01*
X144850605Y-67883624D01*
X144854653Y-67988422D01*
X144856060Y-68135402D01*
X144856200Y-68249800D01*
X144855515Y-68400082D01*
X144853608Y-68531273D01*
X144850702Y-68635573D01*
X144847017Y-68705181D01*
X144842776Y-68732295D01*
X144842488Y-68732400D01*
X144813454Y-68721845D01*
X144756509Y-68695274D01*
X144729200Y-68681600D01*
X144701760Y-68668734D01*
X144671394Y-68658241D01*
X144632920Y-68649880D01*
X144581155Y-68643409D01*
X144510918Y-68638589D01*
X144417027Y-68635178D01*
X144294301Y-68632935D01*
X144137559Y-68631619D01*
X143941617Y-68630990D01*
X143701296Y-68630805D01*
X143636750Y-68630800D01*
X143379269Y-68631053D01*
X143167749Y-68631929D01*
X142997351Y-68633604D01*
X142863238Y-68636252D01*
X142760571Y-68640050D01*
X142684513Y-68645173D01*
X142630226Y-68651797D01*
X142592872Y-68660097D01*
X142568938Y-68669553D01*
X142494000Y-68708305D01*
X142494000Y-67843400D01*
X143594045Y-67843400D01*
G36*
X140727960Y-68084059D02*
G01*
X140794395Y-67966455D01*
X140897045Y-67872977D01*
X140983124Y-67829188D01*
X141121614Y-67798578D01*
X141259591Y-67807679D01*
X141381084Y-67855027D01*
X141399850Y-67867412D01*
X141487408Y-67957851D01*
X141547553Y-68076729D01*
X141577418Y-68209667D01*
X141574134Y-68342287D01*
X141534832Y-68460210D01*
X141522244Y-68480994D01*
X141443394Y-68563263D01*
X141334770Y-68631086D01*
X141217295Y-68673253D01*
X141147799Y-68681600D01*
X141038575Y-68662326D01*
X140924110Y-68611810D01*
X140825158Y-68541018D01*
X140776295Y-68485358D01*
X140715876Y-68353139D01*
X140700776Y-68216163D01*
X140727960Y-68084059D01*
G37*
X140727960Y-68084059D02*
X140794395Y-67966455D01*
X140897045Y-67872977D01*
X140983124Y-67829188D01*
X141121614Y-67798578D01*
X141259591Y-67807679D01*
X141381084Y-67855027D01*
X141399850Y-67867412D01*
X141487408Y-67957851D01*
X141547553Y-68076729D01*
X141577418Y-68209667D01*
X141574134Y-68342287D01*
X141534832Y-68460210D01*
X141522244Y-68480994D01*
X141443394Y-68563263D01*
X141334770Y-68631086D01*
X141217295Y-68673253D01*
X141147799Y-68681600D01*
X141038575Y-68662326D01*
X140924110Y-68611810D01*
X140825158Y-68541018D01*
X140776295Y-68485358D01*
X140715876Y-68353139D01*
X140700776Y-68216163D01*
X140727960Y-68084059D01*
%TD*%
D11*
%TO.C,D7*%
X124036000Y-72644000D03*
X121836000Y-72644000D03*
%TD*%
D12*
%TO.C,J2*%
X113284000Y-73754000D03*
X113284000Y-71754000D03*
X113284000Y-69754000D03*
X113284000Y-67754000D03*
X113284000Y-65754000D03*
D13*
X113284000Y-63754000D03*
%TD*%
D14*
%TO.C,J1*%
X140716000Y-55880000D03*
D15*
X140716000Y-53340000D03*
%TD*%
D16*
%TO.C,IC2*%
X128016000Y-60452000D03*
D17*
X126766000Y-58477000D03*
X127266000Y-58477000D03*
X127766000Y-58477000D03*
X128266000Y-58477000D03*
X128766000Y-58477000D03*
X129266000Y-58477000D03*
D18*
X130016000Y-59202000D03*
X130016000Y-59702000D03*
X130016000Y-60202000D03*
X130016000Y-60702000D03*
X130016000Y-61202000D03*
X130016000Y-61702000D03*
D17*
X129266000Y-62427000D03*
X128766000Y-62427000D03*
X128266000Y-62427000D03*
X127766000Y-62427000D03*
X127266000Y-62427000D03*
X126766000Y-62427000D03*
D18*
X126016000Y-61702000D03*
X126016000Y-61202000D03*
X126016000Y-60702000D03*
X126016000Y-60202000D03*
X126016000Y-59702000D03*
X126016000Y-59202000D03*
%TD*%
D11*
%TO.C,D12*%
X129370000Y-52324000D03*
X127170000Y-52324000D03*
%TD*%
%TO.C,D11*%
X123528000Y-54102000D03*
X121328000Y-54102000D03*
%TD*%
%TO.C,D10*%
X119718000Y-58166000D03*
X117518000Y-58166000D03*
%TD*%
%TO.C,D9*%
X118194000Y-62992000D03*
X115994000Y-62992000D03*
%TD*%
%TO.C,D8*%
X120226000Y-68580000D03*
X118026000Y-68580000D03*
%TD*%
%TO.C,D6*%
X129878000Y-74676000D03*
X127678000Y-74676000D03*
%TD*%
%TO.C,D5*%
X132758000Y-72390000D03*
X134958000Y-72390000D03*
%TD*%
%TO.C,D4*%
X136568000Y-68072000D03*
X138768000Y-68072000D03*
%TD*%
%TO.C,D3*%
X137076000Y-63246000D03*
X139276000Y-63246000D03*
%TD*%
%TO.C,D2*%
X135722000Y-58420000D03*
X137922000Y-58420000D03*
%TD*%
%TO.C,D1*%
X132758000Y-54356000D03*
X134958000Y-54356000D03*
%TD*%
M02*
