%TF.GenerationSoftware,KiCad,Pcbnew,(5.1.6)-1*%
%TF.CreationDate,2020-06-13T20:27:39+05:30*%
%TF.ProjectId,USING 555,5553494e-4720-4353-9535-2e6b69636164,rev?*%
%TF.SameCoordinates,Original*%
%TF.FileFunction,Copper,L2,Bot*%
%TF.FilePolarity,Positive*%
%FSLAX46Y46*%
G04 Gerber Fmt 4.6, Leading zero omitted, Abs format (unit mm)*
G04 Created by KiCad (PCBNEW (5.1.6)-1) date 2020-06-13 20:27:39*
%MOMM*%
%LPD*%
G01*
G04 APERTURE LIST*
%TA.AperFunction,NonConductor*%
%ADD10C,0.300000*%
%TD*%
%TA.AperFunction,ComponentPad*%
%ADD11R,1.600000X1.600000*%
%TD*%
%TA.AperFunction,ComponentPad*%
%ADD12C,1.600000*%
%TD*%
%TA.AperFunction,ComponentPad*%
%ADD13C,1.699260*%
%TD*%
%TA.AperFunction,ComponentPad*%
%ADD14R,1.699260X1.699260*%
%TD*%
%TA.AperFunction,ComponentPad*%
%ADD15R,3.000000X3.000000*%
%TD*%
%TA.AperFunction,ComponentPad*%
%ADD16C,3.000000*%
%TD*%
%TA.AperFunction,ComponentPad*%
%ADD17C,1.400000*%
%TD*%
%TA.AperFunction,ComponentPad*%
%ADD18O,1.400000X1.400000*%
%TD*%
%TA.AperFunction,ComponentPad*%
%ADD19O,1.600000X1.600000*%
%TD*%
%TA.AperFunction,Conductor*%
%ADD20C,1.000000*%
%TD*%
%TA.AperFunction,Conductor*%
%ADD21C,0.250000*%
%TD*%
%TA.AperFunction,NonConductor*%
%ADD22C,0.254000*%
%TD*%
G04 APERTURE END LIST*
D10*
X151652857Y-111168571D02*
X151652857Y-109668571D01*
X151081428Y-109668571D01*
X150938571Y-109740000D01*
X150867142Y-109811428D01*
X150795714Y-109954285D01*
X150795714Y-110168571D01*
X150867142Y-110311428D01*
X150938571Y-110382857D01*
X151081428Y-110454285D01*
X151652857Y-110454285D01*
X149867142Y-109668571D02*
X149581428Y-109668571D01*
X149438571Y-109740000D01*
X149295714Y-109882857D01*
X149224285Y-110168571D01*
X149224285Y-110668571D01*
X149295714Y-110954285D01*
X149438571Y-111097142D01*
X149581428Y-111168571D01*
X149867142Y-111168571D01*
X150010000Y-111097142D01*
X150152857Y-110954285D01*
X150224285Y-110668571D01*
X150224285Y-110168571D01*
X150152857Y-109882857D01*
X150010000Y-109740000D01*
X149867142Y-109668571D01*
X148724285Y-109668571D02*
X148367142Y-111168571D01*
X148081428Y-110097142D01*
X147795714Y-111168571D01*
X147438571Y-109668571D01*
X146867142Y-110382857D02*
X146367142Y-110382857D01*
X146152857Y-111168571D02*
X146867142Y-111168571D01*
X146867142Y-109668571D01*
X146152857Y-109668571D01*
X144652857Y-111168571D02*
X145152857Y-110454285D01*
X145510000Y-111168571D02*
X145510000Y-109668571D01*
X144938571Y-109668571D01*
X144795714Y-109740000D01*
X144724285Y-109811428D01*
X144652857Y-109954285D01*
X144652857Y-110168571D01*
X144724285Y-110311428D01*
X144795714Y-110382857D01*
X144938571Y-110454285D01*
X145510000Y-110454285D01*
X144224285Y-110168571D02*
X143652857Y-110168571D01*
X144010000Y-109668571D02*
X144010000Y-110954285D01*
X143938571Y-111097142D01*
X143795714Y-111168571D01*
X143652857Y-111168571D01*
X143152857Y-111168571D02*
X143152857Y-110168571D01*
X143152857Y-110454285D02*
X143081428Y-110311428D01*
X143010000Y-110240000D01*
X142867142Y-110168571D01*
X142724285Y-110168571D01*
X142010000Y-111168571D02*
X142152857Y-111097142D01*
X142224285Y-111025714D01*
X142295714Y-110882857D01*
X142295714Y-110454285D01*
X142224285Y-110311428D01*
X142152857Y-110240000D01*
X142010000Y-110168571D01*
X141795714Y-110168571D01*
X141652857Y-110240000D01*
X141581428Y-110311428D01*
X141510000Y-110454285D01*
X141510000Y-110882857D01*
X141581428Y-111025714D01*
X141652857Y-111097142D01*
X141795714Y-111168571D01*
X142010000Y-111168571D01*
X140867142Y-110168571D02*
X140867142Y-111168571D01*
X140867142Y-110311428D02*
X140795714Y-110240000D01*
X140652857Y-110168571D01*
X140438571Y-110168571D01*
X140295714Y-110240000D01*
X140224285Y-110382857D01*
X140224285Y-111168571D01*
X139510000Y-111168571D02*
X139510000Y-110168571D01*
X139510000Y-109668571D02*
X139581428Y-109740000D01*
X139510000Y-109811428D01*
X139438571Y-109740000D01*
X139510000Y-109668571D01*
X139510000Y-109811428D01*
X138867142Y-111097142D02*
X138724285Y-111168571D01*
X138438571Y-111168571D01*
X138295714Y-111097142D01*
X138224285Y-110954285D01*
X138224285Y-110882857D01*
X138295714Y-110740000D01*
X138438571Y-110668571D01*
X138652857Y-110668571D01*
X138795714Y-110597142D01*
X138867142Y-110454285D01*
X138867142Y-110382857D01*
X138795714Y-110240000D01*
X138652857Y-110168571D01*
X138438571Y-110168571D01*
X138295714Y-110240000D01*
X136652857Y-110454285D02*
X136724285Y-110382857D01*
X136867142Y-110311428D01*
X137010000Y-110311428D01*
X137152857Y-110382857D01*
X137224285Y-110454285D01*
X137295714Y-110597142D01*
X137295714Y-110740000D01*
X137224285Y-110882857D01*
X137152857Y-110954285D01*
X137010000Y-111025714D01*
X136867142Y-111025714D01*
X136724285Y-110954285D01*
X136652857Y-110882857D01*
X136652857Y-110311428D02*
X136652857Y-110882857D01*
X136581428Y-110954285D01*
X136510000Y-110954285D01*
X136367142Y-110882857D01*
X136295714Y-110740000D01*
X136295714Y-110382857D01*
X136438571Y-110168571D01*
X136652857Y-110025714D01*
X136938571Y-109954285D01*
X137224285Y-110025714D01*
X137438571Y-110168571D01*
X137581428Y-110382857D01*
X137652857Y-110668571D01*
X137581428Y-110954285D01*
X137438571Y-111168571D01*
X137224285Y-111311428D01*
X136938571Y-111382857D01*
X136652857Y-111311428D01*
X136438571Y-111168571D01*
X135795714Y-111740000D02*
X135724285Y-111668571D01*
X135581428Y-111454285D01*
X135510000Y-111311428D01*
X135438571Y-111097142D01*
X135367142Y-110740000D01*
X135367142Y-110454285D01*
X135438571Y-110097142D01*
X135510000Y-109882857D01*
X135581428Y-109740000D01*
X135724285Y-109525714D01*
X135795714Y-109454285D01*
D11*
%TO.P,C1,1*%
%TO.N,Net-(C1-Pad1)*%
X129540000Y-86360000D03*
D12*
%TO.P,C1,2*%
%TO.N,GND*%
X131540000Y-86360000D03*
%TD*%
%TO.P,C2,2*%
%TO.N,GND*%
X131445000Y-92075000D03*
%TO.P,C2,1*%
%TO.N,Net-(C2-Pad1)*%
X128945000Y-92075000D03*
%TD*%
D13*
%TO.P,LED,2*%
%TO.N,Net-(D1-Pad2)*%
X147952460Y-93979480D03*
D14*
%TO.P,LED,1*%
%TO.N,GND*%
X147952460Y-104139480D03*
%TD*%
D15*
%TO.P,GND1,1*%
%TO.N,Net-(C2-Pad1)*%
X128905000Y-96520000D03*
D16*
%TO.P,GND1,2*%
%TO.N,GND*%
X128905000Y-101600000D03*
%TD*%
%TO.P,OUT,2*%
%TO.N,GND*%
X157480000Y-92075000D03*
D15*
%TO.P,OUT,1*%
%TO.N,Net-(D1-Pad2)*%
X157480000Y-97155000D03*
%TD*%
D17*
%TO.P,R1,1*%
%TO.N,VCC*%
X136230001Y-99970001D03*
D18*
%TO.P,R1,2*%
%TO.N,Net-(R1-Pad2)*%
X143850001Y-99970001D03*
%TD*%
%TO.P,R2,2*%
%TO.N,Net-(C1-Pad1)*%
X143850001Y-103120001D03*
D17*
%TO.P,R2,1*%
%TO.N,Net-(R1-Pad2)*%
X136230001Y-103120001D03*
%TD*%
%TO.P,R3,1*%
%TO.N,Net-(D1-Pad2)*%
X147955000Y-91440000D03*
D18*
%TO.P,R3,2*%
%TO.N,Net-(R3-Pad2)*%
X147955000Y-83820000D03*
%TD*%
D11*
%TO.P,U1,1*%
%TO.N,GND*%
X136380001Y-88720001D03*
D19*
%TO.P,U1,5*%
%TO.N,Net-(C2-Pad1)*%
X144000001Y-96340001D03*
%TO.P,U1,2*%
%TO.N,Net-(C1-Pad1)*%
X136380001Y-91260001D03*
%TO.P,U1,6*%
X144000001Y-93800001D03*
%TO.P,U1,3*%
%TO.N,Net-(R3-Pad2)*%
X136380001Y-93800001D03*
%TO.P,U1,7*%
%TO.N,Net-(R1-Pad2)*%
X144000001Y-91260001D03*
%TO.P,U1,4*%
%TO.N,VCC*%
X136380001Y-96340001D03*
%TO.P,U1,8*%
X144000001Y-88720001D03*
%TD*%
D15*
%TO.P,VCC,1*%
%TO.N,VCC*%
X142875000Y-81280000D03*
D16*
%TO.P,VCC,2*%
%TO.N,GND*%
X137795000Y-81280000D03*
%TD*%
D20*
%TO.N,Net-(C1-Pad1)*%
X136380001Y-91260001D02*
X133985000Y-93655002D01*
X133985000Y-93655002D02*
X133985000Y-100965000D01*
X142450000Y-101720000D02*
X143850001Y-103120001D01*
X134740000Y-101720000D02*
X142450000Y-101720000D01*
X133985000Y-100965000D02*
X134740000Y-101720000D01*
X135248631Y-91260001D02*
X133523630Y-89535000D01*
X136380001Y-91260001D02*
X135248631Y-91260001D01*
X133523630Y-89535000D02*
X130810000Y-89535000D01*
X129540000Y-88265000D02*
X129540000Y-86360000D01*
X130810000Y-89535000D02*
X129540000Y-88265000D01*
X143850001Y-103120001D02*
X140970000Y-100240000D01*
X140970000Y-100240000D02*
X140970000Y-95250000D01*
X142419999Y-93800001D02*
X144000001Y-93800001D01*
X140970000Y-95250000D02*
X142419999Y-93800001D01*
%TO.N,GND*%
X136380001Y-82694999D02*
X137795000Y-81280000D01*
X136380001Y-88720001D02*
X136380001Y-82694999D01*
X136380001Y-88720001D02*
X135710001Y-88720001D01*
X133350000Y-86360000D02*
X131540000Y-86360000D01*
X135710001Y-88720001D02*
X133350000Y-86360000D01*
X128905000Y-101600000D02*
X133985000Y-106680000D01*
X133985000Y-106680000D02*
X147320000Y-106680000D01*
X147952460Y-106047540D02*
X147952460Y-104139480D01*
X147320000Y-106680000D02*
X147952460Y-106047540D01*
X147952460Y-104139480D02*
X157480520Y-104139480D01*
X157480520Y-104139480D02*
X161925000Y-99695000D01*
X161925000Y-99695000D02*
X161925000Y-92710000D01*
X161290000Y-92075000D02*
X157480000Y-92075000D01*
X161925000Y-92710000D02*
X161290000Y-92075000D01*
X128905000Y-101600000D02*
X130810000Y-101600000D01*
X131445000Y-100965000D02*
X131445000Y-92075000D01*
X130810000Y-101600000D02*
X131445000Y-100965000D01*
X135890000Y-79375000D02*
X137795000Y-81280000D01*
X129540000Y-79375000D02*
X135890000Y-79375000D01*
X126365000Y-82550000D02*
X129540000Y-79375000D01*
X131445000Y-92075000D02*
X126365000Y-86995000D01*
X126365000Y-86995000D02*
X126365000Y-82550000D01*
%TO.N,Net-(C2-Pad1)*%
X128945000Y-96480000D02*
X128905000Y-96520000D01*
X128945000Y-92075000D02*
X128945000Y-96480000D01*
X144000001Y-96340001D02*
X144959999Y-96340001D01*
X146240010Y-95059990D02*
X146240010Y-88455010D01*
X144959999Y-96340001D02*
X146240010Y-95059990D01*
X146240010Y-88455010D02*
X147700020Y-86995000D01*
X147700020Y-86995000D02*
X161290000Y-86995000D01*
X163125010Y-88830010D02*
X163125010Y-101669990D01*
X161290000Y-86995000D02*
X163125010Y-88830010D01*
X163125010Y-101669990D02*
X156845000Y-107950000D01*
X156845000Y-107950000D02*
X132080000Y-107950000D01*
X132080000Y-107950000D02*
X125730000Y-101600000D01*
X125730000Y-101600000D02*
X125730000Y-97790000D01*
X127000000Y-96520000D02*
X128905000Y-96520000D01*
X125730000Y-97790000D02*
X127000000Y-96520000D01*
%TO.N,Net-(D1-Pad2)*%
X147952460Y-91442540D02*
X147955000Y-91440000D01*
X147952460Y-93979480D02*
X147952460Y-91442540D01*
X157480000Y-97155000D02*
X148590000Y-97155000D01*
X147952460Y-96517460D02*
X147952460Y-93979480D01*
X148590000Y-97155000D02*
X147952460Y-96517460D01*
%TO.N,VCC*%
X144000001Y-82405001D02*
X142875000Y-81280000D01*
X144000001Y-88720001D02*
X144000001Y-82405001D01*
X136230001Y-96490001D02*
X136380001Y-96340001D01*
X136230001Y-99970001D02*
X136230001Y-96490001D01*
X136380001Y-96340001D02*
X140010002Y-92710000D01*
X140010002Y-92710000D02*
X140010002Y-90494998D01*
X141784999Y-88720001D02*
X144000001Y-88720001D01*
X140010002Y-90494998D02*
X141784999Y-88720001D01*
%TO.N,Net-(R1-Pad2)*%
X136230001Y-103120001D02*
X136230001Y-104480001D01*
X136230001Y-104480001D02*
X137160000Y-105410000D01*
X137160000Y-105410000D02*
X145415000Y-105410000D01*
X145415000Y-105410000D02*
X146050000Y-104775000D01*
X146050000Y-104775000D02*
X146050000Y-100965000D01*
X145055001Y-99970001D02*
X143850001Y-99970001D01*
X146050000Y-100965000D02*
X145055001Y-99970001D01*
D21*
X143749998Y-94925002D02*
X144778590Y-94925002D01*
X143850001Y-99970001D02*
X141795010Y-97915010D01*
X141795010Y-96879990D02*
X143749998Y-94925002D01*
X141795010Y-97915010D02*
X141795010Y-96879990D01*
X144778590Y-94925002D02*
X145415000Y-94288592D01*
X145415000Y-92675000D02*
X144000001Y-91260001D01*
X145415000Y-94288592D02*
X145415000Y-92675000D01*
D20*
%TO.N,Net-(R3-Pad2)*%
X137880002Y-92300000D02*
X137880002Y-90719998D01*
X136380001Y-93800001D02*
X137880002Y-92300000D01*
X139995001Y-88604999D02*
X139995001Y-79079999D01*
X137880002Y-90719998D02*
X139995001Y-88604999D01*
X139995001Y-79079999D02*
X140970000Y-78105000D01*
X140970000Y-78105000D02*
X146050000Y-78105000D01*
X147955000Y-80010000D02*
X147955000Y-83820000D01*
X146050000Y-78105000D02*
X147955000Y-80010000D01*
%TD*%
D22*
G36*
X168250000Y-112370000D02*
G01*
X152795000Y-112370000D01*
X152795000Y-109085000D01*
X156789249Y-109085000D01*
X156845000Y-109090491D01*
X156900751Y-109085000D01*
X156900752Y-109085000D01*
X157067499Y-109068577D01*
X157131649Y-109049117D01*
X163365000Y-109049117D01*
X163365000Y-109390883D01*
X163431675Y-109726081D01*
X163562463Y-110041831D01*
X163752337Y-110325998D01*
X163994002Y-110567663D01*
X164278169Y-110757537D01*
X164593919Y-110888325D01*
X164929117Y-110955000D01*
X165270883Y-110955000D01*
X165606081Y-110888325D01*
X165921831Y-110757537D01*
X166205998Y-110567663D01*
X166447663Y-110325998D01*
X166637537Y-110041831D01*
X166768325Y-109726081D01*
X166835000Y-109390883D01*
X166835000Y-109049117D01*
X166768325Y-108713919D01*
X166637537Y-108398169D01*
X166447663Y-108114002D01*
X166205998Y-107872337D01*
X165921831Y-107682463D01*
X165606081Y-107551675D01*
X165270883Y-107485000D01*
X164929117Y-107485000D01*
X164593919Y-107551675D01*
X164278169Y-107682463D01*
X163994002Y-107872337D01*
X163752337Y-108114002D01*
X163562463Y-108398169D01*
X163431675Y-108713919D01*
X163365000Y-109049117D01*
X157131649Y-109049117D01*
X157281447Y-109003676D01*
X157478623Y-108898284D01*
X157651449Y-108756449D01*
X157686996Y-108713135D01*
X163888151Y-102511981D01*
X163931459Y-102476439D01*
X164073294Y-102303613D01*
X164178686Y-102106437D01*
X164243587Y-101892489D01*
X164260010Y-101725742D01*
X164260010Y-101725733D01*
X164265500Y-101669991D01*
X164260010Y-101614249D01*
X164260010Y-88885761D01*
X164265501Y-88830009D01*
X164243587Y-88607511D01*
X164178686Y-88393563D01*
X164139767Y-88320751D01*
X164073294Y-88196387D01*
X163931459Y-88023561D01*
X163888150Y-87988019D01*
X162131996Y-86231865D01*
X162096449Y-86188551D01*
X161923623Y-86046716D01*
X161726447Y-85941324D01*
X161512499Y-85876423D01*
X161345752Y-85860000D01*
X161345751Y-85860000D01*
X161290000Y-85854509D01*
X161234249Y-85860000D01*
X147755771Y-85860000D01*
X147700020Y-85854509D01*
X147644268Y-85860000D01*
X147477521Y-85876423D01*
X147263573Y-85941324D01*
X147066397Y-86046716D01*
X146893571Y-86188551D01*
X146858028Y-86231860D01*
X145476870Y-87613019D01*
X145433562Y-87648561D01*
X145291727Y-87821387D01*
X145242464Y-87913552D01*
X145217818Y-87959662D01*
X145135001Y-87835717D01*
X145135001Y-82460753D01*
X145140492Y-82405001D01*
X145118578Y-82182502D01*
X145053677Y-81968554D01*
X145013072Y-81892587D01*
X145013072Y-79780000D01*
X145000812Y-79655518D01*
X144964502Y-79535820D01*
X144905537Y-79425506D01*
X144826185Y-79328815D01*
X144729494Y-79249463D01*
X144711790Y-79240000D01*
X145579869Y-79240000D01*
X146820000Y-80480132D01*
X146820001Y-83115711D01*
X146771939Y-83187641D01*
X146671304Y-83430595D01*
X146620000Y-83688514D01*
X146620000Y-83951486D01*
X146671304Y-84209405D01*
X146771939Y-84452359D01*
X146918038Y-84671013D01*
X147103987Y-84856962D01*
X147322641Y-85003061D01*
X147565595Y-85103696D01*
X147823514Y-85155000D01*
X148086486Y-85155000D01*
X148344405Y-85103696D01*
X148587359Y-85003061D01*
X148806013Y-84856962D01*
X148991962Y-84671013D01*
X149138061Y-84452359D01*
X149238696Y-84209405D01*
X149290000Y-83951486D01*
X149290000Y-83688514D01*
X149238696Y-83430595D01*
X149138061Y-83187641D01*
X149090000Y-83115712D01*
X149090000Y-80065752D01*
X149095491Y-80010000D01*
X149073577Y-79787501D01*
X149008676Y-79573553D01*
X148903284Y-79376377D01*
X148799128Y-79249463D01*
X148761449Y-79203551D01*
X148718141Y-79168009D01*
X146891996Y-77341865D01*
X146856914Y-77299117D01*
X163365000Y-77299117D01*
X163365000Y-77640883D01*
X163431675Y-77976081D01*
X163562463Y-78291831D01*
X163752337Y-78575998D01*
X163994002Y-78817663D01*
X164278169Y-79007537D01*
X164593919Y-79138325D01*
X164929117Y-79205000D01*
X165270883Y-79205000D01*
X165606081Y-79138325D01*
X165921831Y-79007537D01*
X166205998Y-78817663D01*
X166447663Y-78575998D01*
X166637537Y-78291831D01*
X166768325Y-77976081D01*
X166835000Y-77640883D01*
X166835000Y-77299117D01*
X166768325Y-76963919D01*
X166637537Y-76648169D01*
X166447663Y-76364002D01*
X166205998Y-76122337D01*
X165921831Y-75932463D01*
X165606081Y-75801675D01*
X165270883Y-75735000D01*
X164929117Y-75735000D01*
X164593919Y-75801675D01*
X164278169Y-75932463D01*
X163994002Y-76122337D01*
X163752337Y-76364002D01*
X163562463Y-76648169D01*
X163431675Y-76963919D01*
X163365000Y-77299117D01*
X146856914Y-77299117D01*
X146856449Y-77298551D01*
X146683623Y-77156716D01*
X146486447Y-77051324D01*
X146272499Y-76986423D01*
X146105752Y-76970000D01*
X146105751Y-76970000D01*
X146050000Y-76964509D01*
X145994249Y-76970000D01*
X141025752Y-76970000D01*
X140970000Y-76964509D01*
X140914248Y-76970000D01*
X140747501Y-76986423D01*
X140533553Y-77051324D01*
X140336377Y-77156716D01*
X140163551Y-77298551D01*
X140128008Y-77341860D01*
X139231861Y-78238008D01*
X139188553Y-78273550D01*
X139046718Y-78446376D01*
X138995902Y-78541446D01*
X138941325Y-78643553D01*
X138876424Y-78857501D01*
X138854510Y-79079999D01*
X138860002Y-79135760D01*
X138860002Y-79423869D01*
X138806302Y-79387988D01*
X138417756Y-79227047D01*
X138005279Y-79145000D01*
X137584721Y-79145000D01*
X137318155Y-79198023D01*
X136731996Y-78611865D01*
X136696449Y-78568551D01*
X136523623Y-78426716D01*
X136326447Y-78321324D01*
X136112499Y-78256423D01*
X135945752Y-78240000D01*
X135945751Y-78240000D01*
X135890000Y-78234509D01*
X135834249Y-78240000D01*
X129595751Y-78240000D01*
X129539999Y-78234509D01*
X129484248Y-78240000D01*
X129317501Y-78256423D01*
X129103553Y-78321324D01*
X128906377Y-78426716D01*
X128733551Y-78568551D01*
X128698009Y-78611859D01*
X125601860Y-81708009D01*
X125558552Y-81743551D01*
X125416717Y-81916377D01*
X125388828Y-81968554D01*
X125311324Y-82113554D01*
X125246423Y-82327502D01*
X125224509Y-82550000D01*
X125230001Y-82605761D01*
X125230000Y-86939248D01*
X125224509Y-86995000D01*
X125230000Y-87050751D01*
X125246423Y-87217498D01*
X125311324Y-87431446D01*
X125416716Y-87628623D01*
X125558551Y-87801449D01*
X125601865Y-87836996D01*
X128479467Y-90714598D01*
X128265273Y-90803320D01*
X128030241Y-90960363D01*
X127830363Y-91160241D01*
X127673320Y-91395273D01*
X127565147Y-91656426D01*
X127510000Y-91933665D01*
X127510000Y-92216335D01*
X127565147Y-92493574D01*
X127673320Y-92754727D01*
X127810000Y-92959284D01*
X127810001Y-94381928D01*
X127405000Y-94381928D01*
X127280518Y-94394188D01*
X127160820Y-94430498D01*
X127050506Y-94489463D01*
X126953815Y-94568815D01*
X126874463Y-94665506D01*
X126815498Y-94775820D01*
X126779188Y-94895518D01*
X126766928Y-95020000D01*
X126766928Y-95404630D01*
X126727705Y-95416529D01*
X126563553Y-95466324D01*
X126366377Y-95571716D01*
X126193551Y-95713551D01*
X126158011Y-95756857D01*
X124966860Y-96948009D01*
X124923552Y-96983551D01*
X124781717Y-97156377D01*
X124753342Y-97209464D01*
X124676324Y-97353554D01*
X124611423Y-97567502D01*
X124589509Y-97790000D01*
X124595001Y-97845761D01*
X124595000Y-101544248D01*
X124589509Y-101600000D01*
X124601328Y-101719999D01*
X124611423Y-101822498D01*
X124676324Y-102036446D01*
X124781716Y-102233623D01*
X124923551Y-102406449D01*
X124966865Y-102441996D01*
X131238009Y-108713141D01*
X131273551Y-108756449D01*
X131446377Y-108898284D01*
X131643553Y-109003676D01*
X131793351Y-109049117D01*
X131857500Y-109068577D01*
X132079999Y-109090491D01*
X132135751Y-109085000D01*
X134225000Y-109085000D01*
X134225000Y-112370000D01*
X118770000Y-112370000D01*
X118770000Y-109049117D01*
X120185000Y-109049117D01*
X120185000Y-109390883D01*
X120251675Y-109726081D01*
X120382463Y-110041831D01*
X120572337Y-110325998D01*
X120814002Y-110567663D01*
X121098169Y-110757537D01*
X121413919Y-110888325D01*
X121749117Y-110955000D01*
X122090883Y-110955000D01*
X122426081Y-110888325D01*
X122741831Y-110757537D01*
X123025998Y-110567663D01*
X123267663Y-110325998D01*
X123457537Y-110041831D01*
X123588325Y-109726081D01*
X123655000Y-109390883D01*
X123655000Y-109049117D01*
X123588325Y-108713919D01*
X123457537Y-108398169D01*
X123267663Y-108114002D01*
X123025998Y-107872337D01*
X122741831Y-107682463D01*
X122426081Y-107551675D01*
X122090883Y-107485000D01*
X121749117Y-107485000D01*
X121413919Y-107551675D01*
X121098169Y-107682463D01*
X120814002Y-107872337D01*
X120572337Y-108114002D01*
X120382463Y-108398169D01*
X120251675Y-108713919D01*
X120185000Y-109049117D01*
X118770000Y-109049117D01*
X118770000Y-77299117D01*
X120185000Y-77299117D01*
X120185000Y-77640883D01*
X120251675Y-77976081D01*
X120382463Y-78291831D01*
X120572337Y-78575998D01*
X120814002Y-78817663D01*
X121098169Y-79007537D01*
X121413919Y-79138325D01*
X121749117Y-79205000D01*
X122090883Y-79205000D01*
X122426081Y-79138325D01*
X122741831Y-79007537D01*
X123025998Y-78817663D01*
X123267663Y-78575998D01*
X123457537Y-78291831D01*
X123588325Y-77976081D01*
X123655000Y-77640883D01*
X123655000Y-77299117D01*
X123588325Y-76963919D01*
X123457537Y-76648169D01*
X123267663Y-76364002D01*
X123025998Y-76122337D01*
X122741831Y-75932463D01*
X122426081Y-75801675D01*
X122090883Y-75735000D01*
X121749117Y-75735000D01*
X121413919Y-75801675D01*
X121098169Y-75932463D01*
X120814002Y-76122337D01*
X120572337Y-76364002D01*
X120382463Y-76648169D01*
X120251675Y-76963919D01*
X120185000Y-77299117D01*
X118770000Y-77299117D01*
X118770000Y-74320000D01*
X168250001Y-74320000D01*
X168250000Y-112370000D01*
G37*
X168250000Y-112370000D02*
X152795000Y-112370000D01*
X152795000Y-109085000D01*
X156789249Y-109085000D01*
X156845000Y-109090491D01*
X156900751Y-109085000D01*
X156900752Y-109085000D01*
X157067499Y-109068577D01*
X157131649Y-109049117D01*
X163365000Y-109049117D01*
X163365000Y-109390883D01*
X163431675Y-109726081D01*
X163562463Y-110041831D01*
X163752337Y-110325998D01*
X163994002Y-110567663D01*
X164278169Y-110757537D01*
X164593919Y-110888325D01*
X164929117Y-110955000D01*
X165270883Y-110955000D01*
X165606081Y-110888325D01*
X165921831Y-110757537D01*
X166205998Y-110567663D01*
X166447663Y-110325998D01*
X166637537Y-110041831D01*
X166768325Y-109726081D01*
X166835000Y-109390883D01*
X166835000Y-109049117D01*
X166768325Y-108713919D01*
X166637537Y-108398169D01*
X166447663Y-108114002D01*
X166205998Y-107872337D01*
X165921831Y-107682463D01*
X165606081Y-107551675D01*
X165270883Y-107485000D01*
X164929117Y-107485000D01*
X164593919Y-107551675D01*
X164278169Y-107682463D01*
X163994002Y-107872337D01*
X163752337Y-108114002D01*
X163562463Y-108398169D01*
X163431675Y-108713919D01*
X163365000Y-109049117D01*
X157131649Y-109049117D01*
X157281447Y-109003676D01*
X157478623Y-108898284D01*
X157651449Y-108756449D01*
X157686996Y-108713135D01*
X163888151Y-102511981D01*
X163931459Y-102476439D01*
X164073294Y-102303613D01*
X164178686Y-102106437D01*
X164243587Y-101892489D01*
X164260010Y-101725742D01*
X164260010Y-101725733D01*
X164265500Y-101669991D01*
X164260010Y-101614249D01*
X164260010Y-88885761D01*
X164265501Y-88830009D01*
X164243587Y-88607511D01*
X164178686Y-88393563D01*
X164139767Y-88320751D01*
X164073294Y-88196387D01*
X163931459Y-88023561D01*
X163888150Y-87988019D01*
X162131996Y-86231865D01*
X162096449Y-86188551D01*
X161923623Y-86046716D01*
X161726447Y-85941324D01*
X161512499Y-85876423D01*
X161345752Y-85860000D01*
X161345751Y-85860000D01*
X161290000Y-85854509D01*
X161234249Y-85860000D01*
X147755771Y-85860000D01*
X147700020Y-85854509D01*
X147644268Y-85860000D01*
X147477521Y-85876423D01*
X147263573Y-85941324D01*
X147066397Y-86046716D01*
X146893571Y-86188551D01*
X146858028Y-86231860D01*
X145476870Y-87613019D01*
X145433562Y-87648561D01*
X145291727Y-87821387D01*
X145242464Y-87913552D01*
X145217818Y-87959662D01*
X145135001Y-87835717D01*
X145135001Y-82460753D01*
X145140492Y-82405001D01*
X145118578Y-82182502D01*
X145053677Y-81968554D01*
X145013072Y-81892587D01*
X145013072Y-79780000D01*
X145000812Y-79655518D01*
X144964502Y-79535820D01*
X144905537Y-79425506D01*
X144826185Y-79328815D01*
X144729494Y-79249463D01*
X144711790Y-79240000D01*
X145579869Y-79240000D01*
X146820000Y-80480132D01*
X146820001Y-83115711D01*
X146771939Y-83187641D01*
X146671304Y-83430595D01*
X146620000Y-83688514D01*
X146620000Y-83951486D01*
X146671304Y-84209405D01*
X146771939Y-84452359D01*
X146918038Y-84671013D01*
X147103987Y-84856962D01*
X147322641Y-85003061D01*
X147565595Y-85103696D01*
X147823514Y-85155000D01*
X148086486Y-85155000D01*
X148344405Y-85103696D01*
X148587359Y-85003061D01*
X148806013Y-84856962D01*
X148991962Y-84671013D01*
X149138061Y-84452359D01*
X149238696Y-84209405D01*
X149290000Y-83951486D01*
X149290000Y-83688514D01*
X149238696Y-83430595D01*
X149138061Y-83187641D01*
X149090000Y-83115712D01*
X149090000Y-80065752D01*
X149095491Y-80010000D01*
X149073577Y-79787501D01*
X149008676Y-79573553D01*
X148903284Y-79376377D01*
X148799128Y-79249463D01*
X148761449Y-79203551D01*
X148718141Y-79168009D01*
X146891996Y-77341865D01*
X146856914Y-77299117D01*
X163365000Y-77299117D01*
X163365000Y-77640883D01*
X163431675Y-77976081D01*
X163562463Y-78291831D01*
X163752337Y-78575998D01*
X163994002Y-78817663D01*
X164278169Y-79007537D01*
X164593919Y-79138325D01*
X164929117Y-79205000D01*
X165270883Y-79205000D01*
X165606081Y-79138325D01*
X165921831Y-79007537D01*
X166205998Y-78817663D01*
X166447663Y-78575998D01*
X166637537Y-78291831D01*
X166768325Y-77976081D01*
X166835000Y-77640883D01*
X166835000Y-77299117D01*
X166768325Y-76963919D01*
X166637537Y-76648169D01*
X166447663Y-76364002D01*
X166205998Y-76122337D01*
X165921831Y-75932463D01*
X165606081Y-75801675D01*
X165270883Y-75735000D01*
X164929117Y-75735000D01*
X164593919Y-75801675D01*
X164278169Y-75932463D01*
X163994002Y-76122337D01*
X163752337Y-76364002D01*
X163562463Y-76648169D01*
X163431675Y-76963919D01*
X163365000Y-77299117D01*
X146856914Y-77299117D01*
X146856449Y-77298551D01*
X146683623Y-77156716D01*
X146486447Y-77051324D01*
X146272499Y-76986423D01*
X146105752Y-76970000D01*
X146105751Y-76970000D01*
X146050000Y-76964509D01*
X145994249Y-76970000D01*
X141025752Y-76970000D01*
X140970000Y-76964509D01*
X140914248Y-76970000D01*
X140747501Y-76986423D01*
X140533553Y-77051324D01*
X140336377Y-77156716D01*
X140163551Y-77298551D01*
X140128008Y-77341860D01*
X139231861Y-78238008D01*
X139188553Y-78273550D01*
X139046718Y-78446376D01*
X138995902Y-78541446D01*
X138941325Y-78643553D01*
X138876424Y-78857501D01*
X138854510Y-79079999D01*
X138860002Y-79135760D01*
X138860002Y-79423869D01*
X138806302Y-79387988D01*
X138417756Y-79227047D01*
X138005279Y-79145000D01*
X137584721Y-79145000D01*
X137318155Y-79198023D01*
X136731996Y-78611865D01*
X136696449Y-78568551D01*
X136523623Y-78426716D01*
X136326447Y-78321324D01*
X136112499Y-78256423D01*
X135945752Y-78240000D01*
X135945751Y-78240000D01*
X135890000Y-78234509D01*
X135834249Y-78240000D01*
X129595751Y-78240000D01*
X129539999Y-78234509D01*
X129484248Y-78240000D01*
X129317501Y-78256423D01*
X129103553Y-78321324D01*
X128906377Y-78426716D01*
X128733551Y-78568551D01*
X128698009Y-78611859D01*
X125601860Y-81708009D01*
X125558552Y-81743551D01*
X125416717Y-81916377D01*
X125388828Y-81968554D01*
X125311324Y-82113554D01*
X125246423Y-82327502D01*
X125224509Y-82550000D01*
X125230001Y-82605761D01*
X125230000Y-86939248D01*
X125224509Y-86995000D01*
X125230000Y-87050751D01*
X125246423Y-87217498D01*
X125311324Y-87431446D01*
X125416716Y-87628623D01*
X125558551Y-87801449D01*
X125601865Y-87836996D01*
X128479467Y-90714598D01*
X128265273Y-90803320D01*
X128030241Y-90960363D01*
X127830363Y-91160241D01*
X127673320Y-91395273D01*
X127565147Y-91656426D01*
X127510000Y-91933665D01*
X127510000Y-92216335D01*
X127565147Y-92493574D01*
X127673320Y-92754727D01*
X127810000Y-92959284D01*
X127810001Y-94381928D01*
X127405000Y-94381928D01*
X127280518Y-94394188D01*
X127160820Y-94430498D01*
X127050506Y-94489463D01*
X126953815Y-94568815D01*
X126874463Y-94665506D01*
X126815498Y-94775820D01*
X126779188Y-94895518D01*
X126766928Y-95020000D01*
X126766928Y-95404630D01*
X126727705Y-95416529D01*
X126563553Y-95466324D01*
X126366377Y-95571716D01*
X126193551Y-95713551D01*
X126158011Y-95756857D01*
X124966860Y-96948009D01*
X124923552Y-96983551D01*
X124781717Y-97156377D01*
X124753342Y-97209464D01*
X124676324Y-97353554D01*
X124611423Y-97567502D01*
X124589509Y-97790000D01*
X124595001Y-97845761D01*
X124595000Y-101544248D01*
X124589509Y-101600000D01*
X124601328Y-101719999D01*
X124611423Y-101822498D01*
X124676324Y-102036446D01*
X124781716Y-102233623D01*
X124923551Y-102406449D01*
X124966865Y-102441996D01*
X131238009Y-108713141D01*
X131273551Y-108756449D01*
X131446377Y-108898284D01*
X131643553Y-109003676D01*
X131793351Y-109049117D01*
X131857500Y-109068577D01*
X132079999Y-109090491D01*
X132135751Y-109085000D01*
X134225000Y-109085000D01*
X134225000Y-112370000D01*
X118770000Y-112370000D01*
X118770000Y-109049117D01*
X120185000Y-109049117D01*
X120185000Y-109390883D01*
X120251675Y-109726081D01*
X120382463Y-110041831D01*
X120572337Y-110325998D01*
X120814002Y-110567663D01*
X121098169Y-110757537D01*
X121413919Y-110888325D01*
X121749117Y-110955000D01*
X122090883Y-110955000D01*
X122426081Y-110888325D01*
X122741831Y-110757537D01*
X123025998Y-110567663D01*
X123267663Y-110325998D01*
X123457537Y-110041831D01*
X123588325Y-109726081D01*
X123655000Y-109390883D01*
X123655000Y-109049117D01*
X123588325Y-108713919D01*
X123457537Y-108398169D01*
X123267663Y-108114002D01*
X123025998Y-107872337D01*
X122741831Y-107682463D01*
X122426081Y-107551675D01*
X122090883Y-107485000D01*
X121749117Y-107485000D01*
X121413919Y-107551675D01*
X121098169Y-107682463D01*
X120814002Y-107872337D01*
X120572337Y-108114002D01*
X120382463Y-108398169D01*
X120251675Y-108713919D01*
X120185000Y-109049117D01*
X118770000Y-109049117D01*
X118770000Y-77299117D01*
X120185000Y-77299117D01*
X120185000Y-77640883D01*
X120251675Y-77976081D01*
X120382463Y-78291831D01*
X120572337Y-78575998D01*
X120814002Y-78817663D01*
X121098169Y-79007537D01*
X121413919Y-79138325D01*
X121749117Y-79205000D01*
X122090883Y-79205000D01*
X122426081Y-79138325D01*
X122741831Y-79007537D01*
X123025998Y-78817663D01*
X123267663Y-78575998D01*
X123457537Y-78291831D01*
X123588325Y-77976081D01*
X123655000Y-77640883D01*
X123655000Y-77299117D01*
X123588325Y-76963919D01*
X123457537Y-76648169D01*
X123267663Y-76364002D01*
X123025998Y-76122337D01*
X122741831Y-75932463D01*
X122426081Y-75801675D01*
X122090883Y-75735000D01*
X121749117Y-75735000D01*
X121413919Y-75801675D01*
X121098169Y-75932463D01*
X120814002Y-76122337D01*
X120572337Y-76364002D01*
X120382463Y-76648169D01*
X120251675Y-76963919D01*
X120185000Y-77299117D01*
X118770000Y-77299117D01*
X118770000Y-74320000D01*
X168250001Y-74320000D01*
X168250000Y-112370000D01*
G36*
X156374869Y-106815000D02*
G01*
X148790907Y-106815000D01*
X148900744Y-106681163D01*
X149006136Y-106483987D01*
X149071037Y-106270039D01*
X149087460Y-106103292D01*
X149087460Y-106103291D01*
X149092951Y-106047540D01*
X149087460Y-105991788D01*
X149087460Y-105556595D01*
X149156584Y-105519647D01*
X149253275Y-105440295D01*
X149332627Y-105343604D01*
X149369575Y-105274480D01*
X157424769Y-105274480D01*
X157480520Y-105279971D01*
X157536271Y-105274480D01*
X157536272Y-105274480D01*
X157703019Y-105258057D01*
X157916967Y-105193156D01*
X158088282Y-105101587D01*
X156374869Y-106815000D01*
G37*
X156374869Y-106815000D02*
X148790907Y-106815000D01*
X148900744Y-106681163D01*
X149006136Y-106483987D01*
X149071037Y-106270039D01*
X149087460Y-106103292D01*
X149087460Y-106103291D01*
X149092951Y-106047540D01*
X149087460Y-105991788D01*
X149087460Y-105556595D01*
X149156584Y-105519647D01*
X149253275Y-105440295D01*
X149332627Y-105343604D01*
X149369575Y-105274480D01*
X157424769Y-105274480D01*
X157480520Y-105279971D01*
X157536271Y-105274480D01*
X157536272Y-105274480D01*
X157703019Y-105258057D01*
X157916967Y-105193156D01*
X158088282Y-105101587D01*
X156374869Y-106815000D01*
G36*
X134209184Y-91825686D02*
G01*
X133221865Y-92813006D01*
X133178551Y-92848553D01*
X133036716Y-93021379D01*
X132935897Y-93210000D01*
X132931324Y-93218556D01*
X132866423Y-93432504D01*
X132844509Y-93655002D01*
X132850000Y-93710754D01*
X132850001Y-100909239D01*
X132844509Y-100965000D01*
X132866423Y-101187498D01*
X132931324Y-101401446D01*
X132931325Y-101401447D01*
X133036717Y-101598623D01*
X133178552Y-101771449D01*
X133221860Y-101806991D01*
X133898004Y-102483135D01*
X133933551Y-102526449D01*
X134106377Y-102668284D01*
X134303553Y-102773676D01*
X134517501Y-102838577D01*
X134684248Y-102855000D01*
X134684257Y-102855000D01*
X134739999Y-102860490D01*
X134795741Y-102855000D01*
X134921559Y-102855000D01*
X134895001Y-102988515D01*
X134895001Y-103251487D01*
X134946305Y-103509406D01*
X135046940Y-103752360D01*
X135095001Y-103824289D01*
X135095001Y-104424250D01*
X135089510Y-104480001D01*
X135095001Y-104535752D01*
X135095001Y-104535753D01*
X135111424Y-104702500D01*
X135176325Y-104916448D01*
X135281718Y-105113624D01*
X135423553Y-105286450D01*
X135466861Y-105321992D01*
X135689869Y-105545000D01*
X134455132Y-105545000D01*
X131451748Y-102541616D01*
X131616449Y-102406449D01*
X131651995Y-102363136D01*
X132208140Y-101806992D01*
X132251449Y-101771449D01*
X132393284Y-101598623D01*
X132498676Y-101401447D01*
X132563577Y-101187499D01*
X132580000Y-101020752D01*
X132580000Y-101020751D01*
X132585491Y-100965000D01*
X132580000Y-100909248D01*
X132580000Y-92959284D01*
X132716680Y-92754727D01*
X132824853Y-92493574D01*
X132880000Y-92216335D01*
X132880000Y-91933665D01*
X132824853Y-91656426D01*
X132716680Y-91395273D01*
X132559637Y-91160241D01*
X132359759Y-90960363D01*
X132124727Y-90803320D01*
X131863574Y-90695147D01*
X131737153Y-90670000D01*
X133053499Y-90670000D01*
X134209184Y-91825686D01*
G37*
X134209184Y-91825686D02*
X133221865Y-92813006D01*
X133178551Y-92848553D01*
X133036716Y-93021379D01*
X132935897Y-93210000D01*
X132931324Y-93218556D01*
X132866423Y-93432504D01*
X132844509Y-93655002D01*
X132850000Y-93710754D01*
X132850001Y-100909239D01*
X132844509Y-100965000D01*
X132866423Y-101187498D01*
X132931324Y-101401446D01*
X132931325Y-101401447D01*
X133036717Y-101598623D01*
X133178552Y-101771449D01*
X133221860Y-101806991D01*
X133898004Y-102483135D01*
X133933551Y-102526449D01*
X134106377Y-102668284D01*
X134303553Y-102773676D01*
X134517501Y-102838577D01*
X134684248Y-102855000D01*
X134684257Y-102855000D01*
X134739999Y-102860490D01*
X134795741Y-102855000D01*
X134921559Y-102855000D01*
X134895001Y-102988515D01*
X134895001Y-103251487D01*
X134946305Y-103509406D01*
X135046940Y-103752360D01*
X135095001Y-103824289D01*
X135095001Y-104424250D01*
X135089510Y-104480001D01*
X135095001Y-104535752D01*
X135095001Y-104535753D01*
X135111424Y-104702500D01*
X135176325Y-104916448D01*
X135281718Y-105113624D01*
X135423553Y-105286450D01*
X135466861Y-105321992D01*
X135689869Y-105545000D01*
X134455132Y-105545000D01*
X131451748Y-102541616D01*
X131616449Y-102406449D01*
X131651995Y-102363136D01*
X132208140Y-101806992D01*
X132251449Y-101771449D01*
X132393284Y-101598623D01*
X132498676Y-101401447D01*
X132563577Y-101187499D01*
X132580000Y-101020752D01*
X132580000Y-101020751D01*
X132585491Y-100965000D01*
X132580000Y-100909248D01*
X132580000Y-92959284D01*
X132716680Y-92754727D01*
X132824853Y-92493574D01*
X132880000Y-92216335D01*
X132880000Y-91933665D01*
X132824853Y-91656426D01*
X132716680Y-91395273D01*
X132559637Y-91160241D01*
X132359759Y-90960363D01*
X132124727Y-90803320D01*
X131863574Y-90695147D01*
X131737153Y-90670000D01*
X133053499Y-90670000D01*
X134209184Y-91825686D01*
G36*
X144915000Y-104275000D02*
G01*
X144524358Y-104275000D01*
X144701014Y-104156963D01*
X144886963Y-103971014D01*
X144915000Y-103929053D01*
X144915000Y-104275000D01*
G37*
X144915000Y-104275000D02*
X144524358Y-104275000D01*
X144701014Y-104156963D01*
X144886963Y-103971014D01*
X144915000Y-103929053D01*
X144915000Y-104275000D01*
G36*
X142549428Y-103424560D02*
G01*
X142566305Y-103509406D01*
X142666940Y-103752360D01*
X142813039Y-103971014D01*
X142998988Y-104156963D01*
X143175644Y-104275000D01*
X137630132Y-104275000D01*
X137365001Y-104009870D01*
X137365001Y-103824289D01*
X137413062Y-103752360D01*
X137513697Y-103509406D01*
X137565001Y-103251487D01*
X137565001Y-102988515D01*
X137538443Y-102855000D01*
X141979868Y-102855000D01*
X142549428Y-103424560D01*
G37*
X142549428Y-103424560D02*
X142566305Y-103509406D01*
X142666940Y-103752360D01*
X142813039Y-103971014D01*
X142998988Y-104156963D01*
X143175644Y-104275000D01*
X137630132Y-104275000D01*
X137365001Y-104009870D01*
X137365001Y-103824289D01*
X137413062Y-103752360D01*
X137513697Y-103509406D01*
X137565001Y-103251487D01*
X137565001Y-102988515D01*
X137538443Y-102855000D01*
X141979868Y-102855000D01*
X142549428Y-103424560D01*
G36*
X161990010Y-89300142D02*
G01*
X161990010Y-91181199D01*
X161923623Y-91126716D01*
X161726447Y-91021324D01*
X161512499Y-90956423D01*
X161345752Y-90940000D01*
X161345751Y-90940000D01*
X161290000Y-90934509D01*
X161234249Y-90940000D01*
X159289360Y-90940000D01*
X159138363Y-90714017D01*
X158840983Y-90416637D01*
X158491302Y-90182988D01*
X158102756Y-90022047D01*
X157690279Y-89940000D01*
X157269721Y-89940000D01*
X156857244Y-90022047D01*
X156468698Y-90182988D01*
X156119017Y-90416637D01*
X155821637Y-90714017D01*
X155587988Y-91063698D01*
X155427047Y-91452244D01*
X155345000Y-91864721D01*
X155345000Y-92285279D01*
X155427047Y-92697756D01*
X155587988Y-93086302D01*
X155821637Y-93435983D01*
X156119017Y-93733363D01*
X156468698Y-93967012D01*
X156857244Y-94127953D01*
X157269721Y-94210000D01*
X157690279Y-94210000D01*
X158102756Y-94127953D01*
X158491302Y-93967012D01*
X158840983Y-93733363D01*
X159138363Y-93435983D01*
X159289360Y-93210000D01*
X160790001Y-93210000D01*
X160790000Y-99224868D01*
X157010389Y-103004480D01*
X149369575Y-103004480D01*
X149332627Y-102935356D01*
X149253275Y-102838665D01*
X149156584Y-102759313D01*
X149046270Y-102700348D01*
X148926572Y-102664038D01*
X148802090Y-102651778D01*
X147185000Y-102651778D01*
X147185000Y-101020751D01*
X147190491Y-100964999D01*
X147168577Y-100742501D01*
X147103676Y-100528553D01*
X147089189Y-100501449D01*
X146998284Y-100331377D01*
X146856449Y-100158551D01*
X146813140Y-100123008D01*
X145896997Y-99206865D01*
X145861450Y-99163552D01*
X145688624Y-99021717D01*
X145491448Y-98916325D01*
X145277500Y-98851424D01*
X145110753Y-98835001D01*
X145110752Y-98835001D01*
X145055001Y-98829510D01*
X144999250Y-98835001D01*
X144554289Y-98835001D01*
X144482360Y-98786940D01*
X144239406Y-98686305D01*
X143981487Y-98635001D01*
X143718515Y-98635001D01*
X143611158Y-98656356D01*
X142555010Y-97600209D01*
X142555010Y-97194791D01*
X142729023Y-97020778D01*
X142885364Y-97254760D01*
X143085242Y-97454638D01*
X143320274Y-97611681D01*
X143581427Y-97719854D01*
X143858666Y-97775001D01*
X144141336Y-97775001D01*
X144418575Y-97719854D01*
X144679728Y-97611681D01*
X144884285Y-97475001D01*
X144904248Y-97475001D01*
X144959999Y-97480492D01*
X145015750Y-97475001D01*
X145015751Y-97475001D01*
X145182498Y-97458578D01*
X145396446Y-97393677D01*
X145593622Y-97288285D01*
X145766448Y-97146450D01*
X145801995Y-97103136D01*
X146817460Y-96087672D01*
X146817460Y-96461708D01*
X146811969Y-96517460D01*
X146817460Y-96573211D01*
X146833883Y-96739958D01*
X146898784Y-96953906D01*
X147004176Y-97151083D01*
X147146011Y-97323909D01*
X147189324Y-97359455D01*
X147748008Y-97918140D01*
X147783551Y-97961449D01*
X147908505Y-98063996D01*
X147956377Y-98103284D01*
X148153553Y-98208676D01*
X148367501Y-98273577D01*
X148590000Y-98295491D01*
X148645752Y-98290000D01*
X155341928Y-98290000D01*
X155341928Y-98655000D01*
X155354188Y-98779482D01*
X155390498Y-98899180D01*
X155449463Y-99009494D01*
X155528815Y-99106185D01*
X155625506Y-99185537D01*
X155735820Y-99244502D01*
X155855518Y-99280812D01*
X155980000Y-99293072D01*
X158980000Y-99293072D01*
X159104482Y-99280812D01*
X159224180Y-99244502D01*
X159334494Y-99185537D01*
X159431185Y-99106185D01*
X159510537Y-99009494D01*
X159569502Y-98899180D01*
X159605812Y-98779482D01*
X159618072Y-98655000D01*
X159618072Y-95655000D01*
X159605812Y-95530518D01*
X159569502Y-95410820D01*
X159510537Y-95300506D01*
X159431185Y-95203815D01*
X159334494Y-95124463D01*
X159224180Y-95065498D01*
X159104482Y-95029188D01*
X158980000Y-95016928D01*
X155980000Y-95016928D01*
X155855518Y-95029188D01*
X155735820Y-95065498D01*
X155625506Y-95124463D01*
X155528815Y-95203815D01*
X155449463Y-95300506D01*
X155390498Y-95410820D01*
X155354188Y-95530518D01*
X155341928Y-95655000D01*
X155341928Y-96020000D01*
X149087460Y-96020000D01*
X149087460Y-94944063D01*
X149105647Y-94925876D01*
X149268122Y-94682716D01*
X149380036Y-94412530D01*
X149437090Y-94125703D01*
X149437090Y-93833257D01*
X149380036Y-93546430D01*
X149268122Y-93276244D01*
X149105647Y-93033084D01*
X149087460Y-93014897D01*
X149087460Y-92148089D01*
X149138061Y-92072359D01*
X149238696Y-91829405D01*
X149290000Y-91571486D01*
X149290000Y-91308514D01*
X149238696Y-91050595D01*
X149138061Y-90807641D01*
X148991962Y-90588987D01*
X148806013Y-90403038D01*
X148587359Y-90256939D01*
X148344405Y-90156304D01*
X148086486Y-90105000D01*
X147823514Y-90105000D01*
X147565595Y-90156304D01*
X147375010Y-90235247D01*
X147375010Y-88925141D01*
X148170152Y-88130000D01*
X160819869Y-88130000D01*
X161990010Y-89300142D01*
G37*
X161990010Y-89300142D02*
X161990010Y-91181199D01*
X161923623Y-91126716D01*
X161726447Y-91021324D01*
X161512499Y-90956423D01*
X161345752Y-90940000D01*
X161345751Y-90940000D01*
X161290000Y-90934509D01*
X161234249Y-90940000D01*
X159289360Y-90940000D01*
X159138363Y-90714017D01*
X158840983Y-90416637D01*
X158491302Y-90182988D01*
X158102756Y-90022047D01*
X157690279Y-89940000D01*
X157269721Y-89940000D01*
X156857244Y-90022047D01*
X156468698Y-90182988D01*
X156119017Y-90416637D01*
X155821637Y-90714017D01*
X155587988Y-91063698D01*
X155427047Y-91452244D01*
X155345000Y-91864721D01*
X155345000Y-92285279D01*
X155427047Y-92697756D01*
X155587988Y-93086302D01*
X155821637Y-93435983D01*
X156119017Y-93733363D01*
X156468698Y-93967012D01*
X156857244Y-94127953D01*
X157269721Y-94210000D01*
X157690279Y-94210000D01*
X158102756Y-94127953D01*
X158491302Y-93967012D01*
X158840983Y-93733363D01*
X159138363Y-93435983D01*
X159289360Y-93210000D01*
X160790001Y-93210000D01*
X160790000Y-99224868D01*
X157010389Y-103004480D01*
X149369575Y-103004480D01*
X149332627Y-102935356D01*
X149253275Y-102838665D01*
X149156584Y-102759313D01*
X149046270Y-102700348D01*
X148926572Y-102664038D01*
X148802090Y-102651778D01*
X147185000Y-102651778D01*
X147185000Y-101020751D01*
X147190491Y-100964999D01*
X147168577Y-100742501D01*
X147103676Y-100528553D01*
X147089189Y-100501449D01*
X146998284Y-100331377D01*
X146856449Y-100158551D01*
X146813140Y-100123008D01*
X145896997Y-99206865D01*
X145861450Y-99163552D01*
X145688624Y-99021717D01*
X145491448Y-98916325D01*
X145277500Y-98851424D01*
X145110753Y-98835001D01*
X145110752Y-98835001D01*
X145055001Y-98829510D01*
X144999250Y-98835001D01*
X144554289Y-98835001D01*
X144482360Y-98786940D01*
X144239406Y-98686305D01*
X143981487Y-98635001D01*
X143718515Y-98635001D01*
X143611158Y-98656356D01*
X142555010Y-97600209D01*
X142555010Y-97194791D01*
X142729023Y-97020778D01*
X142885364Y-97254760D01*
X143085242Y-97454638D01*
X143320274Y-97611681D01*
X143581427Y-97719854D01*
X143858666Y-97775001D01*
X144141336Y-97775001D01*
X144418575Y-97719854D01*
X144679728Y-97611681D01*
X144884285Y-97475001D01*
X144904248Y-97475001D01*
X144959999Y-97480492D01*
X145015750Y-97475001D01*
X145015751Y-97475001D01*
X145182498Y-97458578D01*
X145396446Y-97393677D01*
X145593622Y-97288285D01*
X145766448Y-97146450D01*
X145801995Y-97103136D01*
X146817460Y-96087672D01*
X146817460Y-96461708D01*
X146811969Y-96517460D01*
X146817460Y-96573211D01*
X146833883Y-96739958D01*
X146898784Y-96953906D01*
X147004176Y-97151083D01*
X147146011Y-97323909D01*
X147189324Y-97359455D01*
X147748008Y-97918140D01*
X147783551Y-97961449D01*
X147908505Y-98063996D01*
X147956377Y-98103284D01*
X148153553Y-98208676D01*
X148367501Y-98273577D01*
X148590000Y-98295491D01*
X148645752Y-98290000D01*
X155341928Y-98290000D01*
X155341928Y-98655000D01*
X155354188Y-98779482D01*
X155390498Y-98899180D01*
X155449463Y-99009494D01*
X155528815Y-99106185D01*
X155625506Y-99185537D01*
X155735820Y-99244502D01*
X155855518Y-99280812D01*
X155980000Y-99293072D01*
X158980000Y-99293072D01*
X159104482Y-99280812D01*
X159224180Y-99244502D01*
X159334494Y-99185537D01*
X159431185Y-99106185D01*
X159510537Y-99009494D01*
X159569502Y-98899180D01*
X159605812Y-98779482D01*
X159618072Y-98655000D01*
X159618072Y-95655000D01*
X159605812Y-95530518D01*
X159569502Y-95410820D01*
X159510537Y-95300506D01*
X159431185Y-95203815D01*
X159334494Y-95124463D01*
X159224180Y-95065498D01*
X159104482Y-95029188D01*
X158980000Y-95016928D01*
X155980000Y-95016928D01*
X155855518Y-95029188D01*
X155735820Y-95065498D01*
X155625506Y-95124463D01*
X155528815Y-95203815D01*
X155449463Y-95300506D01*
X155390498Y-95410820D01*
X155354188Y-95530518D01*
X155341928Y-95655000D01*
X155341928Y-96020000D01*
X149087460Y-96020000D01*
X149087460Y-94944063D01*
X149105647Y-94925876D01*
X149268122Y-94682716D01*
X149380036Y-94412530D01*
X149437090Y-94125703D01*
X149437090Y-93833257D01*
X149380036Y-93546430D01*
X149268122Y-93276244D01*
X149105647Y-93033084D01*
X149087460Y-93014897D01*
X149087460Y-92148089D01*
X149138061Y-92072359D01*
X149238696Y-91829405D01*
X149290000Y-91571486D01*
X149290000Y-91308514D01*
X149238696Y-91050595D01*
X149138061Y-90807641D01*
X148991962Y-90588987D01*
X148806013Y-90403038D01*
X148587359Y-90256939D01*
X148344405Y-90156304D01*
X148086486Y-90105000D01*
X147823514Y-90105000D01*
X147565595Y-90156304D01*
X147375010Y-90235247D01*
X147375010Y-88925141D01*
X148170152Y-88130000D01*
X160819869Y-88130000D01*
X161990010Y-89300142D01*
G36*
X144915001Y-101435133D02*
G01*
X144915001Y-102310950D01*
X144886963Y-102268988D01*
X144701014Y-102083039D01*
X144482360Y-101936940D01*
X144239406Y-101836305D01*
X144154559Y-101819428D01*
X143990883Y-101655751D01*
X143620670Y-101285538D01*
X143718515Y-101305001D01*
X143981487Y-101305001D01*
X144239406Y-101253697D01*
X144482360Y-101153062D01*
X144554289Y-101105001D01*
X144584870Y-101105001D01*
X144915001Y-101435133D01*
G37*
X144915001Y-101435133D02*
X144915001Y-102310950D01*
X144886963Y-102268988D01*
X144701014Y-102083039D01*
X144482360Y-101936940D01*
X144239406Y-101836305D01*
X144154559Y-101819428D01*
X143990883Y-101655751D01*
X143620670Y-101285538D01*
X143718515Y-101305001D01*
X143981487Y-101305001D01*
X144239406Y-101253697D01*
X144482360Y-101153062D01*
X144554289Y-101105001D01*
X144584870Y-101105001D01*
X144915001Y-101435133D01*
G36*
X126874463Y-98374494D02*
G01*
X126953815Y-98471185D01*
X127050506Y-98550537D01*
X127160820Y-98609502D01*
X127280518Y-98645812D01*
X127405000Y-98658072D01*
X130310000Y-98658072D01*
X130310000Y-99985654D01*
X130265983Y-99941637D01*
X129916302Y-99707988D01*
X129527756Y-99547047D01*
X129115279Y-99465000D01*
X128694721Y-99465000D01*
X128282244Y-99547047D01*
X127893698Y-99707988D01*
X127544017Y-99941637D01*
X127246637Y-100239017D01*
X127012988Y-100588698D01*
X126865000Y-100945973D01*
X126865000Y-98356790D01*
X126874463Y-98374494D01*
G37*
X126874463Y-98374494D02*
X126953815Y-98471185D01*
X127050506Y-98550537D01*
X127160820Y-98609502D01*
X127280518Y-98645812D01*
X127405000Y-98658072D01*
X130310000Y-98658072D01*
X130310000Y-99985654D01*
X130265983Y-99941637D01*
X129916302Y-99707988D01*
X129527756Y-99547047D01*
X129115279Y-99465000D01*
X128694721Y-99465000D01*
X128282244Y-99547047D01*
X127893698Y-99707988D01*
X127544017Y-99941637D01*
X127246637Y-100239017D01*
X127012988Y-100588698D01*
X126865000Y-100945973D01*
X126865000Y-98356790D01*
X126874463Y-98374494D01*
G36*
X143317760Y-89990001D02*
G01*
X143085242Y-90145364D01*
X142885364Y-90345242D01*
X142728321Y-90580274D01*
X142620148Y-90841427D01*
X142565001Y-91118666D01*
X142565001Y-91401336D01*
X142620148Y-91678575D01*
X142728321Y-91939728D01*
X142885364Y-92174760D01*
X143085242Y-92374638D01*
X143317760Y-92530001D01*
X143115717Y-92665001D01*
X142475740Y-92665001D01*
X142419998Y-92659511D01*
X142364256Y-92665001D01*
X142364247Y-92665001D01*
X142197500Y-92681424D01*
X141983552Y-92746325D01*
X141786376Y-92851717D01*
X141613550Y-92993552D01*
X141578010Y-93036858D01*
X140206860Y-94408009D01*
X140163552Y-94443551D01*
X140021717Y-94616377D01*
X139970142Y-94712867D01*
X139916324Y-94813554D01*
X139851423Y-95027502D01*
X139829509Y-95250000D01*
X139835001Y-95305761D01*
X139835000Y-100184248D01*
X139829509Y-100240000D01*
X139845903Y-100406448D01*
X139851423Y-100462498D01*
X139888584Y-100585000D01*
X137420253Y-100585000D01*
X137513697Y-100359406D01*
X137565001Y-100101487D01*
X137565001Y-99838515D01*
X137513697Y-99580596D01*
X137413062Y-99337642D01*
X137365001Y-99265713D01*
X137365001Y-97384397D01*
X137494638Y-97254760D01*
X137651681Y-97019728D01*
X137759854Y-96758575D01*
X137807851Y-96517283D01*
X140773148Y-93551987D01*
X140816451Y-93516449D01*
X140878789Y-93440491D01*
X140958286Y-93343623D01*
X141063678Y-93146447D01*
X141128579Y-92932499D01*
X141139039Y-92826293D01*
X141145002Y-92765752D01*
X141145002Y-92765751D01*
X141150493Y-92710000D01*
X141145002Y-92654248D01*
X141145002Y-90965129D01*
X142255131Y-89855001D01*
X143115717Y-89855001D01*
X143317760Y-89990001D01*
G37*
X143317760Y-89990001D02*
X143085242Y-90145364D01*
X142885364Y-90345242D01*
X142728321Y-90580274D01*
X142620148Y-90841427D01*
X142565001Y-91118666D01*
X142565001Y-91401336D01*
X142620148Y-91678575D01*
X142728321Y-91939728D01*
X142885364Y-92174760D01*
X143085242Y-92374638D01*
X143317760Y-92530001D01*
X143115717Y-92665001D01*
X142475740Y-92665001D01*
X142419998Y-92659511D01*
X142364256Y-92665001D01*
X142364247Y-92665001D01*
X142197500Y-92681424D01*
X141983552Y-92746325D01*
X141786376Y-92851717D01*
X141613550Y-92993552D01*
X141578010Y-93036858D01*
X140206860Y-94408009D01*
X140163552Y-94443551D01*
X140021717Y-94616377D01*
X139970142Y-94712867D01*
X139916324Y-94813554D01*
X139851423Y-95027502D01*
X139829509Y-95250000D01*
X139835001Y-95305761D01*
X139835000Y-100184248D01*
X139829509Y-100240000D01*
X139845903Y-100406448D01*
X139851423Y-100462498D01*
X139888584Y-100585000D01*
X137420253Y-100585000D01*
X137513697Y-100359406D01*
X137565001Y-100101487D01*
X137565001Y-99838515D01*
X137513697Y-99580596D01*
X137413062Y-99337642D01*
X137365001Y-99265713D01*
X137365001Y-97384397D01*
X137494638Y-97254760D01*
X137651681Y-97019728D01*
X137759854Y-96758575D01*
X137807851Y-96517283D01*
X140773148Y-93551987D01*
X140816451Y-93516449D01*
X140878789Y-93440491D01*
X140958286Y-93343623D01*
X141063678Y-93146447D01*
X141128579Y-92932499D01*
X141139039Y-92826293D01*
X141145002Y-92765752D01*
X141145002Y-92765751D01*
X141150493Y-92710000D01*
X141145002Y-92654248D01*
X141145002Y-90965129D01*
X142255131Y-89855001D01*
X143115717Y-89855001D01*
X143317760Y-89990001D01*
G36*
X142536356Y-99731158D02*
G01*
X142515001Y-99838515D01*
X142515001Y-100101487D01*
X142534464Y-100199333D01*
X142105000Y-99769869D01*
X142105000Y-99299801D01*
X142536356Y-99731158D01*
G37*
X142536356Y-99731158D02*
X142515001Y-99838515D01*
X142515001Y-100101487D01*
X142534464Y-100199333D01*
X142105000Y-99769869D01*
X142105000Y-99299801D01*
X142536356Y-99731158D01*
G36*
X135265364Y-94714760D02*
G01*
X135465242Y-94914638D01*
X135697760Y-95070001D01*
X135465242Y-95225364D01*
X135265364Y-95425242D01*
X135120000Y-95642795D01*
X135120000Y-94497207D01*
X135265364Y-94714760D01*
G37*
X135265364Y-94714760D02*
X135465242Y-94914638D01*
X135697760Y-95070001D01*
X135465242Y-95225364D01*
X135265364Y-95425242D01*
X135120000Y-95642795D01*
X135120000Y-94497207D01*
X135265364Y-94714760D01*
G36*
X130310001Y-92959285D02*
G01*
X130310001Y-94381928D01*
X130080000Y-94381928D01*
X130080000Y-92959284D01*
X130195000Y-92787173D01*
X130310001Y-92959285D01*
G37*
X130310001Y-92959285D02*
X130310001Y-94381928D01*
X130080000Y-94381928D01*
X130080000Y-92959284D01*
X130195000Y-92787173D01*
X130310001Y-92959285D01*
G36*
X145105011Y-90335615D02*
G01*
X144914760Y-90145364D01*
X144682242Y-89990001D01*
X144914760Y-89834638D01*
X145105011Y-89644387D01*
X145105011Y-90335615D01*
G37*
X145105011Y-90335615D02*
X144914760Y-90145364D01*
X144682242Y-89990001D01*
X144914760Y-89834638D01*
X145105011Y-89644387D01*
X145105011Y-90335615D01*
G36*
X138860001Y-88134867D02*
G01*
X137818073Y-89176796D01*
X137818073Y-87920001D01*
X137805813Y-87795519D01*
X137769503Y-87675821D01*
X137710538Y-87565507D01*
X137631186Y-87468816D01*
X137534495Y-87389464D01*
X137515001Y-87379044D01*
X137515001Y-83401132D01*
X137584721Y-83415000D01*
X138005279Y-83415000D01*
X138417756Y-83332953D01*
X138806302Y-83172012D01*
X138860002Y-83136131D01*
X138860001Y-88134867D01*
G37*
X138860001Y-88134867D02*
X137818073Y-89176796D01*
X137818073Y-87920001D01*
X137805813Y-87795519D01*
X137769503Y-87675821D01*
X137710538Y-87565507D01*
X137631186Y-87468816D01*
X137534495Y-87389464D01*
X137515001Y-87379044D01*
X137515001Y-83401132D01*
X137584721Y-83415000D01*
X138005279Y-83415000D01*
X138417756Y-83332953D01*
X138806302Y-83172012D01*
X138860002Y-83136131D01*
X138860001Y-88134867D01*
G36*
X133825311Y-88440443D02*
G01*
X133746129Y-88416423D01*
X133579382Y-88400000D01*
X133579381Y-88400000D01*
X133523630Y-88394509D01*
X133467879Y-88400000D01*
X131280132Y-88400000D01*
X130675000Y-87794869D01*
X130675000Y-87700957D01*
X130694494Y-87690537D01*
X130791185Y-87611185D01*
X130804790Y-87594607D01*
X130860273Y-87631680D01*
X131121426Y-87739853D01*
X131398665Y-87795000D01*
X131681335Y-87795000D01*
X131958574Y-87739853D01*
X132219727Y-87631680D01*
X132424284Y-87495000D01*
X132879869Y-87495000D01*
X133825311Y-88440443D01*
G37*
X133825311Y-88440443D02*
X133746129Y-88416423D01*
X133579382Y-88400000D01*
X133579381Y-88400000D01*
X133523630Y-88394509D01*
X133467879Y-88400000D01*
X131280132Y-88400000D01*
X130675000Y-87794869D01*
X130675000Y-87700957D01*
X130694494Y-87690537D01*
X130791185Y-87611185D01*
X130804790Y-87594607D01*
X130860273Y-87631680D01*
X131121426Y-87739853D01*
X131398665Y-87795000D01*
X131681335Y-87795000D01*
X131958574Y-87739853D01*
X132219727Y-87631680D01*
X132424284Y-87495000D01*
X132879869Y-87495000D01*
X133825311Y-88440443D01*
G36*
X141130820Y-83369502D02*
G01*
X141250518Y-83405812D01*
X141375000Y-83418072D01*
X142865002Y-83418072D01*
X142865001Y-87585001D01*
X141840751Y-87585001D01*
X141784999Y-87579510D01*
X141729247Y-87585001D01*
X141562500Y-87601424D01*
X141348552Y-87666325D01*
X141151376Y-87771717D01*
X141130001Y-87789259D01*
X141130001Y-83369064D01*
X141130820Y-83369502D01*
G37*
X141130820Y-83369502D02*
X141250518Y-83405812D01*
X141375000Y-83418072D01*
X142865002Y-83418072D01*
X142865001Y-87585001D01*
X141840751Y-87585001D01*
X141784999Y-87579510D01*
X141729247Y-87585001D01*
X141562500Y-87601424D01*
X141348552Y-87666325D01*
X141151376Y-87771717D01*
X141130001Y-87789259D01*
X141130001Y-83369064D01*
X141130820Y-83369502D01*
G36*
X135713023Y-80803155D02*
G01*
X135660000Y-81069721D01*
X135660000Y-81490279D01*
X135713023Y-81756845D01*
X135616861Y-81853008D01*
X135573553Y-81888550D01*
X135431718Y-82061376D01*
X135375385Y-82166769D01*
X135326325Y-82258553D01*
X135261424Y-82472501D01*
X135239510Y-82694999D01*
X135245002Y-82750760D01*
X135245001Y-86649870D01*
X134191996Y-85596865D01*
X134156449Y-85553551D01*
X133983623Y-85411716D01*
X133786447Y-85306324D01*
X133572499Y-85241423D01*
X133405752Y-85225000D01*
X133405751Y-85225000D01*
X133350000Y-85219509D01*
X133294249Y-85225000D01*
X132424284Y-85225000D01*
X132219727Y-85088320D01*
X131958574Y-84980147D01*
X131681335Y-84925000D01*
X131398665Y-84925000D01*
X131121426Y-84980147D01*
X130860273Y-85088320D01*
X130804790Y-85125393D01*
X130791185Y-85108815D01*
X130694494Y-85029463D01*
X130584180Y-84970498D01*
X130464482Y-84934188D01*
X130340000Y-84921928D01*
X128740000Y-84921928D01*
X128615518Y-84934188D01*
X128495820Y-84970498D01*
X128385506Y-85029463D01*
X128288815Y-85108815D01*
X128209463Y-85205506D01*
X128150498Y-85315820D01*
X128114188Y-85435518D01*
X128101928Y-85560000D01*
X128101928Y-87126797D01*
X127500000Y-86524869D01*
X127500000Y-83020131D01*
X130010132Y-80510000D01*
X135419869Y-80510000D01*
X135713023Y-80803155D01*
G37*
X135713023Y-80803155D02*
X135660000Y-81069721D01*
X135660000Y-81490279D01*
X135713023Y-81756845D01*
X135616861Y-81853008D01*
X135573553Y-81888550D01*
X135431718Y-82061376D01*
X135375385Y-82166769D01*
X135326325Y-82258553D01*
X135261424Y-82472501D01*
X135239510Y-82694999D01*
X135245002Y-82750760D01*
X135245001Y-86649870D01*
X134191996Y-85596865D01*
X134156449Y-85553551D01*
X133983623Y-85411716D01*
X133786447Y-85306324D01*
X133572499Y-85241423D01*
X133405752Y-85225000D01*
X133405751Y-85225000D01*
X133350000Y-85219509D01*
X133294249Y-85225000D01*
X132424284Y-85225000D01*
X132219727Y-85088320D01*
X131958574Y-84980147D01*
X131681335Y-84925000D01*
X131398665Y-84925000D01*
X131121426Y-84980147D01*
X130860273Y-85088320D01*
X130804790Y-85125393D01*
X130791185Y-85108815D01*
X130694494Y-85029463D01*
X130584180Y-84970498D01*
X130464482Y-84934188D01*
X130340000Y-84921928D01*
X128740000Y-84921928D01*
X128615518Y-84934188D01*
X128495820Y-84970498D01*
X128385506Y-85029463D01*
X128288815Y-85108815D01*
X128209463Y-85205506D01*
X128150498Y-85315820D01*
X128114188Y-85435518D01*
X128101928Y-85560000D01*
X128101928Y-87126797D01*
X127500000Y-86524869D01*
X127500000Y-83020131D01*
X130010132Y-80510000D01*
X135419869Y-80510000D01*
X135713023Y-80803155D01*
M02*
