%TF.GenerationSoftware,KiCad,Pcbnew,(5.1.6)-1*%
%TF.CreationDate,2020-06-13T20:27:39+05:30*%
%TF.ProjectId,USING 555,5553494e-4720-4353-9535-2e6b69636164,rev?*%
%TF.SameCoordinates,Original*%
%TF.FileFunction,Legend,Top*%
%TF.FilePolarity,Positive*%
%FSLAX46Y46*%
G04 Gerber Fmt 4.6, Leading zero omitted, Abs format (unit mm)*
G04 Created by KiCad (PCBNEW (5.1.6)-1) date 2020-06-13 20:27:39*
%MOMM*%
%LPD*%
G01*
G04 APERTURE LIST*
%ADD10C,0.300000*%
%ADD11C,0.010000*%
%ADD12C,0.120000*%
%ADD13C,0.150000*%
G04 APERTURE END LIST*
D10*
X130525714Y-110124761D02*
X130525714Y-108124761D01*
X131287619Y-108124761D01*
X131478095Y-108220000D01*
X131573333Y-108315238D01*
X131668571Y-108505714D01*
X131668571Y-108791428D01*
X131573333Y-108981904D01*
X131478095Y-109077142D01*
X131287619Y-109172380D01*
X130525714Y-109172380D01*
X132906666Y-108124761D02*
X133287619Y-108124761D01*
X133478095Y-108220000D01*
X133668571Y-108410476D01*
X133763809Y-108791428D01*
X133763809Y-109458095D01*
X133668571Y-109839047D01*
X133478095Y-110029523D01*
X133287619Y-110124761D01*
X132906666Y-110124761D01*
X132716190Y-110029523D01*
X132525714Y-109839047D01*
X132430476Y-109458095D01*
X132430476Y-108791428D01*
X132525714Y-108410476D01*
X132716190Y-108220000D01*
X132906666Y-108124761D01*
X134430476Y-108124761D02*
X134906666Y-110124761D01*
X135287619Y-108696190D01*
X135668571Y-110124761D01*
X136144761Y-108124761D01*
X136906666Y-109077142D02*
X137573333Y-109077142D01*
X137859047Y-110124761D02*
X136906666Y-110124761D01*
X136906666Y-108124761D01*
X137859047Y-108124761D01*
X139859047Y-110124761D02*
X139192380Y-109172380D01*
X138716190Y-110124761D02*
X138716190Y-108124761D01*
X139478095Y-108124761D01*
X139668571Y-108220000D01*
X139763809Y-108315238D01*
X139859047Y-108505714D01*
X139859047Y-108791428D01*
X139763809Y-108981904D01*
X139668571Y-109077142D01*
X139478095Y-109172380D01*
X138716190Y-109172380D01*
X140430476Y-108791428D02*
X141192380Y-108791428D01*
X140716190Y-108124761D02*
X140716190Y-109839047D01*
X140811428Y-110029523D01*
X141001904Y-110124761D01*
X141192380Y-110124761D01*
X141859047Y-110124761D02*
X141859047Y-108791428D01*
X141859047Y-109172380D02*
X141954285Y-108981904D01*
X142049523Y-108886666D01*
X142240000Y-108791428D01*
X142430476Y-108791428D01*
X143382857Y-110124761D02*
X143192380Y-110029523D01*
X143097142Y-109934285D01*
X143001904Y-109743809D01*
X143001904Y-109172380D01*
X143097142Y-108981904D01*
X143192380Y-108886666D01*
X143382857Y-108791428D01*
X143668571Y-108791428D01*
X143859047Y-108886666D01*
X143954285Y-108981904D01*
X144049523Y-109172380D01*
X144049523Y-109743809D01*
X143954285Y-109934285D01*
X143859047Y-110029523D01*
X143668571Y-110124761D01*
X143382857Y-110124761D01*
X144906666Y-108791428D02*
X144906666Y-110124761D01*
X144906666Y-108981904D02*
X145001904Y-108886666D01*
X145192380Y-108791428D01*
X145478095Y-108791428D01*
X145668571Y-108886666D01*
X145763809Y-109077142D01*
X145763809Y-110124761D01*
X146716190Y-110124761D02*
X146716190Y-108791428D01*
X146716190Y-108124761D02*
X146620952Y-108220000D01*
X146716190Y-108315238D01*
X146811428Y-108220000D01*
X146716190Y-108124761D01*
X146716190Y-108315238D01*
X148525714Y-110029523D02*
X148335238Y-110124761D01*
X147954285Y-110124761D01*
X147763809Y-110029523D01*
X147668571Y-109934285D01*
X147573333Y-109743809D01*
X147573333Y-109172380D01*
X147668571Y-108981904D01*
X147763809Y-108886666D01*
X147954285Y-108791428D01*
X148335238Y-108791428D01*
X148525714Y-108886666D01*
X149287619Y-110029523D02*
X149478095Y-110124761D01*
X149859047Y-110124761D01*
X150049523Y-110029523D01*
X150144761Y-109839047D01*
X150144761Y-109743809D01*
X150049523Y-109553333D01*
X149859047Y-109458095D01*
X149573333Y-109458095D01*
X149382857Y-109362857D01*
X149287619Y-109172380D01*
X149287619Y-109077142D01*
X149382857Y-108886666D01*
X149573333Y-108791428D01*
X149859047Y-108791428D01*
X150049523Y-108886666D01*
X152240000Y-109172380D02*
X152144761Y-109077142D01*
X151954285Y-108981904D01*
X151763809Y-108981904D01*
X151573333Y-109077142D01*
X151478095Y-109172380D01*
X151382857Y-109362857D01*
X151382857Y-109553333D01*
X151478095Y-109743809D01*
X151573333Y-109839047D01*
X151763809Y-109934285D01*
X151954285Y-109934285D01*
X152144761Y-109839047D01*
X152240000Y-109743809D01*
X152240000Y-108981904D02*
X152240000Y-109743809D01*
X152335238Y-109839047D01*
X152430476Y-109839047D01*
X152620952Y-109743809D01*
X152716190Y-109553333D01*
X152716190Y-109077142D01*
X152525714Y-108791428D01*
X152240000Y-108600952D01*
X151859047Y-108505714D01*
X151478095Y-108600952D01*
X151192380Y-108791428D01*
X151001904Y-109077142D01*
X150906666Y-109458095D01*
X151001904Y-109839047D01*
X151192380Y-110124761D01*
X151478095Y-110315238D01*
X151859047Y-110410476D01*
X152240000Y-110315238D01*
X152525714Y-110124761D01*
X153382857Y-110886666D02*
X153478095Y-110791428D01*
X153668571Y-110505714D01*
X153763809Y-110315238D01*
X153859047Y-110029523D01*
X153954285Y-109553333D01*
X153954285Y-109172380D01*
X153859047Y-108696190D01*
X153763809Y-108410476D01*
X153668571Y-108220000D01*
X153478095Y-107934285D01*
X153382857Y-107839047D01*
D11*
%TO.C,G\u002A\u002A\u002A*%
G36*
X152057915Y-83955869D02*
G01*
X152082909Y-84028119D01*
X152035949Y-84115798D01*
X152017908Y-84132362D01*
X151918622Y-84193888D01*
X151861787Y-84178531D01*
X151848509Y-84086747D01*
X151850681Y-84063417D01*
X151878709Y-83963621D01*
X151942017Y-83927315D01*
X151967504Y-83925834D01*
X152057915Y-83955869D01*
G37*
X152057915Y-83955869D02*
X152082909Y-84028119D01*
X152035949Y-84115798D01*
X152017908Y-84132362D01*
X151918622Y-84193888D01*
X151861787Y-84178531D01*
X151848509Y-84086747D01*
X151850681Y-84063417D01*
X151878709Y-83963621D01*
X151942017Y-83927315D01*
X151967504Y-83925834D01*
X152057915Y-83955869D01*
G36*
X160459737Y-84353935D02*
G01*
X160451800Y-84370334D01*
X160406150Y-84410719D01*
X160398001Y-84412667D01*
X160376182Y-84379914D01*
X160375600Y-84370334D01*
X160414652Y-84329627D01*
X160429398Y-84328000D01*
X160459737Y-84353935D01*
G37*
X160459737Y-84353935D02*
X160451800Y-84370334D01*
X160406150Y-84410719D01*
X160398001Y-84412667D01*
X160376182Y-84379914D01*
X160375600Y-84370334D01*
X160414652Y-84329627D01*
X160429398Y-84328000D01*
X160459737Y-84353935D01*
G36*
X160649025Y-84049143D02*
G01*
X160766647Y-84120942D01*
X160825394Y-84218249D01*
X160824294Y-84269542D01*
X160776877Y-84343546D01*
X160706862Y-84356862D01*
X160650887Y-84304639D01*
X160646637Y-84293055D01*
X160579816Y-84206013D01*
X160471854Y-84179160D01*
X160350618Y-84210543D01*
X160243971Y-84298209D01*
X160226741Y-84322485D01*
X160209203Y-84411295D01*
X160281642Y-84471269D01*
X160436337Y-84496814D01*
X160468180Y-84497334D01*
X160579491Y-84502456D01*
X160606599Y-84524348D01*
X160578800Y-84560834D01*
X160464585Y-84616552D01*
X160319931Y-84611587D01*
X160182731Y-84547912D01*
X160172400Y-84539667D01*
X160097663Y-84462298D01*
X160070800Y-84408481D01*
X160105166Y-84298253D01*
X160189156Y-84173465D01*
X160294107Y-84071767D01*
X160352446Y-84038516D01*
X160501350Y-84016963D01*
X160649025Y-84049143D01*
G37*
X160649025Y-84049143D02*
X160766647Y-84120942D01*
X160825394Y-84218249D01*
X160824294Y-84269542D01*
X160776877Y-84343546D01*
X160706862Y-84356862D01*
X160650887Y-84304639D01*
X160646637Y-84293055D01*
X160579816Y-84206013D01*
X160471854Y-84179160D01*
X160350618Y-84210543D01*
X160243971Y-84298209D01*
X160226741Y-84322485D01*
X160209203Y-84411295D01*
X160281642Y-84471269D01*
X160436337Y-84496814D01*
X160468180Y-84497334D01*
X160579491Y-84502456D01*
X160606599Y-84524348D01*
X160578800Y-84560834D01*
X160464585Y-84616552D01*
X160319931Y-84611587D01*
X160182731Y-84547912D01*
X160172400Y-84539667D01*
X160097663Y-84462298D01*
X160070800Y-84408481D01*
X160105166Y-84298253D01*
X160189156Y-84173465D01*
X160294107Y-84071767D01*
X160352446Y-84038516D01*
X160501350Y-84016963D01*
X160649025Y-84049143D01*
G36*
X157624458Y-84358684D02*
G01*
X157625563Y-84430924D01*
X157580602Y-84515001D01*
X157539499Y-84554272D01*
X157427337Y-84615588D01*
X157352196Y-84609712D01*
X157327600Y-84546228D01*
X157366179Y-84456753D01*
X157455997Y-84372808D01*
X157558176Y-84328979D01*
X157572900Y-84328000D01*
X157624458Y-84358684D01*
G37*
X157624458Y-84358684D02*
X157625563Y-84430924D01*
X157580602Y-84515001D01*
X157539499Y-84554272D01*
X157427337Y-84615588D01*
X157352196Y-84609712D01*
X157327600Y-84546228D01*
X157366179Y-84456753D01*
X157455997Y-84372808D01*
X157558176Y-84328979D01*
X157572900Y-84328000D01*
X157624458Y-84358684D01*
G36*
X155266817Y-83975438D02*
G01*
X155297993Y-84041873D01*
X155258257Y-84117994D01*
X155197339Y-84157177D01*
X155095198Y-84194844D01*
X155051349Y-84174949D01*
X155041627Y-84084586D01*
X155041600Y-84074000D01*
X155055268Y-83983237D01*
X155113372Y-83950033D01*
X155168600Y-83947000D01*
X155266817Y-83975438D01*
G37*
X155266817Y-83975438D02*
X155297993Y-84041873D01*
X155258257Y-84117994D01*
X155197339Y-84157177D01*
X155095198Y-84194844D01*
X155051349Y-84174949D01*
X155041627Y-84084586D01*
X155041600Y-84074000D01*
X155055268Y-83983237D01*
X155113372Y-83950033D01*
X155168600Y-83947000D01*
X155266817Y-83975438D01*
G36*
X152793586Y-84121677D02*
G01*
X152847529Y-84199271D01*
X152857200Y-84285141D01*
X152825625Y-84407973D01*
X152745483Y-84516429D01*
X152638647Y-84594440D01*
X152526991Y-84625939D01*
X152433866Y-84596111D01*
X152391770Y-84507103D01*
X152412805Y-84386611D01*
X152488054Y-84262843D01*
X152560752Y-84194786D01*
X152696421Y-84119703D01*
X152793586Y-84121677D01*
G37*
X152793586Y-84121677D02*
X152847529Y-84199271D01*
X152857200Y-84285141D01*
X152825625Y-84407973D01*
X152745483Y-84516429D01*
X152638647Y-84594440D01*
X152526991Y-84625939D01*
X152433866Y-84596111D01*
X152391770Y-84507103D01*
X152412805Y-84386611D01*
X152488054Y-84262843D01*
X152560752Y-84194786D01*
X152696421Y-84119703D01*
X152793586Y-84121677D01*
G36*
X154932669Y-74522896D02*
G01*
X155092841Y-74591017D01*
X155213408Y-74717125D01*
X155242820Y-74776835D01*
X155276105Y-74958841D01*
X155216527Y-75119506D01*
X155088436Y-75250664D01*
X154940293Y-75368939D01*
X154941739Y-76519229D01*
X154943184Y-77669518D01*
X155246392Y-77930156D01*
X155549599Y-78190793D01*
X155549600Y-79481397D01*
X155549872Y-79845907D01*
X155551117Y-80134568D01*
X155553978Y-80356195D01*
X155559099Y-80519605D01*
X155567122Y-80633615D01*
X155578690Y-80707042D01*
X155594447Y-80748700D01*
X155615037Y-80767408D01*
X155641101Y-80771981D01*
X155643748Y-80772000D01*
X155743347Y-80767725D01*
X155904665Y-80756650D01*
X156050148Y-80744803D01*
X156362400Y-80717606D01*
X156362400Y-77041201D01*
X156211727Y-76935549D01*
X156074560Y-76793591D01*
X156022464Y-76635426D01*
X156047588Y-76479090D01*
X156142083Y-76342622D01*
X156298100Y-76244057D01*
X156507791Y-76201433D01*
X156531407Y-76200941D01*
X156735408Y-76235897D01*
X156892139Y-76330275D01*
X156992643Y-76465082D01*
X157027960Y-76621324D01*
X156989133Y-76780007D01*
X156870400Y-76919667D01*
X156718000Y-77038303D01*
X156718000Y-78883985D01*
X156718205Y-79328127D01*
X156719059Y-79694952D01*
X156720915Y-79991811D01*
X156724126Y-80226052D01*
X156729047Y-80405024D01*
X156736031Y-80536079D01*
X156745433Y-80626565D01*
X156757606Y-80683831D01*
X156772905Y-80715228D01*
X156791683Y-80728105D01*
X156806900Y-80730035D01*
X156906991Y-80735144D01*
X157063973Y-80747773D01*
X157162500Y-80757098D01*
X157429200Y-80783793D01*
X157429200Y-79029005D01*
X157734000Y-78764491D01*
X158038800Y-78499976D01*
X158038800Y-77332078D01*
X158038799Y-76164180D01*
X157886400Y-76037180D01*
X157764522Y-75887707D01*
X157728273Y-75730365D01*
X157765328Y-75579773D01*
X157863365Y-75450550D01*
X158010060Y-75357315D01*
X158193091Y-75314687D01*
X158400135Y-75337284D01*
X158459813Y-75356941D01*
X158595358Y-75446388D01*
X158701446Y-75582555D01*
X158749486Y-75727502D01*
X158750000Y-75742029D01*
X158710137Y-75872312D01*
X158607582Y-76009245D01*
X158485852Y-76107151D01*
X158459367Y-76128514D01*
X158438526Y-76163159D01*
X158422660Y-76220503D01*
X158411098Y-76309964D01*
X158403173Y-76440959D01*
X158398213Y-76622906D01*
X158395551Y-76865222D01*
X158394517Y-77177326D01*
X158394400Y-77393967D01*
X158394400Y-78625466D01*
X157784800Y-79128760D01*
X157784800Y-79969915D01*
X157784799Y-80811070D01*
X158000700Y-80858038D01*
X158187476Y-80899955D01*
X158398029Y-80948981D01*
X158467120Y-80965503D01*
X158618121Y-81000146D01*
X158728038Y-81022036D01*
X158759220Y-81026000D01*
X158775506Y-80986442D01*
X158788799Y-80878844D01*
X158797697Y-80719824D01*
X158800800Y-80533714D01*
X158800800Y-80041429D01*
X158617385Y-79872247D01*
X158508989Y-79763080D01*
X158460568Y-79678993D01*
X158456899Y-79588129D01*
X158463221Y-79549616D01*
X158539718Y-79375545D01*
X158679549Y-79250392D01*
X158860353Y-79181508D01*
X159059772Y-79176244D01*
X159255444Y-79241950D01*
X159304902Y-79272930D01*
X159407452Y-79360131D01*
X159452381Y-79454802D01*
X159461200Y-79572520D01*
X159445379Y-79714554D01*
X159383323Y-79819926D01*
X159308800Y-79889513D01*
X159240638Y-79949595D01*
X159196600Y-80006304D01*
X159171419Y-80079275D01*
X159159827Y-80188146D01*
X159156558Y-80352555D01*
X159156400Y-80457757D01*
X159159950Y-80639499D01*
X159169548Y-80784878D01*
X159183611Y-80876342D01*
X159196162Y-80899000D01*
X159257582Y-80880437D01*
X159382521Y-80831500D01*
X159545278Y-80762316D01*
X159564462Y-80753871D01*
X160024893Y-80579991D01*
X160567858Y-80429551D01*
X161200979Y-80300489D01*
X161312578Y-80281448D01*
X161560104Y-80240009D01*
X161779868Y-80202774D01*
X161947807Y-80173851D01*
X162039300Y-80157452D01*
X162124416Y-80151253D01*
X162144629Y-80182804D01*
X162097950Y-80259621D01*
X161982390Y-80389223D01*
X161976293Y-80395626D01*
X161854517Y-80531791D01*
X161806292Y-80616362D01*
X161834760Y-80658789D01*
X161943069Y-80668522D01*
X162064700Y-80661224D01*
X162331400Y-80639103D01*
X162179000Y-80736114D01*
X161884493Y-80940418D01*
X161663378Y-81137331D01*
X161493911Y-81349180D01*
X161369367Y-81567446D01*
X161225571Y-81842745D01*
X161096760Y-82051603D01*
X160971158Y-82209252D01*
X160836988Y-82330929D01*
X160716495Y-82412053D01*
X160488557Y-82548464D01*
X160355878Y-82461493D01*
X160265076Y-82392432D01*
X160223478Y-82341970D01*
X160223200Y-82339515D01*
X160249815Y-82288774D01*
X160319286Y-82190823D01*
X160407652Y-82078004D01*
X160575742Y-81853498D01*
X160686454Y-81654555D01*
X160755928Y-81448303D01*
X160783756Y-81311976D01*
X160848611Y-81092500D01*
X160961858Y-80931574D01*
X161043098Y-80835738D01*
X161043259Y-80790076D01*
X160963193Y-80794696D01*
X160803754Y-80849705D01*
X160691411Y-80897525D01*
X160373241Y-81062490D01*
X160099389Y-81250856D01*
X159882180Y-81450839D01*
X159733942Y-81650654D01*
X159667001Y-81838517D01*
X159664400Y-81879374D01*
X159691599Y-82002922D01*
X159777024Y-82150370D01*
X159926417Y-82328603D01*
X160145518Y-82544507D01*
X160426400Y-82793295D01*
X160652308Y-82995748D01*
X160885209Y-83220232D01*
X161099275Y-83440920D01*
X161268677Y-83631987D01*
X161284317Y-83651128D01*
X161539121Y-83956234D01*
X161756362Y-84192712D01*
X161943696Y-84367755D01*
X162108776Y-84488552D01*
X162250867Y-84559205D01*
X162397772Y-84622329D01*
X162449201Y-84668821D01*
X162407579Y-84704705D01*
X162318700Y-84727888D01*
X162174937Y-84759999D01*
X161979527Y-84808033D01*
X161751284Y-84866850D01*
X161509024Y-84931309D01*
X161271561Y-84996270D01*
X161057710Y-85056593D01*
X160886286Y-85107137D01*
X160776104Y-85142761D01*
X160744917Y-85157875D01*
X160819793Y-85178372D01*
X160982195Y-85195169D01*
X161218101Y-85207328D01*
X161513491Y-85213912D01*
X161592260Y-85214561D01*
X161779463Y-85219409D01*
X161913491Y-85230280D01*
X161974333Y-85245200D01*
X161973260Y-85252191D01*
X161912133Y-85279452D01*
X161773602Y-85332557D01*
X161574343Y-85405379D01*
X161331032Y-85491795D01*
X161137600Y-85559108D01*
X160884852Y-85648924D01*
X160678019Y-85727500D01*
X160529846Y-85789565D01*
X160453075Y-85829845D01*
X160451800Y-85842861D01*
X160545385Y-85842148D01*
X160710608Y-85830130D01*
X160918828Y-85809119D01*
X161024865Y-85796614D01*
X161237907Y-85774015D01*
X161393072Y-85765089D01*
X161473350Y-85770524D01*
X161480365Y-85778253D01*
X161416602Y-85837850D01*
X161274299Y-85918035D01*
X161070772Y-86011324D01*
X160823331Y-86110231D01*
X160549292Y-86207271D01*
X160324800Y-86277861D01*
X160078903Y-86351290D01*
X159851197Y-86420531D01*
X159668314Y-86477411D01*
X159562800Y-86511708D01*
X159385000Y-86572754D01*
X159639000Y-86551977D01*
X159762182Y-86545236D01*
X159968944Y-86537678D01*
X160241278Y-86529795D01*
X160561176Y-86522082D01*
X160910629Y-86515034D01*
X161112200Y-86511566D01*
X162331400Y-86491932D01*
X161311067Y-86549309D01*
X160841750Y-86579216D01*
X160370893Y-86615691D01*
X159914868Y-86656989D01*
X159490047Y-86701362D01*
X159112803Y-86747064D01*
X158799509Y-86792351D01*
X158566536Y-86835475D01*
X158516148Y-86847375D01*
X158367343Y-86893434D01*
X158229258Y-86949672D01*
X158120900Y-87005792D01*
X158061273Y-87051499D01*
X158069381Y-87076498D01*
X158089600Y-87078445D01*
X158167866Y-87071717D01*
X158322992Y-87052946D01*
X158531843Y-87025083D01*
X158750000Y-86994181D01*
X159160337Y-86938325D01*
X159576791Y-86888476D01*
X159978631Y-86846606D01*
X160345124Y-86814686D01*
X160655541Y-86794689D01*
X160889150Y-86788587D01*
X160908688Y-86788838D01*
X161019280Y-86792453D01*
X161054652Y-86798891D01*
X161008563Y-86809451D01*
X160874775Y-86825432D01*
X160647046Y-86848132D01*
X160604200Y-86852216D01*
X160320740Y-86883320D01*
X159993396Y-86926127D01*
X159638357Y-86977822D01*
X159271812Y-87035593D01*
X158909950Y-87096627D01*
X158568959Y-87158109D01*
X158265029Y-87217228D01*
X158014347Y-87271169D01*
X157833103Y-87317119D01*
X157742273Y-87349560D01*
X157689840Y-87394175D01*
X157726577Y-87420750D01*
X157842092Y-87428126D01*
X158025996Y-87415142D01*
X158166235Y-87396890D01*
X158374018Y-87373976D01*
X158635650Y-87356756D01*
X158927247Y-87345506D01*
X159224927Y-87340503D01*
X159504804Y-87342024D01*
X159742997Y-87350345D01*
X159915621Y-87365744D01*
X159969200Y-87376000D01*
X159972575Y-87389245D01*
X159882228Y-87400437D01*
X159706020Y-87409083D01*
X159451810Y-87414687D01*
X159334200Y-87415934D01*
X158899441Y-87426733D01*
X158495368Y-87450816D01*
X158153655Y-87486161D01*
X158089600Y-87495308D01*
X157861853Y-87531844D01*
X157705638Y-87565666D01*
X157592194Y-87607595D01*
X157492758Y-87668450D01*
X157378569Y-87759049D01*
X157370400Y-87765851D01*
X157144805Y-87922657D01*
X156908104Y-88018223D01*
X156865880Y-88029363D01*
X156699035Y-88069099D01*
X156585906Y-88086256D01*
X156482820Y-88082378D01*
X156346105Y-88059009D01*
X156297249Y-88049457D01*
X156035955Y-87977725D01*
X155819934Y-87865354D01*
X155642643Y-87724519D01*
X155556062Y-87650030D01*
X155476756Y-87598447D01*
X155380868Y-87562045D01*
X155244544Y-87533100D01*
X155043928Y-87503887D01*
X154906043Y-87485995D01*
X154628154Y-87457524D01*
X154293467Y-87433989D01*
X153946748Y-87418052D01*
X153670000Y-87412441D01*
X153390892Y-87409472D01*
X153208140Y-87403238D01*
X153116557Y-87393337D01*
X153110958Y-87379370D01*
X153136600Y-87371276D01*
X153315536Y-87344889D01*
X153570724Y-87331572D01*
X153878199Y-87330467D01*
X154213996Y-87340717D01*
X154554151Y-87361463D01*
X154874698Y-87391849D01*
X155151674Y-87431017D01*
X155232100Y-87446272D01*
X155323860Y-87447439D01*
X155346400Y-87406285D01*
X155340806Y-87370842D01*
X155313084Y-87342286D01*
X155246819Y-87315096D01*
X155125597Y-87283752D01*
X154933005Y-87242733D01*
X154751623Y-87206242D01*
X154220617Y-87103775D01*
X153754241Y-87022070D01*
X153320355Y-86956092D01*
X152886820Y-86900804D01*
X152603200Y-86869590D01*
X152329821Y-86840108D01*
X152151753Y-86818376D01*
X152063262Y-86803310D01*
X152058613Y-86793826D01*
X152132073Y-86788839D01*
X152171711Y-86788008D01*
X152396718Y-86792940D01*
X152700542Y-86811876D01*
X153062233Y-86842813D01*
X153460839Y-86883753D01*
X153875408Y-86932692D01*
X154284991Y-86987631D01*
X154330400Y-86994181D01*
X154598000Y-87032969D01*
X154781382Y-87058518D01*
X154896449Y-87071977D01*
X154959104Y-87074498D01*
X154985251Y-87067234D01*
X154990792Y-87051334D01*
X154990800Y-87041996D01*
X154944104Y-86993768D01*
X154817146Y-86936574D01*
X154629615Y-86876623D01*
X154401205Y-86820124D01*
X154151606Y-86773288D01*
X154126295Y-86769383D01*
X153729450Y-86714023D01*
X153317986Y-86666463D01*
X152870518Y-86624724D01*
X152365657Y-86586825D01*
X151782016Y-86550784D01*
X151739600Y-86548389D01*
X150749000Y-86492736D01*
X151968200Y-86511467D01*
X152324430Y-86517729D01*
X152659410Y-86525086D01*
X152955569Y-86533038D01*
X153195338Y-86541085D01*
X153361146Y-86548726D01*
X153416000Y-86552724D01*
X153541231Y-86560689D01*
X153581858Y-86550883D01*
X153535100Y-86521999D01*
X153398174Y-86472736D01*
X153168299Y-86401787D01*
X152972749Y-86344865D01*
X152730541Y-86273600D01*
X152497638Y-86201924D01*
X152307492Y-86140275D01*
X152227489Y-86112311D01*
X152084400Y-86052967D01*
X151923910Y-85976581D01*
X151768281Y-85895222D01*
X151639778Y-85820953D01*
X151560665Y-85765842D01*
X151547626Y-85743867D01*
X151602467Y-85743454D01*
X151733986Y-85755170D01*
X151918743Y-85776727D01*
X152021096Y-85790119D01*
X152305878Y-85826861D01*
X152503862Y-85847083D01*
X152613858Y-85848794D01*
X152634672Y-85830003D01*
X152565110Y-85788715D01*
X152403982Y-85722940D01*
X152150093Y-85630686D01*
X151866600Y-85532073D01*
X151615122Y-85444345D01*
X151396109Y-85365732D01*
X151227272Y-85302762D01*
X151126322Y-85261964D01*
X151107139Y-85252144D01*
X151133289Y-85237040D01*
X151242140Y-85224147D01*
X151414793Y-85215124D01*
X151564339Y-85211992D01*
X151886617Y-85206756D01*
X152108060Y-85196592D01*
X152229401Y-85178731D01*
X152251373Y-85150400D01*
X152174708Y-85108831D01*
X152000138Y-85051251D01*
X151728396Y-84974892D01*
X151633757Y-84949437D01*
X151375543Y-84880897D01*
X151152431Y-84822634D01*
X150981868Y-84779129D01*
X150881300Y-84754863D01*
X150862364Y-84751334D01*
X150797716Y-84737397D01*
X150688807Y-84704862D01*
X150545800Y-84658390D01*
X150807195Y-84561042D01*
X150940271Y-84502203D01*
X151068935Y-84422440D01*
X151203979Y-84311718D01*
X151356193Y-84160005D01*
X151411968Y-84097246D01*
X151672936Y-84097246D01*
X151693339Y-84335223D01*
X151719716Y-84531620D01*
X151754391Y-84649686D01*
X151801972Y-84696324D01*
X151845792Y-84669338D01*
X151869187Y-84566534D01*
X151869777Y-84551376D01*
X151898097Y-84459467D01*
X152247600Y-84459467D01*
X152283705Y-84617205D01*
X152383890Y-84713467D01*
X152535957Y-84742706D01*
X152727709Y-84699376D01*
X152752615Y-84689120D01*
X152874231Y-84603142D01*
X152958019Y-84488036D01*
X153019054Y-84349167D01*
X153110680Y-84522877D01*
X153205248Y-84656898D01*
X153309192Y-84730874D01*
X153406892Y-84734255D01*
X153416878Y-84729715D01*
X153459373Y-84678299D01*
X153509838Y-84579463D01*
X153519322Y-84556483D01*
X153579257Y-84405146D01*
X153674682Y-84535906D01*
X153755059Y-84631828D01*
X153821206Y-84661846D01*
X153900944Y-84637131D01*
X153912228Y-84631292D01*
X153973552Y-84564436D01*
X154023450Y-84448487D01*
X154059048Y-84305522D01*
X154077470Y-84157618D01*
X154075843Y-84026850D01*
X154051290Y-83935295D01*
X154006846Y-83904667D01*
X153954409Y-83943756D01*
X153910848Y-84048119D01*
X153882101Y-84198396D01*
X153873759Y-84338584D01*
X153858128Y-84431558D01*
X153816938Y-84446268D01*
X153756830Y-84384753D01*
X153701327Y-84285667D01*
X153622187Y-84162856D01*
X153546654Y-84120448D01*
X153482910Y-84158772D01*
X153439743Y-84275084D01*
X153398967Y-84440219D01*
X153357380Y-84521085D01*
X153312009Y-84518059D01*
X153259881Y-84431521D01*
X153211871Y-84304070D01*
X153157315Y-84184621D01*
X153093787Y-84104403D01*
X153065203Y-84088223D01*
X152949304Y-84050301D01*
X152895989Y-84028577D01*
X152717839Y-83990671D01*
X152545845Y-84024797D01*
X152398133Y-84118912D01*
X152292827Y-84260969D01*
X152248052Y-84438924D01*
X152247600Y-84459467D01*
X151898097Y-84459467D01*
X151906590Y-84431905D01*
X152020447Y-84307276D01*
X152060277Y-84274726D01*
X152196850Y-84135455D01*
X152248128Y-84004946D01*
X152210629Y-83894325D01*
X152186640Y-83870800D01*
X152090201Y-83834885D01*
X151945778Y-83821411D01*
X151801793Y-83831026D01*
X151706668Y-83864377D01*
X151706654Y-83864388D01*
X151677370Y-83940089D01*
X151672936Y-84097246D01*
X151411968Y-84097246D01*
X151536371Y-83957266D01*
X151720555Y-83735334D01*
X154131986Y-83735334D01*
X154159213Y-83957584D01*
X154202629Y-84258786D01*
X154250631Y-84482046D01*
X154305694Y-84634072D01*
X154370288Y-84721569D01*
X154446886Y-84751245D01*
X154451827Y-84751334D01*
X154526510Y-84729073D01*
X154646133Y-84673021D01*
X154699607Y-84643974D01*
X154837904Y-84550340D01*
X154889829Y-84483978D01*
X154861264Y-84455067D01*
X154758092Y-84473781D01*
X154631900Y-84526858D01*
X154514255Y-84574867D01*
X154452942Y-84562164D01*
X154424556Y-84480508D01*
X154420395Y-84452385D01*
X154425591Y-84380062D01*
X154485829Y-84346793D01*
X154574783Y-84335710D01*
X154693185Y-84311454D01*
X154721211Y-84273825D01*
X154665053Y-84235763D01*
X154530903Y-84210208D01*
X154514099Y-84208885D01*
X154390551Y-84194988D01*
X154340734Y-84159103D01*
X154336955Y-84074259D01*
X154340226Y-84039552D01*
X154348162Y-83988212D01*
X154897834Y-83988212D01*
X154901871Y-84234766D01*
X154963203Y-84468853D01*
X155043838Y-84617225D01*
X155131692Y-84709141D01*
X155195308Y-84724383D01*
X155221969Y-84665748D01*
X155211386Y-84580359D01*
X155194721Y-84496437D01*
X155211884Y-84463204D01*
X155283439Y-84474405D01*
X155414764Y-84518500D01*
X155554868Y-84560210D01*
X155665635Y-84581352D01*
X155679201Y-84582000D01*
X155746736Y-84566351D01*
X155732375Y-84525641D01*
X155647047Y-84469229D01*
X155501682Y-84406472D01*
X155455160Y-84390190D01*
X155190287Y-84301461D01*
X155280013Y-84223219D01*
X155784228Y-84223219D01*
X155854500Y-84274611D01*
X155899924Y-84290478D01*
X156014095Y-84342686D01*
X156072589Y-84432555D01*
X156088158Y-84490466D01*
X156134867Y-84635964D01*
X156194469Y-84716814D01*
X156259497Y-84724172D01*
X156276140Y-84713150D01*
X156296138Y-84637516D01*
X156263240Y-84544577D01*
X156223953Y-84426824D01*
X156258862Y-84357359D01*
X156377180Y-84319389D01*
X156387730Y-84317650D01*
X156470365Y-84315225D01*
X156531381Y-84351950D01*
X156594262Y-84445424D01*
X156619056Y-84491031D01*
X156717242Y-84646943D01*
X156802385Y-84726971D01*
X156868587Y-84730216D01*
X156909951Y-84655775D01*
X156921200Y-84537168D01*
X156922165Y-84522635D01*
X157168108Y-84522635D01*
X157203410Y-84637043D01*
X157300968Y-84720209D01*
X157437992Y-84750046D01*
X157525378Y-84722607D01*
X157639439Y-84652581D01*
X157674106Y-84625399D01*
X157825227Y-84499464D01*
X157856781Y-84604232D01*
X157912653Y-84684979D01*
X157993028Y-84712553D01*
X158063599Y-84685556D01*
X158090377Y-84613750D01*
X158114220Y-84489311D01*
X158169088Y-84430141D01*
X158233808Y-84439762D01*
X158287210Y-84521695D01*
X158301198Y-84578684D01*
X158338343Y-84671046D01*
X158391498Y-84699052D01*
X158434718Y-84659774D01*
X158445200Y-84594947D01*
X158414632Y-84456164D01*
X158365381Y-84390702D01*
X158548447Y-84390702D01*
X158554942Y-84517434D01*
X158580405Y-84629866D01*
X158599387Y-84669450D01*
X158667185Y-84738067D01*
X158725902Y-84743374D01*
X158750000Y-84685433D01*
X158759182Y-84643198D01*
X158804713Y-84653139D01*
X158862903Y-84685433D01*
X159017670Y-84745231D01*
X159149841Y-84725223D01*
X159229703Y-84669334D01*
X159291344Y-84584065D01*
X159274790Y-84534093D01*
X159194848Y-84536252D01*
X159135520Y-84562258D01*
X159044085Y-84603057D01*
X158986466Y-84590349D01*
X158952901Y-84560534D01*
X158918228Y-84469510D01*
X158953021Y-84371562D01*
X159030538Y-84306993D01*
X159359600Y-84306993D01*
X159401267Y-84404412D01*
X159500662Y-84472219D01*
X159619377Y-84486653D01*
X159641342Y-84481276D01*
X159719678Y-84477152D01*
X159734204Y-84520388D01*
X159680933Y-84589911D01*
X159664400Y-84603167D01*
X159599695Y-84677354D01*
X159604540Y-84734318D01*
X159658542Y-84751334D01*
X159716563Y-84723341D01*
X159805832Y-84655121D01*
X159815259Y-84646866D01*
X159933030Y-84542399D01*
X160082012Y-84646866D01*
X160270251Y-84735084D01*
X160464951Y-84738904D01*
X160621761Y-84684260D01*
X160823219Y-84537974D01*
X160943028Y-84341607D01*
X160957144Y-84295742D01*
X160969173Y-84196159D01*
X160930263Y-84115928D01*
X160857861Y-84047868D01*
X160999195Y-84047868D01*
X161004720Y-84097958D01*
X161100149Y-84184167D01*
X161117333Y-84196805D01*
X161208331Y-84282608D01*
X161224245Y-84369812D01*
X161215854Y-84405523D01*
X161166856Y-84579651D01*
X161145784Y-84685611D01*
X161151807Y-84736436D01*
X161184097Y-84745164D01*
X161194384Y-84742800D01*
X161268826Y-84693022D01*
X161327351Y-84620990D01*
X161378664Y-84473825D01*
X161372023Y-84319275D01*
X161316576Y-84179409D01*
X161221469Y-84076299D01*
X161095849Y-84032013D01*
X161083112Y-84031667D01*
X160999195Y-84047868D01*
X160857861Y-84047868D01*
X160840720Y-84031755D01*
X160662140Y-83935598D01*
X160461956Y-83909443D01*
X160264948Y-83947960D01*
X160095894Y-84045822D01*
X159979573Y-84197700D01*
X159970497Y-84218890D01*
X159921394Y-84317751D01*
X159854362Y-84360525D01*
X159729908Y-84370285D01*
X159711260Y-84370334D01*
X159567220Y-84351881D01*
X159509264Y-84305378D01*
X159542696Y-84244104D01*
X159640315Y-84192798D01*
X159732514Y-84135499D01*
X159739892Y-84078376D01*
X159660054Y-84041167D01*
X159658741Y-84040952D01*
X159558057Y-84061957D01*
X159454658Y-84135577D01*
X159379276Y-84234478D01*
X159359600Y-84306993D01*
X159030538Y-84306993D01*
X159037911Y-84300852D01*
X159108744Y-84285667D01*
X159185576Y-84265768D01*
X159187872Y-84222458D01*
X159124794Y-84180319D01*
X159064277Y-84166388D01*
X158941888Y-84190271D01*
X158831260Y-84263950D01*
X158748187Y-84334446D01*
X158706668Y-84345962D01*
X158680279Y-84302445D01*
X158674446Y-84287364D01*
X158630440Y-84228011D01*
X158593942Y-84224051D01*
X158561315Y-84282098D01*
X158548447Y-84390702D01*
X158365381Y-84390702D01*
X158336420Y-84352209D01*
X158230801Y-84295472D01*
X158118011Y-84298344D01*
X158040688Y-84347271D01*
X157974275Y-84386328D01*
X157884652Y-84364755D01*
X157869367Y-84357854D01*
X157766875Y-84297106D01*
X157718775Y-84253917D01*
X157628722Y-84206999D01*
X157493510Y-84212285D01*
X157345286Y-84267042D01*
X157309050Y-84288739D01*
X157201256Y-84399146D01*
X157168108Y-84522635D01*
X156922165Y-84522635D01*
X156928377Y-84429096D01*
X156962057Y-84381472D01*
X157040460Y-84370362D01*
X157048200Y-84370334D01*
X157153224Y-84353162D01*
X157164416Y-84304927D01*
X157096875Y-84241864D01*
X157028447Y-84213851D01*
X156946743Y-84235749D01*
X156870663Y-84278811D01*
X156768391Y-84334802D01*
X156712375Y-84338842D01*
X156679757Y-84305869D01*
X156606449Y-84260131D01*
X156472716Y-84220583D01*
X156410932Y-84209689D01*
X156267796Y-84182507D01*
X156195280Y-84141797D01*
X156162641Y-84068282D01*
X156158964Y-84051699D01*
X156146329Y-84021795D01*
X158517292Y-84021795D01*
X158524081Y-84035283D01*
X158585753Y-84056256D01*
X158601938Y-84050599D01*
X158627107Y-83999205D01*
X158620318Y-83985718D01*
X158558646Y-83964744D01*
X158542461Y-83970401D01*
X158517292Y-84021795D01*
X156146329Y-84021795D01*
X156119140Y-83957452D01*
X156068296Y-83942618D01*
X156025851Y-84007222D01*
X156016125Y-84051517D01*
X155971305Y-84139622D01*
X155904823Y-84158667D01*
X155801244Y-84178060D01*
X155784228Y-84223219D01*
X155280013Y-84223219D01*
X155344543Y-84166949D01*
X155438906Y-84075885D01*
X155493437Y-84006264D01*
X155498800Y-83990695D01*
X155453984Y-83926951D01*
X155342772Y-83869846D01*
X155200016Y-83833054D01*
X155083295Y-83827678D01*
X154967648Y-83846589D01*
X154916106Y-83896936D01*
X154897834Y-83988212D01*
X154348162Y-83988212D01*
X154354558Y-83946846D01*
X154391920Y-83897770D01*
X154479980Y-83873920D01*
X154609800Y-83860242D01*
X154756576Y-83845541D01*
X154813541Y-83832232D01*
X154791919Y-83812821D01*
X154720792Y-83786159D01*
X154576696Y-83753537D01*
X154398133Y-83736194D01*
X154354886Y-83735334D01*
X154131986Y-83735334D01*
X151720555Y-83735334D01*
X151755302Y-83693467D01*
X151801138Y-83636893D01*
X151952555Y-83464332D01*
X152152964Y-83256933D01*
X152378254Y-83038657D01*
X152604316Y-82833464D01*
X152645184Y-82798089D01*
X152918587Y-82558271D01*
X153123474Y-82365098D01*
X153267704Y-82209377D01*
X153359134Y-82081916D01*
X153405623Y-81973522D01*
X153415739Y-81896616D01*
X153368169Y-81695932D01*
X153231168Y-81486393D01*
X153014510Y-81277410D01*
X152727970Y-81078392D01*
X152381326Y-80898750D01*
X152377348Y-80896976D01*
X152182397Y-80818669D01*
X152057784Y-80787019D01*
X152007824Y-80801481D01*
X152036833Y-80861505D01*
X152107404Y-80931192D01*
X152227913Y-81097442D01*
X152276027Y-81258834D01*
X152341201Y-81520917D01*
X152448413Y-81760069D01*
X152613922Y-82010523D01*
X152664300Y-82076342D01*
X152873535Y-82343963D01*
X152741817Y-82453728D01*
X152610100Y-82563492D01*
X152355200Y-82401502D01*
X152151411Y-82241223D01*
X151969752Y-82029244D01*
X151800994Y-81753358D01*
X151685863Y-81516271D01*
X151521472Y-81252261D01*
X151282463Y-81005947D01*
X151002169Y-80808534D01*
X150872052Y-80724479D01*
X150835862Y-80672322D01*
X150894023Y-80650846D01*
X151046956Y-80658831D01*
X151053800Y-80659603D01*
X151197072Y-80669725D01*
X151265553Y-80652155D01*
X151261182Y-80597114D01*
X151185899Y-80494825D01*
X151104600Y-80403540D01*
X150987580Y-80268494D01*
X150937188Y-80187560D01*
X150951299Y-80152515D01*
X151027792Y-80155134D01*
X151041100Y-80157595D01*
X151133246Y-80173988D01*
X151301839Y-80202622D01*
X151523589Y-80239587D01*
X151775207Y-80280971D01*
X151797373Y-80284591D01*
X152357694Y-80389804D01*
X152848627Y-80513486D01*
X153301686Y-80664207D01*
X153535929Y-80757438D01*
X153704931Y-80823839D01*
X153837429Y-80867440D01*
X153909356Y-80880532D01*
X153914491Y-80878702D01*
X153946632Y-80799227D01*
X153930382Y-80679472D01*
X153875027Y-80548855D01*
X153789855Y-80436797D01*
X153769216Y-80418511D01*
X153649231Y-80268739D01*
X153615204Y-80101562D01*
X153662734Y-79938284D01*
X153787418Y-79800207D01*
X153910912Y-79732802D01*
X154117622Y-79692912D01*
X154314844Y-79731089D01*
X154482487Y-79841195D01*
X154554229Y-79929306D01*
X154620740Y-80099726D01*
X154588673Y-80259179D01*
X154456623Y-80413344D01*
X154429090Y-80435598D01*
X154340627Y-80515720D01*
X154295844Y-80599304D01*
X154280598Y-80719788D01*
X154279600Y-80788985D01*
X154284773Y-80917816D01*
X154298138Y-81003897D01*
X154311589Y-81026000D01*
X154399556Y-81014097D01*
X154547105Y-80983155D01*
X154726332Y-80940329D01*
X154909330Y-80892772D01*
X155068195Y-80847638D01*
X155175022Y-80812080D01*
X155203435Y-80797372D01*
X155212545Y-80745461D01*
X155221003Y-80620033D01*
X155228466Y-80432237D01*
X155234591Y-80193222D01*
X155239036Y-79914138D01*
X155241459Y-79606134D01*
X155241641Y-79553248D01*
X155245012Y-78351856D01*
X154940106Y-78087249D01*
X154635200Y-77822643D01*
X154635200Y-76606312D01*
X154635199Y-75389981D01*
X154457399Y-75250242D01*
X154342489Y-75145703D01*
X154290663Y-75047449D01*
X154279600Y-74932328D01*
X154319853Y-74761843D01*
X154426483Y-74632235D01*
X154578293Y-74546926D01*
X154754087Y-74509339D01*
X154932669Y-74522896D01*
G37*
X154932669Y-74522896D02*
X155092841Y-74591017D01*
X155213408Y-74717125D01*
X155242820Y-74776835D01*
X155276105Y-74958841D01*
X155216527Y-75119506D01*
X155088436Y-75250664D01*
X154940293Y-75368939D01*
X154941739Y-76519229D01*
X154943184Y-77669518D01*
X155246392Y-77930156D01*
X155549599Y-78190793D01*
X155549600Y-79481397D01*
X155549872Y-79845907D01*
X155551117Y-80134568D01*
X155553978Y-80356195D01*
X155559099Y-80519605D01*
X155567122Y-80633615D01*
X155578690Y-80707042D01*
X155594447Y-80748700D01*
X155615037Y-80767408D01*
X155641101Y-80771981D01*
X155643748Y-80772000D01*
X155743347Y-80767725D01*
X155904665Y-80756650D01*
X156050148Y-80744803D01*
X156362400Y-80717606D01*
X156362400Y-77041201D01*
X156211727Y-76935549D01*
X156074560Y-76793591D01*
X156022464Y-76635426D01*
X156047588Y-76479090D01*
X156142083Y-76342622D01*
X156298100Y-76244057D01*
X156507791Y-76201433D01*
X156531407Y-76200941D01*
X156735408Y-76235897D01*
X156892139Y-76330275D01*
X156992643Y-76465082D01*
X157027960Y-76621324D01*
X156989133Y-76780007D01*
X156870400Y-76919667D01*
X156718000Y-77038303D01*
X156718000Y-78883985D01*
X156718205Y-79328127D01*
X156719059Y-79694952D01*
X156720915Y-79991811D01*
X156724126Y-80226052D01*
X156729047Y-80405024D01*
X156736031Y-80536079D01*
X156745433Y-80626565D01*
X156757606Y-80683831D01*
X156772905Y-80715228D01*
X156791683Y-80728105D01*
X156806900Y-80730035D01*
X156906991Y-80735144D01*
X157063973Y-80747773D01*
X157162500Y-80757098D01*
X157429200Y-80783793D01*
X157429200Y-79029005D01*
X157734000Y-78764491D01*
X158038800Y-78499976D01*
X158038800Y-77332078D01*
X158038799Y-76164180D01*
X157886400Y-76037180D01*
X157764522Y-75887707D01*
X157728273Y-75730365D01*
X157765328Y-75579773D01*
X157863365Y-75450550D01*
X158010060Y-75357315D01*
X158193091Y-75314687D01*
X158400135Y-75337284D01*
X158459813Y-75356941D01*
X158595358Y-75446388D01*
X158701446Y-75582555D01*
X158749486Y-75727502D01*
X158750000Y-75742029D01*
X158710137Y-75872312D01*
X158607582Y-76009245D01*
X158485852Y-76107151D01*
X158459367Y-76128514D01*
X158438526Y-76163159D01*
X158422660Y-76220503D01*
X158411098Y-76309964D01*
X158403173Y-76440959D01*
X158398213Y-76622906D01*
X158395551Y-76865222D01*
X158394517Y-77177326D01*
X158394400Y-77393967D01*
X158394400Y-78625466D01*
X157784800Y-79128760D01*
X157784800Y-79969915D01*
X157784799Y-80811070D01*
X158000700Y-80858038D01*
X158187476Y-80899955D01*
X158398029Y-80948981D01*
X158467120Y-80965503D01*
X158618121Y-81000146D01*
X158728038Y-81022036D01*
X158759220Y-81026000D01*
X158775506Y-80986442D01*
X158788799Y-80878844D01*
X158797697Y-80719824D01*
X158800800Y-80533714D01*
X158800800Y-80041429D01*
X158617385Y-79872247D01*
X158508989Y-79763080D01*
X158460568Y-79678993D01*
X158456899Y-79588129D01*
X158463221Y-79549616D01*
X158539718Y-79375545D01*
X158679549Y-79250392D01*
X158860353Y-79181508D01*
X159059772Y-79176244D01*
X159255444Y-79241950D01*
X159304902Y-79272930D01*
X159407452Y-79360131D01*
X159452381Y-79454802D01*
X159461200Y-79572520D01*
X159445379Y-79714554D01*
X159383323Y-79819926D01*
X159308800Y-79889513D01*
X159240638Y-79949595D01*
X159196600Y-80006304D01*
X159171419Y-80079275D01*
X159159827Y-80188146D01*
X159156558Y-80352555D01*
X159156400Y-80457757D01*
X159159950Y-80639499D01*
X159169548Y-80784878D01*
X159183611Y-80876342D01*
X159196162Y-80899000D01*
X159257582Y-80880437D01*
X159382521Y-80831500D01*
X159545278Y-80762316D01*
X159564462Y-80753871D01*
X160024893Y-80579991D01*
X160567858Y-80429551D01*
X161200979Y-80300489D01*
X161312578Y-80281448D01*
X161560104Y-80240009D01*
X161779868Y-80202774D01*
X161947807Y-80173851D01*
X162039300Y-80157452D01*
X162124416Y-80151253D01*
X162144629Y-80182804D01*
X162097950Y-80259621D01*
X161982390Y-80389223D01*
X161976293Y-80395626D01*
X161854517Y-80531791D01*
X161806292Y-80616362D01*
X161834760Y-80658789D01*
X161943069Y-80668522D01*
X162064700Y-80661224D01*
X162331400Y-80639103D01*
X162179000Y-80736114D01*
X161884493Y-80940418D01*
X161663378Y-81137331D01*
X161493911Y-81349180D01*
X161369367Y-81567446D01*
X161225571Y-81842745D01*
X161096760Y-82051603D01*
X160971158Y-82209252D01*
X160836988Y-82330929D01*
X160716495Y-82412053D01*
X160488557Y-82548464D01*
X160355878Y-82461493D01*
X160265076Y-82392432D01*
X160223478Y-82341970D01*
X160223200Y-82339515D01*
X160249815Y-82288774D01*
X160319286Y-82190823D01*
X160407652Y-82078004D01*
X160575742Y-81853498D01*
X160686454Y-81654555D01*
X160755928Y-81448303D01*
X160783756Y-81311976D01*
X160848611Y-81092500D01*
X160961858Y-80931574D01*
X161043098Y-80835738D01*
X161043259Y-80790076D01*
X160963193Y-80794696D01*
X160803754Y-80849705D01*
X160691411Y-80897525D01*
X160373241Y-81062490D01*
X160099389Y-81250856D01*
X159882180Y-81450839D01*
X159733942Y-81650654D01*
X159667001Y-81838517D01*
X159664400Y-81879374D01*
X159691599Y-82002922D01*
X159777024Y-82150370D01*
X159926417Y-82328603D01*
X160145518Y-82544507D01*
X160426400Y-82793295D01*
X160652308Y-82995748D01*
X160885209Y-83220232D01*
X161099275Y-83440920D01*
X161268677Y-83631987D01*
X161284317Y-83651128D01*
X161539121Y-83956234D01*
X161756362Y-84192712D01*
X161943696Y-84367755D01*
X162108776Y-84488552D01*
X162250867Y-84559205D01*
X162397772Y-84622329D01*
X162449201Y-84668821D01*
X162407579Y-84704705D01*
X162318700Y-84727888D01*
X162174937Y-84759999D01*
X161979527Y-84808033D01*
X161751284Y-84866850D01*
X161509024Y-84931309D01*
X161271561Y-84996270D01*
X161057710Y-85056593D01*
X160886286Y-85107137D01*
X160776104Y-85142761D01*
X160744917Y-85157875D01*
X160819793Y-85178372D01*
X160982195Y-85195169D01*
X161218101Y-85207328D01*
X161513491Y-85213912D01*
X161592260Y-85214561D01*
X161779463Y-85219409D01*
X161913491Y-85230280D01*
X161974333Y-85245200D01*
X161973260Y-85252191D01*
X161912133Y-85279452D01*
X161773602Y-85332557D01*
X161574343Y-85405379D01*
X161331032Y-85491795D01*
X161137600Y-85559108D01*
X160884852Y-85648924D01*
X160678019Y-85727500D01*
X160529846Y-85789565D01*
X160453075Y-85829845D01*
X160451800Y-85842861D01*
X160545385Y-85842148D01*
X160710608Y-85830130D01*
X160918828Y-85809119D01*
X161024865Y-85796614D01*
X161237907Y-85774015D01*
X161393072Y-85765089D01*
X161473350Y-85770524D01*
X161480365Y-85778253D01*
X161416602Y-85837850D01*
X161274299Y-85918035D01*
X161070772Y-86011324D01*
X160823331Y-86110231D01*
X160549292Y-86207271D01*
X160324800Y-86277861D01*
X160078903Y-86351290D01*
X159851197Y-86420531D01*
X159668314Y-86477411D01*
X159562800Y-86511708D01*
X159385000Y-86572754D01*
X159639000Y-86551977D01*
X159762182Y-86545236D01*
X159968944Y-86537678D01*
X160241278Y-86529795D01*
X160561176Y-86522082D01*
X160910629Y-86515034D01*
X161112200Y-86511566D01*
X162331400Y-86491932D01*
X161311067Y-86549309D01*
X160841750Y-86579216D01*
X160370893Y-86615691D01*
X159914868Y-86656989D01*
X159490047Y-86701362D01*
X159112803Y-86747064D01*
X158799509Y-86792351D01*
X158566536Y-86835475D01*
X158516148Y-86847375D01*
X158367343Y-86893434D01*
X158229258Y-86949672D01*
X158120900Y-87005792D01*
X158061273Y-87051499D01*
X158069381Y-87076498D01*
X158089600Y-87078445D01*
X158167866Y-87071717D01*
X158322992Y-87052946D01*
X158531843Y-87025083D01*
X158750000Y-86994181D01*
X159160337Y-86938325D01*
X159576791Y-86888476D01*
X159978631Y-86846606D01*
X160345124Y-86814686D01*
X160655541Y-86794689D01*
X160889150Y-86788587D01*
X160908688Y-86788838D01*
X161019280Y-86792453D01*
X161054652Y-86798891D01*
X161008563Y-86809451D01*
X160874775Y-86825432D01*
X160647046Y-86848132D01*
X160604200Y-86852216D01*
X160320740Y-86883320D01*
X159993396Y-86926127D01*
X159638357Y-86977822D01*
X159271812Y-87035593D01*
X158909950Y-87096627D01*
X158568959Y-87158109D01*
X158265029Y-87217228D01*
X158014347Y-87271169D01*
X157833103Y-87317119D01*
X157742273Y-87349560D01*
X157689840Y-87394175D01*
X157726577Y-87420750D01*
X157842092Y-87428126D01*
X158025996Y-87415142D01*
X158166235Y-87396890D01*
X158374018Y-87373976D01*
X158635650Y-87356756D01*
X158927247Y-87345506D01*
X159224927Y-87340503D01*
X159504804Y-87342024D01*
X159742997Y-87350345D01*
X159915621Y-87365744D01*
X159969200Y-87376000D01*
X159972575Y-87389245D01*
X159882228Y-87400437D01*
X159706020Y-87409083D01*
X159451810Y-87414687D01*
X159334200Y-87415934D01*
X158899441Y-87426733D01*
X158495368Y-87450816D01*
X158153655Y-87486161D01*
X158089600Y-87495308D01*
X157861853Y-87531844D01*
X157705638Y-87565666D01*
X157592194Y-87607595D01*
X157492758Y-87668450D01*
X157378569Y-87759049D01*
X157370400Y-87765851D01*
X157144805Y-87922657D01*
X156908104Y-88018223D01*
X156865880Y-88029363D01*
X156699035Y-88069099D01*
X156585906Y-88086256D01*
X156482820Y-88082378D01*
X156346105Y-88059009D01*
X156297249Y-88049457D01*
X156035955Y-87977725D01*
X155819934Y-87865354D01*
X155642643Y-87724519D01*
X155556062Y-87650030D01*
X155476756Y-87598447D01*
X155380868Y-87562045D01*
X155244544Y-87533100D01*
X155043928Y-87503887D01*
X154906043Y-87485995D01*
X154628154Y-87457524D01*
X154293467Y-87433989D01*
X153946748Y-87418052D01*
X153670000Y-87412441D01*
X153390892Y-87409472D01*
X153208140Y-87403238D01*
X153116557Y-87393337D01*
X153110958Y-87379370D01*
X153136600Y-87371276D01*
X153315536Y-87344889D01*
X153570724Y-87331572D01*
X153878199Y-87330467D01*
X154213996Y-87340717D01*
X154554151Y-87361463D01*
X154874698Y-87391849D01*
X155151674Y-87431017D01*
X155232100Y-87446272D01*
X155323860Y-87447439D01*
X155346400Y-87406285D01*
X155340806Y-87370842D01*
X155313084Y-87342286D01*
X155246819Y-87315096D01*
X155125597Y-87283752D01*
X154933005Y-87242733D01*
X154751623Y-87206242D01*
X154220617Y-87103775D01*
X153754241Y-87022070D01*
X153320355Y-86956092D01*
X152886820Y-86900804D01*
X152603200Y-86869590D01*
X152329821Y-86840108D01*
X152151753Y-86818376D01*
X152063262Y-86803310D01*
X152058613Y-86793826D01*
X152132073Y-86788839D01*
X152171711Y-86788008D01*
X152396718Y-86792940D01*
X152700542Y-86811876D01*
X153062233Y-86842813D01*
X153460839Y-86883753D01*
X153875408Y-86932692D01*
X154284991Y-86987631D01*
X154330400Y-86994181D01*
X154598000Y-87032969D01*
X154781382Y-87058518D01*
X154896449Y-87071977D01*
X154959104Y-87074498D01*
X154985251Y-87067234D01*
X154990792Y-87051334D01*
X154990800Y-87041996D01*
X154944104Y-86993768D01*
X154817146Y-86936574D01*
X154629615Y-86876623D01*
X154401205Y-86820124D01*
X154151606Y-86773288D01*
X154126295Y-86769383D01*
X153729450Y-86714023D01*
X153317986Y-86666463D01*
X152870518Y-86624724D01*
X152365657Y-86586825D01*
X151782016Y-86550784D01*
X151739600Y-86548389D01*
X150749000Y-86492736D01*
X151968200Y-86511467D01*
X152324430Y-86517729D01*
X152659410Y-86525086D01*
X152955569Y-86533038D01*
X153195338Y-86541085D01*
X153361146Y-86548726D01*
X153416000Y-86552724D01*
X153541231Y-86560689D01*
X153581858Y-86550883D01*
X153535100Y-86521999D01*
X153398174Y-86472736D01*
X153168299Y-86401787D01*
X152972749Y-86344865D01*
X152730541Y-86273600D01*
X152497638Y-86201924D01*
X152307492Y-86140275D01*
X152227489Y-86112311D01*
X152084400Y-86052967D01*
X151923910Y-85976581D01*
X151768281Y-85895222D01*
X151639778Y-85820953D01*
X151560665Y-85765842D01*
X151547626Y-85743867D01*
X151602467Y-85743454D01*
X151733986Y-85755170D01*
X151918743Y-85776727D01*
X152021096Y-85790119D01*
X152305878Y-85826861D01*
X152503862Y-85847083D01*
X152613858Y-85848794D01*
X152634672Y-85830003D01*
X152565110Y-85788715D01*
X152403982Y-85722940D01*
X152150093Y-85630686D01*
X151866600Y-85532073D01*
X151615122Y-85444345D01*
X151396109Y-85365732D01*
X151227272Y-85302762D01*
X151126322Y-85261964D01*
X151107139Y-85252144D01*
X151133289Y-85237040D01*
X151242140Y-85224147D01*
X151414793Y-85215124D01*
X151564339Y-85211992D01*
X151886617Y-85206756D01*
X152108060Y-85196592D01*
X152229401Y-85178731D01*
X152251373Y-85150400D01*
X152174708Y-85108831D01*
X152000138Y-85051251D01*
X151728396Y-84974892D01*
X151633757Y-84949437D01*
X151375543Y-84880897D01*
X151152431Y-84822634D01*
X150981868Y-84779129D01*
X150881300Y-84754863D01*
X150862364Y-84751334D01*
X150797716Y-84737397D01*
X150688807Y-84704862D01*
X150545800Y-84658390D01*
X150807195Y-84561042D01*
X150940271Y-84502203D01*
X151068935Y-84422440D01*
X151203979Y-84311718D01*
X151356193Y-84160005D01*
X151411968Y-84097246D01*
X151672936Y-84097246D01*
X151693339Y-84335223D01*
X151719716Y-84531620D01*
X151754391Y-84649686D01*
X151801972Y-84696324D01*
X151845792Y-84669338D01*
X151869187Y-84566534D01*
X151869777Y-84551376D01*
X151898097Y-84459467D01*
X152247600Y-84459467D01*
X152283705Y-84617205D01*
X152383890Y-84713467D01*
X152535957Y-84742706D01*
X152727709Y-84699376D01*
X152752615Y-84689120D01*
X152874231Y-84603142D01*
X152958019Y-84488036D01*
X153019054Y-84349167D01*
X153110680Y-84522877D01*
X153205248Y-84656898D01*
X153309192Y-84730874D01*
X153406892Y-84734255D01*
X153416878Y-84729715D01*
X153459373Y-84678299D01*
X153509838Y-84579463D01*
X153519322Y-84556483D01*
X153579257Y-84405146D01*
X153674682Y-84535906D01*
X153755059Y-84631828D01*
X153821206Y-84661846D01*
X153900944Y-84637131D01*
X153912228Y-84631292D01*
X153973552Y-84564436D01*
X154023450Y-84448487D01*
X154059048Y-84305522D01*
X154077470Y-84157618D01*
X154075843Y-84026850D01*
X154051290Y-83935295D01*
X154006846Y-83904667D01*
X153954409Y-83943756D01*
X153910848Y-84048119D01*
X153882101Y-84198396D01*
X153873759Y-84338584D01*
X153858128Y-84431558D01*
X153816938Y-84446268D01*
X153756830Y-84384753D01*
X153701327Y-84285667D01*
X153622187Y-84162856D01*
X153546654Y-84120448D01*
X153482910Y-84158772D01*
X153439743Y-84275084D01*
X153398967Y-84440219D01*
X153357380Y-84521085D01*
X153312009Y-84518059D01*
X153259881Y-84431521D01*
X153211871Y-84304070D01*
X153157315Y-84184621D01*
X153093787Y-84104403D01*
X153065203Y-84088223D01*
X152949304Y-84050301D01*
X152895989Y-84028577D01*
X152717839Y-83990671D01*
X152545845Y-84024797D01*
X152398133Y-84118912D01*
X152292827Y-84260969D01*
X152248052Y-84438924D01*
X152247600Y-84459467D01*
X151898097Y-84459467D01*
X151906590Y-84431905D01*
X152020447Y-84307276D01*
X152060277Y-84274726D01*
X152196850Y-84135455D01*
X152248128Y-84004946D01*
X152210629Y-83894325D01*
X152186640Y-83870800D01*
X152090201Y-83834885D01*
X151945778Y-83821411D01*
X151801793Y-83831026D01*
X151706668Y-83864377D01*
X151706654Y-83864388D01*
X151677370Y-83940089D01*
X151672936Y-84097246D01*
X151411968Y-84097246D01*
X151536371Y-83957266D01*
X151720555Y-83735334D01*
X154131986Y-83735334D01*
X154159213Y-83957584D01*
X154202629Y-84258786D01*
X154250631Y-84482046D01*
X154305694Y-84634072D01*
X154370288Y-84721569D01*
X154446886Y-84751245D01*
X154451827Y-84751334D01*
X154526510Y-84729073D01*
X154646133Y-84673021D01*
X154699607Y-84643974D01*
X154837904Y-84550340D01*
X154889829Y-84483978D01*
X154861264Y-84455067D01*
X154758092Y-84473781D01*
X154631900Y-84526858D01*
X154514255Y-84574867D01*
X154452942Y-84562164D01*
X154424556Y-84480508D01*
X154420395Y-84452385D01*
X154425591Y-84380062D01*
X154485829Y-84346793D01*
X154574783Y-84335710D01*
X154693185Y-84311454D01*
X154721211Y-84273825D01*
X154665053Y-84235763D01*
X154530903Y-84210208D01*
X154514099Y-84208885D01*
X154390551Y-84194988D01*
X154340734Y-84159103D01*
X154336955Y-84074259D01*
X154340226Y-84039552D01*
X154348162Y-83988212D01*
X154897834Y-83988212D01*
X154901871Y-84234766D01*
X154963203Y-84468853D01*
X155043838Y-84617225D01*
X155131692Y-84709141D01*
X155195308Y-84724383D01*
X155221969Y-84665748D01*
X155211386Y-84580359D01*
X155194721Y-84496437D01*
X155211884Y-84463204D01*
X155283439Y-84474405D01*
X155414764Y-84518500D01*
X155554868Y-84560210D01*
X155665635Y-84581352D01*
X155679201Y-84582000D01*
X155746736Y-84566351D01*
X155732375Y-84525641D01*
X155647047Y-84469229D01*
X155501682Y-84406472D01*
X155455160Y-84390190D01*
X155190287Y-84301461D01*
X155280013Y-84223219D01*
X155784228Y-84223219D01*
X155854500Y-84274611D01*
X155899924Y-84290478D01*
X156014095Y-84342686D01*
X156072589Y-84432555D01*
X156088158Y-84490466D01*
X156134867Y-84635964D01*
X156194469Y-84716814D01*
X156259497Y-84724172D01*
X156276140Y-84713150D01*
X156296138Y-84637516D01*
X156263240Y-84544577D01*
X156223953Y-84426824D01*
X156258862Y-84357359D01*
X156377180Y-84319389D01*
X156387730Y-84317650D01*
X156470365Y-84315225D01*
X156531381Y-84351950D01*
X156594262Y-84445424D01*
X156619056Y-84491031D01*
X156717242Y-84646943D01*
X156802385Y-84726971D01*
X156868587Y-84730216D01*
X156909951Y-84655775D01*
X156921200Y-84537168D01*
X156922165Y-84522635D01*
X157168108Y-84522635D01*
X157203410Y-84637043D01*
X157300968Y-84720209D01*
X157437992Y-84750046D01*
X157525378Y-84722607D01*
X157639439Y-84652581D01*
X157674106Y-84625399D01*
X157825227Y-84499464D01*
X157856781Y-84604232D01*
X157912653Y-84684979D01*
X157993028Y-84712553D01*
X158063599Y-84685556D01*
X158090377Y-84613750D01*
X158114220Y-84489311D01*
X158169088Y-84430141D01*
X158233808Y-84439762D01*
X158287210Y-84521695D01*
X158301198Y-84578684D01*
X158338343Y-84671046D01*
X158391498Y-84699052D01*
X158434718Y-84659774D01*
X158445200Y-84594947D01*
X158414632Y-84456164D01*
X158365381Y-84390702D01*
X158548447Y-84390702D01*
X158554942Y-84517434D01*
X158580405Y-84629866D01*
X158599387Y-84669450D01*
X158667185Y-84738067D01*
X158725902Y-84743374D01*
X158750000Y-84685433D01*
X158759182Y-84643198D01*
X158804713Y-84653139D01*
X158862903Y-84685433D01*
X159017670Y-84745231D01*
X159149841Y-84725223D01*
X159229703Y-84669334D01*
X159291344Y-84584065D01*
X159274790Y-84534093D01*
X159194848Y-84536252D01*
X159135520Y-84562258D01*
X159044085Y-84603057D01*
X158986466Y-84590349D01*
X158952901Y-84560534D01*
X158918228Y-84469510D01*
X158953021Y-84371562D01*
X159030538Y-84306993D01*
X159359600Y-84306993D01*
X159401267Y-84404412D01*
X159500662Y-84472219D01*
X159619377Y-84486653D01*
X159641342Y-84481276D01*
X159719678Y-84477152D01*
X159734204Y-84520388D01*
X159680933Y-84589911D01*
X159664400Y-84603167D01*
X159599695Y-84677354D01*
X159604540Y-84734318D01*
X159658542Y-84751334D01*
X159716563Y-84723341D01*
X159805832Y-84655121D01*
X159815259Y-84646866D01*
X159933030Y-84542399D01*
X160082012Y-84646866D01*
X160270251Y-84735084D01*
X160464951Y-84738904D01*
X160621761Y-84684260D01*
X160823219Y-84537974D01*
X160943028Y-84341607D01*
X160957144Y-84295742D01*
X160969173Y-84196159D01*
X160930263Y-84115928D01*
X160857861Y-84047868D01*
X160999195Y-84047868D01*
X161004720Y-84097958D01*
X161100149Y-84184167D01*
X161117333Y-84196805D01*
X161208331Y-84282608D01*
X161224245Y-84369812D01*
X161215854Y-84405523D01*
X161166856Y-84579651D01*
X161145784Y-84685611D01*
X161151807Y-84736436D01*
X161184097Y-84745164D01*
X161194384Y-84742800D01*
X161268826Y-84693022D01*
X161327351Y-84620990D01*
X161378664Y-84473825D01*
X161372023Y-84319275D01*
X161316576Y-84179409D01*
X161221469Y-84076299D01*
X161095849Y-84032013D01*
X161083112Y-84031667D01*
X160999195Y-84047868D01*
X160857861Y-84047868D01*
X160840720Y-84031755D01*
X160662140Y-83935598D01*
X160461956Y-83909443D01*
X160264948Y-83947960D01*
X160095894Y-84045822D01*
X159979573Y-84197700D01*
X159970497Y-84218890D01*
X159921394Y-84317751D01*
X159854362Y-84360525D01*
X159729908Y-84370285D01*
X159711260Y-84370334D01*
X159567220Y-84351881D01*
X159509264Y-84305378D01*
X159542696Y-84244104D01*
X159640315Y-84192798D01*
X159732514Y-84135499D01*
X159739892Y-84078376D01*
X159660054Y-84041167D01*
X159658741Y-84040952D01*
X159558057Y-84061957D01*
X159454658Y-84135577D01*
X159379276Y-84234478D01*
X159359600Y-84306993D01*
X159030538Y-84306993D01*
X159037911Y-84300852D01*
X159108744Y-84285667D01*
X159185576Y-84265768D01*
X159187872Y-84222458D01*
X159124794Y-84180319D01*
X159064277Y-84166388D01*
X158941888Y-84190271D01*
X158831260Y-84263950D01*
X158748187Y-84334446D01*
X158706668Y-84345962D01*
X158680279Y-84302445D01*
X158674446Y-84287364D01*
X158630440Y-84228011D01*
X158593942Y-84224051D01*
X158561315Y-84282098D01*
X158548447Y-84390702D01*
X158365381Y-84390702D01*
X158336420Y-84352209D01*
X158230801Y-84295472D01*
X158118011Y-84298344D01*
X158040688Y-84347271D01*
X157974275Y-84386328D01*
X157884652Y-84364755D01*
X157869367Y-84357854D01*
X157766875Y-84297106D01*
X157718775Y-84253917D01*
X157628722Y-84206999D01*
X157493510Y-84212285D01*
X157345286Y-84267042D01*
X157309050Y-84288739D01*
X157201256Y-84399146D01*
X157168108Y-84522635D01*
X156922165Y-84522635D01*
X156928377Y-84429096D01*
X156962057Y-84381472D01*
X157040460Y-84370362D01*
X157048200Y-84370334D01*
X157153224Y-84353162D01*
X157164416Y-84304927D01*
X157096875Y-84241864D01*
X157028447Y-84213851D01*
X156946743Y-84235749D01*
X156870663Y-84278811D01*
X156768391Y-84334802D01*
X156712375Y-84338842D01*
X156679757Y-84305869D01*
X156606449Y-84260131D01*
X156472716Y-84220583D01*
X156410932Y-84209689D01*
X156267796Y-84182507D01*
X156195280Y-84141797D01*
X156162641Y-84068282D01*
X156158964Y-84051699D01*
X156146329Y-84021795D01*
X158517292Y-84021795D01*
X158524081Y-84035283D01*
X158585753Y-84056256D01*
X158601938Y-84050599D01*
X158627107Y-83999205D01*
X158620318Y-83985718D01*
X158558646Y-83964744D01*
X158542461Y-83970401D01*
X158517292Y-84021795D01*
X156146329Y-84021795D01*
X156119140Y-83957452D01*
X156068296Y-83942618D01*
X156025851Y-84007222D01*
X156016125Y-84051517D01*
X155971305Y-84139622D01*
X155904823Y-84158667D01*
X155801244Y-84178060D01*
X155784228Y-84223219D01*
X155280013Y-84223219D01*
X155344543Y-84166949D01*
X155438906Y-84075885D01*
X155493437Y-84006264D01*
X155498800Y-83990695D01*
X155453984Y-83926951D01*
X155342772Y-83869846D01*
X155200016Y-83833054D01*
X155083295Y-83827678D01*
X154967648Y-83846589D01*
X154916106Y-83896936D01*
X154897834Y-83988212D01*
X154348162Y-83988212D01*
X154354558Y-83946846D01*
X154391920Y-83897770D01*
X154479980Y-83873920D01*
X154609800Y-83860242D01*
X154756576Y-83845541D01*
X154813541Y-83832232D01*
X154791919Y-83812821D01*
X154720792Y-83786159D01*
X154576696Y-83753537D01*
X154398133Y-83736194D01*
X154354886Y-83735334D01*
X154131986Y-83735334D01*
X151720555Y-83735334D01*
X151755302Y-83693467D01*
X151801138Y-83636893D01*
X151952555Y-83464332D01*
X152152964Y-83256933D01*
X152378254Y-83038657D01*
X152604316Y-82833464D01*
X152645184Y-82798089D01*
X152918587Y-82558271D01*
X153123474Y-82365098D01*
X153267704Y-82209377D01*
X153359134Y-82081916D01*
X153405623Y-81973522D01*
X153415739Y-81896616D01*
X153368169Y-81695932D01*
X153231168Y-81486393D01*
X153014510Y-81277410D01*
X152727970Y-81078392D01*
X152381326Y-80898750D01*
X152377348Y-80896976D01*
X152182397Y-80818669D01*
X152057784Y-80787019D01*
X152007824Y-80801481D01*
X152036833Y-80861505D01*
X152107404Y-80931192D01*
X152227913Y-81097442D01*
X152276027Y-81258834D01*
X152341201Y-81520917D01*
X152448413Y-81760069D01*
X152613922Y-82010523D01*
X152664300Y-82076342D01*
X152873535Y-82343963D01*
X152741817Y-82453728D01*
X152610100Y-82563492D01*
X152355200Y-82401502D01*
X152151411Y-82241223D01*
X151969752Y-82029244D01*
X151800994Y-81753358D01*
X151685863Y-81516271D01*
X151521472Y-81252261D01*
X151282463Y-81005947D01*
X151002169Y-80808534D01*
X150872052Y-80724479D01*
X150835862Y-80672322D01*
X150894023Y-80650846D01*
X151046956Y-80658831D01*
X151053800Y-80659603D01*
X151197072Y-80669725D01*
X151265553Y-80652155D01*
X151261182Y-80597114D01*
X151185899Y-80494825D01*
X151104600Y-80403540D01*
X150987580Y-80268494D01*
X150937188Y-80187560D01*
X150951299Y-80152515D01*
X151027792Y-80155134D01*
X151041100Y-80157595D01*
X151133246Y-80173988D01*
X151301839Y-80202622D01*
X151523589Y-80239587D01*
X151775207Y-80280971D01*
X151797373Y-80284591D01*
X152357694Y-80389804D01*
X152848627Y-80513486D01*
X153301686Y-80664207D01*
X153535929Y-80757438D01*
X153704931Y-80823839D01*
X153837429Y-80867440D01*
X153909356Y-80880532D01*
X153914491Y-80878702D01*
X153946632Y-80799227D01*
X153930382Y-80679472D01*
X153875027Y-80548855D01*
X153789855Y-80436797D01*
X153769216Y-80418511D01*
X153649231Y-80268739D01*
X153615204Y-80101562D01*
X153662734Y-79938284D01*
X153787418Y-79800207D01*
X153910912Y-79732802D01*
X154117622Y-79692912D01*
X154314844Y-79731089D01*
X154482487Y-79841195D01*
X154554229Y-79929306D01*
X154620740Y-80099726D01*
X154588673Y-80259179D01*
X154456623Y-80413344D01*
X154429090Y-80435598D01*
X154340627Y-80515720D01*
X154295844Y-80599304D01*
X154280598Y-80719788D01*
X154279600Y-80788985D01*
X154284773Y-80917816D01*
X154298138Y-81003897D01*
X154311589Y-81026000D01*
X154399556Y-81014097D01*
X154547105Y-80983155D01*
X154726332Y-80940329D01*
X154909330Y-80892772D01*
X155068195Y-80847638D01*
X155175022Y-80812080D01*
X155203435Y-80797372D01*
X155212545Y-80745461D01*
X155221003Y-80620033D01*
X155228466Y-80432237D01*
X155234591Y-80193222D01*
X155239036Y-79914138D01*
X155241459Y-79606134D01*
X155241641Y-79553248D01*
X155245012Y-78351856D01*
X154940106Y-78087249D01*
X154635200Y-77822643D01*
X154635200Y-76606312D01*
X154635199Y-75389981D01*
X154457399Y-75250242D01*
X154342489Y-75145703D01*
X154290663Y-75047449D01*
X154279600Y-74932328D01*
X154319853Y-74761843D01*
X154426483Y-74632235D01*
X154578293Y-74546926D01*
X154754087Y-74509339D01*
X154932669Y-74522896D01*
D12*
%TO.C,C1*%
X133160000Y-86360000D02*
G75*
G03*
X133160000Y-86360000I-2620000J0D01*
G01*
X130540000Y-87400000D02*
X130540000Y-88940000D01*
X130540000Y-83780000D02*
X130540000Y-85320000D01*
X130580000Y-87400000D02*
X130580000Y-88940000D01*
X130580000Y-83780000D02*
X130580000Y-85320000D01*
X130620000Y-83781000D02*
X130620000Y-85320000D01*
X130620000Y-87400000D02*
X130620000Y-88939000D01*
X130660000Y-83782000D02*
X130660000Y-85320000D01*
X130660000Y-87400000D02*
X130660000Y-88938000D01*
X130700000Y-83784000D02*
X130700000Y-85320000D01*
X130700000Y-87400000D02*
X130700000Y-88936000D01*
X130740000Y-83787000D02*
X130740000Y-85320000D01*
X130740000Y-87400000D02*
X130740000Y-88933000D01*
X130780000Y-83791000D02*
X130780000Y-85320000D01*
X130780000Y-87400000D02*
X130780000Y-88929000D01*
X130820000Y-83795000D02*
X130820000Y-85320000D01*
X130820000Y-87400000D02*
X130820000Y-88925000D01*
X130860000Y-83799000D02*
X130860000Y-85320000D01*
X130860000Y-87400000D02*
X130860000Y-88921000D01*
X130900000Y-83804000D02*
X130900000Y-85320000D01*
X130900000Y-87400000D02*
X130900000Y-88916000D01*
X130940000Y-83810000D02*
X130940000Y-85320000D01*
X130940000Y-87400000D02*
X130940000Y-88910000D01*
X130980000Y-83817000D02*
X130980000Y-85320000D01*
X130980000Y-87400000D02*
X130980000Y-88903000D01*
X131020000Y-83824000D02*
X131020000Y-85320000D01*
X131020000Y-87400000D02*
X131020000Y-88896000D01*
X131060000Y-83832000D02*
X131060000Y-85320000D01*
X131060000Y-87400000D02*
X131060000Y-88888000D01*
X131100000Y-83840000D02*
X131100000Y-85320000D01*
X131100000Y-87400000D02*
X131100000Y-88880000D01*
X131140000Y-83849000D02*
X131140000Y-85320000D01*
X131140000Y-87400000D02*
X131140000Y-88871000D01*
X131180000Y-83859000D02*
X131180000Y-85320000D01*
X131180000Y-87400000D02*
X131180000Y-88861000D01*
X131220000Y-83869000D02*
X131220000Y-85320000D01*
X131220000Y-87400000D02*
X131220000Y-88851000D01*
X131261000Y-83880000D02*
X131261000Y-85320000D01*
X131261000Y-87400000D02*
X131261000Y-88840000D01*
X131301000Y-83892000D02*
X131301000Y-85320000D01*
X131301000Y-87400000D02*
X131301000Y-88828000D01*
X131341000Y-83905000D02*
X131341000Y-85320000D01*
X131341000Y-87400000D02*
X131341000Y-88815000D01*
X131381000Y-83918000D02*
X131381000Y-85320000D01*
X131381000Y-87400000D02*
X131381000Y-88802000D01*
X131421000Y-83932000D02*
X131421000Y-85320000D01*
X131421000Y-87400000D02*
X131421000Y-88788000D01*
X131461000Y-83946000D02*
X131461000Y-85320000D01*
X131461000Y-87400000D02*
X131461000Y-88774000D01*
X131501000Y-83962000D02*
X131501000Y-85320000D01*
X131501000Y-87400000D02*
X131501000Y-88758000D01*
X131541000Y-83978000D02*
X131541000Y-85320000D01*
X131541000Y-87400000D02*
X131541000Y-88742000D01*
X131581000Y-83995000D02*
X131581000Y-85320000D01*
X131581000Y-87400000D02*
X131581000Y-88725000D01*
X131621000Y-84012000D02*
X131621000Y-85320000D01*
X131621000Y-87400000D02*
X131621000Y-88708000D01*
X131661000Y-84031000D02*
X131661000Y-85320000D01*
X131661000Y-87400000D02*
X131661000Y-88689000D01*
X131701000Y-84050000D02*
X131701000Y-85320000D01*
X131701000Y-87400000D02*
X131701000Y-88670000D01*
X131741000Y-84070000D02*
X131741000Y-85320000D01*
X131741000Y-87400000D02*
X131741000Y-88650000D01*
X131781000Y-84092000D02*
X131781000Y-85320000D01*
X131781000Y-87400000D02*
X131781000Y-88628000D01*
X131821000Y-84113000D02*
X131821000Y-85320000D01*
X131821000Y-87400000D02*
X131821000Y-88607000D01*
X131861000Y-84136000D02*
X131861000Y-85320000D01*
X131861000Y-87400000D02*
X131861000Y-88584000D01*
X131901000Y-84160000D02*
X131901000Y-85320000D01*
X131901000Y-87400000D02*
X131901000Y-88560000D01*
X131941000Y-84185000D02*
X131941000Y-85320000D01*
X131941000Y-87400000D02*
X131941000Y-88535000D01*
X131981000Y-84211000D02*
X131981000Y-85320000D01*
X131981000Y-87400000D02*
X131981000Y-88509000D01*
X132021000Y-84238000D02*
X132021000Y-85320000D01*
X132021000Y-87400000D02*
X132021000Y-88482000D01*
X132061000Y-84265000D02*
X132061000Y-85320000D01*
X132061000Y-87400000D02*
X132061000Y-88455000D01*
X132101000Y-84295000D02*
X132101000Y-85320000D01*
X132101000Y-87400000D02*
X132101000Y-88425000D01*
X132141000Y-84325000D02*
X132141000Y-85320000D01*
X132141000Y-87400000D02*
X132141000Y-88395000D01*
X132181000Y-84356000D02*
X132181000Y-85320000D01*
X132181000Y-87400000D02*
X132181000Y-88364000D01*
X132221000Y-84389000D02*
X132221000Y-85320000D01*
X132221000Y-87400000D02*
X132221000Y-88331000D01*
X132261000Y-84423000D02*
X132261000Y-85320000D01*
X132261000Y-87400000D02*
X132261000Y-88297000D01*
X132301000Y-84459000D02*
X132301000Y-85320000D01*
X132301000Y-87400000D02*
X132301000Y-88261000D01*
X132341000Y-84496000D02*
X132341000Y-85320000D01*
X132341000Y-87400000D02*
X132341000Y-88224000D01*
X132381000Y-84534000D02*
X132381000Y-85320000D01*
X132381000Y-87400000D02*
X132381000Y-88186000D01*
X132421000Y-84575000D02*
X132421000Y-85320000D01*
X132421000Y-87400000D02*
X132421000Y-88145000D01*
X132461000Y-84617000D02*
X132461000Y-85320000D01*
X132461000Y-87400000D02*
X132461000Y-88103000D01*
X132501000Y-84661000D02*
X132501000Y-85320000D01*
X132501000Y-87400000D02*
X132501000Y-88059000D01*
X132541000Y-84707000D02*
X132541000Y-85320000D01*
X132541000Y-87400000D02*
X132541000Y-88013000D01*
X132581000Y-84755000D02*
X132581000Y-87965000D01*
X132621000Y-84806000D02*
X132621000Y-87914000D01*
X132661000Y-84860000D02*
X132661000Y-87860000D01*
X132701000Y-84917000D02*
X132701000Y-87803000D01*
X132741000Y-84977000D02*
X132741000Y-87743000D01*
X132781000Y-85041000D02*
X132781000Y-87679000D01*
X132821000Y-85109000D02*
X132821000Y-87611000D01*
X132861000Y-85182000D02*
X132861000Y-87538000D01*
X132901000Y-85262000D02*
X132901000Y-87458000D01*
X132941000Y-85349000D02*
X132941000Y-87371000D01*
X132981000Y-85445000D02*
X132981000Y-87275000D01*
X133021000Y-85555000D02*
X133021000Y-87165000D01*
X133061000Y-85683000D02*
X133061000Y-87037000D01*
X133101000Y-85842000D02*
X133101000Y-86878000D01*
X133141000Y-86076000D02*
X133141000Y-86644000D01*
X127735225Y-84885000D02*
X128235225Y-84885000D01*
X127985225Y-84635000D02*
X127985225Y-85135000D01*
%TO.C,C2*%
X131815000Y-93130000D02*
X131815000Y-93195000D01*
X131815000Y-90955000D02*
X131815000Y-91020000D01*
X128575000Y-93130000D02*
X128575000Y-93195000D01*
X128575000Y-90955000D02*
X128575000Y-91020000D01*
X128575000Y-93195000D02*
X131815000Y-93195000D01*
X128575000Y-90955000D02*
X131815000Y-90955000D01*
D13*
%TO.C,LED*%
X147952460Y-96773480D02*
X147952460Y-95376480D01*
X147952460Y-101218480D02*
X147952460Y-102742480D01*
X147190460Y-100837480D02*
X148714460Y-100837480D01*
X147190460Y-101091480D02*
X148714460Y-101091480D01*
X147952460Y-101345480D02*
X148714460Y-101345480D01*
X148714460Y-101345480D02*
X148714460Y-96773480D01*
X148714460Y-96773480D02*
X147190460Y-96773480D01*
X147190460Y-96773480D02*
X147190460Y-101345480D01*
X147190460Y-101345480D02*
X147952460Y-101345480D01*
D12*
%TO.C,GND1*%
X126365000Y-104140000D02*
X126365000Y-93980000D01*
X125095000Y-104140000D02*
X132715000Y-104140000D01*
X132715000Y-104140000D02*
X132715000Y-93980000D01*
X132715000Y-93980000D02*
X125095000Y-93980000D01*
X125095000Y-93980000D02*
X125095000Y-104140000D01*
%TO.C,OUT*%
X161290000Y-99695000D02*
X161290000Y-89535000D01*
X153670000Y-99695000D02*
X161290000Y-99695000D01*
X153670000Y-89535000D02*
X153670000Y-99695000D01*
X161290000Y-89535000D02*
X153670000Y-89535000D01*
X160020000Y-89535000D02*
X160020000Y-99695000D01*
%TO.C,R1*%
X138120001Y-99050001D02*
X138120001Y-100890001D01*
X138120001Y-100890001D02*
X141960001Y-100890001D01*
X141960001Y-100890001D02*
X141960001Y-99050001D01*
X141960001Y-99050001D02*
X138120001Y-99050001D01*
X137170001Y-99970001D02*
X138120001Y-99970001D01*
X142910001Y-99970001D02*
X141960001Y-99970001D01*
%TO.C,R2*%
X142910001Y-103120001D02*
X141960001Y-103120001D01*
X137170001Y-103120001D02*
X138120001Y-103120001D01*
X141960001Y-102200001D02*
X138120001Y-102200001D01*
X141960001Y-104040001D02*
X141960001Y-102200001D01*
X138120001Y-104040001D02*
X141960001Y-104040001D01*
X138120001Y-102200001D02*
X138120001Y-104040001D01*
%TO.C,R3*%
X147035000Y-89550000D02*
X148875000Y-89550000D01*
X148875000Y-89550000D02*
X148875000Y-85710000D01*
X148875000Y-85710000D02*
X147035000Y-85710000D01*
X147035000Y-85710000D02*
X147035000Y-89550000D01*
X147955000Y-90500000D02*
X147955000Y-89550000D01*
X147955000Y-84760000D02*
X147955000Y-85710000D01*
%TO.C,U1*%
X139190001Y-87390001D02*
X137540001Y-87390001D01*
X137540001Y-87390001D02*
X137540001Y-97670001D01*
X137540001Y-97670001D02*
X142840001Y-97670001D01*
X142840001Y-97670001D02*
X142840001Y-87390001D01*
X142840001Y-87390001D02*
X141190001Y-87390001D01*
X141190001Y-87390001D02*
G75*
G02*
X139190001Y-87390001I-1000000J0D01*
G01*
%TO.C,VCC*%
X135255000Y-78740000D02*
X145415000Y-78740000D01*
X135255000Y-77470000D02*
X135255000Y-85090000D01*
X135255000Y-85090000D02*
X145415000Y-85090000D01*
X145415000Y-85090000D02*
X145415000Y-77470000D01*
X145415000Y-77470000D02*
X135255000Y-77470000D01*
%TO.C,C1*%
D13*
X130373333Y-82967142D02*
X130325714Y-83014761D01*
X130182857Y-83062380D01*
X130087619Y-83062380D01*
X129944761Y-83014761D01*
X129849523Y-82919523D01*
X129801904Y-82824285D01*
X129754285Y-82633809D01*
X129754285Y-82490952D01*
X129801904Y-82300476D01*
X129849523Y-82205238D01*
X129944761Y-82110000D01*
X130087619Y-82062380D01*
X130182857Y-82062380D01*
X130325714Y-82110000D01*
X130373333Y-82157619D01*
X131325714Y-83062380D02*
X130754285Y-83062380D01*
X131040000Y-83062380D02*
X131040000Y-82062380D01*
X130944761Y-82205238D01*
X130849523Y-82300476D01*
X130754285Y-82348095D01*
%TO.C,C2*%
X126198333Y-92432142D02*
X126150714Y-92479761D01*
X126007857Y-92527380D01*
X125912619Y-92527380D01*
X125769761Y-92479761D01*
X125674523Y-92384523D01*
X125626904Y-92289285D01*
X125579285Y-92098809D01*
X125579285Y-91955952D01*
X125626904Y-91765476D01*
X125674523Y-91670238D01*
X125769761Y-91575000D01*
X125912619Y-91527380D01*
X126007857Y-91527380D01*
X126150714Y-91575000D01*
X126198333Y-91622619D01*
X126579285Y-91622619D02*
X126626904Y-91575000D01*
X126722142Y-91527380D01*
X126960238Y-91527380D01*
X127055476Y-91575000D01*
X127103095Y-91622619D01*
X127150714Y-91717857D01*
X127150714Y-91813095D01*
X127103095Y-91955952D01*
X126531666Y-92527380D01*
X127150714Y-92527380D01*
%TO.C,LED*%
X150944840Y-99352337D02*
X150944840Y-99828527D01*
X149944840Y-99828527D01*
X150421031Y-99019003D02*
X150421031Y-98685670D01*
X150944840Y-98542813D02*
X150944840Y-99019003D01*
X149944840Y-99019003D01*
X149944840Y-98542813D01*
X150944840Y-98114241D02*
X149944840Y-98114241D01*
X149944840Y-97876146D01*
X149992460Y-97733289D01*
X150087698Y-97638051D01*
X150182936Y-97590432D01*
X150373412Y-97542813D01*
X150516269Y-97542813D01*
X150706745Y-97590432D01*
X150801983Y-97638051D01*
X150897221Y-97733289D01*
X150944840Y-97876146D01*
X150944840Y-98114241D01*
%TO.C,GND1*%
X123404380Y-97586704D02*
X124404380Y-97253371D01*
X123404380Y-96920038D01*
X124356761Y-96158133D02*
X124404380Y-96253371D01*
X124404380Y-96443847D01*
X124356761Y-96539085D01*
X124309142Y-96586704D01*
X124213904Y-96634323D01*
X123928190Y-96634323D01*
X123832952Y-96586704D01*
X123785333Y-96539085D01*
X123737714Y-96443847D01*
X123737714Y-96253371D01*
X123785333Y-96158133D01*
X123502800Y-102412704D02*
X123455180Y-102507942D01*
X123455180Y-102650800D01*
X123502800Y-102793657D01*
X123598038Y-102888895D01*
X123693276Y-102936514D01*
X123883752Y-102984133D01*
X124026609Y-102984133D01*
X124217085Y-102936514D01*
X124312323Y-102888895D01*
X124407561Y-102793657D01*
X124455180Y-102650800D01*
X124455180Y-102555561D01*
X124407561Y-102412704D01*
X124359942Y-102365085D01*
X124026609Y-102365085D01*
X124026609Y-102555561D01*
X124455180Y-101936514D02*
X123455180Y-101936514D01*
X124455180Y-101365085D01*
X123455180Y-101365085D01*
X124455180Y-100888895D02*
X123455180Y-100888895D01*
X123455180Y-100650800D01*
X123502800Y-100507942D01*
X123598038Y-100412704D01*
X123693276Y-100365085D01*
X123883752Y-100317466D01*
X124026609Y-100317466D01*
X124217085Y-100365085D01*
X124312323Y-100412704D01*
X124407561Y-100507942D01*
X124455180Y-100650800D01*
X124455180Y-100888895D01*
%TO.C,OUT*%
X161961580Y-98612200D02*
X161961580Y-98421723D01*
X162009200Y-98326485D01*
X162104438Y-98231247D01*
X162294914Y-98183628D01*
X162628247Y-98183628D01*
X162818723Y-98231247D01*
X162913961Y-98326485D01*
X162961580Y-98421723D01*
X162961580Y-98612200D01*
X162913961Y-98707438D01*
X162818723Y-98802676D01*
X162628247Y-98850295D01*
X162294914Y-98850295D01*
X162104438Y-98802676D01*
X162009200Y-98707438D01*
X161961580Y-98612200D01*
X161961580Y-97755057D02*
X162771104Y-97755057D01*
X162866342Y-97707438D01*
X162913961Y-97659819D01*
X162961580Y-97564580D01*
X162961580Y-97374104D01*
X162913961Y-97278866D01*
X162866342Y-97231247D01*
X162771104Y-97183628D01*
X161961580Y-97183628D01*
X161961580Y-96850295D02*
X161961580Y-96278866D01*
X162961580Y-96564580D02*
X161961580Y-96564580D01*
X162161600Y-93141704D02*
X162113980Y-93236942D01*
X162113980Y-93379800D01*
X162161600Y-93522657D01*
X162256838Y-93617895D01*
X162352076Y-93665514D01*
X162542552Y-93713133D01*
X162685409Y-93713133D01*
X162875885Y-93665514D01*
X162971123Y-93617895D01*
X163066361Y-93522657D01*
X163113980Y-93379800D01*
X163113980Y-93284561D01*
X163066361Y-93141704D01*
X163018742Y-93094085D01*
X162685409Y-93094085D01*
X162685409Y-93284561D01*
X163113980Y-92665514D02*
X162113980Y-92665514D01*
X163113980Y-92094085D01*
X162113980Y-92094085D01*
X163113980Y-91617895D02*
X162113980Y-91617895D01*
X162113980Y-91379800D01*
X162161600Y-91236942D01*
X162256838Y-91141704D01*
X162352076Y-91094085D01*
X162542552Y-91046466D01*
X162685409Y-91046466D01*
X162875885Y-91094085D01*
X162971123Y-91141704D01*
X163066361Y-91236942D01*
X163113980Y-91379800D01*
X163113980Y-91617895D01*
%TO.C,R1*%
X139965133Y-100477580D02*
X139631800Y-100001390D01*
X139393704Y-100477580D02*
X139393704Y-99477580D01*
X139774657Y-99477580D01*
X139869895Y-99525200D01*
X139917514Y-99572819D01*
X139965133Y-99668057D01*
X139965133Y-99810914D01*
X139917514Y-99906152D01*
X139869895Y-99953771D01*
X139774657Y-100001390D01*
X139393704Y-100001390D01*
X140917514Y-100477580D02*
X140346085Y-100477580D01*
X140631800Y-100477580D02*
X140631800Y-99477580D01*
X140536561Y-99620438D01*
X140441323Y-99715676D01*
X140346085Y-99763295D01*
%TO.C,R2*%
X139863533Y-103601780D02*
X139530200Y-103125590D01*
X139292104Y-103601780D02*
X139292104Y-102601780D01*
X139673057Y-102601780D01*
X139768295Y-102649400D01*
X139815914Y-102697019D01*
X139863533Y-102792257D01*
X139863533Y-102935114D01*
X139815914Y-103030352D01*
X139768295Y-103077971D01*
X139673057Y-103125590D01*
X139292104Y-103125590D01*
X140244485Y-102697019D02*
X140292104Y-102649400D01*
X140387342Y-102601780D01*
X140625438Y-102601780D01*
X140720676Y-102649400D01*
X140768295Y-102697019D01*
X140815914Y-102792257D01*
X140815914Y-102887495D01*
X140768295Y-103030352D01*
X140196866Y-103601780D01*
X140815914Y-103601780D01*
%TO.C,R3*%
X146832580Y-87872866D02*
X146356390Y-88206200D01*
X146832580Y-88444295D02*
X145832580Y-88444295D01*
X145832580Y-88063342D01*
X145880200Y-87968104D01*
X145927819Y-87920485D01*
X146023057Y-87872866D01*
X146165914Y-87872866D01*
X146261152Y-87920485D01*
X146308771Y-87968104D01*
X146356390Y-88063342D01*
X146356390Y-88444295D01*
X145832580Y-87539533D02*
X145832580Y-86920485D01*
X146213533Y-87253819D01*
X146213533Y-87110961D01*
X146261152Y-87015723D01*
X146308771Y-86968104D01*
X146404009Y-86920485D01*
X146642104Y-86920485D01*
X146737342Y-86968104D01*
X146784961Y-87015723D01*
X146832580Y-87110961D01*
X146832580Y-87396676D01*
X146784961Y-87491914D01*
X146737342Y-87539533D01*
X147918514Y-88493457D02*
X148585180Y-88493457D01*
X147537561Y-88731552D02*
X148251847Y-88969647D01*
X148251847Y-88350600D01*
X147585180Y-88064885D02*
X147585180Y-87398219D01*
X148585180Y-87826790D01*
X147585180Y-86826790D02*
X147585180Y-86731552D01*
X147632800Y-86636314D01*
X147680419Y-86588695D01*
X147775657Y-86541076D01*
X147966133Y-86493457D01*
X148204228Y-86493457D01*
X148394704Y-86541076D01*
X148489942Y-86588695D01*
X148537561Y-86636314D01*
X148585180Y-86731552D01*
X148585180Y-86826790D01*
X148537561Y-86922028D01*
X148489942Y-86969647D01*
X148394704Y-87017266D01*
X148204228Y-87064885D01*
X147966133Y-87064885D01*
X147775657Y-87017266D01*
X147680419Y-86969647D01*
X147632800Y-86922028D01*
X147585180Y-86826790D01*
%TO.C,U1*%
X137134933Y-86659980D02*
X137134933Y-85659980D01*
X137706361Y-86659980D01*
X137706361Y-85659980D01*
X138182552Y-86136171D02*
X138515885Y-86136171D01*
X138658742Y-86659980D02*
X138182552Y-86659980D01*
X138182552Y-85659980D01*
X138658742Y-85659980D01*
X139563504Y-85659980D02*
X139087314Y-85659980D01*
X139039695Y-86136171D01*
X139087314Y-86088552D01*
X139182552Y-86040933D01*
X139420647Y-86040933D01*
X139515885Y-86088552D01*
X139563504Y-86136171D01*
X139611123Y-86231409D01*
X139611123Y-86469504D01*
X139563504Y-86564742D01*
X139515885Y-86612361D01*
X139420647Y-86659980D01*
X139182552Y-86659980D01*
X139087314Y-86612361D01*
X139039695Y-86564742D01*
X140515885Y-85659980D02*
X140039695Y-85659980D01*
X139992076Y-86136171D01*
X140039695Y-86088552D01*
X140134933Y-86040933D01*
X140373028Y-86040933D01*
X140468266Y-86088552D01*
X140515885Y-86136171D01*
X140563504Y-86231409D01*
X140563504Y-86469504D01*
X140515885Y-86564742D01*
X140468266Y-86612361D01*
X140373028Y-86659980D01*
X140134933Y-86659980D01*
X140039695Y-86612361D01*
X139992076Y-86564742D01*
X141468266Y-85659980D02*
X140992076Y-85659980D01*
X140944457Y-86136171D01*
X140992076Y-86088552D01*
X141087314Y-86040933D01*
X141325409Y-86040933D01*
X141420647Y-86088552D01*
X141468266Y-86136171D01*
X141515885Y-86231409D01*
X141515885Y-86469504D01*
X141468266Y-86564742D01*
X141420647Y-86612361D01*
X141325409Y-86659980D01*
X141087314Y-86659980D01*
X140992076Y-86612361D01*
X140944457Y-86564742D01*
X141944457Y-86659980D02*
X141944457Y-85659980D01*
X142325409Y-85659980D01*
X142420647Y-85707600D01*
X142468266Y-85755219D01*
X142515885Y-85850457D01*
X142515885Y-85993314D01*
X142468266Y-86088552D01*
X142420647Y-86136171D01*
X142325409Y-86183790D01*
X141944457Y-86183790D01*
%TO.C,VCC*%
X141592466Y-75880980D02*
X141925800Y-76880980D01*
X142259133Y-75880980D01*
X143163895Y-76785742D02*
X143116276Y-76833361D01*
X142973419Y-76880980D01*
X142878180Y-76880980D01*
X142735323Y-76833361D01*
X142640085Y-76738123D01*
X142592466Y-76642885D01*
X142544847Y-76452409D01*
X142544847Y-76309552D01*
X142592466Y-76119076D01*
X142640085Y-76023838D01*
X142735323Y-75928600D01*
X142878180Y-75880980D01*
X142973419Y-75880980D01*
X143116276Y-75928600D01*
X143163895Y-75976219D01*
X144163895Y-76785742D02*
X144116276Y-76833361D01*
X143973419Y-76880980D01*
X143878180Y-76880980D01*
X143735323Y-76833361D01*
X143640085Y-76738123D01*
X143592466Y-76642885D01*
X143544847Y-76452409D01*
X143544847Y-76309552D01*
X143592466Y-76119076D01*
X143640085Y-76023838D01*
X143735323Y-75928600D01*
X143878180Y-75880980D01*
X143973419Y-75880980D01*
X144116276Y-75928600D01*
X144163895Y-75976219D01*
X136753695Y-75903200D02*
X136658457Y-75855580D01*
X136515600Y-75855580D01*
X136372742Y-75903200D01*
X136277504Y-75998438D01*
X136229885Y-76093676D01*
X136182266Y-76284152D01*
X136182266Y-76427009D01*
X136229885Y-76617485D01*
X136277504Y-76712723D01*
X136372742Y-76807961D01*
X136515600Y-76855580D01*
X136610838Y-76855580D01*
X136753695Y-76807961D01*
X136801314Y-76760342D01*
X136801314Y-76427009D01*
X136610838Y-76427009D01*
X137229885Y-76855580D02*
X137229885Y-75855580D01*
X137801314Y-76855580D01*
X137801314Y-75855580D01*
X138277504Y-76855580D02*
X138277504Y-75855580D01*
X138515600Y-75855580D01*
X138658457Y-75903200D01*
X138753695Y-75998438D01*
X138801314Y-76093676D01*
X138848933Y-76284152D01*
X138848933Y-76427009D01*
X138801314Y-76617485D01*
X138753695Y-76712723D01*
X138658457Y-76807961D01*
X138515600Y-76855580D01*
X138277504Y-76855580D01*
%TD*%
M02*
