%TF.GenerationSoftware,KiCad,Pcbnew,(5.1.6)-1*%
%TF.CreationDate,2020-09-07T11:54:29+05:30*%
%TF.ProjectId,LM3914,4c4d3339-3134-42e6-9b69-6361645f7063,rev?*%
%TF.SameCoordinates,Original*%
%TF.FileFunction,Copper,L1,Top*%
%TF.FilePolarity,Positive*%
%FSLAX46Y46*%
G04 Gerber Fmt 4.6, Leading zero omitted, Abs format (unit mm)*
G04 Created by KiCad (PCBNEW (5.1.6)-1) date 2020-09-07 11:54:29*
%MOMM*%
%LPD*%
G01*
G04 APERTURE LIST*
%TA.AperFunction,ComponentPad*%
%ADD10C,1.620000*%
%TD*%
%TA.AperFunction,ComponentPad*%
%ADD11R,1.800000X1.800000*%
%TD*%
%TA.AperFunction,ComponentPad*%
%ADD12C,1.800000*%
%TD*%
%TA.AperFunction,ComponentPad*%
%ADD13R,2.540000X2.540000*%
%TD*%
%TA.AperFunction,ComponentPad*%
%ADD14C,2.540000*%
%TD*%
%TA.AperFunction,ComponentPad*%
%ADD15R,1.600000X1.600000*%
%TD*%
%TA.AperFunction,ComponentPad*%
%ADD16O,1.600000X1.600000*%
%TD*%
%TA.AperFunction,ComponentPad*%
%ADD17R,1.700000X1.700000*%
%TD*%
%TA.AperFunction,ComponentPad*%
%ADD18O,1.700000X1.700000*%
%TD*%
%TA.AperFunction,ComponentPad*%
%ADD19C,1.998980*%
%TD*%
G04 APERTURE END LIST*
D10*
%TO.P,10k1,3*%
%TO.N,Net-(10k1-Pad3)*%
X157734000Y-118342400D03*
%TO.P,10k1,2*%
%TO.N,Net-(10k1-Pad2)*%
X162734000Y-120842400D03*
%TO.P,10k1,1*%
%TO.N,Net-(10k1-Pad1)*%
X157734000Y-123342400D03*
%TD*%
D11*
%TO.P,D1,1*%
%TO.N,Net-(D1-Pad1)*%
X183210200Y-137287000D03*
D12*
%TO.P,D1,2*%
%TO.N,Net-(D1-Pad2)*%
X185750200Y-137287000D03*
%TD*%
D11*
%TO.P,D2,1*%
%TO.N,Net-(D2-Pad1)*%
X183134000Y-132486400D03*
D12*
%TO.P,D2,2*%
%TO.N,Net-(D1-Pad2)*%
X185674000Y-132486400D03*
%TD*%
D11*
%TO.P,D3,1*%
%TO.N,Net-(D3-Pad1)*%
X182981600Y-127635000D03*
D12*
%TO.P,D3,2*%
%TO.N,Net-(D1-Pad2)*%
X185521600Y-127635000D03*
%TD*%
D11*
%TO.P,D4,1*%
%TO.N,Net-(D4-Pad1)*%
X183057800Y-122809000D03*
D12*
%TO.P,D4,2*%
%TO.N,Net-(D1-Pad2)*%
X185597800Y-122809000D03*
%TD*%
D11*
%TO.P,D5,1*%
%TO.N,Net-(D5-Pad1)*%
X182930800Y-117957600D03*
D12*
%TO.P,D5,2*%
%TO.N,Net-(D1-Pad2)*%
X185470800Y-117957600D03*
%TD*%
D11*
%TO.P,D6,1*%
%TO.N,Net-(D6-Pad1)*%
X182981600Y-113207800D03*
D12*
%TO.P,D6,2*%
%TO.N,Net-(D1-Pad2)*%
X185521600Y-113207800D03*
%TD*%
D11*
%TO.P,D7,1*%
%TO.N,Net-(D7-Pad1)*%
X182956200Y-108381800D03*
D12*
%TO.P,D7,2*%
%TO.N,Net-(D1-Pad2)*%
X185496200Y-108381800D03*
%TD*%
D11*
%TO.P,D8,1*%
%TO.N,Net-(D8-Pad1)*%
X183210200Y-103505000D03*
D12*
%TO.P,D8,2*%
%TO.N,Net-(D1-Pad2)*%
X185750200Y-103505000D03*
%TD*%
D11*
%TO.P,D9,1*%
%TO.N,Net-(D9-Pad1)*%
X183261000Y-98298000D03*
D12*
%TO.P,D9,2*%
%TO.N,Net-(D1-Pad2)*%
X185801000Y-98298000D03*
%TD*%
D11*
%TO.P,D10,1*%
%TO.N,Net-(D10-Pad1)*%
X183261000Y-93345000D03*
D12*
%TO.P,D10,2*%
%TO.N,Net-(D1-Pad2)*%
X185801000Y-93345000D03*
%TD*%
D13*
%TO.P,GND VCC,1*%
%TO.N,Net-(D1-Pad2)*%
X175361600Y-93776800D03*
D14*
%TO.P,GND VCC,2*%
%TO.N,Net-(10k1-Pad1)*%
X170281600Y-93776800D03*
%TD*%
D15*
%TO.P,IC1,1*%
%TO.N,Net-(D10-Pad1)*%
X169168201Y-104854200D03*
D16*
%TO.P,IC1,10*%
%TO.N,Net-(D1-Pad1)*%
X176788201Y-125174200D03*
%TO.P,IC1,2*%
%TO.N,Net-(10k1-Pad1)*%
X169168201Y-107394200D03*
%TO.P,IC1,11*%
%TO.N,Net-(D2-Pad1)*%
X176788201Y-122634200D03*
%TO.P,IC1,3*%
%TO.N,Net-(IC1-Pad3)*%
X169168201Y-109934200D03*
%TO.P,IC1,12*%
%TO.N,Net-(D3-Pad1)*%
X176788201Y-120094200D03*
%TO.P,IC1,4*%
%TO.N,Net-(IC1-Pad4)*%
X169168201Y-112474200D03*
%TO.P,IC1,13*%
%TO.N,Net-(D4-Pad1)*%
X176788201Y-117554200D03*
%TO.P,IC1,5*%
%TO.N,Net-(10k1-Pad2)*%
X169168201Y-115014200D03*
%TO.P,IC1,14*%
%TO.N,Net-(D5-Pad1)*%
X176788201Y-115014200D03*
%TO.P,IC1,6*%
%TO.N,Net-(IC1-Pad6)*%
X169168201Y-117554200D03*
%TO.P,IC1,15*%
%TO.N,Net-(D6-Pad1)*%
X176788201Y-112474200D03*
%TO.P,IC1,7*%
%TO.N,Net-(IC1-Pad6)*%
X169168201Y-120094200D03*
%TO.P,IC1,16*%
%TO.N,Net-(D7-Pad1)*%
X176788201Y-109934200D03*
%TO.P,IC1,8*%
%TO.N,Net-(10k1-Pad1)*%
X169168201Y-122634200D03*
%TO.P,IC1,17*%
%TO.N,Net-(D8-Pad1)*%
X176788201Y-107394200D03*
%TO.P,IC1,9*%
%TO.N,Net-(IC1-Pad9)*%
X169168201Y-125174200D03*
%TO.P,IC1,18*%
%TO.N,Net-(D9-Pad1)*%
X176788201Y-104854200D03*
%TD*%
D17*
%TO.P,JUMPER,1*%
%TO.N,Net-(D1-Pad2)*%
X162991800Y-93878400D03*
D18*
%TO.P,JUMPER,2*%
%TO.N,Net-(IC1-Pad9)*%
X160451800Y-93878400D03*
%TD*%
D19*
%TO.P,R1,1*%
%TO.N,Net-(IC1-Pad6)*%
X165557200Y-127635000D03*
%TO.P,R1,2*%
%TO.N,Net-(10k1-Pad1)*%
X157937200Y-127635000D03*
%TD*%
%TO.P,R2,1*%
%TO.N,Net-(IC1-Pad4)*%
X163499800Y-115112800D03*
%TO.P,R2,2*%
%TO.N,Net-(10k1-Pad1)*%
X163499800Y-107492800D03*
%TD*%
%TO.P,R3,1*%
%TO.N,Net-(10k1-Pad3)*%
X158089600Y-115366800D03*
%TO.P,R3,2*%
%TO.N,Net-(IC1-Pad3)*%
X158089600Y-107746800D03*
%TD*%
M02*
