%TF.GenerationSoftware,KiCad,Pcbnew,(5.1.6)-1*%
%TF.CreationDate,2020-09-07T11:54:29+05:30*%
%TF.ProjectId,LM3914,4c4d3339-3134-42e6-9b69-6361645f7063,rev?*%
%TF.SameCoordinates,Original*%
%TF.FileFunction,Soldermask,Bot*%
%TF.FilePolarity,Negative*%
%FSLAX46Y46*%
G04 Gerber Fmt 4.6, Leading zero omitted, Abs format (unit mm)*
G04 Created by KiCad (PCBNEW (5.1.6)-1) date 2020-09-07 11:54:29*
%MOMM*%
%LPD*%
G01*
G04 APERTURE LIST*
%ADD10C,2.020000*%
%ADD11R,2.200000X2.200000*%
%ADD12C,2.200000*%
%ADD13R,2.940000X2.940000*%
%ADD14C,2.940000*%
%ADD15R,2.000000X2.000000*%
%ADD16O,2.000000X2.000000*%
%ADD17R,2.100000X2.100000*%
%ADD18O,2.100000X2.100000*%
%ADD19C,2.398980*%
G04 APERTURE END LIST*
D10*
%TO.C,10k1*%
X157734000Y-118342400D03*
X162734000Y-120842400D03*
X157734000Y-123342400D03*
%TD*%
D11*
%TO.C,D1*%
X183210200Y-137287000D03*
D12*
X185750200Y-137287000D03*
%TD*%
D11*
%TO.C,D2*%
X183134000Y-132486400D03*
D12*
X185674000Y-132486400D03*
%TD*%
D11*
%TO.C,D3*%
X182981600Y-127635000D03*
D12*
X185521600Y-127635000D03*
%TD*%
D11*
%TO.C,D4*%
X183057800Y-122809000D03*
D12*
X185597800Y-122809000D03*
%TD*%
D11*
%TO.C,D5*%
X182930800Y-117957600D03*
D12*
X185470800Y-117957600D03*
%TD*%
D11*
%TO.C,D6*%
X182981600Y-113207800D03*
D12*
X185521600Y-113207800D03*
%TD*%
D11*
%TO.C,D7*%
X182956200Y-108381800D03*
D12*
X185496200Y-108381800D03*
%TD*%
D11*
%TO.C,D8*%
X183210200Y-103505000D03*
D12*
X185750200Y-103505000D03*
%TD*%
D11*
%TO.C,D9*%
X183261000Y-98298000D03*
D12*
X185801000Y-98298000D03*
%TD*%
D11*
%TO.C,D10*%
X183261000Y-93345000D03*
D12*
X185801000Y-93345000D03*
%TD*%
D13*
%TO.C,GND VCC*%
X175361600Y-93776800D03*
D14*
X170281600Y-93776800D03*
%TD*%
D15*
%TO.C,IC1*%
X169168201Y-104854200D03*
D16*
X176788201Y-125174200D03*
X169168201Y-107394200D03*
X176788201Y-122634200D03*
X169168201Y-109934200D03*
X176788201Y-120094200D03*
X169168201Y-112474200D03*
X176788201Y-117554200D03*
X169168201Y-115014200D03*
X176788201Y-115014200D03*
X169168201Y-117554200D03*
X176788201Y-112474200D03*
X169168201Y-120094200D03*
X176788201Y-109934200D03*
X169168201Y-122634200D03*
X176788201Y-107394200D03*
X169168201Y-125174200D03*
X176788201Y-104854200D03*
%TD*%
D17*
%TO.C,JUMPER*%
X162991800Y-93878400D03*
D18*
X160451800Y-93878400D03*
%TD*%
D19*
%TO.C,R1*%
X165557200Y-127635000D03*
X157937200Y-127635000D03*
%TD*%
%TO.C,R2*%
X163499800Y-115112800D03*
X163499800Y-107492800D03*
%TD*%
%TO.C,R3*%
X158089600Y-115366800D03*
X158089600Y-107746800D03*
%TD*%
M02*
