M48
; DRILL file {KiCad (5.1.6)-1} date 09/07/20 11:54:33
; FORMAT={-:-/ absolute / inch / decimal}
; #@! TF.CreationDate,2020-09-07T11:54:33+05:30
; #@! TF.GenerationSoftware,Kicad,Pcbnew,(5.1.6)-1
; #@! TF.FileFunction,Plated,1,2,PTH
FMAT,2
INCH
T1C0.0315
T2C0.0354
T3C0.0394
T4C0.0394
T5C0.0600
%
G90
G05
T1
X6.6602Y-4.1281
X6.6602Y-4.2281
X6.6602Y-4.3281
X6.6602Y-4.4281
X6.6602Y-4.5281
X6.6602Y-4.6281
X6.6602Y-4.7281
X6.6602Y-4.8281
X6.6602Y-4.9281
X6.9602Y-4.1281
X6.9602Y-4.2281
X6.9602Y-4.3281
X6.9602Y-4.4281
X6.9602Y-4.5281
X6.9602Y-4.6281
X6.9602Y-4.7281
X6.9602Y-4.8281
X6.9602Y-4.9281
T2
X7.215Y-3.675
X7.315Y-3.675
X7.21Y-5.216
X7.31Y-5.216
X7.213Y-4.075
X7.313Y-4.075
X7.204Y-4.457
X7.304Y-4.457
X7.215Y-3.87
X7.315Y-3.87
X7.213Y-5.405
X7.313Y-5.405
X7.203Y-4.267
X7.303Y-4.267
X7.207Y-4.835
X7.307Y-4.835
X6.21Y-4.6591
X6.21Y-4.856
X6.4069Y-4.7576
X7.202Y-4.644
X7.302Y-4.644
X7.204Y-5.025
X7.304Y-5.025
T3
X6.317Y-3.696
X6.417Y-3.696
T4
X6.437Y-4.232
X6.437Y-4.532
X6.218Y-5.025
X6.518Y-5.025
X6.224Y-4.242
X6.224Y-4.542
T5
X6.704Y-3.692
X6.904Y-3.692
T0
M30
