%TF.GenerationSoftware,KiCad,Pcbnew,(5.1.6)-1*%
%TF.CreationDate,2020-09-07T11:54:29+05:30*%
%TF.ProjectId,LM3914,4c4d3339-3134-42e6-9b69-6361645f7063,rev?*%
%TF.SameCoordinates,Original*%
%TF.FileFunction,Copper,L2,Bot*%
%TF.FilePolarity,Positive*%
%FSLAX46Y46*%
G04 Gerber Fmt 4.6, Leading zero omitted, Abs format (unit mm)*
G04 Created by KiCad (PCBNEW (5.1.6)-1) date 2020-09-07 11:54:29*
%MOMM*%
%LPD*%
G01*
G04 APERTURE LIST*
%TA.AperFunction,NonConductor*%
%ADD10C,0.400000*%
%TD*%
%TA.AperFunction,ComponentPad*%
%ADD11C,1.620000*%
%TD*%
%TA.AperFunction,ComponentPad*%
%ADD12R,1.800000X1.800000*%
%TD*%
%TA.AperFunction,ComponentPad*%
%ADD13C,1.800000*%
%TD*%
%TA.AperFunction,ComponentPad*%
%ADD14R,2.540000X2.540000*%
%TD*%
%TA.AperFunction,ComponentPad*%
%ADD15C,2.540000*%
%TD*%
%TA.AperFunction,ComponentPad*%
%ADD16R,1.600000X1.600000*%
%TD*%
%TA.AperFunction,ComponentPad*%
%ADD17O,1.600000X1.600000*%
%TD*%
%TA.AperFunction,ComponentPad*%
%ADD18R,1.700000X1.700000*%
%TD*%
%TA.AperFunction,ComponentPad*%
%ADD19O,1.700000X1.700000*%
%TD*%
%TA.AperFunction,ComponentPad*%
%ADD20C,1.998980*%
%TD*%
%TA.AperFunction,Conductor*%
%ADD21C,1.000000*%
%TD*%
%TA.AperFunction,NonConductor*%
%ADD22C,0.254000*%
%TD*%
G04 APERTURE END LIST*
D10*
X195032142Y-131871428D02*
X192032142Y-131871428D01*
X192032142Y-130728571D01*
X192175000Y-130442857D01*
X192317857Y-130300000D01*
X192603571Y-130157142D01*
X193032142Y-130157142D01*
X193317857Y-130300000D01*
X193460714Y-130442857D01*
X193603571Y-130728571D01*
X193603571Y-131871428D01*
X192032142Y-128300000D02*
X192032142Y-127728571D01*
X192175000Y-127442857D01*
X192460714Y-127157142D01*
X193032142Y-127014285D01*
X194032142Y-127014285D01*
X194603571Y-127157142D01*
X194889285Y-127442857D01*
X195032142Y-127728571D01*
X195032142Y-128300000D01*
X194889285Y-128585714D01*
X194603571Y-128871428D01*
X194032142Y-129014285D01*
X193032142Y-129014285D01*
X192460714Y-128871428D01*
X192175000Y-128585714D01*
X192032142Y-128300000D01*
X192032142Y-126014285D02*
X195032142Y-125300000D01*
X192889285Y-124728571D01*
X195032142Y-124157142D01*
X192032142Y-123442857D01*
X193460714Y-122300000D02*
X193460714Y-121300000D01*
X195032142Y-120871428D02*
X195032142Y-122300000D01*
X192032142Y-122300000D01*
X192032142Y-120871428D01*
X195032142Y-117871428D02*
X193603571Y-118871428D01*
X195032142Y-119585714D02*
X192032142Y-119585714D01*
X192032142Y-118442857D01*
X192175000Y-118157142D01*
X192317857Y-118014285D01*
X192603571Y-117871428D01*
X193032142Y-117871428D01*
X193317857Y-118014285D01*
X193460714Y-118157142D01*
X193603571Y-118442857D01*
X193603571Y-119585714D01*
X193032142Y-117014285D02*
X193032142Y-115871428D01*
X192032142Y-116585714D02*
X194603571Y-116585714D01*
X194889285Y-116442857D01*
X195032142Y-116157142D01*
X195032142Y-115871428D01*
X195032142Y-114871428D02*
X193032142Y-114871428D01*
X193603571Y-114871428D02*
X193317857Y-114728571D01*
X193175000Y-114585714D01*
X193032142Y-114300000D01*
X193032142Y-114014285D01*
X195032142Y-112585714D02*
X194889285Y-112871428D01*
X194746428Y-113014285D01*
X194460714Y-113157142D01*
X193603571Y-113157142D01*
X193317857Y-113014285D01*
X193175000Y-112871428D01*
X193032142Y-112585714D01*
X193032142Y-112157142D01*
X193175000Y-111871428D01*
X193317857Y-111728571D01*
X193603571Y-111585714D01*
X194460714Y-111585714D01*
X194746428Y-111728571D01*
X194889285Y-111871428D01*
X195032142Y-112157142D01*
X195032142Y-112585714D01*
X193032142Y-110300000D02*
X195032142Y-110300000D01*
X193317857Y-110300000D02*
X193175000Y-110157142D01*
X193032142Y-109871428D01*
X193032142Y-109442857D01*
X193175000Y-109157142D01*
X193460714Y-109014285D01*
X195032142Y-109014285D01*
X195032142Y-107585714D02*
X193032142Y-107585714D01*
X192032142Y-107585714D02*
X192175000Y-107728571D01*
X192317857Y-107585714D01*
X192175000Y-107442857D01*
X192032142Y-107585714D01*
X192317857Y-107585714D01*
X194889285Y-104871428D02*
X195032142Y-105157142D01*
X195032142Y-105728571D01*
X194889285Y-106014285D01*
X194746428Y-106157142D01*
X194460714Y-106300000D01*
X193603571Y-106300000D01*
X193317857Y-106157142D01*
X193175000Y-106014285D01*
X193032142Y-105728571D01*
X193032142Y-105157142D01*
X193175000Y-104871428D01*
X194889285Y-103728571D02*
X195032142Y-103442857D01*
X195032142Y-102871428D01*
X194889285Y-102585714D01*
X194603571Y-102442857D01*
X194460714Y-102442857D01*
X194175000Y-102585714D01*
X194032142Y-102871428D01*
X194032142Y-103300000D01*
X193889285Y-103585714D01*
X193603571Y-103728571D01*
X193460714Y-103728571D01*
X193175000Y-103585714D01*
X193032142Y-103300000D01*
X193032142Y-102871428D01*
X193175000Y-102585714D01*
X193603571Y-99300000D02*
X193460714Y-99442857D01*
X193317857Y-99728571D01*
X193317857Y-100014285D01*
X193460714Y-100300000D01*
X193603571Y-100442857D01*
X193889285Y-100585714D01*
X194175000Y-100585714D01*
X194460714Y-100442857D01*
X194603571Y-100300000D01*
X194746428Y-100014285D01*
X194746428Y-99728571D01*
X194603571Y-99442857D01*
X194460714Y-99300000D01*
X193317857Y-99300000D02*
X194460714Y-99300000D01*
X194603571Y-99157142D01*
X194603571Y-99014285D01*
X194460714Y-98728571D01*
X194175000Y-98585714D01*
X193460714Y-98585714D01*
X193032142Y-98871428D01*
X192746428Y-99300000D01*
X192603571Y-99871428D01*
X192746428Y-100442857D01*
X193032142Y-100871428D01*
X193460714Y-101157142D01*
X194032142Y-101300000D01*
X194603571Y-101157142D01*
X195032142Y-100871428D01*
X195317857Y-100442857D01*
X195460714Y-99871428D01*
X195317857Y-99300000D01*
X195032142Y-98871428D01*
X196175000Y-97585714D02*
X196032142Y-97442857D01*
X195603571Y-97157142D01*
X195317857Y-97014285D01*
X194889285Y-96871428D01*
X194175000Y-96728571D01*
X193603571Y-96728571D01*
X192889285Y-96871428D01*
X192460714Y-97014285D01*
X192175000Y-97157142D01*
X191746428Y-97442857D01*
X191603571Y-97585714D01*
D11*
%TO.P,10k1,3*%
%TO.N,Net-(10k1-Pad3)*%
X157734000Y-118342400D03*
%TO.P,10k1,2*%
%TO.N,Net-(10k1-Pad2)*%
X162734000Y-120842400D03*
%TO.P,10k1,1*%
%TO.N,Net-(10k1-Pad1)*%
X157734000Y-123342400D03*
%TD*%
D12*
%TO.P,D1,1*%
%TO.N,Net-(D1-Pad1)*%
X183210200Y-137287000D03*
D13*
%TO.P,D1,2*%
%TO.N,Net-(D1-Pad2)*%
X185750200Y-137287000D03*
%TD*%
D12*
%TO.P,D2,1*%
%TO.N,Net-(D2-Pad1)*%
X183134000Y-132486400D03*
D13*
%TO.P,D2,2*%
%TO.N,Net-(D1-Pad2)*%
X185674000Y-132486400D03*
%TD*%
D12*
%TO.P,D3,1*%
%TO.N,Net-(D3-Pad1)*%
X182981600Y-127635000D03*
D13*
%TO.P,D3,2*%
%TO.N,Net-(D1-Pad2)*%
X185521600Y-127635000D03*
%TD*%
D12*
%TO.P,D4,1*%
%TO.N,Net-(D4-Pad1)*%
X183057800Y-122809000D03*
D13*
%TO.P,D4,2*%
%TO.N,Net-(D1-Pad2)*%
X185597800Y-122809000D03*
%TD*%
D12*
%TO.P,D5,1*%
%TO.N,Net-(D5-Pad1)*%
X182930800Y-117957600D03*
D13*
%TO.P,D5,2*%
%TO.N,Net-(D1-Pad2)*%
X185470800Y-117957600D03*
%TD*%
D12*
%TO.P,D6,1*%
%TO.N,Net-(D6-Pad1)*%
X182981600Y-113207800D03*
D13*
%TO.P,D6,2*%
%TO.N,Net-(D1-Pad2)*%
X185521600Y-113207800D03*
%TD*%
D12*
%TO.P,D7,1*%
%TO.N,Net-(D7-Pad1)*%
X182956200Y-108381800D03*
D13*
%TO.P,D7,2*%
%TO.N,Net-(D1-Pad2)*%
X185496200Y-108381800D03*
%TD*%
D12*
%TO.P,D8,1*%
%TO.N,Net-(D8-Pad1)*%
X183210200Y-103505000D03*
D13*
%TO.P,D8,2*%
%TO.N,Net-(D1-Pad2)*%
X185750200Y-103505000D03*
%TD*%
D12*
%TO.P,D9,1*%
%TO.N,Net-(D9-Pad1)*%
X183261000Y-98298000D03*
D13*
%TO.P,D9,2*%
%TO.N,Net-(D1-Pad2)*%
X185801000Y-98298000D03*
%TD*%
D12*
%TO.P,D10,1*%
%TO.N,Net-(D10-Pad1)*%
X183261000Y-93345000D03*
D13*
%TO.P,D10,2*%
%TO.N,Net-(D1-Pad2)*%
X185801000Y-93345000D03*
%TD*%
D14*
%TO.P,GND VCC,1*%
%TO.N,Net-(D1-Pad2)*%
X175361600Y-93776800D03*
D15*
%TO.P,GND VCC,2*%
%TO.N,Net-(10k1-Pad1)*%
X170281600Y-93776800D03*
%TD*%
D16*
%TO.P,IC1,1*%
%TO.N,Net-(D10-Pad1)*%
X169168201Y-104854200D03*
D17*
%TO.P,IC1,10*%
%TO.N,Net-(D1-Pad1)*%
X176788201Y-125174200D03*
%TO.P,IC1,2*%
%TO.N,Net-(10k1-Pad1)*%
X169168201Y-107394200D03*
%TO.P,IC1,11*%
%TO.N,Net-(D2-Pad1)*%
X176788201Y-122634200D03*
%TO.P,IC1,3*%
%TO.N,Net-(IC1-Pad3)*%
X169168201Y-109934200D03*
%TO.P,IC1,12*%
%TO.N,Net-(D3-Pad1)*%
X176788201Y-120094200D03*
%TO.P,IC1,4*%
%TO.N,Net-(IC1-Pad4)*%
X169168201Y-112474200D03*
%TO.P,IC1,13*%
%TO.N,Net-(D4-Pad1)*%
X176788201Y-117554200D03*
%TO.P,IC1,5*%
%TO.N,Net-(10k1-Pad2)*%
X169168201Y-115014200D03*
%TO.P,IC1,14*%
%TO.N,Net-(D5-Pad1)*%
X176788201Y-115014200D03*
%TO.P,IC1,6*%
%TO.N,Net-(IC1-Pad6)*%
X169168201Y-117554200D03*
%TO.P,IC1,15*%
%TO.N,Net-(D6-Pad1)*%
X176788201Y-112474200D03*
%TO.P,IC1,7*%
%TO.N,Net-(IC1-Pad6)*%
X169168201Y-120094200D03*
%TO.P,IC1,16*%
%TO.N,Net-(D7-Pad1)*%
X176788201Y-109934200D03*
%TO.P,IC1,8*%
%TO.N,Net-(10k1-Pad1)*%
X169168201Y-122634200D03*
%TO.P,IC1,17*%
%TO.N,Net-(D8-Pad1)*%
X176788201Y-107394200D03*
%TO.P,IC1,9*%
%TO.N,Net-(IC1-Pad9)*%
X169168201Y-125174200D03*
%TO.P,IC1,18*%
%TO.N,Net-(D9-Pad1)*%
X176788201Y-104854200D03*
%TD*%
D18*
%TO.P,JUMPER,1*%
%TO.N,Net-(D1-Pad2)*%
X162991800Y-93878400D03*
D19*
%TO.P,JUMPER,2*%
%TO.N,Net-(IC1-Pad9)*%
X160451800Y-93878400D03*
%TD*%
D20*
%TO.P,R1,1*%
%TO.N,Net-(IC1-Pad6)*%
X165557200Y-127635000D03*
%TO.P,R1,2*%
%TO.N,Net-(10k1-Pad1)*%
X157937200Y-127635000D03*
%TD*%
%TO.P,R2,1*%
%TO.N,Net-(IC1-Pad4)*%
X163499800Y-115112800D03*
%TO.P,R2,2*%
%TO.N,Net-(10k1-Pad1)*%
X163499800Y-107492800D03*
%TD*%
%TO.P,R3,1*%
%TO.N,Net-(10k1-Pad3)*%
X158089600Y-115366800D03*
%TO.P,R3,2*%
%TO.N,Net-(IC1-Pad3)*%
X158089600Y-107746800D03*
%TD*%
D21*
%TO.N,Net-(10k1-Pad3)*%
X158089600Y-115366800D02*
X158089600Y-117986800D01*
X158089600Y-117986800D02*
X157734000Y-118342400D01*
%TO.N,Net-(10k1-Pad2)*%
X169168201Y-115014200D02*
X167560800Y-115014200D01*
X167560800Y-115014200D02*
X165100000Y-117475000D01*
X165100000Y-118476400D02*
X162734000Y-120842400D01*
X165100000Y-117475000D02*
X165100000Y-118476400D01*
%TO.N,Net-(10k1-Pad1)*%
X157937200Y-127635000D02*
X157937200Y-123545600D01*
X157937200Y-123545600D02*
X157734000Y-123342400D01*
X157734000Y-123342400D02*
X154940000Y-120548400D01*
X154940000Y-120548400D02*
X154940000Y-104140000D01*
X154940000Y-104140000D02*
X156210000Y-102870000D01*
X163499800Y-107492800D02*
X163499800Y-103809800D01*
X163499800Y-103809800D02*
X162560000Y-102870000D01*
X162560000Y-102870000D02*
X156210000Y-102870000D01*
X169069601Y-107492800D02*
X169168201Y-107394200D01*
X163499800Y-107492800D02*
X169069601Y-107492800D01*
X163499800Y-107492800D02*
X163499800Y-97485200D01*
X167208200Y-93776800D02*
X170281600Y-93776800D01*
X163499800Y-97485200D02*
X167208200Y-93776800D01*
X157734000Y-123342400D02*
X165582600Y-123342400D01*
X166290800Y-122634200D02*
X169168201Y-122634200D01*
X165582600Y-123342400D02*
X166290800Y-122634200D01*
%TO.N,Net-(D1-Pad1)*%
X183210200Y-137287000D02*
X177927000Y-137287000D01*
X176788201Y-136148201D02*
X176788201Y-125174200D01*
X177927000Y-137287000D02*
X176788201Y-136148201D01*
%TO.N,Net-(D1-Pad2)*%
X173990000Y-88900000D02*
X165100000Y-88900000D01*
X162991800Y-91008200D02*
X162991800Y-93878400D01*
X165100000Y-88900000D02*
X162991800Y-91008200D01*
X175361600Y-93776800D02*
X175361600Y-90271600D01*
X175361600Y-90271600D02*
X173990000Y-88900000D01*
X175361600Y-93776800D02*
X175361600Y-91338400D01*
X175361600Y-91338400D02*
X178435000Y-88265000D01*
X178435000Y-88265000D02*
X184150000Y-88265000D01*
X185801000Y-89916000D02*
X185801000Y-93345000D01*
X184150000Y-88265000D02*
X185801000Y-89916000D01*
X185750200Y-132562600D02*
X185674000Y-132486400D01*
X185750200Y-137287000D02*
X185750200Y-132562600D01*
X185674000Y-127787400D02*
X185521600Y-127635000D01*
X185674000Y-132486400D02*
X185674000Y-127787400D01*
X185521600Y-122885200D02*
X185597800Y-122809000D01*
X185521600Y-127635000D02*
X185521600Y-122885200D01*
X185597800Y-118084600D02*
X185470800Y-117957600D01*
X185597800Y-122809000D02*
X185597800Y-118084600D01*
X185521600Y-117906800D02*
X185470800Y-117957600D01*
X185521600Y-113207800D02*
X185521600Y-117906800D01*
X185496200Y-113182400D02*
X185521600Y-113207800D01*
X185496200Y-108381800D02*
X185496200Y-113182400D01*
X185496200Y-103759000D02*
X185750200Y-103505000D01*
X185496200Y-108381800D02*
X185496200Y-103759000D01*
X185750200Y-98348800D02*
X185801000Y-98298000D01*
X185750200Y-103505000D02*
X185750200Y-98348800D01*
X185801000Y-98298000D02*
X185801000Y-93345000D01*
%TO.N,Net-(D2-Pad1)*%
X176788201Y-122634200D02*
X177879200Y-122634200D01*
X177879200Y-122634200D02*
X179070000Y-123825000D01*
X179070000Y-123825000D02*
X179070000Y-130810000D01*
X180746400Y-132486400D02*
X183134000Y-132486400D01*
X179070000Y-130810000D02*
X180746400Y-132486400D01*
%TO.N,Net-(D3-Pad1)*%
X182981600Y-127635000D02*
X182981600Y-127101600D01*
X180425610Y-124545610D02*
X180425610Y-122640610D01*
X182981600Y-127101600D02*
X180425610Y-124545610D01*
X177879200Y-120094200D02*
X176788201Y-120094200D01*
X180425610Y-122640610D02*
X177879200Y-120094200D01*
%TO.N,Net-(D4-Pad1)*%
X178514200Y-117554200D02*
X176788201Y-117554200D01*
X183057800Y-122809000D02*
X183057800Y-122097800D01*
X183057800Y-122097800D02*
X178514200Y-117554200D01*
%TO.N,Net-(D5-Pad1)*%
X179987400Y-115014200D02*
X182930800Y-117957600D01*
X176788201Y-115014200D02*
X179987400Y-115014200D01*
%TO.N,Net-(D6-Pad1)*%
X182248000Y-112474200D02*
X182981600Y-113207800D01*
X176788201Y-112474200D02*
X182248000Y-112474200D01*
%TO.N,Net-(D7-Pad1)*%
X176788201Y-109934200D02*
X180260800Y-109934200D01*
X181813200Y-108381800D02*
X182956200Y-108381800D01*
X180260800Y-109934200D02*
X181813200Y-108381800D01*
%TO.N,Net-(D8-Pad1)*%
X176788201Y-107394200D02*
X178990800Y-107394200D01*
X178990800Y-107394200D02*
X180340000Y-106045000D01*
X180340000Y-106045000D02*
X180340000Y-104140000D01*
X180975000Y-103505000D02*
X183210200Y-103505000D01*
X180340000Y-104140000D02*
X180975000Y-103505000D01*
%TO.N,Net-(D9-Pad1)*%
X176788201Y-104854200D02*
X176788201Y-100706799D01*
X179197000Y-98298000D02*
X183261000Y-98298000D01*
X176788201Y-100706799D02*
X179197000Y-98298000D01*
%TO.N,Net-(D10-Pad1)*%
X169168201Y-104854200D02*
X169168201Y-101976799D01*
X169168201Y-101976799D02*
X172085000Y-99060000D01*
X172085000Y-99060000D02*
X175260000Y-99060000D01*
X180975000Y-93345000D02*
X183261000Y-93345000D01*
X175260000Y-99060000D02*
X180975000Y-93345000D01*
%TO.N,Net-(IC1-Pad3)*%
X158089600Y-107746800D02*
X158089600Y-109194600D01*
X158829200Y-109934200D02*
X169168201Y-109934200D01*
X158089600Y-109194600D02*
X158829200Y-109934200D01*
%TO.N,Net-(IC1-Pad4)*%
X163499800Y-115112800D02*
X163499800Y-113360200D01*
X164385800Y-112474200D02*
X169168201Y-112474200D01*
X163499800Y-113360200D02*
X164385800Y-112474200D01*
%TO.N,Net-(IC1-Pad6)*%
X169168201Y-117554200D02*
X169168201Y-120094200D01*
X172720000Y-119380000D02*
X170894200Y-117554200D01*
X170894200Y-117554200D02*
X169168201Y-117554200D01*
X172720000Y-126365000D02*
X172720000Y-119380000D01*
X165557200Y-127635000D02*
X171450000Y-127635000D01*
X171450000Y-127635000D02*
X172720000Y-126365000D01*
%TO.N,Net-(IC1-Pad9)*%
X163115800Y-125174200D02*
X169168201Y-125174200D01*
X162560000Y-128270000D02*
X162560000Y-125730000D01*
X162560000Y-125730000D02*
X163115800Y-125174200D01*
X160020000Y-130810000D02*
X162560000Y-128270000D01*
X155041600Y-93878400D02*
X151130000Y-97790000D01*
X160451800Y-93878400D02*
X155041600Y-93878400D01*
X151130000Y-97790000D02*
X151130000Y-128270000D01*
X153670000Y-130810000D02*
X160020000Y-130810000D01*
X151130000Y-128270000D02*
X153670000Y-130810000D01*
%TD*%
D22*
G36*
X198873000Y-142623000D02*
G01*
X144877000Y-142623000D01*
X144877000Y-138233966D01*
X146599631Y-138233966D01*
X146599631Y-138626034D01*
X146676119Y-139010569D01*
X146826157Y-139372793D01*
X147043979Y-139698787D01*
X147321213Y-139976021D01*
X147647207Y-140193843D01*
X148009431Y-140343881D01*
X148393966Y-140420369D01*
X148786034Y-140420369D01*
X149170569Y-140343881D01*
X149532793Y-140193843D01*
X149858787Y-139976021D01*
X150136021Y-139698787D01*
X150353843Y-139372793D01*
X150503881Y-139010569D01*
X150580369Y-138626034D01*
X150580369Y-138233966D01*
X150503881Y-137849431D01*
X150353843Y-137487207D01*
X150136021Y-137161213D01*
X149858787Y-136883979D01*
X149532793Y-136666157D01*
X149170569Y-136516119D01*
X148786034Y-136439631D01*
X148393966Y-136439631D01*
X148009431Y-136516119D01*
X147647207Y-136666157D01*
X147321213Y-136883979D01*
X147043979Y-137161213D01*
X146826157Y-137487207D01*
X146676119Y-137849431D01*
X146599631Y-138233966D01*
X144877000Y-138233966D01*
X144877000Y-97790000D01*
X149989509Y-97790000D01*
X149995000Y-97845751D01*
X149995001Y-128214238D01*
X149989509Y-128270000D01*
X150011423Y-128492498D01*
X150076324Y-128706446D01*
X150115201Y-128779180D01*
X150181717Y-128903623D01*
X150323552Y-129076449D01*
X150366860Y-129111991D01*
X152828009Y-131573141D01*
X152863551Y-131616449D01*
X153036377Y-131758284D01*
X153233553Y-131863676D01*
X153447501Y-131928577D01*
X153614248Y-131945000D01*
X153614257Y-131945000D01*
X153669999Y-131950490D01*
X153725741Y-131945000D01*
X159964249Y-131945000D01*
X160020000Y-131950491D01*
X160075751Y-131945000D01*
X160075752Y-131945000D01*
X160242499Y-131928577D01*
X160456447Y-131863676D01*
X160653623Y-131758284D01*
X160826449Y-131616449D01*
X160861996Y-131573135D01*
X163323141Y-129111991D01*
X163366449Y-129076449D01*
X163508284Y-128903623D01*
X163613676Y-128706447D01*
X163678577Y-128492499D01*
X163695000Y-128325752D01*
X163695000Y-128325743D01*
X163700490Y-128270001D01*
X163695000Y-128214259D01*
X163695000Y-126309200D01*
X164599394Y-126309200D01*
X164515273Y-126365408D01*
X164287608Y-126593073D01*
X164108733Y-126860778D01*
X163985522Y-127158237D01*
X163922710Y-127474017D01*
X163922710Y-127795983D01*
X163985522Y-128111763D01*
X164108733Y-128409222D01*
X164287608Y-128676927D01*
X164515273Y-128904592D01*
X164782978Y-129083467D01*
X165080437Y-129206678D01*
X165396217Y-129269490D01*
X165718183Y-129269490D01*
X166033963Y-129206678D01*
X166331422Y-129083467D01*
X166599127Y-128904592D01*
X166733719Y-128770000D01*
X171394249Y-128770000D01*
X171450000Y-128775491D01*
X171505751Y-128770000D01*
X171505752Y-128770000D01*
X171672499Y-128753577D01*
X171886447Y-128688676D01*
X172083623Y-128583284D01*
X172256449Y-128441449D01*
X172291996Y-128398135D01*
X173483140Y-127206992D01*
X173526449Y-127171449D01*
X173668284Y-126998623D01*
X173773676Y-126801447D01*
X173838577Y-126587499D01*
X173855000Y-126420752D01*
X173855000Y-126420745D01*
X173860490Y-126365001D01*
X173855000Y-126309257D01*
X173855000Y-119435751D01*
X173860491Y-119379999D01*
X173838577Y-119157500D01*
X173813907Y-119076177D01*
X173773676Y-118943553D01*
X173668284Y-118746377D01*
X173526449Y-118573551D01*
X173483140Y-118538009D01*
X171736196Y-116791065D01*
X171700649Y-116747751D01*
X171527823Y-116605916D01*
X171330647Y-116500524D01*
X171116699Y-116435623D01*
X170949952Y-116419200D01*
X170949951Y-116419200D01*
X170894200Y-116413709D01*
X170838449Y-116419200D01*
X170052485Y-116419200D01*
X169850442Y-116284200D01*
X170082960Y-116128837D01*
X170282838Y-115928959D01*
X170439881Y-115693927D01*
X170548054Y-115432774D01*
X170603201Y-115155535D01*
X170603201Y-114872865D01*
X170548054Y-114595626D01*
X170439881Y-114334473D01*
X170282838Y-114099441D01*
X170082960Y-113899563D01*
X169850442Y-113744200D01*
X170082960Y-113588837D01*
X170282838Y-113388959D01*
X170439881Y-113153927D01*
X170548054Y-112892774D01*
X170603201Y-112615535D01*
X170603201Y-112332865D01*
X170548054Y-112055626D01*
X170439881Y-111794473D01*
X170282838Y-111559441D01*
X170082960Y-111359563D01*
X169850442Y-111204200D01*
X170082960Y-111048837D01*
X170282838Y-110848959D01*
X170439881Y-110613927D01*
X170548054Y-110352774D01*
X170603201Y-110075535D01*
X170603201Y-109792865D01*
X170548054Y-109515626D01*
X170439881Y-109254473D01*
X170282838Y-109019441D01*
X170082960Y-108819563D01*
X169850442Y-108664200D01*
X170082960Y-108508837D01*
X170282838Y-108308959D01*
X170439881Y-108073927D01*
X170548054Y-107812774D01*
X170603201Y-107535535D01*
X170603201Y-107252865D01*
X170548054Y-106975626D01*
X170439881Y-106714473D01*
X170282838Y-106479441D01*
X170084240Y-106280843D01*
X170092683Y-106280012D01*
X170212381Y-106243702D01*
X170322695Y-106184737D01*
X170419386Y-106105385D01*
X170498738Y-106008694D01*
X170557703Y-105898380D01*
X170594013Y-105778682D01*
X170606273Y-105654200D01*
X170606273Y-104054200D01*
X170594013Y-103929718D01*
X170557703Y-103810020D01*
X170498738Y-103699706D01*
X170419386Y-103603015D01*
X170322695Y-103523663D01*
X170303201Y-103513243D01*
X170303201Y-102446930D01*
X172555133Y-100195000D01*
X175204249Y-100195000D01*
X175260000Y-100200491D01*
X175315751Y-100195000D01*
X175315752Y-100195000D01*
X175482499Y-100178577D01*
X175696447Y-100113676D01*
X175892822Y-100008712D01*
X175839918Y-100073176D01*
X175783585Y-100178569D01*
X175734525Y-100270353D01*
X175669624Y-100484301D01*
X175647710Y-100706799D01*
X175653202Y-100762560D01*
X175653201Y-103969916D01*
X175516521Y-104174473D01*
X175408348Y-104435626D01*
X175353201Y-104712865D01*
X175353201Y-104995535D01*
X175408348Y-105272774D01*
X175516521Y-105533927D01*
X175673564Y-105768959D01*
X175873442Y-105968837D01*
X176105960Y-106124200D01*
X175873442Y-106279563D01*
X175673564Y-106479441D01*
X175516521Y-106714473D01*
X175408348Y-106975626D01*
X175353201Y-107252865D01*
X175353201Y-107535535D01*
X175408348Y-107812774D01*
X175516521Y-108073927D01*
X175673564Y-108308959D01*
X175873442Y-108508837D01*
X176105960Y-108664200D01*
X175873442Y-108819563D01*
X175673564Y-109019441D01*
X175516521Y-109254473D01*
X175408348Y-109515626D01*
X175353201Y-109792865D01*
X175353201Y-110075535D01*
X175408348Y-110352774D01*
X175516521Y-110613927D01*
X175673564Y-110848959D01*
X175873442Y-111048837D01*
X176105960Y-111204200D01*
X175873442Y-111359563D01*
X175673564Y-111559441D01*
X175516521Y-111794473D01*
X175408348Y-112055626D01*
X175353201Y-112332865D01*
X175353201Y-112615535D01*
X175408348Y-112892774D01*
X175516521Y-113153927D01*
X175673564Y-113388959D01*
X175873442Y-113588837D01*
X176105960Y-113744200D01*
X175873442Y-113899563D01*
X175673564Y-114099441D01*
X175516521Y-114334473D01*
X175408348Y-114595626D01*
X175353201Y-114872865D01*
X175353201Y-115155535D01*
X175408348Y-115432774D01*
X175516521Y-115693927D01*
X175673564Y-115928959D01*
X175873442Y-116128837D01*
X176105960Y-116284200D01*
X175873442Y-116439563D01*
X175673564Y-116639441D01*
X175516521Y-116874473D01*
X175408348Y-117135626D01*
X175353201Y-117412865D01*
X175353201Y-117695535D01*
X175408348Y-117972774D01*
X175516521Y-118233927D01*
X175673564Y-118468959D01*
X175873442Y-118668837D01*
X176105960Y-118824200D01*
X175873442Y-118979563D01*
X175673564Y-119179441D01*
X175516521Y-119414473D01*
X175408348Y-119675626D01*
X175353201Y-119952865D01*
X175353201Y-120235535D01*
X175408348Y-120512774D01*
X175516521Y-120773927D01*
X175673564Y-121008959D01*
X175873442Y-121208837D01*
X176105960Y-121364200D01*
X175873442Y-121519563D01*
X175673564Y-121719441D01*
X175516521Y-121954473D01*
X175408348Y-122215626D01*
X175353201Y-122492865D01*
X175353201Y-122775535D01*
X175408348Y-123052774D01*
X175516521Y-123313927D01*
X175673564Y-123548959D01*
X175873442Y-123748837D01*
X176105960Y-123904200D01*
X175873442Y-124059563D01*
X175673564Y-124259441D01*
X175516521Y-124494473D01*
X175408348Y-124755626D01*
X175353201Y-125032865D01*
X175353201Y-125315535D01*
X175408348Y-125592774D01*
X175516521Y-125853927D01*
X175653202Y-126058485D01*
X175653201Y-136092449D01*
X175647710Y-136148201D01*
X175653201Y-136203952D01*
X175669624Y-136370699D01*
X175734525Y-136584647D01*
X175839917Y-136781824D01*
X175981752Y-136954650D01*
X176025065Y-136990197D01*
X177085008Y-138050140D01*
X177120551Y-138093449D01*
X177293377Y-138235284D01*
X177490553Y-138340676D01*
X177704501Y-138405577D01*
X177927000Y-138427491D01*
X177982751Y-138422000D01*
X181717913Y-138422000D01*
X181720698Y-138431180D01*
X181779663Y-138541494D01*
X181859015Y-138638185D01*
X181955706Y-138717537D01*
X182066020Y-138776502D01*
X182185718Y-138812812D01*
X182310200Y-138825072D01*
X184110200Y-138825072D01*
X184234682Y-138812812D01*
X184354380Y-138776502D01*
X184464694Y-138717537D01*
X184561385Y-138638185D01*
X184640737Y-138541494D01*
X184699702Y-138431180D01*
X184705256Y-138412873D01*
X184771695Y-138479312D01*
X185023105Y-138647299D01*
X185302457Y-138763011D01*
X185599016Y-138822000D01*
X185901384Y-138822000D01*
X186197943Y-138763011D01*
X186477295Y-138647299D01*
X186728705Y-138479312D01*
X186942512Y-138265505D01*
X186963585Y-138233966D01*
X193589631Y-138233966D01*
X193589631Y-138626034D01*
X193666119Y-139010569D01*
X193816157Y-139372793D01*
X194033979Y-139698787D01*
X194311213Y-139976021D01*
X194637207Y-140193843D01*
X194999431Y-140343881D01*
X195383966Y-140420369D01*
X195776034Y-140420369D01*
X196160569Y-140343881D01*
X196522793Y-140193843D01*
X196848787Y-139976021D01*
X197126021Y-139698787D01*
X197343843Y-139372793D01*
X197493881Y-139010569D01*
X197570369Y-138626034D01*
X197570369Y-138233966D01*
X197493881Y-137849431D01*
X197343843Y-137487207D01*
X197126021Y-137161213D01*
X196848787Y-136883979D01*
X196522793Y-136666157D01*
X196160569Y-136516119D01*
X195776034Y-136439631D01*
X195383966Y-136439631D01*
X194999431Y-136516119D01*
X194637207Y-136666157D01*
X194311213Y-136883979D01*
X194033979Y-137161213D01*
X193816157Y-137487207D01*
X193666119Y-137849431D01*
X193589631Y-138233966D01*
X186963585Y-138233966D01*
X187110499Y-138014095D01*
X187226211Y-137734743D01*
X187285200Y-137438184D01*
X187285200Y-137135816D01*
X187226211Y-136839257D01*
X187110499Y-136559905D01*
X186942512Y-136308495D01*
X186885200Y-136251183D01*
X186885200Y-133436637D01*
X187034299Y-133213495D01*
X187150011Y-132934143D01*
X187209000Y-132637584D01*
X187209000Y-132335216D01*
X187150011Y-132038657D01*
X187034299Y-131759305D01*
X186866312Y-131507895D01*
X186809000Y-131450583D01*
X186809000Y-128471196D01*
X186881899Y-128362095D01*
X186997611Y-128082743D01*
X187056600Y-127786184D01*
X187056600Y-127483816D01*
X186997611Y-127187257D01*
X186881899Y-126907905D01*
X186713912Y-126656495D01*
X186656600Y-126599183D01*
X186656600Y-123921017D01*
X186790112Y-123787505D01*
X186958099Y-123536095D01*
X187073811Y-123256743D01*
X187132800Y-122960184D01*
X187132800Y-122657816D01*
X187073811Y-122361257D01*
X186958099Y-122081905D01*
X186790112Y-121830495D01*
X186732800Y-121773183D01*
X186732800Y-118831810D01*
X186831099Y-118684695D01*
X186946811Y-118405343D01*
X187005800Y-118108784D01*
X187005800Y-117806416D01*
X186946811Y-117509857D01*
X186831099Y-117230505D01*
X186663112Y-116979095D01*
X186656600Y-116972583D01*
X186656600Y-114243617D01*
X186713912Y-114186305D01*
X186881899Y-113934895D01*
X186997611Y-113655543D01*
X187056600Y-113358984D01*
X187056600Y-113056616D01*
X186997611Y-112760057D01*
X186881899Y-112480705D01*
X186713912Y-112229295D01*
X186631200Y-112146583D01*
X186631200Y-109417617D01*
X186688512Y-109360305D01*
X186856499Y-109108895D01*
X186972211Y-108829543D01*
X187031200Y-108532984D01*
X187031200Y-108230616D01*
X186972211Y-107934057D01*
X186856499Y-107654705D01*
X186688512Y-107403295D01*
X186631200Y-107345983D01*
X186631200Y-104762463D01*
X186728705Y-104697312D01*
X186942512Y-104483505D01*
X187110499Y-104232095D01*
X187226211Y-103952743D01*
X187285200Y-103656184D01*
X187285200Y-103353816D01*
X187226211Y-103057257D01*
X187110499Y-102777905D01*
X186942512Y-102526495D01*
X186885200Y-102469183D01*
X186885200Y-99384617D01*
X186993312Y-99276505D01*
X187161299Y-99025095D01*
X187277011Y-98745743D01*
X187336000Y-98449184D01*
X187336000Y-98146816D01*
X187277011Y-97850257D01*
X187161299Y-97570905D01*
X186993312Y-97319495D01*
X186936000Y-97262183D01*
X186936000Y-95179285D01*
X190780000Y-95179285D01*
X190780000Y-133420714D01*
X196950000Y-133420714D01*
X196950000Y-95179285D01*
X190780000Y-95179285D01*
X186936000Y-95179285D01*
X186936000Y-94380817D01*
X186993312Y-94323505D01*
X187161299Y-94072095D01*
X187277011Y-93792743D01*
X187336000Y-93496184D01*
X187336000Y-93193816D01*
X187277011Y-92897257D01*
X187161299Y-92617905D01*
X186993312Y-92366495D01*
X186936000Y-92309183D01*
X186936000Y-89973966D01*
X193589631Y-89973966D01*
X193589631Y-90366034D01*
X193666119Y-90750569D01*
X193816157Y-91112793D01*
X194033979Y-91438787D01*
X194311213Y-91716021D01*
X194637207Y-91933843D01*
X194999431Y-92083881D01*
X195383966Y-92160369D01*
X195776034Y-92160369D01*
X196160569Y-92083881D01*
X196522793Y-91933843D01*
X196848787Y-91716021D01*
X197126021Y-91438787D01*
X197343843Y-91112793D01*
X197493881Y-90750569D01*
X197570369Y-90366034D01*
X197570369Y-89973966D01*
X197493881Y-89589431D01*
X197343843Y-89227207D01*
X197126021Y-88901213D01*
X196848787Y-88623979D01*
X196522793Y-88406157D01*
X196160569Y-88256119D01*
X195776034Y-88179631D01*
X195383966Y-88179631D01*
X194999431Y-88256119D01*
X194637207Y-88406157D01*
X194311213Y-88623979D01*
X194033979Y-88901213D01*
X193816157Y-89227207D01*
X193666119Y-89589431D01*
X193589631Y-89973966D01*
X186936000Y-89973966D01*
X186936000Y-89971752D01*
X186941491Y-89916000D01*
X186919577Y-89693501D01*
X186854676Y-89479553D01*
X186749284Y-89282377D01*
X186642989Y-89152856D01*
X186642987Y-89152854D01*
X186607449Y-89109551D01*
X186564146Y-89074013D01*
X184991995Y-87501864D01*
X184956449Y-87458551D01*
X184783623Y-87316716D01*
X184586447Y-87211324D01*
X184372499Y-87146423D01*
X184205752Y-87130000D01*
X184205751Y-87130000D01*
X184150000Y-87124509D01*
X184094249Y-87130000D01*
X178490751Y-87130000D01*
X178435000Y-87124509D01*
X178379248Y-87130000D01*
X178212501Y-87146423D01*
X177998553Y-87211324D01*
X177801377Y-87316716D01*
X177628551Y-87458551D01*
X177593009Y-87501859D01*
X175895000Y-89199868D01*
X174831996Y-88136865D01*
X174796449Y-88093551D01*
X174623623Y-87951716D01*
X174426447Y-87846324D01*
X174212499Y-87781423D01*
X174045752Y-87765000D01*
X174045751Y-87765000D01*
X173990000Y-87759509D01*
X173934249Y-87765000D01*
X165155751Y-87765000D01*
X165099999Y-87759509D01*
X165044248Y-87765000D01*
X164877501Y-87781423D01*
X164663553Y-87846324D01*
X164466377Y-87951716D01*
X164293551Y-88093551D01*
X164258009Y-88136859D01*
X162228665Y-90166204D01*
X162185351Y-90201751D01*
X162043516Y-90374577D01*
X161959399Y-90531951D01*
X161938124Y-90571754D01*
X161873223Y-90785702D01*
X161851309Y-91008200D01*
X161856800Y-91063952D01*
X161856801Y-92460717D01*
X161787306Y-92497863D01*
X161690615Y-92577215D01*
X161611263Y-92673906D01*
X161552298Y-92784220D01*
X161530287Y-92856780D01*
X161398432Y-92724925D01*
X161155211Y-92562410D01*
X160884958Y-92450468D01*
X160598060Y-92393400D01*
X160305540Y-92393400D01*
X160018642Y-92450468D01*
X159748389Y-92562410D01*
X159505168Y-92724925D01*
X159486693Y-92743400D01*
X155097352Y-92743400D01*
X155041600Y-92737909D01*
X154985848Y-92743400D01*
X154819101Y-92759823D01*
X154605153Y-92824724D01*
X154407977Y-92930116D01*
X154235151Y-93071951D01*
X154199609Y-93115259D01*
X150366865Y-96948004D01*
X150323551Y-96983551D01*
X150181716Y-97156377D01*
X150094529Y-97319495D01*
X150076324Y-97353554D01*
X150011423Y-97567502D01*
X149989509Y-97790000D01*
X144877000Y-97790000D01*
X144877000Y-89973966D01*
X146599631Y-89973966D01*
X146599631Y-90366034D01*
X146676119Y-90750569D01*
X146826157Y-91112793D01*
X147043979Y-91438787D01*
X147321213Y-91716021D01*
X147647207Y-91933843D01*
X148009431Y-92083881D01*
X148393966Y-92160369D01*
X148786034Y-92160369D01*
X149170569Y-92083881D01*
X149532793Y-91933843D01*
X149858787Y-91716021D01*
X150136021Y-91438787D01*
X150353843Y-91112793D01*
X150503881Y-90750569D01*
X150580369Y-90366034D01*
X150580369Y-89973966D01*
X150503881Y-89589431D01*
X150353843Y-89227207D01*
X150136021Y-88901213D01*
X149858787Y-88623979D01*
X149532793Y-88406157D01*
X149170569Y-88256119D01*
X148786034Y-88179631D01*
X148393966Y-88179631D01*
X148009431Y-88256119D01*
X147647207Y-88406157D01*
X147321213Y-88623979D01*
X147043979Y-88901213D01*
X146826157Y-89227207D01*
X146676119Y-89589431D01*
X146599631Y-89973966D01*
X144877000Y-89973966D01*
X144877000Y-86377000D01*
X198873000Y-86377000D01*
X198873000Y-142623000D01*
G37*
X198873000Y-142623000D02*
X144877000Y-142623000D01*
X144877000Y-138233966D01*
X146599631Y-138233966D01*
X146599631Y-138626034D01*
X146676119Y-139010569D01*
X146826157Y-139372793D01*
X147043979Y-139698787D01*
X147321213Y-139976021D01*
X147647207Y-140193843D01*
X148009431Y-140343881D01*
X148393966Y-140420369D01*
X148786034Y-140420369D01*
X149170569Y-140343881D01*
X149532793Y-140193843D01*
X149858787Y-139976021D01*
X150136021Y-139698787D01*
X150353843Y-139372793D01*
X150503881Y-139010569D01*
X150580369Y-138626034D01*
X150580369Y-138233966D01*
X150503881Y-137849431D01*
X150353843Y-137487207D01*
X150136021Y-137161213D01*
X149858787Y-136883979D01*
X149532793Y-136666157D01*
X149170569Y-136516119D01*
X148786034Y-136439631D01*
X148393966Y-136439631D01*
X148009431Y-136516119D01*
X147647207Y-136666157D01*
X147321213Y-136883979D01*
X147043979Y-137161213D01*
X146826157Y-137487207D01*
X146676119Y-137849431D01*
X146599631Y-138233966D01*
X144877000Y-138233966D01*
X144877000Y-97790000D01*
X149989509Y-97790000D01*
X149995000Y-97845751D01*
X149995001Y-128214238D01*
X149989509Y-128270000D01*
X150011423Y-128492498D01*
X150076324Y-128706446D01*
X150115201Y-128779180D01*
X150181717Y-128903623D01*
X150323552Y-129076449D01*
X150366860Y-129111991D01*
X152828009Y-131573141D01*
X152863551Y-131616449D01*
X153036377Y-131758284D01*
X153233553Y-131863676D01*
X153447501Y-131928577D01*
X153614248Y-131945000D01*
X153614257Y-131945000D01*
X153669999Y-131950490D01*
X153725741Y-131945000D01*
X159964249Y-131945000D01*
X160020000Y-131950491D01*
X160075751Y-131945000D01*
X160075752Y-131945000D01*
X160242499Y-131928577D01*
X160456447Y-131863676D01*
X160653623Y-131758284D01*
X160826449Y-131616449D01*
X160861996Y-131573135D01*
X163323141Y-129111991D01*
X163366449Y-129076449D01*
X163508284Y-128903623D01*
X163613676Y-128706447D01*
X163678577Y-128492499D01*
X163695000Y-128325752D01*
X163695000Y-128325743D01*
X163700490Y-128270001D01*
X163695000Y-128214259D01*
X163695000Y-126309200D01*
X164599394Y-126309200D01*
X164515273Y-126365408D01*
X164287608Y-126593073D01*
X164108733Y-126860778D01*
X163985522Y-127158237D01*
X163922710Y-127474017D01*
X163922710Y-127795983D01*
X163985522Y-128111763D01*
X164108733Y-128409222D01*
X164287608Y-128676927D01*
X164515273Y-128904592D01*
X164782978Y-129083467D01*
X165080437Y-129206678D01*
X165396217Y-129269490D01*
X165718183Y-129269490D01*
X166033963Y-129206678D01*
X166331422Y-129083467D01*
X166599127Y-128904592D01*
X166733719Y-128770000D01*
X171394249Y-128770000D01*
X171450000Y-128775491D01*
X171505751Y-128770000D01*
X171505752Y-128770000D01*
X171672499Y-128753577D01*
X171886447Y-128688676D01*
X172083623Y-128583284D01*
X172256449Y-128441449D01*
X172291996Y-128398135D01*
X173483140Y-127206992D01*
X173526449Y-127171449D01*
X173668284Y-126998623D01*
X173773676Y-126801447D01*
X173838577Y-126587499D01*
X173855000Y-126420752D01*
X173855000Y-126420745D01*
X173860490Y-126365001D01*
X173855000Y-126309257D01*
X173855000Y-119435751D01*
X173860491Y-119379999D01*
X173838577Y-119157500D01*
X173813907Y-119076177D01*
X173773676Y-118943553D01*
X173668284Y-118746377D01*
X173526449Y-118573551D01*
X173483140Y-118538009D01*
X171736196Y-116791065D01*
X171700649Y-116747751D01*
X171527823Y-116605916D01*
X171330647Y-116500524D01*
X171116699Y-116435623D01*
X170949952Y-116419200D01*
X170949951Y-116419200D01*
X170894200Y-116413709D01*
X170838449Y-116419200D01*
X170052485Y-116419200D01*
X169850442Y-116284200D01*
X170082960Y-116128837D01*
X170282838Y-115928959D01*
X170439881Y-115693927D01*
X170548054Y-115432774D01*
X170603201Y-115155535D01*
X170603201Y-114872865D01*
X170548054Y-114595626D01*
X170439881Y-114334473D01*
X170282838Y-114099441D01*
X170082960Y-113899563D01*
X169850442Y-113744200D01*
X170082960Y-113588837D01*
X170282838Y-113388959D01*
X170439881Y-113153927D01*
X170548054Y-112892774D01*
X170603201Y-112615535D01*
X170603201Y-112332865D01*
X170548054Y-112055626D01*
X170439881Y-111794473D01*
X170282838Y-111559441D01*
X170082960Y-111359563D01*
X169850442Y-111204200D01*
X170082960Y-111048837D01*
X170282838Y-110848959D01*
X170439881Y-110613927D01*
X170548054Y-110352774D01*
X170603201Y-110075535D01*
X170603201Y-109792865D01*
X170548054Y-109515626D01*
X170439881Y-109254473D01*
X170282838Y-109019441D01*
X170082960Y-108819563D01*
X169850442Y-108664200D01*
X170082960Y-108508837D01*
X170282838Y-108308959D01*
X170439881Y-108073927D01*
X170548054Y-107812774D01*
X170603201Y-107535535D01*
X170603201Y-107252865D01*
X170548054Y-106975626D01*
X170439881Y-106714473D01*
X170282838Y-106479441D01*
X170084240Y-106280843D01*
X170092683Y-106280012D01*
X170212381Y-106243702D01*
X170322695Y-106184737D01*
X170419386Y-106105385D01*
X170498738Y-106008694D01*
X170557703Y-105898380D01*
X170594013Y-105778682D01*
X170606273Y-105654200D01*
X170606273Y-104054200D01*
X170594013Y-103929718D01*
X170557703Y-103810020D01*
X170498738Y-103699706D01*
X170419386Y-103603015D01*
X170322695Y-103523663D01*
X170303201Y-103513243D01*
X170303201Y-102446930D01*
X172555133Y-100195000D01*
X175204249Y-100195000D01*
X175260000Y-100200491D01*
X175315751Y-100195000D01*
X175315752Y-100195000D01*
X175482499Y-100178577D01*
X175696447Y-100113676D01*
X175892822Y-100008712D01*
X175839918Y-100073176D01*
X175783585Y-100178569D01*
X175734525Y-100270353D01*
X175669624Y-100484301D01*
X175647710Y-100706799D01*
X175653202Y-100762560D01*
X175653201Y-103969916D01*
X175516521Y-104174473D01*
X175408348Y-104435626D01*
X175353201Y-104712865D01*
X175353201Y-104995535D01*
X175408348Y-105272774D01*
X175516521Y-105533927D01*
X175673564Y-105768959D01*
X175873442Y-105968837D01*
X176105960Y-106124200D01*
X175873442Y-106279563D01*
X175673564Y-106479441D01*
X175516521Y-106714473D01*
X175408348Y-106975626D01*
X175353201Y-107252865D01*
X175353201Y-107535535D01*
X175408348Y-107812774D01*
X175516521Y-108073927D01*
X175673564Y-108308959D01*
X175873442Y-108508837D01*
X176105960Y-108664200D01*
X175873442Y-108819563D01*
X175673564Y-109019441D01*
X175516521Y-109254473D01*
X175408348Y-109515626D01*
X175353201Y-109792865D01*
X175353201Y-110075535D01*
X175408348Y-110352774D01*
X175516521Y-110613927D01*
X175673564Y-110848959D01*
X175873442Y-111048837D01*
X176105960Y-111204200D01*
X175873442Y-111359563D01*
X175673564Y-111559441D01*
X175516521Y-111794473D01*
X175408348Y-112055626D01*
X175353201Y-112332865D01*
X175353201Y-112615535D01*
X175408348Y-112892774D01*
X175516521Y-113153927D01*
X175673564Y-113388959D01*
X175873442Y-113588837D01*
X176105960Y-113744200D01*
X175873442Y-113899563D01*
X175673564Y-114099441D01*
X175516521Y-114334473D01*
X175408348Y-114595626D01*
X175353201Y-114872865D01*
X175353201Y-115155535D01*
X175408348Y-115432774D01*
X175516521Y-115693927D01*
X175673564Y-115928959D01*
X175873442Y-116128837D01*
X176105960Y-116284200D01*
X175873442Y-116439563D01*
X175673564Y-116639441D01*
X175516521Y-116874473D01*
X175408348Y-117135626D01*
X175353201Y-117412865D01*
X175353201Y-117695535D01*
X175408348Y-117972774D01*
X175516521Y-118233927D01*
X175673564Y-118468959D01*
X175873442Y-118668837D01*
X176105960Y-118824200D01*
X175873442Y-118979563D01*
X175673564Y-119179441D01*
X175516521Y-119414473D01*
X175408348Y-119675626D01*
X175353201Y-119952865D01*
X175353201Y-120235535D01*
X175408348Y-120512774D01*
X175516521Y-120773927D01*
X175673564Y-121008959D01*
X175873442Y-121208837D01*
X176105960Y-121364200D01*
X175873442Y-121519563D01*
X175673564Y-121719441D01*
X175516521Y-121954473D01*
X175408348Y-122215626D01*
X175353201Y-122492865D01*
X175353201Y-122775535D01*
X175408348Y-123052774D01*
X175516521Y-123313927D01*
X175673564Y-123548959D01*
X175873442Y-123748837D01*
X176105960Y-123904200D01*
X175873442Y-124059563D01*
X175673564Y-124259441D01*
X175516521Y-124494473D01*
X175408348Y-124755626D01*
X175353201Y-125032865D01*
X175353201Y-125315535D01*
X175408348Y-125592774D01*
X175516521Y-125853927D01*
X175653202Y-126058485D01*
X175653201Y-136092449D01*
X175647710Y-136148201D01*
X175653201Y-136203952D01*
X175669624Y-136370699D01*
X175734525Y-136584647D01*
X175839917Y-136781824D01*
X175981752Y-136954650D01*
X176025065Y-136990197D01*
X177085008Y-138050140D01*
X177120551Y-138093449D01*
X177293377Y-138235284D01*
X177490553Y-138340676D01*
X177704501Y-138405577D01*
X177927000Y-138427491D01*
X177982751Y-138422000D01*
X181717913Y-138422000D01*
X181720698Y-138431180D01*
X181779663Y-138541494D01*
X181859015Y-138638185D01*
X181955706Y-138717537D01*
X182066020Y-138776502D01*
X182185718Y-138812812D01*
X182310200Y-138825072D01*
X184110200Y-138825072D01*
X184234682Y-138812812D01*
X184354380Y-138776502D01*
X184464694Y-138717537D01*
X184561385Y-138638185D01*
X184640737Y-138541494D01*
X184699702Y-138431180D01*
X184705256Y-138412873D01*
X184771695Y-138479312D01*
X185023105Y-138647299D01*
X185302457Y-138763011D01*
X185599016Y-138822000D01*
X185901384Y-138822000D01*
X186197943Y-138763011D01*
X186477295Y-138647299D01*
X186728705Y-138479312D01*
X186942512Y-138265505D01*
X186963585Y-138233966D01*
X193589631Y-138233966D01*
X193589631Y-138626034D01*
X193666119Y-139010569D01*
X193816157Y-139372793D01*
X194033979Y-139698787D01*
X194311213Y-139976021D01*
X194637207Y-140193843D01*
X194999431Y-140343881D01*
X195383966Y-140420369D01*
X195776034Y-140420369D01*
X196160569Y-140343881D01*
X196522793Y-140193843D01*
X196848787Y-139976021D01*
X197126021Y-139698787D01*
X197343843Y-139372793D01*
X197493881Y-139010569D01*
X197570369Y-138626034D01*
X197570369Y-138233966D01*
X197493881Y-137849431D01*
X197343843Y-137487207D01*
X197126021Y-137161213D01*
X196848787Y-136883979D01*
X196522793Y-136666157D01*
X196160569Y-136516119D01*
X195776034Y-136439631D01*
X195383966Y-136439631D01*
X194999431Y-136516119D01*
X194637207Y-136666157D01*
X194311213Y-136883979D01*
X194033979Y-137161213D01*
X193816157Y-137487207D01*
X193666119Y-137849431D01*
X193589631Y-138233966D01*
X186963585Y-138233966D01*
X187110499Y-138014095D01*
X187226211Y-137734743D01*
X187285200Y-137438184D01*
X187285200Y-137135816D01*
X187226211Y-136839257D01*
X187110499Y-136559905D01*
X186942512Y-136308495D01*
X186885200Y-136251183D01*
X186885200Y-133436637D01*
X187034299Y-133213495D01*
X187150011Y-132934143D01*
X187209000Y-132637584D01*
X187209000Y-132335216D01*
X187150011Y-132038657D01*
X187034299Y-131759305D01*
X186866312Y-131507895D01*
X186809000Y-131450583D01*
X186809000Y-128471196D01*
X186881899Y-128362095D01*
X186997611Y-128082743D01*
X187056600Y-127786184D01*
X187056600Y-127483816D01*
X186997611Y-127187257D01*
X186881899Y-126907905D01*
X186713912Y-126656495D01*
X186656600Y-126599183D01*
X186656600Y-123921017D01*
X186790112Y-123787505D01*
X186958099Y-123536095D01*
X187073811Y-123256743D01*
X187132800Y-122960184D01*
X187132800Y-122657816D01*
X187073811Y-122361257D01*
X186958099Y-122081905D01*
X186790112Y-121830495D01*
X186732800Y-121773183D01*
X186732800Y-118831810D01*
X186831099Y-118684695D01*
X186946811Y-118405343D01*
X187005800Y-118108784D01*
X187005800Y-117806416D01*
X186946811Y-117509857D01*
X186831099Y-117230505D01*
X186663112Y-116979095D01*
X186656600Y-116972583D01*
X186656600Y-114243617D01*
X186713912Y-114186305D01*
X186881899Y-113934895D01*
X186997611Y-113655543D01*
X187056600Y-113358984D01*
X187056600Y-113056616D01*
X186997611Y-112760057D01*
X186881899Y-112480705D01*
X186713912Y-112229295D01*
X186631200Y-112146583D01*
X186631200Y-109417617D01*
X186688512Y-109360305D01*
X186856499Y-109108895D01*
X186972211Y-108829543D01*
X187031200Y-108532984D01*
X187031200Y-108230616D01*
X186972211Y-107934057D01*
X186856499Y-107654705D01*
X186688512Y-107403295D01*
X186631200Y-107345983D01*
X186631200Y-104762463D01*
X186728705Y-104697312D01*
X186942512Y-104483505D01*
X187110499Y-104232095D01*
X187226211Y-103952743D01*
X187285200Y-103656184D01*
X187285200Y-103353816D01*
X187226211Y-103057257D01*
X187110499Y-102777905D01*
X186942512Y-102526495D01*
X186885200Y-102469183D01*
X186885200Y-99384617D01*
X186993312Y-99276505D01*
X187161299Y-99025095D01*
X187277011Y-98745743D01*
X187336000Y-98449184D01*
X187336000Y-98146816D01*
X187277011Y-97850257D01*
X187161299Y-97570905D01*
X186993312Y-97319495D01*
X186936000Y-97262183D01*
X186936000Y-95179285D01*
X190780000Y-95179285D01*
X190780000Y-133420714D01*
X196950000Y-133420714D01*
X196950000Y-95179285D01*
X190780000Y-95179285D01*
X186936000Y-95179285D01*
X186936000Y-94380817D01*
X186993312Y-94323505D01*
X187161299Y-94072095D01*
X187277011Y-93792743D01*
X187336000Y-93496184D01*
X187336000Y-93193816D01*
X187277011Y-92897257D01*
X187161299Y-92617905D01*
X186993312Y-92366495D01*
X186936000Y-92309183D01*
X186936000Y-89973966D01*
X193589631Y-89973966D01*
X193589631Y-90366034D01*
X193666119Y-90750569D01*
X193816157Y-91112793D01*
X194033979Y-91438787D01*
X194311213Y-91716021D01*
X194637207Y-91933843D01*
X194999431Y-92083881D01*
X195383966Y-92160369D01*
X195776034Y-92160369D01*
X196160569Y-92083881D01*
X196522793Y-91933843D01*
X196848787Y-91716021D01*
X197126021Y-91438787D01*
X197343843Y-91112793D01*
X197493881Y-90750569D01*
X197570369Y-90366034D01*
X197570369Y-89973966D01*
X197493881Y-89589431D01*
X197343843Y-89227207D01*
X197126021Y-88901213D01*
X196848787Y-88623979D01*
X196522793Y-88406157D01*
X196160569Y-88256119D01*
X195776034Y-88179631D01*
X195383966Y-88179631D01*
X194999431Y-88256119D01*
X194637207Y-88406157D01*
X194311213Y-88623979D01*
X194033979Y-88901213D01*
X193816157Y-89227207D01*
X193666119Y-89589431D01*
X193589631Y-89973966D01*
X186936000Y-89973966D01*
X186936000Y-89971752D01*
X186941491Y-89916000D01*
X186919577Y-89693501D01*
X186854676Y-89479553D01*
X186749284Y-89282377D01*
X186642989Y-89152856D01*
X186642987Y-89152854D01*
X186607449Y-89109551D01*
X186564146Y-89074013D01*
X184991995Y-87501864D01*
X184956449Y-87458551D01*
X184783623Y-87316716D01*
X184586447Y-87211324D01*
X184372499Y-87146423D01*
X184205752Y-87130000D01*
X184205751Y-87130000D01*
X184150000Y-87124509D01*
X184094249Y-87130000D01*
X178490751Y-87130000D01*
X178435000Y-87124509D01*
X178379248Y-87130000D01*
X178212501Y-87146423D01*
X177998553Y-87211324D01*
X177801377Y-87316716D01*
X177628551Y-87458551D01*
X177593009Y-87501859D01*
X175895000Y-89199868D01*
X174831996Y-88136865D01*
X174796449Y-88093551D01*
X174623623Y-87951716D01*
X174426447Y-87846324D01*
X174212499Y-87781423D01*
X174045752Y-87765000D01*
X174045751Y-87765000D01*
X173990000Y-87759509D01*
X173934249Y-87765000D01*
X165155751Y-87765000D01*
X165099999Y-87759509D01*
X165044248Y-87765000D01*
X164877501Y-87781423D01*
X164663553Y-87846324D01*
X164466377Y-87951716D01*
X164293551Y-88093551D01*
X164258009Y-88136859D01*
X162228665Y-90166204D01*
X162185351Y-90201751D01*
X162043516Y-90374577D01*
X161959399Y-90531951D01*
X161938124Y-90571754D01*
X161873223Y-90785702D01*
X161851309Y-91008200D01*
X161856800Y-91063952D01*
X161856801Y-92460717D01*
X161787306Y-92497863D01*
X161690615Y-92577215D01*
X161611263Y-92673906D01*
X161552298Y-92784220D01*
X161530287Y-92856780D01*
X161398432Y-92724925D01*
X161155211Y-92562410D01*
X160884958Y-92450468D01*
X160598060Y-92393400D01*
X160305540Y-92393400D01*
X160018642Y-92450468D01*
X159748389Y-92562410D01*
X159505168Y-92724925D01*
X159486693Y-92743400D01*
X155097352Y-92743400D01*
X155041600Y-92737909D01*
X154985848Y-92743400D01*
X154819101Y-92759823D01*
X154605153Y-92824724D01*
X154407977Y-92930116D01*
X154235151Y-93071951D01*
X154199609Y-93115259D01*
X150366865Y-96948004D01*
X150323551Y-96983551D01*
X150181716Y-97156377D01*
X150094529Y-97319495D01*
X150076324Y-97353554D01*
X150011423Y-97567502D01*
X149989509Y-97790000D01*
X144877000Y-97790000D01*
X144877000Y-89973966D01*
X146599631Y-89973966D01*
X146599631Y-90366034D01*
X146676119Y-90750569D01*
X146826157Y-91112793D01*
X147043979Y-91438787D01*
X147321213Y-91716021D01*
X147647207Y-91933843D01*
X148009431Y-92083881D01*
X148393966Y-92160369D01*
X148786034Y-92160369D01*
X149170569Y-92083881D01*
X149532793Y-91933843D01*
X149858787Y-91716021D01*
X150136021Y-91438787D01*
X150353843Y-91112793D01*
X150503881Y-90750569D01*
X150580369Y-90366034D01*
X150580369Y-89973966D01*
X150503881Y-89589431D01*
X150353843Y-89227207D01*
X150136021Y-88901213D01*
X149858787Y-88623979D01*
X149532793Y-88406157D01*
X149170569Y-88256119D01*
X148786034Y-88179631D01*
X148393966Y-88179631D01*
X148009431Y-88256119D01*
X147647207Y-88406157D01*
X147321213Y-88623979D01*
X147043979Y-88901213D01*
X146826157Y-89227207D01*
X146676119Y-89589431D01*
X146599631Y-89973966D01*
X144877000Y-89973966D01*
X144877000Y-86377000D01*
X198873000Y-86377000D01*
X198873000Y-142623000D01*
G36*
X177935001Y-130754239D02*
G01*
X177929509Y-130810000D01*
X177951423Y-131032498D01*
X178016324Y-131246446D01*
X178016325Y-131246447D01*
X178121717Y-131443623D01*
X178263552Y-131616449D01*
X178306860Y-131651991D01*
X179904413Y-133249546D01*
X179939951Y-133292849D01*
X179983254Y-133328387D01*
X179983256Y-133328389D01*
X180112777Y-133434684D01*
X180309953Y-133540076D01*
X180523901Y-133604977D01*
X180746400Y-133626891D01*
X180802152Y-133621400D01*
X181641713Y-133621400D01*
X181644498Y-133630580D01*
X181703463Y-133740894D01*
X181782815Y-133837585D01*
X181879506Y-133916937D01*
X181989820Y-133975902D01*
X182109518Y-134012212D01*
X182234000Y-134024472D01*
X184034000Y-134024472D01*
X184158482Y-134012212D01*
X184278180Y-133975902D01*
X184388494Y-133916937D01*
X184485185Y-133837585D01*
X184564537Y-133740894D01*
X184615201Y-133646110D01*
X184615200Y-136001389D01*
X184561385Y-135935815D01*
X184464694Y-135856463D01*
X184354380Y-135797498D01*
X184234682Y-135761188D01*
X184110200Y-135748928D01*
X182310200Y-135748928D01*
X182185718Y-135761188D01*
X182066020Y-135797498D01*
X181955706Y-135856463D01*
X181859015Y-135935815D01*
X181779663Y-136032506D01*
X181720698Y-136142820D01*
X181717913Y-136152000D01*
X178397132Y-136152000D01*
X177923201Y-135678070D01*
X177923201Y-126058484D01*
X177935000Y-126040825D01*
X177935001Y-130754239D01*
G37*
X177935001Y-130754239D02*
X177929509Y-130810000D01*
X177951423Y-131032498D01*
X178016324Y-131246446D01*
X178016325Y-131246447D01*
X178121717Y-131443623D01*
X178263552Y-131616449D01*
X178306860Y-131651991D01*
X179904413Y-133249546D01*
X179939951Y-133292849D01*
X179983254Y-133328387D01*
X179983256Y-133328389D01*
X180112777Y-133434684D01*
X180309953Y-133540076D01*
X180523901Y-133604977D01*
X180746400Y-133626891D01*
X180802152Y-133621400D01*
X181641713Y-133621400D01*
X181644498Y-133630580D01*
X181703463Y-133740894D01*
X181782815Y-133837585D01*
X181879506Y-133916937D01*
X181989820Y-133975902D01*
X182109518Y-134012212D01*
X182234000Y-134024472D01*
X184034000Y-134024472D01*
X184158482Y-134012212D01*
X184278180Y-133975902D01*
X184388494Y-133916937D01*
X184485185Y-133837585D01*
X184564537Y-133740894D01*
X184615201Y-133646110D01*
X184615200Y-136001389D01*
X184561385Y-135935815D01*
X184464694Y-135856463D01*
X184354380Y-135797498D01*
X184234682Y-135761188D01*
X184110200Y-135748928D01*
X182310200Y-135748928D01*
X182185718Y-135761188D01*
X182066020Y-135797498D01*
X181955706Y-135856463D01*
X181859015Y-135935815D01*
X181779663Y-136032506D01*
X181720698Y-136142820D01*
X181717913Y-136152000D01*
X178397132Y-136152000D01*
X177923201Y-135678070D01*
X177923201Y-126058484D01*
X177935000Y-126040825D01*
X177935001Y-130754239D01*
G36*
X181443528Y-127168660D02*
G01*
X181443528Y-128535000D01*
X181455788Y-128659482D01*
X181492098Y-128779180D01*
X181551063Y-128889494D01*
X181630415Y-128986185D01*
X181727106Y-129065537D01*
X181837420Y-129124502D01*
X181957118Y-129160812D01*
X182081600Y-129173072D01*
X183881600Y-129173072D01*
X184006082Y-129160812D01*
X184125780Y-129124502D01*
X184236094Y-129065537D01*
X184332785Y-128986185D01*
X184412137Y-128889494D01*
X184471102Y-128779180D01*
X184476656Y-128760873D01*
X184539001Y-128823218D01*
X184539000Y-131200789D01*
X184485185Y-131135215D01*
X184388494Y-131055863D01*
X184278180Y-130996898D01*
X184158482Y-130960588D01*
X184034000Y-130948328D01*
X182234000Y-130948328D01*
X182109518Y-130960588D01*
X181989820Y-130996898D01*
X181879506Y-131055863D01*
X181782815Y-131135215D01*
X181703463Y-131231906D01*
X181644498Y-131342220D01*
X181641713Y-131351400D01*
X181216533Y-131351400D01*
X180205000Y-130339869D01*
X180205000Y-125930131D01*
X181443528Y-127168660D01*
G37*
X181443528Y-127168660D02*
X181443528Y-128535000D01*
X181455788Y-128659482D01*
X181492098Y-128779180D01*
X181551063Y-128889494D01*
X181630415Y-128986185D01*
X181727106Y-129065537D01*
X181837420Y-129124502D01*
X181957118Y-129160812D01*
X182081600Y-129173072D01*
X183881600Y-129173072D01*
X184006082Y-129160812D01*
X184125780Y-129124502D01*
X184236094Y-129065537D01*
X184332785Y-128986185D01*
X184412137Y-128889494D01*
X184471102Y-128779180D01*
X184476656Y-128760873D01*
X184539001Y-128823218D01*
X184539000Y-131200789D01*
X184485185Y-131135215D01*
X184388494Y-131055863D01*
X184278180Y-130996898D01*
X184158482Y-130960588D01*
X184034000Y-130948328D01*
X182234000Y-130948328D01*
X182109518Y-130960588D01*
X181989820Y-130996898D01*
X181879506Y-131055863D01*
X181782815Y-131135215D01*
X181703463Y-131231906D01*
X181644498Y-131342220D01*
X181641713Y-131351400D01*
X181216533Y-131351400D01*
X180205000Y-130339869D01*
X180205000Y-125930131D01*
X181443528Y-127168660D01*
G36*
X161552298Y-94972580D02*
G01*
X161611263Y-95082894D01*
X161690615Y-95179585D01*
X161787306Y-95258937D01*
X161897620Y-95317902D01*
X162017318Y-95354212D01*
X162141800Y-95366472D01*
X163841800Y-95366472D01*
X163966282Y-95354212D01*
X164051510Y-95328358D01*
X162736660Y-96643209D01*
X162693352Y-96678751D01*
X162551517Y-96851577D01*
X162543026Y-96867463D01*
X162446124Y-97048754D01*
X162381223Y-97262702D01*
X162359309Y-97485200D01*
X162364801Y-97540961D01*
X162364801Y-101735000D01*
X156265743Y-101735000D01*
X156209999Y-101729510D01*
X156154255Y-101735000D01*
X156154248Y-101735000D01*
X156008493Y-101749356D01*
X155987500Y-101751423D01*
X155937705Y-101766529D01*
X155773553Y-101816324D01*
X155576377Y-101921716D01*
X155403551Y-102063551D01*
X155368008Y-102106860D01*
X154176860Y-103298009D01*
X154133552Y-103333551D01*
X153991717Y-103506377D01*
X153982478Y-103523663D01*
X153886324Y-103703554D01*
X153821423Y-103917502D01*
X153799509Y-104140000D01*
X153805001Y-104195762D01*
X153805000Y-120492649D01*
X153799509Y-120548400D01*
X153805000Y-120604151D01*
X153821423Y-120770898D01*
X153886324Y-120984846D01*
X153991716Y-121182023D01*
X154133551Y-121354849D01*
X154176865Y-121390396D01*
X156293423Y-123506955D01*
X156344530Y-123763891D01*
X156453457Y-124026864D01*
X156611595Y-124263534D01*
X156802201Y-124454140D01*
X156802200Y-126458481D01*
X156667608Y-126593073D01*
X156488733Y-126860778D01*
X156365522Y-127158237D01*
X156302710Y-127474017D01*
X156302710Y-127795983D01*
X156365522Y-128111763D01*
X156488733Y-128409222D01*
X156667608Y-128676927D01*
X156895273Y-128904592D01*
X157162978Y-129083467D01*
X157460437Y-129206678D01*
X157776217Y-129269490D01*
X158098183Y-129269490D01*
X158413963Y-129206678D01*
X158711422Y-129083467D01*
X158979127Y-128904592D01*
X159206792Y-128676927D01*
X159385667Y-128409222D01*
X159508878Y-128111763D01*
X159571690Y-127795983D01*
X159571690Y-127474017D01*
X159508878Y-127158237D01*
X159385667Y-126860778D01*
X159206792Y-126593073D01*
X159072200Y-126458481D01*
X159072200Y-124477400D01*
X162207469Y-124477400D01*
X161796860Y-124888009D01*
X161753552Y-124923551D01*
X161611717Y-125096377D01*
X161567430Y-125179233D01*
X161506324Y-125293554D01*
X161441423Y-125507502D01*
X161419509Y-125730000D01*
X161425001Y-125785761D01*
X161425000Y-127799868D01*
X159549869Y-129675000D01*
X154140132Y-129675000D01*
X152265000Y-127799869D01*
X152265000Y-98260131D01*
X155511732Y-95013400D01*
X159486693Y-95013400D01*
X159505168Y-95031875D01*
X159748389Y-95194390D01*
X160018642Y-95306332D01*
X160305540Y-95363400D01*
X160598060Y-95363400D01*
X160884958Y-95306332D01*
X161155211Y-95194390D01*
X161398432Y-95031875D01*
X161530287Y-94900020D01*
X161552298Y-94972580D01*
G37*
X161552298Y-94972580D02*
X161611263Y-95082894D01*
X161690615Y-95179585D01*
X161787306Y-95258937D01*
X161897620Y-95317902D01*
X162017318Y-95354212D01*
X162141800Y-95366472D01*
X163841800Y-95366472D01*
X163966282Y-95354212D01*
X164051510Y-95328358D01*
X162736660Y-96643209D01*
X162693352Y-96678751D01*
X162551517Y-96851577D01*
X162543026Y-96867463D01*
X162446124Y-97048754D01*
X162381223Y-97262702D01*
X162359309Y-97485200D01*
X162364801Y-97540961D01*
X162364801Y-101735000D01*
X156265743Y-101735000D01*
X156209999Y-101729510D01*
X156154255Y-101735000D01*
X156154248Y-101735000D01*
X156008493Y-101749356D01*
X155987500Y-101751423D01*
X155937705Y-101766529D01*
X155773553Y-101816324D01*
X155576377Y-101921716D01*
X155403551Y-102063551D01*
X155368008Y-102106860D01*
X154176860Y-103298009D01*
X154133552Y-103333551D01*
X153991717Y-103506377D01*
X153982478Y-103523663D01*
X153886324Y-103703554D01*
X153821423Y-103917502D01*
X153799509Y-104140000D01*
X153805001Y-104195762D01*
X153805000Y-120492649D01*
X153799509Y-120548400D01*
X153805000Y-120604151D01*
X153821423Y-120770898D01*
X153886324Y-120984846D01*
X153991716Y-121182023D01*
X154133551Y-121354849D01*
X154176865Y-121390396D01*
X156293423Y-123506955D01*
X156344530Y-123763891D01*
X156453457Y-124026864D01*
X156611595Y-124263534D01*
X156802201Y-124454140D01*
X156802200Y-126458481D01*
X156667608Y-126593073D01*
X156488733Y-126860778D01*
X156365522Y-127158237D01*
X156302710Y-127474017D01*
X156302710Y-127795983D01*
X156365522Y-128111763D01*
X156488733Y-128409222D01*
X156667608Y-128676927D01*
X156895273Y-128904592D01*
X157162978Y-129083467D01*
X157460437Y-129206678D01*
X157776217Y-129269490D01*
X158098183Y-129269490D01*
X158413963Y-129206678D01*
X158711422Y-129083467D01*
X158979127Y-128904592D01*
X159206792Y-128676927D01*
X159385667Y-128409222D01*
X159508878Y-128111763D01*
X159571690Y-127795983D01*
X159571690Y-127474017D01*
X159508878Y-127158237D01*
X159385667Y-126860778D01*
X159206792Y-126593073D01*
X159072200Y-126458481D01*
X159072200Y-124477400D01*
X162207469Y-124477400D01*
X161796860Y-124888009D01*
X161753552Y-124923551D01*
X161611717Y-125096377D01*
X161567430Y-125179233D01*
X161506324Y-125293554D01*
X161441423Y-125507502D01*
X161419509Y-125730000D01*
X161425001Y-125785761D01*
X161425000Y-127799868D01*
X159549869Y-129675000D01*
X154140132Y-129675000D01*
X152265000Y-127799869D01*
X152265000Y-98260131D01*
X155511732Y-95013400D01*
X159486693Y-95013400D01*
X159505168Y-95031875D01*
X159748389Y-95194390D01*
X160018642Y-95306332D01*
X160305540Y-95363400D01*
X160598060Y-95363400D01*
X160884958Y-95306332D01*
X161155211Y-95194390D01*
X161398432Y-95031875D01*
X161530287Y-94900020D01*
X161552298Y-94972580D01*
G36*
X171585001Y-119850133D02*
G01*
X171585000Y-125894868D01*
X170979869Y-126500000D01*
X169717271Y-126500000D01*
X169847928Y-126445880D01*
X170082960Y-126288837D01*
X170282838Y-126088959D01*
X170439881Y-125853927D01*
X170548054Y-125592774D01*
X170603201Y-125315535D01*
X170603201Y-125032865D01*
X170548054Y-124755626D01*
X170439881Y-124494473D01*
X170282838Y-124259441D01*
X170082960Y-124059563D01*
X169850442Y-123904200D01*
X170082960Y-123748837D01*
X170282838Y-123548959D01*
X170439881Y-123313927D01*
X170548054Y-123052774D01*
X170603201Y-122775535D01*
X170603201Y-122492865D01*
X170548054Y-122215626D01*
X170439881Y-121954473D01*
X170282838Y-121719441D01*
X170082960Y-121519563D01*
X169850442Y-121364200D01*
X170082960Y-121208837D01*
X170282838Y-121008959D01*
X170439881Y-120773927D01*
X170548054Y-120512774D01*
X170603201Y-120235535D01*
X170603201Y-119952865D01*
X170548054Y-119675626D01*
X170439881Y-119414473D01*
X170303201Y-119209916D01*
X170303201Y-118689200D01*
X170424069Y-118689200D01*
X171585001Y-119850133D01*
G37*
X171585001Y-119850133D02*
X171585000Y-125894868D01*
X170979869Y-126500000D01*
X169717271Y-126500000D01*
X169847928Y-126445880D01*
X170082960Y-126288837D01*
X170282838Y-126088959D01*
X170439881Y-125853927D01*
X170548054Y-125592774D01*
X170603201Y-125315535D01*
X170603201Y-125032865D01*
X170548054Y-124755626D01*
X170439881Y-124494473D01*
X170282838Y-124259441D01*
X170082960Y-124059563D01*
X169850442Y-123904200D01*
X170082960Y-123748837D01*
X170282838Y-123548959D01*
X170439881Y-123313927D01*
X170548054Y-123052774D01*
X170603201Y-122775535D01*
X170603201Y-122492865D01*
X170548054Y-122215626D01*
X170439881Y-121954473D01*
X170282838Y-121719441D01*
X170082960Y-121519563D01*
X169850442Y-121364200D01*
X170082960Y-121208837D01*
X170282838Y-121008959D01*
X170439881Y-120773927D01*
X170548054Y-120512774D01*
X170603201Y-120235535D01*
X170603201Y-119952865D01*
X170548054Y-119675626D01*
X170439881Y-119414473D01*
X170303201Y-119209916D01*
X170303201Y-118689200D01*
X170424069Y-118689200D01*
X171585001Y-119850133D01*
G36*
X168488474Y-126445880D02*
G01*
X168619131Y-126500000D01*
X166733719Y-126500000D01*
X166599127Y-126365408D01*
X166515006Y-126309200D01*
X168283917Y-126309200D01*
X168488474Y-126445880D01*
G37*
X168488474Y-126445880D02*
X168619131Y-126500000D01*
X166733719Y-126500000D01*
X166599127Y-126365408D01*
X166515006Y-126309200D01*
X168283917Y-126309200D01*
X168488474Y-126445880D01*
G36*
X181568298Y-123953180D02*
G01*
X181627263Y-124063494D01*
X181706615Y-124160185D01*
X181803306Y-124239537D01*
X181913620Y-124298502D01*
X182033318Y-124334812D01*
X182157800Y-124347072D01*
X183957800Y-124347072D01*
X184082282Y-124334812D01*
X184201980Y-124298502D01*
X184312294Y-124239537D01*
X184386601Y-124178555D01*
X184386600Y-126349389D01*
X184332785Y-126283815D01*
X184236094Y-126204463D01*
X184125780Y-126145498D01*
X184006082Y-126109188D01*
X183881600Y-126096928D01*
X183582061Y-126096928D01*
X181560610Y-124075479D01*
X181560610Y-123927836D01*
X181568298Y-123953180D01*
G37*
X181568298Y-123953180D02*
X181627263Y-124063494D01*
X181706615Y-124160185D01*
X181803306Y-124239537D01*
X181913620Y-124298502D01*
X182033318Y-124334812D01*
X182157800Y-124347072D01*
X183957800Y-124347072D01*
X184082282Y-124334812D01*
X184201980Y-124298502D01*
X184312294Y-124239537D01*
X184386601Y-124178555D01*
X184386600Y-126349389D01*
X184332785Y-126283815D01*
X184236094Y-126204463D01*
X184125780Y-126145498D01*
X184006082Y-126109188D01*
X183881600Y-126096928D01*
X183582061Y-126096928D01*
X181560610Y-124075479D01*
X181560610Y-123927836D01*
X181568298Y-123953180D01*
G36*
X177935000Y-124295132D02*
G01*
X177935000Y-124307575D01*
X177909945Y-124270077D01*
X177935000Y-124295132D01*
G37*
X177935000Y-124295132D02*
X177935000Y-124307575D01*
X177909945Y-124270077D01*
X177935000Y-124295132D01*
G36*
X177692325Y-124052457D02*
G01*
X177470442Y-123904200D01*
X177514578Y-123874710D01*
X177692325Y-124052457D01*
G37*
X177692325Y-124052457D02*
X177470442Y-123904200D01*
X177514578Y-123874710D01*
X177692325Y-124052457D01*
G36*
X168485960Y-123904200D02*
G01*
X168283917Y-124039200D01*
X166490931Y-124039200D01*
X166760931Y-123769200D01*
X168283917Y-123769200D01*
X168485960Y-123904200D01*
G37*
X168485960Y-123904200D02*
X168283917Y-124039200D01*
X166490931Y-124039200D01*
X166760931Y-123769200D01*
X168283917Y-123769200D01*
X168485960Y-123904200D01*
G36*
X181519728Y-122164860D02*
G01*
X181519728Y-122337481D01*
X181479286Y-122204163D01*
X181387718Y-122032849D01*
X181519728Y-122164860D01*
G37*
X181519728Y-122164860D02*
X181519728Y-122337481D01*
X181479286Y-122204163D01*
X181387718Y-122032849D01*
X181519728Y-122164860D01*
G36*
X162364800Y-104279932D02*
G01*
X162364800Y-106316281D01*
X162230208Y-106450873D01*
X162051333Y-106718578D01*
X161928122Y-107016037D01*
X161865310Y-107331817D01*
X161865310Y-107653783D01*
X161928122Y-107969563D01*
X162051333Y-108267022D01*
X162230208Y-108534727D01*
X162457873Y-108762392D01*
X162512960Y-108799200D01*
X159348719Y-108799200D01*
X159359192Y-108788727D01*
X159538067Y-108521022D01*
X159661278Y-108223563D01*
X159724090Y-107907783D01*
X159724090Y-107585817D01*
X159661278Y-107270037D01*
X159538067Y-106972578D01*
X159359192Y-106704873D01*
X159131527Y-106477208D01*
X158863822Y-106298333D01*
X158566363Y-106175122D01*
X158250583Y-106112310D01*
X157928617Y-106112310D01*
X157612837Y-106175122D01*
X157315378Y-106298333D01*
X157047673Y-106477208D01*
X156820008Y-106704873D01*
X156641133Y-106972578D01*
X156517922Y-107270037D01*
X156455110Y-107585817D01*
X156455110Y-107907783D01*
X156517922Y-108223563D01*
X156641133Y-108521022D01*
X156820008Y-108788727D01*
X156954600Y-108923319D01*
X156954600Y-109138849D01*
X156949109Y-109194600D01*
X156954600Y-109250351D01*
X156954600Y-109250352D01*
X156971023Y-109417099D01*
X157035924Y-109631047D01*
X157141317Y-109828223D01*
X157283152Y-110001049D01*
X157326460Y-110036591D01*
X157987204Y-110697335D01*
X158022751Y-110740649D01*
X158195577Y-110882484D01*
X158392753Y-110987876D01*
X158606701Y-111052777D01*
X158773448Y-111069200D01*
X158773457Y-111069200D01*
X158829199Y-111074690D01*
X158884941Y-111069200D01*
X168283917Y-111069200D01*
X168485960Y-111204200D01*
X168283917Y-111339200D01*
X164441543Y-111339200D01*
X164385799Y-111333710D01*
X164330055Y-111339200D01*
X164330048Y-111339200D01*
X164184293Y-111353556D01*
X164163300Y-111355623D01*
X164118544Y-111369200D01*
X163949353Y-111420524D01*
X163752177Y-111525916D01*
X163579351Y-111667751D01*
X163543808Y-111711060D01*
X162736660Y-112518209D01*
X162693352Y-112553751D01*
X162551517Y-112726577D01*
X162495184Y-112831970D01*
X162446124Y-112923754D01*
X162381223Y-113137702D01*
X162359309Y-113360200D01*
X162364800Y-113415951D01*
X162364800Y-113936281D01*
X162230208Y-114070873D01*
X162051333Y-114338578D01*
X161928122Y-114636037D01*
X161865310Y-114951817D01*
X161865310Y-115273783D01*
X161928122Y-115589563D01*
X162051333Y-115887022D01*
X162230208Y-116154727D01*
X162457873Y-116382392D01*
X162725578Y-116561267D01*
X163023037Y-116684478D01*
X163338817Y-116747290D01*
X163660783Y-116747290D01*
X163976563Y-116684478D01*
X164274022Y-116561267D01*
X164541727Y-116382392D01*
X164769392Y-116154727D01*
X164948267Y-115887022D01*
X165071478Y-115589563D01*
X165134290Y-115273783D01*
X165134290Y-114951817D01*
X165071478Y-114636037D01*
X164948267Y-114338578D01*
X164769392Y-114070873D01*
X164634800Y-113936281D01*
X164634800Y-113830331D01*
X164855932Y-113609200D01*
X168283917Y-113609200D01*
X168485960Y-113744200D01*
X168283917Y-113879200D01*
X167616552Y-113879200D01*
X167560800Y-113873709D01*
X167338301Y-113895623D01*
X167124353Y-113960524D01*
X166927177Y-114065916D01*
X166797656Y-114172211D01*
X166797655Y-114172212D01*
X166754351Y-114207751D01*
X166718813Y-114251054D01*
X164336865Y-116633004D01*
X164293551Y-116668551D01*
X164151716Y-116841377D01*
X164050402Y-117030924D01*
X164046324Y-117038554D01*
X163981423Y-117252502D01*
X163959509Y-117475000D01*
X163965000Y-117530751D01*
X163965000Y-118006268D01*
X162569446Y-119401823D01*
X162312509Y-119452930D01*
X162049536Y-119561857D01*
X161812866Y-119719995D01*
X161611595Y-119921266D01*
X161453457Y-120157936D01*
X161344530Y-120420909D01*
X161289000Y-120700080D01*
X161289000Y-120984720D01*
X161344530Y-121263891D01*
X161453457Y-121526864D01*
X161611595Y-121763534D01*
X161812866Y-121964805D01*
X162049536Y-122122943D01*
X162253433Y-122207400D01*
X158636284Y-122207400D01*
X158418464Y-122061857D01*
X158155491Y-121952930D01*
X157898555Y-121901823D01*
X156075000Y-120078269D01*
X156075000Y-118200080D01*
X156289000Y-118200080D01*
X156289000Y-118484720D01*
X156344530Y-118763891D01*
X156453457Y-119026864D01*
X156611595Y-119263534D01*
X156812866Y-119464805D01*
X157049536Y-119622943D01*
X157312509Y-119731870D01*
X157591680Y-119787400D01*
X157876320Y-119787400D01*
X158155491Y-119731870D01*
X158418464Y-119622943D01*
X158655134Y-119464805D01*
X158856405Y-119263534D01*
X159014543Y-119026864D01*
X159123470Y-118763891D01*
X159179000Y-118484720D01*
X159179000Y-118305482D01*
X159208177Y-118209299D01*
X159224600Y-118042552D01*
X159224600Y-118042543D01*
X159230090Y-117986801D01*
X159224600Y-117931059D01*
X159224600Y-116543319D01*
X159359192Y-116408727D01*
X159538067Y-116141022D01*
X159661278Y-115843563D01*
X159724090Y-115527783D01*
X159724090Y-115205817D01*
X159661278Y-114890037D01*
X159538067Y-114592578D01*
X159359192Y-114324873D01*
X159131527Y-114097208D01*
X158863822Y-113918333D01*
X158566363Y-113795122D01*
X158250583Y-113732310D01*
X157928617Y-113732310D01*
X157612837Y-113795122D01*
X157315378Y-113918333D01*
X157047673Y-114097208D01*
X156820008Y-114324873D01*
X156641133Y-114592578D01*
X156517922Y-114890037D01*
X156455110Y-115205817D01*
X156455110Y-115527783D01*
X156517922Y-115843563D01*
X156641133Y-116141022D01*
X156820008Y-116408727D01*
X156954600Y-116543319D01*
X156954601Y-117125291D01*
X156812866Y-117219995D01*
X156611595Y-117421266D01*
X156453457Y-117657936D01*
X156344530Y-117920909D01*
X156289000Y-118200080D01*
X156075000Y-118200080D01*
X156075000Y-104610131D01*
X156680132Y-104005000D01*
X162089869Y-104005000D01*
X162364800Y-104279932D01*
G37*
X162364800Y-104279932D02*
X162364800Y-106316281D01*
X162230208Y-106450873D01*
X162051333Y-106718578D01*
X161928122Y-107016037D01*
X161865310Y-107331817D01*
X161865310Y-107653783D01*
X161928122Y-107969563D01*
X162051333Y-108267022D01*
X162230208Y-108534727D01*
X162457873Y-108762392D01*
X162512960Y-108799200D01*
X159348719Y-108799200D01*
X159359192Y-108788727D01*
X159538067Y-108521022D01*
X159661278Y-108223563D01*
X159724090Y-107907783D01*
X159724090Y-107585817D01*
X159661278Y-107270037D01*
X159538067Y-106972578D01*
X159359192Y-106704873D01*
X159131527Y-106477208D01*
X158863822Y-106298333D01*
X158566363Y-106175122D01*
X158250583Y-106112310D01*
X157928617Y-106112310D01*
X157612837Y-106175122D01*
X157315378Y-106298333D01*
X157047673Y-106477208D01*
X156820008Y-106704873D01*
X156641133Y-106972578D01*
X156517922Y-107270037D01*
X156455110Y-107585817D01*
X156455110Y-107907783D01*
X156517922Y-108223563D01*
X156641133Y-108521022D01*
X156820008Y-108788727D01*
X156954600Y-108923319D01*
X156954600Y-109138849D01*
X156949109Y-109194600D01*
X156954600Y-109250351D01*
X156954600Y-109250352D01*
X156971023Y-109417099D01*
X157035924Y-109631047D01*
X157141317Y-109828223D01*
X157283152Y-110001049D01*
X157326460Y-110036591D01*
X157987204Y-110697335D01*
X158022751Y-110740649D01*
X158195577Y-110882484D01*
X158392753Y-110987876D01*
X158606701Y-111052777D01*
X158773448Y-111069200D01*
X158773457Y-111069200D01*
X158829199Y-111074690D01*
X158884941Y-111069200D01*
X168283917Y-111069200D01*
X168485960Y-111204200D01*
X168283917Y-111339200D01*
X164441543Y-111339200D01*
X164385799Y-111333710D01*
X164330055Y-111339200D01*
X164330048Y-111339200D01*
X164184293Y-111353556D01*
X164163300Y-111355623D01*
X164118544Y-111369200D01*
X163949353Y-111420524D01*
X163752177Y-111525916D01*
X163579351Y-111667751D01*
X163543808Y-111711060D01*
X162736660Y-112518209D01*
X162693352Y-112553751D01*
X162551517Y-112726577D01*
X162495184Y-112831970D01*
X162446124Y-112923754D01*
X162381223Y-113137702D01*
X162359309Y-113360200D01*
X162364800Y-113415951D01*
X162364800Y-113936281D01*
X162230208Y-114070873D01*
X162051333Y-114338578D01*
X161928122Y-114636037D01*
X161865310Y-114951817D01*
X161865310Y-115273783D01*
X161928122Y-115589563D01*
X162051333Y-115887022D01*
X162230208Y-116154727D01*
X162457873Y-116382392D01*
X162725578Y-116561267D01*
X163023037Y-116684478D01*
X163338817Y-116747290D01*
X163660783Y-116747290D01*
X163976563Y-116684478D01*
X164274022Y-116561267D01*
X164541727Y-116382392D01*
X164769392Y-116154727D01*
X164948267Y-115887022D01*
X165071478Y-115589563D01*
X165134290Y-115273783D01*
X165134290Y-114951817D01*
X165071478Y-114636037D01*
X164948267Y-114338578D01*
X164769392Y-114070873D01*
X164634800Y-113936281D01*
X164634800Y-113830331D01*
X164855932Y-113609200D01*
X168283917Y-113609200D01*
X168485960Y-113744200D01*
X168283917Y-113879200D01*
X167616552Y-113879200D01*
X167560800Y-113873709D01*
X167338301Y-113895623D01*
X167124353Y-113960524D01*
X166927177Y-114065916D01*
X166797656Y-114172211D01*
X166797655Y-114172212D01*
X166754351Y-114207751D01*
X166718813Y-114251054D01*
X164336865Y-116633004D01*
X164293551Y-116668551D01*
X164151716Y-116841377D01*
X164050402Y-117030924D01*
X164046324Y-117038554D01*
X163981423Y-117252502D01*
X163959509Y-117475000D01*
X163965000Y-117530751D01*
X163965000Y-118006268D01*
X162569446Y-119401823D01*
X162312509Y-119452930D01*
X162049536Y-119561857D01*
X161812866Y-119719995D01*
X161611595Y-119921266D01*
X161453457Y-120157936D01*
X161344530Y-120420909D01*
X161289000Y-120700080D01*
X161289000Y-120984720D01*
X161344530Y-121263891D01*
X161453457Y-121526864D01*
X161611595Y-121763534D01*
X161812866Y-121964805D01*
X162049536Y-122122943D01*
X162253433Y-122207400D01*
X158636284Y-122207400D01*
X158418464Y-122061857D01*
X158155491Y-121952930D01*
X157898555Y-121901823D01*
X156075000Y-120078269D01*
X156075000Y-118200080D01*
X156289000Y-118200080D01*
X156289000Y-118484720D01*
X156344530Y-118763891D01*
X156453457Y-119026864D01*
X156611595Y-119263534D01*
X156812866Y-119464805D01*
X157049536Y-119622943D01*
X157312509Y-119731870D01*
X157591680Y-119787400D01*
X157876320Y-119787400D01*
X158155491Y-119731870D01*
X158418464Y-119622943D01*
X158655134Y-119464805D01*
X158856405Y-119263534D01*
X159014543Y-119026864D01*
X159123470Y-118763891D01*
X159179000Y-118484720D01*
X159179000Y-118305482D01*
X159208177Y-118209299D01*
X159224600Y-118042552D01*
X159224600Y-118042543D01*
X159230090Y-117986801D01*
X159224600Y-117931059D01*
X159224600Y-116543319D01*
X159359192Y-116408727D01*
X159538067Y-116141022D01*
X159661278Y-115843563D01*
X159724090Y-115527783D01*
X159724090Y-115205817D01*
X159661278Y-114890037D01*
X159538067Y-114592578D01*
X159359192Y-114324873D01*
X159131527Y-114097208D01*
X158863822Y-113918333D01*
X158566363Y-113795122D01*
X158250583Y-113732310D01*
X157928617Y-113732310D01*
X157612837Y-113795122D01*
X157315378Y-113918333D01*
X157047673Y-114097208D01*
X156820008Y-114324873D01*
X156641133Y-114592578D01*
X156517922Y-114890037D01*
X156455110Y-115205817D01*
X156455110Y-115527783D01*
X156517922Y-115843563D01*
X156641133Y-116141022D01*
X156820008Y-116408727D01*
X156954600Y-116543319D01*
X156954601Y-117125291D01*
X156812866Y-117219995D01*
X156611595Y-117421266D01*
X156453457Y-117657936D01*
X156344530Y-117920909D01*
X156289000Y-118200080D01*
X156075000Y-118200080D01*
X156075000Y-104610131D01*
X156680132Y-104005000D01*
X162089869Y-104005000D01*
X162364800Y-104279932D01*
G36*
X168485960Y-116284200D02*
G01*
X168253442Y-116439563D01*
X168053564Y-116639441D01*
X167896521Y-116874473D01*
X167788348Y-117135626D01*
X167733201Y-117412865D01*
X167733201Y-117695535D01*
X167788348Y-117972774D01*
X167896521Y-118233927D01*
X168033201Y-118438484D01*
X168033202Y-119209915D01*
X167896521Y-119414473D01*
X167788348Y-119675626D01*
X167733201Y-119952865D01*
X167733201Y-120235535D01*
X167788348Y-120512774D01*
X167896521Y-120773927D01*
X168053564Y-121008959D01*
X168253442Y-121208837D01*
X168485960Y-121364200D01*
X168283917Y-121499200D01*
X166346551Y-121499200D01*
X166290799Y-121493709D01*
X166235048Y-121499200D01*
X166068301Y-121515623D01*
X165854353Y-121580524D01*
X165657177Y-121685916D01*
X165484351Y-121827751D01*
X165448804Y-121871065D01*
X165112469Y-122207400D01*
X163214567Y-122207400D01*
X163418464Y-122122943D01*
X163655134Y-121964805D01*
X163856405Y-121763534D01*
X164014543Y-121526864D01*
X164123470Y-121263891D01*
X164174577Y-121006954D01*
X165863141Y-119318391D01*
X165906449Y-119282849D01*
X166048284Y-119110023D01*
X166153676Y-118912847D01*
X166218577Y-118698899D01*
X166235000Y-118532152D01*
X166235000Y-118532143D01*
X166240490Y-118476401D01*
X166235000Y-118420659D01*
X166235000Y-117945131D01*
X168030933Y-116149200D01*
X168283917Y-116149200D01*
X168485960Y-116284200D01*
G37*
X168485960Y-116284200D02*
X168253442Y-116439563D01*
X168053564Y-116639441D01*
X167896521Y-116874473D01*
X167788348Y-117135626D01*
X167733201Y-117412865D01*
X167733201Y-117695535D01*
X167788348Y-117972774D01*
X167896521Y-118233927D01*
X168033201Y-118438484D01*
X168033202Y-119209915D01*
X167896521Y-119414473D01*
X167788348Y-119675626D01*
X167733201Y-119952865D01*
X167733201Y-120235535D01*
X167788348Y-120512774D01*
X167896521Y-120773927D01*
X168053564Y-121008959D01*
X168253442Y-121208837D01*
X168485960Y-121364200D01*
X168283917Y-121499200D01*
X166346551Y-121499200D01*
X166290799Y-121493709D01*
X166235048Y-121499200D01*
X166068301Y-121515623D01*
X165854353Y-121580524D01*
X165657177Y-121685916D01*
X165484351Y-121827751D01*
X165448804Y-121871065D01*
X165112469Y-122207400D01*
X163214567Y-122207400D01*
X163418464Y-122122943D01*
X163655134Y-121964805D01*
X163856405Y-121763534D01*
X164014543Y-121526864D01*
X164123470Y-121263891D01*
X164174577Y-121006954D01*
X165863141Y-119318391D01*
X165906449Y-119282849D01*
X166048284Y-119110023D01*
X166153676Y-118912847D01*
X166218577Y-118698899D01*
X166235000Y-118532152D01*
X166235000Y-118532143D01*
X166240490Y-118476401D01*
X166235000Y-118420659D01*
X166235000Y-117945131D01*
X168030933Y-116149200D01*
X168283917Y-116149200D01*
X168485960Y-116284200D01*
G36*
X184462801Y-119120418D02*
G01*
X184462800Y-121523389D01*
X184408985Y-121457815D01*
X184312294Y-121378463D01*
X184201980Y-121319498D01*
X184082282Y-121283188D01*
X183957800Y-121270928D01*
X183839364Y-121270928D01*
X183820941Y-121255809D01*
X182060804Y-119495672D01*
X183830800Y-119495672D01*
X183955282Y-119483412D01*
X184074980Y-119447102D01*
X184185294Y-119388137D01*
X184281985Y-119308785D01*
X184361337Y-119212094D01*
X184420302Y-119101780D01*
X184425856Y-119083473D01*
X184462801Y-119120418D01*
G37*
X184462801Y-119120418D02*
X184462800Y-121523389D01*
X184408985Y-121457815D01*
X184312294Y-121378463D01*
X184201980Y-121319498D01*
X184082282Y-121283188D01*
X183957800Y-121270928D01*
X183839364Y-121270928D01*
X183820941Y-121255809D01*
X182060804Y-119495672D01*
X183830800Y-119495672D01*
X183955282Y-119483412D01*
X184074980Y-119447102D01*
X184185294Y-119388137D01*
X184281985Y-119308785D01*
X184361337Y-119212094D01*
X184420302Y-119101780D01*
X184425856Y-119083473D01*
X184462801Y-119120418D01*
G36*
X177679069Y-121499200D02*
G01*
X177672485Y-121499200D01*
X177470442Y-121364200D01*
X177514578Y-121334709D01*
X177679069Y-121499200D01*
G37*
X177679069Y-121499200D02*
X177672485Y-121499200D01*
X177470442Y-121364200D01*
X177514578Y-121334709D01*
X177679069Y-121499200D01*
G36*
X178486962Y-119132093D02*
G01*
X178315647Y-119040524D01*
X178101699Y-118975623D01*
X177934952Y-118959200D01*
X177934951Y-118959200D01*
X177879200Y-118953709D01*
X177823449Y-118959200D01*
X177672485Y-118959200D01*
X177470442Y-118824200D01*
X177672485Y-118689200D01*
X178044069Y-118689200D01*
X178486962Y-119132093D01*
G37*
X178486962Y-119132093D02*
X178315647Y-119040524D01*
X178101699Y-118975623D01*
X177934952Y-118959200D01*
X177934951Y-118959200D01*
X177879200Y-118953709D01*
X177823449Y-118959200D01*
X177672485Y-118959200D01*
X177470442Y-118824200D01*
X177672485Y-118689200D01*
X178044069Y-118689200D01*
X178486962Y-119132093D01*
G36*
X181392728Y-118024660D02*
G01*
X181392728Y-118827597D01*
X179356196Y-116791065D01*
X179320649Y-116747751D01*
X179147823Y-116605916D01*
X178950647Y-116500524D01*
X178736699Y-116435623D01*
X178569952Y-116419200D01*
X178569951Y-116419200D01*
X178514200Y-116413709D01*
X178458449Y-116419200D01*
X177672485Y-116419200D01*
X177470442Y-116284200D01*
X177672485Y-116149200D01*
X179517269Y-116149200D01*
X181392728Y-118024660D01*
G37*
X181392728Y-118024660D02*
X181392728Y-118827597D01*
X179356196Y-116791065D01*
X179320649Y-116747751D01*
X179147823Y-116605916D01*
X178950647Y-116500524D01*
X178736699Y-116435623D01*
X178569952Y-116419200D01*
X178569951Y-116419200D01*
X178514200Y-116413709D01*
X178458449Y-116419200D01*
X177672485Y-116419200D01*
X177470442Y-116284200D01*
X177672485Y-116149200D01*
X179517269Y-116149200D01*
X181392728Y-118024660D01*
G36*
X181443528Y-114107800D02*
G01*
X181455788Y-114232282D01*
X181492098Y-114351980D01*
X181551063Y-114462294D01*
X181630415Y-114558985D01*
X181727106Y-114638337D01*
X181837420Y-114697302D01*
X181957118Y-114733612D01*
X182081600Y-114745872D01*
X183881600Y-114745872D01*
X184006082Y-114733612D01*
X184125780Y-114697302D01*
X184236094Y-114638337D01*
X184332785Y-114558985D01*
X184386600Y-114493411D01*
X184386601Y-116750370D01*
X184361337Y-116703106D01*
X184281985Y-116606415D01*
X184185294Y-116527063D01*
X184074980Y-116468098D01*
X183955282Y-116431788D01*
X183830800Y-116419528D01*
X182997860Y-116419528D01*
X180829396Y-114251065D01*
X180793849Y-114207751D01*
X180621023Y-114065916D01*
X180423847Y-113960524D01*
X180209899Y-113895623D01*
X180043152Y-113879200D01*
X180043151Y-113879200D01*
X179987400Y-113873709D01*
X179931649Y-113879200D01*
X177672485Y-113879200D01*
X177470442Y-113744200D01*
X177672485Y-113609200D01*
X181443528Y-113609200D01*
X181443528Y-114107800D01*
G37*
X181443528Y-114107800D02*
X181455788Y-114232282D01*
X181492098Y-114351980D01*
X181551063Y-114462294D01*
X181630415Y-114558985D01*
X181727106Y-114638337D01*
X181837420Y-114697302D01*
X181957118Y-114733612D01*
X182081600Y-114745872D01*
X183881600Y-114745872D01*
X184006082Y-114733612D01*
X184125780Y-114697302D01*
X184236094Y-114638337D01*
X184332785Y-114558985D01*
X184386600Y-114493411D01*
X184386601Y-116750370D01*
X184361337Y-116703106D01*
X184281985Y-116606415D01*
X184185294Y-116527063D01*
X184074980Y-116468098D01*
X183955282Y-116431788D01*
X183830800Y-116419528D01*
X182997860Y-116419528D01*
X180829396Y-114251065D01*
X180793849Y-114207751D01*
X180621023Y-114065916D01*
X180423847Y-113960524D01*
X180209899Y-113895623D01*
X180043152Y-113879200D01*
X180043151Y-113879200D01*
X179987400Y-113873709D01*
X179931649Y-113879200D01*
X177672485Y-113879200D01*
X177470442Y-113744200D01*
X177672485Y-113609200D01*
X181443528Y-113609200D01*
X181443528Y-114107800D01*
G36*
X184361201Y-111891240D02*
G01*
X184332785Y-111856615D01*
X184236094Y-111777263D01*
X184125780Y-111718298D01*
X184006082Y-111681988D01*
X183881600Y-111669728D01*
X183056071Y-111669728D01*
X183054449Y-111667751D01*
X182881623Y-111525916D01*
X182684447Y-111420524D01*
X182470499Y-111355623D01*
X182303752Y-111339200D01*
X182303751Y-111339200D01*
X182248000Y-111333709D01*
X182192249Y-111339200D01*
X177672485Y-111339200D01*
X177470442Y-111204200D01*
X177672485Y-111069200D01*
X180205049Y-111069200D01*
X180260800Y-111074691D01*
X180316551Y-111069200D01*
X180316552Y-111069200D01*
X180483299Y-111052777D01*
X180697247Y-110987876D01*
X180894423Y-110882484D01*
X181067249Y-110740649D01*
X181102796Y-110697335D01*
X181901643Y-109898489D01*
X181931718Y-109907612D01*
X182056200Y-109919872D01*
X183856200Y-109919872D01*
X183980682Y-109907612D01*
X184100380Y-109871302D01*
X184210694Y-109812337D01*
X184307385Y-109732985D01*
X184361200Y-109667411D01*
X184361201Y-111891240D01*
G37*
X184361201Y-111891240D02*
X184332785Y-111856615D01*
X184236094Y-111777263D01*
X184125780Y-111718298D01*
X184006082Y-111681988D01*
X183881600Y-111669728D01*
X183056071Y-111669728D01*
X183054449Y-111667751D01*
X182881623Y-111525916D01*
X182684447Y-111420524D01*
X182470499Y-111355623D01*
X182303752Y-111339200D01*
X182303751Y-111339200D01*
X182248000Y-111333709D01*
X182192249Y-111339200D01*
X177672485Y-111339200D01*
X177470442Y-111204200D01*
X177672485Y-111069200D01*
X180205049Y-111069200D01*
X180260800Y-111074691D01*
X180316551Y-111069200D01*
X180316552Y-111069200D01*
X180483299Y-111052777D01*
X180697247Y-110987876D01*
X180894423Y-110882484D01*
X181067249Y-110740649D01*
X181102796Y-110697335D01*
X181901643Y-109898489D01*
X181931718Y-109907612D01*
X182056200Y-109919872D01*
X183856200Y-109919872D01*
X183980682Y-109907612D01*
X184100380Y-109871302D01*
X184210694Y-109812337D01*
X184307385Y-109732985D01*
X184361200Y-109667411D01*
X184361201Y-111891240D01*
G36*
X168485960Y-108664200D02*
G01*
X168283917Y-108799200D01*
X164486640Y-108799200D01*
X164541727Y-108762392D01*
X164676319Y-108627800D01*
X168431483Y-108627800D01*
X168485960Y-108664200D01*
G37*
X168485960Y-108664200D02*
X168283917Y-108799200D01*
X164486640Y-108799200D01*
X164541727Y-108762392D01*
X164676319Y-108627800D01*
X168431483Y-108627800D01*
X168485960Y-108664200D01*
G36*
X181720698Y-104649180D02*
G01*
X181779663Y-104759494D01*
X181859015Y-104856185D01*
X181955706Y-104935537D01*
X182066020Y-104994502D01*
X182185718Y-105030812D01*
X182310200Y-105043072D01*
X184110200Y-105043072D01*
X184234682Y-105030812D01*
X184354380Y-104994502D01*
X184361201Y-104990856D01*
X184361200Y-107096189D01*
X184307385Y-107030615D01*
X184210694Y-106951263D01*
X184100380Y-106892298D01*
X183980682Y-106855988D01*
X183856200Y-106843728D01*
X182056200Y-106843728D01*
X181931718Y-106855988D01*
X181812020Y-106892298D01*
X181701706Y-106951263D01*
X181605015Y-107030615D01*
X181525663Y-107127306D01*
X181466698Y-107237620D01*
X181445577Y-107307246D01*
X181376753Y-107328124D01*
X181179577Y-107433516D01*
X181006751Y-107575351D01*
X180971209Y-107618660D01*
X179790669Y-108799200D01*
X177672485Y-108799200D01*
X177470442Y-108664200D01*
X177672485Y-108529200D01*
X178935049Y-108529200D01*
X178990800Y-108534691D01*
X179046551Y-108529200D01*
X179046552Y-108529200D01*
X179213299Y-108512777D01*
X179427247Y-108447876D01*
X179624423Y-108342484D01*
X179797249Y-108200649D01*
X179832796Y-108157335D01*
X181103140Y-106886992D01*
X181146449Y-106851449D01*
X181288284Y-106678623D01*
X181393676Y-106481447D01*
X181458577Y-106267499D01*
X181475000Y-106100752D01*
X181475000Y-106100751D01*
X181480491Y-106045000D01*
X181475000Y-105989249D01*
X181475000Y-104640000D01*
X181717913Y-104640000D01*
X181720698Y-104649180D01*
G37*
X181720698Y-104649180D02*
X181779663Y-104759494D01*
X181859015Y-104856185D01*
X181955706Y-104935537D01*
X182066020Y-104994502D01*
X182185718Y-105030812D01*
X182310200Y-105043072D01*
X184110200Y-105043072D01*
X184234682Y-105030812D01*
X184354380Y-104994502D01*
X184361201Y-104990856D01*
X184361200Y-107096189D01*
X184307385Y-107030615D01*
X184210694Y-106951263D01*
X184100380Y-106892298D01*
X183980682Y-106855988D01*
X183856200Y-106843728D01*
X182056200Y-106843728D01*
X181931718Y-106855988D01*
X181812020Y-106892298D01*
X181701706Y-106951263D01*
X181605015Y-107030615D01*
X181525663Y-107127306D01*
X181466698Y-107237620D01*
X181445577Y-107307246D01*
X181376753Y-107328124D01*
X181179577Y-107433516D01*
X181006751Y-107575351D01*
X180971209Y-107618660D01*
X179790669Y-108799200D01*
X177672485Y-108799200D01*
X177470442Y-108664200D01*
X177672485Y-108529200D01*
X178935049Y-108529200D01*
X178990800Y-108534691D01*
X179046551Y-108529200D01*
X179046552Y-108529200D01*
X179213299Y-108512777D01*
X179427247Y-108447876D01*
X179624423Y-108342484D01*
X179797249Y-108200649D01*
X179832796Y-108157335D01*
X181103140Y-106886992D01*
X181146449Y-106851449D01*
X181288284Y-106678623D01*
X181393676Y-106481447D01*
X181458577Y-106267499D01*
X181475000Y-106100752D01*
X181475000Y-106100751D01*
X181480491Y-106045000D01*
X181475000Y-105989249D01*
X181475000Y-104640000D01*
X181717913Y-104640000D01*
X181720698Y-104649180D01*
G36*
X184666000Y-90386133D02*
G01*
X184666001Y-92059390D01*
X184612185Y-91993815D01*
X184515494Y-91914463D01*
X184405180Y-91855498D01*
X184285482Y-91819188D01*
X184161000Y-91806928D01*
X182361000Y-91806928D01*
X182236518Y-91819188D01*
X182116820Y-91855498D01*
X182006506Y-91914463D01*
X181909815Y-91993815D01*
X181830463Y-92090506D01*
X181771498Y-92200820D01*
X181768713Y-92210000D01*
X181030752Y-92210000D01*
X180975000Y-92204509D01*
X180752501Y-92226423D01*
X180538553Y-92291324D01*
X180341377Y-92396716D01*
X180211856Y-92503011D01*
X180211854Y-92503013D01*
X180168551Y-92538551D01*
X180133013Y-92581854D01*
X174789869Y-97925000D01*
X172140752Y-97925000D01*
X172085000Y-97919509D01*
X171862501Y-97941423D01*
X171648553Y-98006324D01*
X171451377Y-98111716D01*
X171321856Y-98218011D01*
X171321854Y-98218013D01*
X171278551Y-98253551D01*
X171243013Y-98296854D01*
X168405061Y-101134808D01*
X168361753Y-101170350D01*
X168219918Y-101343176D01*
X168163585Y-101448569D01*
X168114525Y-101540353D01*
X168049624Y-101754301D01*
X168027710Y-101976799D01*
X168033202Y-102032560D01*
X168033201Y-103513243D01*
X168013707Y-103523663D01*
X167917016Y-103603015D01*
X167837664Y-103699706D01*
X167778699Y-103810020D01*
X167742389Y-103929718D01*
X167730129Y-104054200D01*
X167730129Y-105654200D01*
X167742389Y-105778682D01*
X167778699Y-105898380D01*
X167837664Y-106008694D01*
X167917016Y-106105385D01*
X168013707Y-106184737D01*
X168124021Y-106243702D01*
X168243719Y-106280012D01*
X168252162Y-106280843D01*
X168175205Y-106357800D01*
X164676319Y-106357800D01*
X164634800Y-106316281D01*
X164634800Y-103865551D01*
X164640291Y-103809800D01*
X164634800Y-103754048D01*
X164634800Y-97955331D01*
X167678333Y-94911800D01*
X168748859Y-94911800D01*
X168801890Y-94991166D01*
X169067234Y-95256510D01*
X169379244Y-95464989D01*
X169725932Y-95608591D01*
X170093974Y-95681800D01*
X170469226Y-95681800D01*
X170837268Y-95608591D01*
X171183956Y-95464989D01*
X171495966Y-95256510D01*
X171761310Y-94991166D01*
X171969789Y-94679156D01*
X172113391Y-94332468D01*
X172186600Y-93964426D01*
X172186600Y-93589174D01*
X172113391Y-93221132D01*
X171969789Y-92874444D01*
X171761310Y-92562434D01*
X171495966Y-92297090D01*
X171183956Y-92088611D01*
X170837268Y-91945009D01*
X170469226Y-91871800D01*
X170093974Y-91871800D01*
X169725932Y-91945009D01*
X169379244Y-92088611D01*
X169067234Y-92297090D01*
X168801890Y-92562434D01*
X168748859Y-92641800D01*
X167263952Y-92641800D01*
X167208200Y-92636309D01*
X166985701Y-92658223D01*
X166771753Y-92723124D01*
X166574577Y-92828516D01*
X166445056Y-92934811D01*
X166445054Y-92934813D01*
X166401751Y-92970351D01*
X166366213Y-93013654D01*
X164441758Y-94938110D01*
X164467612Y-94852882D01*
X164479872Y-94728400D01*
X164479872Y-93028400D01*
X164467612Y-92903918D01*
X164431302Y-92784220D01*
X164372337Y-92673906D01*
X164292985Y-92577215D01*
X164196294Y-92497863D01*
X164126800Y-92460717D01*
X164126800Y-91478331D01*
X165570132Y-90035000D01*
X173519869Y-90035000D01*
X174226601Y-90741733D01*
X174226601Y-91282641D01*
X174221109Y-91338400D01*
X174226601Y-91394158D01*
X174226601Y-91868728D01*
X174091600Y-91868728D01*
X173967118Y-91880988D01*
X173847420Y-91917298D01*
X173737106Y-91976263D01*
X173640415Y-92055615D01*
X173561063Y-92152306D01*
X173502098Y-92262620D01*
X173465788Y-92382318D01*
X173453528Y-92506800D01*
X173453528Y-95046800D01*
X173465788Y-95171282D01*
X173502098Y-95290980D01*
X173561063Y-95401294D01*
X173640415Y-95497985D01*
X173737106Y-95577337D01*
X173847420Y-95636302D01*
X173967118Y-95672612D01*
X174091600Y-95684872D01*
X176631600Y-95684872D01*
X176756082Y-95672612D01*
X176875780Y-95636302D01*
X176986094Y-95577337D01*
X177082785Y-95497985D01*
X177162137Y-95401294D01*
X177221102Y-95290980D01*
X177257412Y-95171282D01*
X177269672Y-95046800D01*
X177269672Y-92506800D01*
X177257412Y-92382318D01*
X177221102Y-92262620D01*
X177162137Y-92152306D01*
X177082785Y-92055615D01*
X176986094Y-91976263D01*
X176875780Y-91917298D01*
X176756082Y-91880988D01*
X176631600Y-91868728D01*
X176496600Y-91868728D01*
X176496600Y-91808531D01*
X178905132Y-89400000D01*
X183679869Y-89400000D01*
X184666000Y-90386133D01*
G37*
X184666000Y-90386133D02*
X184666001Y-92059390D01*
X184612185Y-91993815D01*
X184515494Y-91914463D01*
X184405180Y-91855498D01*
X184285482Y-91819188D01*
X184161000Y-91806928D01*
X182361000Y-91806928D01*
X182236518Y-91819188D01*
X182116820Y-91855498D01*
X182006506Y-91914463D01*
X181909815Y-91993815D01*
X181830463Y-92090506D01*
X181771498Y-92200820D01*
X181768713Y-92210000D01*
X181030752Y-92210000D01*
X180975000Y-92204509D01*
X180752501Y-92226423D01*
X180538553Y-92291324D01*
X180341377Y-92396716D01*
X180211856Y-92503011D01*
X180211854Y-92503013D01*
X180168551Y-92538551D01*
X180133013Y-92581854D01*
X174789869Y-97925000D01*
X172140752Y-97925000D01*
X172085000Y-97919509D01*
X171862501Y-97941423D01*
X171648553Y-98006324D01*
X171451377Y-98111716D01*
X171321856Y-98218011D01*
X171321854Y-98218013D01*
X171278551Y-98253551D01*
X171243013Y-98296854D01*
X168405061Y-101134808D01*
X168361753Y-101170350D01*
X168219918Y-101343176D01*
X168163585Y-101448569D01*
X168114525Y-101540353D01*
X168049624Y-101754301D01*
X168027710Y-101976799D01*
X168033202Y-102032560D01*
X168033201Y-103513243D01*
X168013707Y-103523663D01*
X167917016Y-103603015D01*
X167837664Y-103699706D01*
X167778699Y-103810020D01*
X167742389Y-103929718D01*
X167730129Y-104054200D01*
X167730129Y-105654200D01*
X167742389Y-105778682D01*
X167778699Y-105898380D01*
X167837664Y-106008694D01*
X167917016Y-106105385D01*
X168013707Y-106184737D01*
X168124021Y-106243702D01*
X168243719Y-106280012D01*
X168252162Y-106280843D01*
X168175205Y-106357800D01*
X164676319Y-106357800D01*
X164634800Y-106316281D01*
X164634800Y-103865551D01*
X164640291Y-103809800D01*
X164634800Y-103754048D01*
X164634800Y-97955331D01*
X167678333Y-94911800D01*
X168748859Y-94911800D01*
X168801890Y-94991166D01*
X169067234Y-95256510D01*
X169379244Y-95464989D01*
X169725932Y-95608591D01*
X170093974Y-95681800D01*
X170469226Y-95681800D01*
X170837268Y-95608591D01*
X171183956Y-95464989D01*
X171495966Y-95256510D01*
X171761310Y-94991166D01*
X171969789Y-94679156D01*
X172113391Y-94332468D01*
X172186600Y-93964426D01*
X172186600Y-93589174D01*
X172113391Y-93221132D01*
X171969789Y-92874444D01*
X171761310Y-92562434D01*
X171495966Y-92297090D01*
X171183956Y-92088611D01*
X170837268Y-91945009D01*
X170469226Y-91871800D01*
X170093974Y-91871800D01*
X169725932Y-91945009D01*
X169379244Y-92088611D01*
X169067234Y-92297090D01*
X168801890Y-92562434D01*
X168748859Y-92641800D01*
X167263952Y-92641800D01*
X167208200Y-92636309D01*
X166985701Y-92658223D01*
X166771753Y-92723124D01*
X166574577Y-92828516D01*
X166445056Y-92934811D01*
X166445054Y-92934813D01*
X166401751Y-92970351D01*
X166366213Y-93013654D01*
X164441758Y-94938110D01*
X164467612Y-94852882D01*
X164479872Y-94728400D01*
X164479872Y-93028400D01*
X164467612Y-92903918D01*
X164431302Y-92784220D01*
X164372337Y-92673906D01*
X164292985Y-92577215D01*
X164196294Y-92497863D01*
X164126800Y-92460717D01*
X164126800Y-91478331D01*
X165570132Y-90035000D01*
X173519869Y-90035000D01*
X174226601Y-90741733D01*
X174226601Y-91282641D01*
X174221109Y-91338400D01*
X174226601Y-91394158D01*
X174226601Y-91868728D01*
X174091600Y-91868728D01*
X173967118Y-91880988D01*
X173847420Y-91917298D01*
X173737106Y-91976263D01*
X173640415Y-92055615D01*
X173561063Y-92152306D01*
X173502098Y-92262620D01*
X173465788Y-92382318D01*
X173453528Y-92506800D01*
X173453528Y-95046800D01*
X173465788Y-95171282D01*
X173502098Y-95290980D01*
X173561063Y-95401294D01*
X173640415Y-95497985D01*
X173737106Y-95577337D01*
X173847420Y-95636302D01*
X173967118Y-95672612D01*
X174091600Y-95684872D01*
X176631600Y-95684872D01*
X176756082Y-95672612D01*
X176875780Y-95636302D01*
X176986094Y-95577337D01*
X177082785Y-95497985D01*
X177162137Y-95401294D01*
X177221102Y-95290980D01*
X177257412Y-95171282D01*
X177269672Y-95046800D01*
X177269672Y-92506800D01*
X177257412Y-92382318D01*
X177221102Y-92262620D01*
X177162137Y-92152306D01*
X177082785Y-92055615D01*
X176986094Y-91976263D01*
X176875780Y-91917298D01*
X176756082Y-91880988D01*
X176631600Y-91868728D01*
X176496600Y-91868728D01*
X176496600Y-91808531D01*
X178905132Y-89400000D01*
X183679869Y-89400000D01*
X184666000Y-90386133D01*
G36*
X181771498Y-99442180D02*
G01*
X181830463Y-99552494D01*
X181909815Y-99649185D01*
X182006506Y-99728537D01*
X182116820Y-99787502D01*
X182236518Y-99823812D01*
X182361000Y-99836072D01*
X184161000Y-99836072D01*
X184285482Y-99823812D01*
X184405180Y-99787502D01*
X184515494Y-99728537D01*
X184612185Y-99649185D01*
X184615201Y-99645510D01*
X184615200Y-102219389D01*
X184561385Y-102153815D01*
X184464694Y-102074463D01*
X184354380Y-102015498D01*
X184234682Y-101979188D01*
X184110200Y-101966928D01*
X182310200Y-101966928D01*
X182185718Y-101979188D01*
X182066020Y-102015498D01*
X181955706Y-102074463D01*
X181859015Y-102153815D01*
X181779663Y-102250506D01*
X181720698Y-102360820D01*
X181717913Y-102370000D01*
X181030752Y-102370000D01*
X180975000Y-102364509D01*
X180919248Y-102370000D01*
X180752501Y-102386423D01*
X180538553Y-102451324D01*
X180341377Y-102556716D01*
X180168551Y-102698551D01*
X180133008Y-102741860D01*
X179576860Y-103298009D01*
X179533552Y-103333551D01*
X179391717Y-103506377D01*
X179382478Y-103523663D01*
X179286324Y-103703554D01*
X179221423Y-103917502D01*
X179199509Y-104140000D01*
X179205001Y-104195761D01*
X179205000Y-105574868D01*
X178520669Y-106259200D01*
X177672485Y-106259200D01*
X177470442Y-106124200D01*
X177702960Y-105968837D01*
X177902838Y-105768959D01*
X178059881Y-105533927D01*
X178168054Y-105272774D01*
X178223201Y-104995535D01*
X178223201Y-104712865D01*
X178168054Y-104435626D01*
X178059881Y-104174473D01*
X177923201Y-103969916D01*
X177923201Y-101176930D01*
X179667132Y-99433000D01*
X181768713Y-99433000D01*
X181771498Y-99442180D01*
G37*
X181771498Y-99442180D02*
X181830463Y-99552494D01*
X181909815Y-99649185D01*
X182006506Y-99728537D01*
X182116820Y-99787502D01*
X182236518Y-99823812D01*
X182361000Y-99836072D01*
X184161000Y-99836072D01*
X184285482Y-99823812D01*
X184405180Y-99787502D01*
X184515494Y-99728537D01*
X184612185Y-99649185D01*
X184615201Y-99645510D01*
X184615200Y-102219389D01*
X184561385Y-102153815D01*
X184464694Y-102074463D01*
X184354380Y-102015498D01*
X184234682Y-101979188D01*
X184110200Y-101966928D01*
X182310200Y-101966928D01*
X182185718Y-101979188D01*
X182066020Y-102015498D01*
X181955706Y-102074463D01*
X181859015Y-102153815D01*
X181779663Y-102250506D01*
X181720698Y-102360820D01*
X181717913Y-102370000D01*
X181030752Y-102370000D01*
X180975000Y-102364509D01*
X180919248Y-102370000D01*
X180752501Y-102386423D01*
X180538553Y-102451324D01*
X180341377Y-102556716D01*
X180168551Y-102698551D01*
X180133008Y-102741860D01*
X179576860Y-103298009D01*
X179533552Y-103333551D01*
X179391717Y-103506377D01*
X179382478Y-103523663D01*
X179286324Y-103703554D01*
X179221423Y-103917502D01*
X179199509Y-104140000D01*
X179205001Y-104195761D01*
X179205000Y-105574868D01*
X178520669Y-106259200D01*
X177672485Y-106259200D01*
X177470442Y-106124200D01*
X177702960Y-105968837D01*
X177902838Y-105768959D01*
X178059881Y-105533927D01*
X178168054Y-105272774D01*
X178223201Y-104995535D01*
X178223201Y-104712865D01*
X178168054Y-104435626D01*
X178059881Y-104174473D01*
X177923201Y-103969916D01*
X177923201Y-101176930D01*
X179667132Y-99433000D01*
X181768713Y-99433000D01*
X181771498Y-99442180D01*
G36*
X181771498Y-94489180D02*
G01*
X181830463Y-94599494D01*
X181909815Y-94696185D01*
X182006506Y-94775537D01*
X182116820Y-94834502D01*
X182236518Y-94870812D01*
X182361000Y-94883072D01*
X184161000Y-94883072D01*
X184285482Y-94870812D01*
X184405180Y-94834502D01*
X184515494Y-94775537D01*
X184612185Y-94696185D01*
X184666001Y-94630610D01*
X184666000Y-97012389D01*
X184612185Y-96946815D01*
X184515494Y-96867463D01*
X184405180Y-96808498D01*
X184285482Y-96772188D01*
X184161000Y-96759928D01*
X182361000Y-96759928D01*
X182236518Y-96772188D01*
X182116820Y-96808498D01*
X182006506Y-96867463D01*
X181909815Y-96946815D01*
X181830463Y-97043506D01*
X181771498Y-97153820D01*
X181768713Y-97163000D01*
X179252743Y-97163000D01*
X179196999Y-97157510D01*
X179141255Y-97163000D01*
X179141248Y-97163000D01*
X178995493Y-97177356D01*
X178974500Y-97179423D01*
X178924705Y-97194529D01*
X178760553Y-97244324D01*
X178589240Y-97335892D01*
X181445133Y-94480000D01*
X181768713Y-94480000D01*
X181771498Y-94489180D01*
G37*
X181771498Y-94489180D02*
X181830463Y-94599494D01*
X181909815Y-94696185D01*
X182006506Y-94775537D01*
X182116820Y-94834502D01*
X182236518Y-94870812D01*
X182361000Y-94883072D01*
X184161000Y-94883072D01*
X184285482Y-94870812D01*
X184405180Y-94834502D01*
X184515494Y-94775537D01*
X184612185Y-94696185D01*
X184666001Y-94630610D01*
X184666000Y-97012389D01*
X184612185Y-96946815D01*
X184515494Y-96867463D01*
X184405180Y-96808498D01*
X184285482Y-96772188D01*
X184161000Y-96759928D01*
X182361000Y-96759928D01*
X182236518Y-96772188D01*
X182116820Y-96808498D01*
X182006506Y-96867463D01*
X181909815Y-96946815D01*
X181830463Y-97043506D01*
X181771498Y-97153820D01*
X181768713Y-97163000D01*
X179252743Y-97163000D01*
X179196999Y-97157510D01*
X179141255Y-97163000D01*
X179141248Y-97163000D01*
X178995493Y-97177356D01*
X178974500Y-97179423D01*
X178924705Y-97194529D01*
X178760553Y-97244324D01*
X178589240Y-97335892D01*
X181445133Y-94480000D01*
X181768713Y-94480000D01*
X181771498Y-94489180D01*
M02*
