%TF.GenerationSoftware,KiCad,Pcbnew,(5.1.6)-1*%
%TF.CreationDate,2020-09-07T11:54:29+05:30*%
%TF.ProjectId,LM3914,4c4d3339-3134-42e6-9b69-6361645f7063,rev?*%
%TF.SameCoordinates,Original*%
%TF.FileFunction,Legend,Top*%
%TF.FilePolarity,Positive*%
%FSLAX46Y46*%
G04 Gerber Fmt 4.6, Leading zero omitted, Abs format (unit mm)*
G04 Created by KiCad (PCBNEW (5.1.6)-1) date 2020-09-07 11:54:29*
%MOMM*%
%LPD*%
G01*
G04 APERTURE LIST*
%ADD10C,0.300000*%
%ADD11C,0.400000*%
%ADD12C,0.010000*%
%ADD13C,0.120000*%
%ADD14C,0.150000*%
G04 APERTURE END LIST*
D10*
X150071428Y-132226190D02*
X150190476Y-131940476D01*
X150309523Y-131845238D01*
X150547619Y-131750000D01*
X150904761Y-131750000D01*
X151142857Y-131845238D01*
X151261904Y-131940476D01*
X151380952Y-132130952D01*
X151380952Y-132892857D01*
X148880952Y-132892857D01*
X148880952Y-132226190D01*
X149000000Y-132035714D01*
X149119047Y-131940476D01*
X149357142Y-131845238D01*
X149595238Y-131845238D01*
X149833333Y-131940476D01*
X149952380Y-132035714D01*
X150071428Y-132226190D01*
X150071428Y-132892857D01*
X150666666Y-130988095D02*
X150666666Y-130035714D01*
X151380952Y-131178571D02*
X148880952Y-130511904D01*
X151380952Y-129845238D01*
X148880952Y-129464285D02*
X148880952Y-128321428D01*
X151380952Y-128892857D02*
X148880952Y-128892857D01*
X148880952Y-127940476D02*
X148880952Y-126797619D01*
X151380952Y-127369047D02*
X148880952Y-127369047D01*
X150071428Y-126130952D02*
X150071428Y-125464285D01*
X151380952Y-125178571D02*
X151380952Y-126130952D01*
X148880952Y-126130952D01*
X148880952Y-125178571D01*
X151380952Y-123178571D02*
X150190476Y-123845238D01*
X151380952Y-124321428D02*
X148880952Y-124321428D01*
X148880952Y-123559523D01*
X149000000Y-123369047D01*
X149119047Y-123273809D01*
X149357142Y-123178571D01*
X149714285Y-123178571D01*
X149952380Y-123273809D01*
X150071428Y-123369047D01*
X150190476Y-123559523D01*
X150190476Y-124321428D01*
X150190476Y-121940476D02*
X151380952Y-121940476D01*
X148880952Y-122607142D02*
X150190476Y-121940476D01*
X148880952Y-121273809D01*
X151380952Y-118130952D02*
X151380952Y-119083333D01*
X148880952Y-119083333D01*
X150071428Y-117464285D02*
X150071428Y-116797619D01*
X151380952Y-116511904D02*
X151380952Y-117464285D01*
X148880952Y-117464285D01*
X148880952Y-116511904D01*
X148880952Y-115940476D02*
X151380952Y-115273809D01*
X148880952Y-114607142D01*
X150071428Y-113940476D02*
X150071428Y-113273809D01*
X151380952Y-112988095D02*
X151380952Y-113940476D01*
X148880952Y-113940476D01*
X148880952Y-112988095D01*
X151380952Y-111178571D02*
X151380952Y-112130952D01*
X148880952Y-112130952D01*
X151380952Y-108988095D02*
X148880952Y-108988095D01*
X151380952Y-108035714D02*
X148880952Y-108035714D01*
X151380952Y-106892857D01*
X148880952Y-106892857D01*
X151380952Y-105940476D02*
X148880952Y-105940476D01*
X148880952Y-105464285D01*
X149000000Y-105178571D01*
X149238095Y-104988095D01*
X149476190Y-104892857D01*
X149952380Y-104797619D01*
X150309523Y-104797619D01*
X150785714Y-104892857D01*
X151023809Y-104988095D01*
X151261904Y-105178571D01*
X151380952Y-105464285D01*
X151380952Y-105940476D01*
X151380952Y-103940476D02*
X148880952Y-103940476D01*
X151142857Y-101845238D02*
X151261904Y-101940476D01*
X151380952Y-102226190D01*
X151380952Y-102416666D01*
X151261904Y-102702380D01*
X151023809Y-102892857D01*
X150785714Y-102988095D01*
X150309523Y-103083333D01*
X149952380Y-103083333D01*
X149476190Y-102988095D01*
X149238095Y-102892857D01*
X149000000Y-102702380D01*
X148880952Y-102416666D01*
X148880952Y-102226190D01*
X149000000Y-101940476D01*
X149119047Y-101845238D01*
X150666666Y-101083333D02*
X150666666Y-100130952D01*
X151380952Y-101273809D02*
X148880952Y-100607142D01*
X151380952Y-99940476D01*
X148880952Y-99559523D02*
X148880952Y-98416666D01*
X151380952Y-98988095D02*
X148880952Y-98988095D01*
X148880952Y-97369047D02*
X148880952Y-96988095D01*
X149000000Y-96797619D01*
X149238095Y-96607142D01*
X149714285Y-96511904D01*
X150547619Y-96511904D01*
X151023809Y-96607142D01*
X151261904Y-96797619D01*
X151380952Y-96988095D01*
X151380952Y-97369047D01*
X151261904Y-97559523D01*
X151023809Y-97750000D01*
X150547619Y-97845238D01*
X149714285Y-97845238D01*
X149238095Y-97750000D01*
X149000000Y-97559523D01*
X148880952Y-97369047D01*
X151380952Y-94511904D02*
X150190476Y-95178571D01*
X151380952Y-95654761D02*
X148880952Y-95654761D01*
X148880952Y-94892857D01*
X149000000Y-94702380D01*
X149119047Y-94607142D01*
X149357142Y-94511904D01*
X149714285Y-94511904D01*
X149952380Y-94607142D01*
X150071428Y-94702380D01*
X150190476Y-94892857D01*
X150190476Y-95654761D01*
D11*
X195032142Y-134411428D02*
X192032142Y-134411428D01*
X192032142Y-133268571D01*
X192175000Y-132982857D01*
X192317857Y-132840000D01*
X192603571Y-132697142D01*
X193032142Y-132697142D01*
X193317857Y-132840000D01*
X193460714Y-132982857D01*
X193603571Y-133268571D01*
X193603571Y-134411428D01*
X192032142Y-130840000D02*
X192032142Y-130268571D01*
X192175000Y-129982857D01*
X192460714Y-129697142D01*
X193032142Y-129554285D01*
X194032142Y-129554285D01*
X194603571Y-129697142D01*
X194889285Y-129982857D01*
X195032142Y-130268571D01*
X195032142Y-130840000D01*
X194889285Y-131125714D01*
X194603571Y-131411428D01*
X194032142Y-131554285D01*
X193032142Y-131554285D01*
X192460714Y-131411428D01*
X192175000Y-131125714D01*
X192032142Y-130840000D01*
X192032142Y-128554285D02*
X195032142Y-127840000D01*
X192889285Y-127268571D01*
X195032142Y-126697142D01*
X192032142Y-125982857D01*
X193460714Y-124840000D02*
X193460714Y-123840000D01*
X195032142Y-123411428D02*
X195032142Y-124840000D01*
X192032142Y-124840000D01*
X192032142Y-123411428D01*
X195032142Y-120411428D02*
X193603571Y-121411428D01*
X195032142Y-122125714D02*
X192032142Y-122125714D01*
X192032142Y-120982857D01*
X192175000Y-120697142D01*
X192317857Y-120554285D01*
X192603571Y-120411428D01*
X193032142Y-120411428D01*
X193317857Y-120554285D01*
X193460714Y-120697142D01*
X193603571Y-120982857D01*
X193603571Y-122125714D01*
X193032142Y-119554285D02*
X193032142Y-118411428D01*
X192032142Y-119125714D02*
X194603571Y-119125714D01*
X194889285Y-118982857D01*
X195032142Y-118697142D01*
X195032142Y-118411428D01*
X195032142Y-117411428D02*
X193032142Y-117411428D01*
X193603571Y-117411428D02*
X193317857Y-117268571D01*
X193175000Y-117125714D01*
X193032142Y-116840000D01*
X193032142Y-116554285D01*
X195032142Y-115125714D02*
X194889285Y-115411428D01*
X194746428Y-115554285D01*
X194460714Y-115697142D01*
X193603571Y-115697142D01*
X193317857Y-115554285D01*
X193175000Y-115411428D01*
X193032142Y-115125714D01*
X193032142Y-114697142D01*
X193175000Y-114411428D01*
X193317857Y-114268571D01*
X193603571Y-114125714D01*
X194460714Y-114125714D01*
X194746428Y-114268571D01*
X194889285Y-114411428D01*
X195032142Y-114697142D01*
X195032142Y-115125714D01*
X193032142Y-112840000D02*
X195032142Y-112840000D01*
X193317857Y-112840000D02*
X193175000Y-112697142D01*
X193032142Y-112411428D01*
X193032142Y-111982857D01*
X193175000Y-111697142D01*
X193460714Y-111554285D01*
X195032142Y-111554285D01*
X195032142Y-110125714D02*
X193032142Y-110125714D01*
X192032142Y-110125714D02*
X192175000Y-110268571D01*
X192317857Y-110125714D01*
X192175000Y-109982857D01*
X192032142Y-110125714D01*
X192317857Y-110125714D01*
X194889285Y-107411428D02*
X195032142Y-107697142D01*
X195032142Y-108268571D01*
X194889285Y-108554285D01*
X194746428Y-108697142D01*
X194460714Y-108840000D01*
X193603571Y-108840000D01*
X193317857Y-108697142D01*
X193175000Y-108554285D01*
X193032142Y-108268571D01*
X193032142Y-107697142D01*
X193175000Y-107411428D01*
X194889285Y-106268571D02*
X195032142Y-105982857D01*
X195032142Y-105411428D01*
X194889285Y-105125714D01*
X194603571Y-104982857D01*
X194460714Y-104982857D01*
X194175000Y-105125714D01*
X194032142Y-105411428D01*
X194032142Y-105840000D01*
X193889285Y-106125714D01*
X193603571Y-106268571D01*
X193460714Y-106268571D01*
X193175000Y-106125714D01*
X193032142Y-105840000D01*
X193032142Y-105411428D01*
X193175000Y-105125714D01*
X193603571Y-101840000D02*
X193460714Y-101982857D01*
X193317857Y-102268571D01*
X193317857Y-102554285D01*
X193460714Y-102840000D01*
X193603571Y-102982857D01*
X193889285Y-103125714D01*
X194175000Y-103125714D01*
X194460714Y-102982857D01*
X194603571Y-102840000D01*
X194746428Y-102554285D01*
X194746428Y-102268571D01*
X194603571Y-101982857D01*
X194460714Y-101840000D01*
X193317857Y-101840000D02*
X194460714Y-101840000D01*
X194603571Y-101697142D01*
X194603571Y-101554285D01*
X194460714Y-101268571D01*
X194175000Y-101125714D01*
X193460714Y-101125714D01*
X193032142Y-101411428D01*
X192746428Y-101840000D01*
X192603571Y-102411428D01*
X192746428Y-102982857D01*
X193032142Y-103411428D01*
X193460714Y-103697142D01*
X194032142Y-103840000D01*
X194603571Y-103697142D01*
X195032142Y-103411428D01*
X195317857Y-102982857D01*
X195460714Y-102411428D01*
X195317857Y-101840000D01*
X195032142Y-101411428D01*
X196175000Y-100125714D02*
X196032142Y-99982857D01*
X195603571Y-99697142D01*
X195317857Y-99554285D01*
X194889285Y-99411428D01*
X194175000Y-99268571D01*
X193603571Y-99268571D01*
X192889285Y-99411428D01*
X192460714Y-99554285D01*
X192175000Y-99697142D01*
X191746428Y-99982857D01*
X191603571Y-100125714D01*
D10*
X173534285Y-125721697D02*
X171734285Y-125721697D01*
X171734285Y-125035982D01*
X171820000Y-124864554D01*
X171905714Y-124778840D01*
X172077142Y-124693125D01*
X172334285Y-124693125D01*
X172505714Y-124778840D01*
X172591428Y-124864554D01*
X172677142Y-125035982D01*
X172677142Y-125721697D01*
X171734285Y-123578840D02*
X171734285Y-123235982D01*
X171820000Y-123064554D01*
X171991428Y-122893125D01*
X172334285Y-122807411D01*
X172934285Y-122807411D01*
X173277142Y-122893125D01*
X173448571Y-123064554D01*
X173534285Y-123235982D01*
X173534285Y-123578840D01*
X173448571Y-123750268D01*
X173277142Y-123921697D01*
X172934285Y-124007411D01*
X172334285Y-124007411D01*
X171991428Y-123921697D01*
X171820000Y-123750268D01*
X171734285Y-123578840D01*
X171734285Y-122207411D02*
X173534285Y-121778840D01*
X172248571Y-121435982D01*
X173534285Y-121093125D01*
X171734285Y-120664554D01*
X172591428Y-119978840D02*
X172591428Y-119378840D01*
X173534285Y-119121697D02*
X173534285Y-119978840D01*
X171734285Y-119978840D01*
X171734285Y-119121697D01*
X173534285Y-117321697D02*
X172677142Y-117921697D01*
X173534285Y-118350268D02*
X171734285Y-118350268D01*
X171734285Y-117664554D01*
X171820000Y-117493125D01*
X171905714Y-117407411D01*
X172077142Y-117321697D01*
X172334285Y-117321697D01*
X172505714Y-117407411D01*
X172591428Y-117493125D01*
X172677142Y-117664554D01*
X172677142Y-118350268D01*
X172334285Y-116807411D02*
X172334285Y-116121697D01*
X171734285Y-116550268D02*
X173277142Y-116550268D01*
X173448571Y-116464554D01*
X173534285Y-116293125D01*
X173534285Y-116121697D01*
X173534285Y-115521697D02*
X172334285Y-115521697D01*
X172677142Y-115521697D02*
X172505714Y-115435982D01*
X172420000Y-115350268D01*
X172334285Y-115178840D01*
X172334285Y-115007411D01*
X173534285Y-114150268D02*
X173448571Y-114321697D01*
X173362857Y-114407411D01*
X173191428Y-114493125D01*
X172677142Y-114493125D01*
X172505714Y-114407411D01*
X172420000Y-114321697D01*
X172334285Y-114150268D01*
X172334285Y-113893125D01*
X172420000Y-113721697D01*
X172505714Y-113635982D01*
X172677142Y-113550268D01*
X173191428Y-113550268D01*
X173362857Y-113635982D01*
X173448571Y-113721697D01*
X173534285Y-113893125D01*
X173534285Y-114150268D01*
X172334285Y-112778840D02*
X173534285Y-112778840D01*
X172505714Y-112778840D02*
X172420000Y-112693125D01*
X172334285Y-112521697D01*
X172334285Y-112264554D01*
X172420000Y-112093125D01*
X172591428Y-112007411D01*
X173534285Y-112007411D01*
X173534285Y-111150268D02*
X172334285Y-111150268D01*
X171734285Y-111150268D02*
X171820000Y-111235982D01*
X171905714Y-111150268D01*
X171820000Y-111064554D01*
X171734285Y-111150268D01*
X171905714Y-111150268D01*
X173448571Y-109521697D02*
X173534285Y-109693125D01*
X173534285Y-110035982D01*
X173448571Y-110207411D01*
X173362857Y-110293125D01*
X173191428Y-110378840D01*
X172677142Y-110378840D01*
X172505714Y-110293125D01*
X172420000Y-110207411D01*
X172334285Y-110035982D01*
X172334285Y-109693125D01*
X172420000Y-109521697D01*
X173448571Y-108835982D02*
X173534285Y-108664554D01*
X173534285Y-108321697D01*
X173448571Y-108150268D01*
X173277142Y-108064554D01*
X173191428Y-108064554D01*
X173020000Y-108150268D01*
X172934285Y-108321697D01*
X172934285Y-108578840D01*
X172848571Y-108750268D01*
X172677142Y-108835982D01*
X172591428Y-108835982D01*
X172420000Y-108750268D01*
X172334285Y-108578840D01*
X172334285Y-108321697D01*
X172420000Y-108150268D01*
X172677142Y-106178840D02*
X172591428Y-106264554D01*
X172505714Y-106435982D01*
X172505714Y-106607411D01*
X172591428Y-106778840D01*
X172677142Y-106864554D01*
X172848571Y-106950268D01*
X173020000Y-106950268D01*
X173191428Y-106864554D01*
X173277142Y-106778840D01*
X173362857Y-106607411D01*
X173362857Y-106435982D01*
X173277142Y-106264554D01*
X173191428Y-106178840D01*
X172505714Y-106178840D02*
X173191428Y-106178840D01*
X173277142Y-106093125D01*
X173277142Y-106007411D01*
X173191428Y-105835982D01*
X173020000Y-105750268D01*
X172591428Y-105750268D01*
X172334285Y-105921697D01*
X172162857Y-106178840D01*
X172077142Y-106521697D01*
X172162857Y-106864554D01*
X172334285Y-107121697D01*
X172591428Y-107293125D01*
X172934285Y-107378840D01*
X173277142Y-107293125D01*
X173534285Y-107121697D01*
X173705714Y-106864554D01*
X173791428Y-106521697D01*
X173705714Y-106178840D01*
X173534285Y-105921697D01*
X174220000Y-105150268D02*
X174134285Y-105064554D01*
X173877142Y-104893125D01*
X173705714Y-104807411D01*
X173448571Y-104721697D01*
X173020000Y-104635982D01*
X172677142Y-104635982D01*
X172248571Y-104721697D01*
X171991428Y-104807411D01*
X171820000Y-104893125D01*
X171562857Y-105064554D01*
X171477142Y-105150268D01*
D12*
%TO.C,G\u002A\u002A\u002A*%
G36*
X171722669Y-128742896D02*
G01*
X171882841Y-128811017D01*
X172003408Y-128937125D01*
X172032820Y-128996835D01*
X172066105Y-129178841D01*
X172006527Y-129339506D01*
X171878436Y-129470664D01*
X171730293Y-129588939D01*
X171731739Y-130739229D01*
X171733184Y-131889518D01*
X172036392Y-132150156D01*
X172339599Y-132410793D01*
X172339600Y-133701397D01*
X172339872Y-134065907D01*
X172341117Y-134354568D01*
X172343978Y-134576195D01*
X172349099Y-134739605D01*
X172357122Y-134853615D01*
X172368690Y-134927042D01*
X172384447Y-134968700D01*
X172405037Y-134987408D01*
X172431101Y-134991981D01*
X172433748Y-134992000D01*
X172533347Y-134987725D01*
X172694665Y-134976650D01*
X172840148Y-134964803D01*
X173152400Y-134937606D01*
X173152400Y-131261201D01*
X173001727Y-131155549D01*
X172864560Y-131013591D01*
X172812464Y-130855426D01*
X172837588Y-130699090D01*
X172932083Y-130562622D01*
X173088100Y-130464057D01*
X173297791Y-130421433D01*
X173321407Y-130420941D01*
X173525408Y-130455897D01*
X173682139Y-130550275D01*
X173782643Y-130685082D01*
X173817960Y-130841324D01*
X173779133Y-131000007D01*
X173660400Y-131139667D01*
X173508000Y-131258303D01*
X173508000Y-133103985D01*
X173508205Y-133548127D01*
X173509059Y-133914952D01*
X173510915Y-134211811D01*
X173514126Y-134446052D01*
X173519047Y-134625024D01*
X173526031Y-134756079D01*
X173535433Y-134846565D01*
X173547606Y-134903831D01*
X173562905Y-134935228D01*
X173581683Y-134948105D01*
X173596900Y-134950035D01*
X173696991Y-134955144D01*
X173853973Y-134967773D01*
X173952500Y-134977098D01*
X174219200Y-135003793D01*
X174219200Y-133249005D01*
X174524000Y-132984491D01*
X174828800Y-132719976D01*
X174828800Y-131552078D01*
X174828799Y-130384180D01*
X174676400Y-130257180D01*
X174554522Y-130107707D01*
X174518273Y-129950365D01*
X174555328Y-129799773D01*
X174653365Y-129670550D01*
X174800060Y-129577315D01*
X174983091Y-129534687D01*
X175190135Y-129557284D01*
X175249813Y-129576941D01*
X175385358Y-129666388D01*
X175491446Y-129802555D01*
X175539486Y-129947502D01*
X175540000Y-129962029D01*
X175500137Y-130092312D01*
X175397582Y-130229245D01*
X175275852Y-130327151D01*
X175249367Y-130348514D01*
X175228526Y-130383159D01*
X175212660Y-130440503D01*
X175201098Y-130529964D01*
X175193173Y-130660959D01*
X175188213Y-130842906D01*
X175185551Y-131085222D01*
X175184517Y-131397326D01*
X175184400Y-131613967D01*
X175184400Y-132845466D01*
X174574800Y-133348760D01*
X174574800Y-134189915D01*
X174574799Y-135031070D01*
X174790700Y-135078038D01*
X174977476Y-135119955D01*
X175188029Y-135168981D01*
X175257120Y-135185503D01*
X175408121Y-135220146D01*
X175518038Y-135242036D01*
X175549220Y-135246000D01*
X175565506Y-135206442D01*
X175578799Y-135098844D01*
X175587697Y-134939824D01*
X175590800Y-134753714D01*
X175590800Y-134261429D01*
X175407385Y-134092247D01*
X175298989Y-133983080D01*
X175250568Y-133898993D01*
X175246899Y-133808129D01*
X175253221Y-133769616D01*
X175329718Y-133595545D01*
X175469549Y-133470392D01*
X175650353Y-133401508D01*
X175849772Y-133396244D01*
X176045444Y-133461950D01*
X176094902Y-133492930D01*
X176197452Y-133580131D01*
X176242381Y-133674802D01*
X176251200Y-133792520D01*
X176235379Y-133934554D01*
X176173323Y-134039926D01*
X176098800Y-134109513D01*
X176030638Y-134169595D01*
X175986600Y-134226304D01*
X175961419Y-134299275D01*
X175949827Y-134408146D01*
X175946558Y-134572555D01*
X175946400Y-134677757D01*
X175949950Y-134859499D01*
X175959548Y-135004878D01*
X175973611Y-135096342D01*
X175986162Y-135119000D01*
X176047582Y-135100437D01*
X176172521Y-135051500D01*
X176335278Y-134982316D01*
X176354462Y-134973871D01*
X176814893Y-134799991D01*
X177357858Y-134649551D01*
X177990979Y-134520489D01*
X178102578Y-134501448D01*
X178350104Y-134460009D01*
X178569868Y-134422774D01*
X178737807Y-134393851D01*
X178829300Y-134377452D01*
X178914416Y-134371253D01*
X178934629Y-134402804D01*
X178887950Y-134479621D01*
X178772390Y-134609223D01*
X178766293Y-134615626D01*
X178644517Y-134751791D01*
X178596292Y-134836362D01*
X178624760Y-134878789D01*
X178733069Y-134888522D01*
X178854700Y-134881224D01*
X179121400Y-134859103D01*
X178969000Y-134956114D01*
X178674493Y-135160418D01*
X178453378Y-135357331D01*
X178283911Y-135569180D01*
X178159367Y-135787446D01*
X178015571Y-136062745D01*
X177886760Y-136271603D01*
X177761158Y-136429252D01*
X177626988Y-136550929D01*
X177506495Y-136632053D01*
X177278557Y-136768464D01*
X177145878Y-136681493D01*
X177055076Y-136612432D01*
X177013478Y-136561970D01*
X177013200Y-136559515D01*
X177039815Y-136508774D01*
X177109286Y-136410823D01*
X177197652Y-136298004D01*
X177365742Y-136073498D01*
X177476454Y-135874555D01*
X177545928Y-135668303D01*
X177573756Y-135531976D01*
X177638611Y-135312500D01*
X177751858Y-135151574D01*
X177833098Y-135055738D01*
X177833259Y-135010076D01*
X177753193Y-135014696D01*
X177593754Y-135069705D01*
X177481411Y-135117525D01*
X177163241Y-135282490D01*
X176889389Y-135470856D01*
X176672180Y-135670839D01*
X176523942Y-135870654D01*
X176457001Y-136058517D01*
X176454400Y-136099374D01*
X176481599Y-136222922D01*
X176567024Y-136370370D01*
X176716417Y-136548603D01*
X176935518Y-136764507D01*
X177216400Y-137013295D01*
X177442308Y-137215748D01*
X177675209Y-137440232D01*
X177889275Y-137660920D01*
X178058677Y-137851987D01*
X178074317Y-137871128D01*
X178329121Y-138176234D01*
X178546362Y-138412712D01*
X178733696Y-138587755D01*
X178898776Y-138708552D01*
X179040867Y-138779205D01*
X179187772Y-138842329D01*
X179239201Y-138888821D01*
X179197579Y-138924705D01*
X179108700Y-138947888D01*
X178964937Y-138979999D01*
X178769527Y-139028033D01*
X178541284Y-139086850D01*
X178299024Y-139151309D01*
X178061561Y-139216270D01*
X177847710Y-139276593D01*
X177676286Y-139327137D01*
X177566104Y-139362761D01*
X177534917Y-139377875D01*
X177609793Y-139398372D01*
X177772195Y-139415169D01*
X178008101Y-139427328D01*
X178303491Y-139433912D01*
X178382260Y-139434561D01*
X178569463Y-139439409D01*
X178703491Y-139450280D01*
X178764333Y-139465200D01*
X178763260Y-139472191D01*
X178702133Y-139499452D01*
X178563602Y-139552557D01*
X178364343Y-139625379D01*
X178121032Y-139711795D01*
X177927600Y-139779108D01*
X177674852Y-139868924D01*
X177468019Y-139947500D01*
X177319846Y-140009565D01*
X177243075Y-140049845D01*
X177241800Y-140062861D01*
X177335385Y-140062148D01*
X177500608Y-140050130D01*
X177708828Y-140029119D01*
X177814865Y-140016614D01*
X178027907Y-139994015D01*
X178183072Y-139985089D01*
X178263350Y-139990524D01*
X178270365Y-139998253D01*
X178206602Y-140057850D01*
X178064299Y-140138035D01*
X177860772Y-140231324D01*
X177613331Y-140330231D01*
X177339292Y-140427271D01*
X177114800Y-140497861D01*
X176868903Y-140571290D01*
X176641197Y-140640531D01*
X176458314Y-140697411D01*
X176352800Y-140731708D01*
X176175000Y-140792754D01*
X176429000Y-140771977D01*
X176552182Y-140765236D01*
X176758944Y-140757678D01*
X177031278Y-140749795D01*
X177351176Y-140742082D01*
X177700629Y-140735034D01*
X177902200Y-140731566D01*
X179121400Y-140711932D01*
X178101067Y-140769309D01*
X177631750Y-140799216D01*
X177160893Y-140835691D01*
X176704868Y-140876989D01*
X176280047Y-140921362D01*
X175902803Y-140967064D01*
X175589509Y-141012351D01*
X175356536Y-141055475D01*
X175306148Y-141067375D01*
X175157343Y-141113434D01*
X175019258Y-141169672D01*
X174910900Y-141225792D01*
X174851273Y-141271499D01*
X174859381Y-141296498D01*
X174879600Y-141298445D01*
X174957866Y-141291717D01*
X175112992Y-141272946D01*
X175321843Y-141245083D01*
X175540000Y-141214181D01*
X175950337Y-141158325D01*
X176366791Y-141108476D01*
X176768631Y-141066606D01*
X177135124Y-141034686D01*
X177445541Y-141014689D01*
X177679150Y-141008587D01*
X177698688Y-141008838D01*
X177809280Y-141012453D01*
X177844652Y-141018891D01*
X177798563Y-141029451D01*
X177664775Y-141045432D01*
X177437046Y-141068132D01*
X177394200Y-141072216D01*
X177110740Y-141103320D01*
X176783396Y-141146127D01*
X176428357Y-141197822D01*
X176061812Y-141255593D01*
X175699950Y-141316627D01*
X175358959Y-141378109D01*
X175055029Y-141437228D01*
X174804347Y-141491169D01*
X174623103Y-141537119D01*
X174532273Y-141569560D01*
X174479840Y-141614175D01*
X174516577Y-141640750D01*
X174632092Y-141648126D01*
X174815996Y-141635142D01*
X174956235Y-141616890D01*
X175164018Y-141593976D01*
X175425650Y-141576756D01*
X175717247Y-141565506D01*
X176014927Y-141560503D01*
X176294804Y-141562024D01*
X176532997Y-141570345D01*
X176705621Y-141585744D01*
X176759200Y-141596000D01*
X176762575Y-141609245D01*
X176672228Y-141620437D01*
X176496020Y-141629083D01*
X176241810Y-141634687D01*
X176124200Y-141635934D01*
X175689441Y-141646733D01*
X175285368Y-141670816D01*
X174943655Y-141706161D01*
X174879600Y-141715308D01*
X174651853Y-141751844D01*
X174495638Y-141785666D01*
X174382194Y-141827595D01*
X174282758Y-141888450D01*
X174168569Y-141979049D01*
X174160400Y-141985851D01*
X173934805Y-142142657D01*
X173698104Y-142238223D01*
X173655880Y-142249363D01*
X173489035Y-142289099D01*
X173375906Y-142306256D01*
X173272820Y-142302378D01*
X173136105Y-142279009D01*
X173087249Y-142269457D01*
X172825955Y-142197725D01*
X172609934Y-142085354D01*
X172432643Y-141944519D01*
X172346062Y-141870030D01*
X172266756Y-141818447D01*
X172170868Y-141782045D01*
X172034544Y-141753100D01*
X171833928Y-141723887D01*
X171696043Y-141705995D01*
X171418154Y-141677524D01*
X171083467Y-141653989D01*
X170736748Y-141638052D01*
X170460000Y-141632441D01*
X170180892Y-141629472D01*
X169998140Y-141623238D01*
X169906557Y-141613337D01*
X169900958Y-141599370D01*
X169926600Y-141591276D01*
X170105536Y-141564889D01*
X170360724Y-141551572D01*
X170668199Y-141550467D01*
X171003996Y-141560717D01*
X171344151Y-141581463D01*
X171664698Y-141611849D01*
X171941674Y-141651017D01*
X172022100Y-141666272D01*
X172113860Y-141667439D01*
X172136400Y-141626285D01*
X172130806Y-141590842D01*
X172103084Y-141562286D01*
X172036819Y-141535096D01*
X171915597Y-141503752D01*
X171723005Y-141462733D01*
X171541623Y-141426242D01*
X171010617Y-141323775D01*
X170544241Y-141242070D01*
X170110355Y-141176092D01*
X169676820Y-141120804D01*
X169393200Y-141089590D01*
X169119821Y-141060108D01*
X168941753Y-141038376D01*
X168853262Y-141023310D01*
X168848613Y-141013826D01*
X168922073Y-141008839D01*
X168961711Y-141008008D01*
X169186718Y-141012940D01*
X169490542Y-141031876D01*
X169852233Y-141062813D01*
X170250839Y-141103753D01*
X170665408Y-141152692D01*
X171074991Y-141207631D01*
X171120400Y-141214181D01*
X171388000Y-141252969D01*
X171571382Y-141278518D01*
X171686449Y-141291977D01*
X171749104Y-141294498D01*
X171775251Y-141287234D01*
X171780792Y-141271334D01*
X171780800Y-141261996D01*
X171734104Y-141213768D01*
X171607146Y-141156574D01*
X171419615Y-141096623D01*
X171191205Y-141040124D01*
X170941606Y-140993288D01*
X170916295Y-140989383D01*
X170519450Y-140934023D01*
X170107986Y-140886463D01*
X169660518Y-140844724D01*
X169155657Y-140806825D01*
X168572016Y-140770784D01*
X168529600Y-140768389D01*
X167539000Y-140712736D01*
X168758200Y-140731467D01*
X169114430Y-140737729D01*
X169449410Y-140745086D01*
X169745569Y-140753038D01*
X169985338Y-140761085D01*
X170151146Y-140768726D01*
X170206000Y-140772724D01*
X170331231Y-140780689D01*
X170371858Y-140770883D01*
X170325100Y-140741999D01*
X170188174Y-140692736D01*
X169958299Y-140621787D01*
X169762749Y-140564865D01*
X169520541Y-140493600D01*
X169287638Y-140421924D01*
X169097492Y-140360275D01*
X169017489Y-140332311D01*
X168874400Y-140272967D01*
X168713910Y-140196581D01*
X168558281Y-140115222D01*
X168429778Y-140040953D01*
X168350665Y-139985842D01*
X168337626Y-139963867D01*
X168392467Y-139963454D01*
X168523986Y-139975170D01*
X168708743Y-139996727D01*
X168811096Y-140010119D01*
X169095878Y-140046861D01*
X169293862Y-140067083D01*
X169403858Y-140068794D01*
X169424672Y-140050003D01*
X169355110Y-140008715D01*
X169193982Y-139942940D01*
X168940093Y-139850686D01*
X168656600Y-139752073D01*
X168405122Y-139664345D01*
X168186109Y-139585732D01*
X168017272Y-139522762D01*
X167916322Y-139481964D01*
X167897139Y-139472144D01*
X167923289Y-139457040D01*
X168032140Y-139444147D01*
X168204793Y-139435124D01*
X168354339Y-139431992D01*
X168676617Y-139426756D01*
X168898060Y-139416592D01*
X169019401Y-139398731D01*
X169041373Y-139370400D01*
X168964708Y-139328831D01*
X168790138Y-139271251D01*
X168518396Y-139194892D01*
X168423757Y-139169437D01*
X168165543Y-139100897D01*
X167942431Y-139042634D01*
X167771868Y-138999129D01*
X167671300Y-138974863D01*
X167652364Y-138971334D01*
X167587716Y-138957397D01*
X167478807Y-138924862D01*
X167335800Y-138878390D01*
X167597195Y-138781042D01*
X167730271Y-138722203D01*
X167858935Y-138642440D01*
X167993979Y-138531718D01*
X168146193Y-138380005D01*
X168201968Y-138317246D01*
X168462936Y-138317246D01*
X168483339Y-138555223D01*
X168509716Y-138751620D01*
X168544391Y-138869686D01*
X168591972Y-138916324D01*
X168635792Y-138889338D01*
X168659187Y-138786534D01*
X168659777Y-138771376D01*
X168688097Y-138679467D01*
X169037600Y-138679467D01*
X169073705Y-138837205D01*
X169173890Y-138933467D01*
X169325957Y-138962706D01*
X169517709Y-138919376D01*
X169542615Y-138909120D01*
X169664231Y-138823142D01*
X169748019Y-138708036D01*
X169809054Y-138569167D01*
X169900680Y-138742877D01*
X169995248Y-138876898D01*
X170099192Y-138950874D01*
X170196892Y-138954255D01*
X170206878Y-138949715D01*
X170249373Y-138898299D01*
X170299838Y-138799463D01*
X170309322Y-138776483D01*
X170369257Y-138625146D01*
X170464682Y-138755906D01*
X170545059Y-138851828D01*
X170611206Y-138881846D01*
X170690944Y-138857131D01*
X170702228Y-138851292D01*
X170763552Y-138784436D01*
X170813450Y-138668487D01*
X170849048Y-138525522D01*
X170867470Y-138377618D01*
X170865843Y-138246850D01*
X170841290Y-138155295D01*
X170796846Y-138124667D01*
X170744409Y-138163756D01*
X170700848Y-138268119D01*
X170672101Y-138418396D01*
X170663759Y-138558584D01*
X170648128Y-138651558D01*
X170606938Y-138666268D01*
X170546830Y-138604753D01*
X170491327Y-138505667D01*
X170412187Y-138382856D01*
X170336654Y-138340448D01*
X170272910Y-138378772D01*
X170229743Y-138495084D01*
X170188967Y-138660219D01*
X170147380Y-138741085D01*
X170102009Y-138738059D01*
X170049881Y-138651521D01*
X170001871Y-138524070D01*
X169947315Y-138404621D01*
X169883787Y-138324403D01*
X169855203Y-138308223D01*
X169739304Y-138270301D01*
X169685989Y-138248577D01*
X169507839Y-138210671D01*
X169335845Y-138244797D01*
X169188133Y-138338912D01*
X169082827Y-138480969D01*
X169038052Y-138658924D01*
X169037600Y-138679467D01*
X168688097Y-138679467D01*
X168696590Y-138651905D01*
X168810447Y-138527276D01*
X168850277Y-138494726D01*
X168986850Y-138355455D01*
X169038128Y-138224946D01*
X169000629Y-138114325D01*
X168976640Y-138090800D01*
X168880201Y-138054885D01*
X168735778Y-138041411D01*
X168591793Y-138051026D01*
X168496668Y-138084377D01*
X168496654Y-138084388D01*
X168467370Y-138160089D01*
X168462936Y-138317246D01*
X168201968Y-138317246D01*
X168326371Y-138177266D01*
X168510555Y-137955334D01*
X170921986Y-137955334D01*
X170949213Y-138177584D01*
X170992629Y-138478786D01*
X171040631Y-138702046D01*
X171095694Y-138854072D01*
X171160288Y-138941569D01*
X171236886Y-138971245D01*
X171241827Y-138971334D01*
X171316510Y-138949073D01*
X171436133Y-138893021D01*
X171489607Y-138863974D01*
X171627904Y-138770340D01*
X171679829Y-138703978D01*
X171651264Y-138675067D01*
X171548092Y-138693781D01*
X171421900Y-138746858D01*
X171304255Y-138794867D01*
X171242942Y-138782164D01*
X171214556Y-138700508D01*
X171210395Y-138672385D01*
X171215591Y-138600062D01*
X171275829Y-138566793D01*
X171364783Y-138555710D01*
X171483185Y-138531454D01*
X171511211Y-138493825D01*
X171455053Y-138455763D01*
X171320903Y-138430208D01*
X171304099Y-138428885D01*
X171180551Y-138414988D01*
X171130734Y-138379103D01*
X171126955Y-138294259D01*
X171130226Y-138259552D01*
X171138162Y-138208212D01*
X171687834Y-138208212D01*
X171691871Y-138454766D01*
X171753203Y-138688853D01*
X171833838Y-138837225D01*
X171921692Y-138929141D01*
X171985308Y-138944383D01*
X172011969Y-138885748D01*
X172001386Y-138800359D01*
X171984721Y-138716437D01*
X172001884Y-138683204D01*
X172073439Y-138694405D01*
X172204764Y-138738500D01*
X172344868Y-138780210D01*
X172455635Y-138801352D01*
X172469201Y-138802000D01*
X172536736Y-138786351D01*
X172522375Y-138745641D01*
X172437047Y-138689229D01*
X172291682Y-138626472D01*
X172245160Y-138610190D01*
X171980287Y-138521461D01*
X172070013Y-138443219D01*
X172574228Y-138443219D01*
X172644500Y-138494611D01*
X172689924Y-138510478D01*
X172804095Y-138562686D01*
X172862589Y-138652555D01*
X172878158Y-138710466D01*
X172924867Y-138855964D01*
X172984469Y-138936814D01*
X173049497Y-138944172D01*
X173066140Y-138933150D01*
X173086138Y-138857516D01*
X173053240Y-138764577D01*
X173013953Y-138646824D01*
X173048862Y-138577359D01*
X173167180Y-138539389D01*
X173177730Y-138537650D01*
X173260365Y-138535225D01*
X173321381Y-138571950D01*
X173384262Y-138665424D01*
X173409056Y-138711031D01*
X173507242Y-138866943D01*
X173592385Y-138946971D01*
X173658587Y-138950216D01*
X173699951Y-138875775D01*
X173711200Y-138757168D01*
X173712165Y-138742635D01*
X173958108Y-138742635D01*
X173993410Y-138857043D01*
X174090968Y-138940209D01*
X174227992Y-138970046D01*
X174315378Y-138942607D01*
X174429439Y-138872581D01*
X174464106Y-138845399D01*
X174615227Y-138719464D01*
X174646781Y-138824232D01*
X174702653Y-138904979D01*
X174783028Y-138932553D01*
X174853599Y-138905556D01*
X174880377Y-138833750D01*
X174904220Y-138709311D01*
X174959088Y-138650141D01*
X175023808Y-138659762D01*
X175077210Y-138741695D01*
X175091198Y-138798684D01*
X175128343Y-138891046D01*
X175181498Y-138919052D01*
X175224718Y-138879774D01*
X175235200Y-138814947D01*
X175204632Y-138676164D01*
X175155381Y-138610702D01*
X175338447Y-138610702D01*
X175344942Y-138737434D01*
X175370405Y-138849866D01*
X175389387Y-138889450D01*
X175457185Y-138958067D01*
X175515902Y-138963374D01*
X175540000Y-138905433D01*
X175549182Y-138863198D01*
X175594713Y-138873139D01*
X175652903Y-138905433D01*
X175807670Y-138965231D01*
X175939841Y-138945223D01*
X176019703Y-138889334D01*
X176081344Y-138804065D01*
X176064790Y-138754093D01*
X175984848Y-138756252D01*
X175925520Y-138782258D01*
X175834085Y-138823057D01*
X175776466Y-138810349D01*
X175742901Y-138780534D01*
X175708228Y-138689510D01*
X175743021Y-138591562D01*
X175820538Y-138526993D01*
X176149600Y-138526993D01*
X176191267Y-138624412D01*
X176290662Y-138692219D01*
X176409377Y-138706653D01*
X176431342Y-138701276D01*
X176509678Y-138697152D01*
X176524204Y-138740388D01*
X176470933Y-138809911D01*
X176454400Y-138823167D01*
X176389695Y-138897354D01*
X176394540Y-138954318D01*
X176448542Y-138971334D01*
X176506563Y-138943341D01*
X176595832Y-138875121D01*
X176605259Y-138866866D01*
X176723030Y-138762399D01*
X176872012Y-138866866D01*
X177060251Y-138955084D01*
X177254951Y-138958904D01*
X177411761Y-138904260D01*
X177613219Y-138757974D01*
X177733028Y-138561607D01*
X177747144Y-138515742D01*
X177759173Y-138416159D01*
X177720263Y-138335928D01*
X177647861Y-138267868D01*
X177789195Y-138267868D01*
X177794720Y-138317958D01*
X177890149Y-138404167D01*
X177907333Y-138416805D01*
X177998331Y-138502608D01*
X178014245Y-138589812D01*
X178005854Y-138625523D01*
X177956856Y-138799651D01*
X177935784Y-138905611D01*
X177941807Y-138956436D01*
X177974097Y-138965164D01*
X177984384Y-138962800D01*
X178058826Y-138913022D01*
X178117351Y-138840990D01*
X178168664Y-138693825D01*
X178162023Y-138539275D01*
X178106576Y-138399409D01*
X178011469Y-138296299D01*
X177885849Y-138252013D01*
X177873112Y-138251667D01*
X177789195Y-138267868D01*
X177647861Y-138267868D01*
X177630720Y-138251755D01*
X177452140Y-138155598D01*
X177251956Y-138129443D01*
X177054948Y-138167960D01*
X176885894Y-138265822D01*
X176769573Y-138417700D01*
X176760497Y-138438890D01*
X176711394Y-138537751D01*
X176644362Y-138580525D01*
X176519908Y-138590285D01*
X176501260Y-138590334D01*
X176357220Y-138571881D01*
X176299264Y-138525378D01*
X176332696Y-138464104D01*
X176430315Y-138412798D01*
X176522514Y-138355499D01*
X176529892Y-138298376D01*
X176450054Y-138261167D01*
X176448741Y-138260952D01*
X176348057Y-138281957D01*
X176244658Y-138355577D01*
X176169276Y-138454478D01*
X176149600Y-138526993D01*
X175820538Y-138526993D01*
X175827911Y-138520852D01*
X175898744Y-138505667D01*
X175975576Y-138485768D01*
X175977872Y-138442458D01*
X175914794Y-138400319D01*
X175854277Y-138386388D01*
X175731888Y-138410271D01*
X175621260Y-138483950D01*
X175538187Y-138554446D01*
X175496668Y-138565962D01*
X175470279Y-138522445D01*
X175464446Y-138507364D01*
X175420440Y-138448011D01*
X175383942Y-138444051D01*
X175351315Y-138502098D01*
X175338447Y-138610702D01*
X175155381Y-138610702D01*
X175126420Y-138572209D01*
X175020801Y-138515472D01*
X174908011Y-138518344D01*
X174830688Y-138567271D01*
X174764275Y-138606328D01*
X174674652Y-138584755D01*
X174659367Y-138577854D01*
X174556875Y-138517106D01*
X174508775Y-138473917D01*
X174418722Y-138426999D01*
X174283510Y-138432285D01*
X174135286Y-138487042D01*
X174099050Y-138508739D01*
X173991256Y-138619146D01*
X173958108Y-138742635D01*
X173712165Y-138742635D01*
X173718377Y-138649096D01*
X173752057Y-138601472D01*
X173830460Y-138590362D01*
X173838200Y-138590334D01*
X173943224Y-138573162D01*
X173954416Y-138524927D01*
X173886875Y-138461864D01*
X173818447Y-138433851D01*
X173736743Y-138455749D01*
X173660663Y-138498811D01*
X173558391Y-138554802D01*
X173502375Y-138558842D01*
X173469757Y-138525869D01*
X173396449Y-138480131D01*
X173262716Y-138440583D01*
X173200932Y-138429689D01*
X173057796Y-138402507D01*
X172985280Y-138361797D01*
X172952641Y-138288282D01*
X172948964Y-138271699D01*
X172936329Y-138241795D01*
X175307292Y-138241795D01*
X175314081Y-138255283D01*
X175375753Y-138276256D01*
X175391938Y-138270599D01*
X175417107Y-138219205D01*
X175410318Y-138205718D01*
X175348646Y-138184744D01*
X175332461Y-138190401D01*
X175307292Y-138241795D01*
X172936329Y-138241795D01*
X172909140Y-138177452D01*
X172858296Y-138162618D01*
X172815851Y-138227222D01*
X172806125Y-138271517D01*
X172761305Y-138359622D01*
X172694823Y-138378667D01*
X172591244Y-138398060D01*
X172574228Y-138443219D01*
X172070013Y-138443219D01*
X172134543Y-138386949D01*
X172228906Y-138295885D01*
X172283437Y-138226264D01*
X172288800Y-138210695D01*
X172243984Y-138146951D01*
X172132772Y-138089846D01*
X171990016Y-138053054D01*
X171873295Y-138047678D01*
X171757648Y-138066589D01*
X171706106Y-138116936D01*
X171687834Y-138208212D01*
X171138162Y-138208212D01*
X171144558Y-138166846D01*
X171181920Y-138117770D01*
X171269980Y-138093920D01*
X171399800Y-138080242D01*
X171546576Y-138065541D01*
X171603541Y-138052232D01*
X171581919Y-138032821D01*
X171510792Y-138006159D01*
X171366696Y-137973537D01*
X171188133Y-137956194D01*
X171144886Y-137955334D01*
X170921986Y-137955334D01*
X168510555Y-137955334D01*
X168545302Y-137913467D01*
X168591138Y-137856893D01*
X168742555Y-137684332D01*
X168942964Y-137476933D01*
X169168254Y-137258657D01*
X169394316Y-137053464D01*
X169435184Y-137018089D01*
X169708587Y-136778271D01*
X169913474Y-136585098D01*
X170057704Y-136429377D01*
X170149134Y-136301916D01*
X170195623Y-136193522D01*
X170205739Y-136116616D01*
X170158169Y-135915932D01*
X170021168Y-135706393D01*
X169804510Y-135497410D01*
X169517970Y-135298392D01*
X169171326Y-135118750D01*
X169167348Y-135116976D01*
X168972397Y-135038669D01*
X168847784Y-135007019D01*
X168797824Y-135021481D01*
X168826833Y-135081505D01*
X168897404Y-135151192D01*
X169017913Y-135317442D01*
X169066027Y-135478834D01*
X169131201Y-135740917D01*
X169238413Y-135980069D01*
X169403922Y-136230523D01*
X169454300Y-136296342D01*
X169663535Y-136563963D01*
X169531817Y-136673728D01*
X169400100Y-136783492D01*
X169145200Y-136621502D01*
X168941411Y-136461223D01*
X168759752Y-136249244D01*
X168590994Y-135973358D01*
X168475863Y-135736271D01*
X168311472Y-135472261D01*
X168072463Y-135225947D01*
X167792169Y-135028534D01*
X167662052Y-134944479D01*
X167625862Y-134892322D01*
X167684023Y-134870846D01*
X167836956Y-134878831D01*
X167843800Y-134879603D01*
X167987072Y-134889725D01*
X168055553Y-134872155D01*
X168051182Y-134817114D01*
X167975899Y-134714825D01*
X167894600Y-134623540D01*
X167777580Y-134488494D01*
X167727188Y-134407560D01*
X167741299Y-134372515D01*
X167817792Y-134375134D01*
X167831100Y-134377595D01*
X167923246Y-134393988D01*
X168091839Y-134422622D01*
X168313589Y-134459587D01*
X168565207Y-134500971D01*
X168587373Y-134504591D01*
X169147694Y-134609804D01*
X169638627Y-134733486D01*
X170091686Y-134884207D01*
X170325929Y-134977438D01*
X170494931Y-135043839D01*
X170627429Y-135087440D01*
X170699356Y-135100532D01*
X170704491Y-135098702D01*
X170736632Y-135019227D01*
X170720382Y-134899472D01*
X170665027Y-134768855D01*
X170579855Y-134656797D01*
X170559216Y-134638511D01*
X170439231Y-134488739D01*
X170405204Y-134321562D01*
X170452734Y-134158284D01*
X170577418Y-134020207D01*
X170700912Y-133952802D01*
X170907622Y-133912912D01*
X171104844Y-133951089D01*
X171272487Y-134061195D01*
X171344229Y-134149306D01*
X171410740Y-134319726D01*
X171378673Y-134479179D01*
X171246623Y-134633344D01*
X171219090Y-134655598D01*
X171130627Y-134735720D01*
X171085844Y-134819304D01*
X171070598Y-134939788D01*
X171069600Y-135008985D01*
X171074773Y-135137816D01*
X171088138Y-135223897D01*
X171101589Y-135246000D01*
X171189556Y-135234097D01*
X171337105Y-135203155D01*
X171516332Y-135160329D01*
X171699330Y-135112772D01*
X171858195Y-135067638D01*
X171965022Y-135032080D01*
X171993435Y-135017372D01*
X172002545Y-134965461D01*
X172011003Y-134840033D01*
X172018466Y-134652237D01*
X172024591Y-134413222D01*
X172029036Y-134134138D01*
X172031459Y-133826134D01*
X172031641Y-133773248D01*
X172035012Y-132571856D01*
X171730106Y-132307249D01*
X171425200Y-132042643D01*
X171425200Y-130826312D01*
X171425199Y-129609981D01*
X171247399Y-129470242D01*
X171132489Y-129365703D01*
X171080663Y-129267449D01*
X171069600Y-129152328D01*
X171109853Y-128981843D01*
X171216483Y-128852235D01*
X171368293Y-128766926D01*
X171544087Y-128729339D01*
X171722669Y-128742896D01*
G37*
X171722669Y-128742896D02*
X171882841Y-128811017D01*
X172003408Y-128937125D01*
X172032820Y-128996835D01*
X172066105Y-129178841D01*
X172006527Y-129339506D01*
X171878436Y-129470664D01*
X171730293Y-129588939D01*
X171731739Y-130739229D01*
X171733184Y-131889518D01*
X172036392Y-132150156D01*
X172339599Y-132410793D01*
X172339600Y-133701397D01*
X172339872Y-134065907D01*
X172341117Y-134354568D01*
X172343978Y-134576195D01*
X172349099Y-134739605D01*
X172357122Y-134853615D01*
X172368690Y-134927042D01*
X172384447Y-134968700D01*
X172405037Y-134987408D01*
X172431101Y-134991981D01*
X172433748Y-134992000D01*
X172533347Y-134987725D01*
X172694665Y-134976650D01*
X172840148Y-134964803D01*
X173152400Y-134937606D01*
X173152400Y-131261201D01*
X173001727Y-131155549D01*
X172864560Y-131013591D01*
X172812464Y-130855426D01*
X172837588Y-130699090D01*
X172932083Y-130562622D01*
X173088100Y-130464057D01*
X173297791Y-130421433D01*
X173321407Y-130420941D01*
X173525408Y-130455897D01*
X173682139Y-130550275D01*
X173782643Y-130685082D01*
X173817960Y-130841324D01*
X173779133Y-131000007D01*
X173660400Y-131139667D01*
X173508000Y-131258303D01*
X173508000Y-133103985D01*
X173508205Y-133548127D01*
X173509059Y-133914952D01*
X173510915Y-134211811D01*
X173514126Y-134446052D01*
X173519047Y-134625024D01*
X173526031Y-134756079D01*
X173535433Y-134846565D01*
X173547606Y-134903831D01*
X173562905Y-134935228D01*
X173581683Y-134948105D01*
X173596900Y-134950035D01*
X173696991Y-134955144D01*
X173853973Y-134967773D01*
X173952500Y-134977098D01*
X174219200Y-135003793D01*
X174219200Y-133249005D01*
X174524000Y-132984491D01*
X174828800Y-132719976D01*
X174828800Y-131552078D01*
X174828799Y-130384180D01*
X174676400Y-130257180D01*
X174554522Y-130107707D01*
X174518273Y-129950365D01*
X174555328Y-129799773D01*
X174653365Y-129670550D01*
X174800060Y-129577315D01*
X174983091Y-129534687D01*
X175190135Y-129557284D01*
X175249813Y-129576941D01*
X175385358Y-129666388D01*
X175491446Y-129802555D01*
X175539486Y-129947502D01*
X175540000Y-129962029D01*
X175500137Y-130092312D01*
X175397582Y-130229245D01*
X175275852Y-130327151D01*
X175249367Y-130348514D01*
X175228526Y-130383159D01*
X175212660Y-130440503D01*
X175201098Y-130529964D01*
X175193173Y-130660959D01*
X175188213Y-130842906D01*
X175185551Y-131085222D01*
X175184517Y-131397326D01*
X175184400Y-131613967D01*
X175184400Y-132845466D01*
X174574800Y-133348760D01*
X174574800Y-134189915D01*
X174574799Y-135031070D01*
X174790700Y-135078038D01*
X174977476Y-135119955D01*
X175188029Y-135168981D01*
X175257120Y-135185503D01*
X175408121Y-135220146D01*
X175518038Y-135242036D01*
X175549220Y-135246000D01*
X175565506Y-135206442D01*
X175578799Y-135098844D01*
X175587697Y-134939824D01*
X175590800Y-134753714D01*
X175590800Y-134261429D01*
X175407385Y-134092247D01*
X175298989Y-133983080D01*
X175250568Y-133898993D01*
X175246899Y-133808129D01*
X175253221Y-133769616D01*
X175329718Y-133595545D01*
X175469549Y-133470392D01*
X175650353Y-133401508D01*
X175849772Y-133396244D01*
X176045444Y-133461950D01*
X176094902Y-133492930D01*
X176197452Y-133580131D01*
X176242381Y-133674802D01*
X176251200Y-133792520D01*
X176235379Y-133934554D01*
X176173323Y-134039926D01*
X176098800Y-134109513D01*
X176030638Y-134169595D01*
X175986600Y-134226304D01*
X175961419Y-134299275D01*
X175949827Y-134408146D01*
X175946558Y-134572555D01*
X175946400Y-134677757D01*
X175949950Y-134859499D01*
X175959548Y-135004878D01*
X175973611Y-135096342D01*
X175986162Y-135119000D01*
X176047582Y-135100437D01*
X176172521Y-135051500D01*
X176335278Y-134982316D01*
X176354462Y-134973871D01*
X176814893Y-134799991D01*
X177357858Y-134649551D01*
X177990979Y-134520489D01*
X178102578Y-134501448D01*
X178350104Y-134460009D01*
X178569868Y-134422774D01*
X178737807Y-134393851D01*
X178829300Y-134377452D01*
X178914416Y-134371253D01*
X178934629Y-134402804D01*
X178887950Y-134479621D01*
X178772390Y-134609223D01*
X178766293Y-134615626D01*
X178644517Y-134751791D01*
X178596292Y-134836362D01*
X178624760Y-134878789D01*
X178733069Y-134888522D01*
X178854700Y-134881224D01*
X179121400Y-134859103D01*
X178969000Y-134956114D01*
X178674493Y-135160418D01*
X178453378Y-135357331D01*
X178283911Y-135569180D01*
X178159367Y-135787446D01*
X178015571Y-136062745D01*
X177886760Y-136271603D01*
X177761158Y-136429252D01*
X177626988Y-136550929D01*
X177506495Y-136632053D01*
X177278557Y-136768464D01*
X177145878Y-136681493D01*
X177055076Y-136612432D01*
X177013478Y-136561970D01*
X177013200Y-136559515D01*
X177039815Y-136508774D01*
X177109286Y-136410823D01*
X177197652Y-136298004D01*
X177365742Y-136073498D01*
X177476454Y-135874555D01*
X177545928Y-135668303D01*
X177573756Y-135531976D01*
X177638611Y-135312500D01*
X177751858Y-135151574D01*
X177833098Y-135055738D01*
X177833259Y-135010076D01*
X177753193Y-135014696D01*
X177593754Y-135069705D01*
X177481411Y-135117525D01*
X177163241Y-135282490D01*
X176889389Y-135470856D01*
X176672180Y-135670839D01*
X176523942Y-135870654D01*
X176457001Y-136058517D01*
X176454400Y-136099374D01*
X176481599Y-136222922D01*
X176567024Y-136370370D01*
X176716417Y-136548603D01*
X176935518Y-136764507D01*
X177216400Y-137013295D01*
X177442308Y-137215748D01*
X177675209Y-137440232D01*
X177889275Y-137660920D01*
X178058677Y-137851987D01*
X178074317Y-137871128D01*
X178329121Y-138176234D01*
X178546362Y-138412712D01*
X178733696Y-138587755D01*
X178898776Y-138708552D01*
X179040867Y-138779205D01*
X179187772Y-138842329D01*
X179239201Y-138888821D01*
X179197579Y-138924705D01*
X179108700Y-138947888D01*
X178964937Y-138979999D01*
X178769527Y-139028033D01*
X178541284Y-139086850D01*
X178299024Y-139151309D01*
X178061561Y-139216270D01*
X177847710Y-139276593D01*
X177676286Y-139327137D01*
X177566104Y-139362761D01*
X177534917Y-139377875D01*
X177609793Y-139398372D01*
X177772195Y-139415169D01*
X178008101Y-139427328D01*
X178303491Y-139433912D01*
X178382260Y-139434561D01*
X178569463Y-139439409D01*
X178703491Y-139450280D01*
X178764333Y-139465200D01*
X178763260Y-139472191D01*
X178702133Y-139499452D01*
X178563602Y-139552557D01*
X178364343Y-139625379D01*
X178121032Y-139711795D01*
X177927600Y-139779108D01*
X177674852Y-139868924D01*
X177468019Y-139947500D01*
X177319846Y-140009565D01*
X177243075Y-140049845D01*
X177241800Y-140062861D01*
X177335385Y-140062148D01*
X177500608Y-140050130D01*
X177708828Y-140029119D01*
X177814865Y-140016614D01*
X178027907Y-139994015D01*
X178183072Y-139985089D01*
X178263350Y-139990524D01*
X178270365Y-139998253D01*
X178206602Y-140057850D01*
X178064299Y-140138035D01*
X177860772Y-140231324D01*
X177613331Y-140330231D01*
X177339292Y-140427271D01*
X177114800Y-140497861D01*
X176868903Y-140571290D01*
X176641197Y-140640531D01*
X176458314Y-140697411D01*
X176352800Y-140731708D01*
X176175000Y-140792754D01*
X176429000Y-140771977D01*
X176552182Y-140765236D01*
X176758944Y-140757678D01*
X177031278Y-140749795D01*
X177351176Y-140742082D01*
X177700629Y-140735034D01*
X177902200Y-140731566D01*
X179121400Y-140711932D01*
X178101067Y-140769309D01*
X177631750Y-140799216D01*
X177160893Y-140835691D01*
X176704868Y-140876989D01*
X176280047Y-140921362D01*
X175902803Y-140967064D01*
X175589509Y-141012351D01*
X175356536Y-141055475D01*
X175306148Y-141067375D01*
X175157343Y-141113434D01*
X175019258Y-141169672D01*
X174910900Y-141225792D01*
X174851273Y-141271499D01*
X174859381Y-141296498D01*
X174879600Y-141298445D01*
X174957866Y-141291717D01*
X175112992Y-141272946D01*
X175321843Y-141245083D01*
X175540000Y-141214181D01*
X175950337Y-141158325D01*
X176366791Y-141108476D01*
X176768631Y-141066606D01*
X177135124Y-141034686D01*
X177445541Y-141014689D01*
X177679150Y-141008587D01*
X177698688Y-141008838D01*
X177809280Y-141012453D01*
X177844652Y-141018891D01*
X177798563Y-141029451D01*
X177664775Y-141045432D01*
X177437046Y-141068132D01*
X177394200Y-141072216D01*
X177110740Y-141103320D01*
X176783396Y-141146127D01*
X176428357Y-141197822D01*
X176061812Y-141255593D01*
X175699950Y-141316627D01*
X175358959Y-141378109D01*
X175055029Y-141437228D01*
X174804347Y-141491169D01*
X174623103Y-141537119D01*
X174532273Y-141569560D01*
X174479840Y-141614175D01*
X174516577Y-141640750D01*
X174632092Y-141648126D01*
X174815996Y-141635142D01*
X174956235Y-141616890D01*
X175164018Y-141593976D01*
X175425650Y-141576756D01*
X175717247Y-141565506D01*
X176014927Y-141560503D01*
X176294804Y-141562024D01*
X176532997Y-141570345D01*
X176705621Y-141585744D01*
X176759200Y-141596000D01*
X176762575Y-141609245D01*
X176672228Y-141620437D01*
X176496020Y-141629083D01*
X176241810Y-141634687D01*
X176124200Y-141635934D01*
X175689441Y-141646733D01*
X175285368Y-141670816D01*
X174943655Y-141706161D01*
X174879600Y-141715308D01*
X174651853Y-141751844D01*
X174495638Y-141785666D01*
X174382194Y-141827595D01*
X174282758Y-141888450D01*
X174168569Y-141979049D01*
X174160400Y-141985851D01*
X173934805Y-142142657D01*
X173698104Y-142238223D01*
X173655880Y-142249363D01*
X173489035Y-142289099D01*
X173375906Y-142306256D01*
X173272820Y-142302378D01*
X173136105Y-142279009D01*
X173087249Y-142269457D01*
X172825955Y-142197725D01*
X172609934Y-142085354D01*
X172432643Y-141944519D01*
X172346062Y-141870030D01*
X172266756Y-141818447D01*
X172170868Y-141782045D01*
X172034544Y-141753100D01*
X171833928Y-141723887D01*
X171696043Y-141705995D01*
X171418154Y-141677524D01*
X171083467Y-141653989D01*
X170736748Y-141638052D01*
X170460000Y-141632441D01*
X170180892Y-141629472D01*
X169998140Y-141623238D01*
X169906557Y-141613337D01*
X169900958Y-141599370D01*
X169926600Y-141591276D01*
X170105536Y-141564889D01*
X170360724Y-141551572D01*
X170668199Y-141550467D01*
X171003996Y-141560717D01*
X171344151Y-141581463D01*
X171664698Y-141611849D01*
X171941674Y-141651017D01*
X172022100Y-141666272D01*
X172113860Y-141667439D01*
X172136400Y-141626285D01*
X172130806Y-141590842D01*
X172103084Y-141562286D01*
X172036819Y-141535096D01*
X171915597Y-141503752D01*
X171723005Y-141462733D01*
X171541623Y-141426242D01*
X171010617Y-141323775D01*
X170544241Y-141242070D01*
X170110355Y-141176092D01*
X169676820Y-141120804D01*
X169393200Y-141089590D01*
X169119821Y-141060108D01*
X168941753Y-141038376D01*
X168853262Y-141023310D01*
X168848613Y-141013826D01*
X168922073Y-141008839D01*
X168961711Y-141008008D01*
X169186718Y-141012940D01*
X169490542Y-141031876D01*
X169852233Y-141062813D01*
X170250839Y-141103753D01*
X170665408Y-141152692D01*
X171074991Y-141207631D01*
X171120400Y-141214181D01*
X171388000Y-141252969D01*
X171571382Y-141278518D01*
X171686449Y-141291977D01*
X171749104Y-141294498D01*
X171775251Y-141287234D01*
X171780792Y-141271334D01*
X171780800Y-141261996D01*
X171734104Y-141213768D01*
X171607146Y-141156574D01*
X171419615Y-141096623D01*
X171191205Y-141040124D01*
X170941606Y-140993288D01*
X170916295Y-140989383D01*
X170519450Y-140934023D01*
X170107986Y-140886463D01*
X169660518Y-140844724D01*
X169155657Y-140806825D01*
X168572016Y-140770784D01*
X168529600Y-140768389D01*
X167539000Y-140712736D01*
X168758200Y-140731467D01*
X169114430Y-140737729D01*
X169449410Y-140745086D01*
X169745569Y-140753038D01*
X169985338Y-140761085D01*
X170151146Y-140768726D01*
X170206000Y-140772724D01*
X170331231Y-140780689D01*
X170371858Y-140770883D01*
X170325100Y-140741999D01*
X170188174Y-140692736D01*
X169958299Y-140621787D01*
X169762749Y-140564865D01*
X169520541Y-140493600D01*
X169287638Y-140421924D01*
X169097492Y-140360275D01*
X169017489Y-140332311D01*
X168874400Y-140272967D01*
X168713910Y-140196581D01*
X168558281Y-140115222D01*
X168429778Y-140040953D01*
X168350665Y-139985842D01*
X168337626Y-139963867D01*
X168392467Y-139963454D01*
X168523986Y-139975170D01*
X168708743Y-139996727D01*
X168811096Y-140010119D01*
X169095878Y-140046861D01*
X169293862Y-140067083D01*
X169403858Y-140068794D01*
X169424672Y-140050003D01*
X169355110Y-140008715D01*
X169193982Y-139942940D01*
X168940093Y-139850686D01*
X168656600Y-139752073D01*
X168405122Y-139664345D01*
X168186109Y-139585732D01*
X168017272Y-139522762D01*
X167916322Y-139481964D01*
X167897139Y-139472144D01*
X167923289Y-139457040D01*
X168032140Y-139444147D01*
X168204793Y-139435124D01*
X168354339Y-139431992D01*
X168676617Y-139426756D01*
X168898060Y-139416592D01*
X169019401Y-139398731D01*
X169041373Y-139370400D01*
X168964708Y-139328831D01*
X168790138Y-139271251D01*
X168518396Y-139194892D01*
X168423757Y-139169437D01*
X168165543Y-139100897D01*
X167942431Y-139042634D01*
X167771868Y-138999129D01*
X167671300Y-138974863D01*
X167652364Y-138971334D01*
X167587716Y-138957397D01*
X167478807Y-138924862D01*
X167335800Y-138878390D01*
X167597195Y-138781042D01*
X167730271Y-138722203D01*
X167858935Y-138642440D01*
X167993979Y-138531718D01*
X168146193Y-138380005D01*
X168201968Y-138317246D01*
X168462936Y-138317246D01*
X168483339Y-138555223D01*
X168509716Y-138751620D01*
X168544391Y-138869686D01*
X168591972Y-138916324D01*
X168635792Y-138889338D01*
X168659187Y-138786534D01*
X168659777Y-138771376D01*
X168688097Y-138679467D01*
X169037600Y-138679467D01*
X169073705Y-138837205D01*
X169173890Y-138933467D01*
X169325957Y-138962706D01*
X169517709Y-138919376D01*
X169542615Y-138909120D01*
X169664231Y-138823142D01*
X169748019Y-138708036D01*
X169809054Y-138569167D01*
X169900680Y-138742877D01*
X169995248Y-138876898D01*
X170099192Y-138950874D01*
X170196892Y-138954255D01*
X170206878Y-138949715D01*
X170249373Y-138898299D01*
X170299838Y-138799463D01*
X170309322Y-138776483D01*
X170369257Y-138625146D01*
X170464682Y-138755906D01*
X170545059Y-138851828D01*
X170611206Y-138881846D01*
X170690944Y-138857131D01*
X170702228Y-138851292D01*
X170763552Y-138784436D01*
X170813450Y-138668487D01*
X170849048Y-138525522D01*
X170867470Y-138377618D01*
X170865843Y-138246850D01*
X170841290Y-138155295D01*
X170796846Y-138124667D01*
X170744409Y-138163756D01*
X170700848Y-138268119D01*
X170672101Y-138418396D01*
X170663759Y-138558584D01*
X170648128Y-138651558D01*
X170606938Y-138666268D01*
X170546830Y-138604753D01*
X170491327Y-138505667D01*
X170412187Y-138382856D01*
X170336654Y-138340448D01*
X170272910Y-138378772D01*
X170229743Y-138495084D01*
X170188967Y-138660219D01*
X170147380Y-138741085D01*
X170102009Y-138738059D01*
X170049881Y-138651521D01*
X170001871Y-138524070D01*
X169947315Y-138404621D01*
X169883787Y-138324403D01*
X169855203Y-138308223D01*
X169739304Y-138270301D01*
X169685989Y-138248577D01*
X169507839Y-138210671D01*
X169335845Y-138244797D01*
X169188133Y-138338912D01*
X169082827Y-138480969D01*
X169038052Y-138658924D01*
X169037600Y-138679467D01*
X168688097Y-138679467D01*
X168696590Y-138651905D01*
X168810447Y-138527276D01*
X168850277Y-138494726D01*
X168986850Y-138355455D01*
X169038128Y-138224946D01*
X169000629Y-138114325D01*
X168976640Y-138090800D01*
X168880201Y-138054885D01*
X168735778Y-138041411D01*
X168591793Y-138051026D01*
X168496668Y-138084377D01*
X168496654Y-138084388D01*
X168467370Y-138160089D01*
X168462936Y-138317246D01*
X168201968Y-138317246D01*
X168326371Y-138177266D01*
X168510555Y-137955334D01*
X170921986Y-137955334D01*
X170949213Y-138177584D01*
X170992629Y-138478786D01*
X171040631Y-138702046D01*
X171095694Y-138854072D01*
X171160288Y-138941569D01*
X171236886Y-138971245D01*
X171241827Y-138971334D01*
X171316510Y-138949073D01*
X171436133Y-138893021D01*
X171489607Y-138863974D01*
X171627904Y-138770340D01*
X171679829Y-138703978D01*
X171651264Y-138675067D01*
X171548092Y-138693781D01*
X171421900Y-138746858D01*
X171304255Y-138794867D01*
X171242942Y-138782164D01*
X171214556Y-138700508D01*
X171210395Y-138672385D01*
X171215591Y-138600062D01*
X171275829Y-138566793D01*
X171364783Y-138555710D01*
X171483185Y-138531454D01*
X171511211Y-138493825D01*
X171455053Y-138455763D01*
X171320903Y-138430208D01*
X171304099Y-138428885D01*
X171180551Y-138414988D01*
X171130734Y-138379103D01*
X171126955Y-138294259D01*
X171130226Y-138259552D01*
X171138162Y-138208212D01*
X171687834Y-138208212D01*
X171691871Y-138454766D01*
X171753203Y-138688853D01*
X171833838Y-138837225D01*
X171921692Y-138929141D01*
X171985308Y-138944383D01*
X172011969Y-138885748D01*
X172001386Y-138800359D01*
X171984721Y-138716437D01*
X172001884Y-138683204D01*
X172073439Y-138694405D01*
X172204764Y-138738500D01*
X172344868Y-138780210D01*
X172455635Y-138801352D01*
X172469201Y-138802000D01*
X172536736Y-138786351D01*
X172522375Y-138745641D01*
X172437047Y-138689229D01*
X172291682Y-138626472D01*
X172245160Y-138610190D01*
X171980287Y-138521461D01*
X172070013Y-138443219D01*
X172574228Y-138443219D01*
X172644500Y-138494611D01*
X172689924Y-138510478D01*
X172804095Y-138562686D01*
X172862589Y-138652555D01*
X172878158Y-138710466D01*
X172924867Y-138855964D01*
X172984469Y-138936814D01*
X173049497Y-138944172D01*
X173066140Y-138933150D01*
X173086138Y-138857516D01*
X173053240Y-138764577D01*
X173013953Y-138646824D01*
X173048862Y-138577359D01*
X173167180Y-138539389D01*
X173177730Y-138537650D01*
X173260365Y-138535225D01*
X173321381Y-138571950D01*
X173384262Y-138665424D01*
X173409056Y-138711031D01*
X173507242Y-138866943D01*
X173592385Y-138946971D01*
X173658587Y-138950216D01*
X173699951Y-138875775D01*
X173711200Y-138757168D01*
X173712165Y-138742635D01*
X173958108Y-138742635D01*
X173993410Y-138857043D01*
X174090968Y-138940209D01*
X174227992Y-138970046D01*
X174315378Y-138942607D01*
X174429439Y-138872581D01*
X174464106Y-138845399D01*
X174615227Y-138719464D01*
X174646781Y-138824232D01*
X174702653Y-138904979D01*
X174783028Y-138932553D01*
X174853599Y-138905556D01*
X174880377Y-138833750D01*
X174904220Y-138709311D01*
X174959088Y-138650141D01*
X175023808Y-138659762D01*
X175077210Y-138741695D01*
X175091198Y-138798684D01*
X175128343Y-138891046D01*
X175181498Y-138919052D01*
X175224718Y-138879774D01*
X175235200Y-138814947D01*
X175204632Y-138676164D01*
X175155381Y-138610702D01*
X175338447Y-138610702D01*
X175344942Y-138737434D01*
X175370405Y-138849866D01*
X175389387Y-138889450D01*
X175457185Y-138958067D01*
X175515902Y-138963374D01*
X175540000Y-138905433D01*
X175549182Y-138863198D01*
X175594713Y-138873139D01*
X175652903Y-138905433D01*
X175807670Y-138965231D01*
X175939841Y-138945223D01*
X176019703Y-138889334D01*
X176081344Y-138804065D01*
X176064790Y-138754093D01*
X175984848Y-138756252D01*
X175925520Y-138782258D01*
X175834085Y-138823057D01*
X175776466Y-138810349D01*
X175742901Y-138780534D01*
X175708228Y-138689510D01*
X175743021Y-138591562D01*
X175820538Y-138526993D01*
X176149600Y-138526993D01*
X176191267Y-138624412D01*
X176290662Y-138692219D01*
X176409377Y-138706653D01*
X176431342Y-138701276D01*
X176509678Y-138697152D01*
X176524204Y-138740388D01*
X176470933Y-138809911D01*
X176454400Y-138823167D01*
X176389695Y-138897354D01*
X176394540Y-138954318D01*
X176448542Y-138971334D01*
X176506563Y-138943341D01*
X176595832Y-138875121D01*
X176605259Y-138866866D01*
X176723030Y-138762399D01*
X176872012Y-138866866D01*
X177060251Y-138955084D01*
X177254951Y-138958904D01*
X177411761Y-138904260D01*
X177613219Y-138757974D01*
X177733028Y-138561607D01*
X177747144Y-138515742D01*
X177759173Y-138416159D01*
X177720263Y-138335928D01*
X177647861Y-138267868D01*
X177789195Y-138267868D01*
X177794720Y-138317958D01*
X177890149Y-138404167D01*
X177907333Y-138416805D01*
X177998331Y-138502608D01*
X178014245Y-138589812D01*
X178005854Y-138625523D01*
X177956856Y-138799651D01*
X177935784Y-138905611D01*
X177941807Y-138956436D01*
X177974097Y-138965164D01*
X177984384Y-138962800D01*
X178058826Y-138913022D01*
X178117351Y-138840990D01*
X178168664Y-138693825D01*
X178162023Y-138539275D01*
X178106576Y-138399409D01*
X178011469Y-138296299D01*
X177885849Y-138252013D01*
X177873112Y-138251667D01*
X177789195Y-138267868D01*
X177647861Y-138267868D01*
X177630720Y-138251755D01*
X177452140Y-138155598D01*
X177251956Y-138129443D01*
X177054948Y-138167960D01*
X176885894Y-138265822D01*
X176769573Y-138417700D01*
X176760497Y-138438890D01*
X176711394Y-138537751D01*
X176644362Y-138580525D01*
X176519908Y-138590285D01*
X176501260Y-138590334D01*
X176357220Y-138571881D01*
X176299264Y-138525378D01*
X176332696Y-138464104D01*
X176430315Y-138412798D01*
X176522514Y-138355499D01*
X176529892Y-138298376D01*
X176450054Y-138261167D01*
X176448741Y-138260952D01*
X176348057Y-138281957D01*
X176244658Y-138355577D01*
X176169276Y-138454478D01*
X176149600Y-138526993D01*
X175820538Y-138526993D01*
X175827911Y-138520852D01*
X175898744Y-138505667D01*
X175975576Y-138485768D01*
X175977872Y-138442458D01*
X175914794Y-138400319D01*
X175854277Y-138386388D01*
X175731888Y-138410271D01*
X175621260Y-138483950D01*
X175538187Y-138554446D01*
X175496668Y-138565962D01*
X175470279Y-138522445D01*
X175464446Y-138507364D01*
X175420440Y-138448011D01*
X175383942Y-138444051D01*
X175351315Y-138502098D01*
X175338447Y-138610702D01*
X175155381Y-138610702D01*
X175126420Y-138572209D01*
X175020801Y-138515472D01*
X174908011Y-138518344D01*
X174830688Y-138567271D01*
X174764275Y-138606328D01*
X174674652Y-138584755D01*
X174659367Y-138577854D01*
X174556875Y-138517106D01*
X174508775Y-138473917D01*
X174418722Y-138426999D01*
X174283510Y-138432285D01*
X174135286Y-138487042D01*
X174099050Y-138508739D01*
X173991256Y-138619146D01*
X173958108Y-138742635D01*
X173712165Y-138742635D01*
X173718377Y-138649096D01*
X173752057Y-138601472D01*
X173830460Y-138590362D01*
X173838200Y-138590334D01*
X173943224Y-138573162D01*
X173954416Y-138524927D01*
X173886875Y-138461864D01*
X173818447Y-138433851D01*
X173736743Y-138455749D01*
X173660663Y-138498811D01*
X173558391Y-138554802D01*
X173502375Y-138558842D01*
X173469757Y-138525869D01*
X173396449Y-138480131D01*
X173262716Y-138440583D01*
X173200932Y-138429689D01*
X173057796Y-138402507D01*
X172985280Y-138361797D01*
X172952641Y-138288282D01*
X172948964Y-138271699D01*
X172936329Y-138241795D01*
X175307292Y-138241795D01*
X175314081Y-138255283D01*
X175375753Y-138276256D01*
X175391938Y-138270599D01*
X175417107Y-138219205D01*
X175410318Y-138205718D01*
X175348646Y-138184744D01*
X175332461Y-138190401D01*
X175307292Y-138241795D01*
X172936329Y-138241795D01*
X172909140Y-138177452D01*
X172858296Y-138162618D01*
X172815851Y-138227222D01*
X172806125Y-138271517D01*
X172761305Y-138359622D01*
X172694823Y-138378667D01*
X172591244Y-138398060D01*
X172574228Y-138443219D01*
X172070013Y-138443219D01*
X172134543Y-138386949D01*
X172228906Y-138295885D01*
X172283437Y-138226264D01*
X172288800Y-138210695D01*
X172243984Y-138146951D01*
X172132772Y-138089846D01*
X171990016Y-138053054D01*
X171873295Y-138047678D01*
X171757648Y-138066589D01*
X171706106Y-138116936D01*
X171687834Y-138208212D01*
X171138162Y-138208212D01*
X171144558Y-138166846D01*
X171181920Y-138117770D01*
X171269980Y-138093920D01*
X171399800Y-138080242D01*
X171546576Y-138065541D01*
X171603541Y-138052232D01*
X171581919Y-138032821D01*
X171510792Y-138006159D01*
X171366696Y-137973537D01*
X171188133Y-137956194D01*
X171144886Y-137955334D01*
X170921986Y-137955334D01*
X168510555Y-137955334D01*
X168545302Y-137913467D01*
X168591138Y-137856893D01*
X168742555Y-137684332D01*
X168942964Y-137476933D01*
X169168254Y-137258657D01*
X169394316Y-137053464D01*
X169435184Y-137018089D01*
X169708587Y-136778271D01*
X169913474Y-136585098D01*
X170057704Y-136429377D01*
X170149134Y-136301916D01*
X170195623Y-136193522D01*
X170205739Y-136116616D01*
X170158169Y-135915932D01*
X170021168Y-135706393D01*
X169804510Y-135497410D01*
X169517970Y-135298392D01*
X169171326Y-135118750D01*
X169167348Y-135116976D01*
X168972397Y-135038669D01*
X168847784Y-135007019D01*
X168797824Y-135021481D01*
X168826833Y-135081505D01*
X168897404Y-135151192D01*
X169017913Y-135317442D01*
X169066027Y-135478834D01*
X169131201Y-135740917D01*
X169238413Y-135980069D01*
X169403922Y-136230523D01*
X169454300Y-136296342D01*
X169663535Y-136563963D01*
X169531817Y-136673728D01*
X169400100Y-136783492D01*
X169145200Y-136621502D01*
X168941411Y-136461223D01*
X168759752Y-136249244D01*
X168590994Y-135973358D01*
X168475863Y-135736271D01*
X168311472Y-135472261D01*
X168072463Y-135225947D01*
X167792169Y-135028534D01*
X167662052Y-134944479D01*
X167625862Y-134892322D01*
X167684023Y-134870846D01*
X167836956Y-134878831D01*
X167843800Y-134879603D01*
X167987072Y-134889725D01*
X168055553Y-134872155D01*
X168051182Y-134817114D01*
X167975899Y-134714825D01*
X167894600Y-134623540D01*
X167777580Y-134488494D01*
X167727188Y-134407560D01*
X167741299Y-134372515D01*
X167817792Y-134375134D01*
X167831100Y-134377595D01*
X167923246Y-134393988D01*
X168091839Y-134422622D01*
X168313589Y-134459587D01*
X168565207Y-134500971D01*
X168587373Y-134504591D01*
X169147694Y-134609804D01*
X169638627Y-134733486D01*
X170091686Y-134884207D01*
X170325929Y-134977438D01*
X170494931Y-135043839D01*
X170627429Y-135087440D01*
X170699356Y-135100532D01*
X170704491Y-135098702D01*
X170736632Y-135019227D01*
X170720382Y-134899472D01*
X170665027Y-134768855D01*
X170579855Y-134656797D01*
X170559216Y-134638511D01*
X170439231Y-134488739D01*
X170405204Y-134321562D01*
X170452734Y-134158284D01*
X170577418Y-134020207D01*
X170700912Y-133952802D01*
X170907622Y-133912912D01*
X171104844Y-133951089D01*
X171272487Y-134061195D01*
X171344229Y-134149306D01*
X171410740Y-134319726D01*
X171378673Y-134479179D01*
X171246623Y-134633344D01*
X171219090Y-134655598D01*
X171130627Y-134735720D01*
X171085844Y-134819304D01*
X171070598Y-134939788D01*
X171069600Y-135008985D01*
X171074773Y-135137816D01*
X171088138Y-135223897D01*
X171101589Y-135246000D01*
X171189556Y-135234097D01*
X171337105Y-135203155D01*
X171516332Y-135160329D01*
X171699330Y-135112772D01*
X171858195Y-135067638D01*
X171965022Y-135032080D01*
X171993435Y-135017372D01*
X172002545Y-134965461D01*
X172011003Y-134840033D01*
X172018466Y-134652237D01*
X172024591Y-134413222D01*
X172029036Y-134134138D01*
X172031459Y-133826134D01*
X172031641Y-133773248D01*
X172035012Y-132571856D01*
X171730106Y-132307249D01*
X171425200Y-132042643D01*
X171425200Y-130826312D01*
X171425199Y-129609981D01*
X171247399Y-129470242D01*
X171132489Y-129365703D01*
X171080663Y-129267449D01*
X171069600Y-129152328D01*
X171109853Y-128981843D01*
X171216483Y-128852235D01*
X171368293Y-128766926D01*
X171544087Y-128729339D01*
X171722669Y-128742896D01*
G36*
X169583586Y-138341677D02*
G01*
X169637529Y-138419271D01*
X169647200Y-138505141D01*
X169615625Y-138627973D01*
X169535483Y-138736429D01*
X169428647Y-138814440D01*
X169316991Y-138845939D01*
X169223866Y-138816111D01*
X169181770Y-138727103D01*
X169202805Y-138606611D01*
X169278054Y-138482843D01*
X169350752Y-138414786D01*
X169486421Y-138339703D01*
X169583586Y-138341677D01*
G37*
X169583586Y-138341677D02*
X169637529Y-138419271D01*
X169647200Y-138505141D01*
X169615625Y-138627973D01*
X169535483Y-138736429D01*
X169428647Y-138814440D01*
X169316991Y-138845939D01*
X169223866Y-138816111D01*
X169181770Y-138727103D01*
X169202805Y-138606611D01*
X169278054Y-138482843D01*
X169350752Y-138414786D01*
X169486421Y-138339703D01*
X169583586Y-138341677D01*
G36*
X172056817Y-138195438D02*
G01*
X172087993Y-138261873D01*
X172048257Y-138337994D01*
X171987339Y-138377177D01*
X171885198Y-138414844D01*
X171841349Y-138394949D01*
X171831627Y-138304586D01*
X171831600Y-138294000D01*
X171845268Y-138203237D01*
X171903372Y-138170033D01*
X171958600Y-138167000D01*
X172056817Y-138195438D01*
G37*
X172056817Y-138195438D02*
X172087993Y-138261873D01*
X172048257Y-138337994D01*
X171987339Y-138377177D01*
X171885198Y-138414844D01*
X171841349Y-138394949D01*
X171831627Y-138304586D01*
X171831600Y-138294000D01*
X171845268Y-138203237D01*
X171903372Y-138170033D01*
X171958600Y-138167000D01*
X172056817Y-138195438D01*
G36*
X174414458Y-138578684D02*
G01*
X174415563Y-138650924D01*
X174370602Y-138735001D01*
X174329499Y-138774272D01*
X174217337Y-138835588D01*
X174142196Y-138829712D01*
X174117600Y-138766228D01*
X174156179Y-138676753D01*
X174245997Y-138592808D01*
X174348176Y-138548979D01*
X174362900Y-138548000D01*
X174414458Y-138578684D01*
G37*
X174414458Y-138578684D02*
X174415563Y-138650924D01*
X174370602Y-138735001D01*
X174329499Y-138774272D01*
X174217337Y-138835588D01*
X174142196Y-138829712D01*
X174117600Y-138766228D01*
X174156179Y-138676753D01*
X174245997Y-138592808D01*
X174348176Y-138548979D01*
X174362900Y-138548000D01*
X174414458Y-138578684D01*
G36*
X177439025Y-138269143D02*
G01*
X177556647Y-138340942D01*
X177615394Y-138438249D01*
X177614294Y-138489542D01*
X177566877Y-138563546D01*
X177496862Y-138576862D01*
X177440887Y-138524639D01*
X177436637Y-138513055D01*
X177369816Y-138426013D01*
X177261854Y-138399160D01*
X177140618Y-138430543D01*
X177033971Y-138518209D01*
X177016741Y-138542485D01*
X176999203Y-138631295D01*
X177071642Y-138691269D01*
X177226337Y-138716814D01*
X177258180Y-138717334D01*
X177369491Y-138722456D01*
X177396599Y-138744348D01*
X177368800Y-138780834D01*
X177254585Y-138836552D01*
X177109931Y-138831587D01*
X176972731Y-138767912D01*
X176962400Y-138759667D01*
X176887663Y-138682298D01*
X176860800Y-138628481D01*
X176895166Y-138518253D01*
X176979156Y-138393465D01*
X177084107Y-138291767D01*
X177142446Y-138258516D01*
X177291350Y-138236963D01*
X177439025Y-138269143D01*
G37*
X177439025Y-138269143D02*
X177556647Y-138340942D01*
X177615394Y-138438249D01*
X177614294Y-138489542D01*
X177566877Y-138563546D01*
X177496862Y-138576862D01*
X177440887Y-138524639D01*
X177436637Y-138513055D01*
X177369816Y-138426013D01*
X177261854Y-138399160D01*
X177140618Y-138430543D01*
X177033971Y-138518209D01*
X177016741Y-138542485D01*
X176999203Y-138631295D01*
X177071642Y-138691269D01*
X177226337Y-138716814D01*
X177258180Y-138717334D01*
X177369491Y-138722456D01*
X177396599Y-138744348D01*
X177368800Y-138780834D01*
X177254585Y-138836552D01*
X177109931Y-138831587D01*
X176972731Y-138767912D01*
X176962400Y-138759667D01*
X176887663Y-138682298D01*
X176860800Y-138628481D01*
X176895166Y-138518253D01*
X176979156Y-138393465D01*
X177084107Y-138291767D01*
X177142446Y-138258516D01*
X177291350Y-138236963D01*
X177439025Y-138269143D01*
G36*
X177249737Y-138573935D02*
G01*
X177241800Y-138590334D01*
X177196150Y-138630719D01*
X177188001Y-138632667D01*
X177166182Y-138599914D01*
X177165600Y-138590334D01*
X177204652Y-138549627D01*
X177219398Y-138548000D01*
X177249737Y-138573935D01*
G37*
X177249737Y-138573935D02*
X177241800Y-138590334D01*
X177196150Y-138630719D01*
X177188001Y-138632667D01*
X177166182Y-138599914D01*
X177165600Y-138590334D01*
X177204652Y-138549627D01*
X177219398Y-138548000D01*
X177249737Y-138573935D01*
G36*
X168847915Y-138175869D02*
G01*
X168872909Y-138248119D01*
X168825949Y-138335798D01*
X168807908Y-138352362D01*
X168708622Y-138413888D01*
X168651787Y-138398531D01*
X168638509Y-138306747D01*
X168640681Y-138283417D01*
X168668709Y-138183621D01*
X168732017Y-138147315D01*
X168757504Y-138145834D01*
X168847915Y-138175869D01*
G37*
X168847915Y-138175869D02*
X168872909Y-138248119D01*
X168825949Y-138335798D01*
X168807908Y-138352362D01*
X168708622Y-138413888D01*
X168651787Y-138398531D01*
X168638509Y-138306747D01*
X168640681Y-138283417D01*
X168668709Y-138183621D01*
X168732017Y-138147315D01*
X168757504Y-138145834D01*
X168847915Y-138175869D01*
D13*
%TO.C,10k1*%
X161134000Y-120842400D02*
G75*
G03*
X161134000Y-120842400I-900000J0D01*
G01*
X158607000Y-117632400D02*
X163444000Y-117632400D01*
X158607000Y-124052400D02*
X163444000Y-124052400D01*
X157024000Y-119100400D02*
X157024000Y-122585400D01*
X163444000Y-117632400D02*
X163444000Y-120085400D01*
X163444000Y-121600400D02*
X163444000Y-124052400D01*
%TO.C,D1*%
X182920200Y-136051000D02*
X182920200Y-136207000D01*
X182920200Y-138367000D02*
X182920200Y-138523000D01*
X186152535Y-136208392D02*
G75*
G03*
X182920200Y-136051484I-1672335J-1078608D01*
G01*
X186152535Y-138365608D02*
G75*
G02*
X182920200Y-138522516I-1672335J1078608D01*
G01*
X185521330Y-136207163D02*
G75*
G03*
X183439239Y-136207000I-1041130J-1079837D01*
G01*
X185521330Y-138366837D02*
G75*
G02*
X183439239Y-138367000I-1041130J1079837D01*
G01*
%TO.C,D2*%
X182844000Y-131250400D02*
X182844000Y-131406400D01*
X182844000Y-133566400D02*
X182844000Y-133722400D01*
X186076335Y-131407792D02*
G75*
G03*
X182844000Y-131250884I-1672335J-1078608D01*
G01*
X186076335Y-133565008D02*
G75*
G02*
X182844000Y-133721916I-1672335J1078608D01*
G01*
X185445130Y-131406563D02*
G75*
G03*
X183363039Y-131406400I-1041130J-1079837D01*
G01*
X185445130Y-133566237D02*
G75*
G02*
X183363039Y-133566400I-1041130J1079837D01*
G01*
%TO.C,D3*%
X182691600Y-126399000D02*
X182691600Y-126555000D01*
X182691600Y-128715000D02*
X182691600Y-128871000D01*
X185923935Y-126556392D02*
G75*
G03*
X182691600Y-126399484I-1672335J-1078608D01*
G01*
X185923935Y-128713608D02*
G75*
G02*
X182691600Y-128870516I-1672335J1078608D01*
G01*
X185292730Y-126555163D02*
G75*
G03*
X183210639Y-126555000I-1041130J-1079837D01*
G01*
X185292730Y-128714837D02*
G75*
G02*
X183210639Y-128715000I-1041130J1079837D01*
G01*
%TO.C,D4*%
X182767800Y-121573000D02*
X182767800Y-121729000D01*
X182767800Y-123889000D02*
X182767800Y-124045000D01*
X186000135Y-121730392D02*
G75*
G03*
X182767800Y-121573484I-1672335J-1078608D01*
G01*
X186000135Y-123887608D02*
G75*
G02*
X182767800Y-124044516I-1672335J1078608D01*
G01*
X185368930Y-121729163D02*
G75*
G03*
X183286839Y-121729000I-1041130J-1079837D01*
G01*
X185368930Y-123888837D02*
G75*
G02*
X183286839Y-123889000I-1041130J1079837D01*
G01*
%TO.C,D5*%
X182640800Y-116721600D02*
X182640800Y-116877600D01*
X182640800Y-119037600D02*
X182640800Y-119193600D01*
X185873135Y-116878992D02*
G75*
G03*
X182640800Y-116722084I-1672335J-1078608D01*
G01*
X185873135Y-119036208D02*
G75*
G02*
X182640800Y-119193116I-1672335J1078608D01*
G01*
X185241930Y-116877763D02*
G75*
G03*
X183159839Y-116877600I-1041130J-1079837D01*
G01*
X185241930Y-119037437D02*
G75*
G02*
X183159839Y-119037600I-1041130J1079837D01*
G01*
%TO.C,D6*%
X182691600Y-111971800D02*
X182691600Y-112127800D01*
X182691600Y-114287800D02*
X182691600Y-114443800D01*
X185923935Y-112129192D02*
G75*
G03*
X182691600Y-111972284I-1672335J-1078608D01*
G01*
X185923935Y-114286408D02*
G75*
G02*
X182691600Y-114443316I-1672335J1078608D01*
G01*
X185292730Y-112127963D02*
G75*
G03*
X183210639Y-112127800I-1041130J-1079837D01*
G01*
X185292730Y-114287637D02*
G75*
G02*
X183210639Y-114287800I-1041130J1079837D01*
G01*
%TO.C,D7*%
X182666200Y-107145800D02*
X182666200Y-107301800D01*
X182666200Y-109461800D02*
X182666200Y-109617800D01*
X185898535Y-107303192D02*
G75*
G03*
X182666200Y-107146284I-1672335J-1078608D01*
G01*
X185898535Y-109460408D02*
G75*
G02*
X182666200Y-109617316I-1672335J1078608D01*
G01*
X185267330Y-107301963D02*
G75*
G03*
X183185239Y-107301800I-1041130J-1079837D01*
G01*
X185267330Y-109461637D02*
G75*
G02*
X183185239Y-109461800I-1041130J1079837D01*
G01*
%TO.C,D8*%
X182920200Y-102269000D02*
X182920200Y-102425000D01*
X182920200Y-104585000D02*
X182920200Y-104741000D01*
X186152535Y-102426392D02*
G75*
G03*
X182920200Y-102269484I-1672335J-1078608D01*
G01*
X186152535Y-104583608D02*
G75*
G02*
X182920200Y-104740516I-1672335J1078608D01*
G01*
X185521330Y-102425163D02*
G75*
G03*
X183439239Y-102425000I-1041130J-1079837D01*
G01*
X185521330Y-104584837D02*
G75*
G02*
X183439239Y-104585000I-1041130J1079837D01*
G01*
%TO.C,D9*%
X182971000Y-97062000D02*
X182971000Y-97218000D01*
X182971000Y-99378000D02*
X182971000Y-99534000D01*
X186203335Y-97219392D02*
G75*
G03*
X182971000Y-97062484I-1672335J-1078608D01*
G01*
X186203335Y-99376608D02*
G75*
G02*
X182971000Y-99533516I-1672335J1078608D01*
G01*
X185572130Y-97218163D02*
G75*
G03*
X183490039Y-97218000I-1041130J-1079837D01*
G01*
X185572130Y-99377837D02*
G75*
G02*
X183490039Y-99378000I-1041130J1079837D01*
G01*
%TO.C,D10*%
X182971000Y-92109000D02*
X182971000Y-92265000D01*
X182971000Y-94425000D02*
X182971000Y-94581000D01*
X186203335Y-92266392D02*
G75*
G03*
X182971000Y-92109484I-1672335J-1078608D01*
G01*
X186203335Y-94423608D02*
G75*
G02*
X182971000Y-94580516I-1672335J1078608D01*
G01*
X185572130Y-92265163D02*
G75*
G03*
X183490039Y-92265000I-1041130J-1079837D01*
G01*
X185572130Y-94424837D02*
G75*
G02*
X183490039Y-94425000I-1041130J1079837D01*
G01*
D14*
%TO.C,GND VCC*%
X167741600Y-91236800D02*
X177901600Y-91236800D01*
X167741600Y-89966800D02*
X167741600Y-97586800D01*
X167741600Y-97586800D02*
X177901600Y-97586800D01*
X177901600Y-97586800D02*
X177901600Y-89966800D01*
X177901600Y-89966800D02*
X167741600Y-89966800D01*
D13*
%TO.C,IC1*%
X171978201Y-103524200D02*
X170328201Y-103524200D01*
X170328201Y-103524200D02*
X170328201Y-126504200D01*
X170328201Y-126504200D02*
X175628201Y-126504200D01*
X175628201Y-126504200D02*
X175628201Y-103524200D01*
X175628201Y-103524200D02*
X173978201Y-103524200D01*
X173978201Y-103524200D02*
G75*
G02*
X171978201Y-103524200I-1000000J0D01*
G01*
%TO.C,JUMPER*%
X164321800Y-92548400D02*
X159121800Y-92548400D01*
X164321800Y-92608400D02*
X164321800Y-92548400D01*
X159121800Y-95208400D02*
X159121800Y-92548400D01*
X164321800Y-92608400D02*
X161721800Y-92608400D01*
X161721800Y-92608400D02*
X161721800Y-95208400D01*
X161721800Y-95208400D02*
X159121800Y-95208400D01*
X164321800Y-93878400D02*
X164321800Y-95208400D01*
X164321800Y-95208400D02*
X162991800Y-95208400D01*
D14*
%TO.C,R1*%
X164287200Y-128905000D02*
X159207200Y-128905000D01*
X159207200Y-128905000D02*
X159207200Y-126365000D01*
X159207200Y-126365000D02*
X164287200Y-126365000D01*
X164287200Y-126365000D02*
X164287200Y-128905000D01*
%TO.C,R2*%
X162229800Y-113842800D02*
X162229800Y-108762800D01*
X162229800Y-108762800D02*
X164769800Y-108762800D01*
X164769800Y-108762800D02*
X164769800Y-113842800D01*
X164769800Y-113842800D02*
X162229800Y-113842800D01*
%TO.C,R3*%
X156819600Y-114096800D02*
X156819600Y-109016800D01*
X156819600Y-109016800D02*
X159359600Y-109016800D01*
X159359600Y-109016800D02*
X159359600Y-114096800D01*
X159359600Y-114096800D02*
X156819600Y-114096800D01*
%TO.C,10k1*%
X165628580Y-121315028D02*
X165628580Y-121886457D01*
X165628580Y-121600742D02*
X164628580Y-121600742D01*
X164771438Y-121695980D01*
X164866676Y-121791219D01*
X164914295Y-121886457D01*
X164628580Y-120695980D02*
X164628580Y-120600742D01*
X164676200Y-120505504D01*
X164723819Y-120457885D01*
X164819057Y-120410266D01*
X165009533Y-120362647D01*
X165247628Y-120362647D01*
X165438104Y-120410266D01*
X165533342Y-120457885D01*
X165580961Y-120505504D01*
X165628580Y-120600742D01*
X165628580Y-120695980D01*
X165580961Y-120791219D01*
X165533342Y-120838838D01*
X165438104Y-120886457D01*
X165247628Y-120934076D01*
X165009533Y-120934076D01*
X164819057Y-120886457D01*
X164723819Y-120838838D01*
X164676200Y-120791219D01*
X164628580Y-120695980D01*
X165628580Y-119934076D02*
X164628580Y-119934076D01*
X165247628Y-119838838D02*
X165628580Y-119553123D01*
X164961914Y-119553123D02*
X165342866Y-119934076D01*
X165628580Y-118600742D02*
X165628580Y-119172171D01*
X165628580Y-118886457D02*
X164628580Y-118886457D01*
X164771438Y-118981695D01*
X164866676Y-119076933D01*
X164914295Y-119172171D01*
X156052780Y-122070666D02*
X155052780Y-122070666D01*
X155052780Y-121689714D01*
X155100400Y-121594476D01*
X155148019Y-121546857D01*
X155243257Y-121499238D01*
X155386114Y-121499238D01*
X155481352Y-121546857D01*
X155528971Y-121594476D01*
X155576590Y-121689714D01*
X155576590Y-122070666D01*
X155052780Y-120880190D02*
X155052780Y-120689714D01*
X155100400Y-120594476D01*
X155195638Y-120499238D01*
X155386114Y-120451619D01*
X155719447Y-120451619D01*
X155909923Y-120499238D01*
X156005161Y-120594476D01*
X156052780Y-120689714D01*
X156052780Y-120880190D01*
X156005161Y-120975428D01*
X155909923Y-121070666D01*
X155719447Y-121118285D01*
X155386114Y-121118285D01*
X155195638Y-121070666D01*
X155100400Y-120975428D01*
X155052780Y-120880190D01*
X155052780Y-120165904D02*
X155052780Y-119594476D01*
X156052780Y-119880190D02*
X155052780Y-119880190D01*
%TO.C,D1*%
X188399680Y-137478995D02*
X187399680Y-137478995D01*
X187399680Y-137240900D01*
X187447300Y-137098042D01*
X187542538Y-137002804D01*
X187637776Y-136955185D01*
X187828252Y-136907566D01*
X187971109Y-136907566D01*
X188161585Y-136955185D01*
X188256823Y-137002804D01*
X188352061Y-137098042D01*
X188399680Y-137240900D01*
X188399680Y-137478995D01*
X188399680Y-135955185D02*
X188399680Y-136526614D01*
X188399680Y-136240900D02*
X187399680Y-136240900D01*
X187542538Y-136336138D01*
X187637776Y-136431376D01*
X187685395Y-136526614D01*
%TO.C,D2*%
X188539380Y-133364195D02*
X187539380Y-133364195D01*
X187539380Y-133126100D01*
X187587000Y-132983242D01*
X187682238Y-132888004D01*
X187777476Y-132840385D01*
X187967952Y-132792766D01*
X188110809Y-132792766D01*
X188301285Y-132840385D01*
X188396523Y-132888004D01*
X188491761Y-132983242D01*
X188539380Y-133126100D01*
X188539380Y-133364195D01*
X187634619Y-132411814D02*
X187587000Y-132364195D01*
X187539380Y-132268957D01*
X187539380Y-132030861D01*
X187587000Y-131935623D01*
X187634619Y-131888004D01*
X187729857Y-131840385D01*
X187825095Y-131840385D01*
X187967952Y-131888004D01*
X188539380Y-132459433D01*
X188539380Y-131840385D01*
%TO.C,D3*%
X188488580Y-128759175D02*
X187488580Y-128759175D01*
X187488580Y-128521080D01*
X187536200Y-128378222D01*
X187631438Y-128282984D01*
X187726676Y-128235365D01*
X187917152Y-128187746D01*
X188060009Y-128187746D01*
X188250485Y-128235365D01*
X188345723Y-128282984D01*
X188440961Y-128378222D01*
X188488580Y-128521080D01*
X188488580Y-128759175D01*
X187488580Y-127854413D02*
X187488580Y-127235365D01*
X187869533Y-127568699D01*
X187869533Y-127425841D01*
X187917152Y-127330603D01*
X187964771Y-127282984D01*
X188060009Y-127235365D01*
X188298104Y-127235365D01*
X188393342Y-127282984D01*
X188440961Y-127330603D01*
X188488580Y-127425841D01*
X188488580Y-127711556D01*
X188440961Y-127806794D01*
X188393342Y-127854413D01*
%TO.C,D4*%
X188488580Y-123618215D02*
X187488580Y-123618215D01*
X187488580Y-123380120D01*
X187536200Y-123237262D01*
X187631438Y-123142024D01*
X187726676Y-123094405D01*
X187917152Y-123046786D01*
X188060009Y-123046786D01*
X188250485Y-123094405D01*
X188345723Y-123142024D01*
X188440961Y-123237262D01*
X188488580Y-123380120D01*
X188488580Y-123618215D01*
X187821914Y-122189643D02*
X188488580Y-122189643D01*
X187440961Y-122427739D02*
X188155247Y-122665834D01*
X188155247Y-122046786D01*
%TO.C,D5*%
X188544460Y-118756655D02*
X187544460Y-118756655D01*
X187544460Y-118518560D01*
X187592080Y-118375702D01*
X187687318Y-118280464D01*
X187782556Y-118232845D01*
X187973032Y-118185226D01*
X188115889Y-118185226D01*
X188306365Y-118232845D01*
X188401603Y-118280464D01*
X188496841Y-118375702D01*
X188544460Y-118518560D01*
X188544460Y-118756655D01*
X187544460Y-117280464D02*
X187544460Y-117756655D01*
X188020651Y-117804274D01*
X187973032Y-117756655D01*
X187925413Y-117661417D01*
X187925413Y-117423321D01*
X187973032Y-117328083D01*
X188020651Y-117280464D01*
X188115889Y-117232845D01*
X188353984Y-117232845D01*
X188449222Y-117280464D01*
X188496841Y-117328083D01*
X188544460Y-117423321D01*
X188544460Y-117661417D01*
X188496841Y-117756655D01*
X188449222Y-117804274D01*
%TO.C,D6*%
X188630820Y-113859535D02*
X187630820Y-113859535D01*
X187630820Y-113621440D01*
X187678440Y-113478582D01*
X187773678Y-113383344D01*
X187868916Y-113335725D01*
X188059392Y-113288106D01*
X188202249Y-113288106D01*
X188392725Y-113335725D01*
X188487963Y-113383344D01*
X188583201Y-113478582D01*
X188630820Y-113621440D01*
X188630820Y-113859535D01*
X187630820Y-112430963D02*
X187630820Y-112621440D01*
X187678440Y-112716678D01*
X187726059Y-112764297D01*
X187868916Y-112859535D01*
X188059392Y-112907154D01*
X188440344Y-112907154D01*
X188535582Y-112859535D01*
X188583201Y-112811916D01*
X188630820Y-112716678D01*
X188630820Y-112526201D01*
X188583201Y-112430963D01*
X188535582Y-112383344D01*
X188440344Y-112335725D01*
X188202249Y-112335725D01*
X188107011Y-112383344D01*
X188059392Y-112430963D01*
X188011773Y-112526201D01*
X188011773Y-112716678D01*
X188059392Y-112811916D01*
X188107011Y-112859535D01*
X188202249Y-112907154D01*
%TO.C,D7*%
X188326020Y-109246895D02*
X187326020Y-109246895D01*
X187326020Y-109008800D01*
X187373640Y-108865942D01*
X187468878Y-108770704D01*
X187564116Y-108723085D01*
X187754592Y-108675466D01*
X187897449Y-108675466D01*
X188087925Y-108723085D01*
X188183163Y-108770704D01*
X188278401Y-108865942D01*
X188326020Y-109008800D01*
X188326020Y-109246895D01*
X187326020Y-108342133D02*
X187326020Y-107675466D01*
X188326020Y-108104038D01*
%TO.C,D8*%
X188742580Y-104029735D02*
X187742580Y-104029735D01*
X187742580Y-103791640D01*
X187790200Y-103648782D01*
X187885438Y-103553544D01*
X187980676Y-103505925D01*
X188171152Y-103458306D01*
X188314009Y-103458306D01*
X188504485Y-103505925D01*
X188599723Y-103553544D01*
X188694961Y-103648782D01*
X188742580Y-103791640D01*
X188742580Y-104029735D01*
X188171152Y-102886878D02*
X188123533Y-102982116D01*
X188075914Y-103029735D01*
X187980676Y-103077354D01*
X187933057Y-103077354D01*
X187837819Y-103029735D01*
X187790200Y-102982116D01*
X187742580Y-102886878D01*
X187742580Y-102696401D01*
X187790200Y-102601163D01*
X187837819Y-102553544D01*
X187933057Y-102505925D01*
X187980676Y-102505925D01*
X188075914Y-102553544D01*
X188123533Y-102601163D01*
X188171152Y-102696401D01*
X188171152Y-102886878D01*
X188218771Y-102982116D01*
X188266390Y-103029735D01*
X188361628Y-103077354D01*
X188552104Y-103077354D01*
X188647342Y-103029735D01*
X188694961Y-102982116D01*
X188742580Y-102886878D01*
X188742580Y-102696401D01*
X188694961Y-102601163D01*
X188647342Y-102553544D01*
X188552104Y-102505925D01*
X188361628Y-102505925D01*
X188266390Y-102553544D01*
X188218771Y-102601163D01*
X188171152Y-102696401D01*
%TO.C,D9*%
X188935620Y-99036095D02*
X187935620Y-99036095D01*
X187935620Y-98798000D01*
X187983240Y-98655142D01*
X188078478Y-98559904D01*
X188173716Y-98512285D01*
X188364192Y-98464666D01*
X188507049Y-98464666D01*
X188697525Y-98512285D01*
X188792763Y-98559904D01*
X188888001Y-98655142D01*
X188935620Y-98798000D01*
X188935620Y-99036095D01*
X188935620Y-97988476D02*
X188935620Y-97798000D01*
X188888001Y-97702761D01*
X188840382Y-97655142D01*
X188697525Y-97559904D01*
X188507049Y-97512285D01*
X188126097Y-97512285D01*
X188030859Y-97559904D01*
X187983240Y-97607523D01*
X187935620Y-97702761D01*
X187935620Y-97893238D01*
X187983240Y-97988476D01*
X188030859Y-98036095D01*
X188126097Y-98083714D01*
X188364192Y-98083714D01*
X188459430Y-98036095D01*
X188507049Y-97988476D01*
X188554668Y-97893238D01*
X188554668Y-97702761D01*
X188507049Y-97607523D01*
X188459430Y-97559904D01*
X188364192Y-97512285D01*
%TO.C,D10*%
X188630820Y-94904725D02*
X187630820Y-94904725D01*
X187630820Y-94666630D01*
X187678440Y-94523773D01*
X187773678Y-94428535D01*
X187868916Y-94380916D01*
X188059392Y-94333297D01*
X188202249Y-94333297D01*
X188392725Y-94380916D01*
X188487963Y-94428535D01*
X188583201Y-94523773D01*
X188630820Y-94666630D01*
X188630820Y-94904725D01*
X188630820Y-93380916D02*
X188630820Y-93952344D01*
X188630820Y-93666630D02*
X187630820Y-93666630D01*
X187773678Y-93761868D01*
X187868916Y-93857106D01*
X187916535Y-93952344D01*
X187630820Y-92761868D02*
X187630820Y-92666630D01*
X187678440Y-92571392D01*
X187726059Y-92523773D01*
X187821297Y-92476154D01*
X188011773Y-92428535D01*
X188249868Y-92428535D01*
X188440344Y-92476154D01*
X188535582Y-92523773D01*
X188583201Y-92571392D01*
X188630820Y-92666630D01*
X188630820Y-92761868D01*
X188583201Y-92857106D01*
X188535582Y-92904725D01*
X188440344Y-92952344D01*
X188249868Y-92999963D01*
X188011773Y-92999963D01*
X187821297Y-92952344D01*
X187726059Y-92904725D01*
X187678440Y-92857106D01*
X187630820Y-92761868D01*
%TO.C,GND VCC*%
X169107314Y-88196800D02*
X169012076Y-88149180D01*
X168869219Y-88149180D01*
X168726361Y-88196800D01*
X168631123Y-88292038D01*
X168583504Y-88387276D01*
X168535885Y-88577752D01*
X168535885Y-88720609D01*
X168583504Y-88911085D01*
X168631123Y-89006323D01*
X168726361Y-89101561D01*
X168869219Y-89149180D01*
X168964457Y-89149180D01*
X169107314Y-89101561D01*
X169154933Y-89053942D01*
X169154933Y-88720609D01*
X168964457Y-88720609D01*
X169583504Y-89149180D02*
X169583504Y-88149180D01*
X170154933Y-89149180D01*
X170154933Y-88149180D01*
X170631123Y-89149180D02*
X170631123Y-88149180D01*
X170869219Y-88149180D01*
X171012076Y-88196800D01*
X171107314Y-88292038D01*
X171154933Y-88387276D01*
X171202552Y-88577752D01*
X171202552Y-88720609D01*
X171154933Y-88911085D01*
X171107314Y-89006323D01*
X171012076Y-89101561D01*
X170869219Y-89149180D01*
X170631123Y-89149180D01*
X174535885Y-88149180D02*
X174869219Y-89149180D01*
X175202552Y-88149180D01*
X176107314Y-89053942D02*
X176059695Y-89101561D01*
X175916838Y-89149180D01*
X175821600Y-89149180D01*
X175678742Y-89101561D01*
X175583504Y-89006323D01*
X175535885Y-88911085D01*
X175488266Y-88720609D01*
X175488266Y-88577752D01*
X175535885Y-88387276D01*
X175583504Y-88292038D01*
X175678742Y-88196800D01*
X175821600Y-88149180D01*
X175916838Y-88149180D01*
X176059695Y-88196800D01*
X176107314Y-88244419D01*
X177107314Y-89053942D02*
X177059695Y-89101561D01*
X176916838Y-89149180D01*
X176821600Y-89149180D01*
X176678742Y-89101561D01*
X176583504Y-89006323D01*
X176535885Y-88911085D01*
X176488266Y-88720609D01*
X176488266Y-88577752D01*
X176535885Y-88387276D01*
X176583504Y-88292038D01*
X176678742Y-88196800D01*
X176821600Y-88149180D01*
X176916838Y-88149180D01*
X177059695Y-88196800D01*
X177107314Y-88244419D01*
%TO.C,IC1*%
X172002010Y-102976580D02*
X172002010Y-101976580D01*
X173049629Y-102881342D02*
X173002010Y-102928961D01*
X172859153Y-102976580D01*
X172763915Y-102976580D01*
X172621058Y-102928961D01*
X172525820Y-102833723D01*
X172478201Y-102738485D01*
X172430581Y-102548009D01*
X172430581Y-102405152D01*
X172478201Y-102214676D01*
X172525820Y-102119438D01*
X172621058Y-102024200D01*
X172763915Y-101976580D01*
X172859153Y-101976580D01*
X173002010Y-102024200D01*
X173049629Y-102071819D01*
X174002010Y-102976580D02*
X173430581Y-102976580D01*
X173716296Y-102976580D02*
X173716296Y-101976580D01*
X173621058Y-102119438D01*
X173525820Y-102214676D01*
X173430581Y-102262295D01*
X170811534Y-127956580D02*
X170335343Y-127956580D01*
X170335343Y-126956580D01*
X171144867Y-127956580D02*
X171144867Y-126956580D01*
X171478201Y-127670866D01*
X171811534Y-126956580D01*
X171811534Y-127956580D01*
X172192486Y-126956580D02*
X172811534Y-126956580D01*
X172478201Y-127337533D01*
X172621058Y-127337533D01*
X172716296Y-127385152D01*
X172763915Y-127432771D01*
X172811534Y-127528009D01*
X172811534Y-127766104D01*
X172763915Y-127861342D01*
X172716296Y-127908961D01*
X172621058Y-127956580D01*
X172335343Y-127956580D01*
X172240105Y-127908961D01*
X172192486Y-127861342D01*
X173287724Y-127956580D02*
X173478201Y-127956580D01*
X173573439Y-127908961D01*
X173621058Y-127861342D01*
X173716296Y-127718485D01*
X173763915Y-127528009D01*
X173763915Y-127147057D01*
X173716296Y-127051819D01*
X173668677Y-127004200D01*
X173573439Y-126956580D01*
X173382962Y-126956580D01*
X173287724Y-127004200D01*
X173240105Y-127051819D01*
X173192486Y-127147057D01*
X173192486Y-127385152D01*
X173240105Y-127480390D01*
X173287724Y-127528009D01*
X173382962Y-127575628D01*
X173573439Y-127575628D01*
X173668677Y-127528009D01*
X173716296Y-127480390D01*
X173763915Y-127385152D01*
X174716296Y-127956580D02*
X174144867Y-127956580D01*
X174430581Y-127956580D02*
X174430581Y-126956580D01*
X174335343Y-127099438D01*
X174240105Y-127194676D01*
X174144867Y-127242295D01*
X175573439Y-127289914D02*
X175573439Y-127956580D01*
X175335343Y-126908961D02*
X175097248Y-127623247D01*
X175716296Y-127623247D01*
%TO.C,JUMPER*%
X158885238Y-96607380D02*
X158885238Y-97321666D01*
X158837619Y-97464523D01*
X158742380Y-97559761D01*
X158599523Y-97607380D01*
X158504285Y-97607380D01*
X159361428Y-96607380D02*
X159361428Y-97416904D01*
X159409047Y-97512142D01*
X159456666Y-97559761D01*
X159551904Y-97607380D01*
X159742380Y-97607380D01*
X159837619Y-97559761D01*
X159885238Y-97512142D01*
X159932857Y-97416904D01*
X159932857Y-96607380D01*
X160409047Y-97607380D02*
X160409047Y-96607380D01*
X160742380Y-97321666D01*
X161075714Y-96607380D01*
X161075714Y-97607380D01*
X161551904Y-97607380D02*
X161551904Y-96607380D01*
X161932857Y-96607380D01*
X162028095Y-96655000D01*
X162075714Y-96702619D01*
X162123333Y-96797857D01*
X162123333Y-96940714D01*
X162075714Y-97035952D01*
X162028095Y-97083571D01*
X161932857Y-97131190D01*
X161551904Y-97131190D01*
X162551904Y-97083571D02*
X162885238Y-97083571D01*
X163028095Y-97607380D02*
X162551904Y-97607380D01*
X162551904Y-96607380D01*
X163028095Y-96607380D01*
X164028095Y-97607380D02*
X163694761Y-97131190D01*
X163456666Y-97607380D02*
X163456666Y-96607380D01*
X163837619Y-96607380D01*
X163932857Y-96655000D01*
X163980476Y-96702619D01*
X164028095Y-96797857D01*
X164028095Y-96940714D01*
X163980476Y-97035952D01*
X163932857Y-97083571D01*
X163837619Y-97131190D01*
X163456666Y-97131190D01*
%TO.C,R1*%
X161720233Y-130449580D02*
X161386900Y-129973390D01*
X161148804Y-130449580D02*
X161148804Y-129449580D01*
X161529757Y-129449580D01*
X161624995Y-129497200D01*
X161672614Y-129544819D01*
X161720233Y-129640057D01*
X161720233Y-129782914D01*
X161672614Y-129878152D01*
X161624995Y-129925771D01*
X161529757Y-129973390D01*
X161148804Y-129973390D01*
X162672614Y-130449580D02*
X162101185Y-130449580D01*
X162386900Y-130449580D02*
X162386900Y-129449580D01*
X162291661Y-129592438D01*
X162196423Y-129687676D01*
X162101185Y-129735295D01*
X160691628Y-127382614D02*
X160691628Y-128049280D01*
X160453533Y-127001661D02*
X160215438Y-127715947D01*
X160834485Y-127715947D01*
X161215438Y-127954042D02*
X161263057Y-128001661D01*
X161215438Y-128049280D01*
X161167819Y-128001661D01*
X161215438Y-127954042D01*
X161215438Y-128049280D01*
X161596390Y-127049280D02*
X162263057Y-127049280D01*
X161834485Y-128049280D01*
X162644009Y-128049280D02*
X162644009Y-127049280D01*
X162739247Y-127668328D02*
X163024961Y-128049280D01*
X163024961Y-127382614D02*
X162644009Y-127763566D01*
%TO.C,R2*%
X161640780Y-111469466D02*
X161164590Y-111802800D01*
X161640780Y-112040895D02*
X160640780Y-112040895D01*
X160640780Y-111659942D01*
X160688400Y-111564704D01*
X160736019Y-111517085D01*
X160831257Y-111469466D01*
X160974114Y-111469466D01*
X161069352Y-111517085D01*
X161116971Y-111564704D01*
X161164590Y-111659942D01*
X161164590Y-112040895D01*
X160736019Y-111088514D02*
X160688400Y-111040895D01*
X160640780Y-110945657D01*
X160640780Y-110707561D01*
X160688400Y-110612323D01*
X160736019Y-110564704D01*
X160831257Y-110517085D01*
X160926495Y-110517085D01*
X161069352Y-110564704D01*
X161640780Y-111136133D01*
X161640780Y-110517085D01*
X164002980Y-111999638D02*
X164002980Y-112571066D01*
X164002980Y-112285352D02*
X163002980Y-112285352D01*
X163145838Y-112380590D01*
X163241076Y-112475828D01*
X163288695Y-112571066D01*
X163431552Y-111428209D02*
X163383933Y-111523447D01*
X163336314Y-111571066D01*
X163241076Y-111618685D01*
X163193457Y-111618685D01*
X163098219Y-111571066D01*
X163050600Y-111523447D01*
X163002980Y-111428209D01*
X163002980Y-111237733D01*
X163050600Y-111142495D01*
X163098219Y-111094876D01*
X163193457Y-111047257D01*
X163241076Y-111047257D01*
X163336314Y-111094876D01*
X163383933Y-111142495D01*
X163431552Y-111237733D01*
X163431552Y-111428209D01*
X163479171Y-111523447D01*
X163526790Y-111571066D01*
X163622028Y-111618685D01*
X163812504Y-111618685D01*
X163907742Y-111571066D01*
X163955361Y-111523447D01*
X164002980Y-111428209D01*
X164002980Y-111237733D01*
X163955361Y-111142495D01*
X163907742Y-111094876D01*
X163812504Y-111047257D01*
X163622028Y-111047257D01*
X163526790Y-111094876D01*
X163479171Y-111142495D01*
X163431552Y-111237733D01*
X164002980Y-110618685D02*
X163002980Y-110618685D01*
X163622028Y-110523447D02*
X164002980Y-110237733D01*
X163336314Y-110237733D02*
X163717266Y-110618685D01*
%TO.C,R3*%
X156408380Y-111545666D02*
X155932190Y-111879000D01*
X156408380Y-112117095D02*
X155408380Y-112117095D01*
X155408380Y-111736142D01*
X155456000Y-111640904D01*
X155503619Y-111593285D01*
X155598857Y-111545666D01*
X155741714Y-111545666D01*
X155836952Y-111593285D01*
X155884571Y-111640904D01*
X155932190Y-111736142D01*
X155932190Y-112117095D01*
X155408380Y-111212333D02*
X155408380Y-110593285D01*
X155789333Y-110926619D01*
X155789333Y-110783761D01*
X155836952Y-110688523D01*
X155884571Y-110640904D01*
X155979809Y-110593285D01*
X156217904Y-110593285D01*
X156313142Y-110640904D01*
X156360761Y-110688523D01*
X156408380Y-110783761D01*
X156408380Y-111069476D01*
X156360761Y-111164714D01*
X156313142Y-111212333D01*
X157719780Y-111945657D02*
X157719780Y-112421847D01*
X158195971Y-112469466D01*
X158148352Y-112421847D01*
X158100733Y-112326609D01*
X158100733Y-112088514D01*
X158148352Y-111993276D01*
X158195971Y-111945657D01*
X158291209Y-111898038D01*
X158529304Y-111898038D01*
X158624542Y-111945657D01*
X158672161Y-111993276D01*
X158719780Y-112088514D01*
X158719780Y-112326609D01*
X158672161Y-112421847D01*
X158624542Y-112469466D01*
X157719780Y-111040895D02*
X157719780Y-111231371D01*
X157767400Y-111326609D01*
X157815019Y-111374228D01*
X157957876Y-111469466D01*
X158148352Y-111517085D01*
X158529304Y-111517085D01*
X158624542Y-111469466D01*
X158672161Y-111421847D01*
X158719780Y-111326609D01*
X158719780Y-111136133D01*
X158672161Y-111040895D01*
X158624542Y-110993276D01*
X158529304Y-110945657D01*
X158291209Y-110945657D01*
X158195971Y-110993276D01*
X158148352Y-111040895D01*
X158100733Y-111136133D01*
X158100733Y-111326609D01*
X158148352Y-111421847D01*
X158195971Y-111469466D01*
X158291209Y-111517085D01*
X158719780Y-110517085D02*
X157719780Y-110517085D01*
X158338828Y-110421847D02*
X158719780Y-110136133D01*
X158053114Y-110136133D02*
X158434066Y-110517085D01*
%TD*%
M02*
