M48
; DRILL file {KiCad (5.1.6)-1} date 09/07/20 11:58:58
; FORMAT={-:-/ absolute / inch / decimal}
; #@! TF.CreationDate,2020-09-07T11:58:58+05:30
; #@! TF.GenerationSoftware,Kicad,Pcbnew,(5.1.6)-1
; #@! TF.FileFunction,Plated,1,2,PTH
FMAT,2
INCH
T1C0.0315
T2C0.0354
T3C0.0394
T4C0.0394
T5C0.0600
%
G90
G05
T1
X7.175Y-4.975
X7.2734Y-4.975
X7.1766Y-4.85
X7.275Y-4.85
X6.3949Y-3.9801
X6.3949Y-4.0801
X6.3949Y-4.1801
X6.3949Y-4.2801
X6.6949Y-3.9801
X6.6949Y-4.0801
X6.6949Y-4.1801
X6.6949Y-4.2801
X7.1766Y-4.675
X7.275Y-4.675
T2
X7.375Y-4.4
X7.475Y-4.4
T3
X6.45Y-4.6
X6.55Y-4.6
X6.65Y-4.6
X7.475Y-4.05
X7.475Y-4.15
X6.05Y-4.075
T4
X5.9Y-4.275
X6.2Y-4.275
X6.875Y-4.275
X7.175Y-4.275
X6.875Y-4.1
X7.175Y-4.1
X5.9Y-4.5
X6.2Y-4.5
T5
X6.45Y-3.675
X6.65Y-3.675
T0
M30
