%TF.GenerationSoftware,KiCad,Pcbnew,(5.1.6)-1*%
%TF.CreationDate,2020-09-07T12:05:41+05:30*%
%TF.ProjectId,door,646f6f72-2e6b-4696-9361-645f70636258,rev?*%
%TF.SameCoordinates,Original*%
%TF.FileFunction,Copper,L2,Bot*%
%TF.FilePolarity,Positive*%
%FSLAX46Y46*%
G04 Gerber Fmt 4.6, Leading zero omitted, Abs format (unit mm)*
G04 Created by KiCad (PCBNEW (5.1.6)-1) date 2020-09-07 12:05:41*
%MOMM*%
%LPD*%
G01*
G04 APERTURE LIST*
%TA.AperFunction,NonConductor*%
%ADD10C,0.125000*%
%TD*%
%TA.AperFunction,ComponentPad*%
%ADD11R,2.000000X2.000000*%
%TD*%
%TA.AperFunction,ComponentPad*%
%ADD12C,2.000000*%
%TD*%
%TA.AperFunction,ComponentPad*%
%ADD13C,1.520000*%
%TD*%
%TA.AperFunction,ComponentPad*%
%ADD14R,1.520000X1.520000*%
%TD*%
%TA.AperFunction,ComponentPad*%
%ADD15C,1.400000*%
%TD*%
%TA.AperFunction,ComponentPad*%
%ADD16O,1.400000X1.400000*%
%TD*%
%TA.AperFunction,Conductor*%
%ADD17C,0.600000*%
%TD*%
%TA.AperFunction,NonConductor*%
%ADD18C,0.254000*%
%TD*%
G04 APERTURE END LIST*
D10*
X160408571Y-108402380D02*
X160408571Y-107402380D01*
X160218095Y-107402380D01*
X160170476Y-107450000D01*
X160146666Y-107497619D01*
X160122857Y-107592857D01*
X160122857Y-107735714D01*
X160146666Y-107830952D01*
X160170476Y-107878571D01*
X160218095Y-107926190D01*
X160408571Y-107926190D01*
X159813333Y-107402380D02*
X159718095Y-107402380D01*
X159670476Y-107450000D01*
X159622857Y-107545238D01*
X159599047Y-107735714D01*
X159599047Y-108069047D01*
X159622857Y-108259523D01*
X159670476Y-108354761D01*
X159718095Y-108402380D01*
X159813333Y-108402380D01*
X159860952Y-108354761D01*
X159908571Y-108259523D01*
X159932380Y-108069047D01*
X159932380Y-107735714D01*
X159908571Y-107545238D01*
X159860952Y-107450000D01*
X159813333Y-107402380D01*
X159432380Y-107402380D02*
X159313333Y-108402380D01*
X159218095Y-107688095D01*
X159122857Y-108402380D01*
X159003809Y-107402380D01*
X158813333Y-107878571D02*
X158646666Y-107878571D01*
X158575238Y-108402380D02*
X158813333Y-108402380D01*
X158813333Y-107402380D01*
X158575238Y-107402380D01*
X158075238Y-108402380D02*
X158241904Y-107926190D01*
X158360952Y-108402380D02*
X158360952Y-107402380D01*
X158170476Y-107402380D01*
X158122857Y-107450000D01*
X158099047Y-107497619D01*
X158075238Y-107592857D01*
X158075238Y-107735714D01*
X158099047Y-107830952D01*
X158122857Y-107878571D01*
X158170476Y-107926190D01*
X158360952Y-107926190D01*
X157932380Y-107735714D02*
X157741904Y-107735714D01*
X157860952Y-107402380D02*
X157860952Y-108259523D01*
X157837142Y-108354761D01*
X157789523Y-108402380D01*
X157741904Y-108402380D01*
X157575238Y-108402380D02*
X157575238Y-107735714D01*
X157575238Y-107926190D02*
X157551428Y-107830952D01*
X157527619Y-107783333D01*
X157480000Y-107735714D01*
X157432380Y-107735714D01*
X157194285Y-108402380D02*
X157241904Y-108354761D01*
X157265714Y-108307142D01*
X157289523Y-108211904D01*
X157289523Y-107926190D01*
X157265714Y-107830952D01*
X157241904Y-107783333D01*
X157194285Y-107735714D01*
X157122857Y-107735714D01*
X157075238Y-107783333D01*
X157051428Y-107830952D01*
X157027619Y-107926190D01*
X157027619Y-108211904D01*
X157051428Y-108307142D01*
X157075238Y-108354761D01*
X157122857Y-108402380D01*
X157194285Y-108402380D01*
X156813333Y-107735714D02*
X156813333Y-108402380D01*
X156813333Y-107830952D02*
X156789523Y-107783333D01*
X156741904Y-107735714D01*
X156670476Y-107735714D01*
X156622857Y-107783333D01*
X156599047Y-107878571D01*
X156599047Y-108402380D01*
X156360952Y-108402380D02*
X156360952Y-107735714D01*
X156360952Y-107402380D02*
X156384761Y-107450000D01*
X156360952Y-107497619D01*
X156337142Y-107450000D01*
X156360952Y-107402380D01*
X156360952Y-107497619D01*
X155908571Y-108354761D02*
X155956190Y-108402380D01*
X156051428Y-108402380D01*
X156099047Y-108354761D01*
X156122857Y-108307142D01*
X156146666Y-108211904D01*
X156146666Y-107926190D01*
X156122857Y-107830952D01*
X156099047Y-107783333D01*
X156051428Y-107735714D01*
X155956190Y-107735714D01*
X155908571Y-107783333D01*
X155718095Y-108354761D02*
X155670476Y-108402380D01*
X155575238Y-108402380D01*
X155527619Y-108354761D01*
X155503809Y-108259523D01*
X155503809Y-108211904D01*
X155527619Y-108116666D01*
X155575238Y-108069047D01*
X155646666Y-108069047D01*
X155694285Y-108021428D01*
X155718095Y-107926190D01*
X155718095Y-107878571D01*
X155694285Y-107783333D01*
X155646666Y-107735714D01*
X155575238Y-107735714D01*
X155527619Y-107783333D01*
X154980000Y-107926190D02*
X155003809Y-107878571D01*
X155051428Y-107830952D01*
X155099047Y-107830952D01*
X155146666Y-107878571D01*
X155170476Y-107926190D01*
X155194285Y-108021428D01*
X155194285Y-108116666D01*
X155170476Y-108211904D01*
X155146666Y-108259523D01*
X155099047Y-108307142D01*
X155051428Y-108307142D01*
X155003809Y-108259523D01*
X154980000Y-108211904D01*
X154980000Y-107830952D02*
X154980000Y-108211904D01*
X154956190Y-108259523D01*
X154932380Y-108259523D01*
X154884761Y-108211904D01*
X154860952Y-108116666D01*
X154860952Y-107878571D01*
X154908571Y-107735714D01*
X154980000Y-107640476D01*
X155075238Y-107592857D01*
X155170476Y-107640476D01*
X155241904Y-107735714D01*
X155289523Y-107878571D01*
X155313333Y-108069047D01*
X155289523Y-108259523D01*
X155241904Y-108402380D01*
X155170476Y-108497619D01*
X155075238Y-108545238D01*
X154980000Y-108497619D01*
X154908571Y-108402380D01*
X154694285Y-108783333D02*
X154670476Y-108735714D01*
X154622857Y-108592857D01*
X154599047Y-108497619D01*
X154575238Y-108354761D01*
X154551428Y-108116666D01*
X154551428Y-107926190D01*
X154575238Y-107688095D01*
X154599047Y-107545238D01*
X154622857Y-107450000D01*
X154670476Y-107307142D01*
X154694285Y-107259523D01*
D11*
%TO.P,P1,1*%
%TO.N,Net-(P1-Pad1)*%
X152400000Y-93980000D03*
D12*
%TO.P,P1,2*%
%TO.N,Net-(P1-Pad2)*%
X154940000Y-93980000D03*
%TD*%
D11*
%TO.P,P2,1*%
%TO.N,Net-(P1-Pad1)*%
X159000000Y-101460000D03*
D12*
%TO.P,P2,2*%
%TO.N,Net-(P2-Pad2)*%
X159000000Y-104000000D03*
%TD*%
D13*
%TO.P,Q1,2*%
%TO.N,Net-(P1-Pad1)*%
X152400000Y-99060000D03*
%TO.P,Q1,3*%
%TO.N,Net-(P1-Pad2)*%
X154940000Y-99060000D03*
D14*
%TO.P,Q1,1*%
%TO.N,Net-(Q1-Pad1)*%
X149860000Y-99060000D03*
%TD*%
D13*
%TO.P,Q2,2*%
%TO.N,Net-(Q2-Pad2)*%
X152400000Y-104140000D03*
%TO.P,Q2,3*%
%TO.N,Net-(P1-Pad2)*%
X149860000Y-104140000D03*
D14*
%TO.P,Q2,1*%
%TO.N,Net-(P2-Pad2)*%
X154940000Y-104140000D03*
%TD*%
D15*
%TO.P,R1,1*%
%TO.N,Net-(Q2-Pad2)*%
X146250000Y-105250000D03*
D16*
%TO.P,R1,2*%
%TO.N,Net-(Q1-Pad1)*%
X146250000Y-100170000D03*
%TD*%
D17*
%TO.N,Net-(P1-Pad1)*%
X152400000Y-99060000D02*
X152400000Y-93980000D01*
%TO.N,Net-(P1-Pad2)*%
X154940000Y-93980000D02*
X154940000Y-99060000D01*
X149860000Y-104140000D02*
X149860000Y-102870000D01*
X149860000Y-102870000D02*
X152400000Y-100330000D01*
X152400000Y-100330000D02*
X153670000Y-100330000D01*
X153670000Y-100330000D02*
X154940000Y-99060000D01*
%TO.N,Net-(P1-Pad1)*%
X159000000Y-101460000D02*
X159000000Y-92750000D01*
X159000000Y-92750000D02*
X157750000Y-91500000D01*
X157750000Y-91500000D02*
X151000000Y-91500000D01*
X151000000Y-91500000D02*
X150250000Y-92250000D01*
X150250000Y-96910000D02*
X152400000Y-99060000D01*
X150250000Y-92250000D02*
X150250000Y-96910000D01*
%TO.N,Net-(P2-Pad2)*%
X158860000Y-104140000D02*
X159000000Y-104000000D01*
X154940000Y-104140000D02*
X158860000Y-104140000D01*
%TO.N,Net-(Q1-Pad1)*%
X149860000Y-99060000D02*
X149860000Y-98860000D01*
X149860000Y-98860000D02*
X149720000Y-99000000D01*
X149720000Y-99000000D02*
X146500000Y-99000000D01*
X146250000Y-99250000D02*
X146250000Y-100170000D01*
X146500000Y-99000000D02*
X146250000Y-99250000D01*
%TO.N,Net-(Q2-Pad2)*%
X146250000Y-105250000D02*
X147250000Y-106250000D01*
X152400000Y-105350000D02*
X151500000Y-106250000D01*
X152400000Y-104140000D02*
X152400000Y-105350000D01*
X147250000Y-106250000D02*
X151500000Y-106250000D01*
%TD*%
D18*
G36*
X149621341Y-91556370D02*
G01*
X149585656Y-91585656D01*
X149468814Y-91728029D01*
X149381993Y-91890461D01*
X149358225Y-91968814D01*
X149328529Y-92066709D01*
X149310476Y-92250000D01*
X149315000Y-92295932D01*
X149315001Y-96864058D01*
X149310476Y-96910000D01*
X149328529Y-97093291D01*
X149381994Y-97269540D01*
X149468815Y-97431972D01*
X149585657Y-97574344D01*
X149621336Y-97603625D01*
X149679639Y-97661928D01*
X149100000Y-97661928D01*
X148975518Y-97674188D01*
X148855820Y-97710498D01*
X148745506Y-97769463D01*
X148648815Y-97848815D01*
X148569463Y-97945506D01*
X148510498Y-98055820D01*
X148507713Y-98065000D01*
X146545931Y-98065000D01*
X146499999Y-98060476D01*
X146316707Y-98078529D01*
X146275687Y-98090973D01*
X146140460Y-98131993D01*
X145978028Y-98218814D01*
X145835656Y-98335656D01*
X145806370Y-98371341D01*
X145621341Y-98556370D01*
X145585656Y-98585656D01*
X145468814Y-98728029D01*
X145381993Y-98890461D01*
X145372243Y-98922604D01*
X145328529Y-99066709D01*
X145313584Y-99218441D01*
X145213038Y-99318987D01*
X145066939Y-99537641D01*
X144966304Y-99780595D01*
X144915000Y-100038514D01*
X144915000Y-100301486D01*
X144966304Y-100559405D01*
X145066939Y-100802359D01*
X145213038Y-101021013D01*
X145398987Y-101206962D01*
X145617641Y-101353061D01*
X145860595Y-101453696D01*
X146118514Y-101505000D01*
X146381486Y-101505000D01*
X146639405Y-101453696D01*
X146882359Y-101353061D01*
X147101013Y-101206962D01*
X147286962Y-101021013D01*
X147433061Y-100802359D01*
X147533696Y-100559405D01*
X147585000Y-100301486D01*
X147585000Y-100038514D01*
X147564409Y-99935000D01*
X148473254Y-99935000D01*
X148474188Y-99944482D01*
X148510498Y-100064180D01*
X148569463Y-100174494D01*
X148648815Y-100271185D01*
X148745506Y-100350537D01*
X148855820Y-100409502D01*
X148975518Y-100445812D01*
X149100000Y-100458072D01*
X150620000Y-100458072D01*
X150744482Y-100445812D01*
X150864180Y-100409502D01*
X150974494Y-100350537D01*
X151071185Y-100271185D01*
X151150537Y-100174494D01*
X151209502Y-100064180D01*
X151245812Y-99944482D01*
X151254474Y-99856533D01*
X151316433Y-99949261D01*
X151387441Y-100020269D01*
X149231336Y-102176375D01*
X149195657Y-102205656D01*
X149078815Y-102348028D01*
X149051290Y-102399524D01*
X148991994Y-102510460D01*
X148938529Y-102686709D01*
X148920476Y-102870000D01*
X148925001Y-102915941D01*
X148925001Y-103102171D01*
X148776433Y-103250739D01*
X148623767Y-103479220D01*
X148518609Y-103733093D01*
X148465000Y-104002604D01*
X148465000Y-104277396D01*
X148518609Y-104546907D01*
X148623767Y-104800780D01*
X148776433Y-105029261D01*
X148970739Y-105223567D01*
X149107578Y-105315000D01*
X147637289Y-105315000D01*
X147585000Y-105262711D01*
X147585000Y-105118514D01*
X147533696Y-104860595D01*
X147433061Y-104617641D01*
X147286962Y-104398987D01*
X147101013Y-104213038D01*
X146882359Y-104066939D01*
X146639405Y-103966304D01*
X146381486Y-103915000D01*
X146118514Y-103915000D01*
X145860595Y-103966304D01*
X145617641Y-104066939D01*
X145398987Y-104213038D01*
X145213038Y-104398987D01*
X145066939Y-104617641D01*
X144966304Y-104860595D01*
X144915000Y-105118514D01*
X144915000Y-105381486D01*
X144966304Y-105639405D01*
X145066939Y-105882359D01*
X145213038Y-106101013D01*
X145398987Y-106286962D01*
X145617641Y-106433061D01*
X145860595Y-106533696D01*
X146118514Y-106585000D01*
X146262711Y-106585000D01*
X146556370Y-106878659D01*
X146585656Y-106914344D01*
X146728028Y-107031186D01*
X146833880Y-107087765D01*
X146890459Y-107118007D01*
X147066708Y-107171472D01*
X147250000Y-107189524D01*
X147295935Y-107185000D01*
X151454068Y-107185000D01*
X151500000Y-107189524D01*
X151545932Y-107185000D01*
X151683292Y-107171471D01*
X151859540Y-107118007D01*
X152021972Y-107031186D01*
X152164344Y-106914344D01*
X152193630Y-106878659D01*
X153028664Y-106043626D01*
X153064344Y-106014344D01*
X153181186Y-105871972D01*
X153268007Y-105709540D01*
X153321471Y-105533292D01*
X153329781Y-105448918D01*
X153339524Y-105350001D01*
X153335000Y-105304069D01*
X153335000Y-105177828D01*
X153483567Y-105029261D01*
X153545526Y-104936533D01*
X153554188Y-105024482D01*
X153590498Y-105144180D01*
X153649463Y-105254494D01*
X153728815Y-105351185D01*
X153825506Y-105430537D01*
X153935820Y-105489502D01*
X154055518Y-105525812D01*
X154180000Y-105538072D01*
X155700000Y-105538072D01*
X155824482Y-105525812D01*
X155944180Y-105489502D01*
X156054494Y-105430537D01*
X156151185Y-105351185D01*
X156230537Y-105254494D01*
X156289502Y-105144180D01*
X156310488Y-105075000D01*
X157762761Y-105075000D01*
X157957748Y-105269987D01*
X158225537Y-105448918D01*
X158523088Y-105572168D01*
X158838967Y-105635000D01*
X159161033Y-105635000D01*
X159476912Y-105572168D01*
X159774463Y-105448918D01*
X160042252Y-105269987D01*
X160269987Y-105042252D01*
X160448918Y-104774463D01*
X160572168Y-104476912D01*
X160580001Y-104437534D01*
X160580001Y-106563750D01*
X153734881Y-106563750D01*
X153734881Y-108510000D01*
X144220000Y-108510000D01*
X144220000Y-90880000D01*
X150297710Y-90880000D01*
X149621341Y-91556370D01*
G37*
X149621341Y-91556370D02*
X149585656Y-91585656D01*
X149468814Y-91728029D01*
X149381993Y-91890461D01*
X149358225Y-91968814D01*
X149328529Y-92066709D01*
X149310476Y-92250000D01*
X149315000Y-92295932D01*
X149315001Y-96864058D01*
X149310476Y-96910000D01*
X149328529Y-97093291D01*
X149381994Y-97269540D01*
X149468815Y-97431972D01*
X149585657Y-97574344D01*
X149621336Y-97603625D01*
X149679639Y-97661928D01*
X149100000Y-97661928D01*
X148975518Y-97674188D01*
X148855820Y-97710498D01*
X148745506Y-97769463D01*
X148648815Y-97848815D01*
X148569463Y-97945506D01*
X148510498Y-98055820D01*
X148507713Y-98065000D01*
X146545931Y-98065000D01*
X146499999Y-98060476D01*
X146316707Y-98078529D01*
X146275687Y-98090973D01*
X146140460Y-98131993D01*
X145978028Y-98218814D01*
X145835656Y-98335656D01*
X145806370Y-98371341D01*
X145621341Y-98556370D01*
X145585656Y-98585656D01*
X145468814Y-98728029D01*
X145381993Y-98890461D01*
X145372243Y-98922604D01*
X145328529Y-99066709D01*
X145313584Y-99218441D01*
X145213038Y-99318987D01*
X145066939Y-99537641D01*
X144966304Y-99780595D01*
X144915000Y-100038514D01*
X144915000Y-100301486D01*
X144966304Y-100559405D01*
X145066939Y-100802359D01*
X145213038Y-101021013D01*
X145398987Y-101206962D01*
X145617641Y-101353061D01*
X145860595Y-101453696D01*
X146118514Y-101505000D01*
X146381486Y-101505000D01*
X146639405Y-101453696D01*
X146882359Y-101353061D01*
X147101013Y-101206962D01*
X147286962Y-101021013D01*
X147433061Y-100802359D01*
X147533696Y-100559405D01*
X147585000Y-100301486D01*
X147585000Y-100038514D01*
X147564409Y-99935000D01*
X148473254Y-99935000D01*
X148474188Y-99944482D01*
X148510498Y-100064180D01*
X148569463Y-100174494D01*
X148648815Y-100271185D01*
X148745506Y-100350537D01*
X148855820Y-100409502D01*
X148975518Y-100445812D01*
X149100000Y-100458072D01*
X150620000Y-100458072D01*
X150744482Y-100445812D01*
X150864180Y-100409502D01*
X150974494Y-100350537D01*
X151071185Y-100271185D01*
X151150537Y-100174494D01*
X151209502Y-100064180D01*
X151245812Y-99944482D01*
X151254474Y-99856533D01*
X151316433Y-99949261D01*
X151387441Y-100020269D01*
X149231336Y-102176375D01*
X149195657Y-102205656D01*
X149078815Y-102348028D01*
X149051290Y-102399524D01*
X148991994Y-102510460D01*
X148938529Y-102686709D01*
X148920476Y-102870000D01*
X148925001Y-102915941D01*
X148925001Y-103102171D01*
X148776433Y-103250739D01*
X148623767Y-103479220D01*
X148518609Y-103733093D01*
X148465000Y-104002604D01*
X148465000Y-104277396D01*
X148518609Y-104546907D01*
X148623767Y-104800780D01*
X148776433Y-105029261D01*
X148970739Y-105223567D01*
X149107578Y-105315000D01*
X147637289Y-105315000D01*
X147585000Y-105262711D01*
X147585000Y-105118514D01*
X147533696Y-104860595D01*
X147433061Y-104617641D01*
X147286962Y-104398987D01*
X147101013Y-104213038D01*
X146882359Y-104066939D01*
X146639405Y-103966304D01*
X146381486Y-103915000D01*
X146118514Y-103915000D01*
X145860595Y-103966304D01*
X145617641Y-104066939D01*
X145398987Y-104213038D01*
X145213038Y-104398987D01*
X145066939Y-104617641D01*
X144966304Y-104860595D01*
X144915000Y-105118514D01*
X144915000Y-105381486D01*
X144966304Y-105639405D01*
X145066939Y-105882359D01*
X145213038Y-106101013D01*
X145398987Y-106286962D01*
X145617641Y-106433061D01*
X145860595Y-106533696D01*
X146118514Y-106585000D01*
X146262711Y-106585000D01*
X146556370Y-106878659D01*
X146585656Y-106914344D01*
X146728028Y-107031186D01*
X146833880Y-107087765D01*
X146890459Y-107118007D01*
X147066708Y-107171472D01*
X147250000Y-107189524D01*
X147295935Y-107185000D01*
X151454068Y-107185000D01*
X151500000Y-107189524D01*
X151545932Y-107185000D01*
X151683292Y-107171471D01*
X151859540Y-107118007D01*
X152021972Y-107031186D01*
X152164344Y-106914344D01*
X152193630Y-106878659D01*
X153028664Y-106043626D01*
X153064344Y-106014344D01*
X153181186Y-105871972D01*
X153268007Y-105709540D01*
X153321471Y-105533292D01*
X153329781Y-105448918D01*
X153339524Y-105350001D01*
X153335000Y-105304069D01*
X153335000Y-105177828D01*
X153483567Y-105029261D01*
X153545526Y-104936533D01*
X153554188Y-105024482D01*
X153590498Y-105144180D01*
X153649463Y-105254494D01*
X153728815Y-105351185D01*
X153825506Y-105430537D01*
X153935820Y-105489502D01*
X154055518Y-105525812D01*
X154180000Y-105538072D01*
X155700000Y-105538072D01*
X155824482Y-105525812D01*
X155944180Y-105489502D01*
X156054494Y-105430537D01*
X156151185Y-105351185D01*
X156230537Y-105254494D01*
X156289502Y-105144180D01*
X156310488Y-105075000D01*
X157762761Y-105075000D01*
X157957748Y-105269987D01*
X158225537Y-105448918D01*
X158523088Y-105572168D01*
X158838967Y-105635000D01*
X159161033Y-105635000D01*
X159476912Y-105572168D01*
X159774463Y-105448918D01*
X160042252Y-105269987D01*
X160269987Y-105042252D01*
X160448918Y-104774463D01*
X160572168Y-104476912D01*
X160580001Y-104437534D01*
X160580001Y-106563750D01*
X153734881Y-106563750D01*
X153734881Y-108510000D01*
X144220000Y-108510000D01*
X144220000Y-90880000D01*
X150297710Y-90880000D01*
X149621341Y-91556370D01*
G36*
X151163767Y-104800780D02*
G01*
X151316433Y-105029261D01*
X151357441Y-105070269D01*
X151112711Y-105315000D01*
X150612422Y-105315000D01*
X150749261Y-105223567D01*
X150943567Y-105029261D01*
X151096233Y-104800780D01*
X151130000Y-104719260D01*
X151163767Y-104800780D01*
G37*
X151163767Y-104800780D02*
X151316433Y-105029261D01*
X151357441Y-105070269D01*
X151112711Y-105315000D01*
X150612422Y-105315000D01*
X150749261Y-105223567D01*
X150943567Y-105029261D01*
X151096233Y-104800780D01*
X151130000Y-104719260D01*
X151163767Y-104800780D01*
G36*
X160580001Y-103562466D02*
G01*
X160572168Y-103523088D01*
X160448918Y-103225537D01*
X160308370Y-103015191D01*
X160354494Y-102990537D01*
X160451185Y-102911185D01*
X160530537Y-102814494D01*
X160580001Y-102721955D01*
X160580001Y-103562466D01*
G37*
X160580001Y-103562466D02*
X160572168Y-103523088D01*
X160448918Y-103225537D01*
X160308370Y-103015191D01*
X160354494Y-102990537D01*
X160451185Y-102911185D01*
X160530537Y-102814494D01*
X160580001Y-102721955D01*
X160580001Y-103562466D01*
G36*
X158065001Y-93137290D02*
G01*
X158065000Y-99821928D01*
X158000000Y-99821928D01*
X157875518Y-99834188D01*
X157755820Y-99870498D01*
X157645506Y-99929463D01*
X157548815Y-100008815D01*
X157469463Y-100105506D01*
X157410498Y-100215820D01*
X157374188Y-100335518D01*
X157361928Y-100460000D01*
X157361928Y-102460000D01*
X157374188Y-102584482D01*
X157410498Y-102704180D01*
X157469463Y-102814494D01*
X157548815Y-102911185D01*
X157645506Y-102990537D01*
X157691630Y-103015191D01*
X157564804Y-103205000D01*
X156310488Y-103205000D01*
X156289502Y-103135820D01*
X156230537Y-103025506D01*
X156151185Y-102928815D01*
X156054494Y-102849463D01*
X155944180Y-102790498D01*
X155824482Y-102754188D01*
X155700000Y-102741928D01*
X154180000Y-102741928D01*
X154055518Y-102754188D01*
X153935820Y-102790498D01*
X153825506Y-102849463D01*
X153728815Y-102928815D01*
X153649463Y-103025506D01*
X153590498Y-103135820D01*
X153554188Y-103255518D01*
X153545526Y-103343467D01*
X153483567Y-103250739D01*
X153289261Y-103056433D01*
X153060780Y-102903767D01*
X152806907Y-102798609D01*
X152537396Y-102745000D01*
X152262604Y-102745000D01*
X151993093Y-102798609D01*
X151739220Y-102903767D01*
X151510739Y-103056433D01*
X151316433Y-103250739D01*
X151163767Y-103479220D01*
X151130000Y-103560740D01*
X151096233Y-103479220D01*
X150943567Y-103250739D01*
X150872559Y-103179731D01*
X152787290Y-101265000D01*
X153624068Y-101265000D01*
X153670000Y-101269524D01*
X153715932Y-101265000D01*
X153853292Y-101251471D01*
X154029540Y-101198007D01*
X154191972Y-101111186D01*
X154334344Y-100994344D01*
X154363630Y-100958659D01*
X154867289Y-100455000D01*
X155077396Y-100455000D01*
X155346907Y-100401391D01*
X155600780Y-100296233D01*
X155829261Y-100143567D01*
X156023567Y-99949261D01*
X156176233Y-99720780D01*
X156281391Y-99466907D01*
X156335000Y-99197396D01*
X156335000Y-98922604D01*
X156281391Y-98653093D01*
X156176233Y-98399220D01*
X156023567Y-98170739D01*
X155875000Y-98022172D01*
X155875000Y-95321651D01*
X155982252Y-95249987D01*
X156209987Y-95022252D01*
X156388918Y-94754463D01*
X156512168Y-94456912D01*
X156575000Y-94141033D01*
X156575000Y-93818967D01*
X156512168Y-93503088D01*
X156388918Y-93205537D01*
X156209987Y-92937748D01*
X155982252Y-92710013D01*
X155714463Y-92531082D01*
X155482501Y-92435000D01*
X157362711Y-92435000D01*
X158065001Y-93137290D01*
G37*
X158065001Y-93137290D02*
X158065000Y-99821928D01*
X158000000Y-99821928D01*
X157875518Y-99834188D01*
X157755820Y-99870498D01*
X157645506Y-99929463D01*
X157548815Y-100008815D01*
X157469463Y-100105506D01*
X157410498Y-100215820D01*
X157374188Y-100335518D01*
X157361928Y-100460000D01*
X157361928Y-102460000D01*
X157374188Y-102584482D01*
X157410498Y-102704180D01*
X157469463Y-102814494D01*
X157548815Y-102911185D01*
X157645506Y-102990537D01*
X157691630Y-103015191D01*
X157564804Y-103205000D01*
X156310488Y-103205000D01*
X156289502Y-103135820D01*
X156230537Y-103025506D01*
X156151185Y-102928815D01*
X156054494Y-102849463D01*
X155944180Y-102790498D01*
X155824482Y-102754188D01*
X155700000Y-102741928D01*
X154180000Y-102741928D01*
X154055518Y-102754188D01*
X153935820Y-102790498D01*
X153825506Y-102849463D01*
X153728815Y-102928815D01*
X153649463Y-103025506D01*
X153590498Y-103135820D01*
X153554188Y-103255518D01*
X153545526Y-103343467D01*
X153483567Y-103250739D01*
X153289261Y-103056433D01*
X153060780Y-102903767D01*
X152806907Y-102798609D01*
X152537396Y-102745000D01*
X152262604Y-102745000D01*
X151993093Y-102798609D01*
X151739220Y-102903767D01*
X151510739Y-103056433D01*
X151316433Y-103250739D01*
X151163767Y-103479220D01*
X151130000Y-103560740D01*
X151096233Y-103479220D01*
X150943567Y-103250739D01*
X150872559Y-103179731D01*
X152787290Y-101265000D01*
X153624068Y-101265000D01*
X153670000Y-101269524D01*
X153715932Y-101265000D01*
X153853292Y-101251471D01*
X154029540Y-101198007D01*
X154191972Y-101111186D01*
X154334344Y-100994344D01*
X154363630Y-100958659D01*
X154867289Y-100455000D01*
X155077396Y-100455000D01*
X155346907Y-100401391D01*
X155600780Y-100296233D01*
X155829261Y-100143567D01*
X156023567Y-99949261D01*
X156176233Y-99720780D01*
X156281391Y-99466907D01*
X156335000Y-99197396D01*
X156335000Y-98922604D01*
X156281391Y-98653093D01*
X156176233Y-98399220D01*
X156023567Y-98170739D01*
X155875000Y-98022172D01*
X155875000Y-95321651D01*
X155982252Y-95249987D01*
X156209987Y-95022252D01*
X156388918Y-94754463D01*
X156512168Y-94456912D01*
X156575000Y-94141033D01*
X156575000Y-93818967D01*
X156512168Y-93503088D01*
X156388918Y-93205537D01*
X156209987Y-92937748D01*
X155982252Y-92710013D01*
X155714463Y-92531082D01*
X155482501Y-92435000D01*
X157362711Y-92435000D01*
X158065001Y-93137290D01*
G36*
X160580001Y-100198044D02*
G01*
X160530537Y-100105506D01*
X160451185Y-100008815D01*
X160354494Y-99929463D01*
X160244180Y-99870498D01*
X160124482Y-99834188D01*
X160000000Y-99821928D01*
X159935000Y-99821928D01*
X159935000Y-92795932D01*
X159939524Y-92750000D01*
X159921471Y-92566708D01*
X159885905Y-92449463D01*
X159868007Y-92390460D01*
X159781186Y-92228028D01*
X159664344Y-92085656D01*
X159628659Y-92056370D01*
X158452289Y-90880000D01*
X160580000Y-90880000D01*
X160580001Y-100198044D01*
G37*
X160580001Y-100198044D02*
X160530537Y-100105506D01*
X160451185Y-100008815D01*
X160354494Y-99929463D01*
X160244180Y-99870498D01*
X160124482Y-99834188D01*
X160000000Y-99821928D01*
X159935000Y-99821928D01*
X159935000Y-92795932D01*
X159939524Y-92750000D01*
X159921471Y-92566708D01*
X159885905Y-92449463D01*
X159868007Y-92390460D01*
X159781186Y-92228028D01*
X159664344Y-92085656D01*
X159628659Y-92056370D01*
X158452289Y-90880000D01*
X160580000Y-90880000D01*
X160580001Y-100198044D01*
G36*
X154005000Y-95321651D02*
G01*
X154005001Y-98022171D01*
X153856433Y-98170739D01*
X153703767Y-98399220D01*
X153670000Y-98480740D01*
X153636233Y-98399220D01*
X153483567Y-98170739D01*
X153335000Y-98022172D01*
X153335000Y-95618072D01*
X153400000Y-95618072D01*
X153524482Y-95605812D01*
X153644180Y-95569502D01*
X153754494Y-95510537D01*
X153851185Y-95431185D01*
X153930537Y-95334494D01*
X153955191Y-95288370D01*
X154005000Y-95321651D01*
G37*
X154005000Y-95321651D02*
X154005001Y-98022171D01*
X153856433Y-98170739D01*
X153703767Y-98399220D01*
X153670000Y-98480740D01*
X153636233Y-98399220D01*
X153483567Y-98170739D01*
X153335000Y-98022172D01*
X153335000Y-95618072D01*
X153400000Y-95618072D01*
X153524482Y-95605812D01*
X153644180Y-95569502D01*
X153754494Y-95510537D01*
X153851185Y-95431185D01*
X153930537Y-95334494D01*
X153955191Y-95288370D01*
X154005000Y-95321651D01*
G36*
X151275518Y-95605812D02*
G01*
X151400000Y-95618072D01*
X151465001Y-95618072D01*
X151465000Y-96802711D01*
X151185000Y-96522711D01*
X151185000Y-95578354D01*
X151275518Y-95605812D01*
G37*
X151275518Y-95605812D02*
X151400000Y-95618072D01*
X151465001Y-95618072D01*
X151465000Y-96802711D01*
X151185000Y-96522711D01*
X151185000Y-95578354D01*
X151275518Y-95605812D01*
G36*
X154165537Y-92531082D02*
G01*
X153955191Y-92671630D01*
X153930537Y-92625506D01*
X153851185Y-92528815D01*
X153754494Y-92449463D01*
X153727436Y-92435000D01*
X154397499Y-92435000D01*
X154165537Y-92531082D01*
G37*
X154165537Y-92531082D02*
X153955191Y-92671630D01*
X153930537Y-92625506D01*
X153851185Y-92528815D01*
X153754494Y-92449463D01*
X153727436Y-92435000D01*
X154397499Y-92435000D01*
X154165537Y-92531082D01*
M02*
