M48
;DRILL file {KiCad 4.0.5} date 11/10/19 13:47:52
;FORMAT={-:-/ absolute / inch / decimal}
FMAT,2
INCH,TZ
T1C0.028
T2C0.031
T3C0.039
%
G90
G05
M72
T1
X5.6Y-4.155
X5.6Y-4.355
X5.73Y-4.145
X5.73Y-4.345
X5.96Y-4.015
X6.16Y-4.015
X6.385Y-4.195
X6.385Y-4.395
T2
X5.865Y-4.15
X5.865Y-4.25
X5.865Y-4.35
X5.865Y-4.45
X5.9916Y-4.6
X6.09Y-4.6
X6.265Y-4.15
X6.265Y-4.25
X6.265Y-4.35
X6.265Y-4.45
T3
X5.465Y-4.22
X5.465Y-4.32
X5.58Y-4.495
X5.795Y-3.875
X5.805Y-4.015
X5.96Y-3.875
T0
M30
