M48
; DRILL file {KiCad (5.1.10)-1} date 12/05/21 10:22:02
; FORMAT={-:-/ absolute / inch / decimal}
; #@! TF.CreationDate,2021-12-05T10:22:02+05:30
; #@! TF.GenerationSoftware,Kicad,Pcbnew,(5.1.10)-1
; #@! TF.FileFunction,Plated,1,2,PTH
FMAT,2
INCH
T1C0.0020
T2C0.0039
T3C0.0079
T4C0.0157
T5C0.0315
T6C0.0394
%
G90
G05
T1
X4.6583Y-2.7957
X4.6866Y-2.9692
X4.7382Y-2.939
X4.7484Y-2.7921
X4.7846Y-2.7961
X4.7878Y-2.5591
X4.7976Y-2.7646
X4.8091Y-2.9004
X4.8173Y-2.4693
X4.8256Y-2.7606
X4.8358Y-2.5744
X4.8394Y-2.4984
X4.8606Y-2.7354
X4.8815Y-2.7268
X4.9079Y-2.95
X4.9299Y-2.9693
X4.9421Y-2.935
X4.9457Y-2.8665
X4.948Y-2.846
X4.9602Y-2.8807
X4.9642Y-2.9402
X4.9681Y-2.8535
X4.985Y-2.8323
X5.0307Y-2.9035
X5.0335Y-2.8756
X5.0343Y-2.8665
X5.0854Y-2.8307
X5.1232Y-2.1772
X5.1535Y-2.913
X5.1905Y-2.9283
X5.2268Y-2.2764
X5.2441Y-2.2555
X5.2725Y-2.9685
X5.325Y-2.9845
X5.3417Y-2.8953
X5.4181Y-2.8787
X5.4866Y-2.3535
X5.4953Y-2.4425
T2
X4.7245Y-2.552
X4.8719Y-2.7724
X4.9961Y-2.5894
X5.02Y-2.558
X5.0276Y-2.5891
X5.0525Y-2.832
X5.054Y-2.546
X5.0615Y-2.835
X5.0735Y-2.811
X5.086Y-2.55
X5.088Y-2.811
X5.0981Y-2.5799
X5.1266Y-2.8648
X5.1497Y-2.5761
X5.1515Y-2.808
X5.167Y-2.855
X5.1726Y-2.783
X5.1813Y-2.7472
X5.1831Y-2.7173
X5.1832Y-2.6566
X5.184Y-2.6875
X5.2007Y-2.4617
X5.204Y-2.4988
T3
X4.794Y-2.722
X4.9Y-2.72
X4.9Y-2.75
X4.9Y-2.78
X4.9186Y-2.5664
X4.93Y-2.8
X5.1865Y-2.898
X5.22Y-2.912
X5.226Y-2.9823
X5.2633Y-2.7885
T4
X4.6607Y-2.6076
X4.98Y-2.23
X5.01Y-2.23
T5
X4.46Y-2.51
X4.46Y-2.5887
X4.46Y-2.6675
X4.46Y-2.7462
X4.46Y-2.825
X4.46Y-2.9037
T6
X5.54Y-2.1
X5.54Y-2.2
T0
M30
