%TF.GenerationSoftware,KiCad,Pcbnew,(5.1.10)-1*%
%TF.CreationDate,2021-12-05T10:22:04+05:30*%
%TF.ProjectId,Libobxis lab,4c69626f-6278-4697-9320-6c61622e6b69,rev?*%
%TF.SameCoordinates,Original*%
%TF.FileFunction,Copper,L2,Bot*%
%TF.FilePolarity,Positive*%
%FSLAX46Y46*%
G04 Gerber Fmt 4.6, Leading zero omitted, Abs format (unit mm)*
G04 Created by KiCad (PCBNEW (5.1.10)-1) date 2021-12-05 10:22:04*
%MOMM*%
%LPD*%
G01*
G04 APERTURE LIST*
%TA.AperFunction,SMDPad,CuDef*%
%ADD10R,2.450000X2.450000*%
%TD*%
%TA.AperFunction,SMDPad,CuDef*%
%ADD11R,0.250000X0.850000*%
%TD*%
%TA.AperFunction,SMDPad,CuDef*%
%ADD12R,0.850000X0.250000*%
%TD*%
%TA.AperFunction,ComponentPad*%
%ADD13O,1.350000X1.350000*%
%TD*%
%TA.AperFunction,ComponentPad*%
%ADD14R,1.350000X1.350000*%
%TD*%
%TA.AperFunction,ComponentPad*%
%ADD15O,1.700000X1.700000*%
%TD*%
%TA.AperFunction,ComponentPad*%
%ADD16R,1.700000X1.700000*%
%TD*%
%TA.AperFunction,SMDPad,CuDef*%
%ADD17R,1.200000X0.600000*%
%TD*%
%TA.AperFunction,ViaPad*%
%ADD18C,0.100000*%
%TD*%
%TA.AperFunction,ViaPad*%
%ADD19C,0.400000*%
%TD*%
%TA.AperFunction,ViaPad*%
%ADD20C,0.200000*%
%TD*%
%TA.AperFunction,ViaPad*%
%ADD21C,0.800000*%
%TD*%
%TA.AperFunction,Conductor*%
%ADD22C,0.200000*%
%TD*%
%TA.AperFunction,Conductor*%
%ADD23C,0.010000*%
%TD*%
%TA.AperFunction,Conductor*%
%ADD24C,0.005000*%
%TD*%
%TA.AperFunction,Conductor*%
%ADD25C,0.030000*%
%TD*%
%TA.AperFunction,Conductor*%
%ADD26C,0.001000*%
%TD*%
%TA.AperFunction,Conductor*%
%ADD27C,0.080000*%
%TD*%
%TA.AperFunction,Conductor*%
%ADD28C,0.100000*%
%TD*%
%TA.AperFunction,Conductor*%
%ADD29C,0.050000*%
%TD*%
%TA.AperFunction,Conductor*%
%ADD30C,0.250000*%
%TD*%
%TA.AperFunction,Conductor*%
%ADD31C,0.254000*%
%TD*%
G04 APERTURE END LIST*
D10*
%TO.P,U2,29*%
%TO.N,GND*%
X128270000Y-68834000D03*
D11*
%TO.P,U2,28*%
%TO.N,Net-(U2-Pad28)*%
X126920000Y-70784000D03*
%TO.P,U2,27*%
%TO.N,Net-(U2-Pad27)*%
X127370000Y-70784000D03*
%TO.P,U2,26*%
%TO.N,Net-(U2-Pad26)*%
X127820000Y-70784000D03*
%TO.P,U2,25*%
%TO.N,RST*%
X128270000Y-70784000D03*
%TO.P,U2,24*%
%TO.N,SCL*%
X128720000Y-70784000D03*
%TO.P,U2,23*%
%TO.N,SDA*%
X129170000Y-70784000D03*
%TO.P,U2,22*%
%TO.N,Net-(U2-Pad22)*%
X129620000Y-70784000D03*
D12*
%TO.P,U2,21*%
%TO.N,Net-(U2-Pad21)*%
X130220000Y-70184000D03*
%TO.P,U2,20*%
%TO.N,GPIO12*%
X130220000Y-69734000D03*
%TO.P,U2,19*%
%TO.N,GPIO11*%
X130220000Y-69284000D03*
%TO.P,U2,18*%
%TO.N,GND*%
X130220000Y-68834000D03*
%TO.P,U2,17*%
%TO.N,Net-(U2-Pad17)*%
X130220000Y-68384000D03*
%TO.P,U2,16*%
%TO.N,Net-(U2-Pad16)*%
X130220000Y-67934000D03*
%TO.P,U2,15*%
%TO.N,SCK*%
X130220000Y-67484000D03*
D11*
%TO.P,U2,14*%
%TO.N,MISO*%
X129620000Y-66884000D03*
%TO.P,U2,13*%
%TO.N,MOSI*%
X129170000Y-66884000D03*
%TO.P,U2,12*%
%TO.N,GPIO10*%
X128720000Y-66884000D03*
%TO.P,U2,11*%
%TO.N,GPIO9*%
X128270000Y-66884000D03*
%TO.P,U2,10*%
%TO.N,GPIO8*%
X127820000Y-66884000D03*
%TO.P,U2,9*%
%TO.N,GPIO7*%
X127370000Y-66884000D03*
%TO.P,U2,8*%
%TO.N,GPIO6*%
X126920000Y-66884000D03*
D12*
%TO.P,U2,7*%
%TO.N,GPIO5*%
X126320000Y-67484000D03*
%TO.P,U2,6*%
%TO.N,GPIO4*%
X126320000Y-67934000D03*
%TO.P,U2,5*%
%TO.N,GPIO3*%
X126320000Y-68384000D03*
%TO.P,U2,4*%
%TO.N,GND*%
X126320000Y-68834000D03*
%TO.P,U2,3*%
%TO.N,VCC*%
X126320000Y-69284000D03*
%TO.P,U2,2*%
%TO.N,GPIO2*%
X126320000Y-69734000D03*
%TO.P,U2,1*%
%TO.N,GPIO1*%
X126320000Y-70184000D03*
%TD*%
D13*
%TO.P,J2,6*%
%TO.N,GND*%
X113284000Y-73754000D03*
%TO.P,J2,5*%
%TO.N,SCK*%
X113284000Y-71754000D03*
%TO.P,J2,4*%
%TO.N,MISO*%
X113284000Y-69754000D03*
%TO.P,J2,3*%
%TO.N,MOSI*%
X113284000Y-67754000D03*
%TO.P,J2,2*%
%TO.N,RST*%
X113284000Y-65754000D03*
D14*
%TO.P,J2,1*%
%TO.N,VCC*%
X113284000Y-63754000D03*
%TD*%
D15*
%TO.P,J1,2*%
%TO.N,GND*%
X140716000Y-55880000D03*
D16*
%TO.P,J1,1*%
%TO.N,Vin*%
X140716000Y-53340000D03*
%TD*%
D17*
%TO.P,IC1,5*%
%TO.N,VCC*%
X141458000Y-74102000D03*
%TO.P,IC1,4*%
%TO.N,Net-(IC1-Pad4)*%
X141458000Y-72202000D03*
%TO.P,IC1,3*%
%TO.N,Vin*%
X138958000Y-72202000D03*
%TO.P,IC1,2*%
%TO.N,GND*%
X138958000Y-73152000D03*
%TO.P,IC1,1*%
%TO.N,Vin*%
X138958000Y-74102000D03*
%TD*%
D18*
%TO.N,*%
X127780000Y-73750000D03*
X127850000Y-73040000D03*
X127870000Y-72810000D03*
%TO.N,GND*%
X125530000Y-74550000D03*
X124660000Y-74930000D03*
X122150000Y-73670000D03*
X121530000Y-71020000D03*
X121860000Y-70220000D03*
X122570000Y-70120000D03*
X123460000Y-69480000D03*
X123990000Y-69260000D03*
%TO.N,GPIO1*%
X122830000Y-65390000D03*
X130130000Y-55300000D03*
X121610000Y-65000000D03*
D19*
X125222000Y-71120000D03*
D18*
X122360000Y-62720000D03*
X122920000Y-63460000D03*
%TO.N,GND*%
X120610000Y-70920000D03*
X118320000Y-71010000D03*
X139360000Y-59780000D03*
X139580000Y-62040000D03*
X135680000Y-73540000D03*
X132760000Y-57820000D03*
X133200000Y-57290000D03*
X137620000Y-73120000D03*
D20*
X131673600Y-68262500D03*
D19*
X124460000Y-69088000D03*
D18*
%TO.N,GPIO2*%
X125620000Y-72810000D03*
X125990000Y-73170000D03*
X126620000Y-71940000D03*
X126190000Y-72480000D03*
X125220000Y-75420000D03*
X126090000Y-74680000D03*
X120350000Y-74650000D03*
D19*
X124460000Y-70612000D03*
D18*
X119040000Y-75416990D03*
D20*
%TO.N,GPIO3*%
X132097780Y-62527180D03*
%TO.N,GPIO4*%
X132181600Y-63469520D03*
D19*
%TO.N,GPIO5*%
X133686790Y-70827900D03*
%TO.N,GPIO6*%
X124932440Y-65186560D03*
X131737100Y-73609200D03*
D20*
%TO.N,GPIO7*%
X126900940Y-65770760D03*
%TO.N,GPIO8*%
X127701040Y-65763140D03*
%TO.N,GPIO9*%
X127508000Y-64973200D03*
%TO.N,GPIO10*%
X128371600Y-64668400D03*
%TO.N,GPIO11*%
X131650740Y-69019420D03*
%TO.N,GPIO12*%
X131605020Y-69778880D03*
D19*
%TO.N,VCC*%
X124460000Y-69850000D03*
D20*
X130801350Y-65432940D03*
D18*
%TO.N,SDA*%
X129170000Y-71900000D03*
X130898900Y-73990200D03*
X135255000Y-75806300D03*
D21*
X126492000Y-56642000D03*
D20*
X129235200Y-71399400D03*
D18*
X131838700Y-74379990D03*
X133921500Y-75400010D03*
D20*
%TO.N,SCL*%
X120002300Y-64820800D03*
X128562100Y-72009000D03*
X128866900Y-71399400D03*
D21*
X127254000Y-56642000D03*
D20*
X123745900Y-70418600D03*
%TO.N,SCK*%
X131653280Y-67477640D03*
%TO.N,MISO*%
X129491740Y-65529460D03*
X131384040Y-70688200D03*
X130215640Y-72765920D03*
%TO.N,MOSI*%
X128333500Y-71932800D03*
X129184400Y-64770000D03*
D21*
X118381780Y-66233040D03*
D19*
X121767600Y-69138800D03*
D18*
X125679200Y-72288400D03*
D19*
%TO.N,RST*%
X132588000Y-73964800D03*
D20*
X131241800Y-72517000D03*
X130848100Y-71323200D03*
D19*
X132740400Y-75750010D03*
%TD*%
D22*
%TO.N,GPIO1*%
X126158000Y-70184000D02*
X125222000Y-71120000D01*
X126320000Y-70184000D02*
X126158000Y-70184000D01*
D23*
X121610000Y-65000000D02*
X121610000Y-64770000D01*
X122800000Y-63580000D02*
X122810000Y-63570000D01*
X121610000Y-64770000D02*
X122800000Y-63580000D01*
X122920000Y-63460000D02*
X122800000Y-63580000D01*
X130100000Y-55330000D02*
X130130000Y-55300000D01*
X130100000Y-60301329D02*
X130100000Y-55330000D01*
X128351329Y-62050000D02*
X130100000Y-60301329D01*
X123030000Y-62050000D02*
X128351329Y-62050000D01*
X122360000Y-62720000D02*
X123030000Y-62050000D01*
D22*
%TO.N,GND*%
X124734002Y-69088000D02*
X124460000Y-69088000D01*
X124988002Y-68834000D02*
X124734002Y-69088000D01*
X126320000Y-68834000D02*
X124988002Y-68834000D01*
X131315803Y-68262500D02*
X131673600Y-68262500D01*
X130744303Y-68834000D02*
X131315803Y-68262500D01*
X130220000Y-68834000D02*
X130744303Y-68834000D01*
X137652000Y-73152000D02*
X137620000Y-73120000D01*
X138958000Y-73152000D02*
X137652000Y-73152000D01*
X132760000Y-57730000D02*
X133200000Y-57290000D01*
X132760000Y-57820000D02*
X132760000Y-57730000D01*
X137264000Y-73540000D02*
X137652000Y-73152000D01*
X135680000Y-73540000D02*
X137264000Y-73540000D01*
D23*
X113284000Y-73754000D02*
X112814000Y-73754000D01*
D24*
X139580000Y-60000000D02*
X139360000Y-59780000D01*
X139580000Y-62040000D02*
X139580000Y-60000000D01*
X120520000Y-71010000D02*
X120610000Y-70920000D01*
X118320000Y-71010000D02*
X120520000Y-71010000D01*
D25*
X126320000Y-68834000D02*
X130220000Y-68834000D01*
D24*
X121530000Y-70550000D02*
X121860000Y-70220000D01*
X121530000Y-71020000D02*
X121530000Y-70550000D01*
X122502510Y-70220000D02*
X122570000Y-70152510D01*
X121860000Y-70220000D02*
X122502510Y-70220000D01*
X123770000Y-69480000D02*
X123990000Y-69260000D01*
X123460000Y-69480000D02*
X123770000Y-69480000D01*
X124288000Y-69260000D02*
X124460000Y-69088000D01*
X123990000Y-69260000D02*
X124288000Y-69260000D01*
X121430000Y-70920000D02*
X121530000Y-71020000D01*
X120610000Y-70920000D02*
X121430000Y-70920000D01*
D26*
X122150000Y-73670000D02*
X122150000Y-74000000D01*
X124585510Y-75004490D02*
X124633258Y-74956742D01*
X123154490Y-75004490D02*
X124585510Y-75004490D01*
X122150000Y-74000000D02*
X123154490Y-75004490D01*
D22*
%TO.N,GPIO2*%
X125571998Y-69734000D02*
X126320000Y-69734000D01*
X124693998Y-70612000D02*
X125571998Y-69734000D01*
X124460000Y-70612000D02*
X124693998Y-70612000D01*
D23*
X119538010Y-75461990D02*
X119040000Y-75461990D01*
X120350000Y-74650000D02*
X119538010Y-75461990D01*
D24*
X124460000Y-70840000D02*
X124440000Y-70860000D01*
X124460000Y-70612000D02*
X124460000Y-70840000D01*
X124460000Y-71249702D02*
X124940298Y-71730000D01*
X124460000Y-70612000D02*
X124460000Y-71249702D01*
X125120000Y-71730000D02*
X125130000Y-71740000D01*
X124940298Y-71730000D02*
X125120000Y-71730000D01*
X125130000Y-71740000D02*
X125920000Y-71740000D01*
X125920000Y-71740000D02*
X126225890Y-72045890D01*
X126331780Y-71940000D02*
X126225890Y-72045890D01*
X126620000Y-71940000D02*
X126331780Y-71940000D01*
X125990000Y-74580000D02*
X125990000Y-73170911D01*
X126090000Y-74680000D02*
X125990000Y-74580000D01*
D26*
X126111090Y-72528910D02*
X126190000Y-72528910D01*
X125951099Y-72688901D02*
X126111090Y-72528910D01*
X125620000Y-72810000D02*
X125690000Y-72740000D01*
X125690000Y-72740000D02*
X125690000Y-72710000D01*
X125701099Y-72698901D02*
X125690000Y-72710000D01*
X125701099Y-72688901D02*
X125701099Y-72698901D01*
X125701099Y-72688901D02*
X125951099Y-72688901D01*
D23*
X125149290Y-75420000D02*
X125220000Y-75420000D01*
X125124290Y-75445000D02*
X125149290Y-75420000D01*
X124685000Y-75445000D02*
X125124290Y-75445000D01*
X124450000Y-75210000D02*
X124685000Y-75445000D01*
X120910000Y-75210000D02*
X124450000Y-75210000D01*
X120350000Y-74650000D02*
X120910000Y-75210000D01*
D22*
%TO.N,GPIO3*%
X124518000Y-68384000D02*
X124460000Y-68326000D01*
X126320000Y-68384000D02*
X124518000Y-68384000D01*
X120886220Y-66802000D02*
X120886220Y-64894460D01*
X124518000Y-68384000D02*
X122468220Y-68384000D01*
X122468220Y-68384000D02*
X120886220Y-66802000D01*
X120886220Y-64894460D02*
X123253500Y-62527180D01*
X123253500Y-62527180D02*
X132097780Y-62527180D01*
%TO.N,GPIO4*%
X123752571Y-63412409D02*
X132124489Y-63412409D01*
X122001280Y-67068700D02*
X122001280Y-65163700D01*
X122496580Y-67564000D02*
X122001280Y-67068700D01*
X125222000Y-67564000D02*
X122496580Y-67564000D01*
X125592000Y-67934000D02*
X125222000Y-67564000D01*
X132124489Y-63412409D02*
X132181600Y-63469520D01*
X122001280Y-65163700D02*
X123752571Y-63412409D01*
X126320000Y-67934000D02*
X125592000Y-67934000D01*
%TO.N,GPIO5*%
X126320000Y-67484000D02*
X126318000Y-67484000D01*
X125216920Y-63812420D02*
X130216832Y-63812420D01*
X124320300Y-64709040D02*
X125216920Y-63812420D01*
X126320000Y-67484000D02*
X126320000Y-67159000D01*
X125171200Y-66890900D02*
X124320300Y-66040000D01*
X124320300Y-66040000D02*
X124320300Y-64709040D01*
X126051900Y-66890900D02*
X125171200Y-66890900D01*
X133686790Y-67282378D02*
X133686790Y-70827900D01*
X130216832Y-63812420D02*
X133686790Y-67282378D01*
X126320000Y-67159000D02*
X126051900Y-66890900D01*
%TO.N,GPIO6*%
X126920000Y-66884000D02*
X126920000Y-66628000D01*
X126920000Y-66884000D02*
X126411280Y-66375280D01*
X126411280Y-66375280D02*
X125679200Y-66375280D01*
X124932440Y-65628520D02*
X124932440Y-65186560D01*
X125679200Y-66375280D02*
X124932440Y-65628520D01*
X132373601Y-67161959D02*
X132373601Y-73219079D01*
X130101340Y-66289641D02*
X130589338Y-66777639D01*
X131989281Y-66777639D02*
X132373601Y-67161959D01*
X130101340Y-64973200D02*
X130101340Y-66289641D01*
X130589338Y-66777639D02*
X131989281Y-66777639D01*
X129340570Y-64212430D02*
X130101340Y-64973200D01*
X125467885Y-64212430D02*
X129340570Y-64212430D01*
X124932440Y-64747875D02*
X125467885Y-64212430D01*
X124932440Y-65186560D02*
X124932440Y-64747875D01*
D27*
X131983480Y-73609200D02*
X132373601Y-73219079D01*
X131737100Y-73609200D02*
X131983480Y-73609200D01*
D22*
%TO.N,GPIO7*%
X127370000Y-66664000D02*
X127345001Y-66639001D01*
X127370000Y-66884000D02*
X127370000Y-66664000D01*
X127370000Y-66686000D02*
X127394999Y-66661001D01*
X127370000Y-66884000D02*
X127370000Y-66686000D01*
X127370000Y-66620820D02*
X127345001Y-66595821D01*
X127370000Y-66884000D02*
X127370000Y-66620820D01*
D28*
X127370000Y-66884000D02*
X127370000Y-66410000D01*
X126900940Y-65940940D02*
X126900940Y-65770760D01*
X127370000Y-66410000D02*
X126900940Y-65940940D01*
D22*
%TO.N,GPIO8*%
X127820000Y-66606000D02*
X127795001Y-66581001D01*
X127820000Y-66884000D02*
X127820000Y-66606000D01*
X127820000Y-66606000D02*
X127844999Y-66581001D01*
D28*
X127820000Y-65882100D02*
X127701040Y-65763140D01*
X127820000Y-66884000D02*
X127820000Y-65882100D01*
D27*
%TO.N,GPIO9*%
X128351041Y-65480961D02*
X128351041Y-65473341D01*
X128351041Y-65473341D02*
X128087041Y-65209341D01*
D23*
X128087041Y-65209341D02*
X128042643Y-65209341D01*
X128042643Y-65209341D02*
X127806502Y-64973200D01*
X127806502Y-64973200D02*
X127508000Y-64973200D01*
D28*
X128270000Y-66884000D02*
X128270000Y-66156182D01*
X128270000Y-66156182D02*
X128351041Y-66075141D01*
X128351041Y-66075141D02*
X128351041Y-65480961D01*
D22*
%TO.N,GPIO10*%
X128720000Y-66884000D02*
X128720000Y-66609380D01*
X128720000Y-66609380D02*
X128695001Y-66584381D01*
X128695001Y-66859001D02*
X128720000Y-66884000D01*
D29*
X128720000Y-66884000D02*
X128720000Y-66132367D01*
D23*
X128371600Y-64852602D02*
X128371600Y-64668400D01*
X128606051Y-65087053D02*
X128371600Y-64852602D01*
X128606051Y-65990134D02*
X128606051Y-65087053D01*
X128720000Y-66104083D02*
X128606051Y-65990134D01*
X128720000Y-66132367D02*
X128720000Y-66104083D01*
D22*
%TO.N,GPIO11*%
X130860002Y-69284000D02*
X130220000Y-69284000D01*
X131065123Y-69078879D02*
X130860002Y-69284000D01*
X131642081Y-69078879D02*
X131065123Y-69078879D01*
X131650740Y-69070220D02*
X131642081Y-69078879D01*
X131650740Y-69019420D02*
X131650740Y-69070220D01*
%TO.N,GPIO12*%
X131560140Y-69734000D02*
X130220000Y-69734000D01*
X131605020Y-69778880D02*
X131560140Y-69734000D01*
%TO.N,VCC*%
X126320000Y-69284000D02*
X125280000Y-69284000D01*
X125280000Y-69304002D02*
X124734002Y-69850000D01*
X124734002Y-69850000D02*
X124460000Y-69850000D01*
X125280000Y-69284000D02*
X125280000Y-69304002D01*
X140857999Y-74702001D02*
X141458000Y-74102000D01*
X140857999Y-74702001D02*
X135923939Y-74702001D01*
X132986780Y-67195700D02*
X131224020Y-65432940D01*
X131224020Y-65432940D02*
X130801350Y-65432940D01*
X135923939Y-74702001D02*
X132986780Y-71764842D01*
X132986780Y-71764842D02*
X132986780Y-67195700D01*
X113284000Y-63754000D02*
X114429540Y-63754000D01*
X120525540Y-69850000D02*
X124460000Y-69850000D01*
X114429540Y-63754000D02*
X120525540Y-69850000D01*
X140857999Y-74702001D02*
X140520000Y-75040000D01*
X123121420Y-70477380D02*
X123748800Y-69850000D01*
X125520001Y-75040000D02*
X125520001Y-75031999D01*
X140520000Y-75040000D02*
X125520001Y-75040000D01*
X124976749Y-74875249D02*
X123121420Y-73019920D01*
X125338001Y-74849999D02*
X125001999Y-74849999D01*
X123748800Y-69850000D02*
X124460000Y-69850000D01*
X123121420Y-73019920D02*
X123121420Y-70477380D01*
X125001999Y-74849999D02*
X124976749Y-74875249D01*
X125520001Y-75031999D02*
X125338001Y-74849999D01*
%TO.N,Vin*%
X138958000Y-74102000D02*
X139837120Y-74102000D01*
X139837120Y-74102000D02*
X140172440Y-73766680D01*
X140172440Y-73766680D02*
X140172440Y-72379840D01*
X139994600Y-72202000D02*
X138958000Y-72202000D01*
X140172440Y-72379840D02*
X139994600Y-72202000D01*
X138958000Y-72202000D02*
X138958000Y-70609780D01*
X138958000Y-70609780D02*
X141043660Y-68524120D01*
X141043660Y-68524120D02*
X141043660Y-57279540D01*
X141043660Y-57279540D02*
X142176500Y-56146700D01*
X142176500Y-56146700D02*
X142176500Y-54183280D01*
X141333220Y-53340000D02*
X140716000Y-53340000D01*
X142176500Y-54183280D02*
X141333220Y-53340000D01*
%TO.N,SDA*%
X126492000Y-56642000D02*
X126492000Y-57207685D01*
D23*
X129170000Y-71004000D02*
X129289999Y-71123999D01*
X129170000Y-70784000D02*
X129170000Y-71004000D01*
X129209800Y-71399400D02*
X129170000Y-71359600D01*
X129235200Y-71399400D02*
X129209800Y-71399400D01*
X129170000Y-71359600D02*
X129170000Y-70784000D01*
D24*
X130898900Y-73990200D02*
X130454400Y-73990200D01*
X130454400Y-73990200D02*
X129032000Y-72567800D01*
X129032000Y-72567800D02*
X129032000Y-71911911D01*
X129032000Y-71911911D02*
X129170000Y-71911911D01*
X130898900Y-73990200D02*
X131288690Y-74379990D01*
X134327790Y-75806300D02*
X133921500Y-75400010D01*
X135255000Y-75806300D02*
X134327790Y-75806300D01*
X131288690Y-74379990D02*
X131838700Y-74379990D01*
D27*
%TO.N,SCL*%
X120002300Y-64820800D02*
X120002300Y-59982100D01*
X120002300Y-59982100D02*
X124726700Y-55257700D01*
X124726700Y-55257700D02*
X126695200Y-55257700D01*
X127254000Y-55816500D02*
X127254000Y-56642000D01*
X126695200Y-55257700D02*
X127254000Y-55816500D01*
D25*
X128366599Y-72928401D02*
X128535001Y-72759999D01*
X128648501Y-72084001D02*
X128648501Y-72009000D01*
X128535001Y-72197501D02*
X128648501Y-72084001D01*
X128535001Y-72759999D02*
X128535001Y-72197501D01*
D24*
X128720000Y-71252500D02*
X128720000Y-70784000D01*
X128866900Y-71399400D02*
X128720000Y-71252500D01*
X123745900Y-70418600D02*
X123745900Y-71807590D01*
X123745900Y-71807590D02*
X124864155Y-72925845D01*
X124864155Y-72925845D02*
X124866711Y-72928401D01*
X127368401Y-72928401D02*
X128366599Y-72928401D01*
X127357499Y-72917499D02*
X127368401Y-72928401D01*
X125868799Y-72917499D02*
X127357499Y-72917499D01*
X125606298Y-73180000D02*
X125868799Y-72917499D01*
X125530000Y-73180000D02*
X125606298Y-73180000D01*
X125275845Y-72925845D02*
X125530000Y-73180000D01*
X124864155Y-72925845D02*
X125275845Y-72925845D01*
D22*
%TO.N,SCK*%
X130226360Y-67477640D02*
X130220000Y-67484000D01*
X131653280Y-67477640D02*
X130226360Y-67477640D01*
%TO.N,MISO*%
X129620000Y-65560170D02*
X129401330Y-65341500D01*
X131325620Y-70746620D02*
X131384040Y-70688200D01*
X129620000Y-65657720D02*
X129491740Y-65529460D01*
X129620000Y-66884000D02*
X129620000Y-65657720D01*
X130615639Y-73165919D02*
X131354881Y-73165919D01*
X130215640Y-72765920D02*
X130615639Y-73165919D01*
X131400001Y-73140801D02*
X131927600Y-72613202D01*
X131379999Y-73140801D02*
X131400001Y-73140801D01*
X131354881Y-73165919D02*
X131379999Y-73140801D01*
X131927600Y-71231760D02*
X131384040Y-70688200D01*
X131927600Y-72613202D02*
X131927600Y-71231760D01*
%TO.N,MOSI*%
X129170000Y-66711400D02*
X129145001Y-66686401D01*
X129170000Y-66884000D02*
X129170000Y-66711400D01*
X129170000Y-66641140D02*
X129145001Y-66616141D01*
X129170000Y-66884000D02*
X129170000Y-66641140D01*
D29*
X129170000Y-66884000D02*
X129170000Y-66228800D01*
X129170000Y-66228800D02*
X128866739Y-65925539D01*
X128866739Y-65087661D02*
X129184400Y-64770000D01*
X128866739Y-65925539D02*
X128866739Y-65087661D01*
D22*
X121287540Y-69138800D02*
X121767600Y-69138800D01*
X118381780Y-66233040D02*
X121287540Y-69138800D01*
D27*
X125679200Y-72288400D02*
X127977900Y-72288400D01*
X127977900Y-72288400D02*
X128333500Y-71932800D01*
D30*
%TO.N,RST*%
X112554000Y-65754000D02*
X113284000Y-65754000D01*
X111856010Y-66451990D02*
X112554000Y-65754000D01*
X114300000Y-75692000D02*
X112776000Y-75692000D01*
X114300000Y-75692000D02*
X114046000Y-75692000D01*
X112776000Y-75692000D02*
X112268000Y-75184000D01*
X112206020Y-75184000D02*
X111856010Y-74833990D01*
X112268000Y-75184000D02*
X112206020Y-75184000D01*
X111856010Y-74833990D02*
X111856010Y-66451990D01*
D23*
X128320800Y-70834800D02*
X128270000Y-70784000D01*
D27*
X131241800Y-71716900D02*
X130848100Y-71323200D01*
X131241800Y-72517000D02*
X131241800Y-71716900D01*
D23*
X130848100Y-71323200D02*
X130848100Y-71462900D01*
X130517900Y-71323200D02*
X130848100Y-71323200D01*
X130136699Y-71704401D02*
X130517900Y-71323200D01*
X128562301Y-71704401D02*
X130136699Y-71704401D01*
X128270000Y-71412100D02*
X128562301Y-71704401D01*
X128270000Y-70784000D02*
X128270000Y-71412100D01*
X128270000Y-71412100D02*
X128270000Y-71417898D01*
D29*
X114300000Y-75692000D02*
X132682390Y-75692000D01*
X132682390Y-75692000D02*
X132740400Y-75750010D01*
%TD*%
D31*
%TO.N,GND*%
X145390000Y-78080000D02*
X109880000Y-78080000D01*
X109880000Y-66451990D01*
X111092334Y-66451990D01*
X111096011Y-66489322D01*
X111096010Y-74796668D01*
X111092334Y-74833990D01*
X111096010Y-74871312D01*
X111096010Y-74871322D01*
X111107007Y-74982975D01*
X111140237Y-75092521D01*
X111150464Y-75126236D01*
X111221036Y-75258266D01*
X111244650Y-75287039D01*
X111316009Y-75373991D01*
X111345013Y-75397794D01*
X111642216Y-75694997D01*
X111666019Y-75724001D01*
X111781744Y-75818974D01*
X111881487Y-75872289D01*
X112212200Y-76203002D01*
X112235999Y-76232001D01*
X112351724Y-76326974D01*
X112483753Y-76397546D01*
X112627014Y-76441003D01*
X112738667Y-76452000D01*
X112738676Y-76452000D01*
X112775999Y-76455676D01*
X112813322Y-76452000D01*
X114337333Y-76452000D01*
X114448986Y-76441003D01*
X114592247Y-76397546D01*
X114677456Y-76352000D01*
X132161522Y-76352000D01*
X132208119Y-76398597D01*
X132344879Y-76489977D01*
X132496840Y-76552921D01*
X132658160Y-76585010D01*
X132822640Y-76585010D01*
X132983960Y-76552921D01*
X133135921Y-76489977D01*
X133272681Y-76398597D01*
X133388987Y-76282291D01*
X133480367Y-76145531D01*
X133543311Y-75993570D01*
X133547247Y-75973784D01*
X133597031Y-76007049D01*
X133648155Y-76028225D01*
X133854866Y-76234936D01*
X133874829Y-76259261D01*
X133971901Y-76338926D01*
X134082649Y-76398122D01*
X134202818Y-76434575D01*
X134296478Y-76443800D01*
X134296486Y-76443800D01*
X134327790Y-76446883D01*
X134359094Y-76443800D01*
X135004071Y-76443800D01*
X135055193Y-76464975D01*
X135187533Y-76491300D01*
X135322467Y-76491300D01*
X135454807Y-76464975D01*
X135579469Y-76413339D01*
X135691662Y-76338374D01*
X135787074Y-76242962D01*
X135862039Y-76130769D01*
X135913675Y-76006107D01*
X135940000Y-75873767D01*
X135940000Y-75775000D01*
X140483895Y-75775000D01*
X140520000Y-75778556D01*
X140556105Y-75775000D01*
X140664085Y-75764365D01*
X140802633Y-75722337D01*
X140930320Y-75654087D01*
X141042238Y-75562238D01*
X141065259Y-75534187D01*
X141352186Y-75247260D01*
X141380237Y-75224239D01*
X141403257Y-75196189D01*
X141559374Y-75040072D01*
X142058000Y-75040072D01*
X142182482Y-75027812D01*
X142302180Y-74991502D01*
X142412494Y-74932537D01*
X142509185Y-74853185D01*
X142588537Y-74756494D01*
X142647502Y-74646180D01*
X142683812Y-74526482D01*
X142696072Y-74402000D01*
X142696072Y-73802000D01*
X142683812Y-73677518D01*
X142647502Y-73557820D01*
X142588537Y-73447506D01*
X142509185Y-73350815D01*
X142412494Y-73271463D01*
X142302180Y-73212498D01*
X142182482Y-73176188D01*
X142058000Y-73163928D01*
X140907440Y-73163928D01*
X140907440Y-73140072D01*
X142058000Y-73140072D01*
X142182482Y-73127812D01*
X142302180Y-73091502D01*
X142412494Y-73032537D01*
X142509185Y-72953185D01*
X142588537Y-72856494D01*
X142647502Y-72746180D01*
X142683812Y-72626482D01*
X142696072Y-72502000D01*
X142696072Y-71902000D01*
X142683812Y-71777518D01*
X142647502Y-71657820D01*
X142588537Y-71547506D01*
X142509185Y-71450815D01*
X142412494Y-71371463D01*
X142302180Y-71312498D01*
X142182482Y-71276188D01*
X142058000Y-71263928D01*
X140858000Y-71263928D01*
X140733518Y-71276188D01*
X140613820Y-71312498D01*
X140503506Y-71371463D01*
X140406815Y-71450815D01*
X140328030Y-71546815D01*
X140277233Y-71519663D01*
X140138685Y-71477635D01*
X140030705Y-71467000D01*
X140021743Y-71466117D01*
X140009185Y-71450815D01*
X139912494Y-71371463D01*
X139802180Y-71312498D01*
X139693000Y-71279379D01*
X139693000Y-70914226D01*
X141537857Y-69069370D01*
X141565897Y-69046358D01*
X141588910Y-69018317D01*
X141588913Y-69018314D01*
X141657747Y-68934440D01*
X141725997Y-68806754D01*
X141768025Y-68668205D01*
X141782216Y-68524120D01*
X141778660Y-68488015D01*
X141778660Y-57583986D01*
X142670697Y-56691950D01*
X142698737Y-56668938D01*
X142721750Y-56640897D01*
X142721753Y-56640894D01*
X142790587Y-56557020D01*
X142858837Y-56429334D01*
X142900865Y-56290785D01*
X142915056Y-56146700D01*
X142911500Y-56110595D01*
X142911500Y-54219384D01*
X142915056Y-54183279D01*
X142900865Y-54039194D01*
X142875048Y-53954087D01*
X142858837Y-53900647D01*
X142790587Y-53772960D01*
X142698738Y-53661042D01*
X142670693Y-53638026D01*
X142204072Y-53171406D01*
X142204072Y-52490000D01*
X142191812Y-52365518D01*
X142155502Y-52245820D01*
X142096537Y-52135506D01*
X142017185Y-52038815D01*
X141920494Y-51959463D01*
X141810180Y-51900498D01*
X141690482Y-51864188D01*
X141566000Y-51851928D01*
X139866000Y-51851928D01*
X139741518Y-51864188D01*
X139621820Y-51900498D01*
X139511506Y-51959463D01*
X139414815Y-52038815D01*
X139335463Y-52135506D01*
X139276498Y-52245820D01*
X139240188Y-52365518D01*
X139227928Y-52490000D01*
X139227928Y-54190000D01*
X139240188Y-54314482D01*
X139276498Y-54434180D01*
X139335463Y-54544494D01*
X139414815Y-54641185D01*
X139511506Y-54720537D01*
X139621820Y-54779502D01*
X139702466Y-54803966D01*
X139618412Y-54879731D01*
X139444359Y-55113080D01*
X139319175Y-55375901D01*
X139274524Y-55523110D01*
X139395845Y-55753000D01*
X140589000Y-55753000D01*
X140589000Y-55733000D01*
X140843000Y-55733000D01*
X140843000Y-55753000D01*
X140863000Y-55753000D01*
X140863000Y-56007000D01*
X140843000Y-56007000D01*
X140843000Y-56027000D01*
X140589000Y-56027000D01*
X140589000Y-56007000D01*
X139395845Y-56007000D01*
X139274524Y-56236890D01*
X139319175Y-56384099D01*
X139444359Y-56646920D01*
X139618412Y-56880269D01*
X139834645Y-57075178D01*
X140084748Y-57224157D01*
X140307429Y-57303149D01*
X140308661Y-57315655D01*
X140308660Y-68219673D01*
X138463808Y-70064526D01*
X138435763Y-70087542D01*
X138343914Y-70199460D01*
X138284730Y-70310185D01*
X138275664Y-70327147D01*
X138233635Y-70465695D01*
X138219444Y-70609780D01*
X138223001Y-70645895D01*
X138223001Y-71279378D01*
X138113820Y-71312498D01*
X138003506Y-71371463D01*
X137906815Y-71450815D01*
X137827463Y-71547506D01*
X137768498Y-71657820D01*
X137732188Y-71777518D01*
X137719928Y-71902000D01*
X137719928Y-72502000D01*
X137732188Y-72626482D01*
X137747512Y-72677000D01*
X137732188Y-72727518D01*
X137719928Y-72852000D01*
X137723000Y-72866250D01*
X137881750Y-73025000D01*
X137994322Y-73025000D01*
X138003506Y-73032537D01*
X138113820Y-73091502D01*
X138233518Y-73127812D01*
X138358000Y-73140072D01*
X139105000Y-73140072D01*
X139105000Y-73163928D01*
X138358000Y-73163928D01*
X138233518Y-73176188D01*
X138113820Y-73212498D01*
X138003506Y-73271463D01*
X137994322Y-73279000D01*
X137881750Y-73279000D01*
X137723000Y-73437750D01*
X137719928Y-73452000D01*
X137732188Y-73576482D01*
X137747512Y-73627000D01*
X137732188Y-73677518D01*
X137719928Y-73802000D01*
X137719928Y-73967001D01*
X136228386Y-73967001D01*
X133898526Y-71637141D01*
X133930350Y-71630811D01*
X134082311Y-71567867D01*
X134219071Y-71476487D01*
X134335377Y-71360181D01*
X134426757Y-71223421D01*
X134489701Y-71071460D01*
X134521790Y-70910140D01*
X134521790Y-70745660D01*
X134489701Y-70584340D01*
X134426757Y-70432379D01*
X134421790Y-70424945D01*
X134421790Y-67318483D01*
X134425346Y-67282378D01*
X134411155Y-67138293D01*
X134369127Y-66999744D01*
X134300877Y-66872058D01*
X134232043Y-66788184D01*
X134232040Y-66788181D01*
X134209027Y-66760140D01*
X134180987Y-66737128D01*
X131591267Y-64147409D01*
X131890647Y-64147409D01*
X131898967Y-64151856D01*
X131933684Y-64162388D01*
X131967209Y-64176274D01*
X132002795Y-64183353D01*
X132037515Y-64193885D01*
X132073620Y-64197441D01*
X132109209Y-64204520D01*
X132145502Y-64204520D01*
X132181599Y-64208075D01*
X132217696Y-64204520D01*
X132253991Y-64204520D01*
X132289581Y-64197441D01*
X132325684Y-64193885D01*
X132360402Y-64183353D01*
X132395991Y-64176274D01*
X132429517Y-64162387D01*
X132464233Y-64151856D01*
X132496226Y-64134755D01*
X132529753Y-64120868D01*
X132559930Y-64100705D01*
X132591919Y-64083606D01*
X132619954Y-64060598D01*
X132650135Y-64040432D01*
X132675803Y-64014764D01*
X132703837Y-63991757D01*
X132726844Y-63963723D01*
X132752512Y-63938055D01*
X132772678Y-63907874D01*
X132795686Y-63879839D01*
X132812785Y-63847850D01*
X132832948Y-63817673D01*
X132846835Y-63784146D01*
X132863936Y-63752153D01*
X132874467Y-63717437D01*
X132888354Y-63683911D01*
X132895433Y-63648322D01*
X132905965Y-63613604D01*
X132909521Y-63577501D01*
X132916600Y-63541911D01*
X132916600Y-63505616D01*
X132920155Y-63469519D01*
X132916600Y-63433422D01*
X132916600Y-63397129D01*
X132909521Y-63361540D01*
X132905965Y-63325435D01*
X132895433Y-63290715D01*
X132888354Y-63255129D01*
X132874468Y-63221604D01*
X132863936Y-63186887D01*
X132846835Y-63154893D01*
X132832948Y-63121367D01*
X132812787Y-63091193D01*
X132795686Y-63059200D01*
X132772674Y-63031160D01*
X132752512Y-63000985D01*
X132701572Y-62950045D01*
X132711867Y-62937500D01*
X132728972Y-62905499D01*
X132749128Y-62875333D01*
X132763012Y-62841815D01*
X132780117Y-62809813D01*
X132790650Y-62775089D01*
X132804534Y-62741571D01*
X132811612Y-62705987D01*
X132822145Y-62671265D01*
X132825701Y-62635158D01*
X132832780Y-62599571D01*
X132832780Y-62563285D01*
X132836336Y-62527180D01*
X132832780Y-62491075D01*
X132832780Y-62454789D01*
X132825701Y-62419202D01*
X132822145Y-62383095D01*
X132811612Y-62348373D01*
X132804534Y-62312789D01*
X132790650Y-62279271D01*
X132780117Y-62244547D01*
X132763012Y-62212545D01*
X132749128Y-62179027D01*
X132728972Y-62148861D01*
X132711867Y-62116860D01*
X132688850Y-62088814D01*
X132668692Y-62058645D01*
X132643034Y-62032987D01*
X132620018Y-62004942D01*
X132591973Y-61981926D01*
X132566315Y-61956268D01*
X132536146Y-61936110D01*
X132508100Y-61913093D01*
X132476099Y-61895988D01*
X132445933Y-61875832D01*
X132412415Y-61861948D01*
X132380413Y-61844843D01*
X132345689Y-61834310D01*
X132312171Y-61820426D01*
X132276587Y-61813348D01*
X132241865Y-61802815D01*
X132205758Y-61799259D01*
X132170171Y-61792180D01*
X129514245Y-61792180D01*
X130530320Y-60776106D01*
X130554738Y-60756067D01*
X130634715Y-60658614D01*
X130694143Y-60547431D01*
X130730739Y-60426791D01*
X130740000Y-60332763D01*
X130740000Y-60332762D01*
X130743096Y-60301330D01*
X130740000Y-60269896D01*
X130740000Y-55617320D01*
X130788675Y-55499807D01*
X130815000Y-55367467D01*
X130815000Y-55232533D01*
X130788675Y-55100193D01*
X130737039Y-54975531D01*
X130662074Y-54863338D01*
X130566662Y-54767926D01*
X130454469Y-54692961D01*
X130329807Y-54641325D01*
X130197467Y-54615000D01*
X130062533Y-54615000D01*
X129930193Y-54641325D01*
X129805531Y-54692961D01*
X129693338Y-54767926D01*
X129597926Y-54863338D01*
X129522961Y-54975531D01*
X129471325Y-55100193D01*
X129445000Y-55232533D01*
X129445000Y-55367467D01*
X129460001Y-55442879D01*
X129460000Y-60036232D01*
X128086233Y-61410000D01*
X123061433Y-61410000D01*
X123029999Y-61406904D01*
X122904537Y-61419261D01*
X122867941Y-61430363D01*
X122783898Y-61455857D01*
X122672715Y-61515285D01*
X122575262Y-61595262D01*
X122555224Y-61619679D01*
X122080618Y-62094286D01*
X122035531Y-62112961D01*
X121923338Y-62187926D01*
X121827926Y-62283338D01*
X121752961Y-62395531D01*
X121701325Y-62520193D01*
X121675000Y-62652533D01*
X121675000Y-62787467D01*
X121701325Y-62919807D01*
X121736502Y-63004732D01*
X120677300Y-64063934D01*
X120677300Y-60261694D01*
X125006294Y-55932700D01*
X125737589Y-55932700D01*
X125688063Y-55982226D01*
X125574795Y-56151744D01*
X125496774Y-56340102D01*
X125457000Y-56540061D01*
X125457000Y-56743939D01*
X125496774Y-56943898D01*
X125574795Y-57132256D01*
X125688063Y-57301774D01*
X125780513Y-57394224D01*
X125809663Y-57490318D01*
X125877914Y-57618005D01*
X125969763Y-57729923D01*
X126081681Y-57821772D01*
X126209368Y-57890022D01*
X126347916Y-57932050D01*
X126492000Y-57946241D01*
X126636085Y-57932050D01*
X126774633Y-57890022D01*
X126902320Y-57821772D01*
X127014238Y-57729923D01*
X127070917Y-57660860D01*
X127152061Y-57677000D01*
X127355939Y-57677000D01*
X127555898Y-57637226D01*
X127744256Y-57559205D01*
X127913774Y-57445937D01*
X128057937Y-57301774D01*
X128171205Y-57132256D01*
X128249226Y-56943898D01*
X128289000Y-56743939D01*
X128289000Y-56540061D01*
X128249226Y-56340102D01*
X128171205Y-56151744D01*
X128057937Y-55982226D01*
X127929000Y-55853289D01*
X127929000Y-55849652D01*
X127932265Y-55816500D01*
X127929000Y-55783348D01*
X127929000Y-55783341D01*
X127919233Y-55684177D01*
X127911076Y-55657285D01*
X127880636Y-55556939D01*
X127817958Y-55439676D01*
X127777208Y-55390023D01*
X127754744Y-55362650D01*
X127754738Y-55362644D01*
X127733605Y-55336894D01*
X127707857Y-55315763D01*
X127195942Y-54803848D01*
X127174806Y-54778094D01*
X127072024Y-54693742D01*
X126954761Y-54631064D01*
X126827523Y-54592467D01*
X126728359Y-54582700D01*
X126728352Y-54582700D01*
X126695200Y-54579435D01*
X126662048Y-54582700D01*
X124759852Y-54582700D01*
X124726700Y-54579435D01*
X124693548Y-54582700D01*
X124693541Y-54582700D01*
X124606892Y-54591234D01*
X124594376Y-54592467D01*
X124520095Y-54615000D01*
X124467139Y-54631064D01*
X124349876Y-54693742D01*
X124247094Y-54778094D01*
X124225958Y-54803848D01*
X119548443Y-59481363D01*
X119522695Y-59502494D01*
X119501564Y-59528242D01*
X119501556Y-59528250D01*
X119438343Y-59605276D01*
X119375665Y-59722539D01*
X119337067Y-59849777D01*
X119324035Y-59982100D01*
X119327301Y-60015262D01*
X119327300Y-64529748D01*
X119295546Y-64606409D01*
X119267300Y-64748409D01*
X119267300Y-64893191D01*
X119295546Y-65035191D01*
X119350952Y-65168953D01*
X119431388Y-65289335D01*
X119533765Y-65391712D01*
X119654147Y-65472148D01*
X119787909Y-65527554D01*
X119929909Y-65555800D01*
X120074691Y-65555800D01*
X120151221Y-65540577D01*
X120151220Y-66765895D01*
X120147664Y-66802000D01*
X120161855Y-66946085D01*
X120164682Y-66955403D01*
X120173866Y-66985680D01*
X119416780Y-66228594D01*
X119416780Y-66131101D01*
X119377006Y-65931142D01*
X119298985Y-65742784D01*
X119185717Y-65573266D01*
X119041554Y-65429103D01*
X118872036Y-65315835D01*
X118683678Y-65237814D01*
X118483719Y-65198040D01*
X118279841Y-65198040D01*
X118079882Y-65237814D01*
X117891524Y-65315835D01*
X117722006Y-65429103D01*
X117577843Y-65573266D01*
X117464575Y-65742784D01*
X117462582Y-65747596D01*
X114974799Y-63259813D01*
X114951778Y-63231762D01*
X114839860Y-63139913D01*
X114712173Y-63071663D01*
X114592782Y-63035446D01*
X114584812Y-62954518D01*
X114548502Y-62834820D01*
X114489537Y-62724506D01*
X114410185Y-62627815D01*
X114313494Y-62548463D01*
X114203180Y-62489498D01*
X114083482Y-62453188D01*
X113959000Y-62440928D01*
X112609000Y-62440928D01*
X112484518Y-62453188D01*
X112364820Y-62489498D01*
X112254506Y-62548463D01*
X112157815Y-62627815D01*
X112078463Y-62724506D01*
X112019498Y-62834820D01*
X111983188Y-62954518D01*
X111970928Y-63079000D01*
X111970928Y-64429000D01*
X111983188Y-64553482D01*
X112019498Y-64673180D01*
X112078463Y-64783494D01*
X112157815Y-64880185D01*
X112244697Y-64951487D01*
X112134435Y-65116507D01*
X112129723Y-65119026D01*
X112058969Y-65177093D01*
X112013999Y-65213999D01*
X111990201Y-65242998D01*
X111345008Y-65888191D01*
X111316010Y-65911989D01*
X111292212Y-65940987D01*
X111292211Y-65940988D01*
X111221036Y-66027714D01*
X111150464Y-66159744D01*
X111125329Y-66242607D01*
X111107008Y-66303004D01*
X111096470Y-66409999D01*
X111092334Y-66451990D01*
X109880000Y-66451990D01*
X109880000Y-50190000D01*
X145390001Y-50190000D01*
X145390000Y-78080000D01*
%TA.AperFunction,Conductor*%
D28*
G36*
X145390000Y-78080000D02*
G01*
X109880000Y-78080000D01*
X109880000Y-66451990D01*
X111092334Y-66451990D01*
X111096011Y-66489322D01*
X111096010Y-74796668D01*
X111092334Y-74833990D01*
X111096010Y-74871312D01*
X111096010Y-74871322D01*
X111107007Y-74982975D01*
X111140237Y-75092521D01*
X111150464Y-75126236D01*
X111221036Y-75258266D01*
X111244650Y-75287039D01*
X111316009Y-75373991D01*
X111345013Y-75397794D01*
X111642216Y-75694997D01*
X111666019Y-75724001D01*
X111781744Y-75818974D01*
X111881487Y-75872289D01*
X112212200Y-76203002D01*
X112235999Y-76232001D01*
X112351724Y-76326974D01*
X112483753Y-76397546D01*
X112627014Y-76441003D01*
X112738667Y-76452000D01*
X112738676Y-76452000D01*
X112775999Y-76455676D01*
X112813322Y-76452000D01*
X114337333Y-76452000D01*
X114448986Y-76441003D01*
X114592247Y-76397546D01*
X114677456Y-76352000D01*
X132161522Y-76352000D01*
X132208119Y-76398597D01*
X132344879Y-76489977D01*
X132496840Y-76552921D01*
X132658160Y-76585010D01*
X132822640Y-76585010D01*
X132983960Y-76552921D01*
X133135921Y-76489977D01*
X133272681Y-76398597D01*
X133388987Y-76282291D01*
X133480367Y-76145531D01*
X133543311Y-75993570D01*
X133547247Y-75973784D01*
X133597031Y-76007049D01*
X133648155Y-76028225D01*
X133854866Y-76234936D01*
X133874829Y-76259261D01*
X133971901Y-76338926D01*
X134082649Y-76398122D01*
X134202818Y-76434575D01*
X134296478Y-76443800D01*
X134296486Y-76443800D01*
X134327790Y-76446883D01*
X134359094Y-76443800D01*
X135004071Y-76443800D01*
X135055193Y-76464975D01*
X135187533Y-76491300D01*
X135322467Y-76491300D01*
X135454807Y-76464975D01*
X135579469Y-76413339D01*
X135691662Y-76338374D01*
X135787074Y-76242962D01*
X135862039Y-76130769D01*
X135913675Y-76006107D01*
X135940000Y-75873767D01*
X135940000Y-75775000D01*
X140483895Y-75775000D01*
X140520000Y-75778556D01*
X140556105Y-75775000D01*
X140664085Y-75764365D01*
X140802633Y-75722337D01*
X140930320Y-75654087D01*
X141042238Y-75562238D01*
X141065259Y-75534187D01*
X141352186Y-75247260D01*
X141380237Y-75224239D01*
X141403257Y-75196189D01*
X141559374Y-75040072D01*
X142058000Y-75040072D01*
X142182482Y-75027812D01*
X142302180Y-74991502D01*
X142412494Y-74932537D01*
X142509185Y-74853185D01*
X142588537Y-74756494D01*
X142647502Y-74646180D01*
X142683812Y-74526482D01*
X142696072Y-74402000D01*
X142696072Y-73802000D01*
X142683812Y-73677518D01*
X142647502Y-73557820D01*
X142588537Y-73447506D01*
X142509185Y-73350815D01*
X142412494Y-73271463D01*
X142302180Y-73212498D01*
X142182482Y-73176188D01*
X142058000Y-73163928D01*
X140907440Y-73163928D01*
X140907440Y-73140072D01*
X142058000Y-73140072D01*
X142182482Y-73127812D01*
X142302180Y-73091502D01*
X142412494Y-73032537D01*
X142509185Y-72953185D01*
X142588537Y-72856494D01*
X142647502Y-72746180D01*
X142683812Y-72626482D01*
X142696072Y-72502000D01*
X142696072Y-71902000D01*
X142683812Y-71777518D01*
X142647502Y-71657820D01*
X142588537Y-71547506D01*
X142509185Y-71450815D01*
X142412494Y-71371463D01*
X142302180Y-71312498D01*
X142182482Y-71276188D01*
X142058000Y-71263928D01*
X140858000Y-71263928D01*
X140733518Y-71276188D01*
X140613820Y-71312498D01*
X140503506Y-71371463D01*
X140406815Y-71450815D01*
X140328030Y-71546815D01*
X140277233Y-71519663D01*
X140138685Y-71477635D01*
X140030705Y-71467000D01*
X140021743Y-71466117D01*
X140009185Y-71450815D01*
X139912494Y-71371463D01*
X139802180Y-71312498D01*
X139693000Y-71279379D01*
X139693000Y-70914226D01*
X141537857Y-69069370D01*
X141565897Y-69046358D01*
X141588910Y-69018317D01*
X141588913Y-69018314D01*
X141657747Y-68934440D01*
X141725997Y-68806754D01*
X141768025Y-68668205D01*
X141782216Y-68524120D01*
X141778660Y-68488015D01*
X141778660Y-57583986D01*
X142670697Y-56691950D01*
X142698737Y-56668938D01*
X142721750Y-56640897D01*
X142721753Y-56640894D01*
X142790587Y-56557020D01*
X142858837Y-56429334D01*
X142900865Y-56290785D01*
X142915056Y-56146700D01*
X142911500Y-56110595D01*
X142911500Y-54219384D01*
X142915056Y-54183279D01*
X142900865Y-54039194D01*
X142875048Y-53954087D01*
X142858837Y-53900647D01*
X142790587Y-53772960D01*
X142698738Y-53661042D01*
X142670693Y-53638026D01*
X142204072Y-53171406D01*
X142204072Y-52490000D01*
X142191812Y-52365518D01*
X142155502Y-52245820D01*
X142096537Y-52135506D01*
X142017185Y-52038815D01*
X141920494Y-51959463D01*
X141810180Y-51900498D01*
X141690482Y-51864188D01*
X141566000Y-51851928D01*
X139866000Y-51851928D01*
X139741518Y-51864188D01*
X139621820Y-51900498D01*
X139511506Y-51959463D01*
X139414815Y-52038815D01*
X139335463Y-52135506D01*
X139276498Y-52245820D01*
X139240188Y-52365518D01*
X139227928Y-52490000D01*
X139227928Y-54190000D01*
X139240188Y-54314482D01*
X139276498Y-54434180D01*
X139335463Y-54544494D01*
X139414815Y-54641185D01*
X139511506Y-54720537D01*
X139621820Y-54779502D01*
X139702466Y-54803966D01*
X139618412Y-54879731D01*
X139444359Y-55113080D01*
X139319175Y-55375901D01*
X139274524Y-55523110D01*
X139395845Y-55753000D01*
X140589000Y-55753000D01*
X140589000Y-55733000D01*
X140843000Y-55733000D01*
X140843000Y-55753000D01*
X140863000Y-55753000D01*
X140863000Y-56007000D01*
X140843000Y-56007000D01*
X140843000Y-56027000D01*
X140589000Y-56027000D01*
X140589000Y-56007000D01*
X139395845Y-56007000D01*
X139274524Y-56236890D01*
X139319175Y-56384099D01*
X139444359Y-56646920D01*
X139618412Y-56880269D01*
X139834645Y-57075178D01*
X140084748Y-57224157D01*
X140307429Y-57303149D01*
X140308661Y-57315655D01*
X140308660Y-68219673D01*
X138463808Y-70064526D01*
X138435763Y-70087542D01*
X138343914Y-70199460D01*
X138284730Y-70310185D01*
X138275664Y-70327147D01*
X138233635Y-70465695D01*
X138219444Y-70609780D01*
X138223001Y-70645895D01*
X138223001Y-71279378D01*
X138113820Y-71312498D01*
X138003506Y-71371463D01*
X137906815Y-71450815D01*
X137827463Y-71547506D01*
X137768498Y-71657820D01*
X137732188Y-71777518D01*
X137719928Y-71902000D01*
X137719928Y-72502000D01*
X137732188Y-72626482D01*
X137747512Y-72677000D01*
X137732188Y-72727518D01*
X137719928Y-72852000D01*
X137723000Y-72866250D01*
X137881750Y-73025000D01*
X137994322Y-73025000D01*
X138003506Y-73032537D01*
X138113820Y-73091502D01*
X138233518Y-73127812D01*
X138358000Y-73140072D01*
X139105000Y-73140072D01*
X139105000Y-73163928D01*
X138358000Y-73163928D01*
X138233518Y-73176188D01*
X138113820Y-73212498D01*
X138003506Y-73271463D01*
X137994322Y-73279000D01*
X137881750Y-73279000D01*
X137723000Y-73437750D01*
X137719928Y-73452000D01*
X137732188Y-73576482D01*
X137747512Y-73627000D01*
X137732188Y-73677518D01*
X137719928Y-73802000D01*
X137719928Y-73967001D01*
X136228386Y-73967001D01*
X133898526Y-71637141D01*
X133930350Y-71630811D01*
X134082311Y-71567867D01*
X134219071Y-71476487D01*
X134335377Y-71360181D01*
X134426757Y-71223421D01*
X134489701Y-71071460D01*
X134521790Y-70910140D01*
X134521790Y-70745660D01*
X134489701Y-70584340D01*
X134426757Y-70432379D01*
X134421790Y-70424945D01*
X134421790Y-67318483D01*
X134425346Y-67282378D01*
X134411155Y-67138293D01*
X134369127Y-66999744D01*
X134300877Y-66872058D01*
X134232043Y-66788184D01*
X134232040Y-66788181D01*
X134209027Y-66760140D01*
X134180987Y-66737128D01*
X131591267Y-64147409D01*
X131890647Y-64147409D01*
X131898967Y-64151856D01*
X131933684Y-64162388D01*
X131967209Y-64176274D01*
X132002795Y-64183353D01*
X132037515Y-64193885D01*
X132073620Y-64197441D01*
X132109209Y-64204520D01*
X132145502Y-64204520D01*
X132181599Y-64208075D01*
X132217696Y-64204520D01*
X132253991Y-64204520D01*
X132289581Y-64197441D01*
X132325684Y-64193885D01*
X132360402Y-64183353D01*
X132395991Y-64176274D01*
X132429517Y-64162387D01*
X132464233Y-64151856D01*
X132496226Y-64134755D01*
X132529753Y-64120868D01*
X132559930Y-64100705D01*
X132591919Y-64083606D01*
X132619954Y-64060598D01*
X132650135Y-64040432D01*
X132675803Y-64014764D01*
X132703837Y-63991757D01*
X132726844Y-63963723D01*
X132752512Y-63938055D01*
X132772678Y-63907874D01*
X132795686Y-63879839D01*
X132812785Y-63847850D01*
X132832948Y-63817673D01*
X132846835Y-63784146D01*
X132863936Y-63752153D01*
X132874467Y-63717437D01*
X132888354Y-63683911D01*
X132895433Y-63648322D01*
X132905965Y-63613604D01*
X132909521Y-63577501D01*
X132916600Y-63541911D01*
X132916600Y-63505616D01*
X132920155Y-63469519D01*
X132916600Y-63433422D01*
X132916600Y-63397129D01*
X132909521Y-63361540D01*
X132905965Y-63325435D01*
X132895433Y-63290715D01*
X132888354Y-63255129D01*
X132874468Y-63221604D01*
X132863936Y-63186887D01*
X132846835Y-63154893D01*
X132832948Y-63121367D01*
X132812787Y-63091193D01*
X132795686Y-63059200D01*
X132772674Y-63031160D01*
X132752512Y-63000985D01*
X132701572Y-62950045D01*
X132711867Y-62937500D01*
X132728972Y-62905499D01*
X132749128Y-62875333D01*
X132763012Y-62841815D01*
X132780117Y-62809813D01*
X132790650Y-62775089D01*
X132804534Y-62741571D01*
X132811612Y-62705987D01*
X132822145Y-62671265D01*
X132825701Y-62635158D01*
X132832780Y-62599571D01*
X132832780Y-62563285D01*
X132836336Y-62527180D01*
X132832780Y-62491075D01*
X132832780Y-62454789D01*
X132825701Y-62419202D01*
X132822145Y-62383095D01*
X132811612Y-62348373D01*
X132804534Y-62312789D01*
X132790650Y-62279271D01*
X132780117Y-62244547D01*
X132763012Y-62212545D01*
X132749128Y-62179027D01*
X132728972Y-62148861D01*
X132711867Y-62116860D01*
X132688850Y-62088814D01*
X132668692Y-62058645D01*
X132643034Y-62032987D01*
X132620018Y-62004942D01*
X132591973Y-61981926D01*
X132566315Y-61956268D01*
X132536146Y-61936110D01*
X132508100Y-61913093D01*
X132476099Y-61895988D01*
X132445933Y-61875832D01*
X132412415Y-61861948D01*
X132380413Y-61844843D01*
X132345689Y-61834310D01*
X132312171Y-61820426D01*
X132276587Y-61813348D01*
X132241865Y-61802815D01*
X132205758Y-61799259D01*
X132170171Y-61792180D01*
X129514245Y-61792180D01*
X130530320Y-60776106D01*
X130554738Y-60756067D01*
X130634715Y-60658614D01*
X130694143Y-60547431D01*
X130730739Y-60426791D01*
X130740000Y-60332763D01*
X130740000Y-60332762D01*
X130743096Y-60301330D01*
X130740000Y-60269896D01*
X130740000Y-55617320D01*
X130788675Y-55499807D01*
X130815000Y-55367467D01*
X130815000Y-55232533D01*
X130788675Y-55100193D01*
X130737039Y-54975531D01*
X130662074Y-54863338D01*
X130566662Y-54767926D01*
X130454469Y-54692961D01*
X130329807Y-54641325D01*
X130197467Y-54615000D01*
X130062533Y-54615000D01*
X129930193Y-54641325D01*
X129805531Y-54692961D01*
X129693338Y-54767926D01*
X129597926Y-54863338D01*
X129522961Y-54975531D01*
X129471325Y-55100193D01*
X129445000Y-55232533D01*
X129445000Y-55367467D01*
X129460001Y-55442879D01*
X129460000Y-60036232D01*
X128086233Y-61410000D01*
X123061433Y-61410000D01*
X123029999Y-61406904D01*
X122904537Y-61419261D01*
X122867941Y-61430363D01*
X122783898Y-61455857D01*
X122672715Y-61515285D01*
X122575262Y-61595262D01*
X122555224Y-61619679D01*
X122080618Y-62094286D01*
X122035531Y-62112961D01*
X121923338Y-62187926D01*
X121827926Y-62283338D01*
X121752961Y-62395531D01*
X121701325Y-62520193D01*
X121675000Y-62652533D01*
X121675000Y-62787467D01*
X121701325Y-62919807D01*
X121736502Y-63004732D01*
X120677300Y-64063934D01*
X120677300Y-60261694D01*
X125006294Y-55932700D01*
X125737589Y-55932700D01*
X125688063Y-55982226D01*
X125574795Y-56151744D01*
X125496774Y-56340102D01*
X125457000Y-56540061D01*
X125457000Y-56743939D01*
X125496774Y-56943898D01*
X125574795Y-57132256D01*
X125688063Y-57301774D01*
X125780513Y-57394224D01*
X125809663Y-57490318D01*
X125877914Y-57618005D01*
X125969763Y-57729923D01*
X126081681Y-57821772D01*
X126209368Y-57890022D01*
X126347916Y-57932050D01*
X126492000Y-57946241D01*
X126636085Y-57932050D01*
X126774633Y-57890022D01*
X126902320Y-57821772D01*
X127014238Y-57729923D01*
X127070917Y-57660860D01*
X127152061Y-57677000D01*
X127355939Y-57677000D01*
X127555898Y-57637226D01*
X127744256Y-57559205D01*
X127913774Y-57445937D01*
X128057937Y-57301774D01*
X128171205Y-57132256D01*
X128249226Y-56943898D01*
X128289000Y-56743939D01*
X128289000Y-56540061D01*
X128249226Y-56340102D01*
X128171205Y-56151744D01*
X128057937Y-55982226D01*
X127929000Y-55853289D01*
X127929000Y-55849652D01*
X127932265Y-55816500D01*
X127929000Y-55783348D01*
X127929000Y-55783341D01*
X127919233Y-55684177D01*
X127911076Y-55657285D01*
X127880636Y-55556939D01*
X127817958Y-55439676D01*
X127777208Y-55390023D01*
X127754744Y-55362650D01*
X127754738Y-55362644D01*
X127733605Y-55336894D01*
X127707857Y-55315763D01*
X127195942Y-54803848D01*
X127174806Y-54778094D01*
X127072024Y-54693742D01*
X126954761Y-54631064D01*
X126827523Y-54592467D01*
X126728359Y-54582700D01*
X126728352Y-54582700D01*
X126695200Y-54579435D01*
X126662048Y-54582700D01*
X124759852Y-54582700D01*
X124726700Y-54579435D01*
X124693548Y-54582700D01*
X124693541Y-54582700D01*
X124606892Y-54591234D01*
X124594376Y-54592467D01*
X124520095Y-54615000D01*
X124467139Y-54631064D01*
X124349876Y-54693742D01*
X124247094Y-54778094D01*
X124225958Y-54803848D01*
X119548443Y-59481363D01*
X119522695Y-59502494D01*
X119501564Y-59528242D01*
X119501556Y-59528250D01*
X119438343Y-59605276D01*
X119375665Y-59722539D01*
X119337067Y-59849777D01*
X119324035Y-59982100D01*
X119327301Y-60015262D01*
X119327300Y-64529748D01*
X119295546Y-64606409D01*
X119267300Y-64748409D01*
X119267300Y-64893191D01*
X119295546Y-65035191D01*
X119350952Y-65168953D01*
X119431388Y-65289335D01*
X119533765Y-65391712D01*
X119654147Y-65472148D01*
X119787909Y-65527554D01*
X119929909Y-65555800D01*
X120074691Y-65555800D01*
X120151221Y-65540577D01*
X120151220Y-66765895D01*
X120147664Y-66802000D01*
X120161855Y-66946085D01*
X120164682Y-66955403D01*
X120173866Y-66985680D01*
X119416780Y-66228594D01*
X119416780Y-66131101D01*
X119377006Y-65931142D01*
X119298985Y-65742784D01*
X119185717Y-65573266D01*
X119041554Y-65429103D01*
X118872036Y-65315835D01*
X118683678Y-65237814D01*
X118483719Y-65198040D01*
X118279841Y-65198040D01*
X118079882Y-65237814D01*
X117891524Y-65315835D01*
X117722006Y-65429103D01*
X117577843Y-65573266D01*
X117464575Y-65742784D01*
X117462582Y-65747596D01*
X114974799Y-63259813D01*
X114951778Y-63231762D01*
X114839860Y-63139913D01*
X114712173Y-63071663D01*
X114592782Y-63035446D01*
X114584812Y-62954518D01*
X114548502Y-62834820D01*
X114489537Y-62724506D01*
X114410185Y-62627815D01*
X114313494Y-62548463D01*
X114203180Y-62489498D01*
X114083482Y-62453188D01*
X113959000Y-62440928D01*
X112609000Y-62440928D01*
X112484518Y-62453188D01*
X112364820Y-62489498D01*
X112254506Y-62548463D01*
X112157815Y-62627815D01*
X112078463Y-62724506D01*
X112019498Y-62834820D01*
X111983188Y-62954518D01*
X111970928Y-63079000D01*
X111970928Y-64429000D01*
X111983188Y-64553482D01*
X112019498Y-64673180D01*
X112078463Y-64783494D01*
X112157815Y-64880185D01*
X112244697Y-64951487D01*
X112134435Y-65116507D01*
X112129723Y-65119026D01*
X112058969Y-65177093D01*
X112013999Y-65213999D01*
X111990201Y-65242998D01*
X111345008Y-65888191D01*
X111316010Y-65911989D01*
X111292212Y-65940987D01*
X111292211Y-65940988D01*
X111221036Y-66027714D01*
X111150464Y-66159744D01*
X111125329Y-66242607D01*
X111107008Y-66303004D01*
X111096470Y-66409999D01*
X111092334Y-66451990D01*
X109880000Y-66451990D01*
X109880000Y-50190000D01*
X145390001Y-50190000D01*
X145390000Y-78080000D01*
G37*
%TD.AperFunction*%
D31*
X119980286Y-70344193D02*
X120003302Y-70372238D01*
X120115220Y-70464087D01*
X120242907Y-70532337D01*
X120379180Y-70573675D01*
X120381455Y-70574365D01*
X120525540Y-70588556D01*
X120561645Y-70585000D01*
X122386421Y-70585000D01*
X122386420Y-72983815D01*
X122382864Y-73019920D01*
X122397055Y-73164005D01*
X122402585Y-73182233D01*
X122439083Y-73302552D01*
X122507333Y-73430239D01*
X122599182Y-73542157D01*
X122627228Y-73565174D01*
X123632053Y-74570000D01*
X121175096Y-74570000D01*
X120975715Y-74370619D01*
X120957039Y-74325531D01*
X120882074Y-74213338D01*
X120786662Y-74117926D01*
X120674469Y-74042961D01*
X120549807Y-73991325D01*
X120417467Y-73965000D01*
X120282533Y-73965000D01*
X120150193Y-73991325D01*
X120025531Y-74042961D01*
X119913338Y-74117926D01*
X119817926Y-74213338D01*
X119742961Y-74325531D01*
X119724286Y-74370617D01*
X119308242Y-74786661D01*
X119239807Y-74758315D01*
X119107467Y-74731990D01*
X118972533Y-74731990D01*
X118840193Y-74758315D01*
X118715531Y-74809951D01*
X118603338Y-74884916D01*
X118507926Y-74980328D01*
X118473400Y-75032000D01*
X114677456Y-75032000D01*
X114592247Y-74986454D01*
X114448986Y-74942997D01*
X114337333Y-74932000D01*
X113856539Y-74932000D01*
X114073537Y-74799344D01*
X114262303Y-74625227D01*
X114413473Y-74417629D01*
X114521238Y-74184528D01*
X114551910Y-74083400D01*
X114428224Y-73881000D01*
X113411000Y-73881000D01*
X113411000Y-73901000D01*
X113157000Y-73901000D01*
X113157000Y-73881000D01*
X113137000Y-73881000D01*
X113137000Y-73627000D01*
X113157000Y-73627000D01*
X113157000Y-73607000D01*
X113411000Y-73607000D01*
X113411000Y-73627000D01*
X114428224Y-73627000D01*
X114551910Y-73424600D01*
X114521238Y-73323472D01*
X114413473Y-73090371D01*
X114262303Y-72882773D01*
X114129940Y-72760681D01*
X114301544Y-72589077D01*
X114444907Y-72374518D01*
X114543658Y-72136113D01*
X114594000Y-71883024D01*
X114594000Y-71624976D01*
X114543658Y-71371887D01*
X114444907Y-71133482D01*
X114301544Y-70918923D01*
X114136621Y-70754000D01*
X114301544Y-70589077D01*
X114444907Y-70374518D01*
X114543658Y-70136113D01*
X114594000Y-69883024D01*
X114594000Y-69624976D01*
X114543658Y-69371887D01*
X114444907Y-69133482D01*
X114301544Y-68918923D01*
X114136621Y-68754000D01*
X114301544Y-68589077D01*
X114444907Y-68374518D01*
X114543658Y-68136113D01*
X114594000Y-67883024D01*
X114594000Y-67624976D01*
X114543658Y-67371887D01*
X114444907Y-67133482D01*
X114301544Y-66918923D01*
X114136621Y-66754000D01*
X114301544Y-66589077D01*
X114444907Y-66374518D01*
X114543658Y-66136113D01*
X114594000Y-65883024D01*
X114594000Y-65624976D01*
X114543658Y-65371887D01*
X114444907Y-65133482D01*
X114323303Y-64951487D01*
X114410185Y-64880185D01*
X114458007Y-64821913D01*
X119980286Y-70344193D01*
%TA.AperFunction,Conductor*%
D28*
G36*
X119980286Y-70344193D02*
G01*
X120003302Y-70372238D01*
X120115220Y-70464087D01*
X120242907Y-70532337D01*
X120379180Y-70573675D01*
X120381455Y-70574365D01*
X120525540Y-70588556D01*
X120561645Y-70585000D01*
X122386421Y-70585000D01*
X122386420Y-72983815D01*
X122382864Y-73019920D01*
X122397055Y-73164005D01*
X122402585Y-73182233D01*
X122439083Y-73302552D01*
X122507333Y-73430239D01*
X122599182Y-73542157D01*
X122627228Y-73565174D01*
X123632053Y-74570000D01*
X121175096Y-74570000D01*
X120975715Y-74370619D01*
X120957039Y-74325531D01*
X120882074Y-74213338D01*
X120786662Y-74117926D01*
X120674469Y-74042961D01*
X120549807Y-73991325D01*
X120417467Y-73965000D01*
X120282533Y-73965000D01*
X120150193Y-73991325D01*
X120025531Y-74042961D01*
X119913338Y-74117926D01*
X119817926Y-74213338D01*
X119742961Y-74325531D01*
X119724286Y-74370617D01*
X119308242Y-74786661D01*
X119239807Y-74758315D01*
X119107467Y-74731990D01*
X118972533Y-74731990D01*
X118840193Y-74758315D01*
X118715531Y-74809951D01*
X118603338Y-74884916D01*
X118507926Y-74980328D01*
X118473400Y-75032000D01*
X114677456Y-75032000D01*
X114592247Y-74986454D01*
X114448986Y-74942997D01*
X114337333Y-74932000D01*
X113856539Y-74932000D01*
X114073537Y-74799344D01*
X114262303Y-74625227D01*
X114413473Y-74417629D01*
X114521238Y-74184528D01*
X114551910Y-74083400D01*
X114428224Y-73881000D01*
X113411000Y-73881000D01*
X113411000Y-73901000D01*
X113157000Y-73901000D01*
X113157000Y-73881000D01*
X113137000Y-73881000D01*
X113137000Y-73627000D01*
X113157000Y-73627000D01*
X113157000Y-73607000D01*
X113411000Y-73607000D01*
X113411000Y-73627000D01*
X114428224Y-73627000D01*
X114551910Y-73424600D01*
X114521238Y-73323472D01*
X114413473Y-73090371D01*
X114262303Y-72882773D01*
X114129940Y-72760681D01*
X114301544Y-72589077D01*
X114444907Y-72374518D01*
X114543658Y-72136113D01*
X114594000Y-71883024D01*
X114594000Y-71624976D01*
X114543658Y-71371887D01*
X114444907Y-71133482D01*
X114301544Y-70918923D01*
X114136621Y-70754000D01*
X114301544Y-70589077D01*
X114444907Y-70374518D01*
X114543658Y-70136113D01*
X114594000Y-69883024D01*
X114594000Y-69624976D01*
X114543658Y-69371887D01*
X114444907Y-69133482D01*
X114301544Y-68918923D01*
X114136621Y-68754000D01*
X114301544Y-68589077D01*
X114444907Y-68374518D01*
X114543658Y-68136113D01*
X114594000Y-67883024D01*
X114594000Y-67624976D01*
X114543658Y-67371887D01*
X114444907Y-67133482D01*
X114301544Y-66918923D01*
X114136621Y-66754000D01*
X114301544Y-66589077D01*
X114444907Y-66374518D01*
X114543658Y-66136113D01*
X114594000Y-65883024D01*
X114594000Y-65624976D01*
X114543658Y-65371887D01*
X114444907Y-65133482D01*
X114323303Y-64951487D01*
X114410185Y-64880185D01*
X114458007Y-64821913D01*
X119980286Y-70344193D01*
G37*
%TD.AperFunction*%
D31*
X128397000Y-68707000D02*
X128417000Y-68707000D01*
X128417000Y-68961000D01*
X128397000Y-68961000D01*
X128397000Y-68981000D01*
X128143000Y-68981000D01*
X128143000Y-68961000D01*
X128123000Y-68961000D01*
X128123000Y-68707000D01*
X128143000Y-68707000D01*
X128143000Y-68687000D01*
X128397000Y-68687000D01*
X128397000Y-68707000D01*
%TA.AperFunction,Conductor*%
D28*
G36*
X128397000Y-68707000D02*
G01*
X128417000Y-68707000D01*
X128417000Y-68961000D01*
X128397000Y-68961000D01*
X128397000Y-68981000D01*
X128143000Y-68981000D01*
X128143000Y-68961000D01*
X128123000Y-68961000D01*
X128123000Y-68707000D01*
X128143000Y-68707000D01*
X128143000Y-68687000D01*
X128397000Y-68687000D01*
X128397000Y-68707000D01*
G37*
%TD.AperFunction*%
D31*
X131638601Y-68282060D02*
X131614635Y-68284420D01*
X131578349Y-68284420D01*
X131542762Y-68291499D01*
X131506655Y-68295055D01*
X131471933Y-68305588D01*
X131436349Y-68312666D01*
X131402831Y-68326550D01*
X131368107Y-68337083D01*
X131355393Y-68343879D01*
X131283072Y-68343879D01*
X131283072Y-68259000D01*
X131278506Y-68212640D01*
X131638601Y-68212640D01*
X131638601Y-68282060D01*
%TA.AperFunction,Conductor*%
D28*
G36*
X131638601Y-68282060D02*
G01*
X131614635Y-68284420D01*
X131578349Y-68284420D01*
X131542762Y-68291499D01*
X131506655Y-68295055D01*
X131471933Y-68305588D01*
X131436349Y-68312666D01*
X131402831Y-68326550D01*
X131368107Y-68337083D01*
X131355393Y-68343879D01*
X131283072Y-68343879D01*
X131283072Y-68259000D01*
X131278506Y-68212640D01*
X131638601Y-68212640D01*
X131638601Y-68282060D01*
G37*
%TD.AperFunction*%
%TD*%
M02*
