G04 #@! TF.FileFunction,Legend,Top*
%FSLAX46Y46*%
G04 Gerber Fmt 4.6, Leading zero omitted, Abs format (unit mm)*
G04 Created by KiCad (PCBNEW 4.0.5) date 11/03/19 14:13:05*
%MOMM*%
%LPD*%
G01*
G04 APERTURE LIST*
%ADD10C,0.100000*%
%ADD11C,0.120000*%
%ADD12C,0.150000*%
G04 APERTURE END LIST*
D10*
D11*
X123295665Y-72198608D02*
G75*
G03X126528000Y-72355516I1672335J1078608D01*
G01*
X123295665Y-70041392D02*
G75*
G02X126528000Y-69884484I1672335J-1078608D01*
G01*
X123926870Y-72199837D02*
G75*
G03X126008961Y-72200000I1041130J1079837D01*
G01*
X123926870Y-70040163D02*
G75*
G02X126008961Y-70040000I1041130J-1079837D01*
G01*
X126528000Y-72356000D02*
X126528000Y-72200000D01*
X126528000Y-70040000D02*
X126528000Y-69884000D01*
X123295665Y-67118608D02*
G75*
G03X126528000Y-67275516I1672335J1078608D01*
G01*
X123295665Y-64961392D02*
G75*
G02X126528000Y-64804484I1672335J-1078608D01*
G01*
X123926870Y-67119837D02*
G75*
G03X126008961Y-67120000I1041130J1079837D01*
G01*
X123926870Y-64960163D02*
G75*
G02X126008961Y-64960000I1041130J-1079837D01*
G01*
X126528000Y-67276000D02*
X126528000Y-67120000D01*
X126528000Y-64960000D02*
X126528000Y-64804000D01*
X123295665Y-62038608D02*
G75*
G03X126528000Y-62195516I1672335J1078608D01*
G01*
X123295665Y-59881392D02*
G75*
G02X126528000Y-59724484I1672335J-1078608D01*
G01*
X123926870Y-62039837D02*
G75*
G03X126008961Y-62040000I1041130J1079837D01*
G01*
X123926870Y-59880163D02*
G75*
G02X126008961Y-59880000I1041130J-1079837D01*
G01*
X126528000Y-62196000D02*
X126528000Y-62040000D01*
X126528000Y-59880000D02*
X126528000Y-59724000D01*
X163643000Y-82219000D02*
X165033000Y-82219000D01*
X163643000Y-82219000D02*
X163643000Y-82094000D01*
X165033000Y-82219000D02*
X165033000Y-82094000D01*
X163643000Y-82219000D02*
X163729724Y-82219000D01*
X164946276Y-82219000D02*
X165033000Y-82219000D01*
X163643000Y-81534000D02*
X163643000Y-80849000D01*
X163643000Y-80849000D02*
X164338000Y-80849000D01*
X120209000Y-71805000D02*
X121599000Y-71805000D01*
X120209000Y-71805000D02*
X120209000Y-71680000D01*
X121599000Y-71805000D02*
X121599000Y-71680000D01*
X120209000Y-71805000D02*
X120295724Y-71805000D01*
X121512276Y-71805000D02*
X121599000Y-71805000D01*
X120209000Y-71120000D02*
X120209000Y-70435000D01*
X120209000Y-70435000D02*
X120904000Y-70435000D01*
X164405000Y-75361000D02*
X165795000Y-75361000D01*
X164405000Y-75361000D02*
X164405000Y-75236000D01*
X165795000Y-75361000D02*
X165795000Y-75236000D01*
X164405000Y-75361000D02*
X164491724Y-75361000D01*
X165708276Y-75361000D02*
X165795000Y-75361000D01*
X164405000Y-74676000D02*
X164405000Y-73991000D01*
X164405000Y-73991000D02*
X165100000Y-73991000D01*
X156785000Y-71805000D02*
X158175000Y-71805000D01*
X156785000Y-71805000D02*
X156785000Y-71680000D01*
X158175000Y-71805000D02*
X158175000Y-71680000D01*
X156785000Y-71805000D02*
X156871724Y-71805000D01*
X158088276Y-71805000D02*
X158175000Y-71805000D01*
X156785000Y-71120000D02*
X156785000Y-70435000D01*
X156785000Y-70435000D02*
X157480000Y-70435000D01*
X136973000Y-64693000D02*
X138363000Y-64693000D01*
X136973000Y-64693000D02*
X136973000Y-64568000D01*
X138363000Y-64693000D02*
X138363000Y-64568000D01*
X136973000Y-64693000D02*
X137059724Y-64693000D01*
X138276276Y-64693000D02*
X138363000Y-64693000D01*
X136973000Y-64008000D02*
X136973000Y-63323000D01*
X136973000Y-63323000D02*
X137668000Y-63323000D01*
D12*
X151556000Y-80010000D02*
G75*
G03X151556000Y-80010000I-400000J0D01*
G01*
X159956000Y-80010000D02*
G75*
G03X159956000Y-80010000I-4000000J0D01*
G01*
X161556000Y-80010000D02*
G75*
G03X161556000Y-80010000I-5600000J0D01*
G01*
X139110000Y-80010000D02*
G75*
G03X139110000Y-80010000I-400000J0D01*
G01*
X147510000Y-80010000D02*
G75*
G03X147510000Y-80010000I-4000000J0D01*
G01*
X149110000Y-80010000D02*
G75*
G03X149110000Y-80010000I-5600000J0D01*
G01*
X126918000Y-80264000D02*
G75*
G03X126918000Y-80264000I-400000J0D01*
G01*
X135318000Y-80264000D02*
G75*
G03X135318000Y-80264000I-4000000J0D01*
G01*
X136918000Y-80264000D02*
G75*
G03X136918000Y-80264000I-5600000J0D01*
G01*
X162560000Y-68326000D02*
X162560000Y-73406000D01*
X162560000Y-73406000D02*
X160020000Y-73406000D01*
X160020000Y-73406000D02*
X160020000Y-68326000D01*
X160020000Y-68326000D02*
X162560000Y-68326000D01*
X147320000Y-66040000D02*
X152400000Y-66040000D01*
X152400000Y-66040000D02*
X152400000Y-68580000D01*
X152400000Y-68580000D02*
X147320000Y-68580000D01*
X147320000Y-68580000D02*
X147320000Y-66040000D01*
X147320000Y-69850000D02*
X152400000Y-69850000D01*
X152400000Y-69850000D02*
X152400000Y-72390000D01*
X152400000Y-72390000D02*
X147320000Y-72390000D01*
X147320000Y-72390000D02*
X147320000Y-69850000D01*
X132080000Y-69850000D02*
X137160000Y-69850000D01*
X137160000Y-69850000D02*
X137160000Y-72390000D01*
X137160000Y-72390000D02*
X132080000Y-72390000D01*
X132080000Y-72390000D02*
X132080000Y-69850000D01*
X132080000Y-66040000D02*
X137160000Y-66040000D01*
X137160000Y-66040000D02*
X137160000Y-68580000D01*
X137160000Y-68580000D02*
X132080000Y-68580000D01*
X132080000Y-68580000D02*
X132080000Y-66040000D01*
X143510000Y-66040000D02*
X143510000Y-71120000D01*
X143510000Y-71120000D02*
X140970000Y-71120000D01*
X140970000Y-71120000D02*
X140970000Y-66040000D01*
X140970000Y-66040000D02*
X143510000Y-66040000D01*
D11*
X163643000Y-79933000D02*
X165033000Y-79933000D01*
X163643000Y-79933000D02*
X163643000Y-79808000D01*
X165033000Y-79933000D02*
X165033000Y-79808000D01*
X163643000Y-79933000D02*
X163729724Y-79933000D01*
X164946276Y-79933000D02*
X165033000Y-79933000D01*
X163643000Y-79248000D02*
X163643000Y-78563000D01*
X163643000Y-78563000D02*
X164338000Y-78563000D01*
D12*
X124102905Y-73985381D02*
X124102905Y-72985381D01*
X124341000Y-72985381D01*
X124483858Y-73033000D01*
X124579096Y-73128238D01*
X124626715Y-73223476D01*
X124674334Y-73413952D01*
X124674334Y-73556810D01*
X124626715Y-73747286D01*
X124579096Y-73842524D01*
X124483858Y-73937762D01*
X124341000Y-73985381D01*
X124102905Y-73985381D01*
X125626715Y-73985381D02*
X125055286Y-73985381D01*
X125341000Y-73985381D02*
X125341000Y-72985381D01*
X125245762Y-73128238D01*
X125150524Y-73223476D01*
X125055286Y-73271095D01*
X120673905Y-66365381D02*
X120673905Y-65365381D01*
X120912000Y-65365381D01*
X121054858Y-65413000D01*
X121150096Y-65508238D01*
X121197715Y-65603476D01*
X121245334Y-65793952D01*
X121245334Y-65936810D01*
X121197715Y-66127286D01*
X121150096Y-66222524D01*
X121054858Y-66317762D01*
X120912000Y-66365381D01*
X120673905Y-66365381D01*
X121626286Y-65460619D02*
X121673905Y-65413000D01*
X121769143Y-65365381D01*
X122007239Y-65365381D01*
X122102477Y-65413000D01*
X122150096Y-65460619D01*
X122197715Y-65555857D01*
X122197715Y-65651095D01*
X122150096Y-65793952D01*
X121578667Y-66365381D01*
X122197715Y-66365381D01*
X124610905Y-58110381D02*
X124610905Y-57110381D01*
X124849000Y-57110381D01*
X124991858Y-57158000D01*
X125087096Y-57253238D01*
X125134715Y-57348476D01*
X125182334Y-57538952D01*
X125182334Y-57681810D01*
X125134715Y-57872286D01*
X125087096Y-57967524D01*
X124991858Y-58062762D01*
X124849000Y-58110381D01*
X124610905Y-58110381D01*
X125515667Y-57110381D02*
X126134715Y-57110381D01*
X125801381Y-57491333D01*
X125944239Y-57491333D01*
X126039477Y-57538952D01*
X126087096Y-57586571D01*
X126134715Y-57681810D01*
X126134715Y-57919905D01*
X126087096Y-58015143D01*
X126039477Y-58062762D01*
X125944239Y-58110381D01*
X125658524Y-58110381D01*
X125563286Y-58062762D01*
X125515667Y-58015143D01*
X166663714Y-83970666D02*
X167473238Y-83970666D01*
X167568476Y-84018285D01*
X167616095Y-84065904D01*
X167663714Y-84161143D01*
X167663714Y-84304000D01*
X167616095Y-84399238D01*
X167282762Y-83970666D02*
X167330381Y-84065904D01*
X167330381Y-84256381D01*
X167282762Y-84351619D01*
X167235143Y-84399238D01*
X167139905Y-84446857D01*
X166854190Y-84446857D01*
X166758952Y-84399238D01*
X166711333Y-84351619D01*
X166663714Y-84256381D01*
X166663714Y-84065904D01*
X166711333Y-83970666D01*
X166663714Y-83494476D02*
X167330381Y-83494476D01*
X166758952Y-83494476D02*
X166711333Y-83446857D01*
X166663714Y-83351619D01*
X166663714Y-83208761D01*
X166711333Y-83113523D01*
X166806571Y-83065904D01*
X167330381Y-83065904D01*
X167330381Y-82161142D02*
X166330381Y-82161142D01*
X167282762Y-82161142D02*
X167330381Y-82256380D01*
X167330381Y-82446857D01*
X167282762Y-82542095D01*
X167235143Y-82589714D01*
X167139905Y-82637333D01*
X166854190Y-82637333D01*
X166758952Y-82589714D01*
X166711333Y-82542095D01*
X166663714Y-82446857D01*
X166663714Y-82256380D01*
X166711333Y-82161142D01*
X167330381Y-81161142D02*
X167330381Y-81732571D01*
X167330381Y-81446857D02*
X166330381Y-81446857D01*
X166473238Y-81542095D01*
X166568476Y-81637333D01*
X166616095Y-81732571D01*
X120094476Y-70012381D02*
X120094476Y-69012381D01*
X120427810Y-69726667D01*
X120761143Y-69012381D01*
X120761143Y-70012381D01*
X121761143Y-70012381D02*
X121189714Y-70012381D01*
X121475428Y-70012381D02*
X121475428Y-69012381D01*
X121380190Y-69155238D01*
X121284952Y-69250476D01*
X121189714Y-69298095D01*
X164290476Y-73568381D02*
X164290476Y-72568381D01*
X164623810Y-73282667D01*
X164957143Y-72568381D01*
X164957143Y-73568381D01*
X165385714Y-72663619D02*
X165433333Y-72616000D01*
X165528571Y-72568381D01*
X165766667Y-72568381D01*
X165861905Y-72616000D01*
X165909524Y-72663619D01*
X165957143Y-72758857D01*
X165957143Y-72854095D01*
X165909524Y-72996952D01*
X165338095Y-73568381D01*
X165957143Y-73568381D01*
X156670476Y-70012381D02*
X156670476Y-69012381D01*
X157003810Y-69726667D01*
X157337143Y-69012381D01*
X157337143Y-70012381D01*
X157718095Y-69012381D02*
X158337143Y-69012381D01*
X158003809Y-69393333D01*
X158146667Y-69393333D01*
X158241905Y-69440952D01*
X158289524Y-69488571D01*
X158337143Y-69583810D01*
X158337143Y-69821905D01*
X158289524Y-69917143D01*
X158241905Y-69964762D01*
X158146667Y-70012381D01*
X157860952Y-70012381D01*
X157765714Y-69964762D01*
X157718095Y-69917143D01*
X136858476Y-62900381D02*
X136858476Y-61900381D01*
X137191810Y-62614667D01*
X137525143Y-61900381D01*
X137525143Y-62900381D01*
X138429905Y-62233714D02*
X138429905Y-62900381D01*
X138191809Y-61852762D02*
X137953714Y-62567048D01*
X138572762Y-62567048D01*
X156114762Y-86907619D02*
X156019524Y-86860000D01*
X155924286Y-86764762D01*
X155781429Y-86621905D01*
X155686190Y-86574286D01*
X155590952Y-86574286D01*
X155638571Y-86812381D02*
X155543333Y-86764762D01*
X155448095Y-86669524D01*
X155400476Y-86479048D01*
X155400476Y-86145714D01*
X155448095Y-85955238D01*
X155543333Y-85860000D01*
X155638571Y-85812381D01*
X155829048Y-85812381D01*
X155924286Y-85860000D01*
X156019524Y-85955238D01*
X156067143Y-86145714D01*
X156067143Y-86479048D01*
X156019524Y-86669524D01*
X155924286Y-86764762D01*
X155829048Y-86812381D01*
X155638571Y-86812381D01*
X157019524Y-86812381D02*
X156448095Y-86812381D01*
X156733809Y-86812381D02*
X156733809Y-85812381D01*
X156638571Y-85955238D01*
X156543333Y-86050476D01*
X156448095Y-86098095D01*
X143541762Y-87415619D02*
X143446524Y-87368000D01*
X143351286Y-87272762D01*
X143208429Y-87129905D01*
X143113190Y-87082286D01*
X143017952Y-87082286D01*
X143065571Y-87320381D02*
X142970333Y-87272762D01*
X142875095Y-87177524D01*
X142827476Y-86987048D01*
X142827476Y-86653714D01*
X142875095Y-86463238D01*
X142970333Y-86368000D01*
X143065571Y-86320381D01*
X143256048Y-86320381D01*
X143351286Y-86368000D01*
X143446524Y-86463238D01*
X143494143Y-86653714D01*
X143494143Y-86987048D01*
X143446524Y-87177524D01*
X143351286Y-87272762D01*
X143256048Y-87320381D01*
X143065571Y-87320381D01*
X143875095Y-86415619D02*
X143922714Y-86368000D01*
X144017952Y-86320381D01*
X144256048Y-86320381D01*
X144351286Y-86368000D01*
X144398905Y-86415619D01*
X144446524Y-86510857D01*
X144446524Y-86606095D01*
X144398905Y-86748952D01*
X143827476Y-87320381D01*
X144446524Y-87320381D01*
X131222762Y-87415619D02*
X131127524Y-87368000D01*
X131032286Y-87272762D01*
X130889429Y-87129905D01*
X130794190Y-87082286D01*
X130698952Y-87082286D01*
X130746571Y-87320381D02*
X130651333Y-87272762D01*
X130556095Y-87177524D01*
X130508476Y-86987048D01*
X130508476Y-86653714D01*
X130556095Y-86463238D01*
X130651333Y-86368000D01*
X130746571Y-86320381D01*
X130937048Y-86320381D01*
X131032286Y-86368000D01*
X131127524Y-86463238D01*
X131175143Y-86653714D01*
X131175143Y-86987048D01*
X131127524Y-87177524D01*
X131032286Y-87272762D01*
X130937048Y-87320381D01*
X130746571Y-87320381D01*
X131508476Y-86320381D02*
X132127524Y-86320381D01*
X131794190Y-86701333D01*
X131937048Y-86701333D01*
X132032286Y-86748952D01*
X132079905Y-86796571D01*
X132127524Y-86891810D01*
X132127524Y-87129905D01*
X132079905Y-87225143D01*
X132032286Y-87272762D01*
X131937048Y-87320381D01*
X131651333Y-87320381D01*
X131556095Y-87272762D01*
X131508476Y-87225143D01*
X161996381Y-70905666D02*
X161520190Y-71239000D01*
X161996381Y-71477095D02*
X160996381Y-71477095D01*
X160996381Y-71096142D01*
X161044000Y-71000904D01*
X161091619Y-70953285D01*
X161186857Y-70905666D01*
X161329714Y-70905666D01*
X161424952Y-70953285D01*
X161472571Y-71000904D01*
X161520190Y-71096142D01*
X161520190Y-71477095D01*
X161996381Y-69953285D02*
X161996381Y-70524714D01*
X161996381Y-70239000D02*
X160996381Y-70239000D01*
X161139238Y-70334238D01*
X161234476Y-70429476D01*
X161282095Y-70524714D01*
X149185334Y-67635381D02*
X148852000Y-67159190D01*
X148613905Y-67635381D02*
X148613905Y-66635381D01*
X148994858Y-66635381D01*
X149090096Y-66683000D01*
X149137715Y-66730619D01*
X149185334Y-66825857D01*
X149185334Y-66968714D01*
X149137715Y-67063952D01*
X149090096Y-67111571D01*
X148994858Y-67159190D01*
X148613905Y-67159190D01*
X149566286Y-66730619D02*
X149613905Y-66683000D01*
X149709143Y-66635381D01*
X149947239Y-66635381D01*
X150042477Y-66683000D01*
X150090096Y-66730619D01*
X150137715Y-66825857D01*
X150137715Y-66921095D01*
X150090096Y-67063952D01*
X149518667Y-67635381D01*
X150137715Y-67635381D01*
X142946381Y-69000666D02*
X142470190Y-69334000D01*
X142946381Y-69572095D02*
X141946381Y-69572095D01*
X141946381Y-69191142D01*
X141994000Y-69095904D01*
X142041619Y-69048285D01*
X142136857Y-69000666D01*
X142279714Y-69000666D01*
X142374952Y-69048285D01*
X142422571Y-69095904D01*
X142470190Y-69191142D01*
X142470190Y-69572095D01*
X141946381Y-68667333D02*
X141946381Y-68048285D01*
X142327333Y-68381619D01*
X142327333Y-68238761D01*
X142374952Y-68143523D01*
X142422571Y-68095904D01*
X142517810Y-68048285D01*
X142755905Y-68048285D01*
X142851143Y-68095904D01*
X142898762Y-68143523D01*
X142946381Y-68238761D01*
X142946381Y-68524476D01*
X142898762Y-68619714D01*
X142851143Y-68667333D01*
X134702254Y-68072261D02*
X134368920Y-67596070D01*
X134130825Y-68072261D02*
X134130825Y-67072261D01*
X134511778Y-67072261D01*
X134607016Y-67119880D01*
X134654635Y-67167499D01*
X134702254Y-67262737D01*
X134702254Y-67405594D01*
X134654635Y-67500832D01*
X134607016Y-67548451D01*
X134511778Y-67596070D01*
X134130825Y-67596070D01*
X135559397Y-67405594D02*
X135559397Y-68072261D01*
X135321301Y-67024642D02*
X135083206Y-67738928D01*
X135702254Y-67738928D01*
X134707334Y-71699381D02*
X134374000Y-71223190D01*
X134135905Y-71699381D02*
X134135905Y-70699381D01*
X134516858Y-70699381D01*
X134612096Y-70747000D01*
X134659715Y-70794619D01*
X134707334Y-70889857D01*
X134707334Y-71032714D01*
X134659715Y-71127952D01*
X134612096Y-71175571D01*
X134516858Y-71223190D01*
X134135905Y-71223190D01*
X135612096Y-70699381D02*
X135135905Y-70699381D01*
X135088286Y-71175571D01*
X135135905Y-71127952D01*
X135231143Y-71080333D01*
X135469239Y-71080333D01*
X135564477Y-71127952D01*
X135612096Y-71175571D01*
X135659715Y-71270810D01*
X135659715Y-71508905D01*
X135612096Y-71604143D01*
X135564477Y-71651762D01*
X135469239Y-71699381D01*
X135231143Y-71699381D01*
X135135905Y-71651762D01*
X135088286Y-71604143D01*
X148804334Y-71572381D02*
X148471000Y-71096190D01*
X148232905Y-71572381D02*
X148232905Y-70572381D01*
X148613858Y-70572381D01*
X148709096Y-70620000D01*
X148756715Y-70667619D01*
X148804334Y-70762857D01*
X148804334Y-70905714D01*
X148756715Y-71000952D01*
X148709096Y-71048571D01*
X148613858Y-71096190D01*
X148232905Y-71096190D01*
X149661477Y-70572381D02*
X149471000Y-70572381D01*
X149375762Y-70620000D01*
X149328143Y-70667619D01*
X149232905Y-70810476D01*
X149185286Y-71000952D01*
X149185286Y-71381905D01*
X149232905Y-71477143D01*
X149280524Y-71524762D01*
X149375762Y-71572381D01*
X149566239Y-71572381D01*
X149661477Y-71524762D01*
X149709096Y-71477143D01*
X149756715Y-71381905D01*
X149756715Y-71143810D01*
X149709096Y-71048571D01*
X149661477Y-71000952D01*
X149566239Y-70953333D01*
X149375762Y-70953333D01*
X149280524Y-71000952D01*
X149232905Y-71048571D01*
X149185286Y-71143810D01*
X166663714Y-80565429D02*
X167330381Y-80327334D01*
X166663714Y-80089238D01*
X167282762Y-79279714D02*
X167330381Y-79374952D01*
X167330381Y-79565429D01*
X167282762Y-79660667D01*
X167235143Y-79708286D01*
X167139905Y-79755905D01*
X166854190Y-79755905D01*
X166758952Y-79708286D01*
X166711333Y-79660667D01*
X166663714Y-79565429D01*
X166663714Y-79374952D01*
X166711333Y-79279714D01*
X167282762Y-78422571D02*
X167330381Y-78517809D01*
X167330381Y-78708286D01*
X167282762Y-78803524D01*
X167235143Y-78851143D01*
X167139905Y-78898762D01*
X166854190Y-78898762D01*
X166758952Y-78851143D01*
X166711333Y-78803524D01*
X166663714Y-78708286D01*
X166663714Y-78517809D01*
X166711333Y-78422571D01*
X167330381Y-77470190D02*
X167330381Y-78041619D01*
X167330381Y-77755905D02*
X166330381Y-77755905D01*
X166473238Y-77851143D01*
X166568476Y-77946381D01*
X166616095Y-78041619D01*
M02*
