M48
;DRILL file {KiCad 4.0.5} date 11/03/19 13:57:02
;FORMAT={-:-/ absolute / inch / decimal}
FMAT,2
INCH,TZ
T1C0.020
T2C0.031
T3C0.035
T4C0.039
%
G90
G05
M72
T1
X4.76Y-2.8
X5.42Y-2.52
X6.2Y-2.8
X6.47Y-3.12
X6.47Y-3.21
X6.5Y-2.94
T2
X5.0913Y-3.16
X5.17Y-3.0813
X5.2487Y-3.16
X5.5713Y-3.15
X5.65Y-3.0713
X5.7287Y-3.15
X6.0613Y-3.15
X6.14Y-3.0713
X6.2187Y-3.15
T3
X4.87Y-2.4
X4.87Y-2.6
X4.87Y-2.8
X4.97Y-2.4
X4.97Y-2.6
X4.97Y-2.8
T4
X5.15Y-2.65
X5.15Y-2.8
X5.45Y-2.65
X5.45Y-2.8
X5.6Y-2.55
X5.6Y-2.85
X5.75Y-2.65
X5.75Y-2.8
X6.05Y-2.65
X6.05Y-2.8
X6.35Y-2.64
X6.35Y-2.94
T0
M30
