%TF.GenerationSoftware,KiCad,Pcbnew,(5.1.6)-1*%
%TF.CreationDate,2020-09-07T12:27:48+05:30*%
%TF.ProjectId,using 2n222a,7573696e-6720-4326-9e32-3232612e6b69,rev?*%
%TF.SameCoordinates,Original*%
%TF.FileFunction,Legend,Top*%
%TF.FilePolarity,Positive*%
%FSLAX46Y46*%
G04 Gerber Fmt 4.6, Leading zero omitted, Abs format (unit mm)*
G04 Created by KiCad (PCBNEW (5.1.6)-1) date 2020-09-07 12:27:48*
%MOMM*%
%LPD*%
G01*
G04 APERTURE LIST*
%ADD10C,0.300000*%
%ADD11C,0.010000*%
%ADD12C,0.150000*%
%ADD13C,0.120000*%
G04 APERTURE END LIST*
D10*
X166397142Y-96157857D02*
X165897142Y-96157857D01*
X165897142Y-96943571D02*
X165897142Y-95443571D01*
X166611428Y-95443571D01*
X167897142Y-96943571D02*
X167182857Y-96943571D01*
X167182857Y-95443571D01*
X168325714Y-96515000D02*
X169040000Y-96515000D01*
X168182857Y-96943571D02*
X168682857Y-95443571D01*
X169182857Y-96943571D01*
X169611428Y-96872142D02*
X169825714Y-96943571D01*
X170182857Y-96943571D01*
X170325714Y-96872142D01*
X170397142Y-96800714D01*
X170468571Y-96657857D01*
X170468571Y-96515000D01*
X170397142Y-96372142D01*
X170325714Y-96300714D01*
X170182857Y-96229285D01*
X169897142Y-96157857D01*
X169754285Y-96086428D01*
X169682857Y-96015000D01*
X169611428Y-95872142D01*
X169611428Y-95729285D01*
X169682857Y-95586428D01*
X169754285Y-95515000D01*
X169897142Y-95443571D01*
X170254285Y-95443571D01*
X170468571Y-95515000D01*
X171111428Y-96943571D02*
X171111428Y-95443571D01*
X171111428Y-96157857D02*
X171968571Y-96157857D01*
X171968571Y-96943571D02*
X171968571Y-95443571D01*
X172682857Y-96943571D02*
X172682857Y-95443571D01*
X173397142Y-96943571D02*
X173397142Y-95443571D01*
X174254285Y-96943571D01*
X174254285Y-95443571D01*
X175754285Y-95515000D02*
X175611428Y-95443571D01*
X175397142Y-95443571D01*
X175182857Y-95515000D01*
X175040000Y-95657857D01*
X174968571Y-95800714D01*
X174897142Y-96086428D01*
X174897142Y-96300714D01*
X174968571Y-96586428D01*
X175040000Y-96729285D01*
X175182857Y-96872142D01*
X175397142Y-96943571D01*
X175540000Y-96943571D01*
X175754285Y-96872142D01*
X175825714Y-96800714D01*
X175825714Y-96300714D01*
X175540000Y-96300714D01*
X177897142Y-95443571D02*
X178182857Y-95443571D01*
X178325714Y-95515000D01*
X178468571Y-95657857D01*
X178540000Y-95943571D01*
X178540000Y-96443571D01*
X178468571Y-96729285D01*
X178325714Y-96872142D01*
X178182857Y-96943571D01*
X177897142Y-96943571D01*
X177754285Y-96872142D01*
X177611428Y-96729285D01*
X177540000Y-96443571D01*
X177540000Y-95943571D01*
X177611428Y-95657857D01*
X177754285Y-95515000D01*
X177897142Y-95443571D01*
X179682857Y-96157857D02*
X179182857Y-96157857D01*
X179182857Y-96943571D02*
X179182857Y-95443571D01*
X179897142Y-95443571D01*
X182325714Y-96943571D02*
X181611428Y-96943571D01*
X181611428Y-95443571D01*
X182825714Y-96157857D02*
X183325714Y-96157857D01*
X183540000Y-96943571D02*
X182825714Y-96943571D01*
X182825714Y-95443571D01*
X183540000Y-95443571D01*
X184182857Y-96943571D02*
X184182857Y-95443571D01*
X184540000Y-95443571D01*
X184754285Y-95515000D01*
X184897142Y-95657857D01*
X184968571Y-95800714D01*
X185040000Y-96086428D01*
X185040000Y-96300714D01*
X184968571Y-96586428D01*
X184897142Y-96729285D01*
X184754285Y-96872142D01*
X184540000Y-96943571D01*
X184182857Y-96943571D01*
X185611428Y-96872142D02*
X185754285Y-96943571D01*
X186040000Y-96943571D01*
X186182857Y-96872142D01*
X186254285Y-96729285D01*
X186254285Y-96657857D01*
X186182857Y-96515000D01*
X186040000Y-96443571D01*
X185825714Y-96443571D01*
X185682857Y-96372142D01*
X185611428Y-96229285D01*
X185611428Y-96157857D01*
X185682857Y-96015000D01*
X185825714Y-95943571D01*
X186040000Y-95943571D01*
X186182857Y-96015000D01*
X130821428Y-104947857D02*
X129321428Y-105447857D01*
X130821428Y-105947857D01*
X129464285Y-107305000D02*
X129392857Y-107233571D01*
X129321428Y-107019285D01*
X129321428Y-106876428D01*
X129392857Y-106662142D01*
X129535714Y-106519285D01*
X129678571Y-106447857D01*
X129964285Y-106376428D01*
X130178571Y-106376428D01*
X130464285Y-106447857D01*
X130607142Y-106519285D01*
X130750000Y-106662142D01*
X130821428Y-106876428D01*
X130821428Y-107019285D01*
X130750000Y-107233571D01*
X130678571Y-107305000D01*
X129464285Y-108805000D02*
X129392857Y-108733571D01*
X129321428Y-108519285D01*
X129321428Y-108376428D01*
X129392857Y-108162142D01*
X129535714Y-108019285D01*
X129678571Y-107947857D01*
X129964285Y-107876428D01*
X130178571Y-107876428D01*
X130464285Y-107947857D01*
X130607142Y-108019285D01*
X130750000Y-108162142D01*
X130821428Y-108376428D01*
X130821428Y-108519285D01*
X130750000Y-108733571D01*
X130678571Y-108805000D01*
X130750000Y-111376428D02*
X130821428Y-111233571D01*
X130821428Y-111019285D01*
X130750000Y-110805000D01*
X130607142Y-110662142D01*
X130464285Y-110590714D01*
X130178571Y-110519285D01*
X129964285Y-110519285D01*
X129678571Y-110590714D01*
X129535714Y-110662142D01*
X129392857Y-110805000D01*
X129321428Y-111019285D01*
X129321428Y-111162142D01*
X129392857Y-111376428D01*
X129464285Y-111447857D01*
X129964285Y-111447857D01*
X129964285Y-111162142D01*
X129321428Y-112090714D02*
X130821428Y-112090714D01*
X129321428Y-112947857D01*
X130821428Y-112947857D01*
X129321428Y-113662142D02*
X130821428Y-113662142D01*
X130821428Y-114019285D01*
X130750000Y-114233571D01*
X130607142Y-114376428D01*
X130464285Y-114447857D01*
X130178571Y-114519285D01*
X129964285Y-114519285D01*
X129678571Y-114447857D01*
X129535714Y-114376428D01*
X129392857Y-114233571D01*
X129321428Y-114019285D01*
X129321428Y-113662142D01*
X131708571Y-132463571D02*
X131708571Y-130963571D01*
X132851428Y-130963571D01*
X133137142Y-131035000D01*
X133280000Y-131106428D01*
X133422857Y-131249285D01*
X133422857Y-131463571D01*
X133280000Y-131606428D01*
X133137142Y-131677857D01*
X132851428Y-131749285D01*
X131708571Y-131749285D01*
X135280000Y-130963571D02*
X135851428Y-130963571D01*
X136137142Y-131035000D01*
X136422857Y-131177857D01*
X136565714Y-131463571D01*
X136565714Y-131963571D01*
X136422857Y-132249285D01*
X136137142Y-132392142D01*
X135851428Y-132463571D01*
X135280000Y-132463571D01*
X134994285Y-132392142D01*
X134708571Y-132249285D01*
X134565714Y-131963571D01*
X134565714Y-131463571D01*
X134708571Y-131177857D01*
X134994285Y-131035000D01*
X135280000Y-130963571D01*
X137565714Y-130963571D02*
X138280000Y-132463571D01*
X138851428Y-131392142D01*
X139422857Y-132463571D01*
X140137142Y-130963571D01*
X141280000Y-131677857D02*
X142280000Y-131677857D01*
X142708571Y-132463571D02*
X141280000Y-132463571D01*
X141280000Y-130963571D01*
X142708571Y-130963571D01*
X145708571Y-132463571D02*
X144708571Y-131749285D01*
X143994285Y-132463571D02*
X143994285Y-130963571D01*
X145137142Y-130963571D01*
X145422857Y-131035000D01*
X145565714Y-131106428D01*
X145708571Y-131249285D01*
X145708571Y-131463571D01*
X145565714Y-131606428D01*
X145422857Y-131677857D01*
X145137142Y-131749285D01*
X143994285Y-131749285D01*
X146565714Y-131463571D02*
X147708571Y-131463571D01*
X146994285Y-130963571D02*
X146994285Y-132249285D01*
X147137142Y-132392142D01*
X147422857Y-132463571D01*
X147708571Y-132463571D01*
X148708571Y-132463571D02*
X148708571Y-131463571D01*
X148708571Y-131749285D02*
X148851428Y-131606428D01*
X148994285Y-131535000D01*
X149280000Y-131463571D01*
X149565714Y-131463571D01*
X150994285Y-132463571D02*
X150708571Y-132392142D01*
X150565714Y-132320714D01*
X150422857Y-132177857D01*
X150422857Y-131749285D01*
X150565714Y-131606428D01*
X150708571Y-131535000D01*
X150994285Y-131463571D01*
X151422857Y-131463571D01*
X151708571Y-131535000D01*
X151851428Y-131606428D01*
X151994285Y-131749285D01*
X151994285Y-132177857D01*
X151851428Y-132320714D01*
X151708571Y-132392142D01*
X151422857Y-132463571D01*
X150994285Y-132463571D01*
X153280000Y-131463571D02*
X153280000Y-132463571D01*
X153280000Y-131606428D02*
X153422857Y-131535000D01*
X153708571Y-131463571D01*
X154137142Y-131463571D01*
X154422857Y-131535000D01*
X154565714Y-131677857D01*
X154565714Y-132463571D01*
X155994285Y-132463571D02*
X155994285Y-131463571D01*
X155994285Y-130963571D02*
X155851428Y-131035000D01*
X155994285Y-131106428D01*
X156137142Y-131035000D01*
X155994285Y-130963571D01*
X155994285Y-131106428D01*
X158708571Y-132392142D02*
X158422857Y-132463571D01*
X157851428Y-132463571D01*
X157565714Y-132392142D01*
X157422857Y-132320714D01*
X157280000Y-132177857D01*
X157280000Y-131749285D01*
X157422857Y-131606428D01*
X157565714Y-131535000D01*
X157851428Y-131463571D01*
X158422857Y-131463571D01*
X158708571Y-131535000D01*
X159851428Y-132392142D02*
X160137142Y-132463571D01*
X160708571Y-132463571D01*
X160994285Y-132392142D01*
X161137142Y-132249285D01*
X161137142Y-132177857D01*
X160994285Y-132035000D01*
X160708571Y-131963571D01*
X160280000Y-131963571D01*
X159994285Y-131892142D01*
X159851428Y-131749285D01*
X159851428Y-131677857D01*
X159994285Y-131535000D01*
X160280000Y-131463571D01*
X160708571Y-131463571D01*
X160994285Y-131535000D01*
X164280000Y-131749285D02*
X164137142Y-131677857D01*
X163851428Y-131606428D01*
X163565714Y-131606428D01*
X163280000Y-131677857D01*
X163137142Y-131749285D01*
X162994285Y-131892142D01*
X162994285Y-132035000D01*
X163137142Y-132177857D01*
X163280000Y-132249285D01*
X163565714Y-132320714D01*
X163851428Y-132320714D01*
X164137142Y-132249285D01*
X164280000Y-132177857D01*
X164280000Y-131606428D02*
X164280000Y-132177857D01*
X164422857Y-132249285D01*
X164565714Y-132249285D01*
X164851428Y-132177857D01*
X164994285Y-132035000D01*
X164994285Y-131677857D01*
X164708571Y-131463571D01*
X164280000Y-131320714D01*
X163708571Y-131249285D01*
X163137142Y-131320714D01*
X162708571Y-131463571D01*
X162422857Y-131677857D01*
X162280000Y-131963571D01*
X162422857Y-132249285D01*
X162708571Y-132463571D01*
X163137142Y-132606428D01*
X163708571Y-132677857D01*
X164280000Y-132606428D01*
X164708571Y-132463571D01*
X165994285Y-133035000D02*
X166137142Y-132963571D01*
X166422857Y-132749285D01*
X166565714Y-132606428D01*
X166708571Y-132392142D01*
X166851428Y-132035000D01*
X166851428Y-131749285D01*
X166708571Y-131392142D01*
X166565714Y-131177857D01*
X166422857Y-131035000D01*
X166137142Y-130820714D01*
X165994285Y-130749285D01*
D11*
%TO.C,REF\u002A\u002A*%
G36*
X129070246Y-125215945D02*
G01*
X129122811Y-125216480D01*
X129276835Y-125220196D01*
X129405829Y-125231235D01*
X129514191Y-125250782D01*
X129606316Y-125280019D01*
X129686601Y-125320133D01*
X129759442Y-125372305D01*
X129785459Y-125394969D01*
X129828617Y-125447998D01*
X129867533Y-125519957D01*
X129897527Y-125599720D01*
X129913919Y-125676161D01*
X129915622Y-125704408D01*
X129904949Y-125782710D01*
X129876347Y-125868241D01*
X129834943Y-125949199D01*
X129785859Y-126013782D01*
X129777887Y-126021574D01*
X129710354Y-126076344D01*
X129636402Y-126119099D01*
X129551766Y-126150959D01*
X129452183Y-126173044D01*
X129333388Y-126186474D01*
X129191120Y-126192370D01*
X129125954Y-126192870D01*
X129043099Y-126192471D01*
X128984831Y-126190802D01*
X128945684Y-126187158D01*
X128920191Y-126180829D01*
X128902886Y-126171110D01*
X128893610Y-126162810D01*
X128884848Y-126152728D01*
X128877975Y-126139721D01*
X128872762Y-126120305D01*
X128868981Y-126090996D01*
X128866403Y-126048309D01*
X128864800Y-125988761D01*
X128863943Y-125908866D01*
X128863603Y-125805141D01*
X128863551Y-125704408D01*
X128863220Y-125570055D01*
X128863292Y-125462728D01*
X128864570Y-125411331D01*
X129058935Y-125411331D01*
X129058935Y-125997485D01*
X129182929Y-125997371D01*
X129257539Y-125995232D01*
X129335682Y-125989719D01*
X129400880Y-125982008D01*
X129402864Y-125981691D01*
X129508237Y-125956214D01*
X129589968Y-125916536D01*
X129652138Y-125860074D01*
X129691640Y-125798942D01*
X129715980Y-125731129D01*
X129714093Y-125667455D01*
X129685845Y-125599201D01*
X129630592Y-125528592D01*
X129554027Y-125476271D01*
X129454505Y-125441299D01*
X129387993Y-125428922D01*
X129312493Y-125420230D01*
X129232475Y-125413940D01*
X129164416Y-125411324D01*
X129160385Y-125411312D01*
X129058935Y-125411331D01*
X128864570Y-125411331D01*
X128865364Y-125379417D01*
X128871039Y-125317115D01*
X128881913Y-125272811D01*
X128899586Y-125243496D01*
X128925657Y-125226161D01*
X128961725Y-125217797D01*
X129009388Y-125215395D01*
X129070246Y-125215945D01*
G37*
X129070246Y-125215945D02*
X129122811Y-125216480D01*
X129276835Y-125220196D01*
X129405829Y-125231235D01*
X129514191Y-125250782D01*
X129606316Y-125280019D01*
X129686601Y-125320133D01*
X129759442Y-125372305D01*
X129785459Y-125394969D01*
X129828617Y-125447998D01*
X129867533Y-125519957D01*
X129897527Y-125599720D01*
X129913919Y-125676161D01*
X129915622Y-125704408D01*
X129904949Y-125782710D01*
X129876347Y-125868241D01*
X129834943Y-125949199D01*
X129785859Y-126013782D01*
X129777887Y-126021574D01*
X129710354Y-126076344D01*
X129636402Y-126119099D01*
X129551766Y-126150959D01*
X129452183Y-126173044D01*
X129333388Y-126186474D01*
X129191120Y-126192370D01*
X129125954Y-126192870D01*
X129043099Y-126192471D01*
X128984831Y-126190802D01*
X128945684Y-126187158D01*
X128920191Y-126180829D01*
X128902886Y-126171110D01*
X128893610Y-126162810D01*
X128884848Y-126152728D01*
X128877975Y-126139721D01*
X128872762Y-126120305D01*
X128868981Y-126090996D01*
X128866403Y-126048309D01*
X128864800Y-125988761D01*
X128863943Y-125908866D01*
X128863603Y-125805141D01*
X128863551Y-125704408D01*
X128863220Y-125570055D01*
X128863292Y-125462728D01*
X128864570Y-125411331D01*
X129058935Y-125411331D01*
X129058935Y-125997485D01*
X129182929Y-125997371D01*
X129257539Y-125995232D01*
X129335682Y-125989719D01*
X129400880Y-125982008D01*
X129402864Y-125981691D01*
X129508237Y-125956214D01*
X129589968Y-125916536D01*
X129652138Y-125860074D01*
X129691640Y-125798942D01*
X129715980Y-125731129D01*
X129714093Y-125667455D01*
X129685845Y-125599201D01*
X129630592Y-125528592D01*
X129554027Y-125476271D01*
X129454505Y-125441299D01*
X129387993Y-125428922D01*
X129312493Y-125420230D01*
X129232475Y-125413940D01*
X129164416Y-125411324D01*
X129160385Y-125411312D01*
X129058935Y-125411331D01*
X128864570Y-125411331D01*
X128865364Y-125379417D01*
X128871039Y-125317115D01*
X128881913Y-125272811D01*
X128899586Y-125243496D01*
X128925657Y-125226161D01*
X128961725Y-125217797D01*
X129009388Y-125215395D01*
X129070246Y-125215945D01*
G36*
X130945570Y-125216052D02*
G01*
X131037978Y-125216548D01*
X131107727Y-125217701D01*
X131158517Y-125219780D01*
X131194049Y-125223051D01*
X131218022Y-125227783D01*
X131234136Y-125234243D01*
X131246091Y-125242699D01*
X131250421Y-125246591D01*
X131276749Y-125287940D01*
X131281489Y-125335452D01*
X131264170Y-125377631D01*
X131256161Y-125386156D01*
X131243208Y-125394421D01*
X131222352Y-125400797D01*
X131189724Y-125405595D01*
X131141458Y-125409124D01*
X131073686Y-125411694D01*
X130982540Y-125413617D01*
X130899209Y-125414787D01*
X130569408Y-125418846D01*
X130560394Y-125591686D01*
X130784258Y-125591686D01*
X130881446Y-125592525D01*
X130952597Y-125596032D01*
X131001709Y-125603695D01*
X131032783Y-125617003D01*
X131049816Y-125637441D01*
X131056808Y-125666499D01*
X131057870Y-125693467D01*
X131054570Y-125726557D01*
X131042117Y-125750940D01*
X131016680Y-125767889D01*
X130974429Y-125778679D01*
X130911534Y-125784584D01*
X130824165Y-125786877D01*
X130776479Y-125787071D01*
X130561894Y-125787071D01*
X130561894Y-125997485D01*
X130892545Y-125997485D01*
X131000930Y-125997636D01*
X131083303Y-125998314D01*
X131143711Y-125999856D01*
X131186201Y-126002599D01*
X131214819Y-126006881D01*
X131233612Y-126013039D01*
X131246626Y-126021409D01*
X131253255Y-126027544D01*
X131275993Y-126063349D01*
X131283314Y-126095177D01*
X131272861Y-126134054D01*
X131253255Y-126162810D01*
X131242795Y-126171863D01*
X131229292Y-126178893D01*
X131209114Y-126184154D01*
X131178629Y-126187901D01*
X131134205Y-126190390D01*
X131072209Y-126191875D01*
X130989009Y-126192611D01*
X130880973Y-126192854D01*
X130824911Y-126192870D01*
X130704856Y-126192763D01*
X130611226Y-126192275D01*
X130540391Y-126191149D01*
X130488719Y-126189131D01*
X130452577Y-126185966D01*
X130428332Y-126181399D01*
X130412353Y-126175176D01*
X130401007Y-126167040D01*
X130396568Y-126162810D01*
X130387783Y-126152696D01*
X130380896Y-126139648D01*
X130375679Y-126120170D01*
X130371901Y-126090764D01*
X130369330Y-126047934D01*
X130367736Y-125988184D01*
X130366889Y-125908017D01*
X130366558Y-125803937D01*
X130366509Y-125707028D01*
X130366554Y-125582923D01*
X130366866Y-125485366D01*
X130367712Y-125410846D01*
X130369358Y-125355851D01*
X130372071Y-125316870D01*
X130376117Y-125290393D01*
X130381763Y-125272906D01*
X130389274Y-125260900D01*
X130398918Y-125250863D01*
X130401294Y-125248626D01*
X130412825Y-125238719D01*
X130426222Y-125231048D01*
X130445204Y-125225326D01*
X130473485Y-125221268D01*
X130514782Y-125218588D01*
X130572812Y-125217002D01*
X130651291Y-125216224D01*
X130753934Y-125215968D01*
X130826804Y-125215946D01*
X130945570Y-125216052D01*
G37*
X130945570Y-125216052D02*
X131037978Y-125216548D01*
X131107727Y-125217701D01*
X131158517Y-125219780D01*
X131194049Y-125223051D01*
X131218022Y-125227783D01*
X131234136Y-125234243D01*
X131246091Y-125242699D01*
X131250421Y-125246591D01*
X131276749Y-125287940D01*
X131281489Y-125335452D01*
X131264170Y-125377631D01*
X131256161Y-125386156D01*
X131243208Y-125394421D01*
X131222352Y-125400797D01*
X131189724Y-125405595D01*
X131141458Y-125409124D01*
X131073686Y-125411694D01*
X130982540Y-125413617D01*
X130899209Y-125414787D01*
X130569408Y-125418846D01*
X130560394Y-125591686D01*
X130784258Y-125591686D01*
X130881446Y-125592525D01*
X130952597Y-125596032D01*
X131001709Y-125603695D01*
X131032783Y-125617003D01*
X131049816Y-125637441D01*
X131056808Y-125666499D01*
X131057870Y-125693467D01*
X131054570Y-125726557D01*
X131042117Y-125750940D01*
X131016680Y-125767889D01*
X130974429Y-125778679D01*
X130911534Y-125784584D01*
X130824165Y-125786877D01*
X130776479Y-125787071D01*
X130561894Y-125787071D01*
X130561894Y-125997485D01*
X130892545Y-125997485D01*
X131000930Y-125997636D01*
X131083303Y-125998314D01*
X131143711Y-125999856D01*
X131186201Y-126002599D01*
X131214819Y-126006881D01*
X131233612Y-126013039D01*
X131246626Y-126021409D01*
X131253255Y-126027544D01*
X131275993Y-126063349D01*
X131283314Y-126095177D01*
X131272861Y-126134054D01*
X131253255Y-126162810D01*
X131242795Y-126171863D01*
X131229292Y-126178893D01*
X131209114Y-126184154D01*
X131178629Y-126187901D01*
X131134205Y-126190390D01*
X131072209Y-126191875D01*
X130989009Y-126192611D01*
X130880973Y-126192854D01*
X130824911Y-126192870D01*
X130704856Y-126192763D01*
X130611226Y-126192275D01*
X130540391Y-126191149D01*
X130488719Y-126189131D01*
X130452577Y-126185966D01*
X130428332Y-126181399D01*
X130412353Y-126175176D01*
X130401007Y-126167040D01*
X130396568Y-126162810D01*
X130387783Y-126152696D01*
X130380896Y-126139648D01*
X130375679Y-126120170D01*
X130371901Y-126090764D01*
X130369330Y-126047934D01*
X130367736Y-125988184D01*
X130366889Y-125908017D01*
X130366558Y-125803937D01*
X130366509Y-125707028D01*
X130366554Y-125582923D01*
X130366866Y-125485366D01*
X130367712Y-125410846D01*
X130369358Y-125355851D01*
X130372071Y-125316870D01*
X130376117Y-125290393D01*
X130381763Y-125272906D01*
X130389274Y-125260900D01*
X130398918Y-125250863D01*
X130401294Y-125248626D01*
X130412825Y-125238719D01*
X130426222Y-125231048D01*
X130445204Y-125225326D01*
X130473485Y-125221268D01*
X130514782Y-125218588D01*
X130572812Y-125217002D01*
X130651291Y-125216224D01*
X130753934Y-125215968D01*
X130826804Y-125215946D01*
X130945570Y-125216052D01*
G36*
X132305012Y-125217657D02*
G01*
X132404617Y-125224620D01*
X132497256Y-125235495D01*
X132577542Y-125249874D01*
X132640092Y-125267346D01*
X132679519Y-125287502D01*
X132685571Y-125293435D01*
X132706616Y-125339475D01*
X132700234Y-125386740D01*
X132667593Y-125427178D01*
X132666036Y-125428337D01*
X132646837Y-125440797D01*
X132626795Y-125447349D01*
X132598840Y-125448144D01*
X132555901Y-125443336D01*
X132490909Y-125433075D01*
X132485681Y-125432211D01*
X132388839Y-125420314D01*
X132284356Y-125414445D01*
X132179565Y-125414388D01*
X132081798Y-125419927D01*
X131998388Y-125430845D01*
X131936667Y-125446925D01*
X131932612Y-125448541D01*
X131887836Y-125473629D01*
X131872104Y-125499018D01*
X131884420Y-125523987D01*
X131923785Y-125547816D01*
X131989202Y-125569782D01*
X132079674Y-125589166D01*
X132140000Y-125598498D01*
X132265400Y-125616449D01*
X132365135Y-125632859D01*
X132443454Y-125649148D01*
X132504607Y-125666738D01*
X132552841Y-125687049D01*
X132592405Y-125711503D01*
X132627548Y-125741520D01*
X132655789Y-125770996D01*
X132689292Y-125812067D01*
X132705781Y-125847382D01*
X132710937Y-125890893D01*
X132711124Y-125906828D01*
X132707252Y-125959705D01*
X132691773Y-125999043D01*
X132664985Y-126033960D01*
X132610541Y-126087334D01*
X132549830Y-126128038D01*
X132478342Y-126157400D01*
X132391564Y-126176747D01*
X132284986Y-126187406D01*
X132154097Y-126190705D01*
X132132485Y-126190649D01*
X132045202Y-126188840D01*
X131958641Y-126184729D01*
X131882238Y-126178906D01*
X131825430Y-126171961D01*
X131820836Y-126171164D01*
X131764355Y-126157784D01*
X131716448Y-126140882D01*
X131689327Y-126125431D01*
X131664089Y-126084666D01*
X131662331Y-126037198D01*
X131684088Y-125994895D01*
X131688956Y-125990112D01*
X131709078Y-125975899D01*
X131734242Y-125969776D01*
X131773187Y-125970818D01*
X131820465Y-125976234D01*
X131873295Y-125981073D01*
X131947352Y-125985155D01*
X132033809Y-125988118D01*
X132123837Y-125989597D01*
X132147515Y-125989694D01*
X132237878Y-125989330D01*
X132304011Y-125987576D01*
X132351733Y-125983823D01*
X132386862Y-125977463D01*
X132415218Y-125967887D01*
X132432259Y-125959911D01*
X132469704Y-125937765D01*
X132493579Y-125917708D01*
X132497068Y-125912023D01*
X132489707Y-125888545D01*
X132454713Y-125865817D01*
X132394512Y-125844870D01*
X132311529Y-125826736D01*
X132287080Y-125822697D01*
X132159378Y-125802639D01*
X132057460Y-125785874D01*
X131977394Y-125771183D01*
X131915246Y-125757348D01*
X131867082Y-125743151D01*
X131828968Y-125727373D01*
X131796970Y-125708796D01*
X131767156Y-125686202D01*
X131735590Y-125658373D01*
X131724968Y-125648616D01*
X131687727Y-125612202D01*
X131668013Y-125583352D01*
X131660301Y-125550338D01*
X131659053Y-125508735D01*
X131672785Y-125427151D01*
X131713822Y-125357834D01*
X131781930Y-125301008D01*
X131876873Y-125256897D01*
X131944616Y-125237112D01*
X132018241Y-125224333D01*
X132106439Y-125217104D01*
X132203824Y-125215015D01*
X132305012Y-125217657D01*
G37*
X132305012Y-125217657D02*
X132404617Y-125224620D01*
X132497256Y-125235495D01*
X132577542Y-125249874D01*
X132640092Y-125267346D01*
X132679519Y-125287502D01*
X132685571Y-125293435D01*
X132706616Y-125339475D01*
X132700234Y-125386740D01*
X132667593Y-125427178D01*
X132666036Y-125428337D01*
X132646837Y-125440797D01*
X132626795Y-125447349D01*
X132598840Y-125448144D01*
X132555901Y-125443336D01*
X132490909Y-125433075D01*
X132485681Y-125432211D01*
X132388839Y-125420314D01*
X132284356Y-125414445D01*
X132179565Y-125414388D01*
X132081798Y-125419927D01*
X131998388Y-125430845D01*
X131936667Y-125446925D01*
X131932612Y-125448541D01*
X131887836Y-125473629D01*
X131872104Y-125499018D01*
X131884420Y-125523987D01*
X131923785Y-125547816D01*
X131989202Y-125569782D01*
X132079674Y-125589166D01*
X132140000Y-125598498D01*
X132265400Y-125616449D01*
X132365135Y-125632859D01*
X132443454Y-125649148D01*
X132504607Y-125666738D01*
X132552841Y-125687049D01*
X132592405Y-125711503D01*
X132627548Y-125741520D01*
X132655789Y-125770996D01*
X132689292Y-125812067D01*
X132705781Y-125847382D01*
X132710937Y-125890893D01*
X132711124Y-125906828D01*
X132707252Y-125959705D01*
X132691773Y-125999043D01*
X132664985Y-126033960D01*
X132610541Y-126087334D01*
X132549830Y-126128038D01*
X132478342Y-126157400D01*
X132391564Y-126176747D01*
X132284986Y-126187406D01*
X132154097Y-126190705D01*
X132132485Y-126190649D01*
X132045202Y-126188840D01*
X131958641Y-126184729D01*
X131882238Y-126178906D01*
X131825430Y-126171961D01*
X131820836Y-126171164D01*
X131764355Y-126157784D01*
X131716448Y-126140882D01*
X131689327Y-126125431D01*
X131664089Y-126084666D01*
X131662331Y-126037198D01*
X131684088Y-125994895D01*
X131688956Y-125990112D01*
X131709078Y-125975899D01*
X131734242Y-125969776D01*
X131773187Y-125970818D01*
X131820465Y-125976234D01*
X131873295Y-125981073D01*
X131947352Y-125985155D01*
X132033809Y-125988118D01*
X132123837Y-125989597D01*
X132147515Y-125989694D01*
X132237878Y-125989330D01*
X132304011Y-125987576D01*
X132351733Y-125983823D01*
X132386862Y-125977463D01*
X132415218Y-125967887D01*
X132432259Y-125959911D01*
X132469704Y-125937765D01*
X132493579Y-125917708D01*
X132497068Y-125912023D01*
X132489707Y-125888545D01*
X132454713Y-125865817D01*
X132394512Y-125844870D01*
X132311529Y-125826736D01*
X132287080Y-125822697D01*
X132159378Y-125802639D01*
X132057460Y-125785874D01*
X131977394Y-125771183D01*
X131915246Y-125757348D01*
X131867082Y-125743151D01*
X131828968Y-125727373D01*
X131796970Y-125708796D01*
X131767156Y-125686202D01*
X131735590Y-125658373D01*
X131724968Y-125648616D01*
X131687727Y-125612202D01*
X131668013Y-125583352D01*
X131660301Y-125550338D01*
X131659053Y-125508735D01*
X131672785Y-125427151D01*
X131713822Y-125357834D01*
X131781930Y-125301008D01*
X131876873Y-125256897D01*
X131944616Y-125237112D01*
X132018241Y-125224333D01*
X132106439Y-125217104D01*
X132203824Y-125215015D01*
X132305012Y-125217657D01*
G36*
X133327337Y-125246006D02*
G01*
X133336099Y-125256088D01*
X133342972Y-125269095D01*
X133348185Y-125288511D01*
X133351966Y-125317820D01*
X133354544Y-125360507D01*
X133356147Y-125420055D01*
X133357005Y-125499950D01*
X133357344Y-125603676D01*
X133357397Y-125704408D01*
X133357304Y-125829352D01*
X133356873Y-125927721D01*
X133355877Y-126003001D01*
X133354085Y-126058674D01*
X133351271Y-126098226D01*
X133347204Y-126125141D01*
X133341658Y-126142903D01*
X133334403Y-126154997D01*
X133327337Y-126162810D01*
X133283398Y-126189012D01*
X133236580Y-126186661D01*
X133194691Y-126158084D01*
X133185066Y-126146927D01*
X133177545Y-126133983D01*
X133171866Y-126115672D01*
X133167773Y-126088418D01*
X133165005Y-126048640D01*
X133163304Y-125992762D01*
X133162411Y-125917204D01*
X133162067Y-125818388D01*
X133162012Y-125706514D01*
X133162012Y-125289728D01*
X133198903Y-125252837D01*
X133244375Y-125221800D01*
X133288484Y-125220681D01*
X133327337Y-125246006D01*
G37*
X133327337Y-125246006D02*
X133336099Y-125256088D01*
X133342972Y-125269095D01*
X133348185Y-125288511D01*
X133351966Y-125317820D01*
X133354544Y-125360507D01*
X133356147Y-125420055D01*
X133357005Y-125499950D01*
X133357344Y-125603676D01*
X133357397Y-125704408D01*
X133357304Y-125829352D01*
X133356873Y-125927721D01*
X133355877Y-126003001D01*
X133354085Y-126058674D01*
X133351271Y-126098226D01*
X133347204Y-126125141D01*
X133341658Y-126142903D01*
X133334403Y-126154997D01*
X133327337Y-126162810D01*
X133283398Y-126189012D01*
X133236580Y-126186661D01*
X133194691Y-126158084D01*
X133185066Y-126146927D01*
X133177545Y-126133983D01*
X133171866Y-126115672D01*
X133167773Y-126088418D01*
X133165005Y-126048640D01*
X133163304Y-125992762D01*
X133162411Y-125917204D01*
X133162067Y-125818388D01*
X133162012Y-125706514D01*
X133162012Y-125289728D01*
X133198903Y-125252837D01*
X133244375Y-125221800D01*
X133288484Y-125220681D01*
X133327337Y-125246006D01*
G36*
X134623738Y-125223312D02*
G01*
X134714959Y-125238618D01*
X134785018Y-125262411D01*
X134830596Y-125293740D01*
X134843016Y-125311614D01*
X134855646Y-125353185D01*
X134847147Y-125390792D01*
X134820315Y-125426455D01*
X134778624Y-125443139D01*
X134718130Y-125441784D01*
X134671341Y-125432745D01*
X134567372Y-125415523D01*
X134461120Y-125413887D01*
X134342191Y-125427865D01*
X134309340Y-125433788D01*
X134198755Y-125464967D01*
X134112241Y-125511346D01*
X134050747Y-125572135D01*
X134015222Y-125646544D01*
X134007875Y-125685014D01*
X134012684Y-125763063D01*
X134043734Y-125832117D01*
X134098194Y-125890829D01*
X134173236Y-125937853D01*
X134266030Y-125971843D01*
X134373748Y-125991454D01*
X134493559Y-125995341D01*
X134622635Y-125982156D01*
X134629923Y-125980912D01*
X134681262Y-125971350D01*
X134709728Y-125962114D01*
X134722066Y-125948409D01*
X134725022Y-125925442D01*
X134725089Y-125913279D01*
X134725089Y-125862219D01*
X134633923Y-125862219D01*
X134553418Y-125856704D01*
X134498479Y-125839130D01*
X134466514Y-125807953D01*
X134454928Y-125761630D01*
X134454787Y-125755584D01*
X134461565Y-125715989D01*
X134484809Y-125687717D01*
X134528070Y-125669007D01*
X134594899Y-125658100D01*
X134659630Y-125654090D01*
X134753713Y-125651789D01*
X134821956Y-125655300D01*
X134868499Y-125668255D01*
X134897482Y-125694286D01*
X134913045Y-125737027D01*
X134919329Y-125800110D01*
X134920474Y-125882964D01*
X134918598Y-125975446D01*
X134912954Y-126038354D01*
X134903518Y-126071939D01*
X134901687Y-126074569D01*
X134849875Y-126116534D01*
X134773910Y-126149768D01*
X134678608Y-126173559D01*
X134568784Y-126187199D01*
X134449254Y-126189978D01*
X134324834Y-126181185D01*
X134251657Y-126170385D01*
X134136880Y-126137898D01*
X134030204Y-126084786D01*
X133940889Y-126015855D01*
X133927314Y-126002078D01*
X133883208Y-125944158D01*
X133843411Y-125872376D01*
X133812573Y-125797119D01*
X133795343Y-125728777D01*
X133793266Y-125702529D01*
X133802107Y-125647777D01*
X133825605Y-125579655D01*
X133859251Y-125507950D01*
X133898536Y-125442449D01*
X133933245Y-125398698D01*
X134014397Y-125333619D01*
X134119302Y-125281821D01*
X134244200Y-125244474D01*
X134385333Y-125222753D01*
X134514675Y-125217445D01*
X134623738Y-125223312D01*
G37*
X134623738Y-125223312D02*
X134714959Y-125238618D01*
X134785018Y-125262411D01*
X134830596Y-125293740D01*
X134843016Y-125311614D01*
X134855646Y-125353185D01*
X134847147Y-125390792D01*
X134820315Y-125426455D01*
X134778624Y-125443139D01*
X134718130Y-125441784D01*
X134671341Y-125432745D01*
X134567372Y-125415523D01*
X134461120Y-125413887D01*
X134342191Y-125427865D01*
X134309340Y-125433788D01*
X134198755Y-125464967D01*
X134112241Y-125511346D01*
X134050747Y-125572135D01*
X134015222Y-125646544D01*
X134007875Y-125685014D01*
X134012684Y-125763063D01*
X134043734Y-125832117D01*
X134098194Y-125890829D01*
X134173236Y-125937853D01*
X134266030Y-125971843D01*
X134373748Y-125991454D01*
X134493559Y-125995341D01*
X134622635Y-125982156D01*
X134629923Y-125980912D01*
X134681262Y-125971350D01*
X134709728Y-125962114D01*
X134722066Y-125948409D01*
X134725022Y-125925442D01*
X134725089Y-125913279D01*
X134725089Y-125862219D01*
X134633923Y-125862219D01*
X134553418Y-125856704D01*
X134498479Y-125839130D01*
X134466514Y-125807953D01*
X134454928Y-125761630D01*
X134454787Y-125755584D01*
X134461565Y-125715989D01*
X134484809Y-125687717D01*
X134528070Y-125669007D01*
X134594899Y-125658100D01*
X134659630Y-125654090D01*
X134753713Y-125651789D01*
X134821956Y-125655300D01*
X134868499Y-125668255D01*
X134897482Y-125694286D01*
X134913045Y-125737027D01*
X134919329Y-125800110D01*
X134920474Y-125882964D01*
X134918598Y-125975446D01*
X134912954Y-126038354D01*
X134903518Y-126071939D01*
X134901687Y-126074569D01*
X134849875Y-126116534D01*
X134773910Y-126149768D01*
X134678608Y-126173559D01*
X134568784Y-126187199D01*
X134449254Y-126189978D01*
X134324834Y-126181185D01*
X134251657Y-126170385D01*
X134136880Y-126137898D01*
X134030204Y-126084786D01*
X133940889Y-126015855D01*
X133927314Y-126002078D01*
X133883208Y-125944158D01*
X133843411Y-125872376D01*
X133812573Y-125797119D01*
X133795343Y-125728777D01*
X133793266Y-125702529D01*
X133802107Y-125647777D01*
X133825605Y-125579655D01*
X133859251Y-125507950D01*
X133898536Y-125442449D01*
X133933245Y-125398698D01*
X134014397Y-125333619D01*
X134119302Y-125281821D01*
X134244200Y-125244474D01*
X134385333Y-125222753D01*
X134514675Y-125217445D01*
X134623738Y-125223312D01*
G36*
X135489080Y-125221780D02*
G01*
X135520455Y-125240185D01*
X135561478Y-125270285D01*
X135614276Y-125313496D01*
X135680975Y-125371238D01*
X135763701Y-125444928D01*
X135864580Y-125535984D01*
X135980059Y-125640674D01*
X136220533Y-125858743D01*
X136228048Y-125566044D01*
X136230761Y-125465290D01*
X136233378Y-125390258D01*
X136236480Y-125336620D01*
X136240644Y-125300046D01*
X136246449Y-125276207D01*
X136254476Y-125260774D01*
X136265303Y-125249418D01*
X136271044Y-125244646D01*
X136317017Y-125219413D01*
X136360763Y-125223102D01*
X136395465Y-125244659D01*
X136430947Y-125273371D01*
X136435360Y-125692686D01*
X136436581Y-125816007D01*
X136437203Y-125912884D01*
X136437010Y-125986930D01*
X136435786Y-126041757D01*
X136433316Y-126080979D01*
X136429386Y-126108209D01*
X136423780Y-126127059D01*
X136416282Y-126141141D01*
X136407967Y-126152435D01*
X136389978Y-126173382D01*
X136372079Y-126187267D01*
X136351788Y-126192596D01*
X136326622Y-126187876D01*
X136294100Y-126171613D01*
X136251737Y-126142313D01*
X136197052Y-126098482D01*
X136127563Y-126038627D01*
X136040785Y-125961254D01*
X135942485Y-125872350D01*
X135589290Y-125551971D01*
X135581775Y-125843713D01*
X135579057Y-125944283D01*
X135576433Y-126019140D01*
X135573321Y-126072620D01*
X135569138Y-126109062D01*
X135563303Y-126132804D01*
X135555234Y-126148182D01*
X135544349Y-126159536D01*
X135538779Y-126164162D01*
X135489544Y-126189578D01*
X135443023Y-126185745D01*
X135402511Y-126153269D01*
X135393244Y-126140203D01*
X135386021Y-126124945D01*
X135380588Y-126103832D01*
X135376692Y-126073205D01*
X135374079Y-126029402D01*
X135372493Y-125968763D01*
X135371682Y-125887627D01*
X135371392Y-125782333D01*
X135371361Y-125704408D01*
X135371459Y-125582524D01*
X135371921Y-125487039D01*
X135373003Y-125414291D01*
X135374957Y-125360619D01*
X135378038Y-125322363D01*
X135382500Y-125295863D01*
X135388597Y-125277456D01*
X135396583Y-125263484D01*
X135402511Y-125255547D01*
X135417538Y-125236748D01*
X135431582Y-125222553D01*
X135446770Y-125214382D01*
X135465227Y-125213652D01*
X135489080Y-125221780D01*
G37*
X135489080Y-125221780D02*
X135520455Y-125240185D01*
X135561478Y-125270285D01*
X135614276Y-125313496D01*
X135680975Y-125371238D01*
X135763701Y-125444928D01*
X135864580Y-125535984D01*
X135980059Y-125640674D01*
X136220533Y-125858743D01*
X136228048Y-125566044D01*
X136230761Y-125465290D01*
X136233378Y-125390258D01*
X136236480Y-125336620D01*
X136240644Y-125300046D01*
X136246449Y-125276207D01*
X136254476Y-125260774D01*
X136265303Y-125249418D01*
X136271044Y-125244646D01*
X136317017Y-125219413D01*
X136360763Y-125223102D01*
X136395465Y-125244659D01*
X136430947Y-125273371D01*
X136435360Y-125692686D01*
X136436581Y-125816007D01*
X136437203Y-125912884D01*
X136437010Y-125986930D01*
X136435786Y-126041757D01*
X136433316Y-126080979D01*
X136429386Y-126108209D01*
X136423780Y-126127059D01*
X136416282Y-126141141D01*
X136407967Y-126152435D01*
X136389978Y-126173382D01*
X136372079Y-126187267D01*
X136351788Y-126192596D01*
X136326622Y-126187876D01*
X136294100Y-126171613D01*
X136251737Y-126142313D01*
X136197052Y-126098482D01*
X136127563Y-126038627D01*
X136040785Y-125961254D01*
X135942485Y-125872350D01*
X135589290Y-125551971D01*
X135581775Y-125843713D01*
X135579057Y-125944283D01*
X135576433Y-126019140D01*
X135573321Y-126072620D01*
X135569138Y-126109062D01*
X135563303Y-126132804D01*
X135555234Y-126148182D01*
X135544349Y-126159536D01*
X135538779Y-126164162D01*
X135489544Y-126189578D01*
X135443023Y-126185745D01*
X135402511Y-126153269D01*
X135393244Y-126140203D01*
X135386021Y-126124945D01*
X135380588Y-126103832D01*
X135376692Y-126073205D01*
X135374079Y-126029402D01*
X135372493Y-125968763D01*
X135371682Y-125887627D01*
X135371392Y-125782333D01*
X135371361Y-125704408D01*
X135371459Y-125582524D01*
X135371921Y-125487039D01*
X135373003Y-125414291D01*
X135374957Y-125360619D01*
X135378038Y-125322363D01*
X135382500Y-125295863D01*
X135388597Y-125277456D01*
X135396583Y-125263484D01*
X135402511Y-125255547D01*
X135417538Y-125236748D01*
X135431582Y-125222553D01*
X135446770Y-125214382D01*
X135465227Y-125213652D01*
X135489080Y-125221780D01*
G36*
X137526670Y-125216203D02*
G01*
X137628331Y-125217420D01*
X137706236Y-125220266D01*
X137763535Y-125225410D01*
X137803381Y-125233520D01*
X137828922Y-125245267D01*
X137843311Y-125261318D01*
X137849699Y-125282344D01*
X137851235Y-125309012D01*
X137851243Y-125312162D01*
X137849909Y-125342326D01*
X137843605Y-125365639D01*
X137828876Y-125383042D01*
X137802269Y-125395476D01*
X137760328Y-125403881D01*
X137699600Y-125409201D01*
X137616630Y-125412375D01*
X137507965Y-125414345D01*
X137474659Y-125414781D01*
X137152367Y-125418846D01*
X137147860Y-125505266D01*
X137143352Y-125591686D01*
X137367217Y-125591686D01*
X137454675Y-125592009D01*
X137517123Y-125593373D01*
X137559608Y-125596375D01*
X137587177Y-125601609D01*
X137604876Y-125609671D01*
X137617751Y-125621156D01*
X137617834Y-125621247D01*
X137641184Y-125666007D01*
X137640340Y-125714383D01*
X137615833Y-125755622D01*
X137610983Y-125759861D01*
X137593769Y-125770785D01*
X137570180Y-125778385D01*
X137534961Y-125783233D01*
X137482854Y-125785902D01*
X137408604Y-125786964D01*
X137361116Y-125787071D01*
X137144852Y-125787071D01*
X137144852Y-125997485D01*
X137473174Y-125997485D01*
X137581572Y-125997675D01*
X137663889Y-125998450D01*
X137724103Y-126000120D01*
X137766189Y-126002994D01*
X137794125Y-126007383D01*
X137811888Y-126013595D01*
X137823454Y-126021940D01*
X137826369Y-126024970D01*
X137847890Y-126066970D01*
X137849464Y-126114750D01*
X137831809Y-126156178D01*
X137817839Y-126169473D01*
X137803308Y-126176792D01*
X137780792Y-126182455D01*
X137746730Y-126186659D01*
X137697561Y-126189604D01*
X137629722Y-126191487D01*
X137539652Y-126192506D01*
X137423791Y-126192861D01*
X137397597Y-126192870D01*
X137279793Y-126192792D01*
X137188350Y-126192367D01*
X137119568Y-126191302D01*
X137069750Y-126189305D01*
X137035194Y-126186086D01*
X137012204Y-126181352D01*
X136997080Y-126174813D01*
X136986123Y-126166177D01*
X136980112Y-126159976D01*
X136971064Y-126148993D01*
X136963996Y-126135388D01*
X136958663Y-126115592D01*
X136954822Y-126086038D01*
X136952229Y-126043157D01*
X136950641Y-125983381D01*
X136949815Y-125903143D01*
X136949506Y-125798875D01*
X136949468Y-125711116D01*
X136949562Y-125588144D01*
X136950011Y-125491605D01*
X136951062Y-125417875D01*
X136952964Y-125363326D01*
X136955963Y-125324335D01*
X136960309Y-125297275D01*
X136966248Y-125278520D01*
X136974029Y-125264446D01*
X136980618Y-125255547D01*
X137011768Y-125215946D01*
X137398102Y-125215946D01*
X137526670Y-125216203D01*
G37*
X137526670Y-125216203D02*
X137628331Y-125217420D01*
X137706236Y-125220266D01*
X137763535Y-125225410D01*
X137803381Y-125233520D01*
X137828922Y-125245267D01*
X137843311Y-125261318D01*
X137849699Y-125282344D01*
X137851235Y-125309012D01*
X137851243Y-125312162D01*
X137849909Y-125342326D01*
X137843605Y-125365639D01*
X137828876Y-125383042D01*
X137802269Y-125395476D01*
X137760328Y-125403881D01*
X137699600Y-125409201D01*
X137616630Y-125412375D01*
X137507965Y-125414345D01*
X137474659Y-125414781D01*
X137152367Y-125418846D01*
X137147860Y-125505266D01*
X137143352Y-125591686D01*
X137367217Y-125591686D01*
X137454675Y-125592009D01*
X137517123Y-125593373D01*
X137559608Y-125596375D01*
X137587177Y-125601609D01*
X137604876Y-125609671D01*
X137617751Y-125621156D01*
X137617834Y-125621247D01*
X137641184Y-125666007D01*
X137640340Y-125714383D01*
X137615833Y-125755622D01*
X137610983Y-125759861D01*
X137593769Y-125770785D01*
X137570180Y-125778385D01*
X137534961Y-125783233D01*
X137482854Y-125785902D01*
X137408604Y-125786964D01*
X137361116Y-125787071D01*
X137144852Y-125787071D01*
X137144852Y-125997485D01*
X137473174Y-125997485D01*
X137581572Y-125997675D01*
X137663889Y-125998450D01*
X137724103Y-126000120D01*
X137766189Y-126002994D01*
X137794125Y-126007383D01*
X137811888Y-126013595D01*
X137823454Y-126021940D01*
X137826369Y-126024970D01*
X137847890Y-126066970D01*
X137849464Y-126114750D01*
X137831809Y-126156178D01*
X137817839Y-126169473D01*
X137803308Y-126176792D01*
X137780792Y-126182455D01*
X137746730Y-126186659D01*
X137697561Y-126189604D01*
X137629722Y-126191487D01*
X137539652Y-126192506D01*
X137423791Y-126192861D01*
X137397597Y-126192870D01*
X137279793Y-126192792D01*
X137188350Y-126192367D01*
X137119568Y-126191302D01*
X137069750Y-126189305D01*
X137035194Y-126186086D01*
X137012204Y-126181352D01*
X136997080Y-126174813D01*
X136986123Y-126166177D01*
X136980112Y-126159976D01*
X136971064Y-126148993D01*
X136963996Y-126135388D01*
X136958663Y-126115592D01*
X136954822Y-126086038D01*
X136952229Y-126043157D01*
X136950641Y-125983381D01*
X136949815Y-125903143D01*
X136949506Y-125798875D01*
X136949468Y-125711116D01*
X136949562Y-125588144D01*
X136950011Y-125491605D01*
X136951062Y-125417875D01*
X136952964Y-125363326D01*
X136955963Y-125324335D01*
X136960309Y-125297275D01*
X136966248Y-125278520D01*
X136974029Y-125264446D01*
X136980618Y-125255547D01*
X137011768Y-125215946D01*
X137398102Y-125215946D01*
X137526670Y-125216203D01*
G36*
X138575737Y-125216223D02*
G01*
X138747455Y-125222029D01*
X138893509Y-125239637D01*
X139016307Y-125270099D01*
X139118257Y-125314471D01*
X139201768Y-125373807D01*
X139269247Y-125449160D01*
X139323103Y-125541586D01*
X139324162Y-125543840D01*
X139356303Y-125626560D01*
X139367755Y-125699820D01*
X139358474Y-125773548D01*
X139328415Y-125857671D01*
X139322715Y-125870473D01*
X139283839Y-125945398D01*
X139240149Y-126003293D01*
X139183760Y-126052508D01*
X139106792Y-126101393D01*
X139102320Y-126103945D01*
X139035317Y-126136131D01*
X138959585Y-126160168D01*
X138870258Y-126176887D01*
X138762469Y-126187115D01*
X138631352Y-126191682D01*
X138585026Y-126192079D01*
X138364430Y-126192870D01*
X138333280Y-126153269D01*
X138324040Y-126140247D01*
X138316832Y-126125040D01*
X138311404Y-126104002D01*
X138307505Y-126073486D01*
X138304883Y-126029847D01*
X138304028Y-125997485D01*
X138512545Y-125997485D01*
X138637536Y-125997485D01*
X138710677Y-125995346D01*
X138785761Y-125989717D01*
X138847384Y-125981779D01*
X138851103Y-125981111D01*
X138960553Y-125951748D01*
X139045448Y-125907633D01*
X139108472Y-125846719D01*
X139152314Y-125766960D01*
X139159937Y-125745820D01*
X139167410Y-125712898D01*
X139164175Y-125680372D01*
X139148433Y-125637100D01*
X139138944Y-125615843D01*
X139107871Y-125559356D01*
X139070433Y-125519727D01*
X139029241Y-125492130D01*
X138946730Y-125456218D01*
X138841133Y-125430204D01*
X138718118Y-125415224D01*
X138629024Y-125411928D01*
X138512545Y-125411331D01*
X138512545Y-125997485D01*
X138304028Y-125997485D01*
X138303286Y-125969436D01*
X138302464Y-125888608D01*
X138302164Y-125783717D01*
X138302130Y-125701698D01*
X138302130Y-125289728D01*
X138339021Y-125252837D01*
X138355394Y-125237884D01*
X138373097Y-125227644D01*
X138397819Y-125221237D01*
X138435248Y-125217783D01*
X138491073Y-125216403D01*
X138570982Y-125216217D01*
X138575737Y-125216223D01*
G37*
X138575737Y-125216223D02*
X138747455Y-125222029D01*
X138893509Y-125239637D01*
X139016307Y-125270099D01*
X139118257Y-125314471D01*
X139201768Y-125373807D01*
X139269247Y-125449160D01*
X139323103Y-125541586D01*
X139324162Y-125543840D01*
X139356303Y-125626560D01*
X139367755Y-125699820D01*
X139358474Y-125773548D01*
X139328415Y-125857671D01*
X139322715Y-125870473D01*
X139283839Y-125945398D01*
X139240149Y-126003293D01*
X139183760Y-126052508D01*
X139106792Y-126101393D01*
X139102320Y-126103945D01*
X139035317Y-126136131D01*
X138959585Y-126160168D01*
X138870258Y-126176887D01*
X138762469Y-126187115D01*
X138631352Y-126191682D01*
X138585026Y-126192079D01*
X138364430Y-126192870D01*
X138333280Y-126153269D01*
X138324040Y-126140247D01*
X138316832Y-126125040D01*
X138311404Y-126104002D01*
X138307505Y-126073486D01*
X138304883Y-126029847D01*
X138304028Y-125997485D01*
X138512545Y-125997485D01*
X138637536Y-125997485D01*
X138710677Y-125995346D01*
X138785761Y-125989717D01*
X138847384Y-125981779D01*
X138851103Y-125981111D01*
X138960553Y-125951748D01*
X139045448Y-125907633D01*
X139108472Y-125846719D01*
X139152314Y-125766960D01*
X139159937Y-125745820D01*
X139167410Y-125712898D01*
X139164175Y-125680372D01*
X139148433Y-125637100D01*
X139138944Y-125615843D01*
X139107871Y-125559356D01*
X139070433Y-125519727D01*
X139029241Y-125492130D01*
X138946730Y-125456218D01*
X138841133Y-125430204D01*
X138718118Y-125415224D01*
X138629024Y-125411928D01*
X138512545Y-125411331D01*
X138512545Y-125997485D01*
X138304028Y-125997485D01*
X138303286Y-125969436D01*
X138302464Y-125888608D01*
X138302164Y-125783717D01*
X138302130Y-125701698D01*
X138302130Y-125289728D01*
X138339021Y-125252837D01*
X138355394Y-125237884D01*
X138373097Y-125227644D01*
X138397819Y-125221237D01*
X138435248Y-125217783D01*
X138491073Y-125216403D01*
X138570982Y-125216217D01*
X138575737Y-125216223D01*
G36*
X142205501Y-125218566D02*
G01*
X142231582Y-125227886D01*
X142232588Y-125228342D01*
X142268006Y-125255370D01*
X142287520Y-125283172D01*
X142291338Y-125296208D01*
X142291149Y-125313528D01*
X142285776Y-125338203D01*
X142274042Y-125373300D01*
X142254767Y-125421889D01*
X142226776Y-125487038D01*
X142188890Y-125571817D01*
X142139932Y-125679295D01*
X142112985Y-125738039D01*
X142064324Y-125842909D01*
X142018644Y-125939350D01*
X141977688Y-126023834D01*
X141943200Y-126092836D01*
X141916923Y-126142830D01*
X141900600Y-126170290D01*
X141897370Y-126174083D01*
X141856043Y-126190816D01*
X141809363Y-126188575D01*
X141771924Y-126168223D01*
X141770398Y-126166568D01*
X141755505Y-126144022D01*
X141730523Y-126100107D01*
X141698533Y-126040476D01*
X141662614Y-125970782D01*
X141649706Y-125945099D01*
X141552268Y-125749933D01*
X141446060Y-125961943D01*
X141408151Y-126035197D01*
X141372981Y-126098726D01*
X141343422Y-126147667D01*
X141322348Y-126177158D01*
X141315206Y-126183412D01*
X141259692Y-126191881D01*
X141213883Y-126174083D01*
X141200408Y-126155061D01*
X141177090Y-126112785D01*
X141145831Y-126051416D01*
X141108534Y-125975112D01*
X141067100Y-125888035D01*
X141023432Y-125794343D01*
X140979432Y-125698197D01*
X140937002Y-125603757D01*
X140898044Y-125515181D01*
X140864461Y-125436632D01*
X140838155Y-125372267D01*
X140821028Y-125326247D01*
X140814983Y-125302733D01*
X140815045Y-125301881D01*
X140829754Y-125272292D01*
X140859156Y-125242156D01*
X140860887Y-125240844D01*
X140897024Y-125220418D01*
X140930448Y-125220616D01*
X140942976Y-125224467D01*
X140958241Y-125232789D01*
X140974452Y-125249161D01*
X140993553Y-125276978D01*
X141017489Y-125319636D01*
X141048205Y-125380531D01*
X141087645Y-125463061D01*
X141123212Y-125539243D01*
X141164131Y-125627550D01*
X141200798Y-125706962D01*
X141231308Y-125773332D01*
X141253756Y-125822511D01*
X141266237Y-125850349D01*
X141268057Y-125854704D01*
X141276244Y-125847585D01*
X141295059Y-125817777D01*
X141322000Y-125769632D01*
X141354562Y-125707499D01*
X141367520Y-125681864D01*
X141411414Y-125595301D01*
X141445265Y-125532261D01*
X141471851Y-125489078D01*
X141493949Y-125462088D01*
X141514338Y-125447624D01*
X141535794Y-125442023D01*
X141549777Y-125441390D01*
X141574442Y-125443576D01*
X141596056Y-125452615D01*
X141617532Y-125472233D01*
X141641784Y-125506153D01*
X141671724Y-125558098D01*
X141710267Y-125631794D01*
X141731532Y-125673716D01*
X141766026Y-125740530D01*
X141796110Y-125795937D01*
X141819131Y-125835263D01*
X141832434Y-125853832D01*
X141834243Y-125854605D01*
X141842834Y-125839991D01*
X141862068Y-125802043D01*
X141890019Y-125744732D01*
X141924761Y-125672032D01*
X141964367Y-125587912D01*
X141983850Y-125546130D01*
X142034534Y-125438299D01*
X142075347Y-125355326D01*
X142108408Y-125294502D01*
X142135835Y-125253121D01*
X142159746Y-125228476D01*
X142182262Y-125217860D01*
X142205501Y-125218566D01*
G37*
X142205501Y-125218566D02*
X142231582Y-125227886D01*
X142232588Y-125228342D01*
X142268006Y-125255370D01*
X142287520Y-125283172D01*
X142291338Y-125296208D01*
X142291149Y-125313528D01*
X142285776Y-125338203D01*
X142274042Y-125373300D01*
X142254767Y-125421889D01*
X142226776Y-125487038D01*
X142188890Y-125571817D01*
X142139932Y-125679295D01*
X142112985Y-125738039D01*
X142064324Y-125842909D01*
X142018644Y-125939350D01*
X141977688Y-126023834D01*
X141943200Y-126092836D01*
X141916923Y-126142830D01*
X141900600Y-126170290D01*
X141897370Y-126174083D01*
X141856043Y-126190816D01*
X141809363Y-126188575D01*
X141771924Y-126168223D01*
X141770398Y-126166568D01*
X141755505Y-126144022D01*
X141730523Y-126100107D01*
X141698533Y-126040476D01*
X141662614Y-125970782D01*
X141649706Y-125945099D01*
X141552268Y-125749933D01*
X141446060Y-125961943D01*
X141408151Y-126035197D01*
X141372981Y-126098726D01*
X141343422Y-126147667D01*
X141322348Y-126177158D01*
X141315206Y-126183412D01*
X141259692Y-126191881D01*
X141213883Y-126174083D01*
X141200408Y-126155061D01*
X141177090Y-126112785D01*
X141145831Y-126051416D01*
X141108534Y-125975112D01*
X141067100Y-125888035D01*
X141023432Y-125794343D01*
X140979432Y-125698197D01*
X140937002Y-125603757D01*
X140898044Y-125515181D01*
X140864461Y-125436632D01*
X140838155Y-125372267D01*
X140821028Y-125326247D01*
X140814983Y-125302733D01*
X140815045Y-125301881D01*
X140829754Y-125272292D01*
X140859156Y-125242156D01*
X140860887Y-125240844D01*
X140897024Y-125220418D01*
X140930448Y-125220616D01*
X140942976Y-125224467D01*
X140958241Y-125232789D01*
X140974452Y-125249161D01*
X140993553Y-125276978D01*
X141017489Y-125319636D01*
X141048205Y-125380531D01*
X141087645Y-125463061D01*
X141123212Y-125539243D01*
X141164131Y-125627550D01*
X141200798Y-125706962D01*
X141231308Y-125773332D01*
X141253756Y-125822511D01*
X141266237Y-125850349D01*
X141268057Y-125854704D01*
X141276244Y-125847585D01*
X141295059Y-125817777D01*
X141322000Y-125769632D01*
X141354562Y-125707499D01*
X141367520Y-125681864D01*
X141411414Y-125595301D01*
X141445265Y-125532261D01*
X141471851Y-125489078D01*
X141493949Y-125462088D01*
X141514338Y-125447624D01*
X141535794Y-125442023D01*
X141549777Y-125441390D01*
X141574442Y-125443576D01*
X141596056Y-125452615D01*
X141617532Y-125472233D01*
X141641784Y-125506153D01*
X141671724Y-125558098D01*
X141710267Y-125631794D01*
X141731532Y-125673716D01*
X141766026Y-125740530D01*
X141796110Y-125795937D01*
X141819131Y-125835263D01*
X141832434Y-125853832D01*
X141834243Y-125854605D01*
X141842834Y-125839991D01*
X141862068Y-125802043D01*
X141890019Y-125744732D01*
X141924761Y-125672032D01*
X141964367Y-125587912D01*
X141983850Y-125546130D01*
X142034534Y-125438299D01*
X142075347Y-125355326D01*
X142108408Y-125294502D01*
X142135835Y-125253121D01*
X142159746Y-125228476D01*
X142182262Y-125217860D01*
X142205501Y-125218566D01*
G36*
X142796558Y-125225013D02*
G01*
X142828128Y-125244678D01*
X142863610Y-125273409D01*
X142863610Y-125701502D01*
X142863497Y-125826726D01*
X142863013Y-125925383D01*
X142861940Y-126000966D01*
X142860062Y-126056969D01*
X142857160Y-126096883D01*
X142853017Y-126124202D01*
X142847416Y-126142417D01*
X142840139Y-126155022D01*
X142834978Y-126161232D01*
X142793122Y-126188516D01*
X142745459Y-126187403D01*
X142703707Y-126164138D01*
X142668225Y-126135407D01*
X142668225Y-125273409D01*
X142703707Y-125244678D01*
X142737952Y-125223778D01*
X142765917Y-125215946D01*
X142796558Y-125225013D01*
G37*
X142796558Y-125225013D02*
X142828128Y-125244678D01*
X142863610Y-125273409D01*
X142863610Y-125701502D01*
X142863497Y-125826726D01*
X142863013Y-125925383D01*
X142861940Y-126000966D01*
X142860062Y-126056969D01*
X142857160Y-126096883D01*
X142853017Y-126124202D01*
X142847416Y-126142417D01*
X142840139Y-126155022D01*
X142834978Y-126161232D01*
X142793122Y-126188516D01*
X142745459Y-126187403D01*
X142703707Y-126164138D01*
X142668225Y-126135407D01*
X142668225Y-125273409D01*
X142703707Y-125244678D01*
X142737952Y-125223778D01*
X142765917Y-125215946D01*
X142796558Y-125225013D01*
G36*
X143827631Y-125216075D02*
G01*
X143932419Y-125216579D01*
X144013753Y-125217632D01*
X144074934Y-125219412D01*
X144119265Y-125222093D01*
X144150048Y-125225850D01*
X144170585Y-125230861D01*
X144184179Y-125237299D01*
X144190757Y-125242248D01*
X144224898Y-125285565D01*
X144229028Y-125330539D01*
X144207930Y-125371396D01*
X144194133Y-125387722D01*
X144179286Y-125398854D01*
X144157769Y-125405786D01*
X144123962Y-125409513D01*
X144072246Y-125411030D01*
X143997001Y-125411330D01*
X143982223Y-125411331D01*
X143787929Y-125411331D01*
X143787929Y-125772041D01*
X143787801Y-125885737D01*
X143787220Y-125973221D01*
X143785890Y-126038338D01*
X143783514Y-126084934D01*
X143779798Y-126116855D01*
X143774446Y-126137948D01*
X143767161Y-126152059D01*
X143757870Y-126162810D01*
X143714025Y-126189232D01*
X143668254Y-126187150D01*
X143626744Y-126157005D01*
X143623695Y-126153269D01*
X143613766Y-126139146D01*
X143606202Y-126122622D01*
X143600683Y-126099682D01*
X143596887Y-126066309D01*
X143594496Y-126018491D01*
X143593188Y-125952210D01*
X143592645Y-125863454D01*
X143592545Y-125762499D01*
X143592545Y-125411331D01*
X143407004Y-125411331D01*
X143327381Y-125410792D01*
X143272258Y-125408693D01*
X143236086Y-125404307D01*
X143213316Y-125396912D01*
X143198401Y-125385781D01*
X143196590Y-125383846D01*
X143174812Y-125339593D01*
X143176738Y-125289565D01*
X143201775Y-125246006D01*
X143211458Y-125237556D01*
X143223942Y-125230857D01*
X143242557Y-125225705D01*
X143270631Y-125221897D01*
X143311495Y-125219233D01*
X143368476Y-125217508D01*
X143444906Y-125216520D01*
X143544111Y-125216068D01*
X143669423Y-125215948D01*
X143696087Y-125215946D01*
X143827631Y-125216075D01*
G37*
X143827631Y-125216075D02*
X143932419Y-125216579D01*
X144013753Y-125217632D01*
X144074934Y-125219412D01*
X144119265Y-125222093D01*
X144150048Y-125225850D01*
X144170585Y-125230861D01*
X144184179Y-125237299D01*
X144190757Y-125242248D01*
X144224898Y-125285565D01*
X144229028Y-125330539D01*
X144207930Y-125371396D01*
X144194133Y-125387722D01*
X144179286Y-125398854D01*
X144157769Y-125405786D01*
X144123962Y-125409513D01*
X144072246Y-125411030D01*
X143997001Y-125411330D01*
X143982223Y-125411331D01*
X143787929Y-125411331D01*
X143787929Y-125772041D01*
X143787801Y-125885737D01*
X143787220Y-125973221D01*
X143785890Y-126038338D01*
X143783514Y-126084934D01*
X143779798Y-126116855D01*
X143774446Y-126137948D01*
X143767161Y-126152059D01*
X143757870Y-126162810D01*
X143714025Y-126189232D01*
X143668254Y-126187150D01*
X143626744Y-126157005D01*
X143623695Y-126153269D01*
X143613766Y-126139146D01*
X143606202Y-126122622D01*
X143600683Y-126099682D01*
X143596887Y-126066309D01*
X143594496Y-126018491D01*
X143593188Y-125952210D01*
X143592645Y-125863454D01*
X143592545Y-125762499D01*
X143592545Y-125411331D01*
X143407004Y-125411331D01*
X143327381Y-125410792D01*
X143272258Y-125408693D01*
X143236086Y-125404307D01*
X143213316Y-125396912D01*
X143198401Y-125385781D01*
X143196590Y-125383846D01*
X143174812Y-125339593D01*
X143176738Y-125289565D01*
X143201775Y-125246006D01*
X143211458Y-125237556D01*
X143223942Y-125230857D01*
X143242557Y-125225705D01*
X143270631Y-125221897D01*
X143311495Y-125219233D01*
X143368476Y-125217508D01*
X143444906Y-125216520D01*
X143544111Y-125216068D01*
X143669423Y-125215948D01*
X143696087Y-125215946D01*
X143827631Y-125216075D01*
G36*
X145512813Y-125223224D02*
G01*
X145554589Y-125252837D01*
X145591479Y-125289728D01*
X145591479Y-125701698D01*
X145591383Y-125824022D01*
X145590926Y-125919934D01*
X145589857Y-125993080D01*
X145587925Y-126047106D01*
X145584877Y-126085659D01*
X145580463Y-126112384D01*
X145574430Y-126130930D01*
X145566528Y-126144941D01*
X145560329Y-126153269D01*
X145519415Y-126185985D01*
X145472436Y-126189536D01*
X145429498Y-126169473D01*
X145415310Y-126157628D01*
X145405826Y-126141894D01*
X145400105Y-126116558D01*
X145397207Y-126075906D01*
X145396192Y-126014224D01*
X145396095Y-125966574D01*
X145396095Y-125787071D01*
X144734793Y-125787071D01*
X144734793Y-125950369D01*
X144734109Y-126025041D01*
X144731373Y-126076360D01*
X144725558Y-126111013D01*
X144715638Y-126135691D01*
X144703643Y-126153269D01*
X144662500Y-126185893D01*
X144615971Y-126189756D01*
X144571427Y-126166568D01*
X144559266Y-126154412D01*
X144550677Y-126138297D01*
X144545012Y-126113196D01*
X144541623Y-126074080D01*
X144539862Y-126015922D01*
X144539082Y-125933694D01*
X144538990Y-125914822D01*
X144538346Y-125759893D01*
X144538014Y-125632210D01*
X144538122Y-125528963D01*
X144538799Y-125447339D01*
X144540172Y-125384528D01*
X144542370Y-125337717D01*
X144545520Y-125304095D01*
X144549752Y-125280851D01*
X144555192Y-125265172D01*
X144561969Y-125254247D01*
X144569468Y-125246006D01*
X144611887Y-125219643D01*
X144656126Y-125223224D01*
X144697902Y-125252837D01*
X144714807Y-125271943D01*
X144725583Y-125293047D01*
X144731595Y-125323104D01*
X144734210Y-125369069D01*
X144734793Y-125437896D01*
X144734793Y-125591686D01*
X145396095Y-125591686D01*
X145396095Y-125433875D01*
X145396770Y-125361172D01*
X145399480Y-125312081D01*
X145405255Y-125280172D01*
X145415123Y-125259014D01*
X145426154Y-125246006D01*
X145468573Y-125219643D01*
X145512813Y-125223224D01*
G37*
X145512813Y-125223224D02*
X145554589Y-125252837D01*
X145591479Y-125289728D01*
X145591479Y-125701698D01*
X145591383Y-125824022D01*
X145590926Y-125919934D01*
X145589857Y-125993080D01*
X145587925Y-126047106D01*
X145584877Y-126085659D01*
X145580463Y-126112384D01*
X145574430Y-126130930D01*
X145566528Y-126144941D01*
X145560329Y-126153269D01*
X145519415Y-126185985D01*
X145472436Y-126189536D01*
X145429498Y-126169473D01*
X145415310Y-126157628D01*
X145405826Y-126141894D01*
X145400105Y-126116558D01*
X145397207Y-126075906D01*
X145396192Y-126014224D01*
X145396095Y-125966574D01*
X145396095Y-125787071D01*
X144734793Y-125787071D01*
X144734793Y-125950369D01*
X144734109Y-126025041D01*
X144731373Y-126076360D01*
X144725558Y-126111013D01*
X144715638Y-126135691D01*
X144703643Y-126153269D01*
X144662500Y-126185893D01*
X144615971Y-126189756D01*
X144571427Y-126166568D01*
X144559266Y-126154412D01*
X144550677Y-126138297D01*
X144545012Y-126113196D01*
X144541623Y-126074080D01*
X144539862Y-126015922D01*
X144539082Y-125933694D01*
X144538990Y-125914822D01*
X144538346Y-125759893D01*
X144538014Y-125632210D01*
X144538122Y-125528963D01*
X144538799Y-125447339D01*
X144540172Y-125384528D01*
X144542370Y-125337717D01*
X144545520Y-125304095D01*
X144549752Y-125280851D01*
X144555192Y-125265172D01*
X144561969Y-125254247D01*
X144569468Y-125246006D01*
X144611887Y-125219643D01*
X144656126Y-125223224D01*
X144697902Y-125252837D01*
X144714807Y-125271943D01*
X144725583Y-125293047D01*
X144731595Y-125323104D01*
X144734210Y-125369069D01*
X144734793Y-125437896D01*
X144734793Y-125591686D01*
X145396095Y-125591686D01*
X145396095Y-125433875D01*
X145396770Y-125361172D01*
X145399480Y-125312081D01*
X145405255Y-125280172D01*
X145415123Y-125259014D01*
X145426154Y-125246006D01*
X145468573Y-125219643D01*
X145512813Y-125223224D01*
G36*
X133297278Y-118852024D02*
G01*
X133311744Y-119003719D01*
X133353837Y-119147003D01*
X133421607Y-119278807D01*
X133513101Y-119396058D01*
X133626365Y-119495687D01*
X133755490Y-119572729D01*
X133896972Y-119625479D01*
X134039446Y-119650201D01*
X134180104Y-119648684D01*
X134316136Y-119622717D01*
X134444733Y-119574090D01*
X134563086Y-119504593D01*
X134668386Y-119416014D01*
X134757823Y-119310143D01*
X134828588Y-119188770D01*
X134877871Y-119053683D01*
X134902865Y-118906674D01*
X134905444Y-118840244D01*
X134905444Y-118723165D01*
X134974580Y-118723165D01*
X135022919Y-118726953D01*
X135058729Y-118742662D01*
X135094817Y-118774266D01*
X135145917Y-118825367D01*
X135145917Y-121743138D01*
X135145905Y-122092138D01*
X135145862Y-122412332D01*
X135145777Y-122704974D01*
X135145639Y-122971318D01*
X135145438Y-123212617D01*
X135145162Y-123430125D01*
X135144800Y-123625095D01*
X135144342Y-123798780D01*
X135143777Y-123952435D01*
X135143094Y-124087313D01*
X135142283Y-124204668D01*
X135141331Y-124305753D01*
X135140229Y-124391821D01*
X135138965Y-124464127D01*
X135137530Y-124523923D01*
X135135911Y-124572464D01*
X135134098Y-124611003D01*
X135132080Y-124640793D01*
X135129846Y-124663089D01*
X135127386Y-124679143D01*
X135124688Y-124690210D01*
X135121742Y-124697542D01*
X135120301Y-124700005D01*
X135114759Y-124709340D01*
X135110053Y-124717923D01*
X135104955Y-124725784D01*
X135098235Y-124732955D01*
X135088664Y-124739467D01*
X135075014Y-124745353D01*
X135056055Y-124750642D01*
X135030558Y-124755368D01*
X134997295Y-124759560D01*
X134955036Y-124763251D01*
X134902552Y-124766472D01*
X134838614Y-124769254D01*
X134761993Y-124771630D01*
X134671460Y-124773629D01*
X134565786Y-124775284D01*
X134443742Y-124776627D01*
X134304099Y-124777687D01*
X134145628Y-124778498D01*
X133967100Y-124779090D01*
X133767285Y-124779495D01*
X133544955Y-124779744D01*
X133298881Y-124779869D01*
X133027834Y-124779901D01*
X132730584Y-124779871D01*
X132405903Y-124779811D01*
X132052562Y-124779752D01*
X132001459Y-124779746D01*
X131646015Y-124779689D01*
X131319406Y-124779595D01*
X131020408Y-124779455D01*
X130747796Y-124779259D01*
X130500347Y-124778997D01*
X130276836Y-124778660D01*
X130076040Y-124778239D01*
X129896734Y-124777723D01*
X129737693Y-124777104D01*
X129597694Y-124776371D01*
X129475513Y-124775515D01*
X129369925Y-124774526D01*
X129279707Y-124773394D01*
X129203634Y-124772111D01*
X129140481Y-124770666D01*
X129089025Y-124769049D01*
X129048042Y-124767252D01*
X129016308Y-124765265D01*
X128992598Y-124763077D01*
X128975688Y-124760679D01*
X128964354Y-124758063D01*
X128958552Y-124755841D01*
X128947286Y-124751088D01*
X128936942Y-124747578D01*
X128927483Y-124744068D01*
X128918868Y-124739313D01*
X128911058Y-124732069D01*
X128904015Y-124721091D01*
X128897698Y-124705135D01*
X128892069Y-124682955D01*
X128887088Y-124653309D01*
X128882716Y-124614951D01*
X128878914Y-124566637D01*
X128875642Y-124507122D01*
X128872861Y-124435163D01*
X128870533Y-124349513D01*
X128868617Y-124248931D01*
X128867075Y-124132169D01*
X128865866Y-123997985D01*
X128864953Y-123845134D01*
X128864295Y-123672371D01*
X128863854Y-123478452D01*
X128863589Y-123262133D01*
X128863464Y-123022168D01*
X128863436Y-122757314D01*
X128863467Y-122466326D01*
X128863519Y-122147960D01*
X128863551Y-121800970D01*
X128863551Y-121744852D01*
X128863533Y-121394841D01*
X128863499Y-121073636D01*
X128863485Y-120779983D01*
X128863524Y-120512628D01*
X128863649Y-120270317D01*
X128863897Y-120051797D01*
X128864300Y-119855813D01*
X128864893Y-119681113D01*
X128865665Y-119534763D01*
X129268851Y-119534763D01*
X129321826Y-119611775D01*
X129336698Y-119632768D01*
X129350105Y-119651356D01*
X129362124Y-119669120D01*
X129372830Y-119687638D01*
X129382297Y-119708491D01*
X129390603Y-119733257D01*
X129397822Y-119763517D01*
X129404031Y-119800850D01*
X129409304Y-119846835D01*
X129413718Y-119903052D01*
X129417348Y-119971080D01*
X129420270Y-120052500D01*
X129422559Y-120148890D01*
X129424291Y-120261830D01*
X129425542Y-120392899D01*
X129426386Y-120543678D01*
X129426901Y-120715746D01*
X129427161Y-120910681D01*
X129427243Y-121130065D01*
X129427221Y-121375476D01*
X129427172Y-121648494D01*
X129427160Y-121811745D01*
X129427192Y-122100583D01*
X129427237Y-122360943D01*
X129427221Y-122594406D01*
X129427069Y-122802554D01*
X129426706Y-122986969D01*
X129426057Y-123149231D01*
X129425047Y-123290922D01*
X129423601Y-123413624D01*
X129421645Y-123518917D01*
X129419104Y-123608383D01*
X129415903Y-123683603D01*
X129411967Y-123746159D01*
X129407220Y-123797632D01*
X129401590Y-123839603D01*
X129394999Y-123873653D01*
X129387374Y-123901365D01*
X129378640Y-123924318D01*
X129368721Y-123944096D01*
X129357544Y-123962278D01*
X129345033Y-123980446D01*
X129331112Y-124000182D01*
X129323003Y-124012019D01*
X129271382Y-124088728D01*
X129979086Y-124088728D01*
X130143174Y-124088681D01*
X130279633Y-124088481D01*
X130390891Y-124088033D01*
X130479379Y-124087244D01*
X130547524Y-124086020D01*
X130597757Y-124084269D01*
X130632507Y-124081897D01*
X130654202Y-124078810D01*
X130665273Y-124074916D01*
X130668149Y-124070120D01*
X130665259Y-124064330D01*
X130663667Y-124062426D01*
X130630183Y-124013070D01*
X130595704Y-123942773D01*
X130564271Y-123860227D01*
X130553262Y-123825061D01*
X130547116Y-123801175D01*
X130541922Y-123773135D01*
X130537570Y-123738165D01*
X130533952Y-123693489D01*
X130530957Y-123636329D01*
X130528477Y-123563910D01*
X130526402Y-123473455D01*
X130524623Y-123362188D01*
X130523030Y-123227331D01*
X130521514Y-123066109D01*
X130521012Y-123006597D01*
X130519658Y-122839976D01*
X130518648Y-122701026D01*
X130518059Y-122587361D01*
X130517969Y-122496596D01*
X130518456Y-122426344D01*
X130519597Y-122374219D01*
X130521470Y-122337834D01*
X130524153Y-122314804D01*
X130527724Y-122302742D01*
X130532261Y-122299261D01*
X130537841Y-122301976D01*
X130543797Y-122307722D01*
X130557583Y-122324943D01*
X130586950Y-122363651D01*
X130629821Y-122421010D01*
X130684118Y-122494181D01*
X130747763Y-122580326D01*
X130818677Y-122676609D01*
X130894784Y-122780192D01*
X130974005Y-122888237D01*
X131054262Y-122997907D01*
X131133478Y-123106364D01*
X131209574Y-123210770D01*
X131280473Y-123308289D01*
X131344097Y-123396083D01*
X131398367Y-123471314D01*
X131441207Y-123531144D01*
X131470538Y-123572737D01*
X131476620Y-123581567D01*
X131507136Y-123630698D01*
X131542828Y-123694590D01*
X131576643Y-123760542D01*
X131580931Y-123769437D01*
X131609792Y-123833602D01*
X131626548Y-123883610D01*
X131634177Y-123931307D01*
X131635666Y-123987278D01*
X131634822Y-124088728D01*
X133171796Y-124088728D01*
X133050425Y-123963938D01*
X132988121Y-123897510D01*
X132921170Y-123822316D01*
X132859868Y-123750063D01*
X132832675Y-123716310D01*
X132792151Y-123663661D01*
X132738824Y-123592817D01*
X132674253Y-123505947D01*
X132599999Y-123405222D01*
X132517619Y-123292809D01*
X132428674Y-123170879D01*
X132334722Y-123041602D01*
X132237322Y-122907146D01*
X132138035Y-122769681D01*
X132038419Y-122631377D01*
X131940033Y-122494403D01*
X131844436Y-122360929D01*
X131753188Y-122233124D01*
X131667848Y-122113157D01*
X131589975Y-122003199D01*
X131521129Y-121905418D01*
X131462868Y-121821984D01*
X131416751Y-121755066D01*
X131384339Y-121706834D01*
X131367190Y-121679458D01*
X131364850Y-121673996D01*
X131375446Y-121658917D01*
X131403132Y-121622730D01*
X131446091Y-121567701D01*
X131502510Y-121496093D01*
X131570574Y-121410171D01*
X131648467Y-121312198D01*
X131734375Y-121204438D01*
X131826483Y-121089155D01*
X131922977Y-120968614D01*
X132022041Y-120845079D01*
X132101562Y-120746082D01*
X133447574Y-120746082D01*
X133455442Y-120763333D01*
X133474520Y-120792955D01*
X133475914Y-120794928D01*
X133500927Y-120835073D01*
X133527084Y-120884109D01*
X133532275Y-120894941D01*
X133536983Y-120906163D01*
X133541143Y-120919634D01*
X133544797Y-120937210D01*
X133547985Y-120960745D01*
X133550745Y-120992094D01*
X133553119Y-121033112D01*
X133555147Y-121085652D01*
X133556868Y-121151571D01*
X133558324Y-121232723D01*
X133559553Y-121330962D01*
X133560596Y-121448143D01*
X133561494Y-121586121D01*
X133562286Y-121746751D01*
X133563012Y-121931888D01*
X133563713Y-122143386D01*
X133564423Y-122381509D01*
X133565140Y-122627967D01*
X133565718Y-122846229D01*
X133566069Y-123038155D01*
X133566102Y-123205607D01*
X133565728Y-123350449D01*
X133564857Y-123474540D01*
X133563399Y-123579744D01*
X133561264Y-123667922D01*
X133558363Y-123740936D01*
X133554606Y-123800648D01*
X133549903Y-123848920D01*
X133544165Y-123887614D01*
X133537301Y-123918591D01*
X133529222Y-123943714D01*
X133519838Y-123964845D01*
X133509060Y-123983845D01*
X133496797Y-124002576D01*
X133485480Y-124019175D01*
X133462666Y-124054182D01*
X133449157Y-124077593D01*
X133447574Y-124081880D01*
X133462095Y-124083314D01*
X133503625Y-124084646D01*
X133569111Y-124085845D01*
X133655505Y-124086877D01*
X133759754Y-124087712D01*
X133878808Y-124088317D01*
X134009616Y-124088660D01*
X134101361Y-124088728D01*
X134241145Y-124088434D01*
X134370076Y-124087593D01*
X134485242Y-124086263D01*
X134583730Y-124084503D01*
X134662624Y-124082372D01*
X134719012Y-124079928D01*
X134749980Y-124077231D01*
X134755148Y-124075538D01*
X134744900Y-124055697D01*
X134734251Y-124045006D01*
X134716714Y-124022204D01*
X134693763Y-123981929D01*
X134677890Y-123949231D01*
X134642426Y-123870799D01*
X134638332Y-122303964D01*
X134634238Y-120737130D01*
X134040906Y-120737130D01*
X133910677Y-120737349D01*
X133790330Y-120737973D01*
X133683068Y-120738953D01*
X133592093Y-120740243D01*
X133520607Y-120741792D01*
X133471814Y-120743554D01*
X133448915Y-120745479D01*
X133447574Y-120746082D01*
X132101562Y-120746082D01*
X132121860Y-120720813D01*
X132220620Y-120598081D01*
X132316507Y-120479147D01*
X132407704Y-120366274D01*
X132492398Y-120261728D01*
X132568773Y-120167771D01*
X132635016Y-120086668D01*
X132689310Y-120020684D01*
X132712162Y-119993165D01*
X132827048Y-119859149D01*
X132929029Y-119748303D01*
X133020645Y-119658009D01*
X133104434Y-119585651D01*
X133116923Y-119575842D01*
X133169527Y-119535096D01*
X132416136Y-119534930D01*
X131662746Y-119534763D01*
X131669787Y-119598639D01*
X131665390Y-119674984D01*
X131636724Y-119765882D01*
X131583504Y-119872057D01*
X131523183Y-119968292D01*
X131501591Y-119998441D01*
X131464242Y-120048441D01*
X131413363Y-120115442D01*
X131351180Y-120196591D01*
X131279919Y-120289038D01*
X131201808Y-120389933D01*
X131119072Y-120496423D01*
X131033937Y-120605658D01*
X130948631Y-120714787D01*
X130865379Y-120820959D01*
X130786408Y-120921323D01*
X130713945Y-121013027D01*
X130650215Y-121093221D01*
X130597445Y-121159054D01*
X130557862Y-121207674D01*
X130533691Y-121236230D01*
X130529619Y-121240621D01*
X130525812Y-121229962D01*
X130522865Y-121189630D01*
X130520783Y-121120000D01*
X130519571Y-121021447D01*
X130519234Y-120894344D01*
X130519777Y-120739068D01*
X130520987Y-120579319D01*
X130522747Y-120403431D01*
X130524777Y-120254667D01*
X130527407Y-120130092D01*
X130530969Y-120026771D01*
X130535794Y-119941769D01*
X130542213Y-119872152D01*
X130550556Y-119814984D01*
X130561156Y-119767331D01*
X130574343Y-119726257D01*
X130590448Y-119688827D01*
X130609803Y-119652107D01*
X130629350Y-119618771D01*
X130679937Y-119534763D01*
X129268851Y-119534763D01*
X128865665Y-119534763D01*
X128865709Y-119526442D01*
X128866782Y-119390547D01*
X128868147Y-119272174D01*
X128869838Y-119170069D01*
X128871888Y-119082979D01*
X128874332Y-119009650D01*
X128877204Y-118948829D01*
X128880538Y-118899260D01*
X128884367Y-118859692D01*
X128888726Y-118828870D01*
X128893649Y-118805540D01*
X128899170Y-118788448D01*
X128905322Y-118776342D01*
X128912141Y-118767967D01*
X128919660Y-118762070D01*
X128927913Y-118757396D01*
X128936933Y-118752693D01*
X128944916Y-118747942D01*
X128951883Y-118744512D01*
X128962768Y-118741412D01*
X128979028Y-118738625D01*
X129002121Y-118736134D01*
X129033503Y-118733923D01*
X129074632Y-118731976D01*
X129126966Y-118730276D01*
X129191961Y-118728807D01*
X129271075Y-118727552D01*
X129365764Y-118726494D01*
X129477488Y-118725618D01*
X129607701Y-118724907D01*
X129757863Y-118724345D01*
X129929430Y-118723914D01*
X130123859Y-118723599D01*
X130342608Y-118723383D01*
X130587134Y-118723250D01*
X130858895Y-118723183D01*
X131140004Y-118723165D01*
X133297278Y-118723165D01*
X133297278Y-118852024D01*
G37*
X133297278Y-118852024D02*
X133311744Y-119003719D01*
X133353837Y-119147003D01*
X133421607Y-119278807D01*
X133513101Y-119396058D01*
X133626365Y-119495687D01*
X133755490Y-119572729D01*
X133896972Y-119625479D01*
X134039446Y-119650201D01*
X134180104Y-119648684D01*
X134316136Y-119622717D01*
X134444733Y-119574090D01*
X134563086Y-119504593D01*
X134668386Y-119416014D01*
X134757823Y-119310143D01*
X134828588Y-119188770D01*
X134877871Y-119053683D01*
X134902865Y-118906674D01*
X134905444Y-118840244D01*
X134905444Y-118723165D01*
X134974580Y-118723165D01*
X135022919Y-118726953D01*
X135058729Y-118742662D01*
X135094817Y-118774266D01*
X135145917Y-118825367D01*
X135145917Y-121743138D01*
X135145905Y-122092138D01*
X135145862Y-122412332D01*
X135145777Y-122704974D01*
X135145639Y-122971318D01*
X135145438Y-123212617D01*
X135145162Y-123430125D01*
X135144800Y-123625095D01*
X135144342Y-123798780D01*
X135143777Y-123952435D01*
X135143094Y-124087313D01*
X135142283Y-124204668D01*
X135141331Y-124305753D01*
X135140229Y-124391821D01*
X135138965Y-124464127D01*
X135137530Y-124523923D01*
X135135911Y-124572464D01*
X135134098Y-124611003D01*
X135132080Y-124640793D01*
X135129846Y-124663089D01*
X135127386Y-124679143D01*
X135124688Y-124690210D01*
X135121742Y-124697542D01*
X135120301Y-124700005D01*
X135114759Y-124709340D01*
X135110053Y-124717923D01*
X135104955Y-124725784D01*
X135098235Y-124732955D01*
X135088664Y-124739467D01*
X135075014Y-124745353D01*
X135056055Y-124750642D01*
X135030558Y-124755368D01*
X134997295Y-124759560D01*
X134955036Y-124763251D01*
X134902552Y-124766472D01*
X134838614Y-124769254D01*
X134761993Y-124771630D01*
X134671460Y-124773629D01*
X134565786Y-124775284D01*
X134443742Y-124776627D01*
X134304099Y-124777687D01*
X134145628Y-124778498D01*
X133967100Y-124779090D01*
X133767285Y-124779495D01*
X133544955Y-124779744D01*
X133298881Y-124779869D01*
X133027834Y-124779901D01*
X132730584Y-124779871D01*
X132405903Y-124779811D01*
X132052562Y-124779752D01*
X132001459Y-124779746D01*
X131646015Y-124779689D01*
X131319406Y-124779595D01*
X131020408Y-124779455D01*
X130747796Y-124779259D01*
X130500347Y-124778997D01*
X130276836Y-124778660D01*
X130076040Y-124778239D01*
X129896734Y-124777723D01*
X129737693Y-124777104D01*
X129597694Y-124776371D01*
X129475513Y-124775515D01*
X129369925Y-124774526D01*
X129279707Y-124773394D01*
X129203634Y-124772111D01*
X129140481Y-124770666D01*
X129089025Y-124769049D01*
X129048042Y-124767252D01*
X129016308Y-124765265D01*
X128992598Y-124763077D01*
X128975688Y-124760679D01*
X128964354Y-124758063D01*
X128958552Y-124755841D01*
X128947286Y-124751088D01*
X128936942Y-124747578D01*
X128927483Y-124744068D01*
X128918868Y-124739313D01*
X128911058Y-124732069D01*
X128904015Y-124721091D01*
X128897698Y-124705135D01*
X128892069Y-124682955D01*
X128887088Y-124653309D01*
X128882716Y-124614951D01*
X128878914Y-124566637D01*
X128875642Y-124507122D01*
X128872861Y-124435163D01*
X128870533Y-124349513D01*
X128868617Y-124248931D01*
X128867075Y-124132169D01*
X128865866Y-123997985D01*
X128864953Y-123845134D01*
X128864295Y-123672371D01*
X128863854Y-123478452D01*
X128863589Y-123262133D01*
X128863464Y-123022168D01*
X128863436Y-122757314D01*
X128863467Y-122466326D01*
X128863519Y-122147960D01*
X128863551Y-121800970D01*
X128863551Y-121744852D01*
X128863533Y-121394841D01*
X128863499Y-121073636D01*
X128863485Y-120779983D01*
X128863524Y-120512628D01*
X128863649Y-120270317D01*
X128863897Y-120051797D01*
X128864300Y-119855813D01*
X128864893Y-119681113D01*
X128865665Y-119534763D01*
X129268851Y-119534763D01*
X129321826Y-119611775D01*
X129336698Y-119632768D01*
X129350105Y-119651356D01*
X129362124Y-119669120D01*
X129372830Y-119687638D01*
X129382297Y-119708491D01*
X129390603Y-119733257D01*
X129397822Y-119763517D01*
X129404031Y-119800850D01*
X129409304Y-119846835D01*
X129413718Y-119903052D01*
X129417348Y-119971080D01*
X129420270Y-120052500D01*
X129422559Y-120148890D01*
X129424291Y-120261830D01*
X129425542Y-120392899D01*
X129426386Y-120543678D01*
X129426901Y-120715746D01*
X129427161Y-120910681D01*
X129427243Y-121130065D01*
X129427221Y-121375476D01*
X129427172Y-121648494D01*
X129427160Y-121811745D01*
X129427192Y-122100583D01*
X129427237Y-122360943D01*
X129427221Y-122594406D01*
X129427069Y-122802554D01*
X129426706Y-122986969D01*
X129426057Y-123149231D01*
X129425047Y-123290922D01*
X129423601Y-123413624D01*
X129421645Y-123518917D01*
X129419104Y-123608383D01*
X129415903Y-123683603D01*
X129411967Y-123746159D01*
X129407220Y-123797632D01*
X129401590Y-123839603D01*
X129394999Y-123873653D01*
X129387374Y-123901365D01*
X129378640Y-123924318D01*
X129368721Y-123944096D01*
X129357544Y-123962278D01*
X129345033Y-123980446D01*
X129331112Y-124000182D01*
X129323003Y-124012019D01*
X129271382Y-124088728D01*
X129979086Y-124088728D01*
X130143174Y-124088681D01*
X130279633Y-124088481D01*
X130390891Y-124088033D01*
X130479379Y-124087244D01*
X130547524Y-124086020D01*
X130597757Y-124084269D01*
X130632507Y-124081897D01*
X130654202Y-124078810D01*
X130665273Y-124074916D01*
X130668149Y-124070120D01*
X130665259Y-124064330D01*
X130663667Y-124062426D01*
X130630183Y-124013070D01*
X130595704Y-123942773D01*
X130564271Y-123860227D01*
X130553262Y-123825061D01*
X130547116Y-123801175D01*
X130541922Y-123773135D01*
X130537570Y-123738165D01*
X130533952Y-123693489D01*
X130530957Y-123636329D01*
X130528477Y-123563910D01*
X130526402Y-123473455D01*
X130524623Y-123362188D01*
X130523030Y-123227331D01*
X130521514Y-123066109D01*
X130521012Y-123006597D01*
X130519658Y-122839976D01*
X130518648Y-122701026D01*
X130518059Y-122587361D01*
X130517969Y-122496596D01*
X130518456Y-122426344D01*
X130519597Y-122374219D01*
X130521470Y-122337834D01*
X130524153Y-122314804D01*
X130527724Y-122302742D01*
X130532261Y-122299261D01*
X130537841Y-122301976D01*
X130543797Y-122307722D01*
X130557583Y-122324943D01*
X130586950Y-122363651D01*
X130629821Y-122421010D01*
X130684118Y-122494181D01*
X130747763Y-122580326D01*
X130818677Y-122676609D01*
X130894784Y-122780192D01*
X130974005Y-122888237D01*
X131054262Y-122997907D01*
X131133478Y-123106364D01*
X131209574Y-123210770D01*
X131280473Y-123308289D01*
X131344097Y-123396083D01*
X131398367Y-123471314D01*
X131441207Y-123531144D01*
X131470538Y-123572737D01*
X131476620Y-123581567D01*
X131507136Y-123630698D01*
X131542828Y-123694590D01*
X131576643Y-123760542D01*
X131580931Y-123769437D01*
X131609792Y-123833602D01*
X131626548Y-123883610D01*
X131634177Y-123931307D01*
X131635666Y-123987278D01*
X131634822Y-124088728D01*
X133171796Y-124088728D01*
X133050425Y-123963938D01*
X132988121Y-123897510D01*
X132921170Y-123822316D01*
X132859868Y-123750063D01*
X132832675Y-123716310D01*
X132792151Y-123663661D01*
X132738824Y-123592817D01*
X132674253Y-123505947D01*
X132599999Y-123405222D01*
X132517619Y-123292809D01*
X132428674Y-123170879D01*
X132334722Y-123041602D01*
X132237322Y-122907146D01*
X132138035Y-122769681D01*
X132038419Y-122631377D01*
X131940033Y-122494403D01*
X131844436Y-122360929D01*
X131753188Y-122233124D01*
X131667848Y-122113157D01*
X131589975Y-122003199D01*
X131521129Y-121905418D01*
X131462868Y-121821984D01*
X131416751Y-121755066D01*
X131384339Y-121706834D01*
X131367190Y-121679458D01*
X131364850Y-121673996D01*
X131375446Y-121658917D01*
X131403132Y-121622730D01*
X131446091Y-121567701D01*
X131502510Y-121496093D01*
X131570574Y-121410171D01*
X131648467Y-121312198D01*
X131734375Y-121204438D01*
X131826483Y-121089155D01*
X131922977Y-120968614D01*
X132022041Y-120845079D01*
X132101562Y-120746082D01*
X133447574Y-120746082D01*
X133455442Y-120763333D01*
X133474520Y-120792955D01*
X133475914Y-120794928D01*
X133500927Y-120835073D01*
X133527084Y-120884109D01*
X133532275Y-120894941D01*
X133536983Y-120906163D01*
X133541143Y-120919634D01*
X133544797Y-120937210D01*
X133547985Y-120960745D01*
X133550745Y-120992094D01*
X133553119Y-121033112D01*
X133555147Y-121085652D01*
X133556868Y-121151571D01*
X133558324Y-121232723D01*
X133559553Y-121330962D01*
X133560596Y-121448143D01*
X133561494Y-121586121D01*
X133562286Y-121746751D01*
X133563012Y-121931888D01*
X133563713Y-122143386D01*
X133564423Y-122381509D01*
X133565140Y-122627967D01*
X133565718Y-122846229D01*
X133566069Y-123038155D01*
X133566102Y-123205607D01*
X133565728Y-123350449D01*
X133564857Y-123474540D01*
X133563399Y-123579744D01*
X133561264Y-123667922D01*
X133558363Y-123740936D01*
X133554606Y-123800648D01*
X133549903Y-123848920D01*
X133544165Y-123887614D01*
X133537301Y-123918591D01*
X133529222Y-123943714D01*
X133519838Y-123964845D01*
X133509060Y-123983845D01*
X133496797Y-124002576D01*
X133485480Y-124019175D01*
X133462666Y-124054182D01*
X133449157Y-124077593D01*
X133447574Y-124081880D01*
X133462095Y-124083314D01*
X133503625Y-124084646D01*
X133569111Y-124085845D01*
X133655505Y-124086877D01*
X133759754Y-124087712D01*
X133878808Y-124088317D01*
X134009616Y-124088660D01*
X134101361Y-124088728D01*
X134241145Y-124088434D01*
X134370076Y-124087593D01*
X134485242Y-124086263D01*
X134583730Y-124084503D01*
X134662624Y-124082372D01*
X134719012Y-124079928D01*
X134749980Y-124077231D01*
X134755148Y-124075538D01*
X134744900Y-124055697D01*
X134734251Y-124045006D01*
X134716714Y-124022204D01*
X134693763Y-123981929D01*
X134677890Y-123949231D01*
X134642426Y-123870799D01*
X134638332Y-122303964D01*
X134634238Y-120737130D01*
X134040906Y-120737130D01*
X133910677Y-120737349D01*
X133790330Y-120737973D01*
X133683068Y-120738953D01*
X133592093Y-120740243D01*
X133520607Y-120741792D01*
X133471814Y-120743554D01*
X133448915Y-120745479D01*
X133447574Y-120746082D01*
X132101562Y-120746082D01*
X132121860Y-120720813D01*
X132220620Y-120598081D01*
X132316507Y-120479147D01*
X132407704Y-120366274D01*
X132492398Y-120261728D01*
X132568773Y-120167771D01*
X132635016Y-120086668D01*
X132689310Y-120020684D01*
X132712162Y-119993165D01*
X132827048Y-119859149D01*
X132929029Y-119748303D01*
X133020645Y-119658009D01*
X133104434Y-119585651D01*
X133116923Y-119575842D01*
X133169527Y-119535096D01*
X132416136Y-119534930D01*
X131662746Y-119534763D01*
X131669787Y-119598639D01*
X131665390Y-119674984D01*
X131636724Y-119765882D01*
X131583504Y-119872057D01*
X131523183Y-119968292D01*
X131501591Y-119998441D01*
X131464242Y-120048441D01*
X131413363Y-120115442D01*
X131351180Y-120196591D01*
X131279919Y-120289038D01*
X131201808Y-120389933D01*
X131119072Y-120496423D01*
X131033937Y-120605658D01*
X130948631Y-120714787D01*
X130865379Y-120820959D01*
X130786408Y-120921323D01*
X130713945Y-121013027D01*
X130650215Y-121093221D01*
X130597445Y-121159054D01*
X130557862Y-121207674D01*
X130533691Y-121236230D01*
X130529619Y-121240621D01*
X130525812Y-121229962D01*
X130522865Y-121189630D01*
X130520783Y-121120000D01*
X130519571Y-121021447D01*
X130519234Y-120894344D01*
X130519777Y-120739068D01*
X130520987Y-120579319D01*
X130522747Y-120403431D01*
X130524777Y-120254667D01*
X130527407Y-120130092D01*
X130530969Y-120026771D01*
X130535794Y-119941769D01*
X130542213Y-119872152D01*
X130550556Y-119814984D01*
X130561156Y-119767331D01*
X130574343Y-119726257D01*
X130590448Y-119688827D01*
X130609803Y-119652107D01*
X130629350Y-119618771D01*
X130679937Y-119534763D01*
X129268851Y-119534763D01*
X128865665Y-119534763D01*
X128865709Y-119526442D01*
X128866782Y-119390547D01*
X128868147Y-119272174D01*
X128869838Y-119170069D01*
X128871888Y-119082979D01*
X128874332Y-119009650D01*
X128877204Y-118948829D01*
X128880538Y-118899260D01*
X128884367Y-118859692D01*
X128888726Y-118828870D01*
X128893649Y-118805540D01*
X128899170Y-118788448D01*
X128905322Y-118776342D01*
X128912141Y-118767967D01*
X128919660Y-118762070D01*
X128927913Y-118757396D01*
X128936933Y-118752693D01*
X128944916Y-118747942D01*
X128951883Y-118744512D01*
X128962768Y-118741412D01*
X128979028Y-118738625D01*
X129002121Y-118736134D01*
X129033503Y-118733923D01*
X129074632Y-118731976D01*
X129126966Y-118730276D01*
X129191961Y-118728807D01*
X129271075Y-118727552D01*
X129365764Y-118726494D01*
X129477488Y-118725618D01*
X129607701Y-118724907D01*
X129757863Y-118724345D01*
X129929430Y-118723914D01*
X130123859Y-118723599D01*
X130342608Y-118723383D01*
X130587134Y-118723250D01*
X130858895Y-118723183D01*
X131140004Y-118723165D01*
X133297278Y-118723165D01*
X133297278Y-118852024D01*
G36*
X137657258Y-119464473D02*
G01*
X137870464Y-119492663D01*
X138088727Y-119546103D01*
X138314796Y-119625325D01*
X138551418Y-119730856D01*
X138566420Y-119738238D01*
X138643232Y-119775550D01*
X138711860Y-119807605D01*
X138767297Y-119832166D01*
X138804536Y-119846992D01*
X138817278Y-119850384D01*
X138842863Y-119857051D01*
X138849003Y-119862651D01*
X138842208Y-119876541D01*
X138820853Y-119911540D01*
X138787396Y-119963980D01*
X138744294Y-120030194D01*
X138694008Y-120106514D01*
X138638995Y-120189273D01*
X138581714Y-120274801D01*
X138524623Y-120359433D01*
X138470183Y-120439500D01*
X138420850Y-120511334D01*
X138379083Y-120571268D01*
X138347342Y-120615635D01*
X138328085Y-120640765D01*
X138325442Y-120643680D01*
X138311971Y-120637491D01*
X138282227Y-120614623D01*
X138241527Y-120579314D01*
X138220566Y-120560040D01*
X138092104Y-120459814D01*
X137950034Y-120386002D01*
X137796256Y-120339270D01*
X137632672Y-120320284D01*
X137540275Y-120321843D01*
X137378995Y-120344690D01*
X137233587Y-120392462D01*
X137103616Y-120465508D01*
X136988647Y-120564176D01*
X136888246Y-120688815D01*
X136801978Y-120839776D01*
X136752161Y-120955059D01*
X136693778Y-121135724D01*
X136650748Y-121332078D01*
X136622960Y-121539057D01*
X136610305Y-121751598D01*
X136612670Y-121964638D01*
X136629945Y-122173113D01*
X136662019Y-122371961D01*
X136708782Y-122556118D01*
X136770123Y-122720520D01*
X136791800Y-122766124D01*
X136882660Y-122918014D01*
X136989781Y-123046481D01*
X137111588Y-123150478D01*
X137246510Y-123228958D01*
X137392971Y-123280874D01*
X137549400Y-123305179D01*
X137604608Y-123306967D01*
X137766446Y-123292428D01*
X137926791Y-123248737D01*
X138083610Y-123176798D01*
X138234867Y-123077512D01*
X138356564Y-122973232D01*
X138418512Y-122913945D01*
X138659845Y-123309709D01*
X138719886Y-123408446D01*
X138774789Y-123499262D01*
X138822606Y-123578895D01*
X138861391Y-123644080D01*
X138889194Y-123691554D01*
X138904070Y-123718055D01*
X138906003Y-123722175D01*
X138895047Y-123735009D01*
X138860993Y-123758016D01*
X138808145Y-123789015D01*
X138740811Y-123825829D01*
X138663294Y-123866278D01*
X138579902Y-123908182D01*
X138494940Y-123949363D01*
X138412714Y-123987642D01*
X138337529Y-124020838D01*
X138273691Y-124046775D01*
X138242467Y-124057997D01*
X138064377Y-124108342D01*
X137880791Y-124141630D01*
X137684142Y-124158943D01*
X137515341Y-124162043D01*
X137424867Y-124160585D01*
X137337529Y-124157792D01*
X137261068Y-124154009D01*
X137203230Y-124149578D01*
X137184451Y-124147337D01*
X136999372Y-124108947D01*
X136810949Y-124048877D01*
X136627910Y-123970702D01*
X136458987Y-123878000D01*
X136355799Y-123807864D01*
X136186174Y-123663809D01*
X136028670Y-123495302D01*
X135886205Y-123306508D01*
X135761697Y-123101591D01*
X135658062Y-122884715D01*
X135599676Y-122728550D01*
X135532778Y-122484076D01*
X135488179Y-122225064D01*
X135465865Y-121957119D01*
X135465821Y-121685845D01*
X135488034Y-121416847D01*
X135532491Y-121155729D01*
X135599176Y-120908095D01*
X135604257Y-120892666D01*
X135687978Y-120676915D01*
X135790156Y-120479983D01*
X135914258Y-120296299D01*
X136063750Y-120120288D01*
X136122150Y-120060027D01*
X136303404Y-119895016D01*
X136489737Y-119758495D01*
X136684009Y-119648979D01*
X136889079Y-119564981D01*
X137107810Y-119505015D01*
X137235030Y-119481730D01*
X137446363Y-119461005D01*
X137657258Y-119464473D01*
G37*
X137657258Y-119464473D02*
X137870464Y-119492663D01*
X138088727Y-119546103D01*
X138314796Y-119625325D01*
X138551418Y-119730856D01*
X138566420Y-119738238D01*
X138643232Y-119775550D01*
X138711860Y-119807605D01*
X138767297Y-119832166D01*
X138804536Y-119846992D01*
X138817278Y-119850384D01*
X138842863Y-119857051D01*
X138849003Y-119862651D01*
X138842208Y-119876541D01*
X138820853Y-119911540D01*
X138787396Y-119963980D01*
X138744294Y-120030194D01*
X138694008Y-120106514D01*
X138638995Y-120189273D01*
X138581714Y-120274801D01*
X138524623Y-120359433D01*
X138470183Y-120439500D01*
X138420850Y-120511334D01*
X138379083Y-120571268D01*
X138347342Y-120615635D01*
X138328085Y-120640765D01*
X138325442Y-120643680D01*
X138311971Y-120637491D01*
X138282227Y-120614623D01*
X138241527Y-120579314D01*
X138220566Y-120560040D01*
X138092104Y-120459814D01*
X137950034Y-120386002D01*
X137796256Y-120339270D01*
X137632672Y-120320284D01*
X137540275Y-120321843D01*
X137378995Y-120344690D01*
X137233587Y-120392462D01*
X137103616Y-120465508D01*
X136988647Y-120564176D01*
X136888246Y-120688815D01*
X136801978Y-120839776D01*
X136752161Y-120955059D01*
X136693778Y-121135724D01*
X136650748Y-121332078D01*
X136622960Y-121539057D01*
X136610305Y-121751598D01*
X136612670Y-121964638D01*
X136629945Y-122173113D01*
X136662019Y-122371961D01*
X136708782Y-122556118D01*
X136770123Y-122720520D01*
X136791800Y-122766124D01*
X136882660Y-122918014D01*
X136989781Y-123046481D01*
X137111588Y-123150478D01*
X137246510Y-123228958D01*
X137392971Y-123280874D01*
X137549400Y-123305179D01*
X137604608Y-123306967D01*
X137766446Y-123292428D01*
X137926791Y-123248737D01*
X138083610Y-123176798D01*
X138234867Y-123077512D01*
X138356564Y-122973232D01*
X138418512Y-122913945D01*
X138659845Y-123309709D01*
X138719886Y-123408446D01*
X138774789Y-123499262D01*
X138822606Y-123578895D01*
X138861391Y-123644080D01*
X138889194Y-123691554D01*
X138904070Y-123718055D01*
X138906003Y-123722175D01*
X138895047Y-123735009D01*
X138860993Y-123758016D01*
X138808145Y-123789015D01*
X138740811Y-123825829D01*
X138663294Y-123866278D01*
X138579902Y-123908182D01*
X138494940Y-123949363D01*
X138412714Y-123987642D01*
X138337529Y-124020838D01*
X138273691Y-124046775D01*
X138242467Y-124057997D01*
X138064377Y-124108342D01*
X137880791Y-124141630D01*
X137684142Y-124158943D01*
X137515341Y-124162043D01*
X137424867Y-124160585D01*
X137337529Y-124157792D01*
X137261068Y-124154009D01*
X137203230Y-124149578D01*
X137184451Y-124147337D01*
X136999372Y-124108947D01*
X136810949Y-124048877D01*
X136627910Y-123970702D01*
X136458987Y-123878000D01*
X136355799Y-123807864D01*
X136186174Y-123663809D01*
X136028670Y-123495302D01*
X135886205Y-123306508D01*
X135761697Y-123101591D01*
X135658062Y-122884715D01*
X135599676Y-122728550D01*
X135532778Y-122484076D01*
X135488179Y-122225064D01*
X135465865Y-121957119D01*
X135465821Y-121685845D01*
X135488034Y-121416847D01*
X135532491Y-121155729D01*
X135599176Y-120908095D01*
X135604257Y-120892666D01*
X135687978Y-120676915D01*
X135790156Y-120479983D01*
X135914258Y-120296299D01*
X136063750Y-120120288D01*
X136122150Y-120060027D01*
X136303404Y-119895016D01*
X136489737Y-119758495D01*
X136684009Y-119648979D01*
X136889079Y-119564981D01*
X137107810Y-119505015D01*
X137235030Y-119481730D01*
X137446363Y-119461005D01*
X137657258Y-119464473D01*
G36*
X140779492Y-120685971D02*
G01*
X140981750Y-120712618D01*
X141161836Y-120757398D01*
X141320911Y-120820669D01*
X141460138Y-120902787D01*
X141563465Y-120987409D01*
X141655116Y-121086108D01*
X141726666Y-121192313D01*
X141783786Y-121315092D01*
X141804388Y-121372433D01*
X141821508Y-121424331D01*
X141836422Y-121472455D01*
X141849302Y-121519246D01*
X141860320Y-121567144D01*
X141869650Y-121618587D01*
X141877463Y-121676016D01*
X141883932Y-121741870D01*
X141889230Y-121818589D01*
X141893530Y-121908612D01*
X141897003Y-122014380D01*
X141899823Y-122138331D01*
X141902162Y-122282906D01*
X141904193Y-122450544D01*
X141906088Y-122643685D01*
X141907755Y-122833757D01*
X141909521Y-123041703D01*
X141911126Y-123221797D01*
X141912737Y-123376244D01*
X141914520Y-123507249D01*
X141916643Y-123617017D01*
X141919272Y-123707753D01*
X141922576Y-123781662D01*
X141926719Y-123840950D01*
X141931870Y-123887822D01*
X141938196Y-123924483D01*
X141945863Y-123953137D01*
X141955038Y-123975990D01*
X141965888Y-123995248D01*
X141978581Y-124013115D01*
X141993283Y-124031796D01*
X141999009Y-124039029D01*
X142020070Y-124069436D01*
X142029438Y-124090142D01*
X142029468Y-124090754D01*
X142014986Y-124093682D01*
X141973733Y-124096378D01*
X141908997Y-124098769D01*
X141824064Y-124100778D01*
X141722223Y-124102329D01*
X141606760Y-124103346D01*
X141480964Y-124103753D01*
X141466443Y-124103757D01*
X140903419Y-124103757D01*
X140899076Y-123975858D01*
X140894734Y-123847958D01*
X140812071Y-123915841D01*
X140682490Y-124005726D01*
X140536172Y-124078541D01*
X140421056Y-124118787D01*
X140329098Y-124138342D01*
X140218126Y-124151647D01*
X140098615Y-124158285D01*
X139981037Y-124157843D01*
X139875867Y-124149905D01*
X139827633Y-124142298D01*
X139641218Y-124091890D01*
X139472900Y-124018874D01*
X139323896Y-123924337D01*
X139195424Y-123809365D01*
X139088699Y-123675046D01*
X139004940Y-123522467D01*
X138945860Y-123354594D01*
X138929438Y-123279261D01*
X138919307Y-123196451D01*
X138914476Y-123096815D01*
X138913817Y-123051686D01*
X138913904Y-123047446D01*
X139925656Y-123047446D01*
X139938029Y-123147367D01*
X139975556Y-123232343D01*
X140040085Y-123306417D01*
X140046818Y-123312292D01*
X140111115Y-123358659D01*
X140179958Y-123388724D01*
X140260814Y-123404595D01*
X140361149Y-123408380D01*
X140385257Y-123407840D01*
X140456909Y-123404309D01*
X140510203Y-123397098D01*
X140556823Y-123383566D01*
X140608452Y-123361072D01*
X140622620Y-123354178D01*
X140703368Y-123306478D01*
X140765701Y-123249719D01*
X140782659Y-123229431D01*
X140842130Y-123154194D01*
X140842130Y-122893413D01*
X140841417Y-122788706D01*
X140839167Y-122711552D01*
X140835215Y-122659478D01*
X140829396Y-122630009D01*
X140823958Y-122621400D01*
X140802755Y-122617188D01*
X140757778Y-122613697D01*
X140695305Y-122611256D01*
X140621619Y-122610194D01*
X140609786Y-122610174D01*
X140448990Y-122617169D01*
X140312299Y-122638693D01*
X140197065Y-122675569D01*
X140100641Y-122728620D01*
X140027509Y-122791127D01*
X139968201Y-122868195D01*
X139935285Y-122952135D01*
X139925656Y-123047446D01*
X138913904Y-123047446D01*
X138916391Y-122926864D01*
X138927501Y-122821821D01*
X138949129Y-122726998D01*
X138983261Y-122632837D01*
X139015209Y-122563111D01*
X139093252Y-122436236D01*
X139197227Y-122319042D01*
X139323970Y-122213662D01*
X139470318Y-122122228D01*
X139633106Y-122046874D01*
X139809171Y-121989732D01*
X139895266Y-121969842D01*
X140076574Y-121940413D01*
X140274208Y-121920997D01*
X140475850Y-121912502D01*
X140644346Y-121914675D01*
X140859875Y-121923700D01*
X140849997Y-121845178D01*
X140824311Y-121713170D01*
X140782861Y-121605702D01*
X140724501Y-121521952D01*
X140648083Y-121461095D01*
X140552461Y-121422308D01*
X140436490Y-121404766D01*
X140299021Y-121407647D01*
X140248462Y-121412974D01*
X140060486Y-121446482D01*
X139878338Y-121501113D01*
X139752485Y-121551706D01*
X139692361Y-121577501D01*
X139641194Y-121598231D01*
X139606111Y-121611071D01*
X139595875Y-121613797D01*
X139582902Y-121601710D01*
X139560643Y-121563142D01*
X139528890Y-121497655D01*
X139487432Y-121404816D01*
X139436061Y-121284187D01*
X139427277Y-121263165D01*
X139387261Y-121166885D01*
X139351341Y-121079885D01*
X139321069Y-121005969D01*
X139297996Y-120948941D01*
X139283674Y-120912607D01*
X139279538Y-120900839D01*
X139292850Y-120894509D01*
X139327833Y-120887483D01*
X139365474Y-120882585D01*
X139405623Y-120876252D01*
X139469246Y-120863677D01*
X139550697Y-120846092D01*
X139644336Y-120824730D01*
X139744520Y-120800825D01*
X139782545Y-120791475D01*
X139922419Y-120757408D01*
X140039131Y-120730698D01*
X140138435Y-120710491D01*
X140226085Y-120695934D01*
X140307836Y-120686173D01*
X140389441Y-120680356D01*
X140476656Y-120677630D01*
X140553898Y-120677100D01*
X140779492Y-120685971D01*
G37*
X140779492Y-120685971D02*
X140981750Y-120712618D01*
X141161836Y-120757398D01*
X141320911Y-120820669D01*
X141460138Y-120902787D01*
X141563465Y-120987409D01*
X141655116Y-121086108D01*
X141726666Y-121192313D01*
X141783786Y-121315092D01*
X141804388Y-121372433D01*
X141821508Y-121424331D01*
X141836422Y-121472455D01*
X141849302Y-121519246D01*
X141860320Y-121567144D01*
X141869650Y-121618587D01*
X141877463Y-121676016D01*
X141883932Y-121741870D01*
X141889230Y-121818589D01*
X141893530Y-121908612D01*
X141897003Y-122014380D01*
X141899823Y-122138331D01*
X141902162Y-122282906D01*
X141904193Y-122450544D01*
X141906088Y-122643685D01*
X141907755Y-122833757D01*
X141909521Y-123041703D01*
X141911126Y-123221797D01*
X141912737Y-123376244D01*
X141914520Y-123507249D01*
X141916643Y-123617017D01*
X141919272Y-123707753D01*
X141922576Y-123781662D01*
X141926719Y-123840950D01*
X141931870Y-123887822D01*
X141938196Y-123924483D01*
X141945863Y-123953137D01*
X141955038Y-123975990D01*
X141965888Y-123995248D01*
X141978581Y-124013115D01*
X141993283Y-124031796D01*
X141999009Y-124039029D01*
X142020070Y-124069436D01*
X142029438Y-124090142D01*
X142029468Y-124090754D01*
X142014986Y-124093682D01*
X141973733Y-124096378D01*
X141908997Y-124098769D01*
X141824064Y-124100778D01*
X141722223Y-124102329D01*
X141606760Y-124103346D01*
X141480964Y-124103753D01*
X141466443Y-124103757D01*
X140903419Y-124103757D01*
X140899076Y-123975858D01*
X140894734Y-123847958D01*
X140812071Y-123915841D01*
X140682490Y-124005726D01*
X140536172Y-124078541D01*
X140421056Y-124118787D01*
X140329098Y-124138342D01*
X140218126Y-124151647D01*
X140098615Y-124158285D01*
X139981037Y-124157843D01*
X139875867Y-124149905D01*
X139827633Y-124142298D01*
X139641218Y-124091890D01*
X139472900Y-124018874D01*
X139323896Y-123924337D01*
X139195424Y-123809365D01*
X139088699Y-123675046D01*
X139004940Y-123522467D01*
X138945860Y-123354594D01*
X138929438Y-123279261D01*
X138919307Y-123196451D01*
X138914476Y-123096815D01*
X138913817Y-123051686D01*
X138913904Y-123047446D01*
X139925656Y-123047446D01*
X139938029Y-123147367D01*
X139975556Y-123232343D01*
X140040085Y-123306417D01*
X140046818Y-123312292D01*
X140111115Y-123358659D01*
X140179958Y-123388724D01*
X140260814Y-123404595D01*
X140361149Y-123408380D01*
X140385257Y-123407840D01*
X140456909Y-123404309D01*
X140510203Y-123397098D01*
X140556823Y-123383566D01*
X140608452Y-123361072D01*
X140622620Y-123354178D01*
X140703368Y-123306478D01*
X140765701Y-123249719D01*
X140782659Y-123229431D01*
X140842130Y-123154194D01*
X140842130Y-122893413D01*
X140841417Y-122788706D01*
X140839167Y-122711552D01*
X140835215Y-122659478D01*
X140829396Y-122630009D01*
X140823958Y-122621400D01*
X140802755Y-122617188D01*
X140757778Y-122613697D01*
X140695305Y-122611256D01*
X140621619Y-122610194D01*
X140609786Y-122610174D01*
X140448990Y-122617169D01*
X140312299Y-122638693D01*
X140197065Y-122675569D01*
X140100641Y-122728620D01*
X140027509Y-122791127D01*
X139968201Y-122868195D01*
X139935285Y-122952135D01*
X139925656Y-123047446D01*
X138913904Y-123047446D01*
X138916391Y-122926864D01*
X138927501Y-122821821D01*
X138949129Y-122726998D01*
X138983261Y-122632837D01*
X139015209Y-122563111D01*
X139093252Y-122436236D01*
X139197227Y-122319042D01*
X139323970Y-122213662D01*
X139470318Y-122122228D01*
X139633106Y-122046874D01*
X139809171Y-121989732D01*
X139895266Y-121969842D01*
X140076574Y-121940413D01*
X140274208Y-121920997D01*
X140475850Y-121912502D01*
X140644346Y-121914675D01*
X140859875Y-121923700D01*
X140849997Y-121845178D01*
X140824311Y-121713170D01*
X140782861Y-121605702D01*
X140724501Y-121521952D01*
X140648083Y-121461095D01*
X140552461Y-121422308D01*
X140436490Y-121404766D01*
X140299021Y-121407647D01*
X140248462Y-121412974D01*
X140060486Y-121446482D01*
X139878338Y-121501113D01*
X139752485Y-121551706D01*
X139692361Y-121577501D01*
X139641194Y-121598231D01*
X139606111Y-121611071D01*
X139595875Y-121613797D01*
X139582902Y-121601710D01*
X139560643Y-121563142D01*
X139528890Y-121497655D01*
X139487432Y-121404816D01*
X139436061Y-121284187D01*
X139427277Y-121263165D01*
X139387261Y-121166885D01*
X139351341Y-121079885D01*
X139321069Y-121005969D01*
X139297996Y-120948941D01*
X139283674Y-120912607D01*
X139279538Y-120900839D01*
X139292850Y-120894509D01*
X139327833Y-120887483D01*
X139365474Y-120882585D01*
X139405623Y-120876252D01*
X139469246Y-120863677D01*
X139550697Y-120846092D01*
X139644336Y-120824730D01*
X139744520Y-120800825D01*
X139782545Y-120791475D01*
X139922419Y-120757408D01*
X140039131Y-120730698D01*
X140138435Y-120710491D01*
X140226085Y-120695934D01*
X140307836Y-120686173D01*
X140389441Y-120680356D01*
X140476656Y-120677630D01*
X140553898Y-120677100D01*
X140779492Y-120685971D01*
G36*
X145456474Y-121492367D02*
G01*
X145456500Y-121804461D01*
X145456535Y-122087962D01*
X145456631Y-122344336D01*
X145456841Y-122575048D01*
X145457216Y-122781565D01*
X145457809Y-122965351D01*
X145458670Y-123127874D01*
X145459853Y-123270598D01*
X145461408Y-123394990D01*
X145463389Y-123502515D01*
X145465846Y-123594640D01*
X145468833Y-123672830D01*
X145472400Y-123738551D01*
X145476599Y-123793269D01*
X145481484Y-123838449D01*
X145487104Y-123875558D01*
X145493513Y-123906062D01*
X145500763Y-123931426D01*
X145508905Y-123953115D01*
X145517990Y-123972597D01*
X145528073Y-123991337D01*
X145539203Y-124010800D01*
X145546117Y-124022924D01*
X145591736Y-124103757D01*
X144449231Y-124103757D01*
X144449231Y-123976006D01*
X144448257Y-123918273D01*
X144445658Y-123874119D01*
X144441918Y-123850446D01*
X144440265Y-123848254D01*
X144425058Y-123857419D01*
X144394817Y-123881175D01*
X144364595Y-123906969D01*
X144291924Y-123961201D01*
X144199423Y-124015792D01*
X144096839Y-124065725D01*
X143993919Y-124105987D01*
X143952843Y-124118833D01*
X143861649Y-124138225D01*
X143751343Y-124151487D01*
X143632329Y-124158202D01*
X143515005Y-124157953D01*
X143409773Y-124150324D01*
X143359586Y-124142592D01*
X143175730Y-124091918D01*
X143006245Y-124015067D01*
X142852046Y-123912737D01*
X142714044Y-123785628D01*
X142593151Y-123634440D01*
X142504214Y-123486927D01*
X142431165Y-123331483D01*
X142375248Y-123172586D01*
X142335311Y-123004843D01*
X142310207Y-122822861D01*
X142298786Y-122621245D01*
X142297819Y-122518136D01*
X142300607Y-122442545D01*
X143404460Y-122442545D01*
X143404737Y-122566452D01*
X143408615Y-122683199D01*
X143416154Y-122785820D01*
X143427411Y-122867349D01*
X143430851Y-122883779D01*
X143473189Y-123026612D01*
X143528652Y-123142473D01*
X143597703Y-123231654D01*
X143680804Y-123294444D01*
X143778418Y-123331137D01*
X143891010Y-123342021D01*
X144019041Y-123327390D01*
X144103551Y-123306458D01*
X144168978Y-123282241D01*
X144241043Y-123247828D01*
X144295178Y-123216272D01*
X144389113Y-123154540D01*
X144389113Y-121623220D01*
X144299369Y-121565216D01*
X144194823Y-121510733D01*
X144082742Y-121475251D01*
X143969411Y-121459376D01*
X143861117Y-121463712D01*
X143764145Y-121488865D01*
X143721603Y-121509593D01*
X143644485Y-121566838D01*
X143579305Y-121642422D01*
X143524513Y-121739108D01*
X143478561Y-121859658D01*
X143439897Y-122006833D01*
X143438191Y-122014645D01*
X143424650Y-122097527D01*
X143414476Y-122201116D01*
X143407726Y-122318444D01*
X143404460Y-122442545D01*
X142300607Y-122442545D01*
X142308272Y-122234801D01*
X142337488Y-121974073D01*
X142385396Y-121736123D01*
X142451928Y-121521124D01*
X142537015Y-121329250D01*
X142640587Y-121160674D01*
X142762575Y-121015568D01*
X142902911Y-120894105D01*
X142963041Y-120852898D01*
X143097441Y-120778145D01*
X143234957Y-120725409D01*
X143381524Y-120693243D01*
X143543073Y-120680203D01*
X143666231Y-120681595D01*
X143838848Y-120696195D01*
X143988751Y-120725239D01*
X144120278Y-120770063D01*
X144237765Y-120832000D01*
X144302823Y-120877549D01*
X144341920Y-120906725D01*
X144370798Y-120926656D01*
X144381728Y-120932515D01*
X144383878Y-120918097D01*
X144385596Y-120877287D01*
X144386900Y-120813747D01*
X144387805Y-120731140D01*
X144388328Y-120633130D01*
X144388487Y-120523379D01*
X144388298Y-120405551D01*
X144387778Y-120283307D01*
X144386944Y-120160313D01*
X144385812Y-120040230D01*
X144384399Y-119926721D01*
X144382723Y-119823450D01*
X144380800Y-119734080D01*
X144378646Y-119662273D01*
X144376280Y-119611693D01*
X144375625Y-119602396D01*
X144365537Y-119508647D01*
X144350145Y-119435224D01*
X144326528Y-119372489D01*
X144291767Y-119310802D01*
X144283423Y-119298047D01*
X144250895Y-119249201D01*
X145456213Y-119249201D01*
X145456474Y-121492367D01*
G37*
X145456474Y-121492367D02*
X145456500Y-121804461D01*
X145456535Y-122087962D01*
X145456631Y-122344336D01*
X145456841Y-122575048D01*
X145457216Y-122781565D01*
X145457809Y-122965351D01*
X145458670Y-123127874D01*
X145459853Y-123270598D01*
X145461408Y-123394990D01*
X145463389Y-123502515D01*
X145465846Y-123594640D01*
X145468833Y-123672830D01*
X145472400Y-123738551D01*
X145476599Y-123793269D01*
X145481484Y-123838449D01*
X145487104Y-123875558D01*
X145493513Y-123906062D01*
X145500763Y-123931426D01*
X145508905Y-123953115D01*
X145517990Y-123972597D01*
X145528073Y-123991337D01*
X145539203Y-124010800D01*
X145546117Y-124022924D01*
X145591736Y-124103757D01*
X144449231Y-124103757D01*
X144449231Y-123976006D01*
X144448257Y-123918273D01*
X144445658Y-123874119D01*
X144441918Y-123850446D01*
X144440265Y-123848254D01*
X144425058Y-123857419D01*
X144394817Y-123881175D01*
X144364595Y-123906969D01*
X144291924Y-123961201D01*
X144199423Y-124015792D01*
X144096839Y-124065725D01*
X143993919Y-124105987D01*
X143952843Y-124118833D01*
X143861649Y-124138225D01*
X143751343Y-124151487D01*
X143632329Y-124158202D01*
X143515005Y-124157953D01*
X143409773Y-124150324D01*
X143359586Y-124142592D01*
X143175730Y-124091918D01*
X143006245Y-124015067D01*
X142852046Y-123912737D01*
X142714044Y-123785628D01*
X142593151Y-123634440D01*
X142504214Y-123486927D01*
X142431165Y-123331483D01*
X142375248Y-123172586D01*
X142335311Y-123004843D01*
X142310207Y-122822861D01*
X142298786Y-122621245D01*
X142297819Y-122518136D01*
X142300607Y-122442545D01*
X143404460Y-122442545D01*
X143404737Y-122566452D01*
X143408615Y-122683199D01*
X143416154Y-122785820D01*
X143427411Y-122867349D01*
X143430851Y-122883779D01*
X143473189Y-123026612D01*
X143528652Y-123142473D01*
X143597703Y-123231654D01*
X143680804Y-123294444D01*
X143778418Y-123331137D01*
X143891010Y-123342021D01*
X144019041Y-123327390D01*
X144103551Y-123306458D01*
X144168978Y-123282241D01*
X144241043Y-123247828D01*
X144295178Y-123216272D01*
X144389113Y-123154540D01*
X144389113Y-121623220D01*
X144299369Y-121565216D01*
X144194823Y-121510733D01*
X144082742Y-121475251D01*
X143969411Y-121459376D01*
X143861117Y-121463712D01*
X143764145Y-121488865D01*
X143721603Y-121509593D01*
X143644485Y-121566838D01*
X143579305Y-121642422D01*
X143524513Y-121739108D01*
X143478561Y-121859658D01*
X143439897Y-122006833D01*
X143438191Y-122014645D01*
X143424650Y-122097527D01*
X143414476Y-122201116D01*
X143407726Y-122318444D01*
X143404460Y-122442545D01*
X142300607Y-122442545D01*
X142308272Y-122234801D01*
X142337488Y-121974073D01*
X142385396Y-121736123D01*
X142451928Y-121521124D01*
X142537015Y-121329250D01*
X142640587Y-121160674D01*
X142762575Y-121015568D01*
X142902911Y-120894105D01*
X142963041Y-120852898D01*
X143097441Y-120778145D01*
X143234957Y-120725409D01*
X143381524Y-120693243D01*
X143543073Y-120680203D01*
X143666231Y-120681595D01*
X143838848Y-120696195D01*
X143988751Y-120725239D01*
X144120278Y-120770063D01*
X144237765Y-120832000D01*
X144302823Y-120877549D01*
X144341920Y-120906725D01*
X144370798Y-120926656D01*
X144381728Y-120932515D01*
X144383878Y-120918097D01*
X144385596Y-120877287D01*
X144386900Y-120813747D01*
X144387805Y-120731140D01*
X144388328Y-120633130D01*
X144388487Y-120523379D01*
X144388298Y-120405551D01*
X144387778Y-120283307D01*
X144386944Y-120160313D01*
X144385812Y-120040230D01*
X144384399Y-119926721D01*
X144382723Y-119823450D01*
X144380800Y-119734080D01*
X144378646Y-119662273D01*
X144376280Y-119611693D01*
X144375625Y-119602396D01*
X144365537Y-119508647D01*
X144350145Y-119435224D01*
X144326528Y-119372489D01*
X144291767Y-119310802D01*
X144283423Y-119298047D01*
X144250895Y-119249201D01*
X145456213Y-119249201D01*
X145456474Y-121492367D01*
G36*
X134193760Y-118236293D02*
G01*
X134321937Y-118268562D01*
X134437211Y-118325587D01*
X134536811Y-118405172D01*
X134617965Y-118505125D01*
X134677902Y-118623251D01*
X134712866Y-118751475D01*
X134720656Y-118880969D01*
X134700880Y-119005929D01*
X134656012Y-119122899D01*
X134588528Y-119228422D01*
X134500902Y-119319042D01*
X134395607Y-119391303D01*
X134275118Y-119441748D01*
X134206865Y-119458288D01*
X134147622Y-119468302D01*
X134101954Y-119472259D01*
X134058072Y-119469830D01*
X134004186Y-119460684D01*
X133960123Y-119451398D01*
X133835752Y-119409447D01*
X133724353Y-119341383D01*
X133628435Y-119249269D01*
X133550504Y-119135170D01*
X133531933Y-119098905D01*
X133510049Y-119050487D01*
X133496325Y-119009828D01*
X133488915Y-118967049D01*
X133485973Y-118912272D01*
X133485603Y-118850917D01*
X133491043Y-118738606D01*
X133508904Y-118646371D01*
X133542441Y-118565658D01*
X133594910Y-118487914D01*
X133646231Y-118428982D01*
X133741946Y-118341355D01*
X133841922Y-118280868D01*
X133952093Y-118244653D01*
X134055451Y-118230973D01*
X134193760Y-118236293D01*
G37*
X134193760Y-118236293D02*
X134321937Y-118268562D01*
X134437211Y-118325587D01*
X134536811Y-118405172D01*
X134617965Y-118505125D01*
X134677902Y-118623251D01*
X134712866Y-118751475D01*
X134720656Y-118880969D01*
X134700880Y-119005929D01*
X134656012Y-119122899D01*
X134588528Y-119228422D01*
X134500902Y-119319042D01*
X134395607Y-119391303D01*
X134275118Y-119441748D01*
X134206865Y-119458288D01*
X134147622Y-119468302D01*
X134101954Y-119472259D01*
X134058072Y-119469830D01*
X134004186Y-119460684D01*
X133960123Y-119451398D01*
X133835752Y-119409447D01*
X133724353Y-119341383D01*
X133628435Y-119249269D01*
X133550504Y-119135170D01*
X133531933Y-119098905D01*
X133510049Y-119050487D01*
X133496325Y-119009828D01*
X133488915Y-118967049D01*
X133485973Y-118912272D01*
X133485603Y-118850917D01*
X133491043Y-118738606D01*
X133508904Y-118646371D01*
X133542441Y-118565658D01*
X133594910Y-118487914D01*
X133646231Y-118428982D01*
X133741946Y-118341355D01*
X133841922Y-118280868D01*
X133952093Y-118244653D01*
X134055451Y-118230973D01*
X134193760Y-118236293D01*
%TO.C,G\u002A\u002A\u002A*%
G36*
X158782669Y-114897896D02*
G01*
X158942841Y-114966017D01*
X159063408Y-115092125D01*
X159092820Y-115151835D01*
X159126105Y-115333841D01*
X159066527Y-115494506D01*
X158938436Y-115625664D01*
X158790293Y-115743939D01*
X158791739Y-116894229D01*
X158793184Y-118044518D01*
X159096392Y-118305156D01*
X159399599Y-118565793D01*
X159399600Y-119856397D01*
X159399872Y-120220907D01*
X159401117Y-120509568D01*
X159403978Y-120731195D01*
X159409099Y-120894605D01*
X159417122Y-121008615D01*
X159428690Y-121082042D01*
X159444447Y-121123700D01*
X159465037Y-121142408D01*
X159491101Y-121146981D01*
X159493748Y-121147000D01*
X159593347Y-121142725D01*
X159754665Y-121131650D01*
X159900148Y-121119803D01*
X160212400Y-121092606D01*
X160212400Y-117416201D01*
X160061727Y-117310549D01*
X159924560Y-117168591D01*
X159872464Y-117010426D01*
X159897588Y-116854090D01*
X159992083Y-116717622D01*
X160148100Y-116619057D01*
X160357791Y-116576433D01*
X160381407Y-116575941D01*
X160585408Y-116610897D01*
X160742139Y-116705275D01*
X160842643Y-116840082D01*
X160877960Y-116996324D01*
X160839133Y-117155007D01*
X160720400Y-117294667D01*
X160568000Y-117413303D01*
X160568000Y-119258985D01*
X160568205Y-119703127D01*
X160569059Y-120069952D01*
X160570915Y-120366811D01*
X160574126Y-120601052D01*
X160579047Y-120780024D01*
X160586031Y-120911079D01*
X160595433Y-121001565D01*
X160607606Y-121058831D01*
X160622905Y-121090228D01*
X160641683Y-121103105D01*
X160656900Y-121105035D01*
X160756991Y-121110144D01*
X160913973Y-121122773D01*
X161012500Y-121132098D01*
X161279200Y-121158793D01*
X161279200Y-119404005D01*
X161584000Y-119139491D01*
X161888800Y-118874976D01*
X161888800Y-117707078D01*
X161888799Y-116539180D01*
X161736400Y-116412180D01*
X161614522Y-116262707D01*
X161578273Y-116105365D01*
X161615328Y-115954773D01*
X161713365Y-115825550D01*
X161860060Y-115732315D01*
X162043091Y-115689687D01*
X162250135Y-115712284D01*
X162309813Y-115731941D01*
X162445358Y-115821388D01*
X162551446Y-115957555D01*
X162599486Y-116102502D01*
X162600000Y-116117029D01*
X162560137Y-116247312D01*
X162457582Y-116384245D01*
X162335852Y-116482151D01*
X162309367Y-116503514D01*
X162288526Y-116538159D01*
X162272660Y-116595503D01*
X162261098Y-116684964D01*
X162253173Y-116815959D01*
X162248213Y-116997906D01*
X162245551Y-117240222D01*
X162244517Y-117552326D01*
X162244400Y-117768967D01*
X162244400Y-119000466D01*
X161634800Y-119503760D01*
X161634800Y-120344915D01*
X161634799Y-121186070D01*
X161850700Y-121233038D01*
X162037476Y-121274955D01*
X162248029Y-121323981D01*
X162317120Y-121340503D01*
X162468121Y-121375146D01*
X162578038Y-121397036D01*
X162609220Y-121401000D01*
X162625506Y-121361442D01*
X162638799Y-121253844D01*
X162647697Y-121094824D01*
X162650800Y-120908714D01*
X162650800Y-120416429D01*
X162467385Y-120247247D01*
X162358989Y-120138080D01*
X162310568Y-120053993D01*
X162306899Y-119963129D01*
X162313221Y-119924616D01*
X162389718Y-119750545D01*
X162529549Y-119625392D01*
X162710353Y-119556508D01*
X162909772Y-119551244D01*
X163105444Y-119616950D01*
X163154902Y-119647930D01*
X163257452Y-119735131D01*
X163302381Y-119829802D01*
X163311200Y-119947520D01*
X163295379Y-120089554D01*
X163233323Y-120194926D01*
X163158800Y-120264513D01*
X163090638Y-120324595D01*
X163046600Y-120381304D01*
X163021419Y-120454275D01*
X163009827Y-120563146D01*
X163006558Y-120727555D01*
X163006400Y-120832757D01*
X163009950Y-121014499D01*
X163019548Y-121159878D01*
X163033611Y-121251342D01*
X163046162Y-121274000D01*
X163107582Y-121255437D01*
X163232521Y-121206500D01*
X163395278Y-121137316D01*
X163414462Y-121128871D01*
X163874893Y-120954991D01*
X164417858Y-120804551D01*
X165050979Y-120675489D01*
X165162578Y-120656448D01*
X165410104Y-120615009D01*
X165629868Y-120577774D01*
X165797807Y-120548851D01*
X165889300Y-120532452D01*
X165974416Y-120526253D01*
X165994629Y-120557804D01*
X165947950Y-120634621D01*
X165832390Y-120764223D01*
X165826293Y-120770626D01*
X165704517Y-120906791D01*
X165656292Y-120991362D01*
X165684760Y-121033789D01*
X165793069Y-121043522D01*
X165914700Y-121036224D01*
X166181400Y-121014103D01*
X166029000Y-121111114D01*
X165734493Y-121315418D01*
X165513378Y-121512331D01*
X165343911Y-121724180D01*
X165219367Y-121942446D01*
X165075571Y-122217745D01*
X164946760Y-122426603D01*
X164821158Y-122584252D01*
X164686988Y-122705929D01*
X164566495Y-122787053D01*
X164338557Y-122923464D01*
X164205878Y-122836493D01*
X164115076Y-122767432D01*
X164073478Y-122716970D01*
X164073200Y-122714515D01*
X164099815Y-122663774D01*
X164169286Y-122565823D01*
X164257652Y-122453004D01*
X164425742Y-122228498D01*
X164536454Y-122029555D01*
X164605928Y-121823303D01*
X164633756Y-121686976D01*
X164698611Y-121467500D01*
X164811858Y-121306574D01*
X164893098Y-121210738D01*
X164893259Y-121165076D01*
X164813193Y-121169696D01*
X164653754Y-121224705D01*
X164541411Y-121272525D01*
X164223241Y-121437490D01*
X163949389Y-121625856D01*
X163732180Y-121825839D01*
X163583942Y-122025654D01*
X163517001Y-122213517D01*
X163514400Y-122254374D01*
X163541599Y-122377922D01*
X163627024Y-122525370D01*
X163776417Y-122703603D01*
X163995518Y-122919507D01*
X164276400Y-123168295D01*
X164502308Y-123370748D01*
X164735209Y-123595232D01*
X164949275Y-123815920D01*
X165118677Y-124006987D01*
X165134317Y-124026128D01*
X165389121Y-124331234D01*
X165606362Y-124567712D01*
X165793696Y-124742755D01*
X165958776Y-124863552D01*
X166100867Y-124934205D01*
X166247772Y-124997329D01*
X166299201Y-125043821D01*
X166257579Y-125079705D01*
X166168700Y-125102888D01*
X166024937Y-125134999D01*
X165829527Y-125183033D01*
X165601284Y-125241850D01*
X165359024Y-125306309D01*
X165121561Y-125371270D01*
X164907710Y-125431593D01*
X164736286Y-125482137D01*
X164626104Y-125517761D01*
X164594917Y-125532875D01*
X164669793Y-125553372D01*
X164832195Y-125570169D01*
X165068101Y-125582328D01*
X165363491Y-125588912D01*
X165442260Y-125589561D01*
X165629463Y-125594409D01*
X165763491Y-125605280D01*
X165824333Y-125620200D01*
X165823260Y-125627191D01*
X165762133Y-125654452D01*
X165623602Y-125707557D01*
X165424343Y-125780379D01*
X165181032Y-125866795D01*
X164987600Y-125934108D01*
X164734852Y-126023924D01*
X164528019Y-126102500D01*
X164379846Y-126164565D01*
X164303075Y-126204845D01*
X164301800Y-126217861D01*
X164395385Y-126217148D01*
X164560608Y-126205130D01*
X164768828Y-126184119D01*
X164874865Y-126171614D01*
X165087907Y-126149015D01*
X165243072Y-126140089D01*
X165323350Y-126145524D01*
X165330365Y-126153253D01*
X165266602Y-126212850D01*
X165124299Y-126293035D01*
X164920772Y-126386324D01*
X164673331Y-126485231D01*
X164399292Y-126582271D01*
X164174800Y-126652861D01*
X163928903Y-126726290D01*
X163701197Y-126795531D01*
X163518314Y-126852411D01*
X163412800Y-126886708D01*
X163235000Y-126947754D01*
X163489000Y-126926977D01*
X163612182Y-126920236D01*
X163818944Y-126912678D01*
X164091278Y-126904795D01*
X164411176Y-126897082D01*
X164760629Y-126890034D01*
X164962200Y-126886566D01*
X166181400Y-126866932D01*
X165161067Y-126924309D01*
X164691750Y-126954216D01*
X164220893Y-126990691D01*
X163764868Y-127031989D01*
X163340047Y-127076362D01*
X162962803Y-127122064D01*
X162649509Y-127167351D01*
X162416536Y-127210475D01*
X162366148Y-127222375D01*
X162217343Y-127268434D01*
X162079258Y-127324672D01*
X161970900Y-127380792D01*
X161911273Y-127426499D01*
X161919381Y-127451498D01*
X161939600Y-127453445D01*
X162017866Y-127446717D01*
X162172992Y-127427946D01*
X162381843Y-127400083D01*
X162600000Y-127369181D01*
X163010337Y-127313325D01*
X163426791Y-127263476D01*
X163828631Y-127221606D01*
X164195124Y-127189686D01*
X164505541Y-127169689D01*
X164739150Y-127163587D01*
X164758688Y-127163838D01*
X164869280Y-127167453D01*
X164904652Y-127173891D01*
X164858563Y-127184451D01*
X164724775Y-127200432D01*
X164497046Y-127223132D01*
X164454200Y-127227216D01*
X164170740Y-127258320D01*
X163843396Y-127301127D01*
X163488357Y-127352822D01*
X163121812Y-127410593D01*
X162759950Y-127471627D01*
X162418959Y-127533109D01*
X162115029Y-127592228D01*
X161864347Y-127646169D01*
X161683103Y-127692119D01*
X161592273Y-127724560D01*
X161539840Y-127769175D01*
X161576577Y-127795750D01*
X161692092Y-127803126D01*
X161875996Y-127790142D01*
X162016235Y-127771890D01*
X162224018Y-127748976D01*
X162485650Y-127731756D01*
X162777247Y-127720506D01*
X163074927Y-127715503D01*
X163354804Y-127717024D01*
X163592997Y-127725345D01*
X163765621Y-127740744D01*
X163819200Y-127751000D01*
X163822575Y-127764245D01*
X163732228Y-127775437D01*
X163556020Y-127784083D01*
X163301810Y-127789687D01*
X163184200Y-127790934D01*
X162749441Y-127801733D01*
X162345368Y-127825816D01*
X162003655Y-127861161D01*
X161939600Y-127870308D01*
X161711853Y-127906844D01*
X161555638Y-127940666D01*
X161442194Y-127982595D01*
X161342758Y-128043450D01*
X161228569Y-128134049D01*
X161220400Y-128140851D01*
X160994805Y-128297657D01*
X160758104Y-128393223D01*
X160715880Y-128404363D01*
X160549035Y-128444099D01*
X160435906Y-128461256D01*
X160332820Y-128457378D01*
X160196105Y-128434009D01*
X160147249Y-128424457D01*
X159885955Y-128352725D01*
X159669934Y-128240354D01*
X159492643Y-128099519D01*
X159406062Y-128025030D01*
X159326756Y-127973447D01*
X159230868Y-127937045D01*
X159094544Y-127908100D01*
X158893928Y-127878887D01*
X158756043Y-127860995D01*
X158478154Y-127832524D01*
X158143467Y-127808989D01*
X157796748Y-127793052D01*
X157520000Y-127787441D01*
X157240892Y-127784472D01*
X157058140Y-127778238D01*
X156966557Y-127768337D01*
X156960958Y-127754370D01*
X156986600Y-127746276D01*
X157165536Y-127719889D01*
X157420724Y-127706572D01*
X157728199Y-127705467D01*
X158063996Y-127715717D01*
X158404151Y-127736463D01*
X158724698Y-127766849D01*
X159001674Y-127806017D01*
X159082100Y-127821272D01*
X159173860Y-127822439D01*
X159196400Y-127781285D01*
X159190806Y-127745842D01*
X159163084Y-127717286D01*
X159096819Y-127690096D01*
X158975597Y-127658752D01*
X158783005Y-127617733D01*
X158601623Y-127581242D01*
X158070617Y-127478775D01*
X157604241Y-127397070D01*
X157170355Y-127331092D01*
X156736820Y-127275804D01*
X156453200Y-127244590D01*
X156179821Y-127215108D01*
X156001753Y-127193376D01*
X155913262Y-127178310D01*
X155908613Y-127168826D01*
X155982073Y-127163839D01*
X156021711Y-127163008D01*
X156246718Y-127167940D01*
X156550542Y-127186876D01*
X156912233Y-127217813D01*
X157310839Y-127258753D01*
X157725408Y-127307692D01*
X158134991Y-127362631D01*
X158180400Y-127369181D01*
X158448000Y-127407969D01*
X158631382Y-127433518D01*
X158746449Y-127446977D01*
X158809104Y-127449498D01*
X158835251Y-127442234D01*
X158840792Y-127426334D01*
X158840800Y-127416996D01*
X158794104Y-127368768D01*
X158667146Y-127311574D01*
X158479615Y-127251623D01*
X158251205Y-127195124D01*
X158001606Y-127148288D01*
X157976295Y-127144383D01*
X157579450Y-127089023D01*
X157167986Y-127041463D01*
X156720518Y-126999724D01*
X156215657Y-126961825D01*
X155632016Y-126925784D01*
X155589600Y-126923389D01*
X154599000Y-126867736D01*
X155818200Y-126886467D01*
X156174430Y-126892729D01*
X156509410Y-126900086D01*
X156805569Y-126908038D01*
X157045338Y-126916085D01*
X157211146Y-126923726D01*
X157266000Y-126927724D01*
X157391231Y-126935689D01*
X157431858Y-126925883D01*
X157385100Y-126896999D01*
X157248174Y-126847736D01*
X157018299Y-126776787D01*
X156822749Y-126719865D01*
X156580541Y-126648600D01*
X156347638Y-126576924D01*
X156157492Y-126515275D01*
X156077489Y-126487311D01*
X155934400Y-126427967D01*
X155773910Y-126351581D01*
X155618281Y-126270222D01*
X155489778Y-126195953D01*
X155410665Y-126140842D01*
X155397626Y-126118867D01*
X155452467Y-126118454D01*
X155583986Y-126130170D01*
X155768743Y-126151727D01*
X155871096Y-126165119D01*
X156155878Y-126201861D01*
X156353862Y-126222083D01*
X156463858Y-126223794D01*
X156484672Y-126205003D01*
X156415110Y-126163715D01*
X156253982Y-126097940D01*
X156000093Y-126005686D01*
X155716600Y-125907073D01*
X155465122Y-125819345D01*
X155246109Y-125740732D01*
X155077272Y-125677762D01*
X154976322Y-125636964D01*
X154957139Y-125627144D01*
X154983289Y-125612040D01*
X155092140Y-125599147D01*
X155264793Y-125590124D01*
X155414339Y-125586992D01*
X155736617Y-125581756D01*
X155958060Y-125571592D01*
X156079401Y-125553731D01*
X156101373Y-125525400D01*
X156024708Y-125483831D01*
X155850138Y-125426251D01*
X155578396Y-125349892D01*
X155483757Y-125324437D01*
X155225543Y-125255897D01*
X155002431Y-125197634D01*
X154831868Y-125154129D01*
X154731300Y-125129863D01*
X154712364Y-125126334D01*
X154647716Y-125112397D01*
X154538807Y-125079862D01*
X154395800Y-125033390D01*
X154657195Y-124936042D01*
X154790271Y-124877203D01*
X154918935Y-124797440D01*
X155053979Y-124686718D01*
X155206193Y-124535005D01*
X155261968Y-124472246D01*
X155522936Y-124472246D01*
X155543339Y-124710223D01*
X155569716Y-124906620D01*
X155604391Y-125024686D01*
X155651972Y-125071324D01*
X155695792Y-125044338D01*
X155719187Y-124941534D01*
X155719777Y-124926376D01*
X155748097Y-124834467D01*
X156097600Y-124834467D01*
X156133705Y-124992205D01*
X156233890Y-125088467D01*
X156385957Y-125117706D01*
X156577709Y-125074376D01*
X156602615Y-125064120D01*
X156724231Y-124978142D01*
X156808019Y-124863036D01*
X156869054Y-124724167D01*
X156960680Y-124897877D01*
X157055248Y-125031898D01*
X157159192Y-125105874D01*
X157256892Y-125109255D01*
X157266878Y-125104715D01*
X157309373Y-125053299D01*
X157359838Y-124954463D01*
X157369322Y-124931483D01*
X157429257Y-124780146D01*
X157524682Y-124910906D01*
X157605059Y-125006828D01*
X157671206Y-125036846D01*
X157750944Y-125012131D01*
X157762228Y-125006292D01*
X157823552Y-124939436D01*
X157873450Y-124823487D01*
X157909048Y-124680522D01*
X157927470Y-124532618D01*
X157925843Y-124401850D01*
X157901290Y-124310295D01*
X157856846Y-124279667D01*
X157804409Y-124318756D01*
X157760848Y-124423119D01*
X157732101Y-124573396D01*
X157723759Y-124713584D01*
X157708128Y-124806558D01*
X157666938Y-124821268D01*
X157606830Y-124759753D01*
X157551327Y-124660667D01*
X157472187Y-124537856D01*
X157396654Y-124495448D01*
X157332910Y-124533772D01*
X157289743Y-124650084D01*
X157248967Y-124815219D01*
X157207380Y-124896085D01*
X157162009Y-124893059D01*
X157109881Y-124806521D01*
X157061871Y-124679070D01*
X157007315Y-124559621D01*
X156943787Y-124479403D01*
X156915203Y-124463223D01*
X156799304Y-124425301D01*
X156745989Y-124403577D01*
X156567839Y-124365671D01*
X156395845Y-124399797D01*
X156248133Y-124493912D01*
X156142827Y-124635969D01*
X156098052Y-124813924D01*
X156097600Y-124834467D01*
X155748097Y-124834467D01*
X155756590Y-124806905D01*
X155870447Y-124682276D01*
X155910277Y-124649726D01*
X156046850Y-124510455D01*
X156098128Y-124379946D01*
X156060629Y-124269325D01*
X156036640Y-124245800D01*
X155940201Y-124209885D01*
X155795778Y-124196411D01*
X155651793Y-124206026D01*
X155556668Y-124239377D01*
X155556654Y-124239388D01*
X155527370Y-124315089D01*
X155522936Y-124472246D01*
X155261968Y-124472246D01*
X155386371Y-124332266D01*
X155570555Y-124110334D01*
X157981986Y-124110334D01*
X158009213Y-124332584D01*
X158052629Y-124633786D01*
X158100631Y-124857046D01*
X158155694Y-125009072D01*
X158220288Y-125096569D01*
X158296886Y-125126245D01*
X158301827Y-125126334D01*
X158376510Y-125104073D01*
X158496133Y-125048021D01*
X158549607Y-125018974D01*
X158687904Y-124925340D01*
X158739829Y-124858978D01*
X158711264Y-124830067D01*
X158608092Y-124848781D01*
X158481900Y-124901858D01*
X158364255Y-124949867D01*
X158302942Y-124937164D01*
X158274556Y-124855508D01*
X158270395Y-124827385D01*
X158275591Y-124755062D01*
X158335829Y-124721793D01*
X158424783Y-124710710D01*
X158543185Y-124686454D01*
X158571211Y-124648825D01*
X158515053Y-124610763D01*
X158380903Y-124585208D01*
X158364099Y-124583885D01*
X158240551Y-124569988D01*
X158190734Y-124534103D01*
X158186955Y-124449259D01*
X158190226Y-124414552D01*
X158198162Y-124363212D01*
X158747834Y-124363212D01*
X158751871Y-124609766D01*
X158813203Y-124843853D01*
X158893838Y-124992225D01*
X158981692Y-125084141D01*
X159045308Y-125099383D01*
X159071969Y-125040748D01*
X159061386Y-124955359D01*
X159044721Y-124871437D01*
X159061884Y-124838204D01*
X159133439Y-124849405D01*
X159264764Y-124893500D01*
X159404868Y-124935210D01*
X159515635Y-124956352D01*
X159529201Y-124957000D01*
X159596736Y-124941351D01*
X159582375Y-124900641D01*
X159497047Y-124844229D01*
X159351682Y-124781472D01*
X159305160Y-124765190D01*
X159040287Y-124676461D01*
X159130013Y-124598219D01*
X159634228Y-124598219D01*
X159704500Y-124649611D01*
X159749924Y-124665478D01*
X159864095Y-124717686D01*
X159922589Y-124807555D01*
X159938158Y-124865466D01*
X159984867Y-125010964D01*
X160044469Y-125091814D01*
X160109497Y-125099172D01*
X160126140Y-125088150D01*
X160146138Y-125012516D01*
X160113240Y-124919577D01*
X160073953Y-124801824D01*
X160108862Y-124732359D01*
X160227180Y-124694389D01*
X160237730Y-124692650D01*
X160320365Y-124690225D01*
X160381381Y-124726950D01*
X160444262Y-124820424D01*
X160469056Y-124866031D01*
X160567242Y-125021943D01*
X160652385Y-125101971D01*
X160718587Y-125105216D01*
X160759951Y-125030775D01*
X160771200Y-124912168D01*
X160772165Y-124897635D01*
X161018108Y-124897635D01*
X161053410Y-125012043D01*
X161150968Y-125095209D01*
X161287992Y-125125046D01*
X161375378Y-125097607D01*
X161489439Y-125027581D01*
X161524106Y-125000399D01*
X161675227Y-124874464D01*
X161706781Y-124979232D01*
X161762653Y-125059979D01*
X161843028Y-125087553D01*
X161913599Y-125060556D01*
X161940377Y-124988750D01*
X161964220Y-124864311D01*
X162019088Y-124805141D01*
X162083808Y-124814762D01*
X162137210Y-124896695D01*
X162151198Y-124953684D01*
X162188343Y-125046046D01*
X162241498Y-125074052D01*
X162284718Y-125034774D01*
X162295200Y-124969947D01*
X162264632Y-124831164D01*
X162215381Y-124765702D01*
X162398447Y-124765702D01*
X162404942Y-124892434D01*
X162430405Y-125004866D01*
X162449387Y-125044450D01*
X162517185Y-125113067D01*
X162575902Y-125118374D01*
X162600000Y-125060433D01*
X162609182Y-125018198D01*
X162654713Y-125028139D01*
X162712903Y-125060433D01*
X162867670Y-125120231D01*
X162999841Y-125100223D01*
X163079703Y-125044334D01*
X163141344Y-124959065D01*
X163124790Y-124909093D01*
X163044848Y-124911252D01*
X162985520Y-124937258D01*
X162894085Y-124978057D01*
X162836466Y-124965349D01*
X162802901Y-124935534D01*
X162768228Y-124844510D01*
X162803021Y-124746562D01*
X162880538Y-124681993D01*
X163209600Y-124681993D01*
X163251267Y-124779412D01*
X163350662Y-124847219D01*
X163469377Y-124861653D01*
X163491342Y-124856276D01*
X163569678Y-124852152D01*
X163584204Y-124895388D01*
X163530933Y-124964911D01*
X163514400Y-124978167D01*
X163449695Y-125052354D01*
X163454540Y-125109318D01*
X163508542Y-125126334D01*
X163566563Y-125098341D01*
X163655832Y-125030121D01*
X163665259Y-125021866D01*
X163783030Y-124917399D01*
X163932012Y-125021866D01*
X164120251Y-125110084D01*
X164314951Y-125113904D01*
X164471761Y-125059260D01*
X164673219Y-124912974D01*
X164793028Y-124716607D01*
X164807144Y-124670742D01*
X164819173Y-124571159D01*
X164780263Y-124490928D01*
X164707861Y-124422868D01*
X164849195Y-124422868D01*
X164854720Y-124472958D01*
X164950149Y-124559167D01*
X164967333Y-124571805D01*
X165058331Y-124657608D01*
X165074245Y-124744812D01*
X165065854Y-124780523D01*
X165016856Y-124954651D01*
X164995784Y-125060611D01*
X165001807Y-125111436D01*
X165034097Y-125120164D01*
X165044384Y-125117800D01*
X165118826Y-125068022D01*
X165177351Y-124995990D01*
X165228664Y-124848825D01*
X165222023Y-124694275D01*
X165166576Y-124554409D01*
X165071469Y-124451299D01*
X164945849Y-124407013D01*
X164933112Y-124406667D01*
X164849195Y-124422868D01*
X164707861Y-124422868D01*
X164690720Y-124406755D01*
X164512140Y-124310598D01*
X164311956Y-124284443D01*
X164114948Y-124322960D01*
X163945894Y-124420822D01*
X163829573Y-124572700D01*
X163820497Y-124593890D01*
X163771394Y-124692751D01*
X163704362Y-124735525D01*
X163579908Y-124745285D01*
X163561260Y-124745334D01*
X163417220Y-124726881D01*
X163359264Y-124680378D01*
X163392696Y-124619104D01*
X163490315Y-124567798D01*
X163582514Y-124510499D01*
X163589892Y-124453376D01*
X163510054Y-124416167D01*
X163508741Y-124415952D01*
X163408057Y-124436957D01*
X163304658Y-124510577D01*
X163229276Y-124609478D01*
X163209600Y-124681993D01*
X162880538Y-124681993D01*
X162887911Y-124675852D01*
X162958744Y-124660667D01*
X163035576Y-124640768D01*
X163037872Y-124597458D01*
X162974794Y-124555319D01*
X162914277Y-124541388D01*
X162791888Y-124565271D01*
X162681260Y-124638950D01*
X162598187Y-124709446D01*
X162556668Y-124720962D01*
X162530279Y-124677445D01*
X162524446Y-124662364D01*
X162480440Y-124603011D01*
X162443942Y-124599051D01*
X162411315Y-124657098D01*
X162398447Y-124765702D01*
X162215381Y-124765702D01*
X162186420Y-124727209D01*
X162080801Y-124670472D01*
X161968011Y-124673344D01*
X161890688Y-124722271D01*
X161824275Y-124761328D01*
X161734652Y-124739755D01*
X161719367Y-124732854D01*
X161616875Y-124672106D01*
X161568775Y-124628917D01*
X161478722Y-124581999D01*
X161343510Y-124587285D01*
X161195286Y-124642042D01*
X161159050Y-124663739D01*
X161051256Y-124774146D01*
X161018108Y-124897635D01*
X160772165Y-124897635D01*
X160778377Y-124804096D01*
X160812057Y-124756472D01*
X160890460Y-124745362D01*
X160898200Y-124745334D01*
X161003224Y-124728162D01*
X161014416Y-124679927D01*
X160946875Y-124616864D01*
X160878447Y-124588851D01*
X160796743Y-124610749D01*
X160720663Y-124653811D01*
X160618391Y-124709802D01*
X160562375Y-124713842D01*
X160529757Y-124680869D01*
X160456449Y-124635131D01*
X160322716Y-124595583D01*
X160260932Y-124584689D01*
X160117796Y-124557507D01*
X160045280Y-124516797D01*
X160012641Y-124443282D01*
X160008964Y-124426699D01*
X159996329Y-124396795D01*
X162367292Y-124396795D01*
X162374081Y-124410283D01*
X162435753Y-124431256D01*
X162451938Y-124425599D01*
X162477107Y-124374205D01*
X162470318Y-124360718D01*
X162408646Y-124339744D01*
X162392461Y-124345401D01*
X162367292Y-124396795D01*
X159996329Y-124396795D01*
X159969140Y-124332452D01*
X159918296Y-124317618D01*
X159875851Y-124382222D01*
X159866125Y-124426517D01*
X159821305Y-124514622D01*
X159754823Y-124533667D01*
X159651244Y-124553060D01*
X159634228Y-124598219D01*
X159130013Y-124598219D01*
X159194543Y-124541949D01*
X159288906Y-124450885D01*
X159343437Y-124381264D01*
X159348800Y-124365695D01*
X159303984Y-124301951D01*
X159192772Y-124244846D01*
X159050016Y-124208054D01*
X158933295Y-124202678D01*
X158817648Y-124221589D01*
X158766106Y-124271936D01*
X158747834Y-124363212D01*
X158198162Y-124363212D01*
X158204558Y-124321846D01*
X158241920Y-124272770D01*
X158329980Y-124248920D01*
X158459800Y-124235242D01*
X158606576Y-124220541D01*
X158663541Y-124207232D01*
X158641919Y-124187821D01*
X158570792Y-124161159D01*
X158426696Y-124128537D01*
X158248133Y-124111194D01*
X158204886Y-124110334D01*
X157981986Y-124110334D01*
X155570555Y-124110334D01*
X155605302Y-124068467D01*
X155651138Y-124011893D01*
X155802555Y-123839332D01*
X156002964Y-123631933D01*
X156228254Y-123413657D01*
X156454316Y-123208464D01*
X156495184Y-123173089D01*
X156768587Y-122933271D01*
X156973474Y-122740098D01*
X157117704Y-122584377D01*
X157209134Y-122456916D01*
X157255623Y-122348522D01*
X157265739Y-122271616D01*
X157218169Y-122070932D01*
X157081168Y-121861393D01*
X156864510Y-121652410D01*
X156577970Y-121453392D01*
X156231326Y-121273750D01*
X156227348Y-121271976D01*
X156032397Y-121193669D01*
X155907784Y-121162019D01*
X155857824Y-121176481D01*
X155886833Y-121236505D01*
X155957404Y-121306192D01*
X156077913Y-121472442D01*
X156126027Y-121633834D01*
X156191201Y-121895917D01*
X156298413Y-122135069D01*
X156463922Y-122385523D01*
X156514300Y-122451342D01*
X156723535Y-122718963D01*
X156591817Y-122828728D01*
X156460100Y-122938492D01*
X156205200Y-122776502D01*
X156001411Y-122616223D01*
X155819752Y-122404244D01*
X155650994Y-122128358D01*
X155535863Y-121891271D01*
X155371472Y-121627261D01*
X155132463Y-121380947D01*
X154852169Y-121183534D01*
X154722052Y-121099479D01*
X154685862Y-121047322D01*
X154744023Y-121025846D01*
X154896956Y-121033831D01*
X154903800Y-121034603D01*
X155047072Y-121044725D01*
X155115553Y-121027155D01*
X155111182Y-120972114D01*
X155035899Y-120869825D01*
X154954600Y-120778540D01*
X154837580Y-120643494D01*
X154787188Y-120562560D01*
X154801299Y-120527515D01*
X154877792Y-120530134D01*
X154891100Y-120532595D01*
X154983246Y-120548988D01*
X155151839Y-120577622D01*
X155373589Y-120614587D01*
X155625207Y-120655971D01*
X155647373Y-120659591D01*
X156207694Y-120764804D01*
X156698627Y-120888486D01*
X157151686Y-121039207D01*
X157385929Y-121132438D01*
X157554931Y-121198839D01*
X157687429Y-121242440D01*
X157759356Y-121255532D01*
X157764491Y-121253702D01*
X157796632Y-121174227D01*
X157780382Y-121054472D01*
X157725027Y-120923855D01*
X157639855Y-120811797D01*
X157619216Y-120793511D01*
X157499231Y-120643739D01*
X157465204Y-120476562D01*
X157512734Y-120313284D01*
X157637418Y-120175207D01*
X157760912Y-120107802D01*
X157967622Y-120067912D01*
X158164844Y-120106089D01*
X158332487Y-120216195D01*
X158404229Y-120304306D01*
X158470740Y-120474726D01*
X158438673Y-120634179D01*
X158306623Y-120788344D01*
X158279090Y-120810598D01*
X158190627Y-120890720D01*
X158145844Y-120974304D01*
X158130598Y-121094788D01*
X158129600Y-121163985D01*
X158134773Y-121292816D01*
X158148138Y-121378897D01*
X158161589Y-121401000D01*
X158249556Y-121389097D01*
X158397105Y-121358155D01*
X158576332Y-121315329D01*
X158759330Y-121267772D01*
X158918195Y-121222638D01*
X159025022Y-121187080D01*
X159053435Y-121172372D01*
X159062545Y-121120461D01*
X159071003Y-120995033D01*
X159078466Y-120807237D01*
X159084591Y-120568222D01*
X159089036Y-120289138D01*
X159091459Y-119981134D01*
X159091641Y-119928248D01*
X159095012Y-118726856D01*
X158790106Y-118462249D01*
X158485200Y-118197643D01*
X158485200Y-116981312D01*
X158485199Y-115764981D01*
X158307399Y-115625242D01*
X158192489Y-115520703D01*
X158140663Y-115422449D01*
X158129600Y-115307328D01*
X158169853Y-115136843D01*
X158276483Y-115007235D01*
X158428293Y-114921926D01*
X158604087Y-114884339D01*
X158782669Y-114897896D01*
G37*
X158782669Y-114897896D02*
X158942841Y-114966017D01*
X159063408Y-115092125D01*
X159092820Y-115151835D01*
X159126105Y-115333841D01*
X159066527Y-115494506D01*
X158938436Y-115625664D01*
X158790293Y-115743939D01*
X158791739Y-116894229D01*
X158793184Y-118044518D01*
X159096392Y-118305156D01*
X159399599Y-118565793D01*
X159399600Y-119856397D01*
X159399872Y-120220907D01*
X159401117Y-120509568D01*
X159403978Y-120731195D01*
X159409099Y-120894605D01*
X159417122Y-121008615D01*
X159428690Y-121082042D01*
X159444447Y-121123700D01*
X159465037Y-121142408D01*
X159491101Y-121146981D01*
X159493748Y-121147000D01*
X159593347Y-121142725D01*
X159754665Y-121131650D01*
X159900148Y-121119803D01*
X160212400Y-121092606D01*
X160212400Y-117416201D01*
X160061727Y-117310549D01*
X159924560Y-117168591D01*
X159872464Y-117010426D01*
X159897588Y-116854090D01*
X159992083Y-116717622D01*
X160148100Y-116619057D01*
X160357791Y-116576433D01*
X160381407Y-116575941D01*
X160585408Y-116610897D01*
X160742139Y-116705275D01*
X160842643Y-116840082D01*
X160877960Y-116996324D01*
X160839133Y-117155007D01*
X160720400Y-117294667D01*
X160568000Y-117413303D01*
X160568000Y-119258985D01*
X160568205Y-119703127D01*
X160569059Y-120069952D01*
X160570915Y-120366811D01*
X160574126Y-120601052D01*
X160579047Y-120780024D01*
X160586031Y-120911079D01*
X160595433Y-121001565D01*
X160607606Y-121058831D01*
X160622905Y-121090228D01*
X160641683Y-121103105D01*
X160656900Y-121105035D01*
X160756991Y-121110144D01*
X160913973Y-121122773D01*
X161012500Y-121132098D01*
X161279200Y-121158793D01*
X161279200Y-119404005D01*
X161584000Y-119139491D01*
X161888800Y-118874976D01*
X161888800Y-117707078D01*
X161888799Y-116539180D01*
X161736400Y-116412180D01*
X161614522Y-116262707D01*
X161578273Y-116105365D01*
X161615328Y-115954773D01*
X161713365Y-115825550D01*
X161860060Y-115732315D01*
X162043091Y-115689687D01*
X162250135Y-115712284D01*
X162309813Y-115731941D01*
X162445358Y-115821388D01*
X162551446Y-115957555D01*
X162599486Y-116102502D01*
X162600000Y-116117029D01*
X162560137Y-116247312D01*
X162457582Y-116384245D01*
X162335852Y-116482151D01*
X162309367Y-116503514D01*
X162288526Y-116538159D01*
X162272660Y-116595503D01*
X162261098Y-116684964D01*
X162253173Y-116815959D01*
X162248213Y-116997906D01*
X162245551Y-117240222D01*
X162244517Y-117552326D01*
X162244400Y-117768967D01*
X162244400Y-119000466D01*
X161634800Y-119503760D01*
X161634800Y-120344915D01*
X161634799Y-121186070D01*
X161850700Y-121233038D01*
X162037476Y-121274955D01*
X162248029Y-121323981D01*
X162317120Y-121340503D01*
X162468121Y-121375146D01*
X162578038Y-121397036D01*
X162609220Y-121401000D01*
X162625506Y-121361442D01*
X162638799Y-121253844D01*
X162647697Y-121094824D01*
X162650800Y-120908714D01*
X162650800Y-120416429D01*
X162467385Y-120247247D01*
X162358989Y-120138080D01*
X162310568Y-120053993D01*
X162306899Y-119963129D01*
X162313221Y-119924616D01*
X162389718Y-119750545D01*
X162529549Y-119625392D01*
X162710353Y-119556508D01*
X162909772Y-119551244D01*
X163105444Y-119616950D01*
X163154902Y-119647930D01*
X163257452Y-119735131D01*
X163302381Y-119829802D01*
X163311200Y-119947520D01*
X163295379Y-120089554D01*
X163233323Y-120194926D01*
X163158800Y-120264513D01*
X163090638Y-120324595D01*
X163046600Y-120381304D01*
X163021419Y-120454275D01*
X163009827Y-120563146D01*
X163006558Y-120727555D01*
X163006400Y-120832757D01*
X163009950Y-121014499D01*
X163019548Y-121159878D01*
X163033611Y-121251342D01*
X163046162Y-121274000D01*
X163107582Y-121255437D01*
X163232521Y-121206500D01*
X163395278Y-121137316D01*
X163414462Y-121128871D01*
X163874893Y-120954991D01*
X164417858Y-120804551D01*
X165050979Y-120675489D01*
X165162578Y-120656448D01*
X165410104Y-120615009D01*
X165629868Y-120577774D01*
X165797807Y-120548851D01*
X165889300Y-120532452D01*
X165974416Y-120526253D01*
X165994629Y-120557804D01*
X165947950Y-120634621D01*
X165832390Y-120764223D01*
X165826293Y-120770626D01*
X165704517Y-120906791D01*
X165656292Y-120991362D01*
X165684760Y-121033789D01*
X165793069Y-121043522D01*
X165914700Y-121036224D01*
X166181400Y-121014103D01*
X166029000Y-121111114D01*
X165734493Y-121315418D01*
X165513378Y-121512331D01*
X165343911Y-121724180D01*
X165219367Y-121942446D01*
X165075571Y-122217745D01*
X164946760Y-122426603D01*
X164821158Y-122584252D01*
X164686988Y-122705929D01*
X164566495Y-122787053D01*
X164338557Y-122923464D01*
X164205878Y-122836493D01*
X164115076Y-122767432D01*
X164073478Y-122716970D01*
X164073200Y-122714515D01*
X164099815Y-122663774D01*
X164169286Y-122565823D01*
X164257652Y-122453004D01*
X164425742Y-122228498D01*
X164536454Y-122029555D01*
X164605928Y-121823303D01*
X164633756Y-121686976D01*
X164698611Y-121467500D01*
X164811858Y-121306574D01*
X164893098Y-121210738D01*
X164893259Y-121165076D01*
X164813193Y-121169696D01*
X164653754Y-121224705D01*
X164541411Y-121272525D01*
X164223241Y-121437490D01*
X163949389Y-121625856D01*
X163732180Y-121825839D01*
X163583942Y-122025654D01*
X163517001Y-122213517D01*
X163514400Y-122254374D01*
X163541599Y-122377922D01*
X163627024Y-122525370D01*
X163776417Y-122703603D01*
X163995518Y-122919507D01*
X164276400Y-123168295D01*
X164502308Y-123370748D01*
X164735209Y-123595232D01*
X164949275Y-123815920D01*
X165118677Y-124006987D01*
X165134317Y-124026128D01*
X165389121Y-124331234D01*
X165606362Y-124567712D01*
X165793696Y-124742755D01*
X165958776Y-124863552D01*
X166100867Y-124934205D01*
X166247772Y-124997329D01*
X166299201Y-125043821D01*
X166257579Y-125079705D01*
X166168700Y-125102888D01*
X166024937Y-125134999D01*
X165829527Y-125183033D01*
X165601284Y-125241850D01*
X165359024Y-125306309D01*
X165121561Y-125371270D01*
X164907710Y-125431593D01*
X164736286Y-125482137D01*
X164626104Y-125517761D01*
X164594917Y-125532875D01*
X164669793Y-125553372D01*
X164832195Y-125570169D01*
X165068101Y-125582328D01*
X165363491Y-125588912D01*
X165442260Y-125589561D01*
X165629463Y-125594409D01*
X165763491Y-125605280D01*
X165824333Y-125620200D01*
X165823260Y-125627191D01*
X165762133Y-125654452D01*
X165623602Y-125707557D01*
X165424343Y-125780379D01*
X165181032Y-125866795D01*
X164987600Y-125934108D01*
X164734852Y-126023924D01*
X164528019Y-126102500D01*
X164379846Y-126164565D01*
X164303075Y-126204845D01*
X164301800Y-126217861D01*
X164395385Y-126217148D01*
X164560608Y-126205130D01*
X164768828Y-126184119D01*
X164874865Y-126171614D01*
X165087907Y-126149015D01*
X165243072Y-126140089D01*
X165323350Y-126145524D01*
X165330365Y-126153253D01*
X165266602Y-126212850D01*
X165124299Y-126293035D01*
X164920772Y-126386324D01*
X164673331Y-126485231D01*
X164399292Y-126582271D01*
X164174800Y-126652861D01*
X163928903Y-126726290D01*
X163701197Y-126795531D01*
X163518314Y-126852411D01*
X163412800Y-126886708D01*
X163235000Y-126947754D01*
X163489000Y-126926977D01*
X163612182Y-126920236D01*
X163818944Y-126912678D01*
X164091278Y-126904795D01*
X164411176Y-126897082D01*
X164760629Y-126890034D01*
X164962200Y-126886566D01*
X166181400Y-126866932D01*
X165161067Y-126924309D01*
X164691750Y-126954216D01*
X164220893Y-126990691D01*
X163764868Y-127031989D01*
X163340047Y-127076362D01*
X162962803Y-127122064D01*
X162649509Y-127167351D01*
X162416536Y-127210475D01*
X162366148Y-127222375D01*
X162217343Y-127268434D01*
X162079258Y-127324672D01*
X161970900Y-127380792D01*
X161911273Y-127426499D01*
X161919381Y-127451498D01*
X161939600Y-127453445D01*
X162017866Y-127446717D01*
X162172992Y-127427946D01*
X162381843Y-127400083D01*
X162600000Y-127369181D01*
X163010337Y-127313325D01*
X163426791Y-127263476D01*
X163828631Y-127221606D01*
X164195124Y-127189686D01*
X164505541Y-127169689D01*
X164739150Y-127163587D01*
X164758688Y-127163838D01*
X164869280Y-127167453D01*
X164904652Y-127173891D01*
X164858563Y-127184451D01*
X164724775Y-127200432D01*
X164497046Y-127223132D01*
X164454200Y-127227216D01*
X164170740Y-127258320D01*
X163843396Y-127301127D01*
X163488357Y-127352822D01*
X163121812Y-127410593D01*
X162759950Y-127471627D01*
X162418959Y-127533109D01*
X162115029Y-127592228D01*
X161864347Y-127646169D01*
X161683103Y-127692119D01*
X161592273Y-127724560D01*
X161539840Y-127769175D01*
X161576577Y-127795750D01*
X161692092Y-127803126D01*
X161875996Y-127790142D01*
X162016235Y-127771890D01*
X162224018Y-127748976D01*
X162485650Y-127731756D01*
X162777247Y-127720506D01*
X163074927Y-127715503D01*
X163354804Y-127717024D01*
X163592997Y-127725345D01*
X163765621Y-127740744D01*
X163819200Y-127751000D01*
X163822575Y-127764245D01*
X163732228Y-127775437D01*
X163556020Y-127784083D01*
X163301810Y-127789687D01*
X163184200Y-127790934D01*
X162749441Y-127801733D01*
X162345368Y-127825816D01*
X162003655Y-127861161D01*
X161939600Y-127870308D01*
X161711853Y-127906844D01*
X161555638Y-127940666D01*
X161442194Y-127982595D01*
X161342758Y-128043450D01*
X161228569Y-128134049D01*
X161220400Y-128140851D01*
X160994805Y-128297657D01*
X160758104Y-128393223D01*
X160715880Y-128404363D01*
X160549035Y-128444099D01*
X160435906Y-128461256D01*
X160332820Y-128457378D01*
X160196105Y-128434009D01*
X160147249Y-128424457D01*
X159885955Y-128352725D01*
X159669934Y-128240354D01*
X159492643Y-128099519D01*
X159406062Y-128025030D01*
X159326756Y-127973447D01*
X159230868Y-127937045D01*
X159094544Y-127908100D01*
X158893928Y-127878887D01*
X158756043Y-127860995D01*
X158478154Y-127832524D01*
X158143467Y-127808989D01*
X157796748Y-127793052D01*
X157520000Y-127787441D01*
X157240892Y-127784472D01*
X157058140Y-127778238D01*
X156966557Y-127768337D01*
X156960958Y-127754370D01*
X156986600Y-127746276D01*
X157165536Y-127719889D01*
X157420724Y-127706572D01*
X157728199Y-127705467D01*
X158063996Y-127715717D01*
X158404151Y-127736463D01*
X158724698Y-127766849D01*
X159001674Y-127806017D01*
X159082100Y-127821272D01*
X159173860Y-127822439D01*
X159196400Y-127781285D01*
X159190806Y-127745842D01*
X159163084Y-127717286D01*
X159096819Y-127690096D01*
X158975597Y-127658752D01*
X158783005Y-127617733D01*
X158601623Y-127581242D01*
X158070617Y-127478775D01*
X157604241Y-127397070D01*
X157170355Y-127331092D01*
X156736820Y-127275804D01*
X156453200Y-127244590D01*
X156179821Y-127215108D01*
X156001753Y-127193376D01*
X155913262Y-127178310D01*
X155908613Y-127168826D01*
X155982073Y-127163839D01*
X156021711Y-127163008D01*
X156246718Y-127167940D01*
X156550542Y-127186876D01*
X156912233Y-127217813D01*
X157310839Y-127258753D01*
X157725408Y-127307692D01*
X158134991Y-127362631D01*
X158180400Y-127369181D01*
X158448000Y-127407969D01*
X158631382Y-127433518D01*
X158746449Y-127446977D01*
X158809104Y-127449498D01*
X158835251Y-127442234D01*
X158840792Y-127426334D01*
X158840800Y-127416996D01*
X158794104Y-127368768D01*
X158667146Y-127311574D01*
X158479615Y-127251623D01*
X158251205Y-127195124D01*
X158001606Y-127148288D01*
X157976295Y-127144383D01*
X157579450Y-127089023D01*
X157167986Y-127041463D01*
X156720518Y-126999724D01*
X156215657Y-126961825D01*
X155632016Y-126925784D01*
X155589600Y-126923389D01*
X154599000Y-126867736D01*
X155818200Y-126886467D01*
X156174430Y-126892729D01*
X156509410Y-126900086D01*
X156805569Y-126908038D01*
X157045338Y-126916085D01*
X157211146Y-126923726D01*
X157266000Y-126927724D01*
X157391231Y-126935689D01*
X157431858Y-126925883D01*
X157385100Y-126896999D01*
X157248174Y-126847736D01*
X157018299Y-126776787D01*
X156822749Y-126719865D01*
X156580541Y-126648600D01*
X156347638Y-126576924D01*
X156157492Y-126515275D01*
X156077489Y-126487311D01*
X155934400Y-126427967D01*
X155773910Y-126351581D01*
X155618281Y-126270222D01*
X155489778Y-126195953D01*
X155410665Y-126140842D01*
X155397626Y-126118867D01*
X155452467Y-126118454D01*
X155583986Y-126130170D01*
X155768743Y-126151727D01*
X155871096Y-126165119D01*
X156155878Y-126201861D01*
X156353862Y-126222083D01*
X156463858Y-126223794D01*
X156484672Y-126205003D01*
X156415110Y-126163715D01*
X156253982Y-126097940D01*
X156000093Y-126005686D01*
X155716600Y-125907073D01*
X155465122Y-125819345D01*
X155246109Y-125740732D01*
X155077272Y-125677762D01*
X154976322Y-125636964D01*
X154957139Y-125627144D01*
X154983289Y-125612040D01*
X155092140Y-125599147D01*
X155264793Y-125590124D01*
X155414339Y-125586992D01*
X155736617Y-125581756D01*
X155958060Y-125571592D01*
X156079401Y-125553731D01*
X156101373Y-125525400D01*
X156024708Y-125483831D01*
X155850138Y-125426251D01*
X155578396Y-125349892D01*
X155483757Y-125324437D01*
X155225543Y-125255897D01*
X155002431Y-125197634D01*
X154831868Y-125154129D01*
X154731300Y-125129863D01*
X154712364Y-125126334D01*
X154647716Y-125112397D01*
X154538807Y-125079862D01*
X154395800Y-125033390D01*
X154657195Y-124936042D01*
X154790271Y-124877203D01*
X154918935Y-124797440D01*
X155053979Y-124686718D01*
X155206193Y-124535005D01*
X155261968Y-124472246D01*
X155522936Y-124472246D01*
X155543339Y-124710223D01*
X155569716Y-124906620D01*
X155604391Y-125024686D01*
X155651972Y-125071324D01*
X155695792Y-125044338D01*
X155719187Y-124941534D01*
X155719777Y-124926376D01*
X155748097Y-124834467D01*
X156097600Y-124834467D01*
X156133705Y-124992205D01*
X156233890Y-125088467D01*
X156385957Y-125117706D01*
X156577709Y-125074376D01*
X156602615Y-125064120D01*
X156724231Y-124978142D01*
X156808019Y-124863036D01*
X156869054Y-124724167D01*
X156960680Y-124897877D01*
X157055248Y-125031898D01*
X157159192Y-125105874D01*
X157256892Y-125109255D01*
X157266878Y-125104715D01*
X157309373Y-125053299D01*
X157359838Y-124954463D01*
X157369322Y-124931483D01*
X157429257Y-124780146D01*
X157524682Y-124910906D01*
X157605059Y-125006828D01*
X157671206Y-125036846D01*
X157750944Y-125012131D01*
X157762228Y-125006292D01*
X157823552Y-124939436D01*
X157873450Y-124823487D01*
X157909048Y-124680522D01*
X157927470Y-124532618D01*
X157925843Y-124401850D01*
X157901290Y-124310295D01*
X157856846Y-124279667D01*
X157804409Y-124318756D01*
X157760848Y-124423119D01*
X157732101Y-124573396D01*
X157723759Y-124713584D01*
X157708128Y-124806558D01*
X157666938Y-124821268D01*
X157606830Y-124759753D01*
X157551327Y-124660667D01*
X157472187Y-124537856D01*
X157396654Y-124495448D01*
X157332910Y-124533772D01*
X157289743Y-124650084D01*
X157248967Y-124815219D01*
X157207380Y-124896085D01*
X157162009Y-124893059D01*
X157109881Y-124806521D01*
X157061871Y-124679070D01*
X157007315Y-124559621D01*
X156943787Y-124479403D01*
X156915203Y-124463223D01*
X156799304Y-124425301D01*
X156745989Y-124403577D01*
X156567839Y-124365671D01*
X156395845Y-124399797D01*
X156248133Y-124493912D01*
X156142827Y-124635969D01*
X156098052Y-124813924D01*
X156097600Y-124834467D01*
X155748097Y-124834467D01*
X155756590Y-124806905D01*
X155870447Y-124682276D01*
X155910277Y-124649726D01*
X156046850Y-124510455D01*
X156098128Y-124379946D01*
X156060629Y-124269325D01*
X156036640Y-124245800D01*
X155940201Y-124209885D01*
X155795778Y-124196411D01*
X155651793Y-124206026D01*
X155556668Y-124239377D01*
X155556654Y-124239388D01*
X155527370Y-124315089D01*
X155522936Y-124472246D01*
X155261968Y-124472246D01*
X155386371Y-124332266D01*
X155570555Y-124110334D01*
X157981986Y-124110334D01*
X158009213Y-124332584D01*
X158052629Y-124633786D01*
X158100631Y-124857046D01*
X158155694Y-125009072D01*
X158220288Y-125096569D01*
X158296886Y-125126245D01*
X158301827Y-125126334D01*
X158376510Y-125104073D01*
X158496133Y-125048021D01*
X158549607Y-125018974D01*
X158687904Y-124925340D01*
X158739829Y-124858978D01*
X158711264Y-124830067D01*
X158608092Y-124848781D01*
X158481900Y-124901858D01*
X158364255Y-124949867D01*
X158302942Y-124937164D01*
X158274556Y-124855508D01*
X158270395Y-124827385D01*
X158275591Y-124755062D01*
X158335829Y-124721793D01*
X158424783Y-124710710D01*
X158543185Y-124686454D01*
X158571211Y-124648825D01*
X158515053Y-124610763D01*
X158380903Y-124585208D01*
X158364099Y-124583885D01*
X158240551Y-124569988D01*
X158190734Y-124534103D01*
X158186955Y-124449259D01*
X158190226Y-124414552D01*
X158198162Y-124363212D01*
X158747834Y-124363212D01*
X158751871Y-124609766D01*
X158813203Y-124843853D01*
X158893838Y-124992225D01*
X158981692Y-125084141D01*
X159045308Y-125099383D01*
X159071969Y-125040748D01*
X159061386Y-124955359D01*
X159044721Y-124871437D01*
X159061884Y-124838204D01*
X159133439Y-124849405D01*
X159264764Y-124893500D01*
X159404868Y-124935210D01*
X159515635Y-124956352D01*
X159529201Y-124957000D01*
X159596736Y-124941351D01*
X159582375Y-124900641D01*
X159497047Y-124844229D01*
X159351682Y-124781472D01*
X159305160Y-124765190D01*
X159040287Y-124676461D01*
X159130013Y-124598219D01*
X159634228Y-124598219D01*
X159704500Y-124649611D01*
X159749924Y-124665478D01*
X159864095Y-124717686D01*
X159922589Y-124807555D01*
X159938158Y-124865466D01*
X159984867Y-125010964D01*
X160044469Y-125091814D01*
X160109497Y-125099172D01*
X160126140Y-125088150D01*
X160146138Y-125012516D01*
X160113240Y-124919577D01*
X160073953Y-124801824D01*
X160108862Y-124732359D01*
X160227180Y-124694389D01*
X160237730Y-124692650D01*
X160320365Y-124690225D01*
X160381381Y-124726950D01*
X160444262Y-124820424D01*
X160469056Y-124866031D01*
X160567242Y-125021943D01*
X160652385Y-125101971D01*
X160718587Y-125105216D01*
X160759951Y-125030775D01*
X160771200Y-124912168D01*
X160772165Y-124897635D01*
X161018108Y-124897635D01*
X161053410Y-125012043D01*
X161150968Y-125095209D01*
X161287992Y-125125046D01*
X161375378Y-125097607D01*
X161489439Y-125027581D01*
X161524106Y-125000399D01*
X161675227Y-124874464D01*
X161706781Y-124979232D01*
X161762653Y-125059979D01*
X161843028Y-125087553D01*
X161913599Y-125060556D01*
X161940377Y-124988750D01*
X161964220Y-124864311D01*
X162019088Y-124805141D01*
X162083808Y-124814762D01*
X162137210Y-124896695D01*
X162151198Y-124953684D01*
X162188343Y-125046046D01*
X162241498Y-125074052D01*
X162284718Y-125034774D01*
X162295200Y-124969947D01*
X162264632Y-124831164D01*
X162215381Y-124765702D01*
X162398447Y-124765702D01*
X162404942Y-124892434D01*
X162430405Y-125004866D01*
X162449387Y-125044450D01*
X162517185Y-125113067D01*
X162575902Y-125118374D01*
X162600000Y-125060433D01*
X162609182Y-125018198D01*
X162654713Y-125028139D01*
X162712903Y-125060433D01*
X162867670Y-125120231D01*
X162999841Y-125100223D01*
X163079703Y-125044334D01*
X163141344Y-124959065D01*
X163124790Y-124909093D01*
X163044848Y-124911252D01*
X162985520Y-124937258D01*
X162894085Y-124978057D01*
X162836466Y-124965349D01*
X162802901Y-124935534D01*
X162768228Y-124844510D01*
X162803021Y-124746562D01*
X162880538Y-124681993D01*
X163209600Y-124681993D01*
X163251267Y-124779412D01*
X163350662Y-124847219D01*
X163469377Y-124861653D01*
X163491342Y-124856276D01*
X163569678Y-124852152D01*
X163584204Y-124895388D01*
X163530933Y-124964911D01*
X163514400Y-124978167D01*
X163449695Y-125052354D01*
X163454540Y-125109318D01*
X163508542Y-125126334D01*
X163566563Y-125098341D01*
X163655832Y-125030121D01*
X163665259Y-125021866D01*
X163783030Y-124917399D01*
X163932012Y-125021866D01*
X164120251Y-125110084D01*
X164314951Y-125113904D01*
X164471761Y-125059260D01*
X164673219Y-124912974D01*
X164793028Y-124716607D01*
X164807144Y-124670742D01*
X164819173Y-124571159D01*
X164780263Y-124490928D01*
X164707861Y-124422868D01*
X164849195Y-124422868D01*
X164854720Y-124472958D01*
X164950149Y-124559167D01*
X164967333Y-124571805D01*
X165058331Y-124657608D01*
X165074245Y-124744812D01*
X165065854Y-124780523D01*
X165016856Y-124954651D01*
X164995784Y-125060611D01*
X165001807Y-125111436D01*
X165034097Y-125120164D01*
X165044384Y-125117800D01*
X165118826Y-125068022D01*
X165177351Y-124995990D01*
X165228664Y-124848825D01*
X165222023Y-124694275D01*
X165166576Y-124554409D01*
X165071469Y-124451299D01*
X164945849Y-124407013D01*
X164933112Y-124406667D01*
X164849195Y-124422868D01*
X164707861Y-124422868D01*
X164690720Y-124406755D01*
X164512140Y-124310598D01*
X164311956Y-124284443D01*
X164114948Y-124322960D01*
X163945894Y-124420822D01*
X163829573Y-124572700D01*
X163820497Y-124593890D01*
X163771394Y-124692751D01*
X163704362Y-124735525D01*
X163579908Y-124745285D01*
X163561260Y-124745334D01*
X163417220Y-124726881D01*
X163359264Y-124680378D01*
X163392696Y-124619104D01*
X163490315Y-124567798D01*
X163582514Y-124510499D01*
X163589892Y-124453376D01*
X163510054Y-124416167D01*
X163508741Y-124415952D01*
X163408057Y-124436957D01*
X163304658Y-124510577D01*
X163229276Y-124609478D01*
X163209600Y-124681993D01*
X162880538Y-124681993D01*
X162887911Y-124675852D01*
X162958744Y-124660667D01*
X163035576Y-124640768D01*
X163037872Y-124597458D01*
X162974794Y-124555319D01*
X162914277Y-124541388D01*
X162791888Y-124565271D01*
X162681260Y-124638950D01*
X162598187Y-124709446D01*
X162556668Y-124720962D01*
X162530279Y-124677445D01*
X162524446Y-124662364D01*
X162480440Y-124603011D01*
X162443942Y-124599051D01*
X162411315Y-124657098D01*
X162398447Y-124765702D01*
X162215381Y-124765702D01*
X162186420Y-124727209D01*
X162080801Y-124670472D01*
X161968011Y-124673344D01*
X161890688Y-124722271D01*
X161824275Y-124761328D01*
X161734652Y-124739755D01*
X161719367Y-124732854D01*
X161616875Y-124672106D01*
X161568775Y-124628917D01*
X161478722Y-124581999D01*
X161343510Y-124587285D01*
X161195286Y-124642042D01*
X161159050Y-124663739D01*
X161051256Y-124774146D01*
X161018108Y-124897635D01*
X160772165Y-124897635D01*
X160778377Y-124804096D01*
X160812057Y-124756472D01*
X160890460Y-124745362D01*
X160898200Y-124745334D01*
X161003224Y-124728162D01*
X161014416Y-124679927D01*
X160946875Y-124616864D01*
X160878447Y-124588851D01*
X160796743Y-124610749D01*
X160720663Y-124653811D01*
X160618391Y-124709802D01*
X160562375Y-124713842D01*
X160529757Y-124680869D01*
X160456449Y-124635131D01*
X160322716Y-124595583D01*
X160260932Y-124584689D01*
X160117796Y-124557507D01*
X160045280Y-124516797D01*
X160012641Y-124443282D01*
X160008964Y-124426699D01*
X159996329Y-124396795D01*
X162367292Y-124396795D01*
X162374081Y-124410283D01*
X162435753Y-124431256D01*
X162451938Y-124425599D01*
X162477107Y-124374205D01*
X162470318Y-124360718D01*
X162408646Y-124339744D01*
X162392461Y-124345401D01*
X162367292Y-124396795D01*
X159996329Y-124396795D01*
X159969140Y-124332452D01*
X159918296Y-124317618D01*
X159875851Y-124382222D01*
X159866125Y-124426517D01*
X159821305Y-124514622D01*
X159754823Y-124533667D01*
X159651244Y-124553060D01*
X159634228Y-124598219D01*
X159130013Y-124598219D01*
X159194543Y-124541949D01*
X159288906Y-124450885D01*
X159343437Y-124381264D01*
X159348800Y-124365695D01*
X159303984Y-124301951D01*
X159192772Y-124244846D01*
X159050016Y-124208054D01*
X158933295Y-124202678D01*
X158817648Y-124221589D01*
X158766106Y-124271936D01*
X158747834Y-124363212D01*
X158198162Y-124363212D01*
X158204558Y-124321846D01*
X158241920Y-124272770D01*
X158329980Y-124248920D01*
X158459800Y-124235242D01*
X158606576Y-124220541D01*
X158663541Y-124207232D01*
X158641919Y-124187821D01*
X158570792Y-124161159D01*
X158426696Y-124128537D01*
X158248133Y-124111194D01*
X158204886Y-124110334D01*
X157981986Y-124110334D01*
X155570555Y-124110334D01*
X155605302Y-124068467D01*
X155651138Y-124011893D01*
X155802555Y-123839332D01*
X156002964Y-123631933D01*
X156228254Y-123413657D01*
X156454316Y-123208464D01*
X156495184Y-123173089D01*
X156768587Y-122933271D01*
X156973474Y-122740098D01*
X157117704Y-122584377D01*
X157209134Y-122456916D01*
X157255623Y-122348522D01*
X157265739Y-122271616D01*
X157218169Y-122070932D01*
X157081168Y-121861393D01*
X156864510Y-121652410D01*
X156577970Y-121453392D01*
X156231326Y-121273750D01*
X156227348Y-121271976D01*
X156032397Y-121193669D01*
X155907784Y-121162019D01*
X155857824Y-121176481D01*
X155886833Y-121236505D01*
X155957404Y-121306192D01*
X156077913Y-121472442D01*
X156126027Y-121633834D01*
X156191201Y-121895917D01*
X156298413Y-122135069D01*
X156463922Y-122385523D01*
X156514300Y-122451342D01*
X156723535Y-122718963D01*
X156591817Y-122828728D01*
X156460100Y-122938492D01*
X156205200Y-122776502D01*
X156001411Y-122616223D01*
X155819752Y-122404244D01*
X155650994Y-122128358D01*
X155535863Y-121891271D01*
X155371472Y-121627261D01*
X155132463Y-121380947D01*
X154852169Y-121183534D01*
X154722052Y-121099479D01*
X154685862Y-121047322D01*
X154744023Y-121025846D01*
X154896956Y-121033831D01*
X154903800Y-121034603D01*
X155047072Y-121044725D01*
X155115553Y-121027155D01*
X155111182Y-120972114D01*
X155035899Y-120869825D01*
X154954600Y-120778540D01*
X154837580Y-120643494D01*
X154787188Y-120562560D01*
X154801299Y-120527515D01*
X154877792Y-120530134D01*
X154891100Y-120532595D01*
X154983246Y-120548988D01*
X155151839Y-120577622D01*
X155373589Y-120614587D01*
X155625207Y-120655971D01*
X155647373Y-120659591D01*
X156207694Y-120764804D01*
X156698627Y-120888486D01*
X157151686Y-121039207D01*
X157385929Y-121132438D01*
X157554931Y-121198839D01*
X157687429Y-121242440D01*
X157759356Y-121255532D01*
X157764491Y-121253702D01*
X157796632Y-121174227D01*
X157780382Y-121054472D01*
X157725027Y-120923855D01*
X157639855Y-120811797D01*
X157619216Y-120793511D01*
X157499231Y-120643739D01*
X157465204Y-120476562D01*
X157512734Y-120313284D01*
X157637418Y-120175207D01*
X157760912Y-120107802D01*
X157967622Y-120067912D01*
X158164844Y-120106089D01*
X158332487Y-120216195D01*
X158404229Y-120304306D01*
X158470740Y-120474726D01*
X158438673Y-120634179D01*
X158306623Y-120788344D01*
X158279090Y-120810598D01*
X158190627Y-120890720D01*
X158145844Y-120974304D01*
X158130598Y-121094788D01*
X158129600Y-121163985D01*
X158134773Y-121292816D01*
X158148138Y-121378897D01*
X158161589Y-121401000D01*
X158249556Y-121389097D01*
X158397105Y-121358155D01*
X158576332Y-121315329D01*
X158759330Y-121267772D01*
X158918195Y-121222638D01*
X159025022Y-121187080D01*
X159053435Y-121172372D01*
X159062545Y-121120461D01*
X159071003Y-120995033D01*
X159078466Y-120807237D01*
X159084591Y-120568222D01*
X159089036Y-120289138D01*
X159091459Y-119981134D01*
X159091641Y-119928248D01*
X159095012Y-118726856D01*
X158790106Y-118462249D01*
X158485200Y-118197643D01*
X158485200Y-116981312D01*
X158485199Y-115764981D01*
X158307399Y-115625242D01*
X158192489Y-115520703D01*
X158140663Y-115422449D01*
X158129600Y-115307328D01*
X158169853Y-115136843D01*
X158276483Y-115007235D01*
X158428293Y-114921926D01*
X158604087Y-114884339D01*
X158782669Y-114897896D01*
G36*
X156643586Y-124496677D02*
G01*
X156697529Y-124574271D01*
X156707200Y-124660141D01*
X156675625Y-124782973D01*
X156595483Y-124891429D01*
X156488647Y-124969440D01*
X156376991Y-125000939D01*
X156283866Y-124971111D01*
X156241770Y-124882103D01*
X156262805Y-124761611D01*
X156338054Y-124637843D01*
X156410752Y-124569786D01*
X156546421Y-124494703D01*
X156643586Y-124496677D01*
G37*
X156643586Y-124496677D02*
X156697529Y-124574271D01*
X156707200Y-124660141D01*
X156675625Y-124782973D01*
X156595483Y-124891429D01*
X156488647Y-124969440D01*
X156376991Y-125000939D01*
X156283866Y-124971111D01*
X156241770Y-124882103D01*
X156262805Y-124761611D01*
X156338054Y-124637843D01*
X156410752Y-124569786D01*
X156546421Y-124494703D01*
X156643586Y-124496677D01*
G36*
X159116817Y-124350438D02*
G01*
X159147993Y-124416873D01*
X159108257Y-124492994D01*
X159047339Y-124532177D01*
X158945198Y-124569844D01*
X158901349Y-124549949D01*
X158891627Y-124459586D01*
X158891600Y-124449000D01*
X158905268Y-124358237D01*
X158963372Y-124325033D01*
X159018600Y-124322000D01*
X159116817Y-124350438D01*
G37*
X159116817Y-124350438D02*
X159147993Y-124416873D01*
X159108257Y-124492994D01*
X159047339Y-124532177D01*
X158945198Y-124569844D01*
X158901349Y-124549949D01*
X158891627Y-124459586D01*
X158891600Y-124449000D01*
X158905268Y-124358237D01*
X158963372Y-124325033D01*
X159018600Y-124322000D01*
X159116817Y-124350438D01*
G36*
X161474458Y-124733684D02*
G01*
X161475563Y-124805924D01*
X161430602Y-124890001D01*
X161389499Y-124929272D01*
X161277337Y-124990588D01*
X161202196Y-124984712D01*
X161177600Y-124921228D01*
X161216179Y-124831753D01*
X161305997Y-124747808D01*
X161408176Y-124703979D01*
X161422900Y-124703000D01*
X161474458Y-124733684D01*
G37*
X161474458Y-124733684D02*
X161475563Y-124805924D01*
X161430602Y-124890001D01*
X161389499Y-124929272D01*
X161277337Y-124990588D01*
X161202196Y-124984712D01*
X161177600Y-124921228D01*
X161216179Y-124831753D01*
X161305997Y-124747808D01*
X161408176Y-124703979D01*
X161422900Y-124703000D01*
X161474458Y-124733684D01*
G36*
X164499025Y-124424143D02*
G01*
X164616647Y-124495942D01*
X164675394Y-124593249D01*
X164674294Y-124644542D01*
X164626877Y-124718546D01*
X164556862Y-124731862D01*
X164500887Y-124679639D01*
X164496637Y-124668055D01*
X164429816Y-124581013D01*
X164321854Y-124554160D01*
X164200618Y-124585543D01*
X164093971Y-124673209D01*
X164076741Y-124697485D01*
X164059203Y-124786295D01*
X164131642Y-124846269D01*
X164286337Y-124871814D01*
X164318180Y-124872334D01*
X164429491Y-124877456D01*
X164456599Y-124899348D01*
X164428800Y-124935834D01*
X164314585Y-124991552D01*
X164169931Y-124986587D01*
X164032731Y-124922912D01*
X164022400Y-124914667D01*
X163947663Y-124837298D01*
X163920800Y-124783481D01*
X163955166Y-124673253D01*
X164039156Y-124548465D01*
X164144107Y-124446767D01*
X164202446Y-124413516D01*
X164351350Y-124391963D01*
X164499025Y-124424143D01*
G37*
X164499025Y-124424143D02*
X164616647Y-124495942D01*
X164675394Y-124593249D01*
X164674294Y-124644542D01*
X164626877Y-124718546D01*
X164556862Y-124731862D01*
X164500887Y-124679639D01*
X164496637Y-124668055D01*
X164429816Y-124581013D01*
X164321854Y-124554160D01*
X164200618Y-124585543D01*
X164093971Y-124673209D01*
X164076741Y-124697485D01*
X164059203Y-124786295D01*
X164131642Y-124846269D01*
X164286337Y-124871814D01*
X164318180Y-124872334D01*
X164429491Y-124877456D01*
X164456599Y-124899348D01*
X164428800Y-124935834D01*
X164314585Y-124991552D01*
X164169931Y-124986587D01*
X164032731Y-124922912D01*
X164022400Y-124914667D01*
X163947663Y-124837298D01*
X163920800Y-124783481D01*
X163955166Y-124673253D01*
X164039156Y-124548465D01*
X164144107Y-124446767D01*
X164202446Y-124413516D01*
X164351350Y-124391963D01*
X164499025Y-124424143D01*
G36*
X164309737Y-124728935D02*
G01*
X164301800Y-124745334D01*
X164256150Y-124785719D01*
X164248001Y-124787667D01*
X164226182Y-124754914D01*
X164225600Y-124745334D01*
X164264652Y-124704627D01*
X164279398Y-124703000D01*
X164309737Y-124728935D01*
G37*
X164309737Y-124728935D02*
X164301800Y-124745334D01*
X164256150Y-124785719D01*
X164248001Y-124787667D01*
X164226182Y-124754914D01*
X164225600Y-124745334D01*
X164264652Y-124704627D01*
X164279398Y-124703000D01*
X164309737Y-124728935D01*
G36*
X155907915Y-124330869D02*
G01*
X155932909Y-124403119D01*
X155885949Y-124490798D01*
X155867908Y-124507362D01*
X155768622Y-124568888D01*
X155711787Y-124553531D01*
X155698509Y-124461747D01*
X155700681Y-124438417D01*
X155728709Y-124338621D01*
X155792017Y-124302315D01*
X155817504Y-124300834D01*
X155907915Y-124330869D01*
G37*
X155907915Y-124330869D02*
X155932909Y-124403119D01*
X155885949Y-124490798D01*
X155867908Y-124507362D01*
X155768622Y-124568888D01*
X155711787Y-124553531D01*
X155698509Y-124461747D01*
X155700681Y-124438417D01*
X155728709Y-124338621D01*
X155792017Y-124302315D01*
X155817504Y-124300834D01*
X155907915Y-124330869D01*
D12*
%TO.C,C1*%
X149280000Y-114326000D02*
X149280000Y-120624000D01*
X149420000Y-114332000D02*
X149420000Y-120618000D01*
X149560000Y-114345000D02*
X149560000Y-117029000D01*
X149560000Y-117921000D02*
X149560000Y-120605000D01*
X149700000Y-114364000D02*
X149700000Y-116819000D01*
X149700000Y-118131000D02*
X149700000Y-120586000D01*
X149840000Y-114390000D02*
X149840000Y-116686000D01*
X149840000Y-118264000D02*
X149840000Y-120560000D01*
X149980000Y-114422000D02*
X149980000Y-116595000D01*
X149980000Y-118355000D02*
X149980000Y-120528000D01*
X150120000Y-114461000D02*
X150120000Y-116533000D01*
X150120000Y-118417000D02*
X150120000Y-120489000D01*
X150260000Y-114507000D02*
X150260000Y-116494000D01*
X150260000Y-118456000D02*
X150260000Y-120443000D01*
X150400000Y-114560000D02*
X150400000Y-116477000D01*
X150400000Y-118473000D02*
X150400000Y-120390000D01*
X150540000Y-114622000D02*
X150540000Y-116479000D01*
X150540000Y-118471000D02*
X150540000Y-120328000D01*
X150680000Y-114692000D02*
X150680000Y-116501000D01*
X150680000Y-118449000D02*
X150680000Y-120258000D01*
X150820000Y-114771000D02*
X150820000Y-116544000D01*
X150820000Y-118406000D02*
X150820000Y-120179000D01*
X150960000Y-114859000D02*
X150960000Y-116612000D01*
X150960000Y-118338000D02*
X150960000Y-120091000D01*
X151100000Y-114959000D02*
X151100000Y-116711000D01*
X151100000Y-118239000D02*
X151100000Y-119991000D01*
X151240000Y-115071000D02*
X151240000Y-116856000D01*
X151240000Y-118094000D02*
X151240000Y-119879000D01*
X151380000Y-115196000D02*
X151380000Y-117095000D01*
X151380000Y-117855000D02*
X151380000Y-119754000D01*
X151520000Y-115339000D02*
X151520000Y-119611000D01*
X151660000Y-115501000D02*
X151660000Y-119449000D01*
X151800000Y-115689000D02*
X151800000Y-119261000D01*
X151940000Y-115912000D02*
X151940000Y-119038000D01*
X152080000Y-116188000D02*
X152080000Y-118762000D01*
X152220000Y-116563000D02*
X152220000Y-118387000D01*
X151455000Y-117475000D02*
G75*
G03*
X151455000Y-117475000I-1000000J0D01*
G01*
X152392500Y-117475000D02*
G75*
G03*
X152392500Y-117475000I-3187500J0D01*
G01*
%TO.C,C2*%
X149280000Y-104801000D02*
X149280000Y-111099000D01*
X149420000Y-104807000D02*
X149420000Y-111093000D01*
X149560000Y-104820000D02*
X149560000Y-107504000D01*
X149560000Y-108396000D02*
X149560000Y-111080000D01*
X149700000Y-104839000D02*
X149700000Y-107294000D01*
X149700000Y-108606000D02*
X149700000Y-111061000D01*
X149840000Y-104865000D02*
X149840000Y-107161000D01*
X149840000Y-108739000D02*
X149840000Y-111035000D01*
X149980000Y-104897000D02*
X149980000Y-107070000D01*
X149980000Y-108830000D02*
X149980000Y-111003000D01*
X150120000Y-104936000D02*
X150120000Y-107008000D01*
X150120000Y-108892000D02*
X150120000Y-110964000D01*
X150260000Y-104982000D02*
X150260000Y-106969000D01*
X150260000Y-108931000D02*
X150260000Y-110918000D01*
X150400000Y-105035000D02*
X150400000Y-106952000D01*
X150400000Y-108948000D02*
X150400000Y-110865000D01*
X150540000Y-105097000D02*
X150540000Y-106954000D01*
X150540000Y-108946000D02*
X150540000Y-110803000D01*
X150680000Y-105167000D02*
X150680000Y-106976000D01*
X150680000Y-108924000D02*
X150680000Y-110733000D01*
X150820000Y-105246000D02*
X150820000Y-107019000D01*
X150820000Y-108881000D02*
X150820000Y-110654000D01*
X150960000Y-105334000D02*
X150960000Y-107087000D01*
X150960000Y-108813000D02*
X150960000Y-110566000D01*
X151100000Y-105434000D02*
X151100000Y-107186000D01*
X151100000Y-108714000D02*
X151100000Y-110466000D01*
X151240000Y-105546000D02*
X151240000Y-107331000D01*
X151240000Y-108569000D02*
X151240000Y-110354000D01*
X151380000Y-105671000D02*
X151380000Y-107570000D01*
X151380000Y-108330000D02*
X151380000Y-110229000D01*
X151520000Y-105814000D02*
X151520000Y-110086000D01*
X151660000Y-105976000D02*
X151660000Y-109924000D01*
X151800000Y-106164000D02*
X151800000Y-109736000D01*
X151940000Y-106387000D02*
X151940000Y-109513000D01*
X152080000Y-106663000D02*
X152080000Y-109237000D01*
X152220000Y-107038000D02*
X152220000Y-108862000D01*
X151455000Y-107950000D02*
G75*
G03*
X151455000Y-107950000I-1000000J0D01*
G01*
X152392500Y-107950000D02*
G75*
G03*
X152392500Y-107950000I-3187500J0D01*
G01*
D13*
%TO.C,D1*%
X176695001Y-105900000D02*
G75*
G03*
X176695001Y-105900000I-2500000J0D01*
G01*
X171635001Y-104355000D02*
X171635001Y-107445000D01*
X177185001Y-105900462D02*
G75*
G03*
X171635001Y-104355170I-2990000J462D01*
G01*
X177185001Y-105899538D02*
G75*
G02*
X171635001Y-107444830I-2990000J-462D01*
G01*
%TO.C,D2*%
X176490000Y-113665000D02*
G75*
G03*
X176490000Y-113665000I-2500000J0D01*
G01*
X176550000Y-115210000D02*
X176550000Y-112120000D01*
X171000000Y-113664538D02*
G75*
G03*
X176550000Y-115209830I2990000J-462D01*
G01*
X171000000Y-113665462D02*
G75*
G02*
X176550000Y-112120170I2990000J462D01*
G01*
%TO.C,D3*%
X176490000Y-121285000D02*
G75*
G03*
X176490000Y-121285000I-2500000J0D01*
G01*
X171430000Y-119740000D02*
X171430000Y-122830000D01*
X176980000Y-121285462D02*
G75*
G03*
X171430000Y-119740170I-2990000J462D01*
G01*
X176980000Y-121284538D02*
G75*
G02*
X171430000Y-122829830I-2990000J-462D01*
G01*
%TO.C,D4*%
X184110000Y-106045000D02*
G75*
G03*
X184110000Y-106045000I-2500000J0D01*
G01*
X184170000Y-107590000D02*
X184170000Y-104500000D01*
X178620000Y-106044538D02*
G75*
G03*
X184170000Y-107589830I2990000J-462D01*
G01*
X178620000Y-106045462D02*
G75*
G02*
X184170000Y-104500170I2990000J462D01*
G01*
%TO.C,D5*%
X184110000Y-113665000D02*
G75*
G03*
X184110000Y-113665000I-2500000J0D01*
G01*
X179050000Y-112120000D02*
X179050000Y-115210000D01*
X184600000Y-113665462D02*
G75*
G03*
X179050000Y-112120170I-2990000J462D01*
G01*
X184600000Y-113664538D02*
G75*
G02*
X179050000Y-115209830I-2990000J-462D01*
G01*
%TO.C,D6*%
X184110000Y-121285000D02*
G75*
G03*
X184110000Y-121285000I-2500000J0D01*
G01*
X184170000Y-122830000D02*
X184170000Y-119740000D01*
X178620000Y-121284538D02*
G75*
G03*
X184170000Y-122829830I2990000J-462D01*
G01*
X178620000Y-121285462D02*
G75*
G02*
X184170000Y-119740170I2990000J462D01*
G01*
D12*
%TO.C,J1*%
X133985000Y-114935000D02*
X133985000Y-104775000D01*
X132715000Y-114935000D02*
X140335000Y-114935000D01*
X140335000Y-114935000D02*
X140335000Y-104775000D01*
X140335000Y-104775000D02*
X132715000Y-104775000D01*
X132715000Y-104775000D02*
X132715000Y-114935000D01*
D13*
%TO.C,Q1*%
X148060000Y-100275000D02*
X151660000Y-100275000D01*
X147535816Y-99547795D02*
G75*
G03*
X148060000Y-100275000I2324184J1122795D01*
G01*
X147503600Y-97326193D02*
G75*
G02*
X149860000Y-95825000I2356400J-1098807D01*
G01*
X152216400Y-97326193D02*
G75*
G03*
X149860000Y-95825000I-2356400J-1098807D01*
G01*
X152184184Y-99547795D02*
G75*
G02*
X151660000Y-100275000I-2324184J1122795D01*
G01*
%TO.C,Q2*%
X157585000Y-100275000D02*
X161185000Y-100275000D01*
X157060816Y-99547795D02*
G75*
G03*
X157585000Y-100275000I2324184J1122795D01*
G01*
X157028600Y-97326193D02*
G75*
G02*
X159385000Y-95825000I2356400J-1098807D01*
G01*
X161741400Y-97326193D02*
G75*
G03*
X159385000Y-95825000I-2356400J-1098807D01*
G01*
X161709184Y-99547795D02*
G75*
G02*
X161185000Y-100275000I-2324184J1122795D01*
G01*
D12*
%TO.C,R1*%
X162945001Y-104170120D02*
X168025001Y-104170120D01*
X168025001Y-104170120D02*
X168025001Y-106710120D01*
X168025001Y-106710120D02*
X162945001Y-106710120D01*
X162945001Y-106710120D02*
X162945001Y-104170120D01*
%TO.C,R2*%
X161925000Y-113665000D02*
X156845000Y-113665000D01*
X156845000Y-113665000D02*
X156845000Y-111125000D01*
X156845000Y-111125000D02*
X161925000Y-111125000D01*
X161925000Y-111125000D02*
X161925000Y-113665000D01*
%TO.C,C1*%
X148880533Y-115749342D02*
X148832914Y-115796961D01*
X148690057Y-115844580D01*
X148594819Y-115844580D01*
X148451961Y-115796961D01*
X148356723Y-115701723D01*
X148309104Y-115606485D01*
X148261485Y-115416009D01*
X148261485Y-115273152D01*
X148309104Y-115082676D01*
X148356723Y-114987438D01*
X148451961Y-114892200D01*
X148594819Y-114844580D01*
X148690057Y-114844580D01*
X148832914Y-114892200D01*
X148880533Y-114939819D01*
X149832914Y-115844580D02*
X149261485Y-115844580D01*
X149547200Y-115844580D02*
X149547200Y-114844580D01*
X149451961Y-114987438D01*
X149356723Y-115082676D01*
X149261485Y-115130295D01*
X147780000Y-122372619D02*
X147827619Y-122325000D01*
X147922857Y-122277380D01*
X148160952Y-122277380D01*
X148256190Y-122325000D01*
X148303809Y-122372619D01*
X148351428Y-122467857D01*
X148351428Y-122563095D01*
X148303809Y-122705952D01*
X147732380Y-123277380D01*
X148351428Y-123277380D01*
X148732380Y-122372619D02*
X148780000Y-122325000D01*
X148875238Y-122277380D01*
X149113333Y-122277380D01*
X149208571Y-122325000D01*
X149256190Y-122372619D01*
X149303809Y-122467857D01*
X149303809Y-122563095D01*
X149256190Y-122705952D01*
X148684761Y-123277380D01*
X149303809Y-123277380D01*
X150160952Y-122610714D02*
X150160952Y-123277380D01*
X149732380Y-122610714D02*
X149732380Y-123134523D01*
X149780000Y-123229761D01*
X149875238Y-123277380D01*
X150018095Y-123277380D01*
X150113333Y-123229761D01*
X150160952Y-123182142D01*
X150494285Y-122610714D02*
X150875238Y-122610714D01*
X150637142Y-123277380D02*
X150637142Y-122420238D01*
X150684761Y-122325000D01*
X150780000Y-122277380D01*
X150875238Y-122277380D01*
%TO.C,C2*%
X148829733Y-106249742D02*
X148782114Y-106297361D01*
X148639257Y-106344980D01*
X148544019Y-106344980D01*
X148401161Y-106297361D01*
X148305923Y-106202123D01*
X148258304Y-106106885D01*
X148210685Y-105916409D01*
X148210685Y-105773552D01*
X148258304Y-105583076D01*
X148305923Y-105487838D01*
X148401161Y-105392600D01*
X148544019Y-105344980D01*
X148639257Y-105344980D01*
X148782114Y-105392600D01*
X148829733Y-105440219D01*
X149210685Y-105440219D02*
X149258304Y-105392600D01*
X149353542Y-105344980D01*
X149591638Y-105344980D01*
X149686876Y-105392600D01*
X149734495Y-105440219D01*
X149782114Y-105535457D01*
X149782114Y-105630695D01*
X149734495Y-105773552D01*
X149163066Y-106344980D01*
X149782114Y-106344980D01*
X147690000Y-112122619D02*
X147737619Y-112075000D01*
X147832857Y-112027380D01*
X148070952Y-112027380D01*
X148166190Y-112075000D01*
X148213809Y-112122619D01*
X148261428Y-112217857D01*
X148261428Y-112313095D01*
X148213809Y-112455952D01*
X147642380Y-113027380D01*
X148261428Y-113027380D01*
X148642380Y-112122619D02*
X148690000Y-112075000D01*
X148785238Y-112027380D01*
X149023333Y-112027380D01*
X149118571Y-112075000D01*
X149166190Y-112122619D01*
X149213809Y-112217857D01*
X149213809Y-112313095D01*
X149166190Y-112455952D01*
X148594761Y-113027380D01*
X149213809Y-113027380D01*
X150070952Y-112360714D02*
X150070952Y-113027380D01*
X149642380Y-112360714D02*
X149642380Y-112884523D01*
X149690000Y-112979761D01*
X149785238Y-113027380D01*
X149928095Y-113027380D01*
X150023333Y-112979761D01*
X150070952Y-112932142D01*
X150404285Y-112360714D02*
X150785238Y-112360714D01*
X150547142Y-113027380D02*
X150547142Y-112170238D01*
X150594761Y-112075000D01*
X150690000Y-112027380D01*
X150785238Y-112027380D01*
%TO.C,D1*%
X173296342Y-102382580D02*
X172820152Y-102382580D01*
X172820152Y-101382580D01*
X173629676Y-101858771D02*
X173963009Y-101858771D01*
X174105866Y-102382580D02*
X173629676Y-102382580D01*
X173629676Y-101382580D01*
X174105866Y-101382580D01*
X174534438Y-102382580D02*
X174534438Y-101382580D01*
X174772533Y-101382580D01*
X174915390Y-101430200D01*
X175010628Y-101525438D01*
X175058247Y-101620676D01*
X175105866Y-101811152D01*
X175105866Y-101954009D01*
X175058247Y-102144485D01*
X175010628Y-102239723D01*
X174915390Y-102334961D01*
X174772533Y-102382580D01*
X174534438Y-102382580D01*
%TO.C,D2*%
X173347142Y-110157380D02*
X172870952Y-110157380D01*
X172870952Y-109157380D01*
X173680476Y-109633571D02*
X174013809Y-109633571D01*
X174156666Y-110157380D02*
X173680476Y-110157380D01*
X173680476Y-109157380D01*
X174156666Y-109157380D01*
X174585238Y-110157380D02*
X174585238Y-109157380D01*
X174823333Y-109157380D01*
X174966190Y-109205000D01*
X175061428Y-109300238D01*
X175109047Y-109395476D01*
X175156666Y-109585952D01*
X175156666Y-109728809D01*
X175109047Y-109919285D01*
X175061428Y-110014523D01*
X174966190Y-110109761D01*
X174823333Y-110157380D01*
X174585238Y-110157380D01*
%TO.C,D3*%
X173347142Y-125697380D02*
X172870952Y-125697380D01*
X172870952Y-124697380D01*
X173680476Y-125173571D02*
X174013809Y-125173571D01*
X174156666Y-125697380D02*
X173680476Y-125697380D01*
X173680476Y-124697380D01*
X174156666Y-124697380D01*
X174585238Y-125697380D02*
X174585238Y-124697380D01*
X174823333Y-124697380D01*
X174966190Y-124745000D01*
X175061428Y-124840238D01*
X175109047Y-124935476D01*
X175156666Y-125125952D01*
X175156666Y-125268809D01*
X175109047Y-125459285D01*
X175061428Y-125554523D01*
X174966190Y-125649761D01*
X174823333Y-125697380D01*
X174585238Y-125697380D01*
%TO.C,D4*%
X180967142Y-102537380D02*
X180490952Y-102537380D01*
X180490952Y-101537380D01*
X181300476Y-102013571D02*
X181633809Y-102013571D01*
X181776666Y-102537380D02*
X181300476Y-102537380D01*
X181300476Y-101537380D01*
X181776666Y-101537380D01*
X182205238Y-102537380D02*
X182205238Y-101537380D01*
X182443333Y-101537380D01*
X182586190Y-101585000D01*
X182681428Y-101680238D01*
X182729047Y-101775476D01*
X182776666Y-101965952D01*
X182776666Y-102108809D01*
X182729047Y-102299285D01*
X182681428Y-102394523D01*
X182586190Y-102489761D01*
X182443333Y-102537380D01*
X182205238Y-102537380D01*
%TO.C,D5*%
X181068742Y-110358180D02*
X180592552Y-110358180D01*
X180592552Y-109358180D01*
X181402076Y-109834371D02*
X181735409Y-109834371D01*
X181878266Y-110358180D02*
X181402076Y-110358180D01*
X181402076Y-109358180D01*
X181878266Y-109358180D01*
X182306838Y-110358180D02*
X182306838Y-109358180D01*
X182544933Y-109358180D01*
X182687790Y-109405800D01*
X182783028Y-109501038D01*
X182830647Y-109596276D01*
X182878266Y-109786752D01*
X182878266Y-109929609D01*
X182830647Y-110120085D01*
X182783028Y-110215323D01*
X182687790Y-110310561D01*
X182544933Y-110358180D01*
X182306838Y-110358180D01*
%TO.C,D6*%
X181017942Y-125801380D02*
X180541752Y-125801380D01*
X180541752Y-124801380D01*
X181351276Y-125277571D02*
X181684609Y-125277571D01*
X181827466Y-125801380D02*
X181351276Y-125801380D01*
X181351276Y-124801380D01*
X181827466Y-124801380D01*
X182256038Y-125801380D02*
X182256038Y-124801380D01*
X182494133Y-124801380D01*
X182636990Y-124849000D01*
X182732228Y-124944238D01*
X182779847Y-125039476D01*
X182827466Y-125229952D01*
X182827466Y-125372809D01*
X182779847Y-125563285D01*
X182732228Y-125658523D01*
X182636990Y-125753761D01*
X182494133Y-125801380D01*
X182256038Y-125801380D01*
%TO.C,Q1*%
X149764761Y-95412619D02*
X149669523Y-95365000D01*
X149574285Y-95269761D01*
X149431428Y-95126904D01*
X149336190Y-95079285D01*
X149240952Y-95079285D01*
X149288571Y-95317380D02*
X149193333Y-95269761D01*
X149098095Y-95174523D01*
X149050476Y-94984047D01*
X149050476Y-94650714D01*
X149098095Y-94460238D01*
X149193333Y-94365000D01*
X149288571Y-94317380D01*
X149479047Y-94317380D01*
X149574285Y-94365000D01*
X149669523Y-94460238D01*
X149717142Y-94650714D01*
X149717142Y-94984047D01*
X149669523Y-95174523D01*
X149574285Y-95269761D01*
X149479047Y-95317380D01*
X149288571Y-95317380D01*
X150669523Y-95317380D02*
X150098095Y-95317380D01*
X150383809Y-95317380D02*
X150383809Y-94317380D01*
X150288571Y-94460238D01*
X150193333Y-94555476D01*
X150098095Y-94603095D01*
X146740952Y-101667380D02*
X146740952Y-100667380D01*
X147121904Y-100667380D01*
X147217142Y-100715000D01*
X147264761Y-100762619D01*
X147312380Y-100857857D01*
X147312380Y-101000714D01*
X147264761Y-101095952D01*
X147217142Y-101143571D01*
X147121904Y-101191190D01*
X146740952Y-101191190D01*
X147740952Y-101667380D02*
X147740952Y-100667380D01*
X148312380Y-101667380D01*
X148312380Y-100667380D01*
X148740952Y-100762619D02*
X148788571Y-100715000D01*
X148883809Y-100667380D01*
X149121904Y-100667380D01*
X149217142Y-100715000D01*
X149264761Y-100762619D01*
X149312380Y-100857857D01*
X149312380Y-100953095D01*
X149264761Y-101095952D01*
X148693333Y-101667380D01*
X149312380Y-101667380D01*
X149693333Y-100762619D02*
X149740952Y-100715000D01*
X149836190Y-100667380D01*
X150074285Y-100667380D01*
X150169523Y-100715000D01*
X150217142Y-100762619D01*
X150264761Y-100857857D01*
X150264761Y-100953095D01*
X150217142Y-101095952D01*
X149645714Y-101667380D01*
X150264761Y-101667380D01*
X150645714Y-100762619D02*
X150693333Y-100715000D01*
X150788571Y-100667380D01*
X151026666Y-100667380D01*
X151121904Y-100715000D01*
X151169523Y-100762619D01*
X151217142Y-100857857D01*
X151217142Y-100953095D01*
X151169523Y-101095952D01*
X150598095Y-101667380D01*
X151217142Y-101667380D01*
X151598095Y-100762619D02*
X151645714Y-100715000D01*
X151740952Y-100667380D01*
X151979047Y-100667380D01*
X152074285Y-100715000D01*
X152121904Y-100762619D01*
X152169523Y-100857857D01*
X152169523Y-100953095D01*
X152121904Y-101095952D01*
X151550476Y-101667380D01*
X152169523Y-101667380D01*
X152550476Y-101381666D02*
X153026666Y-101381666D01*
X152455238Y-101667380D02*
X152788571Y-100667380D01*
X153121904Y-101667380D01*
%TO.C,Q2*%
X159289761Y-95412619D02*
X159194523Y-95365000D01*
X159099285Y-95269761D01*
X158956428Y-95126904D01*
X158861190Y-95079285D01*
X158765952Y-95079285D01*
X158813571Y-95317380D02*
X158718333Y-95269761D01*
X158623095Y-95174523D01*
X158575476Y-94984047D01*
X158575476Y-94650714D01*
X158623095Y-94460238D01*
X158718333Y-94365000D01*
X158813571Y-94317380D01*
X159004047Y-94317380D01*
X159099285Y-94365000D01*
X159194523Y-94460238D01*
X159242142Y-94650714D01*
X159242142Y-94984047D01*
X159194523Y-95174523D01*
X159099285Y-95269761D01*
X159004047Y-95317380D01*
X158813571Y-95317380D01*
X159623095Y-94412619D02*
X159670714Y-94365000D01*
X159765952Y-94317380D01*
X160004047Y-94317380D01*
X160099285Y-94365000D01*
X160146904Y-94412619D01*
X160194523Y-94507857D01*
X160194523Y-94603095D01*
X160146904Y-94745952D01*
X159575476Y-95317380D01*
X160194523Y-95317380D01*
X156265952Y-101667380D02*
X156265952Y-100667380D01*
X156646904Y-100667380D01*
X156742142Y-100715000D01*
X156789761Y-100762619D01*
X156837380Y-100857857D01*
X156837380Y-101000714D01*
X156789761Y-101095952D01*
X156742142Y-101143571D01*
X156646904Y-101191190D01*
X156265952Y-101191190D01*
X157265952Y-101667380D02*
X157265952Y-100667380D01*
X157837380Y-101667380D01*
X157837380Y-100667380D01*
X158265952Y-100762619D02*
X158313571Y-100715000D01*
X158408809Y-100667380D01*
X158646904Y-100667380D01*
X158742142Y-100715000D01*
X158789761Y-100762619D01*
X158837380Y-100857857D01*
X158837380Y-100953095D01*
X158789761Y-101095952D01*
X158218333Y-101667380D01*
X158837380Y-101667380D01*
X159218333Y-100762619D02*
X159265952Y-100715000D01*
X159361190Y-100667380D01*
X159599285Y-100667380D01*
X159694523Y-100715000D01*
X159742142Y-100762619D01*
X159789761Y-100857857D01*
X159789761Y-100953095D01*
X159742142Y-101095952D01*
X159170714Y-101667380D01*
X159789761Y-101667380D01*
X160170714Y-100762619D02*
X160218333Y-100715000D01*
X160313571Y-100667380D01*
X160551666Y-100667380D01*
X160646904Y-100715000D01*
X160694523Y-100762619D01*
X160742142Y-100857857D01*
X160742142Y-100953095D01*
X160694523Y-101095952D01*
X160123095Y-101667380D01*
X160742142Y-101667380D01*
X161123095Y-100762619D02*
X161170714Y-100715000D01*
X161265952Y-100667380D01*
X161504047Y-100667380D01*
X161599285Y-100715000D01*
X161646904Y-100762619D01*
X161694523Y-100857857D01*
X161694523Y-100953095D01*
X161646904Y-101095952D01*
X161075476Y-101667380D01*
X161694523Y-101667380D01*
X162075476Y-101381666D02*
X162551666Y-101381666D01*
X161980238Y-101667380D02*
X162313571Y-100667380D01*
X162646904Y-101667380D01*
%TO.C,R1*%
X165173333Y-103117380D02*
X164840000Y-102641190D01*
X164601904Y-103117380D02*
X164601904Y-102117380D01*
X164982857Y-102117380D01*
X165078095Y-102165000D01*
X165125714Y-102212619D01*
X165173333Y-102307857D01*
X165173333Y-102450714D01*
X165125714Y-102545952D01*
X165078095Y-102593571D01*
X164982857Y-102641190D01*
X164601904Y-102641190D01*
X166125714Y-103117380D02*
X165554285Y-103117380D01*
X165840000Y-103117380D02*
X165840000Y-102117380D01*
X165744761Y-102260238D01*
X165649523Y-102355476D01*
X165554285Y-102403095D01*
X164829523Y-105220714D02*
X164829523Y-105887380D01*
X164591428Y-104839761D02*
X164353333Y-105554047D01*
X164972380Y-105554047D01*
X165781904Y-104887380D02*
X165591428Y-104887380D01*
X165496190Y-104935000D01*
X165448571Y-104982619D01*
X165353333Y-105125476D01*
X165305714Y-105315952D01*
X165305714Y-105696904D01*
X165353333Y-105792142D01*
X165400952Y-105839761D01*
X165496190Y-105887380D01*
X165686666Y-105887380D01*
X165781904Y-105839761D01*
X165829523Y-105792142D01*
X165877142Y-105696904D01*
X165877142Y-105458809D01*
X165829523Y-105363571D01*
X165781904Y-105315952D01*
X165686666Y-105268333D01*
X165496190Y-105268333D01*
X165400952Y-105315952D01*
X165353333Y-105363571D01*
X165305714Y-105458809D01*
X166305714Y-105887380D02*
X166305714Y-104887380D01*
X166400952Y-105506428D02*
X166686666Y-105887380D01*
X166686666Y-105220714D02*
X166305714Y-105601666D01*
%TO.C,R2*%
X159013333Y-109807380D02*
X158680000Y-109331190D01*
X158441904Y-109807380D02*
X158441904Y-108807380D01*
X158822857Y-108807380D01*
X158918095Y-108855000D01*
X158965714Y-108902619D01*
X159013333Y-108997857D01*
X159013333Y-109140714D01*
X158965714Y-109235952D01*
X158918095Y-109283571D01*
X158822857Y-109331190D01*
X158441904Y-109331190D01*
X159394285Y-108902619D02*
X159441904Y-108855000D01*
X159537142Y-108807380D01*
X159775238Y-108807380D01*
X159870476Y-108855000D01*
X159918095Y-108902619D01*
X159965714Y-108997857D01*
X159965714Y-109093095D01*
X159918095Y-109235952D01*
X159346666Y-109807380D01*
X159965714Y-109807380D01*
X158489523Y-112170714D02*
X158489523Y-112837380D01*
X158251428Y-111789761D02*
X158013333Y-112504047D01*
X158632380Y-112504047D01*
X159441904Y-111837380D02*
X159251428Y-111837380D01*
X159156190Y-111885000D01*
X159108571Y-111932619D01*
X159013333Y-112075476D01*
X158965714Y-112265952D01*
X158965714Y-112646904D01*
X159013333Y-112742142D01*
X159060952Y-112789761D01*
X159156190Y-112837380D01*
X159346666Y-112837380D01*
X159441904Y-112789761D01*
X159489523Y-112742142D01*
X159537142Y-112646904D01*
X159537142Y-112408809D01*
X159489523Y-112313571D01*
X159441904Y-112265952D01*
X159346666Y-112218333D01*
X159156190Y-112218333D01*
X159060952Y-112265952D01*
X159013333Y-112313571D01*
X158965714Y-112408809D01*
X159965714Y-112837380D02*
X159965714Y-111837380D01*
X160060952Y-112456428D02*
X160346666Y-112837380D01*
X160346666Y-112170714D02*
X159965714Y-112551666D01*
%TD*%
M02*
