%TF.GenerationSoftware,KiCad,Pcbnew,(5.1.6)-1*%
%TF.CreationDate,2020-09-07T12:27:48+05:30*%
%TF.ProjectId,using 2n222a,7573696e-6720-4326-9e32-3232612e6b69,rev?*%
%TF.SameCoordinates,Original*%
%TF.FileFunction,Legend,Bot*%
%TF.FilePolarity,Positive*%
%FSLAX46Y46*%
G04 Gerber Fmt 4.6, Leading zero omitted, Abs format (unit mm)*
G04 Created by KiCad (PCBNEW (5.1.6)-1) date 2020-09-07 12:27:48*
%MOMM*%
%LPD*%
G01*
G04 APERTURE LIST*
%ADD10C,0.300000*%
G04 APERTURE END LIST*
D10*
X144775714Y-101223571D02*
X144775714Y-99723571D01*
X144204285Y-99723571D01*
X144061428Y-99795000D01*
X143990000Y-99866428D01*
X143918571Y-100009285D01*
X143918571Y-100223571D01*
X143990000Y-100366428D01*
X144061428Y-100437857D01*
X144204285Y-100509285D01*
X144775714Y-100509285D01*
X142990000Y-99723571D02*
X142704285Y-99723571D01*
X142561428Y-99795000D01*
X142418571Y-99937857D01*
X142347142Y-100223571D01*
X142347142Y-100723571D01*
X142418571Y-101009285D01*
X142561428Y-101152142D01*
X142704285Y-101223571D01*
X142990000Y-101223571D01*
X143132857Y-101152142D01*
X143275714Y-101009285D01*
X143347142Y-100723571D01*
X143347142Y-100223571D01*
X143275714Y-99937857D01*
X143132857Y-99795000D01*
X142990000Y-99723571D01*
X141847142Y-99723571D02*
X141490000Y-101223571D01*
X141204285Y-100152142D01*
X140918571Y-101223571D01*
X140561428Y-99723571D01*
X139990000Y-100437857D02*
X139490000Y-100437857D01*
X139275714Y-101223571D02*
X139990000Y-101223571D01*
X139990000Y-99723571D01*
X139275714Y-99723571D01*
X137775714Y-101223571D02*
X138275714Y-100509285D01*
X138632857Y-101223571D02*
X138632857Y-99723571D01*
X138061428Y-99723571D01*
X137918571Y-99795000D01*
X137847142Y-99866428D01*
X137775714Y-100009285D01*
X137775714Y-100223571D01*
X137847142Y-100366428D01*
X137918571Y-100437857D01*
X138061428Y-100509285D01*
X138632857Y-100509285D01*
X137347142Y-100223571D02*
X136775714Y-100223571D01*
X137132857Y-99723571D02*
X137132857Y-101009285D01*
X137061428Y-101152142D01*
X136918571Y-101223571D01*
X136775714Y-101223571D01*
X136275714Y-101223571D02*
X136275714Y-100223571D01*
X136275714Y-100509285D02*
X136204285Y-100366428D01*
X136132857Y-100295000D01*
X135990000Y-100223571D01*
X135847142Y-100223571D01*
X135132857Y-101223571D02*
X135275714Y-101152142D01*
X135347142Y-101080714D01*
X135418571Y-100937857D01*
X135418571Y-100509285D01*
X135347142Y-100366428D01*
X135275714Y-100295000D01*
X135132857Y-100223571D01*
X134918571Y-100223571D01*
X134775714Y-100295000D01*
X134704285Y-100366428D01*
X134632857Y-100509285D01*
X134632857Y-100937857D01*
X134704285Y-101080714D01*
X134775714Y-101152142D01*
X134918571Y-101223571D01*
X135132857Y-101223571D01*
X133990000Y-100223571D02*
X133990000Y-101223571D01*
X133990000Y-100366428D02*
X133918571Y-100295000D01*
X133775714Y-100223571D01*
X133561428Y-100223571D01*
X133418571Y-100295000D01*
X133347142Y-100437857D01*
X133347142Y-101223571D01*
X132632857Y-101223571D02*
X132632857Y-100223571D01*
X132632857Y-99723571D02*
X132704285Y-99795000D01*
X132632857Y-99866428D01*
X132561428Y-99795000D01*
X132632857Y-99723571D01*
X132632857Y-99866428D01*
X131275714Y-101152142D02*
X131418571Y-101223571D01*
X131704285Y-101223571D01*
X131847142Y-101152142D01*
X131918571Y-101080714D01*
X131990000Y-100937857D01*
X131990000Y-100509285D01*
X131918571Y-100366428D01*
X131847142Y-100295000D01*
X131704285Y-100223571D01*
X131418571Y-100223571D01*
X131275714Y-100295000D01*
X130704285Y-101152142D02*
X130561428Y-101223571D01*
X130275714Y-101223571D01*
X130132857Y-101152142D01*
X130061428Y-101009285D01*
X130061428Y-100937857D01*
X130132857Y-100795000D01*
X130275714Y-100723571D01*
X130490000Y-100723571D01*
X130632857Y-100652142D01*
X130704285Y-100509285D01*
X130704285Y-100437857D01*
X130632857Y-100295000D01*
X130490000Y-100223571D01*
X130275714Y-100223571D01*
X130132857Y-100295000D01*
X128490000Y-100509285D02*
X128561428Y-100437857D01*
X128704285Y-100366428D01*
X128847142Y-100366428D01*
X128990000Y-100437857D01*
X129061428Y-100509285D01*
X129132857Y-100652142D01*
X129132857Y-100795000D01*
X129061428Y-100937857D01*
X128990000Y-101009285D01*
X128847142Y-101080714D01*
X128704285Y-101080714D01*
X128561428Y-101009285D01*
X128490000Y-100937857D01*
X128490000Y-100366428D02*
X128490000Y-100937857D01*
X128418571Y-101009285D01*
X128347142Y-101009285D01*
X128204285Y-100937857D01*
X128132857Y-100795000D01*
X128132857Y-100437857D01*
X128275714Y-100223571D01*
X128490000Y-100080714D01*
X128775714Y-100009285D01*
X129061428Y-100080714D01*
X129275714Y-100223571D01*
X129418571Y-100437857D01*
X129490000Y-100723571D01*
X129418571Y-101009285D01*
X129275714Y-101223571D01*
X129061428Y-101366428D01*
X128775714Y-101437857D01*
X128490000Y-101366428D01*
X128275714Y-101223571D01*
X127632857Y-101795000D02*
X127561428Y-101723571D01*
X127418571Y-101509285D01*
X127347142Y-101366428D01*
X127275714Y-101152142D01*
X127204285Y-100795000D01*
X127204285Y-100509285D01*
X127275714Y-100152142D01*
X127347142Y-99937857D01*
X127418571Y-99795000D01*
X127561428Y-99580714D01*
X127632857Y-99509285D01*
M02*
