G04 #@! TF.FileFunction,Copper,L2,Bot,Signal*
%FSLAX46Y46*%
G04 Gerber Fmt 4.6, Leading zero omitted, Abs format (unit mm)*
G04 Created by KiCad (PCBNEW 4.0.5) date 04/05/20 14:46:34*
%MOMM*%
%LPD*%
G01*
G04 APERTURE LIST*
%ADD10C,0.100000*%
%ADD11C,0.400000*%
%ADD12C,1.300000*%
%ADD13R,1.300000X1.300000*%
%ADD14R,1.800000X1.800000*%
%ADD15C,1.800000*%
%ADD16R,2.540000X2.540000*%
%ADD17C,2.540000*%
%ADD18C,1.520000*%
%ADD19R,1.520000X1.520000*%
%ADD20C,1.998980*%
%ADD21C,0.600000*%
%ADD22C,0.250000*%
G04 APERTURE END LIST*
D10*
D11*
X186765714Y-130444762D02*
X186765714Y-128444762D01*
X184860952Y-128444762D01*
X184384761Y-128540000D01*
X184146666Y-128635238D01*
X183908571Y-128825714D01*
X183908571Y-129111429D01*
X184146666Y-129301905D01*
X184384761Y-129397143D01*
X184860952Y-129492381D01*
X186765714Y-129492381D01*
X180813333Y-128444762D02*
X179860952Y-128444762D01*
X179384761Y-128540000D01*
X178908571Y-128730476D01*
X178670476Y-129111429D01*
X178670476Y-129778095D01*
X178908571Y-130159048D01*
X179384761Y-130349524D01*
X179860952Y-130444762D01*
X180813333Y-130444762D01*
X181289523Y-130349524D01*
X181765714Y-130159048D01*
X182003809Y-129778095D01*
X182003809Y-129111429D01*
X181765714Y-128730476D01*
X181289523Y-128540000D01*
X180813333Y-128444762D01*
X177003809Y-128444762D02*
X175813333Y-130444762D01*
X174860952Y-129016190D01*
X173908571Y-130444762D01*
X172718095Y-128444762D01*
X170813333Y-129397143D02*
X169146666Y-129397143D01*
X168432380Y-130444762D02*
X170813333Y-130444762D01*
X170813333Y-128444762D01*
X168432380Y-128444762D01*
X163432380Y-130444762D02*
X165099047Y-129492381D01*
X166289523Y-130444762D02*
X166289523Y-128444762D01*
X164384761Y-128444762D01*
X163908570Y-128540000D01*
X163670475Y-128635238D01*
X163432380Y-128825714D01*
X163432380Y-129111429D01*
X163670475Y-129301905D01*
X163908570Y-129397143D01*
X164384761Y-129492381D01*
X166289523Y-129492381D01*
X162003809Y-129111429D02*
X160099047Y-129111429D01*
X161289523Y-128444762D02*
X161289523Y-130159048D01*
X161051428Y-130349524D01*
X160575237Y-130444762D01*
X160099047Y-130444762D01*
X158432380Y-130444762D02*
X158432380Y-129111429D01*
X158432380Y-129492381D02*
X158194285Y-129301905D01*
X157956189Y-129206667D01*
X157479999Y-129111429D01*
X157003808Y-129111429D01*
X154622856Y-130444762D02*
X155099047Y-130349524D01*
X155337142Y-130254286D01*
X155575237Y-130063810D01*
X155575237Y-129492381D01*
X155337142Y-129301905D01*
X155099047Y-129206667D01*
X154622856Y-129111429D01*
X153908570Y-129111429D01*
X153432380Y-129206667D01*
X153194285Y-129301905D01*
X152956189Y-129492381D01*
X152956189Y-130063810D01*
X153194285Y-130254286D01*
X153432380Y-130349524D01*
X153908570Y-130444762D01*
X154622856Y-130444762D01*
X150813332Y-129111429D02*
X150813332Y-130444762D01*
X150813332Y-129301905D02*
X150575237Y-129206667D01*
X150099046Y-129111429D01*
X149384760Y-129111429D01*
X148908570Y-129206667D01*
X148670475Y-129397143D01*
X148670475Y-130444762D01*
X146289522Y-130444762D02*
X146289522Y-129111429D01*
X146289522Y-128444762D02*
X146527617Y-128540000D01*
X146289522Y-128635238D01*
X146051427Y-128540000D01*
X146289522Y-128444762D01*
X146289522Y-128635238D01*
X141765713Y-130349524D02*
X142241903Y-130444762D01*
X143194284Y-130444762D01*
X143670475Y-130349524D01*
X143908570Y-130254286D01*
X144146665Y-130063810D01*
X144146665Y-129492381D01*
X143908570Y-129301905D01*
X143670475Y-129206667D01*
X143194284Y-129111429D01*
X142241903Y-129111429D01*
X141765713Y-129206667D01*
X139860951Y-130349524D02*
X139384761Y-130444762D01*
X138432380Y-130444762D01*
X137956189Y-130349524D01*
X137718094Y-130159048D01*
X137718094Y-130063810D01*
X137956189Y-129873333D01*
X138432380Y-129778095D01*
X139146665Y-129778095D01*
X139622856Y-129682857D01*
X139860951Y-129492381D01*
X139860951Y-129397143D01*
X139622856Y-129206667D01*
X139146665Y-129111429D01*
X138432380Y-129111429D01*
X137956189Y-129206667D01*
X132479999Y-129492381D02*
X132718094Y-129397143D01*
X133194284Y-129301905D01*
X133670475Y-129301905D01*
X134146665Y-129397143D01*
X134384761Y-129492381D01*
X134622856Y-129682857D01*
X134622856Y-129873333D01*
X134384761Y-130063810D01*
X134146665Y-130159048D01*
X133670475Y-130254286D01*
X133194284Y-130254286D01*
X132718094Y-130159048D01*
X132479999Y-130063810D01*
X132479999Y-129301905D02*
X132479999Y-130063810D01*
X132241903Y-130159048D01*
X132003808Y-130159048D01*
X131527618Y-130063810D01*
X131289523Y-129873333D01*
X131289523Y-129397143D01*
X131765713Y-129111429D01*
X132479999Y-128920952D01*
X133432380Y-128825714D01*
X134384761Y-128920952D01*
X135099046Y-129111429D01*
X135575237Y-129397143D01*
X135813332Y-129778095D01*
X135575237Y-130159048D01*
X135099046Y-130444762D01*
X134384761Y-130635238D01*
X133432380Y-130730476D01*
X132479999Y-130635238D01*
X131765713Y-130444762D01*
X129622856Y-131206667D02*
X129384761Y-131111429D01*
X128908571Y-130825714D01*
X128670475Y-130635238D01*
X128432380Y-130349524D01*
X128194285Y-129873333D01*
X128194285Y-129492381D01*
X128432380Y-129016190D01*
X128670475Y-128730476D01*
X128908571Y-128540000D01*
X129384761Y-128254286D01*
X129622856Y-128159048D01*
D12*
X150455000Y-117475000D03*
D13*
X147955000Y-117475000D03*
D12*
X150455000Y-107950000D03*
D13*
X147955000Y-107950000D03*
D14*
X172925001Y-105900000D03*
D15*
X175465001Y-105900000D03*
D14*
X175260000Y-113665000D03*
D15*
X172720000Y-113665000D03*
D14*
X172720000Y-121285000D03*
D15*
X175260000Y-121285000D03*
D14*
X182880000Y-106045000D03*
D15*
X180340000Y-106045000D03*
D14*
X180340000Y-113665000D03*
D15*
X182880000Y-113665000D03*
D14*
X182880000Y-121285000D03*
D15*
X180340000Y-121285000D03*
D16*
X136525000Y-107315000D03*
D17*
X136525000Y-112395000D03*
D18*
X149860000Y-98425000D03*
X152400000Y-98425000D03*
D19*
X147320000Y-98425000D03*
D18*
X159385000Y-98425000D03*
X161925000Y-98425000D03*
D19*
X156845000Y-98425000D03*
D20*
X161675001Y-105440120D03*
X169295001Y-105440120D03*
X163195000Y-112395000D03*
X155575000Y-112395000D03*
D21*
X169295001Y-105440120D02*
X169295001Y-96905001D01*
X159385000Y-94615000D02*
X159385000Y-98425000D01*
X160020000Y-93980000D02*
X159385000Y-94615000D01*
X166370000Y-93980000D02*
X160020000Y-93980000D01*
X169295001Y-96905001D02*
X166370000Y-93980000D01*
X150455000Y-117475000D02*
X166370000Y-117475000D01*
X169295001Y-114549999D02*
X169295001Y-105440120D01*
X166370000Y-117475000D02*
X169295001Y-114549999D01*
X147955000Y-117475000D02*
X147955000Y-118745000D01*
X150495000Y-121285000D02*
X172720000Y-121285000D01*
X147955000Y-118745000D02*
X150495000Y-121285000D01*
X147955000Y-117475000D02*
X146050000Y-117475000D01*
X152400000Y-100965000D02*
X152400000Y-98425000D01*
X151130000Y-102235000D02*
X152400000Y-100965000D01*
X146685000Y-102235000D02*
X151130000Y-102235000D01*
X144145000Y-104775000D02*
X146685000Y-102235000D01*
X144145000Y-115570000D02*
X144145000Y-104775000D01*
X146050000Y-117475000D02*
X144145000Y-115570000D01*
D11*
X150455000Y-107950000D02*
X150455000Y-111165000D01*
X150455000Y-111165000D02*
X149860000Y-111760000D01*
X149860000Y-111760000D02*
X146050000Y-111760000D01*
X146050000Y-111760000D02*
X145415000Y-111125000D01*
X145415000Y-111125000D02*
X145415000Y-104775000D01*
D22*
X145415000Y-104775000D02*
X147310002Y-102879998D01*
X147310002Y-102879998D02*
X154305000Y-102879998D01*
X154305000Y-102879998D02*
X154940000Y-102244998D01*
D11*
X154940000Y-102244998D02*
X154940000Y-96520000D01*
X154940000Y-96520000D02*
X154305000Y-95885000D01*
X154305000Y-95885000D02*
X150495000Y-95885000D01*
X150495000Y-95885000D02*
X149860000Y-96520000D01*
X149860000Y-96520000D02*
X149860000Y-98425000D01*
D21*
X155575000Y-112395000D02*
X151765000Y-112395000D01*
X150455000Y-111085000D02*
X150455000Y-107950000D01*
X151765000Y-112395000D02*
X150455000Y-111085000D01*
D11*
X161925000Y-98425000D02*
X161925000Y-99695000D01*
X184785000Y-121285000D02*
X182880000Y-121285000D01*
X186055000Y-120015000D02*
X184785000Y-121285000D01*
X186055000Y-95250000D02*
X186055000Y-120015000D01*
X182880000Y-92075000D02*
X186055000Y-95250000D01*
X158750000Y-92075000D02*
X182880000Y-92075000D01*
X158115000Y-92710000D02*
X158750000Y-92075000D01*
X158115000Y-99695000D02*
X158115000Y-92710000D01*
X158750000Y-100330000D02*
X158115000Y-99695000D01*
X161290000Y-100330000D02*
X158750000Y-100330000D01*
X161925000Y-99695000D02*
X161290000Y-100330000D01*
D21*
X147955000Y-107950000D02*
X147955000Y-104140000D01*
X161925000Y-102235000D02*
X161925000Y-99060000D01*
X160655000Y-103505000D02*
X161925000Y-102235000D01*
X148590000Y-103505000D02*
X160655000Y-103505000D01*
X147955000Y-104140000D02*
X148590000Y-103505000D01*
X161925000Y-99060000D02*
X161925000Y-98425000D01*
X172925001Y-105900000D02*
X172925001Y-113459999D01*
X172925001Y-113459999D02*
X172720000Y-113665000D01*
D22*
X175465001Y-105900000D02*
X175465001Y-104345001D01*
X163195000Y-114300000D02*
X163195000Y-112395000D01*
X162560000Y-114935000D02*
X163195000Y-114300000D01*
X150495000Y-114935000D02*
X162560000Y-114935000D01*
X149225000Y-116205000D02*
X150495000Y-114935000D01*
X149225000Y-118110000D02*
X149225000Y-116205000D01*
X150495000Y-119380000D02*
X149225000Y-118110000D01*
X167640000Y-119380000D02*
X150495000Y-119380000D01*
X170815000Y-116205000D02*
X167640000Y-119380000D01*
X170815000Y-104140000D02*
X170815000Y-116205000D01*
X171450000Y-103505000D02*
X170815000Y-104140000D01*
X174625000Y-103505000D02*
X171450000Y-103505000D01*
X175465001Y-104345001D02*
X174625000Y-103505000D01*
X175465001Y-105900000D02*
X175750000Y-105900000D01*
D21*
X175750000Y-105900000D02*
X177800000Y-107950000D01*
X139700000Y-107315000D02*
X136525000Y-107315000D01*
X140970000Y-108585000D02*
X139700000Y-107315000D01*
X140970000Y-121285000D02*
X140970000Y-108585000D01*
X146050000Y-126365000D02*
X140970000Y-121285000D01*
X177165000Y-126365000D02*
X146050000Y-126365000D01*
X177800000Y-125730000D02*
X177165000Y-126365000D01*
X177800000Y-107950000D02*
X177800000Y-125730000D01*
X175465001Y-105900000D02*
X180195000Y-105900000D01*
X180195000Y-105900000D02*
X180340000Y-106045000D01*
X161675001Y-105440120D02*
X161675001Y-107700001D01*
X163195000Y-109220000D02*
X163195000Y-112395000D01*
X161675001Y-107700001D02*
X163195000Y-109220000D01*
X175260000Y-121285000D02*
X175260000Y-113665000D01*
X182880000Y-106045000D02*
X182880000Y-113665000D01*
X180340000Y-121285000D02*
X180340000Y-113665000D01*
X147320000Y-98425000D02*
X134620000Y-98425000D01*
X133350000Y-112395000D02*
X136525000Y-112395000D01*
X131445000Y-110490000D02*
X133350000Y-112395000D01*
X131445000Y-101600000D02*
X131445000Y-110490000D01*
X134620000Y-98425000D02*
X131445000Y-101600000D01*
X147320000Y-98425000D02*
X147320000Y-95885000D01*
X156845000Y-95885000D02*
X156845000Y-98425000D01*
X155575000Y-94615000D02*
X156845000Y-95885000D01*
X148590000Y-94615000D02*
X155575000Y-94615000D01*
X147320000Y-95885000D02*
X148590000Y-94615000D01*
M02*
