M48
; DRILL file {KiCad (5.1.6)-1} date 09/07/20 12:27:52
; FORMAT={-:-/ absolute / inch / decimal}
; #@! TF.CreationDate,2020-09-07T12:27:52+05:30
; #@! TF.GenerationSoftware,Kicad,Pcbnew,(5.1.6)-1
; #@! TF.FileFunction,Plated,1,2,PTH
FMAT,2
INCH
T1C0.0315
T2C0.0354
T3C0.0394
T4C0.0600
%
G90
G05
T1
X5.825Y-4.25
X5.9234Y-4.25
X5.825Y-4.625
X5.9234Y-4.625
X6.175Y-3.875
X6.275Y-3.875
X6.375Y-3.875
X5.8Y-3.875
X5.9Y-3.875
X6.0Y-3.875
T2
X6.8Y-4.775
X6.9Y-4.775
X7.1Y-4.775
X7.2Y-4.775
X6.8Y-4.475
X6.9Y-4.475
X6.8081Y-4.1693
X6.9081Y-4.1693
X7.1Y-4.475
X7.2Y-4.475
X7.1Y-4.175
X7.2Y-4.175
T3
X6.125Y-4.425
X6.425Y-4.425
X6.3652Y-4.1512
X6.6652Y-4.1512
T4
X5.375Y-4.225
X5.375Y-4.425
T0
M30
